%TF.GenerationSoftware,Altium Limited,Altium Designer,22.5.1 (42)*%
G04 Layer_Color=128*
%FSLAX44Y44*%
%MOMM*%
%TF.SameCoordinates,15DEB0BC-4505-4058-9DE8-AE4841CA441A*%
%TF.FilePolarity,Positive*%
%TF.FileFunction,Paste,Bot*%
%TF.Part,Single*%
G01*
G75*
%TA.AperFunction,SMDPad,CuDef*%
%ADD10R,0.8000X0.8000*%
%ADD11R,0.8500X0.8500*%
%ADD12R,0.8000X0.8000*%
G04:AMPARAMS|DCode=13|XSize=4.2mm|YSize=4.2mm|CornerRadius=0.21mm|HoleSize=0mm|Usage=FLASHONLY|Rotation=180.000|XOffset=0mm|YOffset=0mm|HoleType=Round|Shape=RoundedRectangle|*
%AMROUNDEDRECTD13*
21,1,4.2000,3.7800,0,0,180.0*
21,1,3.7800,4.2000,0,0,180.0*
1,1,0.4200,-1.8900,1.8900*
1,1,0.4200,1.8900,1.8900*
1,1,0.4200,1.8900,-1.8900*
1,1,0.4200,-1.8900,-1.8900*
%
%ADD13ROUNDEDRECTD13*%
%ADD23R,1.0000X1.6000*%
%ADD26R,0.8500X0.8500*%
%ADD27R,1.6000X1.0000*%
%ADD54R,1.0000X0.4000*%
%ADD55R,2.6000X3.0000*%
%ADD56R,1.2500X1.0000*%
%ADD57R,5.3500X3.6000*%
%ADD58R,1.8500X1.5000*%
%ADD59R,3.0000X2.0000*%
G04:AMPARAMS|DCode=60|XSize=0.24mm|YSize=0.6mm|CornerRadius=0.03mm|HoleSize=0mm|Usage=FLASHONLY|Rotation=180.000|XOffset=0mm|YOffset=0mm|HoleType=Round|Shape=RoundedRectangle|*
%AMROUNDEDRECTD60*
21,1,0.2400,0.5400,0,0,180.0*
21,1,0.1800,0.6000,0,0,180.0*
1,1,0.0600,-0.0900,0.2700*
1,1,0.0600,0.0900,0.2700*
1,1,0.0600,0.0900,-0.2700*
1,1,0.0600,-0.0900,-0.2700*
%
%ADD60ROUNDEDRECTD60*%
G04:AMPARAMS|DCode=61|XSize=0.6mm|YSize=0.24mm|CornerRadius=0.03mm|HoleSize=0mm|Usage=FLASHONLY|Rotation=180.000|XOffset=0mm|YOffset=0mm|HoleType=Round|Shape=RoundedRectangle|*
%AMROUNDEDRECTD61*
21,1,0.6000,0.1800,0,0,180.0*
21,1,0.5400,0.2400,0,0,180.0*
1,1,0.0600,-0.2700,0.0900*
1,1,0.0600,0.2700,0.0900*
1,1,0.0600,0.2700,-0.0900*
1,1,0.0600,-0.2700,-0.0900*
%
%ADD61ROUNDEDRECTD61*%
%ADD63R,2.0000X1.4000*%
%ADD64R,7.0000X7.0000*%
%ADD65R,3.2500X5.0000*%
G36*
X34970Y-17560D02*
X34950D01*
X34920Y-17570D01*
X34900D01*
X34870Y-17580D01*
X34850Y-17590D01*
X34820Y-17600D01*
X34800Y-17620D01*
X34780Y-17630D01*
X34760Y-17650D01*
X34740Y-17660D01*
X34720Y-17680D01*
X34700Y-17700D01*
X34680Y-17720D01*
X34660Y-17740D01*
X34650Y-17760D01*
X34630Y-17780D01*
X34620Y-17800D01*
X34600Y-17820D01*
X34590Y-17850D01*
X34580Y-17870D01*
X34570Y-17900D01*
Y-17920D01*
X34560Y-17950D01*
Y-17970D01*
X34550Y-18000D01*
Y-18020D01*
Y-18050D01*
Y-30350D01*
Y-30380D01*
Y-30400D01*
X34560Y-30430D01*
Y-30450D01*
X34570Y-30480D01*
Y-30500D01*
X34580Y-30530D01*
X34590Y-30550D01*
X34600Y-30580D01*
X34620Y-30600D01*
X34630Y-30620D01*
X34650Y-30640D01*
X34660Y-30660D01*
X34680Y-30680D01*
X34700Y-30700D01*
X34720Y-30720D01*
X34740Y-30740D01*
X34760Y-30750D01*
X34780Y-30770D01*
X34800Y-30780D01*
X34820Y-30800D01*
X34850Y-30810D01*
X34870Y-30820D01*
X34900Y-30830D01*
X34920D01*
X34950Y-30840D01*
X34970D01*
X35000Y-30850D01*
X43300D01*
X43330Y-30840D01*
X43350D01*
X43380Y-30830D01*
X43400D01*
X43430Y-30820D01*
X43450Y-30810D01*
X43480Y-30800D01*
X43500Y-30780D01*
X43520Y-30770D01*
X43540Y-30750D01*
X43560Y-30740D01*
X43580Y-30720D01*
X43600Y-30700D01*
X43620Y-30680D01*
X43640Y-30660D01*
X43650Y-30640D01*
X43670Y-30620D01*
X43680Y-30600D01*
X43700Y-30580D01*
X43710Y-30550D01*
X43720Y-30530D01*
X43730Y-30500D01*
Y-30480D01*
X43740Y-30450D01*
Y-30430D01*
X43750Y-30400D01*
Y-30380D01*
Y-30350D01*
Y-18050D01*
Y-18020D01*
Y-18000D01*
X43740Y-17970D01*
Y-17950D01*
X43730Y-17920D01*
Y-17900D01*
X43720Y-17870D01*
X43710Y-17850D01*
X43700Y-17820D01*
X43680Y-17800D01*
X43670Y-17780D01*
X43650Y-17760D01*
X43640Y-17740D01*
X43620Y-17720D01*
X43600Y-17700D01*
X43580Y-17680D01*
X43560Y-17660D01*
X43540Y-17650D01*
X43520Y-17630D01*
X43500Y-17620D01*
X43480Y-17600D01*
X43450Y-17590D01*
X43430Y-17580D01*
X43400Y-17570D01*
X43380D01*
X43350Y-17560D01*
X43330D01*
X43300Y-17550D01*
X35000D01*
X34970Y-17560D01*
D02*
G37*
G36*
X46170D02*
X46150D01*
X46120Y-17570D01*
X46100D01*
X46070Y-17580D01*
X46050Y-17590D01*
X46020Y-17600D01*
X46000Y-17620D01*
X45980Y-17630D01*
X45960Y-17650D01*
X45940Y-17660D01*
X45920Y-17680D01*
X45900Y-17700D01*
X45880Y-17720D01*
X45860Y-17740D01*
X45850Y-17760D01*
X45830Y-17780D01*
X45820Y-17800D01*
X45800Y-17820D01*
X45790Y-17850D01*
X45780Y-17870D01*
X45770Y-17900D01*
Y-17920D01*
X45760Y-17950D01*
Y-17970D01*
X45750Y-18000D01*
Y-18020D01*
Y-18050D01*
Y-30350D01*
Y-30380D01*
Y-30400D01*
X45760Y-30430D01*
Y-30450D01*
X45770Y-30480D01*
Y-30500D01*
X45780Y-30530D01*
X45790Y-30550D01*
X45800Y-30580D01*
X45820Y-30600D01*
X45830Y-30620D01*
X45850Y-30640D01*
X45860Y-30660D01*
X45880Y-30680D01*
X45900Y-30700D01*
X45920Y-30720D01*
X45940Y-30740D01*
X45960Y-30750D01*
X45980Y-30770D01*
X46000Y-30780D01*
X46020Y-30800D01*
X46050Y-30810D01*
X46070Y-30820D01*
X46100Y-30830D01*
X46120D01*
X46150Y-30840D01*
X46170D01*
X46200Y-30850D01*
X54500D01*
X54530Y-30840D01*
X54550D01*
X54580Y-30830D01*
X54600D01*
X54630Y-30820D01*
X54650Y-30810D01*
X54680Y-30800D01*
X54700Y-30780D01*
X54720Y-30770D01*
X54740Y-30750D01*
X54760Y-30740D01*
X54780Y-30720D01*
X54800Y-30700D01*
X54820Y-30680D01*
X54840Y-30660D01*
X54850Y-30640D01*
X54870Y-30620D01*
X54880Y-30600D01*
X54900Y-30580D01*
X54910Y-30550D01*
X54920Y-30530D01*
X54930Y-30500D01*
Y-30480D01*
X54940Y-30450D01*
Y-30430D01*
X54950Y-30400D01*
Y-30380D01*
Y-30350D01*
Y-18050D01*
Y-18020D01*
Y-18000D01*
X54940Y-17970D01*
Y-17950D01*
X54930Y-17920D01*
Y-17900D01*
X54920Y-17870D01*
X54910Y-17850D01*
X54900Y-17820D01*
X54880Y-17800D01*
X54870Y-17780D01*
X54850Y-17760D01*
X54840Y-17740D01*
X54820Y-17720D01*
X54800Y-17700D01*
X54780Y-17680D01*
X54760Y-17660D01*
X54740Y-17650D01*
X54720Y-17630D01*
X54700Y-17620D01*
X54680Y-17600D01*
X54650Y-17590D01*
X54630Y-17580D01*
X54600Y-17570D01*
X54580D01*
X54550Y-17560D01*
X54530D01*
X54500Y-17550D01*
X46200D01*
X46170Y-17560D01*
D02*
G37*
G36*
X34970Y-2160D02*
X34950D01*
X34920Y-2170D01*
X34900D01*
X34870Y-2180D01*
X34850Y-2190D01*
X34820Y-2200D01*
X34800Y-2220D01*
X34780Y-2230D01*
X34760Y-2250D01*
X34740Y-2260D01*
X34720Y-2280D01*
X34700Y-2300D01*
X34680Y-2320D01*
X34660Y-2340D01*
X34650Y-2360D01*
X34630Y-2380D01*
X34620Y-2400D01*
X34600Y-2420D01*
X34590Y-2450D01*
X34580Y-2470D01*
X34570Y-2500D01*
Y-2520D01*
X34560Y-2550D01*
Y-2570D01*
X34550Y-2600D01*
Y-2620D01*
Y-2650D01*
Y-14950D01*
Y-14980D01*
Y-15000D01*
X34560Y-15030D01*
Y-15050D01*
X34570Y-15080D01*
Y-15100D01*
X34580Y-15130D01*
X34590Y-15150D01*
X34600Y-15180D01*
X34620Y-15200D01*
X34630Y-15220D01*
X34650Y-15240D01*
X34660Y-15260D01*
X34680Y-15280D01*
X34700Y-15300D01*
X34720Y-15320D01*
X34740Y-15340D01*
X34760Y-15350D01*
X34780Y-15370D01*
X34800Y-15380D01*
X34820Y-15400D01*
X34850Y-15410D01*
X34870Y-15420D01*
X34900Y-15430D01*
X34920D01*
X34950Y-15440D01*
X34970D01*
X35000Y-15450D01*
X43300D01*
X43330Y-15440D01*
X43350D01*
X43380Y-15430D01*
X43400D01*
X43430Y-15420D01*
X43450Y-15410D01*
X43480Y-15400D01*
X43500Y-15380D01*
X43520Y-15370D01*
X43540Y-15350D01*
X43560Y-15340D01*
X43580Y-15320D01*
X43600Y-15300D01*
X43620Y-15280D01*
X43640Y-15260D01*
X43650Y-15240D01*
X43670Y-15220D01*
X43680Y-15200D01*
X43700Y-15180D01*
X43710Y-15150D01*
X43720Y-15130D01*
X43730Y-15100D01*
Y-15080D01*
X43740Y-15050D01*
Y-15030D01*
X43750Y-15000D01*
Y-14980D01*
Y-14950D01*
Y-2650D01*
Y-2620D01*
Y-2600D01*
X43740Y-2570D01*
Y-2550D01*
X43730Y-2520D01*
Y-2500D01*
X43720Y-2470D01*
X43710Y-2450D01*
X43700Y-2420D01*
X43680Y-2400D01*
X43670Y-2380D01*
X43650Y-2360D01*
X43640Y-2340D01*
X43620Y-2320D01*
X43600Y-2300D01*
X43580Y-2280D01*
X43560Y-2260D01*
X43540Y-2250D01*
X43520Y-2230D01*
X43500Y-2220D01*
X43480Y-2200D01*
X43450Y-2190D01*
X43430Y-2180D01*
X43400Y-2170D01*
X43380D01*
X43350Y-2160D01*
X43330D01*
X43300Y-2150D01*
X35000D01*
X34970Y-2160D01*
D02*
G37*
G36*
X46170D02*
X46150D01*
X46120Y-2170D01*
X46100D01*
X46070Y-2180D01*
X46050Y-2190D01*
X46020Y-2200D01*
X46000Y-2220D01*
X45980Y-2230D01*
X45960Y-2250D01*
X45940Y-2260D01*
X45920Y-2280D01*
X45900Y-2300D01*
X45880Y-2320D01*
X45860Y-2340D01*
X45850Y-2360D01*
X45830Y-2380D01*
X45820Y-2400D01*
X45800Y-2420D01*
X45790Y-2450D01*
X45780Y-2470D01*
X45770Y-2500D01*
Y-2520D01*
X45760Y-2550D01*
Y-2570D01*
X45750Y-2600D01*
Y-2620D01*
Y-2650D01*
Y-14950D01*
Y-14980D01*
Y-15000D01*
X45760Y-15030D01*
Y-15050D01*
X45770Y-15080D01*
Y-15100D01*
X45780Y-15130D01*
X45790Y-15150D01*
X45800Y-15180D01*
X45820Y-15200D01*
X45830Y-15220D01*
X45850Y-15240D01*
X45860Y-15260D01*
X45880Y-15280D01*
X45900Y-15300D01*
X45920Y-15320D01*
X45940Y-15340D01*
X45960Y-15350D01*
X45980Y-15370D01*
X46000Y-15380D01*
X46020Y-15400D01*
X46050Y-15410D01*
X46070Y-15420D01*
X46100Y-15430D01*
X46120D01*
X46150Y-15440D01*
X46170D01*
X46200Y-15450D01*
X54500D01*
X54530Y-15440D01*
X54550D01*
X54580Y-15430D01*
X54600D01*
X54630Y-15420D01*
X54650Y-15410D01*
X54680Y-15400D01*
X54700Y-15380D01*
X54720Y-15370D01*
X54740Y-15350D01*
X54760Y-15340D01*
X54780Y-15320D01*
X54800Y-15300D01*
X54820Y-15280D01*
X54840Y-15260D01*
X54850Y-15240D01*
X54870Y-15220D01*
X54880Y-15200D01*
X54900Y-15180D01*
X54910Y-15150D01*
X54920Y-15130D01*
X54930Y-15100D01*
Y-15080D01*
X54940Y-15050D01*
Y-15030D01*
X54950Y-15000D01*
Y-14980D01*
Y-14950D01*
Y-2650D01*
Y-2620D01*
Y-2600D01*
X54940Y-2570D01*
Y-2550D01*
X54930Y-2520D01*
Y-2500D01*
X54920Y-2470D01*
X54910Y-2450D01*
X54900Y-2420D01*
X54880Y-2400D01*
X54870Y-2380D01*
X54850Y-2360D01*
X54840Y-2340D01*
X54820Y-2320D01*
X54800Y-2300D01*
X54780Y-2280D01*
X54760Y-2260D01*
X54740Y-2250D01*
X54720Y-2230D01*
X54700Y-2220D01*
X54680Y-2200D01*
X54650Y-2190D01*
X54630Y-2180D01*
X54600Y-2170D01*
X54580D01*
X54550Y-2160D01*
X54530D01*
X54500Y-2150D01*
X46200D01*
X46170Y-2160D01*
D02*
G37*
D10*
X5750Y26500D02*
D03*
Y42500D02*
D03*
X6000Y12000D02*
D03*
Y-4000D02*
D03*
X20250Y-53250D02*
D03*
Y-69250D02*
D03*
X57250Y-54000D02*
D03*
Y-70000D02*
D03*
X72250Y-54000D02*
D03*
Y-70000D02*
D03*
X136000Y6000D02*
D03*
Y-10000D02*
D03*
D11*
X-302750Y89250D02*
D03*
Y104750D02*
D03*
X-113250Y-93750D02*
D03*
Y-78250D02*
D03*
X136250Y-25500D02*
D03*
Y-41000D02*
D03*
D12*
X-254500Y162000D02*
D03*
X-270500D02*
D03*
X-333500Y122250D02*
D03*
X-349500D02*
D03*
X-302250Y139000D02*
D03*
X-318250D02*
D03*
X-224250Y122000D02*
D03*
X-208250D02*
D03*
X87250Y-7500D02*
D03*
X103250D02*
D03*
X87250Y21750D02*
D03*
X103250D02*
D03*
X87250Y-21250D02*
D03*
X103250D02*
D03*
D13*
X-301250Y290500D02*
D03*
X-207250D02*
D03*
D23*
X-60500Y104250D02*
D03*
X-90500D02*
D03*
X-60750Y130500D02*
D03*
X-90750D02*
D03*
X-60000Y157000D02*
D03*
X-90000D02*
D03*
X-60000Y184000D02*
D03*
X-90000D02*
D03*
D26*
X-301750Y122500D02*
D03*
X-317250D02*
D03*
X-240000Y101250D02*
D03*
X-224500D02*
D03*
X103750Y-50000D02*
D03*
X88250D02*
D03*
X87750Y6750D02*
D03*
X103250D02*
D03*
X102500Y38000D02*
D03*
X87000D02*
D03*
X88000Y-35750D02*
D03*
X103500D02*
D03*
D27*
X-370750Y268750D02*
D03*
Y238750D02*
D03*
X-343500Y268750D02*
D03*
Y238750D02*
D03*
X-187250Y154750D02*
D03*
Y124750D02*
D03*
X191500Y-86000D02*
D03*
Y-56000D02*
D03*
X165500Y-86500D02*
D03*
Y-56500D02*
D03*
D54*
X-240000Y146500D02*
D03*
Y138500D02*
D03*
Y130500D02*
D03*
Y122500D02*
D03*
Y114500D02*
D03*
X-280000D02*
D03*
Y122500D02*
D03*
Y130500D02*
D03*
Y138500D02*
D03*
Y146500D02*
D03*
D55*
X-260000Y130500D02*
D03*
D56*
X-322250Y84750D02*
D03*
Y104750D02*
D03*
X38750Y-55250D02*
D03*
Y-75250D02*
D03*
X140500Y-86000D02*
D03*
Y-66000D02*
D03*
X119500Y-86250D02*
D03*
Y-66250D02*
D03*
D57*
X-254500Y204500D02*
D03*
D58*
X-211500Y194000D02*
D03*
Y215000D02*
D03*
D59*
X21750Y156250D02*
D03*
X127750D02*
D03*
D60*
X52250Y-38000D02*
D03*
X37250D02*
D03*
Y5000D02*
D03*
X52250D02*
D03*
D61*
X61250Y1000D02*
D03*
Y-4000D02*
D03*
Y-9000D02*
D03*
Y-14000D02*
D03*
Y-19000D02*
D03*
Y-24000D02*
D03*
Y-29000D02*
D03*
Y-34000D02*
D03*
X28250D02*
D03*
Y-29000D02*
D03*
Y-24000D02*
D03*
Y-19000D02*
D03*
Y-14000D02*
D03*
Y-9000D02*
D03*
Y-4000D02*
D03*
Y1000D02*
D03*
D63*
X-20250Y-7350D02*
D03*
Y49850D02*
D03*
X-91000Y-32900D02*
D03*
Y-90100D02*
D03*
D64*
X-85250Y21250D02*
D03*
X-26000Y-61500D02*
D03*
D65*
X80250Y-170000D02*
D03*
X-32250D02*
D03*
%TF.MD5,e902596eb334fcdd9baba8918743f4e0*%
M02*
