M48
;Layer_Color=9474304
;FILE_FORMAT=4:4
METRIC,LZ
;TYPE=PLATED
T01F00S00C0.3000
T03F00S00C0.6000
T04F00S00C0.7000
T05F00S00C0.9000
T06F00S00C0.9500
T08F00S00C1.1000
T09F00S00C1.9000
T10F00S00C4.0000
%
T01
X0022352Y-00296926
X00236728Y-00296672
X00195834Y-00280924
X0016891Y-00201168
X00157988
X00150622Y-00344678
X00103124Y-00342138
Y-00350266
Y-00358902
Y-003683
Y-0037719
X00082296Y-00324104
X00070866Y-0032385
X00049022Y-0030988
X00019558Y-00299974
X00019304Y-00290322
X00018796Y-00282194
Y-00272034
X00067564Y-00278384
X00033528Y-00341884
X00033274Y-0035179
Y-00361442
Y-00371602
Y-00381508
X-00043434Y-00369824
Y-00353568
X-0004318Y-00337312
X-00114046Y-00338074
Y-00354076
X-001143Y-00369824
X-00151319Y-00343792
X-00164084Y-00343662
X-00122936Y-00298704
X-00122428Y-00289052
Y-00280416
X-00122174Y-00271018
X-00086106Y-0025908
X-0007366
X-00074168Y-00243586
X-00086614
X-0009906
X-00059436Y-0011811
Y-00086106
X00012446Y-0011811
X-00201168Y00007366
X-00192278
X-00148844Y00095758
X-0014859Y00103632
Y0011176
X-00148336Y00120142
X-00098298Y00103886
Y00096012
X-00028448Y00095758
X-0004445Y00115316
X0002667Y00059944
X00034544Y00060198
X0004191Y00024384
X00146558Y00030734
X00151638Y00043434
X00164338Y00039624
X00173482Y00053594
X00186182Y00053848
X00145542Y00117602
X00159766Y00161798
X00103886Y00160528
X00103632Y00171958
Y00185928
X00103378Y00198374
X00055118Y00211582
X00063246Y00230378
X00122174Y0025781
X00122428Y00274066
X0013335Y00250952
X00197358Y00232156
X00085598Y00134874
X00085344Y00112268
X0002596Y0029769
X0001596
X0000596
X-0000404
X-00014
X-0002404Y00297688
X-00034036
Y00309118
X-0002404
X-00014Y0030912
X-0000404
X0000596
X0001596
X0002596
X-00100838Y0027432
Y00261366
X-00100584Y0024892
Y00236474
X-00108136Y0022352
X-0010795Y00211328
X-00169926Y0021971
X-00185674Y00209804
X-00123617Y0028402
T03
X00281432Y0001804
Y0006604
T04
X-00154808Y-00060198
X-00134808Y-00060198
X-00114808Y-00060198
T05
X-00219456Y00133858
Y00159258
Y00184658
Y00210058
X-00219456Y00235458
X-00219456Y00260858
X00239251Y00289323
X00257212Y00271362
X00275172Y00253402
X00293133Y00235441
X0035687Y00129286
X0035687Y00103886
Y00078486
Y00053086
X0035687Y00027686
X0035687Y00002286
T06
X00311042Y-00090424
X00336042
X00336042Y-00058424
X00311042
T08
X-00092964Y-0036068
X-00067564
X00052324Y-0035941
X00077724
X-00193294Y-00241808
Y-00178308
X-00218694
X-00267462Y-00179324
X-00292862
X-00292608Y-00241808
X-00267208
X-00218694
X-00343408Y00118618
Y00144018
X00075184Y-00039624
X00100584Y-00039624
T09
X00263542Y-00083324
X00383542Y-00083324
T10
X0Y-0037465
X-00324684Y001875
X003248
M30
