%TF.GenerationSoftware,Altium Limited,Altium Designer,22.5.1 (42)*%
G04 Layer_Color=2752767*
%FSLAX44Y44*%
%MOMM*%
%TF.SameCoordinates,01627914-4FCA-44A5-8146-F6A238B5A28C*%
%TF.FilePolarity,Positive*%
%TF.FileFunction,Drawing*%
%TF.Part,Single*%
G01*
G75*
%TA.AperFunction,NonConductor*%
%ADD95C,0.1270*%
%ADD127C,0.1693*%
%ADD128C,0.1016*%
D95*
X349920Y-267080D02*
X352460D01*
X355000Y-264540D01*
X357540Y-267080D01*
X360080D01*
Y-264540D01*
X357540Y-262000D01*
X360080Y-259460D01*
Y-256920D01*
X357540D01*
X355000Y-259460D01*
X352460Y-256920D01*
X349920D01*
Y-259460D01*
X352460Y-262000D01*
X349920Y-264540D01*
Y-267080D01*
X-360080Y256920D02*
X-357540D01*
X-355000Y259460D01*
X-352460Y256920D01*
X-349920D01*
Y259460D01*
X-352460Y262000D01*
X-349920Y264540D01*
Y267080D01*
X-352460D01*
X-355000Y264540D01*
X-357540Y267080D01*
X-360080D01*
Y264540D01*
X-357540Y262000D01*
X-360080Y259460D01*
Y256920D01*
Y-267080D02*
X-357540D01*
X-355000Y-264540D01*
X-352460Y-267080D01*
X-349920D01*
Y-264540D01*
X-352460Y-262000D01*
X-349920Y-259460D01*
Y-256920D01*
X-352460D01*
X-355000Y-259460D01*
X-357540Y-256920D01*
X-360080D01*
Y-259460D01*
X-357540Y-262000D01*
X-360080Y-264540D01*
Y-267080D01*
X349920Y256920D02*
X352460D01*
X355000Y259460D01*
X357540Y256920D01*
X360080D01*
Y259460D01*
X357540Y262000D01*
X360080Y264540D01*
Y267080D01*
X357540D01*
X355000Y264540D01*
X352460Y267080D01*
X349920D01*
Y264540D01*
X352460Y262000D01*
X349920Y259460D01*
Y256920D01*
X-272540Y103760D02*
Y101220D01*
X-267460D01*
Y103760D01*
X-264920D01*
Y108840D01*
X-267460D01*
Y111380D01*
X-272540D01*
Y108840D01*
X-275080D01*
Y103760D01*
X-272540D01*
Y129160D02*
Y126620D01*
X-267460D01*
Y129160D01*
X-264920D01*
Y134240D01*
X-267460D01*
Y136780D01*
X-272540D01*
Y134240D01*
X-275080D01*
Y129160D01*
X-272540D01*
X355920Y154920D02*
X358460Y160000D01*
X355920Y165080D01*
X361000Y162540D01*
X366080Y165080D01*
X363540Y160000D01*
X366080Y154920D01*
X361000Y157460D01*
X355920Y154920D01*
Y115320D02*
X358460Y120400D01*
X355920Y125480D01*
X361000Y122940D01*
X366080Y125480D01*
X363540Y120400D01*
X366080Y115320D01*
X361000Y117860D01*
X355920Y115320D01*
Y194520D02*
X358460Y199600D01*
X355920Y204680D01*
X361000Y202140D01*
X366080Y204680D01*
X363540Y199600D01*
X366080Y194520D01*
X361000Y197060D01*
X355920Y194520D01*
X113920Y232920D02*
X116460Y238000D01*
X113920Y243080D01*
X119000Y240540D01*
X124080Y243080D01*
X121540Y238000D01*
X124080Y232920D01*
X119000Y235460D01*
X113920Y232920D01*
X153520D02*
X156060Y238000D01*
X153520Y243080D01*
X158600Y240540D01*
X163680Y243080D01*
X161140Y238000D01*
X163680Y232920D01*
X158600Y235460D01*
X153520Y232920D01*
X74320D02*
X76860Y238000D01*
X74320Y243080D01*
X79400Y240540D01*
X84480Y243080D01*
X81940Y238000D01*
X84480Y232920D01*
X79400Y235460D01*
X74320Y232920D01*
X208320Y231920D02*
X210860Y237000D01*
X208320Y242080D01*
X213400Y239540D01*
X218480Y242080D01*
X215940Y237000D01*
X218480Y231920D01*
X213400Y234460D01*
X208320Y231920D01*
X287520D02*
X290060Y237000D01*
X287520Y242080D01*
X292600Y239540D01*
X297680Y242080D01*
X295140Y237000D01*
X297680Y231920D01*
X292600Y234460D01*
X287520Y231920D01*
X247920D02*
X250460Y237000D01*
X247920Y242080D01*
X253000Y239540D01*
X258080Y242080D01*
X255540Y237000D01*
X258080Y231920D01*
X253000Y234460D01*
X247920Y231920D01*
X355920Y60920D02*
X358460Y66000D01*
X355920Y71080D01*
X361000Y68540D01*
X366080Y71080D01*
X363540Y66000D01*
X366080Y60920D01*
X361000Y63460D01*
X355920Y60920D01*
Y-18280D02*
X358460Y-13200D01*
X355920Y-8120D01*
X361000Y-10660D01*
X366080Y-8120D01*
X363540Y-13200D01*
X366080Y-18280D01*
X361000Y-15740D01*
X355920Y-18280D01*
Y21320D02*
X358460Y26400D01*
X355920Y31480D01*
X361000Y28940D01*
X366080Y31480D01*
X363540Y26400D01*
X366080Y21320D01*
X361000Y23860D01*
X355920Y21320D01*
X252920Y-244080D02*
X255460Y-239000D01*
X252920Y-233920D01*
X258000Y-236460D01*
X263080Y-233920D01*
X260540Y-239000D01*
X263080Y-244080D01*
X258000Y-241540D01*
X252920Y-244080D01*
X213320D02*
X215860Y-239000D01*
X213320Y-233920D01*
X218400Y-236460D01*
X223480Y-233920D01*
X220940Y-239000D01*
X223480Y-244080D01*
X218400Y-241540D01*
X213320Y-244080D01*
X292520D02*
X295060Y-239000D01*
X292520Y-233920D01*
X297600Y-236460D01*
X302680Y-233920D01*
X300140Y-239000D01*
X302680Y-244080D01*
X297600Y-241540D01*
X292520Y-244080D01*
X-296680Y236920D02*
X-294140Y242000D01*
X-296680Y247080D01*
X-291600Y244540D01*
X-286520Y247080D01*
X-289060Y242000D01*
X-286520Y236920D01*
X-291600Y239460D01*
X-296680Y236920D01*
X-217480D02*
X-214940Y242000D01*
X-217480Y247080D01*
X-212400Y244540D01*
X-207320Y247080D01*
X-209860Y242000D01*
X-207320Y236920D01*
X-212400Y239460D01*
X-217480Y236920D01*
X-257080D02*
X-254540Y242000D01*
X-257080Y247080D01*
X-252000Y244540D01*
X-246920Y247080D01*
X-249460Y242000D01*
X-246920Y236920D01*
X-252000Y239460D01*
X-257080Y236920D01*
X-123080Y233920D02*
X-120540Y239000D01*
X-123080Y244080D01*
X-118000Y241540D01*
X-112920Y244080D01*
X-115460Y239000D01*
X-112920Y233920D01*
X-118000Y236460D01*
X-123080Y233920D01*
X-83480D02*
X-80940Y239000D01*
X-83480Y244080D01*
X-78400Y241540D01*
X-73320Y244080D01*
X-75860Y239000D01*
X-73320Y233920D01*
X-78400Y236460D01*
X-83480Y233920D01*
X-162680D02*
X-160140Y239000D01*
X-162680Y244080D01*
X-157600Y241540D01*
X-152520Y244080D01*
X-155060Y239000D01*
X-152520Y233920D01*
X-157600Y236460D01*
X-162680Y233920D01*
X-286980Y-203580D02*
Y-193420D01*
X-276820D01*
Y-203580D01*
X-286980D01*
X-155580D02*
Y-193420D01*
X-145420D01*
Y-203580D01*
X-155580D01*
X-4000Y-227080D02*
X-1460Y-224540D01*
X1080D01*
X-1460Y-222000D01*
X1080Y-219460D01*
X-1460D01*
X-4000Y-216920D01*
X-6540Y-219460D01*
X-9080D01*
X-6540Y-222000D01*
X-9080Y-224540D01*
X-6540D01*
X-4000Y-227080D01*
X-76000D02*
X-73460Y-224540D01*
X-70920D01*
X-73460Y-222000D01*
X-70920Y-219460D01*
X-73460D01*
X-76000Y-216920D01*
X-78540Y-219460D01*
X-81080D01*
X-78540Y-222000D01*
X-81080Y-224540D01*
X-78540D01*
X-76000Y-227080D01*
X27500Y-287080D02*
X22420Y-276920D01*
X32580D01*
X27500Y-287080D01*
X-107500D02*
X-112580Y-276920D01*
X-102420D01*
X-107500Y-287080D01*
X139920Y-253000D02*
X145000Y-247920D01*
X150080Y-253000D01*
X145000Y-258080D01*
X139920Y-253000D01*
X112920Y-278000D02*
X118000Y-272920D01*
X123080Y-278000D01*
X118000Y-283080D01*
X112920Y-278000D01*
Y-228000D02*
X118000Y-222920D01*
X123080Y-228000D01*
X118000Y-233080D01*
X112920Y-228000D01*
X305000Y-99080D02*
X307540Y-96540D01*
X310080D01*
X307540Y-94000D01*
X310080Y-91460D01*
X307540D01*
X305000Y-88920D01*
X302460Y-91460D01*
X299920D01*
X302460Y-94000D01*
X299920Y-96540D01*
X302460D01*
X305000Y-99080D01*
Y-171080D02*
X307540Y-168540D01*
X310080D01*
X307540Y-166000D01*
X310080Y-163460D01*
X307540D01*
X305000Y-160920D01*
X302460Y-163460D01*
X299920D01*
X302460Y-166000D01*
X299920Y-168540D01*
X302460D01*
X305000Y-171080D01*
X365000Y-67580D02*
X359920Y-57420D01*
X370080D01*
X365000Y-67580D01*
Y-202580D02*
X359920Y-192420D01*
X370080D01*
X365000Y-202580D01*
X-34080Y259000D02*
X-29000Y264080D01*
X-23920Y259000D01*
X-29000Y253920D01*
X-34080Y259000D01*
X-7080Y284000D02*
X-2000Y289080D01*
X3080Y284000D01*
X-2000Y278920D01*
X-7080Y284000D01*
Y234000D02*
X-2000Y239080D01*
X3080Y234000D01*
X-2000Y228920D01*
X-7080Y234000D01*
X-359540Y-92140D02*
Y-94680D01*
X-354460D01*
Y-92140D01*
X-351920D01*
Y-87060D01*
X-354460D01*
Y-84520D01*
X-359540D01*
Y-87060D01*
X-362080D01*
Y-92140D01*
X-359540D01*
Y-142940D02*
Y-145480D01*
X-354460D01*
Y-142940D01*
X-351920D01*
Y-137860D01*
X-354460D01*
Y-135320D01*
X-359540D01*
Y-137860D01*
X-362080D01*
Y-142940D01*
X-359540D01*
Y-219140D02*
Y-221680D01*
X-354460D01*
Y-219140D01*
X-351920D01*
Y-214060D01*
X-354460D01*
Y-211520D01*
X-359540D01*
Y-214060D01*
X-362080D01*
Y-219140D01*
X-359540D01*
Y-193740D02*
Y-196280D01*
X-354460D01*
Y-193740D01*
X-351920D01*
Y-188660D01*
X-354460D01*
Y-186120D01*
X-359540D01*
Y-188660D01*
X-362080D01*
Y-193740D01*
X-359540D01*
Y-168340D02*
Y-170880D01*
X-354460D01*
Y-168340D01*
X-351920D01*
Y-163260D01*
X-354460D01*
Y-160720D01*
X-359540D01*
Y-163260D01*
X-362080D01*
Y-168340D01*
X-359540D01*
X-359540Y-117540D02*
Y-120080D01*
X-354460D01*
Y-117540D01*
X-351920D01*
Y-112460D01*
X-354460D01*
Y-109920D01*
X-359540D01*
Y-112460D01*
X-362080D01*
Y-117540D01*
X-359540D01*
X-359540Y-66740D02*
Y-69280D01*
X-354460D01*
Y-66740D01*
X-351920D01*
Y-61660D01*
X-354460D01*
Y-59120D01*
X-359540D01*
Y-61660D01*
X-362080D01*
Y-66740D01*
X-359540D01*
X-360240Y68260D02*
Y65720D01*
X-355160D01*
Y68260D01*
X-352620D01*
Y73340D01*
X-355160D01*
Y75880D01*
X-360240D01*
Y73340D01*
X-362780D01*
Y68260D01*
X-360240D01*
X-334840D02*
Y65720D01*
X-329760D01*
Y68260D01*
X-327220D01*
Y73340D01*
X-329760D01*
Y75880D01*
X-334840D01*
Y73340D01*
X-337380D01*
Y68260D01*
X-334840D01*
X-360240Y17460D02*
Y14920D01*
X-355160D01*
Y17460D01*
X-352620D01*
Y22540D01*
X-355160D01*
Y25080D01*
X-360240D01*
Y22540D01*
X-362780D01*
Y17460D01*
X-360240D01*
X-334840D02*
Y14920D01*
X-329760D01*
Y17460D01*
X-327220D01*
Y22540D01*
X-329760D01*
Y25080D01*
X-334840D01*
Y22540D01*
X-337380D01*
Y17460D01*
X-334840D01*
X-360240Y-33340D02*
Y-35880D01*
X-355160D01*
Y-33340D01*
X-352620D01*
Y-28260D01*
X-355160D01*
Y-25720D01*
X-360240D01*
Y-28260D01*
X-362780D01*
Y-33340D01*
X-360240D01*
Y-7940D02*
Y-10480D01*
X-355160D01*
Y-7940D01*
X-352620D01*
Y-2860D01*
X-355160D01*
Y-320D01*
X-360240D01*
Y-2860D01*
X-362780D01*
Y-7940D01*
X-360240D01*
X-334840D02*
Y-10480D01*
X-329760D01*
Y-7940D01*
X-327220D01*
Y-2860D01*
X-329760D01*
Y-320D01*
X-334840D01*
Y-2860D01*
X-337380D01*
Y-7940D01*
X-334840D01*
Y-33340D02*
Y-35880D01*
X-329760D01*
Y-33340D01*
X-327220D01*
Y-28260D01*
X-329760D01*
Y-25720D01*
X-334840D01*
Y-28260D01*
X-337380D01*
Y-33340D01*
X-334840D01*
Y42860D02*
Y40320D01*
X-329760D01*
Y42860D01*
X-327220D01*
Y47940D01*
X-329760D01*
Y50480D01*
X-334840D01*
Y47940D01*
X-337380D01*
Y42860D01*
X-334840D01*
X-360240D02*
Y40320D01*
X-355160D01*
Y42860D01*
X-352620D01*
Y47940D01*
X-355160D01*
Y50480D01*
X-360240D01*
Y47940D01*
X-362780D01*
Y42860D01*
X-360240D01*
X-359940Y178460D02*
Y175920D01*
X-354860D01*
Y178460D01*
X-352320D01*
Y183540D01*
X-354860D01*
Y186080D01*
X-359940D01*
Y183540D01*
X-362480D01*
Y178460D01*
X-359940D01*
X-334540D02*
Y175920D01*
X-329460D01*
Y178460D01*
X-326920D01*
Y183540D01*
X-329460D01*
Y186080D01*
X-334540D01*
Y183540D01*
X-337080D01*
Y178460D01*
X-334540D01*
Y102260D02*
Y99720D01*
X-329460D01*
Y102260D01*
X-326920D01*
Y107340D01*
X-329460D01*
Y109880D01*
X-334540D01*
Y107340D01*
X-337080D01*
Y102260D01*
X-334540D01*
Y127660D02*
Y125120D01*
X-329460D01*
Y127660D01*
X-326920D01*
Y132740D01*
X-329460D01*
Y135280D01*
X-334540D01*
Y132740D01*
X-337080D01*
Y127660D01*
X-334540D01*
X-359940D02*
Y125120D01*
X-354860D01*
Y127660D01*
X-352320D01*
Y132740D01*
X-354860D01*
Y135280D01*
X-359940D01*
Y132740D01*
X-362480D01*
Y127660D01*
X-359940D01*
Y102260D02*
Y99720D01*
X-354860D01*
Y102260D01*
X-352320D01*
Y107340D01*
X-354860D01*
Y109880D01*
X-359940D01*
Y107340D01*
X-362480D01*
Y102260D01*
X-359940D01*
X-334540Y153060D02*
Y150520D01*
X-329460D01*
Y153060D01*
X-326920D01*
Y158140D01*
X-329460D01*
Y160680D01*
X-334540D01*
Y158140D01*
X-337080D01*
Y153060D01*
X-334540D01*
X-359940D02*
Y150520D01*
X-354860D01*
Y153060D01*
X-352320D01*
Y158140D01*
X-354860D01*
Y160680D01*
X-359940D01*
Y158140D01*
X-362480D01*
Y153060D01*
X-359940D01*
X-334540Y203860D02*
Y201320D01*
X-329460D01*
Y203860D01*
X-326920D01*
Y208940D01*
X-329460D01*
Y211480D01*
X-334540D01*
Y208940D01*
X-337080D01*
Y203860D01*
X-334540D01*
X-359940D02*
Y201320D01*
X-354860D01*
Y203860D01*
X-352320D01*
Y208940D01*
X-354860D01*
Y211480D01*
X-359940D01*
Y208940D01*
X-362480D01*
Y203860D01*
X-359940D01*
X205170Y82670D02*
Y92830D01*
X215330D01*
Y82670D01*
X205170D01*
X207202Y84702D02*
Y90798D01*
X213298D01*
Y84702D01*
X207202D01*
X231170Y101920D02*
Y112080D01*
X241330D01*
Y101920D01*
X231170D01*
X233202Y103952D02*
Y110048D01*
X239298D01*
Y103952D01*
X233202D01*
D127*
X-201120Y-171400D02*
G03*
X-201120Y-171400I-5080J0D01*
G01*
X-176120Y-171400D02*
G03*
X-176120Y-171400I-5080J0D01*
G01*
X-221120Y-171400D02*
G03*
X-221120Y-171400I-5080J0D01*
G01*
X-246120D02*
G03*
X-246120Y-171400I-5080J0D01*
G01*
X-71212Y-146833D02*
G03*
X-71212Y-146833I-5080J0D01*
G01*
D128*
X-73244D02*
G03*
X-73244Y-146833I-3048J0D01*
G01*
%TF.MD5,719413ef370442173c4077a67a912fac*%
M02*
