%TF.GenerationSoftware,Altium Limited,Altium Designer,22.5.1 (42)*%
G04 Layer_Color=16711935*
%FSLAX44Y44*%
%MOMM*%
%TF.SameCoordinates,01627914-4FCA-44A5-8146-F6A238B5A28C*%
%TF.FilePolarity,Negative*%
%TF.FileFunction,Soldermask,Bot*%
%TF.Part,Single*%
G01*
G75*
%TA.AperFunction,SMDPad,CuDef*%
%ADD62R,0.5020X1.1020*%
%ADD63R,3.1020X2.7020*%
%ADD64R,1.4032X2.2032*%
%ADD65R,6.0032X6.0532*%
%ADD66R,1.0032X1.0032*%
%ADD67R,1.0532X1.0532*%
%ADD68R,1.3632X1.6732*%
%ADD69R,1.8032X1.2032*%
%ADD70R,1.6020X1.9520*%
%ADD71R,3.7200X5.4700*%
G04:AMPARAMS|DCode=72|XSize=4.4032mm|YSize=4.4032mm|CornerRadius=0.3116mm|HoleSize=0mm|Usage=FLASHONLY|Rotation=180.000|XOffset=0mm|YOffset=0mm|HoleType=Round|Shape=RoundedRectangle|*
%AMROUNDEDRECTD72*
21,1,4.4032,3.7800,0,0,180.0*
21,1,3.7800,4.4032,0,0,180.0*
1,1,0.6232,-1.8900,1.8900*
1,1,0.6232,1.8900,1.8900*
1,1,0.6232,1.8900,-1.8900*
1,1,0.6232,-1.8900,-1.8900*
%
%ADD72ROUNDEDRECTD72*%
%ADD73R,1.0532X1.0532*%
%TA.AperFunction,ComponentPad*%
%ADD74C,5.2032*%
G04:AMPARAMS|DCode=75|XSize=1.8032mm|YSize=1.8032mm|CornerRadius=0mm|HoleSize=0mm|Usage=FLASHONLY|Rotation=90.000|XOffset=0mm|YOffset=0mm|HoleType=Round|Shape=Octagon|*
%AMOCTAGOND75*
4,1,8,0.4508,0.9016,-0.4508,0.9016,-0.9016,0.4508,-0.9016,-0.4508,-0.4508,-0.9016,0.4508,-0.9016,0.9016,-0.4508,0.9016,0.4508,0.4508,0.9016,0.0*
%
%ADD75OCTAGOND75*%

%ADD76O,3.7032X3.0032*%
%ADD77R,3.7032X3.0032*%
%ADD78O,3.0032X3.7032*%
%ADD79R,3.0032X3.7032*%
%ADD80C,2.0032*%
%ADD81R,2.0032X2.0032*%
%ADD82O,3.2032X4.7032*%
%ADD83C,3.9192*%
%ADD84R,3.9192X3.9192*%
%ADD85O,1.4032X2.6032*%
%ADD86R,1.4032X2.7032*%
%ADD87R,2.7032X1.4032*%
%ADD88R,3.9192X3.9192*%
%ADD89O,2.6032X1.4032*%
%ADD90C,1.8032*%
%ADD91R,1.8032X1.8032*%
D62*
X256000Y87000D02*
D03*
X248000D02*
D03*
X240000D02*
D03*
X232000D02*
D03*
X224000D02*
D03*
Y47000D02*
D03*
X232000D02*
D03*
X240000D02*
D03*
X248000D02*
D03*
X256000D02*
D03*
D63*
X240000Y67000D02*
D03*
D64*
X-81490Y-103230D02*
D03*
X-33990D02*
D03*
X-133250Y-103125D02*
D03*
X-180750D02*
D03*
X-231250D02*
D03*
X-278750D02*
D03*
X171750Y-101125D02*
D03*
X124250D02*
D03*
X69750Y-101125D02*
D03*
X22250D02*
D03*
D65*
X-57740Y-36980D02*
D03*
X-157000Y-36875D02*
D03*
X-255000D02*
D03*
X148000Y-34875D02*
D03*
X46000Y-34875D02*
D03*
D66*
X-278000Y-130000D02*
D03*
X-294000D02*
D03*
X-215000D02*
D03*
X-231000D02*
D03*
X-197000Y-131000D02*
D03*
X-181000D02*
D03*
X-117000D02*
D03*
X-133000D02*
D03*
X-98000Y-130000D02*
D03*
X-82000D02*
D03*
X-18000D02*
D03*
X-34000D02*
D03*
X6000Y-128000D02*
D03*
X22000D02*
D03*
X87000D02*
D03*
X71000D02*
D03*
X108000Y-129000D02*
D03*
X124000D02*
D03*
X172000D02*
D03*
X188000D02*
D03*
X210000Y76000D02*
D03*
X194000D02*
D03*
Y50000D02*
D03*
X210000D02*
D03*
X225000Y19000D02*
D03*
X209000D02*
D03*
X275750Y100250D02*
D03*
X291750D02*
D03*
D67*
X-92250Y-154000D02*
D03*
X-107750D02*
D03*
X209750Y63000D02*
D03*
X194250D02*
D03*
X209750Y36000D02*
D03*
X194250D02*
D03*
D68*
X-107900Y-174000D02*
D03*
X-90100D02*
D03*
X78900Y167000D02*
D03*
X61100D02*
D03*
D69*
X246000Y29000D02*
D03*
Y-1000D02*
D03*
X123000Y181000D02*
D03*
Y151000D02*
D03*
X155000Y181000D02*
D03*
Y151000D02*
D03*
D70*
X309500Y-8000D02*
D03*
X288500D02*
D03*
D71*
X299000Y35000D02*
D03*
D72*
X207000Y163000D02*
D03*
X301000D02*
D03*
D73*
X185000Y115750D02*
D03*
Y100250D02*
D03*
X166000Y115750D02*
D03*
Y100250D02*
D03*
X99000Y166750D02*
D03*
Y151250D02*
D03*
D74*
X355000Y-262000D02*
D03*
X-355000Y262000D02*
D03*
Y-262000D02*
D03*
X355000Y262000D02*
D03*
D75*
X-270000Y106300D02*
D03*
Y131700D02*
D03*
D76*
X361000Y160000D02*
D03*
Y199600D02*
D03*
Y66000D02*
D03*
Y26400D02*
D03*
D77*
Y120400D02*
D03*
Y-13200D02*
D03*
D78*
X119000Y238000D02*
D03*
X79400D02*
D03*
X213400Y237000D02*
D03*
X253000D02*
D03*
X258000Y-239000D02*
D03*
X297600D02*
D03*
X-291600Y242000D02*
D03*
X-252000D02*
D03*
X-118000Y239000D02*
D03*
X-157600D02*
D03*
D79*
X158600Y238000D02*
D03*
X292600Y237000D02*
D03*
X218400Y-239000D02*
D03*
X-212400Y242000D02*
D03*
X-78400Y239000D02*
D03*
D80*
X-206200Y-171400D02*
D03*
X-181200Y-171400D02*
D03*
X-226200Y-171400D02*
D03*
D81*
X-251200D02*
D03*
D82*
X-281900Y-198500D02*
D03*
X-150500D02*
D03*
D83*
X-4000Y-222000D02*
D03*
X305000Y-94000D02*
D03*
D84*
X-76000Y-222000D02*
D03*
D85*
X27500Y-282000D02*
D03*
X-107500D02*
D03*
D86*
X145000Y-253000D02*
D03*
X-29000Y259000D02*
D03*
D87*
X118000Y-278000D02*
D03*
Y-228000D02*
D03*
X-2000Y284000D02*
D03*
Y234000D02*
D03*
D88*
X305000Y-166000D02*
D03*
D89*
X365000Y-62500D02*
D03*
Y-197500D02*
D03*
D90*
X-357000Y-89600D02*
D03*
Y-140400D02*
D03*
Y-191200D02*
D03*
Y-165800D02*
D03*
X-357000Y-115000D02*
D03*
X-357000Y-64200D02*
D03*
X-357700Y70800D02*
D03*
X-332300D02*
D03*
X-357700Y20000D02*
D03*
X-332300D02*
D03*
X-357700Y-30800D02*
D03*
Y-5400D02*
D03*
X-332300D02*
D03*
Y45400D02*
D03*
X-357700D02*
D03*
X-357400Y181000D02*
D03*
X-332000D02*
D03*
Y130200D02*
D03*
X-357400D02*
D03*
Y104800D02*
D03*
X-332000Y155600D02*
D03*
X-357400D02*
D03*
X-332000Y206400D02*
D03*
X-357400D02*
D03*
D91*
X-357000Y-216600D02*
D03*
X-332300Y-30800D02*
D03*
X-332000Y104800D02*
D03*
%TF.MD5,e35b168328bb386c89f5d3076313bce1*%
M02*
