%TF.GenerationSoftware,Altium Limited,Altium Designer,22.5.1 (42)*%
G04 Layer_Physical_Order=3*
G04 Layer_Color=16440176*
%FSLAX44Y44*%
%MOMM*%
%TF.SameCoordinates,01627914-4FCA-44A5-8146-F6A238B5A28C*%
%TF.FilePolarity,Positive*%
%TF.FileFunction,Copper,L3,Inr,Signal*%
%TF.Part,Single*%
G01*
G75*
%TA.AperFunction,Conductor*%
%ADD30C,0.3810*%
%TA.AperFunction,ComponentPad*%
%ADD33C,5.0000*%
G04:AMPARAMS|DCode=34|XSize=1.6mm|YSize=1.6mm|CornerRadius=0mm|HoleSize=0mm|Usage=FLASHONLY|Rotation=90.000|XOffset=0mm|YOffset=0mm|HoleType=Round|Shape=Octagon|*
%AMOCTAGOND34*
4,1,8,0.4000,0.8000,-0.4000,0.8000,-0.8000,0.4000,-0.8000,-0.4000,-0.4000,-0.8000,0.4000,-0.8000,0.8000,-0.4000,0.8000,0.4000,0.4000,0.8000,0.0*
%
%ADD34OCTAGOND34*%

%ADD35O,3.5000X2.8000*%
%ADD36R,3.5000X2.8000*%
%ADD37O,2.8000X3.5000*%
%ADD38R,2.8000X3.5000*%
%ADD39C,1.8000*%
%ADD40R,1.8000X1.8000*%
%ADD41O,3.0000X4.5000*%
%ADD42C,3.7160*%
%ADD43R,3.7160X3.7160*%
%ADD44O,1.2000X2.4000*%
%ADD45R,1.2000X2.5000*%
%ADD46R,2.5000X1.2000*%
%ADD47R,3.7160X3.7160*%
%ADD48O,2.4000X1.2000*%
%ADD49C,1.6000*%
%ADD50R,1.6000X1.6000*%
%TA.AperFunction,ViaPad*%
%ADD51C,0.8000*%
%ADD52C,1.2700*%
G36*
X355354Y297055D02*
X362060Y295258D01*
X368474Y292601D01*
X374487Y289130D01*
X379994Y284904D01*
X384904Y279994D01*
X389130Y274487D01*
X392601Y268474D01*
X395258Y262060D01*
X397055Y255354D01*
X397961Y248471D01*
Y245000D01*
X397961Y-245000D01*
X397961Y-248471D01*
X397055Y-255354D01*
X395258Y-262060D01*
X392601Y-268474D01*
X389130Y-274487D01*
X384904Y-279994D01*
X379994Y-284904D01*
X374487Y-289130D01*
X368474Y-292601D01*
X362060Y-295258D01*
X355354Y-297055D01*
X348471Y-297961D01*
X-348471D01*
X-355354Y-297055D01*
X-362060Y-295258D01*
X-368474Y-292601D01*
X-374487Y-289130D01*
X-379994Y-284904D01*
X-384904Y-279994D01*
X-389130Y-274487D01*
X-392601Y-268474D01*
X-395258Y-262060D01*
X-397055Y-255354D01*
X-397961Y-248471D01*
X-397961Y-245000D01*
Y245000D01*
X-397961Y248471D01*
X-397055Y255354D01*
X-395258Y262060D01*
X-392601Y268474D01*
X-389130Y274487D01*
X-384904Y279994D01*
X-379994Y284904D01*
X-374487Y289130D01*
X-368474Y292601D01*
X-362060Y295258D01*
X-355354Y297055D01*
X-348471Y297961D01*
X348471D01*
X355354Y297055D01*
D02*
G37*
%LPC*%
G36*
X357125Y289000D02*
X352875D01*
X348677Y288335D01*
X344636Y287022D01*
X340849Y285093D01*
X337411Y282595D01*
X334406Y279589D01*
X331908Y276151D01*
X329978Y272364D01*
X328665Y268323D01*
X328000Y264125D01*
Y259875D01*
X328665Y255678D01*
X329978Y251636D01*
X331908Y247849D01*
X334406Y244411D01*
X337411Y241406D01*
X340849Y238908D01*
X344636Y236978D01*
X348677Y235665D01*
X352875Y235000D01*
X357125D01*
X361323Y235665D01*
X365364Y236978D01*
X369151Y238908D01*
X372589Y241406D01*
X375594Y244411D01*
X378092Y247849D01*
X380022Y251636D01*
X381335Y255678D01*
X382000Y259875D01*
Y264125D01*
X381335Y268323D01*
X380022Y272364D01*
X378092Y276151D01*
X375594Y279589D01*
X372589Y282595D01*
X369151Y285093D01*
X365364Y287022D01*
X361323Y288335D01*
X357125Y289000D01*
D02*
G37*
G36*
X-352875D02*
X-357125D01*
X-361323Y288335D01*
X-365364Y287022D01*
X-369151Y285093D01*
X-372589Y282595D01*
X-375594Y279589D01*
X-378092Y276151D01*
X-380022Y272364D01*
X-381335Y268323D01*
X-382000Y264125D01*
Y259875D01*
X-381335Y255678D01*
X-380022Y251636D01*
X-378092Y247849D01*
X-375594Y244411D01*
X-372589Y241406D01*
X-369151Y238908D01*
X-365364Y236978D01*
X-361323Y235665D01*
X-357125Y235000D01*
X-352875D01*
X-348677Y235665D01*
X-344636Y236978D01*
X-340849Y238908D01*
X-337411Y241406D01*
X-334406Y244411D01*
X-331908Y247849D01*
X-329978Y251636D01*
X-328665Y255678D01*
X-328000Y259875D01*
Y264125D01*
X-328665Y268323D01*
X-329978Y272364D01*
X-331908Y276151D01*
X-334406Y279589D01*
X-337411Y282595D01*
X-340849Y285093D01*
X-344636Y287022D01*
X-348677Y288335D01*
X-352875Y289000D01*
D02*
G37*
G36*
X12500Y242000D02*
X-16500D01*
Y226000D01*
X12500D01*
Y242000D01*
D02*
G37*
G36*
X174600Y257500D02*
X142600D01*
Y218500D01*
X174600D01*
Y257500D01*
D02*
G37*
G36*
X119000Y257577D02*
X115863Y257269D01*
X112847Y256354D01*
X110068Y254868D01*
X107632Y252868D01*
X105632Y250432D01*
X104146Y247653D01*
X103231Y244636D01*
X102923Y241500D01*
Y234500D01*
X103231Y231364D01*
X104146Y228347D01*
X105632Y225568D01*
X107632Y223132D01*
X110068Y221132D01*
X112847Y219646D01*
X115863Y218731D01*
X119000Y218423D01*
X122136Y218731D01*
X125153Y219646D01*
X127932Y221132D01*
X130368Y223132D01*
X132368Y225568D01*
X133854Y228347D01*
X134768Y231364D01*
X135077Y234500D01*
Y241500D01*
X134768Y244636D01*
X133854Y247653D01*
X132368Y250432D01*
X130368Y252868D01*
X127932Y254868D01*
X125153Y256354D01*
X122136Y257269D01*
X119000Y257577D01*
D02*
G37*
G36*
X308600Y256500D02*
X276600D01*
Y217500D01*
X308600D01*
Y256500D01*
D02*
G37*
G36*
X253000Y256577D02*
X249863Y256269D01*
X246847Y255354D01*
X244068Y253868D01*
X241632Y251868D01*
X239632Y249432D01*
X238146Y246653D01*
X237232Y243636D01*
X236923Y240500D01*
Y233500D01*
X237232Y230364D01*
X238146Y227347D01*
X239632Y224568D01*
X241632Y222132D01*
X244068Y220132D01*
X246847Y218646D01*
X249863Y217731D01*
X253000Y217423D01*
X256136Y217731D01*
X259153Y218646D01*
X261932Y220132D01*
X264368Y222132D01*
X266368Y224568D01*
X267854Y227347D01*
X268769Y230364D01*
X269077Y233500D01*
Y240500D01*
X268769Y243636D01*
X267854Y246653D01*
X266368Y249432D01*
X264368Y251868D01*
X261932Y253868D01*
X259153Y255354D01*
X256136Y256269D01*
X253000Y256577D01*
D02*
G37*
G36*
X-330684Y216400D02*
X-333316D01*
X-335860Y215718D01*
X-338140Y214402D01*
X-340002Y212540D01*
X-341319Y210260D01*
X-342000Y207717D01*
Y205084D01*
X-341319Y202540D01*
X-340002Y200260D01*
X-338140Y198398D01*
X-335860Y197082D01*
X-333316Y196400D01*
X-330684D01*
X-328140Y197082D01*
X-325860Y198398D01*
X-323998Y200260D01*
X-322682Y202540D01*
X-322000Y205084D01*
Y207717D01*
X-322682Y210260D01*
X-323998Y212540D01*
X-325860Y214402D01*
X-328140Y215718D01*
X-330684Y216400D01*
D02*
G37*
G36*
Y191000D02*
X-333316D01*
X-335860Y190319D01*
X-338140Y189002D01*
X-340002Y187140D01*
X-341319Y184860D01*
X-342000Y182316D01*
Y179683D01*
X-341319Y177140D01*
X-340002Y174860D01*
X-338140Y172998D01*
X-335860Y171681D01*
X-333316Y171000D01*
X-330684D01*
X-328140Y171681D01*
X-325860Y172998D01*
X-323998Y174860D01*
X-322682Y177140D01*
X-322000Y179683D01*
Y182316D01*
X-322682Y184860D01*
X-323998Y187140D01*
X-325860Y189002D01*
X-328140Y190319D01*
X-330684Y191000D01*
D02*
G37*
G36*
X-67000Y271039D02*
X-272000D01*
X-272780Y270884D01*
X-273442Y270442D01*
X-273884Y269780D01*
X-274039Y269000D01*
Y145789D01*
X-326453D01*
X-326793Y147059D01*
X-325860Y147598D01*
X-323998Y149460D01*
X-322682Y151740D01*
X-322000Y154284D01*
Y156917D01*
X-322682Y159460D01*
X-323998Y161740D01*
X-325860Y163602D01*
X-328140Y164918D01*
X-330684Y165600D01*
X-333316D01*
X-335860Y164918D01*
X-338140Y163602D01*
X-340002Y161740D01*
X-341319Y159460D01*
X-342000Y156917D01*
Y154284D01*
X-341319Y151740D01*
X-340002Y149460D01*
X-338140Y147598D01*
X-337207Y147059D01*
X-337547Y145789D01*
X-345000D01*
X-345780Y145634D01*
X-346442Y145192D01*
X-346884Y144530D01*
X-347039Y143750D01*
Y-50000D01*
X-346884Y-50780D01*
X-346442Y-51442D01*
X-345780Y-51884D01*
X-345000Y-52039D01*
X-270039D01*
Y-82000D01*
Y-177099D01*
X-271309Y-177700D01*
X-272410Y-176797D01*
X-275363Y-175218D01*
X-278567Y-174246D01*
X-281900Y-173918D01*
X-285233Y-174246D01*
X-288437Y-175218D01*
X-291390Y-176797D01*
X-293979Y-178921D01*
X-296103Y-181510D01*
X-297682Y-184463D01*
X-298654Y-187667D01*
X-298982Y-191000D01*
Y-206000D01*
X-298654Y-209333D01*
X-297682Y-212537D01*
X-296103Y-215490D01*
X-293979Y-218079D01*
X-291390Y-220203D01*
X-288437Y-221782D01*
X-285233Y-222754D01*
X-281900Y-223082D01*
X-278567Y-222754D01*
X-275363Y-221782D01*
X-272410Y-220203D01*
X-269821Y-218079D01*
X-267697Y-215490D01*
X-266118Y-212537D01*
X-265146Y-209333D01*
X-264818Y-206000D01*
Y-191000D01*
X-265146Y-187667D01*
X-266097Y-184531D01*
X-266021Y-184407D01*
X-265012Y-183729D01*
X-264780Y-183884D01*
X-264000Y-184039D01*
X-232380D01*
X-232248Y-184013D01*
X-232114Y-184022D01*
X-231861Y-183936D01*
X-231600Y-183884D01*
X-231488Y-183809D01*
X-231361Y-183766D01*
X-231160Y-183590D01*
X-230938Y-183442D01*
X-230864Y-183330D01*
X-230763Y-183241D01*
X-230644Y-183002D01*
X-230496Y-182780D01*
X-229690Y-182112D01*
X-229384Y-181935D01*
X-227648Y-182400D01*
X-224752D01*
X-221954Y-181650D01*
X-219446Y-180202D01*
X-217398Y-178154D01*
X-216835Y-177179D01*
X-215565D01*
X-215002Y-178154D01*
X-212954Y-180202D01*
X-210446Y-181650D01*
X-207648Y-182400D01*
X-204752D01*
X-201954Y-181650D01*
X-199446Y-180202D01*
X-197398Y-178154D01*
X-195950Y-175646D01*
X-195200Y-172848D01*
Y-169952D01*
X-195950Y-167154D01*
X-197398Y-164646D01*
X-199446Y-162598D01*
X-201954Y-161150D01*
X-204752Y-160400D01*
X-207648D01*
X-208453Y-160616D01*
X-209461Y-159843D01*
Y-152595D01*
X-186905Y-130039D01*
X-101000D01*
X-100220Y-129884D01*
X-99558Y-129442D01*
X-99116Y-128780D01*
X-98961Y-128000D01*
Y-73000D01*
Y-13750D01*
X-98961Y-13750D01*
X-99116Y-12970D01*
X-99558Y-12308D01*
X-99558Y-12308D01*
X-216654Y104788D01*
X-216168Y105961D01*
X212421D01*
X212907Y104788D01*
X207435Y99315D01*
X206572Y98024D01*
X206269Y96500D01*
Y92254D01*
X205163Y91149D01*
X204250Y88944D01*
Y86557D01*
X205163Y84351D01*
X206851Y82663D01*
X209056Y81750D01*
X211444D01*
X213649Y82663D01*
X215337Y84351D01*
X216250Y86557D01*
Y88944D01*
X215337Y91149D01*
X214231Y92254D01*
Y94851D01*
X222399Y103019D01*
X231746D01*
X232851Y101913D01*
X235056Y101000D01*
X237444D01*
X239649Y101913D01*
X241337Y103601D01*
X242250Y105807D01*
Y108194D01*
X241337Y110399D01*
X239649Y112086D01*
X237444Y113000D01*
X235056D01*
X232851Y112086D01*
X232309Y111545D01*
X231039Y112071D01*
Y187000D01*
X230884Y187780D01*
X230442Y188442D01*
X229780Y188884D01*
X229000Y189039D01*
X15845D01*
X-65558Y270442D01*
X-66220Y270884D01*
X-67000Y271039D01*
D02*
G37*
G36*
X364500Y176077D02*
X357500D01*
X354364Y175769D01*
X351347Y174854D01*
X348568Y173368D01*
X346132Y171369D01*
X344132Y168932D01*
X342646Y166153D01*
X341731Y163137D01*
X341423Y160000D01*
X341731Y156863D01*
X342646Y153847D01*
X344132Y151068D01*
X346132Y148632D01*
X348568Y146632D01*
X351347Y145146D01*
X354364Y144232D01*
X357500Y143923D01*
X364500D01*
X367636Y144232D01*
X370653Y145146D01*
X373432Y146632D01*
X375868Y148632D01*
X377868Y151068D01*
X379354Y153847D01*
X380269Y156863D01*
X380577Y160000D01*
X380269Y163137D01*
X379354Y166153D01*
X377868Y168932D01*
X375868Y171369D01*
X373432Y173368D01*
X370653Y174854D01*
X367636Y175769D01*
X364500Y176077D01*
D02*
G37*
G36*
X380500Y136400D02*
X341500D01*
Y104400D01*
X380500D01*
Y136400D01*
D02*
G37*
G36*
X364500Y42477D02*
X357500D01*
X354364Y42168D01*
X351347Y41254D01*
X348568Y39768D01*
X346132Y37768D01*
X344132Y35332D01*
X342646Y32552D01*
X341731Y29536D01*
X341423Y26400D01*
X341731Y23263D01*
X342646Y20247D01*
X344132Y17468D01*
X346132Y15031D01*
X348568Y13032D01*
X351347Y11546D01*
X354364Y10632D01*
X357500Y10323D01*
X364500D01*
X367636Y10632D01*
X370653Y11546D01*
X373432Y13032D01*
X375868Y15031D01*
X377868Y17468D01*
X379354Y20247D01*
X380269Y23263D01*
X380577Y26400D01*
X380269Y29536D01*
X379354Y32552D01*
X377868Y35332D01*
X375868Y37768D01*
X373432Y39768D01*
X370653Y41254D01*
X367636Y42168D01*
X364500Y42477D01*
D02*
G37*
G36*
X380500Y2800D02*
X341500D01*
Y-29200D01*
X380500D01*
Y2800D01*
D02*
G37*
G36*
X371000Y-54431D02*
X359000D01*
X356912Y-54706D01*
X354966Y-55512D01*
X353294Y-56794D01*
X352012Y-58465D01*
X351206Y-60412D01*
X350931Y-62500D01*
X351206Y-64588D01*
X352012Y-66535D01*
X353294Y-68206D01*
X354966Y-69488D01*
X356912Y-70294D01*
X359000Y-70569D01*
X371000D01*
X373088Y-70294D01*
X375034Y-69488D01*
X376706Y-68206D01*
X377988Y-66535D01*
X378794Y-64588D01*
X379069Y-62500D01*
X378794Y-60412D01*
X377988Y-58465D01*
X376706Y-56794D01*
X375034Y-55512D01*
X373088Y-54706D01*
X371000Y-54431D01*
D02*
G37*
G36*
X-355684Y-54200D02*
X-358317D01*
X-360860Y-54882D01*
X-363140Y-56198D01*
X-365002Y-58060D01*
X-366319Y-60340D01*
X-367000Y-62884D01*
Y-65517D01*
X-366319Y-68060D01*
X-365002Y-70340D01*
X-363140Y-72202D01*
X-360860Y-73519D01*
X-358317Y-74200D01*
X-355684D01*
X-353140Y-73519D01*
X-350860Y-72202D01*
X-348998Y-70340D01*
X-347682Y-68060D01*
X-347000Y-65517D01*
Y-62884D01*
X-347682Y-60340D01*
X-348998Y-58060D01*
X-350860Y-56198D01*
X-353140Y-54882D01*
X-355684Y-54200D01*
D02*
G37*
G36*
Y-79600D02*
X-358317D01*
X-360860Y-80281D01*
X-363140Y-81598D01*
X-365002Y-83460D01*
X-366319Y-85740D01*
X-367000Y-88284D01*
Y-90917D01*
X-366319Y-93460D01*
X-365002Y-95740D01*
X-363140Y-97602D01*
X-360860Y-98919D01*
X-358317Y-99600D01*
X-355684D01*
X-353140Y-98919D01*
X-350860Y-97602D01*
X-348998Y-95740D01*
X-347682Y-93460D01*
X-347000Y-90917D01*
Y-88284D01*
X-347682Y-85740D01*
X-348998Y-83460D01*
X-350860Y-81598D01*
X-353140Y-80281D01*
X-355684Y-79600D01*
D02*
G37*
G36*
X-355684Y-105000D02*
X-358316D01*
X-360860Y-105681D01*
X-363140Y-106998D01*
X-365002Y-108860D01*
X-366319Y-111140D01*
X-367000Y-113684D01*
Y-116316D01*
X-366319Y-118860D01*
X-365002Y-121140D01*
X-363140Y-123002D01*
X-360860Y-124319D01*
X-358316Y-125000D01*
X-355684D01*
X-353140Y-124319D01*
X-350860Y-123002D01*
X-348998Y-121140D01*
X-347682Y-118860D01*
X-347000Y-116316D01*
Y-113684D01*
X-347682Y-111140D01*
X-348998Y-108860D01*
X-350860Y-106998D01*
X-353140Y-105681D01*
X-355684Y-105000D01*
D02*
G37*
G36*
X-355684Y-130400D02*
X-358317D01*
X-360860Y-131081D01*
X-363140Y-132398D01*
X-365002Y-134260D01*
X-366319Y-136540D01*
X-367000Y-139083D01*
Y-141716D01*
X-366319Y-144260D01*
X-365002Y-146540D01*
X-363140Y-148402D01*
X-360860Y-149719D01*
X-358317Y-150400D01*
X-355684D01*
X-353140Y-149719D01*
X-350860Y-148402D01*
X-348998Y-146540D01*
X-347682Y-144260D01*
X-347000Y-141716D01*
Y-139083D01*
X-347682Y-136540D01*
X-348998Y-134260D01*
X-350860Y-132398D01*
X-353140Y-131081D01*
X-355684Y-130400D01*
D02*
G37*
G36*
Y-155800D02*
X-358317D01*
X-360860Y-156482D01*
X-363140Y-157798D01*
X-365002Y-159660D01*
X-366319Y-161940D01*
X-367000Y-164484D01*
Y-167117D01*
X-366319Y-169660D01*
X-365002Y-171940D01*
X-363140Y-173802D01*
X-360860Y-175119D01*
X-358317Y-175800D01*
X-355684D01*
X-353140Y-175119D01*
X-350860Y-173802D01*
X-348998Y-171940D01*
X-347682Y-169660D01*
X-347000Y-167117D01*
Y-164484D01*
X-347682Y-161940D01*
X-348998Y-159660D01*
X-350860Y-157798D01*
X-353140Y-156482D01*
X-355684Y-155800D01*
D02*
G37*
G36*
X325580Y-145420D02*
X284420D01*
Y-186580D01*
X325580D01*
Y-145420D01*
D02*
G37*
G36*
X-355684Y-181200D02*
X-358317D01*
X-360860Y-181882D01*
X-363140Y-183198D01*
X-365002Y-185060D01*
X-366319Y-187340D01*
X-367000Y-189883D01*
Y-192516D01*
X-366319Y-195060D01*
X-365002Y-197340D01*
X-363140Y-199202D01*
X-360860Y-200518D01*
X-358317Y-201200D01*
X-355684D01*
X-353140Y-200518D01*
X-350860Y-199202D01*
X-348998Y-197340D01*
X-347682Y-195060D01*
X-347000Y-192516D01*
Y-189883D01*
X-347682Y-187340D01*
X-348998Y-185060D01*
X-350860Y-183198D01*
X-353140Y-181882D01*
X-355684Y-181200D01*
D02*
G37*
G36*
X371000Y-189431D02*
X359000D01*
X356912Y-189706D01*
X354966Y-190512D01*
X353294Y-191794D01*
X352012Y-193465D01*
X351206Y-195412D01*
X350931Y-197500D01*
X351206Y-199588D01*
X352012Y-201535D01*
X353294Y-203206D01*
X354966Y-204488D01*
X356912Y-205294D01*
X359000Y-205569D01*
X371000D01*
X373088Y-205294D01*
X375034Y-204488D01*
X376706Y-203206D01*
X377988Y-201535D01*
X378794Y-199588D01*
X379069Y-197500D01*
X378794Y-195412D01*
X377988Y-193465D01*
X376706Y-191794D01*
X375034Y-190512D01*
X373088Y-189706D01*
X371000Y-189431D01*
D02*
G37*
G36*
X-150500Y-173918D02*
X-153833Y-174246D01*
X-157037Y-175218D01*
X-159990Y-176797D01*
X-162579Y-178921D01*
X-164703Y-181510D01*
X-166282Y-184463D01*
X-167254Y-187667D01*
X-167582Y-191000D01*
Y-206000D01*
X-167254Y-209333D01*
X-166282Y-212537D01*
X-164703Y-215490D01*
X-162579Y-218079D01*
X-159990Y-220203D01*
X-157037Y-221782D01*
X-153833Y-222754D01*
X-150500Y-223082D01*
X-147167Y-222754D01*
X-143963Y-221782D01*
X-141010Y-220203D01*
X-138421Y-218079D01*
X-136297Y-215490D01*
X-134718Y-212537D01*
X-133746Y-209333D01*
X-133418Y-206000D01*
Y-191000D01*
X-133746Y-187667D01*
X-134718Y-184463D01*
X-136297Y-181510D01*
X-138421Y-178921D01*
X-141010Y-176797D01*
X-143963Y-175218D01*
X-147167Y-174246D01*
X-150500Y-173918D01*
D02*
G37*
G36*
X-347000Y-206600D02*
X-367000D01*
Y-226600D01*
X-347000D01*
Y-206600D01*
D02*
G37*
G36*
X-55420Y-201420D02*
X-96580D01*
Y-242580D01*
X-55420D01*
Y-201420D01*
D02*
G37*
G36*
X234400Y-219500D02*
X202400D01*
Y-258500D01*
X234400D01*
Y-219500D01*
D02*
G37*
G36*
X258000Y-219423D02*
X254863Y-219732D01*
X251847Y-220646D01*
X249068Y-222132D01*
X246632Y-224132D01*
X244632Y-226568D01*
X243146Y-229347D01*
X242232Y-232363D01*
X241923Y-235500D01*
Y-242500D01*
X242232Y-245637D01*
X243146Y-248653D01*
X244632Y-251432D01*
X246632Y-253869D01*
X249068Y-255868D01*
X251847Y-257354D01*
X254863Y-258269D01*
X258000Y-258577D01*
X261136Y-258269D01*
X264153Y-257354D01*
X266932Y-255868D01*
X269368Y-253869D01*
X271368Y-251432D01*
X272854Y-248653D01*
X273769Y-245637D01*
X274077Y-242500D01*
Y-235500D01*
X273769Y-232363D01*
X272854Y-229347D01*
X271368Y-226568D01*
X269368Y-224132D01*
X266932Y-222132D01*
X264153Y-220646D01*
X261136Y-219732D01*
X258000Y-219423D01*
D02*
G37*
G36*
X109000Y-143961D02*
X108220Y-144116D01*
X107558Y-144558D01*
X64558Y-187558D01*
X64116Y-188220D01*
X63961Y-189000D01*
Y-222000D01*
Y-257000D01*
X64116Y-257780D01*
X64558Y-258442D01*
X65220Y-258884D01*
X66000Y-259039D01*
X137000D01*
X137780Y-258884D01*
X138442Y-258442D01*
X138884Y-257780D01*
X139039Y-257000D01*
Y-240539D01*
X150961D01*
Y-257000D01*
X151116Y-257780D01*
X151558Y-258442D01*
X152220Y-258884D01*
X153000Y-259039D01*
X190000D01*
X190780Y-258884D01*
X191442Y-258442D01*
X191884Y-257780D01*
X192039Y-257000D01*
Y-146000D01*
X191884Y-145220D01*
X191442Y-144558D01*
X190780Y-144116D01*
X190000Y-143961D01*
X109000D01*
X109000Y-143961D01*
D02*
G37*
G36*
X357125Y-235000D02*
X352875D01*
X348677Y-235665D01*
X344636Y-236978D01*
X340849Y-238908D01*
X337411Y-241406D01*
X334406Y-244411D01*
X331908Y-247849D01*
X329978Y-251636D01*
X328665Y-255678D01*
X328000Y-259875D01*
Y-264125D01*
X328665Y-268323D01*
X329978Y-272364D01*
X331908Y-276151D01*
X334406Y-279589D01*
X337411Y-282595D01*
X340849Y-285093D01*
X344636Y-287022D01*
X348677Y-288335D01*
X352875Y-289000D01*
X357125D01*
X361323Y-288335D01*
X365364Y-287022D01*
X369151Y-285093D01*
X372589Y-282595D01*
X375594Y-279589D01*
X378092Y-276151D01*
X380022Y-272364D01*
X381335Y-268323D01*
X382000Y-264125D01*
Y-259875D01*
X381335Y-255678D01*
X380022Y-251636D01*
X378092Y-247849D01*
X375594Y-244411D01*
X372589Y-241406D01*
X369151Y-238908D01*
X365364Y-236978D01*
X361323Y-235665D01*
X357125Y-235000D01*
D02*
G37*
G36*
X-352875D02*
X-357125D01*
X-361323Y-235665D01*
X-365364Y-236978D01*
X-369151Y-238908D01*
X-372589Y-241406D01*
X-375594Y-244411D01*
X-378092Y-247849D01*
X-380022Y-251636D01*
X-381335Y-255678D01*
X-382000Y-259875D01*
Y-264125D01*
X-381335Y-268323D01*
X-380022Y-272364D01*
X-378092Y-276151D01*
X-375594Y-279589D01*
X-372589Y-282595D01*
X-369151Y-285093D01*
X-365364Y-287022D01*
X-361323Y-288335D01*
X-357125Y-289000D01*
X-352875D01*
X-348677Y-288335D01*
X-344636Y-287022D01*
X-340849Y-285093D01*
X-337411Y-282595D01*
X-334406Y-279589D01*
X-331908Y-276151D01*
X-329978Y-272364D01*
X-328665Y-268323D01*
X-328000Y-264125D01*
Y-259875D01*
X-328665Y-255678D01*
X-329978Y-251636D01*
X-331908Y-247849D01*
X-334406Y-244411D01*
X-337411Y-241406D01*
X-340849Y-238908D01*
X-344636Y-236978D01*
X-348677Y-235665D01*
X-352875Y-235000D01*
D02*
G37*
G36*
X27500Y-267931D02*
X25412Y-268206D01*
X23465Y-269012D01*
X21794Y-270294D01*
X20512Y-271966D01*
X19706Y-273912D01*
X19431Y-276000D01*
Y-288000D01*
X19706Y-290088D01*
X20512Y-292034D01*
X21794Y-293706D01*
X23465Y-294988D01*
X25412Y-295794D01*
X27500Y-296069D01*
X29588Y-295794D01*
X31535Y-294988D01*
X33206Y-293706D01*
X34488Y-292034D01*
X35294Y-290088D01*
X35569Y-288000D01*
Y-276000D01*
X35294Y-273912D01*
X34488Y-271966D01*
X33206Y-270294D01*
X31535Y-269012D01*
X29588Y-268206D01*
X27500Y-267931D01*
D02*
G37*
G36*
X-107500D02*
X-109588Y-268206D01*
X-111535Y-269012D01*
X-113206Y-270294D01*
X-114488Y-271966D01*
X-115294Y-273912D01*
X-115569Y-276000D01*
Y-288000D01*
X-115294Y-290088D01*
X-114488Y-292034D01*
X-113206Y-293706D01*
X-111535Y-294988D01*
X-109588Y-295794D01*
X-107500Y-296069D01*
X-105412Y-295794D01*
X-103465Y-294988D01*
X-101794Y-293706D01*
X-100512Y-292034D01*
X-99706Y-290088D01*
X-99431Y-288000D01*
Y-276000D01*
X-99706Y-273912D01*
X-100512Y-271966D01*
X-101794Y-270294D01*
X-103465Y-269012D01*
X-105412Y-268206D01*
X-107500Y-267931D01*
D02*
G37*
%LPD*%
G36*
X15000Y187000D02*
X229000D01*
Y110982D01*
X220750D01*
X219479Y110729D01*
X219226Y110678D01*
X217935Y109815D01*
X216119Y108000D01*
X-260000D01*
Y111300D01*
X-265000Y116300D01*
X-272000D01*
Y121700D01*
X-265000D01*
X-260000Y126700D01*
Y136700D01*
X-265000Y141700D01*
X-272000D01*
Y269000D01*
X-67000D01*
X15000Y187000D01*
D02*
G37*
G36*
X-274039Y141700D02*
X-275000D01*
X-280000Y136700D01*
Y126700D01*
X-275000Y121700D01*
X-274039D01*
Y116300D01*
X-273884Y115520D01*
X-273442Y114858D01*
X-272780Y114416D01*
X-272000Y114261D01*
X-265845D01*
X-262039Y110455D01*
Y108000D01*
X-261884Y107220D01*
X-261442Y106558D01*
X-260780Y106116D01*
X-260000Y105961D01*
X-220711D01*
X-101000Y-13750D01*
Y-73000D01*
Y-128000D01*
X-187750D01*
X-211500Y-151750D01*
Y-161758D01*
X-212954Y-162598D01*
X-215002Y-164646D01*
X-215565Y-165621D01*
X-216835D01*
X-217398Y-164646D01*
X-219446Y-162598D01*
X-221954Y-161150D01*
X-224752Y-160400D01*
X-227648D01*
X-230446Y-161150D01*
X-232954Y-162598D01*
X-235002Y-164646D01*
X-236450Y-167154D01*
X-237200Y-169952D01*
Y-172848D01*
X-236450Y-175646D01*
X-235002Y-178154D01*
X-232954Y-180202D01*
X-232040Y-180730D01*
X-232380Y-182000D01*
X-264000D01*
X-268000Y-178000D01*
Y-82000D01*
Y-50000D01*
X-345000D01*
Y143750D01*
X-274039D01*
Y141700D01*
D02*
G37*
%LPC*%
G36*
X-196400Y261500D02*
X-228400D01*
Y222500D01*
X-196400D01*
Y261500D01*
D02*
G37*
G36*
X-62400Y258500D02*
X-94400D01*
Y219500D01*
X-62400D01*
Y258500D01*
D02*
G37*
G36*
X-157600Y258577D02*
X-160737Y258269D01*
X-163753Y257354D01*
X-166532Y255868D01*
X-168969Y253869D01*
X-170968Y251432D01*
X-172454Y248653D01*
X-173368Y245637D01*
X-173677Y242500D01*
Y235500D01*
X-173368Y232363D01*
X-172454Y229347D01*
X-170968Y226568D01*
X-168969Y224132D01*
X-166532Y222132D01*
X-163753Y220646D01*
X-160737Y219732D01*
X-157600Y219423D01*
X-154464Y219732D01*
X-151447Y220646D01*
X-148668Y222132D01*
X-146232Y224132D01*
X-144232Y226568D01*
X-142746Y229347D01*
X-141832Y232363D01*
X-141523Y235500D01*
Y242500D01*
X-141832Y245637D01*
X-142746Y248653D01*
X-144232Y251432D01*
X-146232Y253869D01*
X-148668Y255868D01*
X-151447Y257354D01*
X-154464Y258269D01*
X-157600Y258577D01*
D02*
G37*
%LPD*%
G36*
X-154863Y256259D02*
X-152232Y255460D01*
X-149806Y254164D01*
X-147681Y252419D01*
X-145936Y250294D01*
X-144640Y247868D01*
X-143841Y245237D01*
X-143562Y242400D01*
Y235600D01*
X-143841Y232763D01*
X-144640Y230131D01*
X-145936Y227706D01*
X-147681Y225581D01*
X-149806Y223836D01*
X-152232Y222540D01*
X-154863Y221741D01*
X-157600Y221472D01*
X-160337Y221741D01*
X-162969Y222540D01*
X-165394Y223836D01*
X-167520Y225581D01*
X-169264Y227706D01*
X-170560Y230131D01*
X-171359Y232763D01*
X-171638Y235600D01*
Y242400D01*
X-171359Y245237D01*
X-170560Y247868D01*
X-169264Y250294D01*
X-167520Y252419D01*
X-165394Y254164D01*
X-162969Y255460D01*
X-160337Y256259D01*
X-157600Y256528D01*
X-154863Y256259D01*
D02*
G37*
%LPC*%
G36*
X-330684Y140200D02*
X-333316D01*
X-335860Y139518D01*
X-338140Y138202D01*
X-340002Y136340D01*
X-341319Y134060D01*
X-342000Y131517D01*
Y128883D01*
X-341319Y126340D01*
X-340002Y124060D01*
X-338140Y122198D01*
X-335860Y120882D01*
X-333316Y120200D01*
X-330684D01*
X-328140Y120882D01*
X-325860Y122198D01*
X-323998Y124060D01*
X-322682Y126340D01*
X-322000Y128883D01*
Y131517D01*
X-322682Y134060D01*
X-323998Y136340D01*
X-325860Y138202D01*
X-328140Y139518D01*
X-330684Y140200D01*
D02*
G37*
G36*
X-322000Y114800D02*
X-342000D01*
Y94800D01*
X-322000D01*
Y114800D01*
D02*
G37*
%LPD*%
G36*
X190000Y-257000D02*
X153000D01*
Y-238500D01*
X137000D01*
Y-257000D01*
X66000D01*
Y-222000D01*
Y-189000D01*
X109000Y-146000D01*
X190000D01*
Y-257000D01*
D02*
G37*
D30*
X210250Y96500D02*
X220750Y107000D01*
X210250Y87750D02*
Y96500D01*
X220750Y107000D02*
X236250D01*
D33*
X355000Y-262000D02*
D03*
X-355000Y262000D02*
D03*
Y-262000D02*
D03*
X355000Y262000D02*
D03*
D34*
X-270000Y106300D02*
D03*
Y131700D02*
D03*
D35*
X361000Y160000D02*
D03*
Y199600D02*
D03*
Y66000D02*
D03*
Y26400D02*
D03*
D36*
Y120400D02*
D03*
Y-13200D02*
D03*
D37*
X119000Y238000D02*
D03*
X79400D02*
D03*
X213400Y237000D02*
D03*
X253000D02*
D03*
X258000Y-239000D02*
D03*
X297600D02*
D03*
X-291600Y242000D02*
D03*
X-252000D02*
D03*
X-118000Y239000D02*
D03*
X-157600D02*
D03*
D38*
X158600Y238000D02*
D03*
X292600Y237000D02*
D03*
X218400Y-239000D02*
D03*
X-212400Y242000D02*
D03*
X-78400Y239000D02*
D03*
D39*
X-206200Y-171400D02*
D03*
X-181200Y-171400D02*
D03*
X-226200Y-171400D02*
D03*
D40*
X-251200D02*
D03*
D41*
X-281900Y-198500D02*
D03*
X-150500D02*
D03*
D42*
X-4000Y-222000D02*
D03*
X305000Y-94000D02*
D03*
D43*
X-76000Y-222000D02*
D03*
D44*
X27500Y-282000D02*
D03*
X-107500D02*
D03*
D45*
X145000Y-253000D02*
D03*
X-29000Y259000D02*
D03*
D46*
X118000Y-278000D02*
D03*
Y-228000D02*
D03*
X-2000Y284000D02*
D03*
Y234000D02*
D03*
D47*
X305000Y-166000D02*
D03*
D48*
X365000Y-62500D02*
D03*
Y-197500D02*
D03*
D49*
X-357000Y-89600D02*
D03*
Y-140400D02*
D03*
Y-191200D02*
D03*
Y-165800D02*
D03*
X-357000Y-115000D02*
D03*
X-357000Y-64200D02*
D03*
X-357700Y70800D02*
D03*
X-332300D02*
D03*
X-357700Y20000D02*
D03*
X-332300D02*
D03*
X-357700Y-30800D02*
D03*
Y-5400D02*
D03*
X-332300D02*
D03*
Y45400D02*
D03*
X-357700D02*
D03*
X-357400Y181000D02*
D03*
X-332000D02*
D03*
Y130200D02*
D03*
X-357400D02*
D03*
Y104800D02*
D03*
X-332000Y155600D02*
D03*
X-357400D02*
D03*
X-332000Y206400D02*
D03*
X-357400D02*
D03*
D50*
X-357000Y-216600D02*
D03*
X-332300Y-30800D02*
D03*
X-332000Y104800D02*
D03*
D51*
X210250Y87750D02*
D03*
X236250Y107000D02*
D03*
D52*
X-76292Y-146833D02*
D03*
%TF.MD5,f4798f892eea6361a9a904f0e5cb382e*%
M02*
