%TF.GenerationSoftware,Altium Limited,Altium Designer,22.5.1 (42)*%
G04 Layer_Physical_Order=1*
G04 Layer_Color=255*
%FSLAX44Y44*%
%MOMM*%
%TF.SameCoordinates,01627914-4FCA-44A5-8146-F6A238B5A28C*%
%TF.FilePolarity,Positive*%
%TF.FileFunction,Copper,L1,Top,Signal*%
%TF.Part,Single*%
G01*
G75*
%TA.AperFunction,SMDPad,CuDef*%
%ADD10R,1.1600X1.4700*%
%ADD11R,1.0000X0.4000*%
%ADD12R,2.6000X3.0000*%
%ADD13R,1.0000X1.6000*%
%ADD14R,0.8000X0.8000*%
%ADD15R,0.8500X0.8500*%
%ADD16O,0.6000X1.2000*%
%ADD17R,0.6000X1.2000*%
%ADD18R,0.8500X0.8500*%
G04:AMPARAMS|DCode=19|XSize=4.2mm|YSize=4.2mm|CornerRadius=0.21mm|HoleSize=0mm|Usage=FLASHONLY|Rotation=270.000|XOffset=0mm|YOffset=0mm|HoleType=Round|Shape=RoundedRectangle|*
%AMROUNDEDRECTD19*
21,1,4.2000,3.7800,0,0,270.0*
21,1,3.7800,4.2000,0,0,270.0*
1,1,0.4200,-1.8900,-1.8900*
1,1,0.4200,-1.8900,1.8900*
1,1,0.4200,1.8900,1.8900*
1,1,0.4200,1.8900,-1.8900*
%
%ADD19ROUNDEDRECTD19*%
%ADD20R,1.8500X1.5000*%
%ADD21R,5.3500X3.6000*%
%ADD22R,1.5500X1.1000*%
%ADD23R,1.5500X1.1000*%
%ADD24R,1.5500X3.4500*%
%ADD25R,0.8000X0.8000*%
%ADD26R,1.6000X1.0000*%
%ADD27R,3.6000X5.3500*%
%ADD28R,1.5000X1.8500*%
%ADD29C,2.0000*%
%TA.AperFunction,Conductor*%
%ADD30C,0.3810*%
%ADD31C,0.8000*%
%ADD32C,0.7000*%
%TA.AperFunction,ComponentPad*%
%ADD33C,5.0000*%
G04:AMPARAMS|DCode=34|XSize=1.6mm|YSize=1.6mm|CornerRadius=0mm|HoleSize=0mm|Usage=FLASHONLY|Rotation=90.000|XOffset=0mm|YOffset=0mm|HoleType=Round|Shape=Octagon|*
%AMOCTAGOND34*
4,1,8,0.4000,0.8000,-0.4000,0.8000,-0.8000,0.4000,-0.8000,-0.4000,-0.4000,-0.8000,0.4000,-0.8000,0.8000,-0.4000,0.8000,0.4000,0.4000,0.8000,0.0*
%
%ADD34OCTAGOND34*%

%ADD35O,3.5000X2.8000*%
%ADD36R,3.5000X2.8000*%
%ADD37O,2.8000X3.5000*%
%ADD38R,2.8000X3.5000*%
%ADD39C,1.8000*%
%ADD40R,1.8000X1.8000*%
%ADD41O,3.0000X4.5000*%
%ADD42C,3.7160*%
%ADD43R,3.7160X3.7160*%
%ADD44O,1.2000X2.4000*%
%ADD45R,1.2000X2.5000*%
%ADD46R,2.5000X1.2000*%
%ADD47R,3.7160X3.7160*%
%ADD48O,2.4000X1.2000*%
%ADD49C,1.6000*%
%ADD50R,1.6000X1.6000*%
%TA.AperFunction,ViaPad*%
%ADD51C,0.8000*%
%ADD52C,1.2700*%
G36*
X355354Y297055D02*
X362060Y295258D01*
X368474Y292601D01*
X374487Y289130D01*
X379994Y284904D01*
X384904Y279994D01*
X389130Y274487D01*
X392601Y268474D01*
X395258Y262060D01*
X397055Y255354D01*
X397961Y248471D01*
Y245000D01*
X397961Y-245000D01*
X397961Y-248471D01*
X397055Y-255354D01*
X395258Y-262060D01*
X392601Y-268474D01*
X389130Y-274487D01*
X384904Y-279994D01*
X379994Y-284904D01*
X374487Y-289130D01*
X368474Y-292601D01*
X362060Y-295258D01*
X355354Y-297055D01*
X348471Y-297961D01*
X-348471D01*
X-355354Y-297055D01*
X-362060Y-295258D01*
X-368474Y-292601D01*
X-374487Y-289130D01*
X-379994Y-284904D01*
X-384904Y-279994D01*
X-389130Y-274487D01*
X-392601Y-268474D01*
X-395258Y-262060D01*
X-397055Y-255354D01*
X-397961Y-248471D01*
X-397961Y-245000D01*
Y245000D01*
X-397961Y248471D01*
X-397055Y255354D01*
X-395258Y262060D01*
X-392601Y268474D01*
X-389130Y274487D01*
X-384904Y279994D01*
X-379994Y284904D01*
X-374487Y289130D01*
X-368474Y292601D01*
X-362060Y295258D01*
X-355354Y297055D01*
X-348471Y297961D01*
X348471D01*
X355354Y297055D01*
D02*
G37*
%LPC*%
G36*
X357125Y289000D02*
X352875D01*
X348677Y288335D01*
X344636Y287022D01*
X340849Y285093D01*
X337411Y282595D01*
X334406Y279589D01*
X331908Y276151D01*
X329978Y272364D01*
X328665Y268323D01*
X328000Y264125D01*
Y259875D01*
X328665Y255678D01*
X329978Y251636D01*
X331908Y247849D01*
X334406Y244411D01*
X337411Y241406D01*
X340849Y238908D01*
X344636Y236978D01*
X348677Y235665D01*
X352875Y235000D01*
X357125D01*
X361323Y235665D01*
X365364Y236978D01*
X369151Y238908D01*
X372589Y241406D01*
X375594Y244411D01*
X378092Y247849D01*
X380022Y251636D01*
X381335Y255678D01*
X382000Y259875D01*
Y264125D01*
X381335Y268323D01*
X380022Y272364D01*
X378092Y276151D01*
X375594Y279589D01*
X372589Y282595D01*
X369151Y285093D01*
X365364Y287022D01*
X361323Y288335D01*
X357125Y289000D01*
D02*
G37*
G36*
X-352875D02*
X-357125D01*
X-361323Y288335D01*
X-365364Y287022D01*
X-369151Y285093D01*
X-372589Y282595D01*
X-375594Y279589D01*
X-378092Y276151D01*
X-380022Y272364D01*
X-381335Y268323D01*
X-382000Y264125D01*
Y259875D01*
X-381335Y255678D01*
X-380022Y251636D01*
X-378092Y247849D01*
X-375594Y244411D01*
X-372589Y241406D01*
X-369151Y238908D01*
X-365364Y236978D01*
X-361323Y235665D01*
X-357125Y235000D01*
X-352875D01*
X-348677Y235665D01*
X-344636Y236978D01*
X-340849Y238908D01*
X-337411Y241406D01*
X-334406Y244411D01*
X-331908Y247849D01*
X-329978Y251636D01*
X-328665Y255678D01*
X-328000Y259875D01*
Y264125D01*
X-328665Y268323D01*
X-329978Y272364D01*
X-331908Y276151D01*
X-334406Y279589D01*
X-337411Y282595D01*
X-340849Y285093D01*
X-344636Y287022D01*
X-348677Y288335D01*
X-352875Y289000D01*
D02*
G37*
G36*
X-196400Y261500D02*
X-228400D01*
Y222500D01*
X-196400D01*
Y261500D01*
D02*
G37*
G36*
X-252000Y261577D02*
X-255137Y261269D01*
X-258153Y260354D01*
X-260932Y258868D01*
X-263368Y256868D01*
X-265368Y254432D01*
X-266854Y251653D01*
X-267768Y248636D01*
X-268077Y245500D01*
Y238500D01*
X-267768Y235364D01*
X-266854Y232347D01*
X-265368Y229568D01*
X-263368Y227132D01*
X-260932Y225132D01*
X-258153Y223646D01*
X-255137Y222731D01*
X-252000Y222423D01*
X-248864Y222731D01*
X-245847Y223646D01*
X-243068Y225132D01*
X-240632Y227132D01*
X-238632Y229568D01*
X-237146Y232347D01*
X-236231Y235364D01*
X-235923Y238500D01*
Y245500D01*
X-236231Y248636D01*
X-237146Y251653D01*
X-238632Y254432D01*
X-240632Y256868D01*
X-243068Y258868D01*
X-245847Y260354D01*
X-248864Y261269D01*
X-252000Y261577D01*
D02*
G37*
G36*
X-62400Y258500D02*
X-94400D01*
Y219500D01*
X-62400D01*
Y258500D01*
D02*
G37*
G36*
X-118000Y258577D02*
X-121137Y258269D01*
X-124153Y257354D01*
X-126932Y255868D01*
X-129368Y253869D01*
X-131368Y251432D01*
X-132854Y248653D01*
X-133769Y245637D01*
X-134077Y242500D01*
Y235500D01*
X-133769Y232363D01*
X-132854Y229347D01*
X-131368Y226568D01*
X-129368Y224132D01*
X-126932Y222132D01*
X-124153Y220646D01*
X-121137Y219732D01*
X-118000Y219423D01*
X-114863Y219732D01*
X-111847Y220646D01*
X-109068Y222132D01*
X-106631Y224132D01*
X-104632Y226568D01*
X-103146Y229347D01*
X-102232Y232363D01*
X-101923Y235500D01*
Y242500D01*
X-102232Y245637D01*
X-103146Y248653D01*
X-104632Y251432D01*
X-106631Y253869D01*
X-109068Y255868D01*
X-111847Y257354D01*
X-114863Y258269D01*
X-118000Y258577D01*
D02*
G37*
G36*
X174600Y257500D02*
X142600D01*
Y218500D01*
X174600D01*
Y257500D01*
D02*
G37*
G36*
X119000Y257577D02*
X115863Y257269D01*
X112847Y256354D01*
X110068Y254868D01*
X107632Y252868D01*
X105632Y250432D01*
X104146Y247653D01*
X103231Y244636D01*
X102923Y241500D01*
Y234500D01*
X103231Y231364D01*
X104146Y228347D01*
X105632Y225568D01*
X107632Y223132D01*
X110068Y221132D01*
X112847Y219646D01*
X115863Y218731D01*
X119000Y218423D01*
X122136Y218731D01*
X125153Y219646D01*
X127932Y221132D01*
X130368Y223132D01*
X132368Y225568D01*
X133854Y228347D01*
X134768Y231364D01*
X135077Y234500D01*
Y241500D01*
X134768Y244636D01*
X133854Y247653D01*
X132368Y250432D01*
X130368Y252868D01*
X127932Y254868D01*
X125153Y256354D01*
X122136Y257269D01*
X119000Y257577D01*
D02*
G37*
G36*
X308600Y256500D02*
X276600D01*
Y217500D01*
X308600D01*
Y256500D01*
D02*
G37*
G36*
X253000Y256577D02*
X249863Y256269D01*
X246847Y255354D01*
X244068Y253868D01*
X241632Y251868D01*
X239632Y249432D01*
X238146Y246653D01*
X237232Y243636D01*
X236923Y240500D01*
Y233500D01*
X237232Y230364D01*
X238146Y227347D01*
X239632Y224568D01*
X241632Y222132D01*
X244068Y220132D01*
X246847Y218646D01*
X249863Y217731D01*
X253000Y217423D01*
X256136Y217731D01*
X259153Y218646D01*
X261932Y220132D01*
X264368Y222132D01*
X266368Y224568D01*
X267854Y227347D01*
X268769Y230364D01*
X269077Y233500D01*
Y240500D01*
X268769Y243636D01*
X267854Y246653D01*
X266368Y249432D01*
X264368Y251868D01*
X261932Y253868D01*
X259153Y255354D01*
X256136Y256269D01*
X253000Y256577D01*
D02*
G37*
G36*
X134900Y186850D02*
X119300D01*
Y168150D01*
X121132D01*
Y162750D01*
X121000D01*
Y150250D01*
X133500D01*
Y162750D01*
X133368D01*
Y168150D01*
X134900D01*
Y186850D01*
D02*
G37*
G36*
X364500Y176077D02*
X357500D01*
X354364Y175769D01*
X351347Y174854D01*
X348568Y173368D01*
X346132Y171369D01*
X344132Y168932D01*
X342646Y166153D01*
X341731Y163137D01*
X341423Y160000D01*
X341731Y156863D01*
X342646Y153847D01*
X344132Y151068D01*
X346132Y148632D01*
X348568Y146632D01*
X351347Y145146D01*
X354364Y144232D01*
X357500Y143923D01*
X364500D01*
X367636Y144232D01*
X370653Y145146D01*
X373432Y146632D01*
X375868Y148632D01*
X377868Y151068D01*
X379354Y153847D01*
X380269Y156863D01*
X380577Y160000D01*
X380269Y163137D01*
X379354Y166153D01*
X377868Y168932D01*
X375868Y171369D01*
X373432Y173368D01*
X370653Y174854D01*
X367636Y175769D01*
X364500Y176077D01*
D02*
G37*
G36*
X-84000Y173750D02*
X-103500D01*
Y135250D01*
X-84000D01*
Y173750D01*
D02*
G37*
G36*
X380500Y136400D02*
X341500D01*
Y104400D01*
X380500D01*
Y136400D01*
D02*
G37*
G36*
X237444Y113000D02*
X235056D01*
X232851Y112086D01*
X231163Y110399D01*
X230250Y108194D01*
Y105807D01*
X231163Y103601D01*
X232851Y101913D01*
X235056Y101000D01*
X237444D01*
X239649Y101913D01*
X241337Y103601D01*
X242250Y105807D01*
Y108194D01*
X241337Y110399D01*
X239649Y112086D01*
X237444Y113000D01*
D02*
G37*
G36*
X211444Y93750D02*
X209056D01*
X206851Y92837D01*
X205163Y91149D01*
X204250Y88944D01*
Y86557D01*
X205163Y84351D01*
X206851Y82663D01*
X209056Y81750D01*
X211444D01*
X213649Y82663D01*
X215337Y84351D01*
X216250Y86557D01*
Y88944D01*
X215337Y91149D01*
X213649Y92837D01*
X211444Y93750D01*
D02*
G37*
G36*
X12500Y242000D02*
X-16500D01*
Y226000D01*
X-8117D01*
Y169250D01*
X-7652Y166909D01*
X-6326Y164924D01*
X59424Y99174D01*
X61409Y97848D01*
X63750Y97382D01*
X107000D01*
X109341Y97848D01*
X110980Y98943D01*
X112250Y98446D01*
Y93000D01*
X134882D01*
Y77534D01*
X131716Y74367D01*
X116000D01*
Y74750D01*
X103500D01*
Y62250D01*
X109409D01*
X110000Y62133D01*
X134250D01*
X136591Y62598D01*
X138576Y63924D01*
X145326Y70674D01*
X146652Y72659D01*
X147118Y75000D01*
Y93000D01*
X169750D01*
Y133000D01*
X148868D01*
Y150250D01*
X149000D01*
Y162750D01*
X136500D01*
Y150250D01*
X136632D01*
Y133000D01*
X112250D01*
Y119136D01*
X109500D01*
X107159Y118670D01*
X105174Y117344D01*
X103848Y115359D01*
X103383Y113018D01*
Y109618D01*
X66284D01*
X4117Y171784D01*
Y226000D01*
X12500D01*
Y242000D01*
D02*
G37*
G36*
X-129500Y31000D02*
X-142000D01*
Y28482D01*
X-143750D01*
Y30250D01*
X-155750D01*
Y18250D01*
X-143750D01*
Y20519D01*
X-142000D01*
Y18500D01*
X-129500D01*
Y31000D01*
D02*
G37*
G36*
X195250Y133000D02*
X172750D01*
Y114000D01*
X178392D01*
Y112000D01*
X172750D01*
Y93000D01*
X177392D01*
Y73580D01*
X164100D01*
X162500Y73262D01*
X161144Y72356D01*
X160238Y71000D01*
X159920Y69400D01*
Y56858D01*
X133000D01*
X130854Y56431D01*
X129035Y55215D01*
X111535Y37715D01*
X110319Y35896D01*
X109892Y33750D01*
Y19500D01*
X110319Y17354D01*
X110500Y17083D01*
Y11500D01*
X120500D01*
Y17083D01*
X120681Y17354D01*
X121108Y19500D01*
Y31427D01*
X135323Y45642D01*
X159920D01*
Y31600D01*
X160238Y30000D01*
X161144Y28644D01*
X162500Y27738D01*
X164100Y27420D01*
X201900D01*
X203500Y27738D01*
X204856Y28644D01*
X205762Y30000D01*
X206080Y31600D01*
Y69400D01*
X205762Y71000D01*
X204856Y72356D01*
X203500Y73262D01*
X201900Y73580D01*
X188608D01*
Y93000D01*
X195250D01*
Y112000D01*
X189608D01*
Y114000D01*
X195250D01*
Y133000D01*
D02*
G37*
G36*
X364500Y42477D02*
X357500D01*
X354364Y42168D01*
X351347Y41254D01*
X348568Y39768D01*
X346132Y37768D01*
X344132Y35332D01*
X342646Y32552D01*
X341731Y29536D01*
X341423Y26400D01*
X341731Y23263D01*
X342646Y20247D01*
X344132Y17468D01*
X346132Y15031D01*
X348568Y13032D01*
X351347Y11546D01*
X354364Y10632D01*
X357500Y10323D01*
X364500D01*
X367636Y10632D01*
X370653Y11546D01*
X373432Y13032D01*
X375868Y15031D01*
X377868Y17468D01*
X379354Y20247D01*
X380269Y23263D01*
X380577Y26400D01*
X380269Y29536D01*
X379354Y32552D01*
X377868Y35332D01*
X375868Y37768D01*
X373432Y39768D01*
X370653Y41254D01*
X367636Y42168D01*
X364500Y42477D01*
D02*
G37*
G36*
X380500Y2800D02*
X341500D01*
Y-29200D01*
X380500D01*
Y2800D01*
D02*
G37*
G36*
X371000Y-54431D02*
X359000D01*
X356912Y-54706D01*
X354966Y-55512D01*
X353294Y-56794D01*
X352012Y-58465D01*
X351206Y-60412D01*
X350931Y-62500D01*
X351206Y-64588D01*
X352012Y-66535D01*
X353294Y-68206D01*
X354966Y-69488D01*
X356912Y-70294D01*
X359000Y-70569D01*
X371000D01*
X373088Y-70294D01*
X375034Y-69488D01*
X376706Y-68206D01*
X377988Y-66535D01*
X378794Y-64588D01*
X379069Y-62500D01*
X378794Y-60412D01*
X377988Y-58465D01*
X376706Y-56794D01*
X375034Y-55512D01*
X373088Y-54706D01*
X371000Y-54431D01*
D02*
G37*
G36*
X-355684Y-54200D02*
X-358317D01*
X-360860Y-54882D01*
X-363140Y-56198D01*
X-365002Y-58060D01*
X-366319Y-60340D01*
X-367000Y-62884D01*
Y-65517D01*
X-366319Y-68060D01*
X-365002Y-70340D01*
X-363140Y-72202D01*
X-360860Y-73519D01*
X-358317Y-74200D01*
X-355684D01*
X-353140Y-73519D01*
X-350860Y-72202D01*
X-348998Y-70340D01*
X-347682Y-68060D01*
X-347000Y-65517D01*
Y-62884D01*
X-347682Y-60340D01*
X-348998Y-58060D01*
X-350860Y-56198D01*
X-353140Y-54882D01*
X-355684Y-54200D01*
D02*
G37*
G36*
Y-79600D02*
X-358317D01*
X-360860Y-80281D01*
X-363140Y-81598D01*
X-365002Y-83460D01*
X-366319Y-85740D01*
X-367000Y-88284D01*
Y-90917D01*
X-366319Y-93460D01*
X-365002Y-95740D01*
X-363140Y-97602D01*
X-360860Y-98919D01*
X-358317Y-99600D01*
X-355684D01*
X-353140Y-98919D01*
X-350860Y-97602D01*
X-348998Y-95740D01*
X-347682Y-93460D01*
X-347000Y-90917D01*
Y-88284D01*
X-347682Y-85740D01*
X-348998Y-83460D01*
X-350860Y-81598D01*
X-353140Y-80281D01*
X-355684Y-79600D01*
D02*
G37*
G36*
X-355684Y-105000D02*
X-358316D01*
X-360860Y-105681D01*
X-363140Y-106998D01*
X-365002Y-108860D01*
X-366319Y-111140D01*
X-367000Y-113684D01*
Y-116316D01*
X-366319Y-118860D01*
X-365002Y-121140D01*
X-363140Y-123002D01*
X-360860Y-124319D01*
X-358316Y-125000D01*
X-355684D01*
X-353140Y-124319D01*
X-350860Y-123002D01*
X-348998Y-121140D01*
X-347682Y-118860D01*
X-347000Y-116316D01*
Y-113684D01*
X-347682Y-111140D01*
X-348998Y-108860D01*
X-350860Y-106998D01*
X-353140Y-105681D01*
X-355684Y-105000D01*
D02*
G37*
G36*
X-355684Y-130400D02*
X-358317D01*
X-360860Y-131081D01*
X-363140Y-132398D01*
X-365002Y-134260D01*
X-366319Y-136540D01*
X-367000Y-139083D01*
Y-141716D01*
X-366319Y-144260D01*
X-365002Y-146540D01*
X-363140Y-148402D01*
X-360860Y-149719D01*
X-358317Y-150400D01*
X-355684D01*
X-353140Y-149719D01*
X-350860Y-148402D01*
X-348998Y-146540D01*
X-347682Y-144260D01*
X-347000Y-141716D01*
Y-139083D01*
X-347682Y-136540D01*
X-348998Y-134260D01*
X-350860Y-132398D01*
X-353140Y-131081D01*
X-355684Y-130400D01*
D02*
G37*
G36*
Y-155800D02*
X-358317D01*
X-360860Y-156482D01*
X-363140Y-157798D01*
X-365002Y-159660D01*
X-366319Y-161940D01*
X-367000Y-164484D01*
Y-167117D01*
X-366319Y-169660D01*
X-365002Y-171940D01*
X-363140Y-173802D01*
X-360860Y-175119D01*
X-358317Y-175800D01*
X-355684D01*
X-353140Y-175119D01*
X-350860Y-173802D01*
X-348998Y-171940D01*
X-347682Y-169660D01*
X-347000Y-167117D01*
Y-164484D01*
X-347682Y-161940D01*
X-348998Y-159660D01*
X-350860Y-157798D01*
X-353140Y-156482D01*
X-355684Y-155800D01*
D02*
G37*
G36*
Y-181200D02*
X-358317D01*
X-360860Y-181882D01*
X-363140Y-183198D01*
X-365002Y-185060D01*
X-366319Y-187340D01*
X-367000Y-189883D01*
Y-192516D01*
X-366319Y-195060D01*
X-365002Y-197340D01*
X-363140Y-199202D01*
X-360860Y-200518D01*
X-358317Y-201200D01*
X-355684D01*
X-353140Y-200518D01*
X-350860Y-199202D01*
X-348998Y-197340D01*
X-347682Y-195060D01*
X-347000Y-192516D01*
Y-189883D01*
X-347682Y-187340D01*
X-348998Y-185060D01*
X-350860Y-183198D01*
X-353140Y-181882D01*
X-355684Y-181200D01*
D02*
G37*
G36*
X-292701Y223039D02*
X-343299D01*
X-343496Y223000D01*
X-343697D01*
X-343865Y222967D01*
X-343865D01*
X-344050Y222890D01*
X-344080Y222884D01*
X-344104Y222867D01*
X-344600Y222662D01*
X-345162Y222099D01*
X-345367Y221605D01*
X-345384Y221580D01*
X-345390Y221550D01*
X-345467Y221364D01*
Y221364D01*
X-345500Y221197D01*
Y220996D01*
X-345539Y220799D01*
Y97701D01*
X-345500Y97504D01*
Y97303D01*
X-345463Y97118D01*
X-345463Y97117D01*
Y97117D01*
X-345386Y96932D01*
X-345384Y96920D01*
X-345378Y96911D01*
X-345244Y96589D01*
X-345242Y96578D01*
X-345235Y96568D01*
X-345159Y96382D01*
X-345159Y96382D01*
X-345053Y96225D01*
X-344912Y96083D01*
X-344800Y95916D01*
X-340442Y91558D01*
X-340689Y90195D01*
X-344300Y86584D01*
X-344412Y86417D01*
X-344554Y86275D01*
X-344659Y86118D01*
X-344735Y85932D01*
X-344742Y85922D01*
X-344744Y85911D01*
X-344878Y85589D01*
X-344884Y85580D01*
X-344886Y85568D01*
X-344963Y85383D01*
X-345000Y85197D01*
Y84996D01*
X-345039Y84799D01*
Y-49799D01*
X-345000Y-49996D01*
Y-50197D01*
X-344967Y-50365D01*
Y-50365D01*
X-344890Y-50550D01*
X-344884Y-50580D01*
X-344867Y-50605D01*
X-344662Y-51100D01*
X-344100Y-51662D01*
X-343605Y-51867D01*
X-343580Y-51884D01*
X-343550Y-51890D01*
X-343364Y-51967D01*
X-343364D01*
X-343197Y-52000D01*
X-342996D01*
X-342799Y-52039D01*
X-301201D01*
X-301004Y-52000D01*
X-300803Y-52000D01*
X-300617Y-51963D01*
X-300432Y-51886D01*
X-300420Y-51884D01*
X-300411Y-51877D01*
X-300089Y-51744D01*
X-300078Y-51742D01*
X-300068Y-51736D01*
X-299882Y-51659D01*
X-299725Y-51554D01*
X-299583Y-51412D01*
X-299416Y-51300D01*
X-283357Y-35240D01*
X-283357Y-35240D01*
X-267155Y-19039D01*
X-222039D01*
Y-61155D01*
X-240845Y-79961D01*
X-267799D01*
X-267996Y-80000D01*
X-268197D01*
X-268365Y-80033D01*
X-268365D01*
X-268550Y-80110D01*
X-268580Y-80116D01*
X-268605Y-80133D01*
X-269100Y-80338D01*
X-269662Y-80900D01*
X-269867Y-81395D01*
X-269884Y-81420D01*
X-269890Y-81450D01*
X-269967Y-81636D01*
Y-81636D01*
X-270000Y-81803D01*
Y-82004D01*
X-270039Y-82201D01*
Y-177099D01*
X-271309Y-177700D01*
X-272410Y-176797D01*
X-275363Y-175218D01*
X-278567Y-174246D01*
X-281900Y-173918D01*
X-285233Y-174246D01*
X-288437Y-175218D01*
X-291390Y-176797D01*
X-293979Y-178921D01*
X-296103Y-181510D01*
X-297682Y-184463D01*
X-298654Y-187667D01*
X-298982Y-191000D01*
Y-206000D01*
X-298654Y-209333D01*
X-297682Y-212537D01*
X-296103Y-215490D01*
X-293979Y-218079D01*
X-291390Y-220203D01*
X-288437Y-221782D01*
X-285233Y-222754D01*
X-281900Y-223082D01*
X-278567Y-222754D01*
X-275363Y-221782D01*
X-272410Y-220203D01*
X-269821Y-218079D01*
X-267697Y-215490D01*
X-266118Y-212537D01*
X-265146Y-209333D01*
X-264818Y-206000D01*
Y-191000D01*
X-265146Y-187667D01*
X-266104Y-184511D01*
X-266032Y-184388D01*
X-265408Y-183843D01*
X-265096Y-183682D01*
X-264997Y-183722D01*
X-264830Y-183834D01*
X-264633Y-183873D01*
X-264448Y-183950D01*
X-264197Y-184000D01*
X-263996D01*
X-263799Y-184039D01*
X-233604D01*
X-233540Y-184027D01*
X-233476Y-184035D01*
X-233152Y-183949D01*
X-232823Y-183884D01*
X-232770Y-183848D01*
X-232707Y-183832D01*
X-232441Y-183628D01*
X-232162Y-183442D01*
X-232126Y-183388D01*
X-232075Y-183349D01*
X-231616Y-182829D01*
X-231522Y-182668D01*
X-231397Y-182530D01*
X-230850Y-182025D01*
X-230158Y-181803D01*
X-229848Y-181810D01*
X-227648Y-182400D01*
X-224752D01*
X-221954Y-181650D01*
X-219446Y-180202D01*
X-217398Y-178154D01*
X-216835Y-177179D01*
X-215565D01*
X-215002Y-178154D01*
X-212954Y-180202D01*
X-210446Y-181650D01*
X-207648Y-182400D01*
X-204752D01*
X-201954Y-181650D01*
X-199446Y-180202D01*
X-197398Y-178154D01*
X-195950Y-175646D01*
X-195200Y-172848D01*
Y-169952D01*
X-195493Y-168859D01*
X-194484Y-168220D01*
X-194369Y-168179D01*
X-194315Y-168169D01*
X-194232Y-168134D01*
X-194010Y-167986D01*
X-193770Y-167868D01*
X-193682Y-167767D01*
X-193570Y-167692D01*
X-193422Y-167470D01*
X-193246Y-167269D01*
X-193202Y-167142D01*
X-193128Y-167031D01*
X-193076Y-166769D01*
X-192990Y-166516D01*
X-192978Y-166426D01*
X-192985Y-166315D01*
X-192973Y-166250D01*
X-192976Y-166235D01*
X-192961Y-166160D01*
Y-165845D01*
X-192961Y-165845D01*
X-185155Y-158039D01*
X-146201D01*
X-146004Y-158000D01*
X-145803Y-158000D01*
X-145617Y-157963D01*
X-145432Y-157886D01*
X-145420Y-157884D01*
X-145411Y-157877D01*
X-145265Y-157817D01*
X-145089Y-157744D01*
X-145078Y-157742D01*
X-145068Y-157736D01*
X-144882Y-157659D01*
X-144725Y-157554D01*
X-144583Y-157412D01*
X-144416Y-157300D01*
X-138700Y-151584D01*
X-138588Y-151417D01*
X-138447Y-151275D01*
X-138305Y-151062D01*
X-138244Y-150916D01*
X-137250Y-150250D01*
X-124750D01*
Y-149608D01*
X-120700D01*
Y-155350D01*
X-105100D01*
Y-136650D01*
X-105100D01*
X-105496Y-135380D01*
X-99700Y-129584D01*
X-99588Y-129417D01*
X-99446Y-129275D01*
X-99341Y-129118D01*
X-99264Y-128932D01*
X-99258Y-128922D01*
X-99256Y-128911D01*
X-99122Y-128589D01*
X-99116Y-128580D01*
X-99114Y-128568D01*
X-99037Y-128383D01*
X-99000Y-128197D01*
Y-127996D01*
X-98961Y-127799D01*
Y-73201D01*
X-99000Y-73004D01*
Y-72803D01*
X-99033Y-72635D01*
Y-72635D01*
X-99110Y-72450D01*
X-99116Y-72421D01*
X-99133Y-72396D01*
X-99338Y-71900D01*
X-99901Y-71338D01*
X-100395Y-71133D01*
X-100420Y-71116D01*
X-100450Y-71110D01*
X-100636Y-71033D01*
X-100636D01*
X-100803Y-71000D01*
X-101004D01*
X-101201Y-70961D01*
X-153067D01*
X-165018Y-57122D01*
X-170961Y-50241D01*
Y30799D01*
X-171000Y30996D01*
Y31197D01*
X-171037Y31383D01*
X-171037Y31383D01*
Y31383D01*
X-171114Y31568D01*
X-171116Y31580D01*
X-171122Y31589D01*
X-171256Y31911D01*
X-171258Y31922D01*
X-171264Y31932D01*
X-171341Y32118D01*
X-171341Y32118D01*
X-171446Y32275D01*
X-171588Y32417D01*
X-171700Y32584D01*
X-173416Y34300D01*
X-173441Y34316D01*
X-173566Y34442D01*
X-173709Y34537D01*
X-173725Y34554D01*
X-173750Y34570D01*
Y46250D01*
X-174323D01*
X-174849Y47520D01*
X-169655Y52715D01*
X-168482Y52228D01*
Y46500D01*
X-170750D01*
Y34000D01*
X-158250D01*
Y46500D01*
X-160518D01*
Y54518D01*
X-136819D01*
X-136421Y53534D01*
X-136400Y53249D01*
X-138565Y51083D01*
X-139428Y49792D01*
X-139732Y48268D01*
Y46500D01*
X-142000D01*
Y34000D01*
X-129500D01*
Y45418D01*
X-128625Y45968D01*
X-127750Y45418D01*
Y34500D01*
X-116309D01*
X-115750Y34500D01*
X-115039Y33524D01*
Y14845D01*
X-119804Y10080D01*
X-151400D01*
X-151606Y10039D01*
X-158000D01*
X-158780Y9884D01*
X-159442Y9442D01*
X-159884Y8780D01*
X-160039Y8000D01*
Y-47000D01*
X-160039Y-47000D01*
X-159884Y-47780D01*
X-159442Y-48442D01*
X-139942Y-67942D01*
X-139280Y-68384D01*
X-138500Y-68539D01*
X-70500D01*
Y-69000D01*
X-30500D01*
Y-68539D01*
X-27000D01*
X-26220Y-68384D01*
X-25558Y-67942D01*
X-25116Y-67280D01*
X-24961Y-66500D01*
Y-15000D01*
X-24961Y-15000D01*
X-25116Y-14220D01*
X-25558Y-13558D01*
X-36558Y-2558D01*
X-37220Y-2116D01*
X-38000Y-1961D01*
X-55211D01*
Y22750D01*
Y27961D01*
X34155D01*
X83961Y-21845D01*
X83961Y-55155D01*
X-24845Y-163961D01*
X-85000D01*
X-85780Y-164116D01*
X-86442Y-164558D01*
X-86442Y-164558D01*
X-120442Y-198558D01*
X-120884Y-199220D01*
X-121039Y-200000D01*
Y-241000D01*
X-120987Y-241263D01*
X-120969Y-241530D01*
X-120910Y-241650D01*
X-120884Y-241780D01*
X-120735Y-242003D01*
X-120616Y-242243D01*
X-110616Y-255243D01*
X-110516Y-255331D01*
X-110442Y-255442D01*
X-110219Y-255591D01*
X-110017Y-255767D01*
X-109891Y-255810D01*
X-109780Y-255884D01*
X-109518Y-255936D01*
X-109264Y-256022D01*
X-109131Y-256013D01*
X-109000Y-256039D01*
X-66000D01*
X-65220Y-255884D01*
X-64558Y-255442D01*
X-64558Y-255442D01*
X104095Y-86789D01*
X242461D01*
Y-207000D01*
X242616Y-207780D01*
X243058Y-208442D01*
X243720Y-208884D01*
X244500Y-209039D01*
X391000D01*
X391780Y-208884D01*
X392442Y-208442D01*
X392884Y-207780D01*
X393039Y-207000D01*
Y-114000D01*
X393039Y-114000D01*
X392884Y-113220D01*
X392442Y-112558D01*
X320442Y-40558D01*
X319780Y-40116D01*
X319000Y-39961D01*
X258250D01*
Y-28000D01*
X255982D01*
Y-23350D01*
X258900D01*
Y-4650D01*
X243300D01*
Y-23350D01*
X248018D01*
Y-28000D01*
X245750D01*
Y-39961D01*
X241845D01*
X222442Y-20558D01*
X221780Y-20116D01*
X221000Y-19961D01*
X125039D01*
Y-16000D01*
X125039Y-16000D01*
X124884Y-15220D01*
X124442Y-14558D01*
X121457Y-11573D01*
X121373Y-11517D01*
X121309Y-11439D01*
X121045Y-11298D01*
X120795Y-11131D01*
X120562Y-10174D01*
X120542Y-9781D01*
X120598Y-9500D01*
Y-3500D01*
X120210Y-1549D01*
X119105Y105D01*
X117451Y1210D01*
X115500Y1598D01*
X113549Y1210D01*
X111895Y105D01*
X111604Y-331D01*
X110340Y-456D01*
X99151Y10733D01*
X99313Y12366D01*
X100105Y12895D01*
X101210Y14549D01*
X101598Y16500D01*
Y17230D01*
X101681Y17354D01*
X102108Y19500D01*
Y30500D01*
X101681Y32646D01*
X100465Y34465D01*
X99858Y35073D01*
Y46250D01*
X100500D01*
Y58750D01*
X99858D01*
Y62250D01*
X100500D01*
Y74750D01*
X88000D01*
Y62250D01*
X88642D01*
Y58750D01*
X88000D01*
Y46250D01*
X88642D01*
Y32750D01*
X89069Y30604D01*
X90285Y28785D01*
X90892Y28177D01*
Y20788D01*
X89622Y20262D01*
X64442Y45442D01*
X63780Y45884D01*
X63000Y46039D01*
X-37500D01*
Y57250D01*
X-49500D01*
Y54577D01*
X-56500D01*
Y62500D01*
X-60269D01*
Y75000D01*
X-58750D01*
Y87500D01*
X-71250D01*
Y75000D01*
X-68232D01*
Y62500D01*
X-70500D01*
Y54500D01*
X-70500D01*
X-70500Y53230D01*
Y47770D01*
X-70500Y46500D01*
X-70500D01*
Y46500D01*
X-70500D01*
Y37197D01*
X-70539Y37000D01*
Y30500D01*
X-70500Y30303D01*
Y28658D01*
X-70539Y28461D01*
Y28356D01*
X-71634Y27517D01*
X-71869Y27433D01*
X-72114Y27384D01*
X-72240Y27300D01*
X-72383Y27248D01*
X-72568Y27081D01*
X-72775Y26942D01*
X-72860Y26816D01*
X-72972Y26714D01*
X-74639Y24464D01*
X-74745Y24238D01*
X-74884Y24030D01*
X-74914Y23881D01*
X-74978Y23744D01*
X-74991Y23495D01*
X-75039Y23250D01*
Y16582D01*
X-76213Y16096D01*
X-76558Y16442D01*
X-77220Y16884D01*
X-78000Y17039D01*
X-94961D01*
Y22500D01*
X-95116Y23280D01*
X-95558Y23942D01*
X-96220Y24384D01*
X-96500Y24440D01*
Y30303D01*
X-96461Y30500D01*
Y37000D01*
X-96500Y37197D01*
Y38500D01*
X-97145D01*
X-97720Y38884D01*
X-98500Y39039D01*
X-113000D01*
X-113780Y38884D01*
X-114442Y38442D01*
X-114480Y38385D01*
X-115750Y38770D01*
Y46500D01*
X-114488Y46519D01*
X-110500D01*
Y46500D01*
X-96500D01*
Y53230D01*
X-96500Y54500D01*
X-96500Y55770D01*
Y62500D01*
X-110500D01*
Y62481D01*
X-169500D01*
X-171024Y62178D01*
X-172315Y61315D01*
X-182815Y50815D01*
X-183678Y49524D01*
X-183981Y48000D01*
Y46250D01*
X-185961D01*
Y58799D01*
X-186000Y58996D01*
Y59197D01*
X-186037Y59383D01*
X-186037Y59383D01*
Y59383D01*
X-186114Y59568D01*
X-186116Y59580D01*
X-186122Y59589D01*
X-186256Y59911D01*
X-186258Y59922D01*
X-186264Y59932D01*
X-186341Y60118D01*
X-186341Y60118D01*
X-186446Y60275D01*
X-186588Y60417D01*
X-186700Y60584D01*
X-244416Y118300D01*
X-244583Y118412D01*
X-244725Y118553D01*
X-244930Y118691D01*
X-245110Y118765D01*
X-244687Y119961D01*
X-129250D01*
X-128470Y120116D01*
X-127808Y120558D01*
X-127366Y121220D01*
X-127211Y122000D01*
Y146500D01*
X-127366Y147280D01*
X-127539Y147540D01*
X-127517Y147592D01*
X-127406Y147759D01*
X-127367Y147956D01*
X-127290Y148141D01*
X-127250Y148342D01*
Y148543D01*
X-127211Y148740D01*
Y162549D01*
X-127250Y162746D01*
X-127250Y162947D01*
X-127287Y163133D01*
X-127364Y163318D01*
X-127366Y163330D01*
X-127373Y163339D01*
X-127506Y163661D01*
X-127508Y163672D01*
X-127514Y163682D01*
X-127591Y163868D01*
X-127696Y164025D01*
X-127838Y164167D01*
X-127950Y164334D01*
X-128166Y164550D01*
X-128333Y164662D01*
X-128475Y164804D01*
X-128632Y164909D01*
X-128818Y164986D01*
X-128828Y164992D01*
X-128839Y164994D01*
X-129161Y165128D01*
X-129170Y165134D01*
X-129182Y165136D01*
X-129367Y165213D01*
X-129553Y165250D01*
X-129754D01*
X-129951Y165289D01*
X-222250D01*
Y176500D01*
X-222383D01*
Y182150D01*
X-219600D01*
Y200850D01*
X-235200D01*
Y182150D01*
X-234618D01*
Y176500D01*
X-234750D01*
Y167793D01*
X-235923Y167307D01*
X-290916Y222300D01*
X-291083Y222412D01*
X-291225Y222554D01*
X-291382Y222659D01*
X-291568Y222736D01*
X-291578Y222742D01*
X-291589Y222744D01*
X-291911Y222878D01*
X-291920Y222884D01*
X-291932Y222886D01*
X-292117Y222963D01*
X-292118D01*
X-292303Y223000D01*
X-292504D01*
X-292701Y223039D01*
D02*
G37*
G36*
X-150500Y-173918D02*
X-153833Y-174246D01*
X-157037Y-175218D01*
X-159990Y-176797D01*
X-162579Y-178921D01*
X-164703Y-181510D01*
X-166282Y-184463D01*
X-167254Y-187667D01*
X-167582Y-191000D01*
Y-206000D01*
X-167254Y-209333D01*
X-166282Y-212537D01*
X-164703Y-215490D01*
X-162579Y-218079D01*
X-159990Y-220203D01*
X-157037Y-221782D01*
X-153833Y-222754D01*
X-150500Y-223082D01*
X-147167Y-222754D01*
X-143963Y-221782D01*
X-141010Y-220203D01*
X-138421Y-218079D01*
X-136297Y-215490D01*
X-134718Y-212537D01*
X-133746Y-209333D01*
X-133418Y-206000D01*
Y-191000D01*
X-133746Y-187667D01*
X-134718Y-184463D01*
X-136297Y-181510D01*
X-138421Y-178921D01*
X-141010Y-176797D01*
X-143963Y-175218D01*
X-147167Y-174246D01*
X-150500Y-173918D01*
D02*
G37*
G36*
X-347000Y-206600D02*
X-367000D01*
Y-226600D01*
X-347000D01*
Y-206600D01*
D02*
G37*
G36*
X234400Y-219500D02*
X202400D01*
Y-258500D01*
X234400D01*
Y-219500D01*
D02*
G37*
G36*
X258000Y-219423D02*
X254863Y-219732D01*
X251847Y-220646D01*
X249068Y-222132D01*
X246632Y-224132D01*
X244632Y-226568D01*
X243146Y-229347D01*
X242232Y-232363D01*
X241923Y-235500D01*
Y-242500D01*
X242232Y-245637D01*
X243146Y-248653D01*
X244632Y-251432D01*
X246632Y-253869D01*
X249068Y-255868D01*
X251847Y-257354D01*
X254863Y-258269D01*
X258000Y-258577D01*
X261136Y-258269D01*
X264153Y-257354D01*
X266932Y-255868D01*
X269368Y-253869D01*
X271368Y-251432D01*
X272854Y-248653D01*
X273769Y-245637D01*
X274077Y-242500D01*
Y-235500D01*
X273769Y-232363D01*
X272854Y-229347D01*
X271368Y-226568D01*
X269368Y-224132D01*
X266932Y-222132D01*
X264153Y-220646D01*
X261136Y-219732D01*
X258000Y-219423D01*
D02*
G37*
G36*
X357125Y-235000D02*
X352875D01*
X348677Y-235665D01*
X344636Y-236978D01*
X340849Y-238908D01*
X337411Y-241406D01*
X334406Y-244411D01*
X331908Y-247849D01*
X329978Y-251636D01*
X328665Y-255678D01*
X328000Y-259875D01*
Y-264125D01*
X328665Y-268323D01*
X329978Y-272364D01*
X331908Y-276151D01*
X334406Y-279589D01*
X337411Y-282595D01*
X340849Y-285093D01*
X344636Y-287022D01*
X348677Y-288335D01*
X352875Y-289000D01*
X357125D01*
X361323Y-288335D01*
X365364Y-287022D01*
X369151Y-285093D01*
X372589Y-282595D01*
X375594Y-279589D01*
X378092Y-276151D01*
X380022Y-272364D01*
X381335Y-268323D01*
X382000Y-264125D01*
Y-259875D01*
X381335Y-255678D01*
X380022Y-251636D01*
X378092Y-247849D01*
X375594Y-244411D01*
X372589Y-241406D01*
X369151Y-238908D01*
X365364Y-236978D01*
X361323Y-235665D01*
X357125Y-235000D01*
D02*
G37*
G36*
X-352875D02*
X-357125D01*
X-361323Y-235665D01*
X-365364Y-236978D01*
X-369151Y-238908D01*
X-372589Y-241406D01*
X-375594Y-244411D01*
X-378092Y-247849D01*
X-380022Y-251636D01*
X-381335Y-255678D01*
X-382000Y-259875D01*
Y-264125D01*
X-381335Y-268323D01*
X-380022Y-272364D01*
X-378092Y-276151D01*
X-375594Y-279589D01*
X-372589Y-282595D01*
X-369151Y-285093D01*
X-365364Y-287022D01*
X-361323Y-288335D01*
X-357125Y-289000D01*
X-352875D01*
X-348677Y-288335D01*
X-344636Y-287022D01*
X-340849Y-285093D01*
X-337411Y-282595D01*
X-334406Y-279589D01*
X-331908Y-276151D01*
X-329978Y-272364D01*
X-328665Y-268323D01*
X-328000Y-264125D01*
Y-259875D01*
X-328665Y-255678D01*
X-329978Y-251636D01*
X-331908Y-247849D01*
X-334406Y-244411D01*
X-337411Y-241406D01*
X-340849Y-238908D01*
X-344636Y-236978D01*
X-348677Y-235665D01*
X-352875Y-235000D01*
D02*
G37*
G36*
X190000Y-143961D02*
X136000D01*
X135220Y-144116D01*
X134558Y-144558D01*
X120558Y-158558D01*
X120116Y-159220D01*
X119961Y-160000D01*
Y-206155D01*
X114155Y-211961D01*
X71000D01*
X70773Y-212006D01*
X70542Y-212013D01*
X70386Y-212083D01*
X70220Y-212116D01*
X70027Y-212245D01*
X69816Y-212340D01*
X69700Y-212464D01*
X69558Y-212558D01*
X69429Y-212751D01*
X69271Y-212919D01*
X64271Y-220919D01*
X64211Y-221078D01*
X64116Y-221220D01*
X64071Y-221447D01*
X63989Y-221663D01*
X63994Y-221833D01*
X63961Y-222000D01*
Y-287000D01*
X64116Y-287780D01*
X64558Y-288442D01*
X65220Y-288884D01*
X66000Y-289039D01*
X102848D01*
X103056Y-288998D01*
X103269Y-288995D01*
X103443Y-288921D01*
X103629Y-288884D01*
X103805Y-288766D01*
X104001Y-288682D01*
X104133Y-288547D01*
X104290Y-288442D01*
X104408Y-288265D01*
X104557Y-288113D01*
X105208Y-287113D01*
X105279Y-286938D01*
X105384Y-286780D01*
X105425Y-286572D01*
X105504Y-286375D01*
X105502Y-286186D01*
X105539Y-286000D01*
X105539Y-285730D01*
X105539Y-285730D01*
X105539Y-285730D01*
Y-272039D01*
X130461D01*
Y-285730D01*
X130461Y-285730D01*
X130461Y-285730D01*
X130461Y-286000D01*
X130498Y-286186D01*
X130496Y-286375D01*
X130575Y-286572D01*
X130616Y-286780D01*
X130721Y-286938D01*
X130792Y-287113D01*
X131443Y-288113D01*
X131592Y-288265D01*
X131710Y-288442D01*
X131867Y-288547D01*
X132000Y-288682D01*
X132195Y-288766D01*
X132371Y-288884D01*
X132557Y-288921D01*
X132731Y-288995D01*
X132943Y-288998D01*
X133152Y-289039D01*
X176000D01*
X176000Y-289039D01*
X176780Y-288884D01*
X177442Y-288442D01*
X177442Y-288442D01*
X191442Y-274442D01*
X191884Y-273780D01*
X192039Y-273000D01*
Y-146000D01*
X191884Y-145220D01*
X191442Y-144558D01*
X190780Y-144116D01*
X190000Y-143961D01*
D02*
G37*
G36*
X27500Y-267931D02*
X25412Y-268206D01*
X23465Y-269012D01*
X21794Y-270294D01*
X20512Y-271966D01*
X19706Y-273912D01*
X19431Y-276000D01*
Y-288000D01*
X19706Y-290088D01*
X20512Y-292034D01*
X21794Y-293706D01*
X23465Y-294988D01*
X25412Y-295794D01*
X27500Y-296069D01*
X29588Y-295794D01*
X31535Y-294988D01*
X33206Y-293706D01*
X34488Y-292034D01*
X35294Y-290088D01*
X35569Y-288000D01*
Y-276000D01*
X35294Y-273912D01*
X34488Y-271966D01*
X33206Y-270294D01*
X31535Y-269012D01*
X29588Y-268206D01*
X27500Y-267931D01*
D02*
G37*
G36*
X-107500D02*
X-109588Y-268206D01*
X-111535Y-269012D01*
X-113206Y-270294D01*
X-114488Y-271966D01*
X-115294Y-273912D01*
X-115569Y-276000D01*
Y-288000D01*
X-115294Y-290088D01*
X-114488Y-292034D01*
X-113206Y-293706D01*
X-111535Y-294988D01*
X-109588Y-295794D01*
X-107500Y-296069D01*
X-105412Y-295794D01*
X-103465Y-294988D01*
X-101794Y-293706D01*
X-100512Y-292034D01*
X-99706Y-290088D01*
X-99431Y-288000D01*
Y-276000D01*
X-99706Y-273912D01*
X-100512Y-271966D01*
X-101794Y-270294D01*
X-103465Y-269012D01*
X-105412Y-268206D01*
X-107500Y-267931D01*
D02*
G37*
%LPD*%
G36*
X-129250Y122000D02*
X-299750D01*
Y146500D01*
X-129250D01*
Y122000D01*
D02*
G37*
G36*
X-292515Y220963D02*
X-292358Y220858D01*
X-234750Y163250D01*
X-129951D01*
X-129765Y163213D01*
X-129608Y163108D01*
X-129392Y162892D01*
X-129287Y162735D01*
X-129250Y162549D01*
Y148740D01*
X-129290Y148539D01*
X-299750D01*
X-299947Y148500D01*
X-302500D01*
X-318000Y133000D01*
Y117197D01*
X-318039Y117000D01*
Y93039D01*
X-337000D01*
X-337000Y93039D01*
X-337197Y93000D01*
X-339000D01*
X-343358Y97358D01*
X-343463Y97515D01*
X-343500Y97701D01*
Y220799D01*
X-343467Y220967D01*
X-343299Y221000D01*
X-292701D01*
X-292515Y220963D01*
D02*
G37*
G36*
X-57280Y28116D02*
X-57250Y28110D01*
Y22750D01*
Y-1961D01*
X-71961D01*
Y11000D01*
X-72116Y11780D01*
X-72558Y12442D01*
X-72558Y12442D01*
X-73000Y12884D01*
Y23250D01*
X-71333Y25500D01*
X-68500D01*
Y28461D01*
X-57796D01*
X-57280Y28116D01*
D02*
G37*
G36*
X-98500Y30500D02*
X-110500D01*
Y22500D01*
X-97000D01*
Y15000D01*
X-78000D01*
X-74000Y11000D01*
Y-4000D01*
X-38000D01*
X-27000Y-15000D01*
Y-66500D01*
X-138500D01*
X-158000Y-47000D01*
Y8000D01*
X-119000D01*
X-113000Y14000D01*
Y37000D01*
X-98500D01*
Y30500D01*
D02*
G37*
G36*
X-246063Y116995D02*
X-245858Y116858D01*
X-188142Y59142D01*
X-188037Y58985D01*
X-188000Y58799D01*
Y46250D01*
Y33000D01*
X-175008D01*
X-174883Y32875D01*
X-174858Y32858D01*
X-173142Y31142D01*
X-173037Y30985D01*
X-173000Y30799D01*
Y-51000D01*
X-166561Y-58455D01*
X-154610Y-72294D01*
X-154610Y-72294D01*
X-154000Y-73000D01*
X-101201D01*
X-101033Y-73033D01*
X-101000Y-73201D01*
Y-127799D01*
X-101037Y-127985D01*
X-101142Y-128142D01*
X-108000Y-135000D01*
X-140000D01*
Y-149930D01*
X-140142Y-150142D01*
X-145858Y-155858D01*
X-146015Y-155963D01*
X-146201Y-156000D01*
X-186000D01*
X-190500Y-160500D01*
X-194403Y-164403D01*
X-194403Y-164403D01*
X-195000Y-165000D01*
Y-166160D01*
X-195012Y-166250D01*
X-195095Y-166285D01*
X-196110Y-166556D01*
X-196254Y-166627D01*
X-197398Y-164646D01*
X-199446Y-162598D01*
X-201954Y-161150D01*
X-204752Y-160400D01*
X-207648D01*
X-210446Y-161150D01*
X-212954Y-162598D01*
X-215002Y-164646D01*
X-215565Y-165621D01*
X-216835D01*
X-217398Y-164646D01*
X-219446Y-162598D01*
X-221954Y-161150D01*
X-224752Y-160400D01*
X-227648D01*
X-230446Y-161150D01*
X-232954Y-162598D01*
X-235002Y-164646D01*
X-236450Y-167154D01*
X-237200Y-169952D01*
Y-172848D01*
X-236450Y-175646D01*
X-235002Y-178154D01*
X-232954Y-180202D01*
X-233145Y-181480D01*
X-233604Y-182000D01*
X-263799D01*
X-264050Y-181950D01*
X-268000Y-178000D01*
Y-82201D01*
X-267967Y-82033D01*
X-267799Y-82000D01*
X-240000D01*
X-220000Y-62000D01*
Y-17000D01*
X-268000D01*
X-284799Y-33799D01*
X-300858Y-49858D01*
X-301015Y-49963D01*
X-301201Y-50000D01*
X-342799D01*
X-342967Y-49967D01*
X-343000Y-49799D01*
Y84799D01*
X-342963Y84985D01*
X-342858Y85142D01*
X-337000Y91000D01*
X-316000D01*
Y117000D01*
X-246068D01*
X-246063Y116995D01*
D02*
G37*
G36*
X91626Y15374D02*
X91790Y14549D01*
X92895Y12895D01*
X94549Y11790D01*
X95374Y11626D01*
X110418Y-3418D01*
X110402Y-3500D01*
Y-9500D01*
X110790Y-11451D01*
X111895Y-13105D01*
X113549Y-14210D01*
X115500Y-14598D01*
X117451Y-14210D01*
X119105Y-13105D01*
X120015Y-13015D01*
X123000Y-16000D01*
Y-22000D01*
X221000D01*
X241000Y-42000D01*
X319000D01*
X391000Y-114000D01*
Y-207000D01*
X244500D01*
Y-84750D01*
X103250D01*
X-66000Y-254000D01*
X-109000D01*
X-119000Y-241000D01*
Y-200000D01*
X-85000Y-166000D01*
X-24000D01*
X86000Y-56000D01*
X86000Y-21000D01*
X35000Y30000D01*
X-56500D01*
Y30500D01*
X-68500D01*
Y37000D01*
X-55000D01*
X-48000Y44000D01*
X63000D01*
X91626Y15374D01*
D02*
G37*
%LPC*%
G36*
X307027Y-73420D02*
X302973D01*
X298997Y-74211D01*
X295252Y-75762D01*
X291881Y-78014D01*
X289014Y-80881D01*
X286762Y-84252D01*
X285211Y-87997D01*
X284420Y-91973D01*
Y-96027D01*
X285211Y-100003D01*
X286762Y-103748D01*
X289014Y-107119D01*
X291881Y-109986D01*
X295252Y-112238D01*
X298997Y-113789D01*
X302973Y-114580D01*
X307027D01*
X311003Y-113789D01*
X314748Y-112238D01*
X318119Y-109986D01*
X320985Y-107119D01*
X323238Y-103748D01*
X324789Y-100003D01*
X325580Y-96027D01*
Y-91973D01*
X324789Y-87997D01*
X323238Y-84252D01*
X320985Y-80881D01*
X318119Y-78014D01*
X314748Y-75762D01*
X311003Y-74211D01*
X307027Y-73420D01*
D02*
G37*
G36*
X371000Y-189431D02*
X359000D01*
X356912Y-189706D01*
X354966Y-190512D01*
X353294Y-191794D01*
X352012Y-193465D01*
X351206Y-195412D01*
X350931Y-197500D01*
X351206Y-199588D01*
X352012Y-201535D01*
X353294Y-203206D01*
X354966Y-204488D01*
X356912Y-205294D01*
X359000Y-205569D01*
X371000D01*
X373088Y-205294D01*
X375034Y-204488D01*
X376706Y-203206D01*
X377988Y-201535D01*
X378794Y-199588D01*
X379069Y-197500D01*
X378794Y-195412D01*
X377988Y-193465D01*
X376706Y-191794D01*
X375034Y-190512D01*
X373088Y-189706D01*
X371000Y-189431D01*
D02*
G37*
%LPD*%
G36*
X310408Y-76172D02*
X313782Y-77569D01*
X316819Y-79598D01*
X319402Y-82181D01*
X321431Y-85218D01*
X322828Y-88592D01*
X323541Y-92174D01*
Y-95826D01*
X322828Y-99408D01*
X321431Y-102782D01*
X319401Y-105819D01*
X316819Y-108402D01*
X313782Y-110431D01*
X310408Y-111828D01*
X306826Y-112541D01*
X303174D01*
X299592Y-111828D01*
X296218Y-110431D01*
X293181Y-108401D01*
X290598Y-105819D01*
X288569Y-102782D01*
X287172Y-99408D01*
X286459Y-95826D01*
Y-92174D01*
X287172Y-88592D01*
X288569Y-85218D01*
X290599Y-82181D01*
X293181Y-79598D01*
X296218Y-77569D01*
X299592Y-76172D01*
X303174Y-75459D01*
X306826D01*
X310408Y-76172D01*
D02*
G37*
G36*
X190000Y-273000D02*
X176000Y-287000D01*
X133152D01*
X132500Y-286000D01*
X132500Y-285730D01*
Y-270000D01*
X103500D01*
Y-285730D01*
X103500Y-286000D01*
X102848Y-287000D01*
X66000D01*
Y-222000D01*
X71000Y-214000D01*
X115000D01*
X122000Y-207000D01*
Y-160000D01*
X136000Y-146000D01*
X190000D01*
Y-273000D01*
D02*
G37*
%LPC*%
G36*
X153000Y-238500D02*
X137000D01*
Y-267500D01*
X153000D01*
Y-238500D01*
D02*
G37*
%LPD*%
G36*
X150961Y-265461D02*
X139039D01*
Y-240539D01*
X150961D01*
Y-265461D01*
D02*
G37*
D10*
X-209600Y191500D02*
D03*
X-227400D02*
D03*
X251100Y-14000D02*
D03*
X268900D02*
D03*
X144900Y177500D02*
D03*
X127100D02*
D03*
X-95100Y-146000D02*
D03*
X-112900D02*
D03*
D11*
X-63500Y26500D02*
D03*
Y34500D02*
D03*
Y42500D02*
D03*
Y50500D02*
D03*
Y58500D02*
D03*
X-103500D02*
D03*
Y50500D02*
D03*
Y42500D02*
D03*
Y34500D02*
D03*
Y26500D02*
D03*
D12*
X-83500Y42500D02*
D03*
D13*
X257250Y-196000D02*
D03*
X227250D02*
D03*
X256000Y-140000D02*
D03*
X226000D02*
D03*
X255500Y-115500D02*
D03*
X225500D02*
D03*
X-236250Y-56250D02*
D03*
X-206250D02*
D03*
X-235750Y-29750D02*
D03*
X-205750D02*
D03*
D14*
X254500Y-91500D02*
D03*
X238500D02*
D03*
X96000Y-27500D02*
D03*
X80000D02*
D03*
X-82250Y7750D02*
D03*
X-66250D02*
D03*
X-280000Y-142250D02*
D03*
X-264000D02*
D03*
D15*
X252000Y-49750D02*
D03*
Y-34250D02*
D03*
X-228500Y170250D02*
D03*
Y154750D02*
D03*
X-135750Y24750D02*
D03*
Y40250D02*
D03*
X-164500Y24750D02*
D03*
Y40250D02*
D03*
X-180000Y24500D02*
D03*
Y40000D02*
D03*
D16*
X106000Y19500D02*
D03*
X96500D02*
D03*
X115500Y-6500D02*
D03*
X106000D02*
D03*
X96500D02*
D03*
D17*
X115500Y19500D02*
D03*
D18*
X94250Y52500D02*
D03*
X109750D02*
D03*
Y68500D02*
D03*
X94250D02*
D03*
X127250Y156500D02*
D03*
X142750D02*
D03*
X-80500Y81250D02*
D03*
X-65000D02*
D03*
X-131000Y-144000D02*
D03*
X-146500D02*
D03*
D19*
X183000Y-43500D02*
D03*
Y50500D02*
D03*
X-132500Y-13000D02*
D03*
Y-107000D02*
D03*
D20*
X184000Y102500D02*
D03*
Y123500D02*
D03*
D21*
X141000Y113000D02*
D03*
D22*
X-161250Y154500D02*
D03*
Y131500D02*
D03*
D23*
Y177500D02*
D03*
D24*
X-93750Y154500D02*
D03*
D25*
X-188500D02*
D03*
Y170500D02*
D03*
X-209500Y154500D02*
D03*
Y170500D02*
D03*
X-187500Y131500D02*
D03*
Y115500D02*
D03*
X-209500Y131500D02*
D03*
Y115500D02*
D03*
X98000Y119500D02*
D03*
Y103500D02*
D03*
X-149750Y24250D02*
D03*
Y40250D02*
D03*
X-121750Y40500D02*
D03*
Y24500D02*
D03*
X-43500Y51250D02*
D03*
Y67250D02*
D03*
D26*
X-42000Y5000D02*
D03*
Y35000D02*
D03*
D27*
X-50500Y-40250D02*
D03*
D28*
X-40000Y-83250D02*
D03*
X-61000D02*
D03*
D29*
X101000Y-198000D02*
D03*
Y-168000D02*
D03*
X144000Y-198000D02*
D03*
Y-168000D02*
D03*
D30*
X252000Y-34250D02*
Y-14900D01*
X251100Y-14000D02*
X252000Y-14900D01*
X127100Y177500D02*
X127250Y177350D01*
X-228500Y190400D02*
X-227400Y191500D01*
X-149750Y24250D02*
X-149500Y24500D01*
X-136000D02*
X-135750Y24750D01*
X-149500Y24500D02*
X-136000D01*
X-163750Y58500D02*
X-103500D01*
X-169500D02*
X-163750D01*
X-164500Y40250D02*
Y57750D01*
X-163750Y58500D01*
X-180000Y48000D02*
X-169500Y58500D01*
X-180000Y40000D02*
Y48000D01*
X-121000Y50500D02*
X-103500D01*
X-133518D02*
X-121000D01*
X-121750Y49750D02*
X-121000Y50500D01*
X-121750Y40500D02*
Y49750D01*
X-135750Y40250D02*
X-135750Y40250D01*
X-135750Y40250D02*
Y48268D01*
X-133518Y50500D01*
X-65000Y81250D02*
X-64250Y80500D01*
X-64155Y58500D02*
X-63500D01*
X-64250Y58595D02*
X-64155Y58500D01*
X-64250Y58595D02*
Y80500D01*
X-63500Y50500D02*
X-63405Y50595D01*
X-44155D01*
X-43500Y51250D01*
D31*
X127250Y156500D02*
Y177350D01*
X63750Y103500D02*
X107000D01*
X-2000Y169250D02*
X63750Y103500D01*
X109750Y68500D02*
X110000Y68250D01*
X134250D01*
X141000Y75000D02*
Y113000D01*
X134250Y68250D02*
X141000Y75000D01*
X109500Y113018D02*
X140982D01*
X109500Y106000D02*
Y113018D01*
X140982D02*
X141000Y113000D01*
X107000Y103500D02*
X109500Y106000D01*
X141000Y113000D02*
X142750Y114750D01*
Y156500D01*
X-2000Y169250D02*
Y234000D01*
X-228500Y170250D02*
Y190400D01*
D32*
X182250Y51250D02*
X183000Y50500D01*
X133000Y51250D02*
X182250D01*
X94250Y52500D02*
Y68500D01*
Y32750D02*
Y52500D01*
X96500Y19500D02*
Y30500D01*
X94250Y32750D02*
X96500Y30500D01*
X115500Y19500D02*
Y33750D01*
X133000Y51250D01*
X183000Y101500D02*
X184000Y102500D01*
X183000Y50500D02*
Y101500D01*
X184000Y102500D02*
Y123500D01*
X-131000Y-144000D02*
X-114900D01*
X-112900Y-146000D01*
D33*
X355000Y-262000D02*
D03*
X-355000Y262000D02*
D03*
Y-262000D02*
D03*
X355000Y262000D02*
D03*
D34*
X-270000Y106300D02*
D03*
Y131700D02*
D03*
D35*
X361000Y160000D02*
D03*
Y199600D02*
D03*
Y66000D02*
D03*
Y26400D02*
D03*
D36*
Y120400D02*
D03*
Y-13200D02*
D03*
D37*
X119000Y238000D02*
D03*
X79400D02*
D03*
X213400Y237000D02*
D03*
X253000D02*
D03*
X258000Y-239000D02*
D03*
X297600D02*
D03*
X-291600Y242000D02*
D03*
X-252000D02*
D03*
X-118000Y239000D02*
D03*
X-157600D02*
D03*
D38*
X158600Y238000D02*
D03*
X292600Y237000D02*
D03*
X218400Y-239000D02*
D03*
X-212400Y242000D02*
D03*
X-78400Y239000D02*
D03*
D39*
X-206200Y-171400D02*
D03*
X-181200Y-171400D02*
D03*
X-226200Y-171400D02*
D03*
D40*
X-251200D02*
D03*
D41*
X-281900Y-198500D02*
D03*
X-150500D02*
D03*
D42*
X-4000Y-222000D02*
D03*
X305000Y-94000D02*
D03*
D43*
X-76000Y-222000D02*
D03*
D44*
X27500Y-282000D02*
D03*
X-107500D02*
D03*
D45*
X145000Y-253000D02*
D03*
X-29000Y259000D02*
D03*
D46*
X118000Y-278000D02*
D03*
Y-228000D02*
D03*
X-2000Y284000D02*
D03*
Y234000D02*
D03*
D47*
X305000Y-166000D02*
D03*
D48*
X365000Y-62500D02*
D03*
Y-197500D02*
D03*
D49*
X-357000Y-89600D02*
D03*
Y-140400D02*
D03*
Y-191200D02*
D03*
Y-165800D02*
D03*
X-357000Y-115000D02*
D03*
X-357000Y-64200D02*
D03*
X-357700Y70800D02*
D03*
X-332300D02*
D03*
X-357700Y20000D02*
D03*
X-332300D02*
D03*
X-357700Y-30800D02*
D03*
Y-5400D02*
D03*
X-332300D02*
D03*
Y45400D02*
D03*
X-357700D02*
D03*
X-357400Y181000D02*
D03*
X-332000D02*
D03*
Y130200D02*
D03*
X-357400D02*
D03*
Y104800D02*
D03*
X-332000Y155600D02*
D03*
X-357400D02*
D03*
X-332000Y206400D02*
D03*
X-357400D02*
D03*
D50*
X-357000Y-216600D02*
D03*
X-332300Y-30800D02*
D03*
X-332000Y104800D02*
D03*
D51*
X210250Y87750D02*
D03*
X236250Y107000D02*
D03*
D52*
X-76292Y-146833D02*
D03*
%TF.MD5,74a89a33089fb17e4600b2ddadfa08a8*%
M02*
