%TF.GenerationSoftware,Altium Limited,Altium Designer,22.5.1 (42)*%
G04 Layer_Physical_Order=4*
G04 Layer_Color=16711680*
%FSLAX44Y44*%
%MOMM*%
%TF.SameCoordinates,01627914-4FCA-44A5-8146-F6A238B5A28C*%
%TF.FilePolarity,Positive*%
%TF.FileFunction,Copper,L4,Bot,Signal*%
%TF.Part,Single*%
G01*
G75*
%TA.AperFunction,SMDPad,CuDef*%
%ADD10R,1.1600X1.4700*%
%ADD14R,0.8000X0.8000*%
%ADD15R,0.8500X0.8500*%
%ADD18R,0.8500X0.8500*%
%ADD26R,1.6000X1.0000*%
%ADD27R,3.6000X5.3500*%
%ADD28R,1.5000X1.8500*%
%TA.AperFunction,Conductor*%
%ADD30C,0.3810*%
%ADD31C,0.8000*%
%TA.AperFunction,ComponentPad*%
%ADD33C,5.0000*%
G04:AMPARAMS|DCode=34|XSize=1.6mm|YSize=1.6mm|CornerRadius=0mm|HoleSize=0mm|Usage=FLASHONLY|Rotation=90.000|XOffset=0mm|YOffset=0mm|HoleType=Round|Shape=Octagon|*
%AMOCTAGOND34*
4,1,8,0.4000,0.8000,-0.4000,0.8000,-0.8000,0.4000,-0.8000,-0.4000,-0.4000,-0.8000,0.4000,-0.8000,0.8000,-0.4000,0.8000,0.4000,0.4000,0.8000,0.0*
%
%ADD34OCTAGOND34*%

%ADD35O,3.5000X2.8000*%
%ADD36R,3.5000X2.8000*%
%ADD37O,2.8000X3.5000*%
%ADD38R,2.8000X3.5000*%
%ADD39C,1.8000*%
%ADD40R,1.8000X1.8000*%
%ADD41O,3.0000X4.5000*%
%ADD42C,3.7160*%
%ADD43R,3.7160X3.7160*%
%ADD44O,1.2000X2.4000*%
%ADD45R,1.2000X2.5000*%
%ADD46R,2.5000X1.2000*%
%ADD47R,3.7160X3.7160*%
%ADD48O,2.4000X1.2000*%
%ADD49C,1.6000*%
%ADD50R,1.6000X1.6000*%
%TA.AperFunction,ViaPad*%
%ADD51C,0.8000*%
%ADD52C,1.2700*%
%TA.AperFunction,SMDPad,CuDef*%
%ADD53R,0.4000X1.0000*%
%ADD54R,3.0000X2.6000*%
%ADD55R,1.2000X2.0000*%
%ADD56R,5.8000X5.8500*%
G04:AMPARAMS|DCode=57|XSize=4.2mm|YSize=4.2mm|CornerRadius=0.21mm|HoleSize=0mm|Usage=FLASHONLY|Rotation=180.000|XOffset=0mm|YOffset=0mm|HoleType=Round|Shape=RoundedRectangle|*
%AMROUNDEDRECTD57*
21,1,4.2000,3.7800,0,0,180.0*
21,1,3.7800,4.2000,0,0,180.0*
1,1,0.4200,-1.8900,1.8900*
1,1,0.4200,1.8900,1.8900*
1,1,0.4200,1.8900,-1.8900*
1,1,0.4200,-1.8900,-1.8900*
%
%ADD57ROUNDEDRECTD57*%
G36*
X355354Y297055D02*
X362060Y295258D01*
X368474Y292601D01*
X374487Y289130D01*
X379994Y284904D01*
X384904Y279994D01*
X389130Y274487D01*
X392601Y268474D01*
X395258Y262060D01*
X397055Y255354D01*
X397961Y248471D01*
Y245000D01*
X397961Y-245000D01*
X397961Y-248471D01*
X397055Y-255354D01*
X395258Y-262060D01*
X392601Y-268474D01*
X389130Y-274487D01*
X384904Y-279994D01*
X379994Y-284904D01*
X374487Y-289130D01*
X368474Y-292601D01*
X362060Y-295258D01*
X355354Y-297055D01*
X348471Y-297961D01*
X-348471D01*
X-355354Y-297055D01*
X-362060Y-295258D01*
X-368474Y-292601D01*
X-374487Y-289130D01*
X-379994Y-284904D01*
X-384904Y-279994D01*
X-389130Y-274487D01*
X-392601Y-268474D01*
X-395258Y-262060D01*
X-397055Y-255354D01*
X-397961Y-248471D01*
X-397961Y-245000D01*
Y245000D01*
X-397961Y248471D01*
X-397055Y255354D01*
X-395258Y262060D01*
X-392601Y268474D01*
X-389130Y274487D01*
X-384904Y279994D01*
X-379994Y284904D01*
X-374487Y289130D01*
X-368474Y292601D01*
X-362060Y295258D01*
X-355354Y297055D01*
X-348471Y297961D01*
X348471D01*
X355354Y297055D01*
D02*
G37*
%LPC*%
G36*
X12500Y292000D02*
X-16500D01*
Y276000D01*
X12500D01*
Y292000D01*
D02*
G37*
G36*
X-21000Y273500D02*
X-37000D01*
Y246543D01*
X-38173Y246057D01*
X-63558Y271442D01*
X-64220Y271884D01*
X-65000Y272039D01*
X-270000D01*
X-270780Y271884D01*
X-271442Y271442D01*
X-271884Y270780D01*
X-272039Y270000D01*
Y141700D01*
X-275000D01*
X-280000Y136700D01*
Y126700D01*
X-279013Y125712D01*
X-279499Y124539D01*
X-298711D01*
Y193250D01*
X-298866Y194030D01*
X-299308Y194692D01*
X-299308Y194692D01*
X-330058Y225442D01*
X-330720Y225884D01*
X-331500Y226039D01*
X-366250D01*
X-366250Y226039D01*
X-367030Y225884D01*
X-367692Y225442D01*
X-375942Y217192D01*
X-376384Y216530D01*
X-376539Y215750D01*
Y-70250D01*
X-376384Y-71030D01*
X-375942Y-71692D01*
X-375280Y-72134D01*
X-374500Y-72289D01*
X-366324D01*
X-366063Y-72237D01*
X-365796Y-72220D01*
X-365676Y-72160D01*
X-365544Y-72134D01*
X-365322Y-71986D01*
X-365083Y-71868D01*
X-364449Y-71711D01*
X-363826Y-71739D01*
X-363510Y-71832D01*
X-363140Y-72202D01*
X-360860Y-73519D01*
X-358317Y-74200D01*
X-355684D01*
X-353140Y-73519D01*
X-350860Y-72202D01*
X-350490Y-71832D01*
X-350174Y-71739D01*
X-349552Y-71711D01*
X-348917Y-71868D01*
X-348678Y-71986D01*
X-348456Y-72134D01*
X-348325Y-72160D01*
X-348204Y-72220D01*
X-347938Y-72237D01*
X-347676Y-72289D01*
X-300118D01*
Y-130000D01*
X-300000Y-130591D01*
Y-136000D01*
X-294591D01*
X-294000Y-136117D01*
X-293409Y-136000D01*
X-288000D01*
Y-130591D01*
X-287882Y-130000D01*
Y-72289D01*
X-245784D01*
X-245097Y-73559D01*
X-252771Y-86988D01*
X-252812Y-87112D01*
X-252884Y-87220D01*
X-252937Y-87486D01*
X-253023Y-87743D01*
X-253014Y-87872D01*
X-253039Y-88000D01*
Y-140000D01*
X-252884Y-140780D01*
X-252442Y-141442D01*
X-251780Y-141884D01*
X-251000Y-142039D01*
X-223000D01*
X-222220Y-141884D01*
X-221558Y-141442D01*
X-221116Y-140780D01*
X-220961Y-140000D01*
Y-136000D01*
X-215591D01*
X-215000Y-136117D01*
X-203000D01*
Y-137000D01*
X-199652D01*
X-197517Y-139135D01*
Y-146106D01*
X-197051Y-148447D01*
X-196661Y-149030D01*
X-196524Y-149719D01*
X-195198Y-151703D01*
X-187118Y-159784D01*
Y-162115D01*
X-187954Y-162598D01*
X-190002Y-164646D01*
X-191450Y-167154D01*
X-192200Y-169952D01*
Y-172848D01*
X-191450Y-175646D01*
X-190002Y-178154D01*
X-187954Y-180202D01*
X-185446Y-181650D01*
X-182648Y-182400D01*
X-179752D01*
X-176954Y-181650D01*
X-174446Y-180202D01*
X-172398Y-178154D01*
X-170950Y-175646D01*
X-170200Y-172848D01*
Y-169952D01*
X-170950Y-167154D01*
X-172398Y-164646D01*
X-174446Y-162598D01*
X-174883Y-162346D01*
Y-157250D01*
X-175348Y-154909D01*
X-176674Y-152924D01*
X-184827Y-144772D01*
X-184848Y-144664D01*
X-185282Y-144015D01*
Y-136601D01*
X-185747Y-134260D01*
X-187073Y-132275D01*
X-191000Y-128349D01*
Y-125000D01*
X-194683D01*
X-195659Y-124348D01*
X-198000Y-123882D01*
X-215000D01*
X-215591Y-124000D01*
X-220961D01*
Y-99845D01*
X-210155Y-89039D01*
X-157845D01*
X-146039Y-100845D01*
Y-140000D01*
X-145884Y-140780D01*
X-145442Y-141442D01*
X-144780Y-141884D01*
X-144000Y-142039D01*
X-124000D01*
X-123220Y-141884D01*
X-122558Y-141442D01*
X-122116Y-140780D01*
X-121961Y-140000D01*
Y-137000D01*
X-117591D01*
X-117000Y-137118D01*
X-116409Y-137000D01*
X-111000D01*
Y-136617D01*
X-104118D01*
Y-139794D01*
X-103652Y-142135D01*
X-102326Y-144119D01*
X-97640Y-148806D01*
X-95655Y-150132D01*
X-93314Y-150597D01*
X-83760D01*
X-82973Y-151960D01*
X-81419Y-153515D01*
X-80056Y-154302D01*
Y-167882D01*
X-82300D01*
Y-164650D01*
X-97900D01*
Y-183350D01*
X-82300D01*
Y-180117D01*
X-76170D01*
X-73829Y-179652D01*
X-71845Y-178326D01*
X-69613Y-176094D01*
X-68287Y-174109D01*
X-67821Y-171768D01*
Y-149186D01*
X-68016Y-148208D01*
X-67942Y-147932D01*
Y-145734D01*
X-68511Y-143610D01*
X-69610Y-141706D01*
X-71165Y-140152D01*
X-73069Y-139052D01*
X-75192Y-138483D01*
X-77391D01*
X-77667Y-138557D01*
X-78645Y-138362D01*
X-90780D01*
X-91882Y-137260D01*
Y-130000D01*
X-92000Y-129409D01*
Y-124000D01*
X-97409D01*
X-98000Y-123882D01*
X-98591Y-124000D01*
X-104000D01*
Y-124382D01*
X-116500D01*
X-118841Y-124848D01*
X-119068Y-125000D01*
X-121961D01*
Y-100845D01*
X-110155Y-89039D01*
X-52845D01*
X-46039Y-95845D01*
Y-139000D01*
X-45884Y-139780D01*
X-45442Y-140442D01*
X-44780Y-140884D01*
X-44000Y-141039D01*
X-25000D01*
X-25000Y-141039D01*
X-24220Y-140884D01*
X-23558Y-140442D01*
X-23558Y-140442D01*
X-22558Y-139442D01*
X-22116Y-138780D01*
X-21961Y-138000D01*
Y-136000D01*
X-18591D01*
X-18000Y-136117D01*
X-118D01*
Y-173966D01*
X-8326Y-182174D01*
X-9652Y-184159D01*
X-10117Y-186500D01*
Y-202258D01*
X-13748Y-203762D01*
X-17119Y-206014D01*
X-19986Y-208881D01*
X-22238Y-212252D01*
X-23789Y-215997D01*
X-24580Y-219973D01*
Y-224027D01*
X-23789Y-228003D01*
X-22238Y-231748D01*
X-19986Y-235119D01*
X-17119Y-237985D01*
X-13748Y-240238D01*
X-10003Y-241789D01*
X-6027Y-242580D01*
X-1973D01*
X2003Y-241789D01*
X5748Y-240238D01*
X9119Y-237985D01*
X11985Y-235119D01*
X14238Y-231748D01*
X15789Y-228003D01*
X16580Y-224027D01*
Y-219973D01*
X15789Y-215997D01*
X14238Y-212252D01*
X11985Y-208881D01*
X9119Y-206014D01*
X5748Y-203762D01*
X2118Y-202258D01*
Y-189034D01*
X10326Y-180826D01*
X11652Y-178841D01*
X12118Y-176500D01*
Y-128000D01*
X12000Y-127409D01*
Y-122000D01*
X6591D01*
X6000Y-121882D01*
X5409Y-122000D01*
X-0D01*
Y-123882D01*
X-18000D01*
X-18591Y-124000D01*
X-21961D01*
Y-95845D01*
X-15155Y-89039D01*
X52155D01*
X59961Y-96845D01*
Y-139000D01*
X60116Y-139780D01*
X60558Y-140442D01*
X61220Y-140884D01*
X62000Y-141039D01*
X80000D01*
X80780Y-140884D01*
X81442Y-140442D01*
X81884Y-139780D01*
X82039Y-139000D01*
Y-134000D01*
X86409D01*
X87000Y-134117D01*
X102000D01*
Y-135000D01*
X102133D01*
Y-152750D01*
X102598Y-155091D01*
X103924Y-157076D01*
X138883Y-192034D01*
Y-238500D01*
X137000D01*
Y-267500D01*
X153000D01*
Y-238500D01*
X151117D01*
Y-189500D01*
X150652Y-187159D01*
X149326Y-185174D01*
X114368Y-150216D01*
Y-129250D01*
X114000Y-127402D01*
Y-123000D01*
X110317D01*
X109341Y-122348D01*
X107000Y-121882D01*
X87000D01*
X86409Y-122000D01*
X82039D01*
Y-96845D01*
X91845Y-87039D01*
X150155D01*
X158961Y-95845D01*
Y-139000D01*
X159116Y-139780D01*
X159558Y-140442D01*
X160220Y-140884D01*
X161000Y-141039D01*
X179711D01*
Y-219000D01*
X179866Y-219780D01*
X180308Y-220442D01*
X180970Y-220884D01*
X181750Y-221039D01*
X202400D01*
Y-258500D01*
X234400D01*
Y-221039D01*
X275211D01*
Y-258500D01*
X275366Y-259280D01*
X275808Y-259942D01*
X283558Y-267692D01*
X284220Y-268134D01*
X285000Y-268289D01*
X285780Y-268134D01*
X285922Y-268039D01*
X310000D01*
X310780Y-267884D01*
X311442Y-267442D01*
X320192Y-258692D01*
X320634Y-258030D01*
X320789Y-257250D01*
Y-233750D01*
Y-230250D01*
X320634Y-229470D01*
X320192Y-228808D01*
X283596Y-192213D01*
X284082Y-191039D01*
X334000D01*
X334780Y-190884D01*
X335442Y-190442D01*
X335442Y-190442D01*
X340442Y-185442D01*
X340884Y-184780D01*
X341039Y-184000D01*
Y-140000D01*
X340884Y-139220D01*
X340442Y-138558D01*
X339780Y-138116D01*
X339000Y-137961D01*
X316845D01*
X306846Y-127963D01*
X307332Y-126789D01*
X312750D01*
X313530Y-126634D01*
X314192Y-126192D01*
X325442Y-114942D01*
X325884Y-114280D01*
X326039Y-113500D01*
Y1500D01*
X325884Y2280D01*
X325442Y2942D01*
X324780Y3384D01*
X324000Y3539D01*
X323079D01*
X322693Y4804D01*
X322693Y4809D01*
X325942Y8058D01*
X326384Y8720D01*
X326539Y9500D01*
Y192042D01*
X326539Y192044D01*
X326539Y192046D01*
X326461Y192434D01*
X326384Y192823D01*
X326383Y192824D01*
X326383Y192826D01*
X326165Y193151D01*
X325942Y193484D01*
X325940Y193485D01*
X325939Y193487D01*
X324980Y194443D01*
X324977Y194445D01*
X324975Y194448D01*
X324645Y194666D01*
X324317Y194884D01*
X324314Y194885D01*
X324311Y194887D01*
X323926Y194961D01*
X323537Y195038D01*
X323533Y195037D01*
X323530Y195038D01*
X273490Y194789D01*
X273106Y194711D01*
X272720Y194634D01*
X272715Y194631D01*
X272710Y194630D01*
X272384Y194410D01*
X272058Y194192D01*
X272055Y194188D01*
X272051Y194185D01*
X271833Y193856D01*
X271616Y193530D01*
X271615Y193525D01*
X271612Y193521D01*
X271537Y193135D01*
X271461Y192750D01*
Y133595D01*
X243423Y105557D01*
X243371Y105568D01*
X242250Y106180D01*
Y108194D01*
X241337Y110399D01*
X239649Y112086D01*
X237444Y113000D01*
X235056D01*
X234095Y112602D01*
X233039Y113307D01*
Y188000D01*
X232884Y188780D01*
X232442Y189442D01*
X231780Y189884D01*
X231000Y190039D01*
X180000D01*
X179220Y189884D01*
X178558Y189442D01*
X178116Y188780D01*
X177961Y188000D01*
Y163845D01*
X173155Y159039D01*
X86700D01*
Y162768D01*
X92750D01*
Y160500D01*
X105250D01*
Y173000D01*
X92750D01*
Y170732D01*
X86700D01*
Y176350D01*
X74822D01*
X74144Y177620D01*
X74204Y177711D01*
X102655D01*
X118308Y162058D01*
X118970Y161616D01*
X119750Y161461D01*
X162000D01*
X162000Y161461D01*
X162780Y161616D01*
X163442Y162058D01*
X170942Y169558D01*
X171384Y170220D01*
X171539Y171000D01*
Y196500D01*
X171384Y197280D01*
X170942Y197942D01*
X170280Y198384D01*
X169500Y198539D01*
X143000D01*
X143000Y198539D01*
X142220Y198384D01*
X142084Y198293D01*
X105039Y198526D01*
Y233714D01*
X105019Y233813D01*
X105029Y233914D01*
X104962Y234600D01*
Y241400D01*
X105029Y242086D01*
X105019Y242187D01*
X105039Y242286D01*
Y250500D01*
X104884Y251280D01*
X104442Y251942D01*
X96692Y259692D01*
X96030Y260134D01*
X95250Y260289D01*
X52000D01*
X51220Y260134D01*
X50558Y259692D01*
X50116Y259030D01*
X49961Y258250D01*
Y160750D01*
X49961Y160750D01*
X50048Y160309D01*
X49783Y159841D01*
X48536Y159589D01*
X48203Y159681D01*
X-17091Y224975D01*
X-16320Y226000D01*
X-15304Y226000D01*
X12500D01*
Y242000D01*
X-16500D01*
Y227256D01*
X-16500Y226180D01*
X-17525Y225409D01*
X-35443Y243327D01*
X-34957Y244500D01*
X-21000D01*
Y273500D01*
D02*
G37*
G36*
X357125Y289000D02*
X352875D01*
X348677Y288335D01*
X344636Y287022D01*
X340849Y285093D01*
X337411Y282595D01*
X334406Y279589D01*
X331908Y276151D01*
X329978Y272364D01*
X328665Y268323D01*
X328000Y264125D01*
Y259875D01*
X328665Y255678D01*
X329978Y251636D01*
X331908Y247849D01*
X334406Y244411D01*
X337411Y241406D01*
X340849Y238908D01*
X344636Y236978D01*
X348677Y235665D01*
X352875Y235000D01*
X357125D01*
X361323Y235665D01*
X365364Y236978D01*
X369151Y238908D01*
X372589Y241406D01*
X375594Y244411D01*
X378092Y247849D01*
X380022Y251636D01*
X381335Y255678D01*
X382000Y259875D01*
Y264125D01*
X381335Y268323D01*
X380022Y272364D01*
X378092Y276151D01*
X375594Y279589D01*
X372589Y282595D01*
X369151Y285093D01*
X365364Y287022D01*
X361323Y288335D01*
X357125Y289000D01*
D02*
G37*
G36*
X-352875D02*
X-357125D01*
X-361323Y288335D01*
X-365364Y287022D01*
X-369151Y285093D01*
X-372589Y282595D01*
X-375594Y279589D01*
X-378092Y276151D01*
X-380022Y272364D01*
X-381335Y268323D01*
X-382000Y264125D01*
Y259875D01*
X-381335Y255678D01*
X-380022Y251636D01*
X-378092Y247849D01*
X-375594Y244411D01*
X-372589Y241406D01*
X-369151Y238908D01*
X-365364Y236978D01*
X-361323Y235665D01*
X-357125Y235000D01*
X-352875D01*
X-348677Y235665D01*
X-344636Y236978D01*
X-340849Y238908D01*
X-337411Y241406D01*
X-334406Y244411D01*
X-331908Y247849D01*
X-329978Y251636D01*
X-328665Y255678D01*
X-328000Y259875D01*
Y264125D01*
X-328665Y268323D01*
X-329978Y272364D01*
X-331908Y276151D01*
X-334406Y279589D01*
X-337411Y282595D01*
X-340849Y285093D01*
X-344636Y287022D01*
X-348677Y288335D01*
X-352875Y289000D01*
D02*
G37*
G36*
X-291600Y261577D02*
X-294737Y261269D01*
X-297753Y260354D01*
X-300532Y258868D01*
X-302969Y256868D01*
X-304968Y254432D01*
X-306454Y251653D01*
X-307369Y248636D01*
X-307677Y245500D01*
Y238500D01*
X-307369Y235364D01*
X-306454Y232347D01*
X-304968Y229568D01*
X-302969Y227132D01*
X-300532Y225132D01*
X-297753Y223646D01*
X-294737Y222731D01*
X-291600Y222423D01*
X-288463Y222731D01*
X-285448Y223646D01*
X-282668Y225132D01*
X-280232Y227132D01*
X-278232Y229568D01*
X-276746Y232347D01*
X-275832Y235364D01*
X-275523Y238500D01*
Y245500D01*
X-275832Y248636D01*
X-276746Y251653D01*
X-278232Y254432D01*
X-280232Y256868D01*
X-282668Y258868D01*
X-285448Y260354D01*
X-288463Y261269D01*
X-291600Y261577D01*
D02*
G37*
G36*
X174600Y257500D02*
X142600D01*
Y218500D01*
X174600D01*
Y257500D01*
D02*
G37*
G36*
X308600Y256500D02*
X276600D01*
Y217500D01*
X308600D01*
Y256500D01*
D02*
G37*
G36*
X213400Y256577D02*
X210263Y256269D01*
X207247Y255354D01*
X204468Y253868D01*
X202031Y251868D01*
X200032Y249432D01*
X198546Y246653D01*
X197631Y243636D01*
X197323Y240500D01*
Y233500D01*
X197631Y230364D01*
X198546Y227347D01*
X200032Y224568D01*
X202031Y222132D01*
X204468Y220132D01*
X207247Y218646D01*
X210263Y217731D01*
X213400Y217423D01*
X216537Y217731D01*
X219552Y218646D01*
X222332Y220132D01*
X224768Y222132D01*
X226768Y224568D01*
X228254Y227347D01*
X229168Y230364D01*
X229477Y233500D01*
Y240500D01*
X229168Y243636D01*
X228254Y246653D01*
X226768Y249432D01*
X224768Y251868D01*
X222332Y253868D01*
X219552Y255354D01*
X216537Y256269D01*
X213400Y256577D01*
D02*
G37*
G36*
X364500Y215677D02*
X357500D01*
X354364Y215368D01*
X351347Y214454D01*
X348568Y212968D01*
X346132Y210968D01*
X344132Y208532D01*
X342646Y205753D01*
X341731Y202737D01*
X341423Y199600D01*
X341731Y196464D01*
X342646Y193447D01*
X344132Y190668D01*
X346132Y188232D01*
X348568Y186232D01*
X351347Y184746D01*
X354364Y183832D01*
X357500Y183523D01*
X364500D01*
X367636Y183832D01*
X370653Y184746D01*
X373432Y186232D01*
X375868Y188232D01*
X377868Y190668D01*
X379354Y193447D01*
X380269Y196464D01*
X380577Y199600D01*
X380269Y202737D01*
X379354Y205753D01*
X377868Y208532D01*
X375868Y210968D01*
X373432Y212968D01*
X370653Y214454D01*
X367636Y215368D01*
X364500Y215677D01*
D02*
G37*
G36*
X380500Y136400D02*
X341500D01*
Y104400D01*
X380500D01*
Y136400D01*
D02*
G37*
G36*
X364500Y82077D02*
X357500D01*
X354364Y81769D01*
X351347Y80854D01*
X348568Y79368D01*
X346132Y77368D01*
X344132Y74932D01*
X342646Y72153D01*
X341731Y69137D01*
X341423Y66000D01*
X341731Y62863D01*
X342646Y59847D01*
X344132Y57068D01*
X346132Y54632D01*
X348568Y52632D01*
X351347Y51146D01*
X354364Y50231D01*
X357500Y49923D01*
X364500D01*
X367636Y50231D01*
X370653Y51146D01*
X373432Y52632D01*
X375868Y54632D01*
X377868Y57068D01*
X379354Y59847D01*
X380269Y62863D01*
X380577Y66000D01*
X380269Y69137D01*
X379354Y72153D01*
X377868Y74932D01*
X375868Y77368D01*
X373432Y79368D01*
X370653Y80854D01*
X367636Y81769D01*
X364500Y82077D01*
D02*
G37*
G36*
X380500Y2800D02*
X341500D01*
Y-29200D01*
X380500D01*
Y2800D01*
D02*
G37*
G36*
X371000Y-54431D02*
X359000D01*
X356912Y-54706D01*
X354966Y-55512D01*
X353294Y-56794D01*
X352012Y-58465D01*
X351206Y-60412D01*
X350931Y-62500D01*
X351206Y-64588D01*
X352012Y-66535D01*
X353294Y-68206D01*
X354966Y-69488D01*
X356912Y-70294D01*
X359000Y-70569D01*
X371000D01*
X373088Y-70294D01*
X375034Y-69488D01*
X376706Y-68206D01*
X377988Y-66535D01*
X378794Y-64588D01*
X379069Y-62500D01*
X378794Y-60412D01*
X377988Y-58465D01*
X376706Y-56794D01*
X375034Y-55512D01*
X373088Y-54706D01*
X371000Y-54431D01*
D02*
G37*
G36*
X-355684Y-79600D02*
X-358317D01*
X-360860Y-80281D01*
X-363140Y-81598D01*
X-365002Y-83460D01*
X-366319Y-85740D01*
X-367000Y-88284D01*
Y-90917D01*
X-366319Y-93460D01*
X-365002Y-95740D01*
X-363140Y-97602D01*
X-360860Y-98919D01*
X-358317Y-99600D01*
X-355684D01*
X-353140Y-98919D01*
X-350860Y-97602D01*
X-348998Y-95740D01*
X-347682Y-93460D01*
X-347000Y-90917D01*
Y-88284D01*
X-347682Y-85740D01*
X-348998Y-83460D01*
X-350860Y-81598D01*
X-353140Y-80281D01*
X-355684Y-79600D01*
D02*
G37*
G36*
X-355684Y-105000D02*
X-358316D01*
X-360860Y-105681D01*
X-363140Y-106998D01*
X-365002Y-108860D01*
X-366319Y-111140D01*
X-367000Y-113684D01*
Y-116316D01*
X-366319Y-118860D01*
X-365002Y-121140D01*
X-363140Y-123002D01*
X-360860Y-124319D01*
X-358316Y-125000D01*
X-355684D01*
X-353140Y-124319D01*
X-350860Y-123002D01*
X-348998Y-121140D01*
X-347682Y-118860D01*
X-347000Y-116316D01*
Y-113684D01*
X-347682Y-111140D01*
X-348998Y-108860D01*
X-350860Y-106998D01*
X-353140Y-105681D01*
X-355684Y-105000D01*
D02*
G37*
G36*
X-355684Y-130400D02*
X-358317D01*
X-360860Y-131081D01*
X-363140Y-132398D01*
X-365002Y-134260D01*
X-366319Y-136540D01*
X-367000Y-139083D01*
Y-141716D01*
X-366319Y-144260D01*
X-365002Y-146540D01*
X-363140Y-148402D01*
X-360860Y-149719D01*
X-358317Y-150400D01*
X-355684D01*
X-353140Y-149719D01*
X-350860Y-148402D01*
X-348998Y-146540D01*
X-347682Y-144260D01*
X-347000Y-141716D01*
Y-139083D01*
X-347682Y-136540D01*
X-348998Y-134260D01*
X-350860Y-132398D01*
X-353140Y-131081D01*
X-355684Y-130400D01*
D02*
G37*
G36*
X-204752Y-160400D02*
X-207648D01*
X-210446Y-161150D01*
X-212954Y-162598D01*
X-215002Y-164646D01*
X-215565Y-165621D01*
X-216835D01*
X-217398Y-164646D01*
X-219446Y-162598D01*
X-221954Y-161150D01*
X-224752Y-160400D01*
X-227648D01*
X-230446Y-161150D01*
X-232954Y-162598D01*
X-235002Y-164646D01*
X-236450Y-167154D01*
X-237200Y-169952D01*
Y-172848D01*
X-236450Y-175646D01*
X-235002Y-178154D01*
X-232954Y-180202D01*
X-230446Y-181650D01*
X-227648Y-182400D01*
X-224752D01*
X-221954Y-181650D01*
X-219446Y-180202D01*
X-217398Y-178154D01*
X-216835Y-177179D01*
X-215565D01*
X-215002Y-178154D01*
X-212954Y-180202D01*
X-210446Y-181650D01*
X-207648Y-182400D01*
X-204752D01*
X-201954Y-181650D01*
X-199446Y-180202D01*
X-197398Y-178154D01*
X-195950Y-175646D01*
X-195200Y-172848D01*
Y-169952D01*
X-195950Y-167154D01*
X-197398Y-164646D01*
X-199446Y-162598D01*
X-201954Y-161150D01*
X-204752Y-160400D01*
D02*
G37*
G36*
X-355684Y-155800D02*
X-358317D01*
X-360860Y-156482D01*
X-363140Y-157798D01*
X-365002Y-159660D01*
X-366319Y-161940D01*
X-367000Y-164484D01*
Y-167117D01*
X-366319Y-169660D01*
X-365002Y-171940D01*
X-363140Y-173802D01*
X-360860Y-175119D01*
X-358317Y-175800D01*
X-355684D01*
X-353140Y-175119D01*
X-350860Y-173802D01*
X-348998Y-171940D01*
X-347682Y-169660D01*
X-347000Y-167117D01*
Y-164484D01*
X-347682Y-161940D01*
X-348998Y-159660D01*
X-350860Y-157798D01*
X-353140Y-156482D01*
X-355684Y-155800D01*
D02*
G37*
G36*
X-240200Y-160400D02*
X-262200D01*
Y-182400D01*
X-240200D01*
Y-160400D01*
D02*
G37*
G36*
X-101500Y-147750D02*
X-114000D01*
Y-160250D01*
X-111732D01*
Y-164650D01*
X-115700D01*
Y-183350D01*
X-100100D01*
Y-164650D01*
X-103769D01*
Y-160250D01*
X-101500D01*
Y-147750D01*
D02*
G37*
G36*
X-355684Y-181200D02*
X-358317D01*
X-360860Y-181882D01*
X-363140Y-183198D01*
X-365002Y-185060D01*
X-366319Y-187340D01*
X-367000Y-189883D01*
Y-192516D01*
X-366319Y-195060D01*
X-365002Y-197340D01*
X-363140Y-199202D01*
X-360860Y-200518D01*
X-358317Y-201200D01*
X-355684D01*
X-353140Y-200518D01*
X-350860Y-199202D01*
X-348998Y-197340D01*
X-347682Y-195060D01*
X-347000Y-192516D01*
Y-189883D01*
X-347682Y-187340D01*
X-348998Y-185060D01*
X-350860Y-183198D01*
X-353140Y-181882D01*
X-355684Y-181200D01*
D02*
G37*
G36*
X371000Y-189431D02*
X359000D01*
X356912Y-189706D01*
X354966Y-190512D01*
X353294Y-191794D01*
X352012Y-193465D01*
X351206Y-195412D01*
X350931Y-197500D01*
X351206Y-199588D01*
X352012Y-201535D01*
X353294Y-203206D01*
X354966Y-204488D01*
X356912Y-205294D01*
X359000Y-205569D01*
X371000D01*
X373088Y-205294D01*
X375034Y-204488D01*
X376706Y-203206D01*
X377988Y-201535D01*
X378794Y-199588D01*
X379069Y-197500D01*
X378794Y-195412D01*
X377988Y-193465D01*
X376706Y-191794D01*
X375034Y-190512D01*
X373088Y-189706D01*
X371000Y-189431D01*
D02*
G37*
G36*
X-150500Y-173918D02*
X-153833Y-174246D01*
X-157037Y-175218D01*
X-159990Y-176797D01*
X-162579Y-178921D01*
X-164703Y-181510D01*
X-166282Y-184463D01*
X-167254Y-187667D01*
X-167582Y-191000D01*
Y-206000D01*
X-167254Y-209333D01*
X-166282Y-212537D01*
X-164703Y-215490D01*
X-162579Y-218079D01*
X-159990Y-220203D01*
X-157037Y-221782D01*
X-153833Y-222754D01*
X-150500Y-223082D01*
X-147167Y-222754D01*
X-143963Y-221782D01*
X-141010Y-220203D01*
X-138421Y-218079D01*
X-136297Y-215490D01*
X-134718Y-212537D01*
X-133746Y-209333D01*
X-133418Y-206000D01*
Y-191000D01*
X-133746Y-187667D01*
X-134718Y-184463D01*
X-136297Y-181510D01*
X-138421Y-178921D01*
X-141010Y-176797D01*
X-143963Y-175218D01*
X-147167Y-174246D01*
X-150500Y-173918D01*
D02*
G37*
G36*
X-281900D02*
X-285233Y-174246D01*
X-288437Y-175218D01*
X-291390Y-176797D01*
X-293979Y-178921D01*
X-296103Y-181510D01*
X-297682Y-184463D01*
X-298654Y-187667D01*
X-298982Y-191000D01*
Y-206000D01*
X-298654Y-209333D01*
X-297682Y-212537D01*
X-296103Y-215490D01*
X-293979Y-218079D01*
X-291390Y-220203D01*
X-288437Y-221782D01*
X-285233Y-222754D01*
X-281900Y-223082D01*
X-278567Y-222754D01*
X-275363Y-221782D01*
X-272410Y-220203D01*
X-269821Y-218079D01*
X-267697Y-215490D01*
X-266118Y-212537D01*
X-265146Y-209333D01*
X-264818Y-206000D01*
Y-191000D01*
X-265146Y-187667D01*
X-266118Y-184463D01*
X-267697Y-181510D01*
X-269821Y-178921D01*
X-272410Y-176797D01*
X-275363Y-175218D01*
X-278567Y-174246D01*
X-281900Y-173918D01*
D02*
G37*
G36*
X-347000Y-206600D02*
X-367000D01*
Y-226600D01*
X-347000D01*
Y-206600D01*
D02*
G37*
G36*
X132500Y-220000D02*
X103500D01*
Y-236000D01*
X132500D01*
Y-220000D01*
D02*
G37*
G36*
X-55420Y-201420D02*
X-96580D01*
Y-242580D01*
X-55420D01*
Y-201420D01*
D02*
G37*
G36*
X132500Y-270000D02*
X103500D01*
Y-286000D01*
X132500D01*
Y-270000D01*
D02*
G37*
G36*
X357125Y-235000D02*
X352875D01*
X348677Y-235665D01*
X344636Y-236978D01*
X340849Y-238908D01*
X337411Y-241406D01*
X334406Y-244411D01*
X331908Y-247849D01*
X329978Y-251636D01*
X328665Y-255678D01*
X328000Y-259875D01*
Y-264125D01*
X328665Y-268323D01*
X329978Y-272364D01*
X331908Y-276151D01*
X334406Y-279589D01*
X337411Y-282595D01*
X340849Y-285093D01*
X344636Y-287022D01*
X348677Y-288335D01*
X352875Y-289000D01*
X357125D01*
X361323Y-288335D01*
X365364Y-287022D01*
X369151Y-285093D01*
X372589Y-282595D01*
X375594Y-279589D01*
X378092Y-276151D01*
X380022Y-272364D01*
X381335Y-268323D01*
X382000Y-264125D01*
Y-259875D01*
X381335Y-255678D01*
X380022Y-251636D01*
X378092Y-247849D01*
X375594Y-244411D01*
X372589Y-241406D01*
X369151Y-238908D01*
X365364Y-236978D01*
X361323Y-235665D01*
X357125Y-235000D01*
D02*
G37*
G36*
X-352875D02*
X-357125D01*
X-361323Y-235665D01*
X-365364Y-236978D01*
X-369151Y-238908D01*
X-372589Y-241406D01*
X-375594Y-244411D01*
X-378092Y-247849D01*
X-380022Y-251636D01*
X-381335Y-255678D01*
X-382000Y-259875D01*
Y-264125D01*
X-381335Y-268323D01*
X-380022Y-272364D01*
X-378092Y-276151D01*
X-375594Y-279589D01*
X-372589Y-282595D01*
X-369151Y-285093D01*
X-365364Y-287022D01*
X-361323Y-288335D01*
X-357125Y-289000D01*
X-352875D01*
X-348677Y-288335D01*
X-344636Y-287022D01*
X-340849Y-285093D01*
X-337411Y-282595D01*
X-334406Y-279589D01*
X-331908Y-276151D01*
X-329978Y-272364D01*
X-328665Y-268323D01*
X-328000Y-264125D01*
Y-259875D01*
X-328665Y-255678D01*
X-329978Y-251636D01*
X-331908Y-247849D01*
X-334406Y-244411D01*
X-337411Y-241406D01*
X-340849Y-238908D01*
X-344636Y-236978D01*
X-348677Y-235665D01*
X-352875Y-235000D01*
D02*
G37*
G36*
X27500Y-267931D02*
X25412Y-268206D01*
X23465Y-269012D01*
X21794Y-270294D01*
X20512Y-271966D01*
X19706Y-273912D01*
X19431Y-276000D01*
Y-288000D01*
X19706Y-290088D01*
X20512Y-292034D01*
X21794Y-293706D01*
X23465Y-294988D01*
X25412Y-295794D01*
X27500Y-296069D01*
X29588Y-295794D01*
X31535Y-294988D01*
X33206Y-293706D01*
X34488Y-292034D01*
X35294Y-290088D01*
X35569Y-288000D01*
Y-276000D01*
X35294Y-273912D01*
X34488Y-271966D01*
X33206Y-270294D01*
X31535Y-269012D01*
X29588Y-268206D01*
X27500Y-267931D01*
D02*
G37*
G36*
X-107500D02*
X-109588Y-268206D01*
X-111535Y-269012D01*
X-113206Y-270294D01*
X-114488Y-271966D01*
X-115294Y-273912D01*
X-115569Y-276000D01*
Y-288000D01*
X-115294Y-290088D01*
X-114488Y-292034D01*
X-113206Y-293706D01*
X-111535Y-294988D01*
X-109588Y-295794D01*
X-107500Y-296069D01*
X-105412Y-295794D01*
X-103465Y-294988D01*
X-101794Y-293706D01*
X-100512Y-292034D01*
X-99706Y-290088D01*
X-99431Y-288000D01*
Y-276000D01*
X-99706Y-273912D01*
X-100512Y-271966D01*
X-101794Y-270294D01*
X-103465Y-269012D01*
X-105412Y-268206D01*
X-107500Y-267931D01*
D02*
G37*
%LPD*%
G36*
X103000Y250500D02*
Y242286D01*
X102923Y241500D01*
Y234500D01*
X103000Y233714D01*
Y196500D01*
X142750Y196250D01*
X143000Y196500D01*
X169500D01*
Y171000D01*
X162000Y163500D01*
X119750D01*
X103500Y179750D01*
X72250D01*
X67750Y175250D01*
Y160000D01*
X67500Y159750D01*
X53000D01*
X52000Y160750D01*
Y258250D01*
X95250D01*
X103000Y250500D01*
D02*
G37*
G36*
X48000Y157000D02*
X174000D01*
X180000Y163000D01*
Y188000D01*
X231000D01*
Y111000D01*
X229000Y109000D01*
X179000D01*
X178000Y110000D01*
Y123000D01*
X-262041D01*
X-262527Y124173D01*
X-260000Y126700D01*
Y136700D01*
X-265000Y141700D01*
X-270000D01*
Y270000D01*
X-65000D01*
X48000Y157000D01*
D02*
G37*
G36*
X-300750Y193250D02*
Y122500D01*
X-275800D01*
X-275000Y121700D01*
X-265000D01*
X-263483Y121558D01*
X-262821Y121116D01*
X-262041Y120961D01*
X175961D01*
Y110000D01*
X175961Y110000D01*
X174993Y108789D01*
X174991D01*
X174991Y108789D01*
X174990Y108789D01*
X160451D01*
X160254Y108750D01*
X160053D01*
X159885Y108717D01*
X159885D01*
X159700Y108640D01*
X159670Y108634D01*
X159646Y108617D01*
X159150Y108412D01*
X158588Y107850D01*
X158383Y107355D01*
X158366Y107330D01*
X158360Y107300D01*
X158283Y107114D01*
X157164Y106750D01*
X151750D01*
Y96750D01*
X163750Y84750D01*
X200250D01*
Y70000D01*
X199500Y69250D01*
X188000D01*
Y67750D01*
X186500Y66250D01*
Y44750D01*
X188250Y43000D01*
X201250D01*
X204000Y45750D01*
Y54250D01*
X206250Y56500D01*
X217500D01*
Y75500D01*
X221833Y79833D01*
X222865Y79867D01*
X223025Y79904D01*
X223058Y79905D01*
X223093Y79913D01*
X223261Y79919D01*
X223422Y79956D01*
X223433Y79961D01*
X225751D01*
X225784Y79967D01*
X225817Y79962D01*
X226733Y79991D01*
X226777Y80000D01*
X228000Y80000D01*
Y80000D01*
X228000D01*
X228000Y80000D01*
X236000D01*
Y80250D01*
X237750D01*
Y91500D01*
X238500Y92250D01*
X241500D01*
Y81250D01*
X243250Y79500D01*
X255250D01*
Y54039D01*
X253039D01*
X252842Y54000D01*
X251197D01*
X251000Y54039D01*
X245000D01*
X244803Y54000D01*
X220000D01*
Y50000D01*
X212250Y42250D01*
X203500D01*
Y29750D01*
X214000D01*
X219000Y24750D01*
Y13000D01*
X249250D01*
X256961Y5289D01*
Y-38789D01*
X225500Y-70250D01*
X-287882D01*
Y-64500D01*
X-287963Y-64094D01*
X-285834Y-61965D01*
X-276108D01*
X-274585Y-61662D01*
X-273293Y-60799D01*
X-252185Y-39690D01*
X-251322Y-38399D01*
X-251019Y-36875D01*
X-251322Y-35351D01*
X-252185Y-34060D01*
X-253476Y-33196D01*
X-255000Y-32894D01*
X-256524Y-33196D01*
X-257815Y-34060D01*
X-277757Y-54002D01*
X-287483D01*
X-289007Y-54305D01*
X-290299Y-55168D01*
X-293594Y-58463D01*
X-294000Y-58383D01*
X-296341Y-58848D01*
X-298326Y-60174D01*
X-299652Y-62159D01*
X-300118Y-64500D01*
Y-70250D01*
X-347676D01*
X-348311Y-69150D01*
X-347682Y-68060D01*
X-347000Y-65517D01*
Y-62884D01*
X-347682Y-60340D01*
X-348998Y-58060D01*
X-350860Y-56198D01*
X-353140Y-54882D01*
X-355684Y-54200D01*
X-358317D01*
X-360860Y-54882D01*
X-363140Y-56198D01*
X-365002Y-58060D01*
X-366319Y-60340D01*
X-367000Y-62884D01*
Y-65517D01*
X-366319Y-68060D01*
X-365689Y-69150D01*
X-366324Y-70250D01*
X-374500D01*
Y215750D01*
X-366250Y224000D01*
X-331500D01*
X-300750Y193250D01*
D02*
G37*
G36*
X226750Y99750D02*
Y83253D01*
X226668Y82030D01*
X225751Y82000D01*
X223000D01*
Y81946D01*
X222993Y81943D01*
X222960Y81942D01*
X222799Y81905D01*
X218912Y81779D01*
X218000Y82663D01*
Y89750D01*
X214000Y93750D01*
X161500D01*
X160250Y95000D01*
Y106549D01*
X160283Y106717D01*
X160451Y106750D01*
X174990D01*
X174991Y106750D01*
X174991Y106750D01*
X219750D01*
X226750Y99750D01*
D02*
G37*
G36*
X280500Y92384D02*
X274808Y86692D01*
X274538Y86288D01*
X264750Y76500D01*
Y38750D01*
X255500D01*
X253039Y41211D01*
Y52000D01*
X259000D01*
Y79000D01*
X270000Y90000D01*
Y102500D01*
X272121Y104621D01*
X280500D01*
Y92384D01*
D02*
G37*
G36*
X324500Y192042D02*
Y9500D01*
X321250Y6250D01*
X276250D01*
Y85180D01*
X276392Y85392D01*
X281942Y90942D01*
X281942Y90942D01*
X286500Y95500D01*
Y104250D01*
X282250Y108500D01*
X271500D01*
X257000Y94000D01*
X252000D01*
Y82000D01*
X244500D01*
Y103750D01*
X273500Y132750D01*
Y192750D01*
X323540Y192999D01*
X324500Y192042D01*
D02*
G37*
G36*
X324000Y-113500D02*
X312750Y-124750D01*
X303634D01*
X269039Y-90155D01*
Y-57000D01*
Y1500D01*
X324000D01*
Y-113500D01*
D02*
G37*
G36*
X251000Y40000D02*
X255000Y36000D01*
X267000D01*
Y-57000D01*
Y-91000D01*
X316000Y-140000D01*
X339000D01*
Y-184000D01*
X334000Y-189000D01*
X276000D01*
Y-156000D01*
X214000Y-94000D01*
X180000D01*
Y-131000D01*
Y-139000D01*
X161000D01*
Y-95000D01*
X151000Y-85000D01*
X91000D01*
X80000Y-96000D01*
Y-139000D01*
X62000D01*
Y-96000D01*
X53000Y-87000D01*
X-16000D01*
X-24000Y-95000D01*
Y-124000D01*
X-24000D01*
Y-136000D01*
X-24000D01*
Y-138000D01*
X-25000Y-139000D01*
X-44000D01*
Y-95000D01*
X-52000Y-87000D01*
X-111000D01*
X-124000Y-100000D01*
Y-140000D01*
X-144000D01*
Y-100000D01*
X-157000Y-87000D01*
X-211000D01*
X-223000Y-99000D01*
Y-140000D01*
X-251000D01*
Y-88000D01*
X-243000Y-74000D01*
X226000D01*
X259000Y-41000D01*
Y24000D01*
X245898Y24000D01*
X245000Y24898D01*
Y52000D01*
X251000D01*
Y40000D01*
D02*
G37*
G36*
X273500Y-158000D02*
Y-191250D01*
X279750D01*
X318750Y-230250D01*
Y-233750D01*
Y-257250D01*
X310000Y-266000D01*
X285250D01*
X285000Y-266250D01*
X277250Y-258500D01*
Y-219000D01*
X181750D01*
Y-139981D01*
X181884Y-139780D01*
X182039Y-139000D01*
Y-131000D01*
Y-120250D01*
X235750D01*
X273500Y-158000D01*
D02*
G37*
%LPC*%
G36*
X-196400Y261500D02*
X-228400D01*
Y222500D01*
X-196400D01*
Y261500D01*
D02*
G37*
G36*
X-62400Y258500D02*
X-94400D01*
Y219500D01*
X-62400D01*
Y258500D01*
D02*
G37*
G36*
X-157600Y258577D02*
X-160737Y258269D01*
X-163753Y257354D01*
X-166532Y255868D01*
X-168969Y253869D01*
X-170968Y251432D01*
X-172454Y248653D01*
X-173368Y245637D01*
X-173677Y242500D01*
Y235500D01*
X-173368Y232363D01*
X-172454Y229347D01*
X-170968Y226568D01*
X-168969Y224132D01*
X-166532Y222132D01*
X-163753Y220646D01*
X-160737Y219732D01*
X-157600Y219423D01*
X-154464Y219732D01*
X-151447Y220646D01*
X-148668Y222132D01*
X-146232Y224132D01*
X-144232Y226568D01*
X-142746Y229347D01*
X-141832Y232363D01*
X-141523Y235500D01*
Y242500D01*
X-141832Y245637D01*
X-142746Y248653D01*
X-144232Y251432D01*
X-146232Y253869D01*
X-148668Y255868D01*
X-151447Y257354D01*
X-154464Y258269D01*
X-157600Y258577D01*
D02*
G37*
G36*
X-330684Y216400D02*
X-333316D01*
X-335860Y215718D01*
X-338140Y214402D01*
X-340002Y212540D01*
X-341319Y210260D01*
X-342000Y207717D01*
Y205084D01*
X-341319Y202540D01*
X-340002Y200260D01*
X-338140Y198398D01*
X-335860Y197082D01*
X-333316Y196400D01*
X-330684D01*
X-328140Y197082D01*
X-325860Y198398D01*
X-323998Y200260D01*
X-322682Y202540D01*
X-322000Y205084D01*
Y207717D01*
X-322682Y210260D01*
X-323998Y212540D01*
X-325860Y214402D01*
X-328140Y215718D01*
X-330684Y216400D01*
D02*
G37*
G36*
Y191000D02*
X-333316D01*
X-335860Y190319D01*
X-338140Y189002D01*
X-340002Y187140D01*
X-341319Y184860D01*
X-342000Y182316D01*
Y179683D01*
X-341319Y177140D01*
X-340002Y174860D01*
X-338140Y172998D01*
X-335860Y171681D01*
X-333316Y171000D01*
X-330684D01*
X-328140Y171681D01*
X-325860Y172998D01*
X-323998Y174860D01*
X-322682Y177140D01*
X-322000Y179683D01*
Y182316D01*
X-322682Y184860D01*
X-323998Y187140D01*
X-325860Y189002D01*
X-328140Y190319D01*
X-330684Y191000D01*
D02*
G37*
G36*
Y165600D02*
X-333316D01*
X-335860Y164918D01*
X-338140Y163602D01*
X-340002Y161740D01*
X-341319Y159460D01*
X-342000Y156917D01*
Y154284D01*
X-341319Y151740D01*
X-340002Y149460D01*
X-338140Y147598D01*
X-335860Y146281D01*
X-333316Y145600D01*
X-330684D01*
X-328140Y146281D01*
X-325860Y147598D01*
X-323998Y149460D01*
X-322682Y151740D01*
X-322000Y154284D01*
Y156917D01*
X-322682Y159460D01*
X-323998Y161740D01*
X-325860Y163602D01*
X-328140Y164918D01*
X-330684Y165600D01*
D02*
G37*
G36*
Y140200D02*
X-333316D01*
X-335860Y139518D01*
X-338140Y138202D01*
X-340002Y136340D01*
X-341319Y134060D01*
X-342000Y131517D01*
Y128883D01*
X-341319Y126340D01*
X-340002Y124060D01*
X-338140Y122198D01*
X-335860Y120882D01*
X-333316Y120200D01*
X-330684D01*
X-328140Y120882D01*
X-325860Y122198D01*
X-323998Y124060D01*
X-322682Y126340D01*
X-322000Y128883D01*
Y131517D01*
X-322682Y134060D01*
X-323998Y136340D01*
X-325860Y138202D01*
X-328140Y139518D01*
X-330684Y140200D01*
D02*
G37*
G36*
X-265000Y116300D02*
X-275000D01*
X-280000Y111300D01*
Y101300D01*
X-275000Y96300D01*
X-265000D01*
X-260000Y101300D01*
Y111300D01*
X-265000Y116300D01*
D02*
G37*
G36*
X-322000Y114800D02*
X-342000D01*
Y94800D01*
X-322000D01*
Y114800D01*
D02*
G37*
G36*
X-330984Y80800D02*
X-333616D01*
X-336160Y80119D01*
X-338440Y78802D01*
X-340302Y76940D01*
X-341618Y74660D01*
X-342300Y72117D01*
Y69483D01*
X-341618Y66940D01*
X-340302Y64660D01*
X-338440Y62798D01*
X-336160Y61481D01*
X-333616Y60800D01*
X-330984D01*
X-328440Y61481D01*
X-326160Y62798D01*
X-324298Y64660D01*
X-322981Y66940D01*
X-322300Y69483D01*
Y72117D01*
X-322981Y74660D01*
X-324298Y76940D01*
X-326160Y78802D01*
X-328440Y80119D01*
X-330984Y80800D01*
D02*
G37*
G36*
Y55400D02*
X-333616D01*
X-336160Y54718D01*
X-338440Y53402D01*
X-340302Y51540D01*
X-341618Y49260D01*
X-342300Y46717D01*
Y44083D01*
X-341618Y41540D01*
X-340302Y39260D01*
X-338440Y37398D01*
X-336160Y36082D01*
X-333616Y35400D01*
X-330984D01*
X-328440Y36082D01*
X-326160Y37398D01*
X-324298Y39260D01*
X-322981Y41540D01*
X-322300Y44083D01*
Y46717D01*
X-322981Y49260D01*
X-324298Y51540D01*
X-326160Y53402D01*
X-328440Y54718D01*
X-330984Y55400D01*
D02*
G37*
G36*
Y30000D02*
X-333616D01*
X-336160Y29318D01*
X-338440Y28002D01*
X-340302Y26140D01*
X-341618Y23860D01*
X-342300Y21317D01*
Y18684D01*
X-341618Y16140D01*
X-340302Y13860D01*
X-338440Y11998D01*
X-336160Y10682D01*
X-333616Y10000D01*
X-330984D01*
X-328440Y10682D01*
X-326160Y11998D01*
X-324298Y13860D01*
X-322981Y16140D01*
X-322300Y18684D01*
Y21317D01*
X-322981Y23860D01*
X-324298Y26140D01*
X-326160Y28002D01*
X-328440Y29318D01*
X-330984Y30000D01*
D02*
G37*
G36*
Y4600D02*
X-333616D01*
X-336160Y3918D01*
X-338440Y2602D01*
X-340302Y740D01*
X-341618Y-1540D01*
X-342300Y-4083D01*
Y-6716D01*
X-341618Y-9260D01*
X-340302Y-11540D01*
X-338440Y-13402D01*
X-336160Y-14719D01*
X-333616Y-15400D01*
X-330984D01*
X-328440Y-14719D01*
X-326160Y-13402D01*
X-324298Y-11540D01*
X-322981Y-9260D01*
X-322300Y-6716D01*
Y-4083D01*
X-322981Y-1540D01*
X-324298Y740D01*
X-326160Y2602D01*
X-328440Y3918D01*
X-330984Y4600D01*
D02*
G37*
G36*
X-322300Y-20800D02*
X-342300D01*
Y-40800D01*
X-322300D01*
Y-20800D01*
D02*
G37*
%LPD*%
D10*
X-107900Y-174000D02*
D03*
X-90100D02*
D03*
X78900Y167000D02*
D03*
X61100D02*
D03*
D14*
X-278000Y-130000D02*
D03*
X-294000D02*
D03*
X-215000D02*
D03*
X-231000D02*
D03*
X-197000Y-131000D02*
D03*
X-181000D02*
D03*
X-117000D02*
D03*
X-133000D02*
D03*
X-98000Y-130000D02*
D03*
X-82000D02*
D03*
X-18000D02*
D03*
X-34000D02*
D03*
X6000Y-128000D02*
D03*
X22000D02*
D03*
X87000D02*
D03*
X71000D02*
D03*
X108000Y-129000D02*
D03*
X124000D02*
D03*
X172000D02*
D03*
X188000D02*
D03*
X210000Y76000D02*
D03*
X194000D02*
D03*
Y50000D02*
D03*
X210000D02*
D03*
X225000Y19000D02*
D03*
X209000D02*
D03*
X275750Y100250D02*
D03*
X291750D02*
D03*
D15*
X185000Y115750D02*
D03*
Y100250D02*
D03*
X166000Y115750D02*
D03*
Y100250D02*
D03*
X99000Y166750D02*
D03*
Y151250D02*
D03*
D18*
X-92250Y-154000D02*
D03*
X-107750D02*
D03*
X209750Y63000D02*
D03*
X194250D02*
D03*
X209750Y36000D02*
D03*
X194250D02*
D03*
D26*
X246000Y29000D02*
D03*
Y-1000D02*
D03*
X123000Y181000D02*
D03*
Y151000D02*
D03*
X155000Y181000D02*
D03*
Y151000D02*
D03*
D27*
X299000Y35000D02*
D03*
D28*
X309500Y-8000D02*
D03*
X288500D02*
D03*
D30*
X209875Y75875D02*
X210125Y76125D01*
Y87625D02*
X210250Y87750D01*
X210125Y76125D02*
Y87625D01*
X-276108Y-57983D02*
X-255000Y-36875D01*
X-294000Y-64500D02*
X-287483Y-57983D01*
X-276108D01*
X232000Y101616D02*
X236250Y105866D01*
X232000Y87000D02*
Y101616D01*
X236250Y105866D02*
Y107000D01*
X209750Y63000D02*
X209875Y63125D01*
Y75875D01*
X194125Y50125D02*
Y62875D01*
X194000Y50000D02*
X194125Y50125D01*
Y62875D02*
X194250Y63000D01*
X209750Y36000D02*
X220816D01*
X223905Y39089D02*
Y46905D01*
X224000Y47000D01*
X220816Y36000D02*
X223905Y39089D01*
X225000Y19000D02*
X225250Y19250D01*
Y33250D01*
X231905Y39905D02*
Y46905D01*
X225250Y33250D02*
X231905Y39905D01*
Y46905D02*
X232000Y47000D01*
X79150Y166750D02*
X99000D01*
X78900Y167000D02*
X79150Y166750D01*
X-107900Y-174000D02*
X-107750Y-173850D01*
Y-154000D01*
D31*
X145000Y-253000D02*
Y-189500D01*
X108250Y-152750D02*
X145000Y-189500D01*
X108000Y-129000D02*
X108250Y-129250D01*
Y-152750D02*
Y-129250D01*
X87000Y-128000D02*
X107000D01*
X108000Y-129000D01*
X-4000Y-222000D02*
Y-186500D01*
X6000Y-176500D02*
Y-128000D01*
X-4000Y-186500D02*
X6000Y-176500D01*
X4000Y-130000D02*
X6000Y-128000D01*
X-18000Y-130000D02*
X4000D01*
X-198000D02*
X-191399Y-136601D01*
Y-146106D02*
Y-136601D01*
X-190872Y-147378D02*
X-181000Y-157250D01*
X-191399Y-146106D02*
X-190500Y-147005D01*
X-98000Y-139794D02*
Y-130000D01*
X-78645Y-144480D02*
X-73939Y-149186D01*
Y-171768D02*
Y-149186D01*
X-93314Y-144480D02*
X-78645D01*
X-98000Y-139794D02*
X-93314Y-144480D01*
X-76170Y-174000D02*
X-73939Y-171768D01*
X-90100Y-174000D02*
X-76170D01*
X-116500Y-130500D02*
X-98500D01*
X-117000Y-131000D02*
X-116500Y-130500D01*
X-98500D02*
X-98000Y-130000D01*
X-215000D02*
X-198000D01*
X-181000Y-171200D02*
Y-157250D01*
X-181200Y-171400D02*
X-181000Y-171200D01*
X-294000Y-130000D02*
Y-64500D01*
D33*
X355000Y-262000D02*
D03*
X-355000Y262000D02*
D03*
Y-262000D02*
D03*
X355000Y262000D02*
D03*
D34*
X-270000Y106300D02*
D03*
Y131700D02*
D03*
D35*
X361000Y160000D02*
D03*
Y199600D02*
D03*
Y66000D02*
D03*
Y26400D02*
D03*
D36*
Y120400D02*
D03*
Y-13200D02*
D03*
D37*
X119000Y238000D02*
D03*
X79400D02*
D03*
X213400Y237000D02*
D03*
X253000D02*
D03*
X258000Y-239000D02*
D03*
X297600D02*
D03*
X-291600Y242000D02*
D03*
X-252000D02*
D03*
X-118000Y239000D02*
D03*
X-157600D02*
D03*
D38*
X158600Y238000D02*
D03*
X292600Y237000D02*
D03*
X218400Y-239000D02*
D03*
X-212400Y242000D02*
D03*
X-78400Y239000D02*
D03*
D39*
X-206200Y-171400D02*
D03*
X-181200Y-171400D02*
D03*
X-226200Y-171400D02*
D03*
D40*
X-251200D02*
D03*
D41*
X-281900Y-198500D02*
D03*
X-150500D02*
D03*
D42*
X-4000Y-222000D02*
D03*
X305000Y-94000D02*
D03*
D43*
X-76000Y-222000D02*
D03*
D44*
X27500Y-282000D02*
D03*
X-107500D02*
D03*
D45*
X145000Y-253000D02*
D03*
X-29000Y259000D02*
D03*
D46*
X118000Y-278000D02*
D03*
Y-228000D02*
D03*
X-2000Y284000D02*
D03*
Y234000D02*
D03*
D47*
X305000Y-166000D02*
D03*
D48*
X365000Y-62500D02*
D03*
Y-197500D02*
D03*
D49*
X-357000Y-89600D02*
D03*
Y-140400D02*
D03*
Y-191200D02*
D03*
Y-165800D02*
D03*
X-357000Y-115000D02*
D03*
X-357000Y-64200D02*
D03*
X-357700Y70800D02*
D03*
X-332300D02*
D03*
X-357700Y20000D02*
D03*
X-332300D02*
D03*
X-357700Y-30800D02*
D03*
Y-5400D02*
D03*
X-332300D02*
D03*
Y45400D02*
D03*
X-357700D02*
D03*
X-357400Y181000D02*
D03*
X-332000D02*
D03*
Y130200D02*
D03*
X-357400D02*
D03*
Y104800D02*
D03*
X-332000Y155600D02*
D03*
X-357400D02*
D03*
X-332000Y206400D02*
D03*
X-357400D02*
D03*
D50*
X-357000Y-216600D02*
D03*
X-332300Y-30800D02*
D03*
X-332000Y104800D02*
D03*
D51*
X210250Y87750D02*
D03*
X236250Y107000D02*
D03*
D52*
X-76292Y-146833D02*
D03*
D53*
X256000Y87000D02*
D03*
X248000D02*
D03*
X240000D02*
D03*
X232000D02*
D03*
X224000D02*
D03*
Y47000D02*
D03*
X232000D02*
D03*
X240000D02*
D03*
X248000D02*
D03*
X256000D02*
D03*
D54*
X240000Y67000D02*
D03*
D55*
X-81490Y-103230D02*
D03*
X-33990D02*
D03*
X-133250Y-103125D02*
D03*
X-180750D02*
D03*
X-231250D02*
D03*
X-278750D02*
D03*
X171750Y-101125D02*
D03*
X124250D02*
D03*
X69750Y-101125D02*
D03*
X22250D02*
D03*
D56*
X-57740Y-36980D02*
D03*
X-157000Y-36875D02*
D03*
X-255000D02*
D03*
X148000Y-34875D02*
D03*
X46000Y-34875D02*
D03*
D57*
X207000Y163000D02*
D03*
X301000D02*
D03*
%TF.MD5,8bdb8abaf5ad26cb41945da93dcbe5d8*%
M02*
