%TF.GenerationSoftware,Altium Limited,Altium Designer,22.5.1 (42)*%
G04 Layer_Color=128*
%FSLAX44Y44*%
%MOMM*%
%TF.SameCoordinates,01627914-4FCA-44A5-8146-F6A238B5A28C*%
%TF.FilePolarity,Positive*%
%TF.FileFunction,Drillmap*%
%TF.Part,Single*%
G01*
G75*
%TA.AperFunction,NonConductor*%
%ADD95C,0.1270*%
D95*
X340000Y-262000D02*
X370000D01*
X355000Y-277000D02*
Y-247000D01*
X-370000Y262000D02*
X-340000D01*
X-355000Y247000D02*
Y277000D01*
X-370000Y-262000D02*
X-340000D01*
X-355000Y-277000D02*
Y-247000D01*
X340000Y262000D02*
X370000D01*
X355000Y247000D02*
Y277000D01*
X-274500Y106300D02*
X-265500D01*
X-270000Y101800D02*
Y110800D01*
X-274500Y131700D02*
X-265500D01*
X-270000Y127200D02*
Y136200D01*
X353000Y160000D02*
X369000D01*
X361000Y152000D02*
Y168000D01*
X353000Y120400D02*
X369000D01*
X361000Y112400D02*
Y128400D01*
X353000Y199600D02*
X369000D01*
X361000Y191600D02*
Y207600D01*
X111000Y238000D02*
X127000D01*
X119000Y230000D02*
Y246000D01*
X150600Y238000D02*
X166600D01*
X158600Y230000D02*
Y246000D01*
X71400Y238000D02*
X87400D01*
X79400Y230000D02*
Y246000D01*
X205400Y237000D02*
X221400D01*
X213400Y229000D02*
Y245000D01*
X284600Y237000D02*
X300600D01*
X292600Y229000D02*
Y245000D01*
X245000Y237000D02*
X261000D01*
X253000Y229000D02*
Y245000D01*
X353000Y66000D02*
X369000D01*
X361000Y58000D02*
Y74000D01*
X353000Y-13200D02*
X369000D01*
X361000Y-21200D02*
Y-5200D01*
X353000Y26400D02*
X369000D01*
X361000Y18400D02*
Y34400D01*
X250000Y-239000D02*
X266000D01*
X258000Y-247000D02*
Y-231000D01*
X210400Y-239000D02*
X226400D01*
X218400Y-247000D02*
Y-231000D01*
X289600Y-239000D02*
X305600D01*
X297600Y-247000D02*
Y-231000D01*
X-299600Y242000D02*
X-283600D01*
X-291600Y234000D02*
Y250000D01*
X-220400Y242000D02*
X-204400D01*
X-212400Y234000D02*
Y250000D01*
X-260000Y242000D02*
X-244000D01*
X-252000Y234000D02*
Y250000D01*
X-126000Y239000D02*
X-110000D01*
X-118000Y231000D02*
Y247000D01*
X-86400Y239000D02*
X-70400D01*
X-78400Y231000D02*
Y247000D01*
X-165600Y239000D02*
X-149600D01*
X-157600Y231000D02*
Y247000D01*
X-211200Y-171400D02*
X-201200D01*
X-206200Y-176400D02*
Y-166400D01*
X-186200Y-171400D02*
X-176200D01*
X-181200Y-176400D02*
Y-166400D01*
X-231200Y-171400D02*
X-221200D01*
X-226200Y-176400D02*
Y-166400D01*
X-256200Y-171400D02*
X-246200D01*
X-251200Y-176400D02*
Y-166400D01*
X-293400Y-198500D02*
X-270400D01*
X-281900Y-210000D02*
Y-187000D01*
X-162000Y-198500D02*
X-139000D01*
X-150500Y-210000D02*
Y-187000D01*
X-17500Y-222000D02*
X9500D01*
X-4000Y-235500D02*
Y-208500D01*
X-89500Y-222000D02*
X-62500D01*
X-76000Y-235500D02*
Y-208500D01*
X24500Y-282000D02*
X30500D01*
X27500Y-285000D02*
Y-279000D01*
X-110500Y-282000D02*
X-104500D01*
X-107500Y-285000D02*
Y-279000D01*
X142000Y-253000D02*
X148000D01*
X145000Y-256000D02*
Y-250000D01*
X115000Y-278000D02*
X121000D01*
X118000Y-281000D02*
Y-275000D01*
X115000Y-228000D02*
X121000D01*
X118000Y-231000D02*
Y-225000D01*
X291500Y-94000D02*
X318500D01*
X305000Y-107500D02*
Y-80500D01*
X291500Y-166000D02*
X318500D01*
X305000Y-179500D02*
Y-152500D01*
X362000Y-62500D02*
X368000D01*
X365000Y-65500D02*
Y-59500D01*
X362000Y-197500D02*
X368000D01*
X365000Y-200500D02*
Y-194500D01*
X-32000Y259000D02*
X-26000D01*
X-29000Y256000D02*
Y262000D01*
X-5000Y284000D02*
X1000D01*
X-2000Y281000D02*
Y287000D01*
X-5000Y234000D02*
X1000D01*
X-2000Y231000D02*
Y237000D01*
X-361500Y-89600D02*
X-352500D01*
X-357000Y-94100D02*
Y-85100D01*
X-361500Y-140400D02*
X-352500D01*
X-357000Y-144900D02*
Y-135900D01*
X-361500Y-216600D02*
X-352500D01*
X-357000Y-221100D02*
Y-212100D01*
X-361500Y-191200D02*
X-352500D01*
X-357000Y-195700D02*
Y-186700D01*
X-361500Y-165800D02*
X-352500D01*
X-357000Y-170300D02*
Y-161300D01*
X-361500Y-115000D02*
X-352500D01*
X-357000Y-119500D02*
Y-110500D01*
X-361500Y-64200D02*
X-352500D01*
X-357000Y-68700D02*
Y-59700D01*
X-362200Y70800D02*
X-353200D01*
X-357700Y66300D02*
Y75300D01*
X-336800Y70800D02*
X-327800D01*
X-332300Y66300D02*
Y75300D01*
X-362200Y20000D02*
X-353200D01*
X-357700Y15500D02*
Y24500D01*
X-336800Y20000D02*
X-327800D01*
X-332300Y15500D02*
Y24500D01*
X-362200Y-30800D02*
X-353200D01*
X-357700Y-35300D02*
Y-26300D01*
X-362200Y-5400D02*
X-353200D01*
X-357700Y-9900D02*
Y-900D01*
X-336800Y-5400D02*
X-327800D01*
X-332300Y-9900D02*
Y-900D01*
X-336800Y-30800D02*
X-327800D01*
X-332300Y-35300D02*
Y-26300D01*
X-336800Y45400D02*
X-327800D01*
X-332300Y40900D02*
Y49900D01*
X-362200Y45400D02*
X-353200D01*
X-357700Y40900D02*
Y49900D01*
X-361900Y181000D02*
X-352900D01*
X-357400Y176500D02*
Y185500D01*
X-336500Y181000D02*
X-327500D01*
X-332000Y176500D02*
Y185500D01*
X-336500Y104800D02*
X-327500D01*
X-332000Y100300D02*
Y109300D01*
X-336500Y130200D02*
X-327500D01*
X-332000Y125700D02*
Y134700D01*
X-361900Y130200D02*
X-352900D01*
X-357400Y125700D02*
Y134700D01*
X-361900Y104800D02*
X-352900D01*
X-357400Y100300D02*
Y109300D01*
X-336500Y155600D02*
X-327500D01*
X-332000Y151100D02*
Y160100D01*
X-361900Y155600D02*
X-352900D01*
X-357400Y151100D02*
Y160100D01*
X-336500Y206400D02*
X-327500D01*
X-332000Y201900D02*
Y210900D01*
X-361900Y206400D02*
X-352900D01*
X-357400Y201900D02*
Y210900D01*
X208250Y87750D02*
X212250D01*
X210250Y85750D02*
Y89750D01*
X-79848Y-146833D02*
X-72736D01*
X-76292Y-150389D02*
Y-143277D01*
X234250Y107000D02*
X238250D01*
X236250Y105000D02*
Y109000D01*
%TF.MD5,d50707b6e38769e08c2947c3366d09f4*%
M02*
