%TF.GenerationSoftware,Altium Limited,Altium Designer,22.5.1 (42)*%
G04 Layer_Color=32896*
%FSLAX44Y44*%
%MOMM*%
%TF.SameCoordinates,01627914-4FCA-44A5-8146-F6A238B5A28C*%
%TF.FilePolarity,Positive*%
%TF.FileFunction,Legend,Bot*%
%TF.Part,Single*%
G01*
G75*
%TA.AperFunction,NonConductor*%
%ADD58C,0.2000*%
%ADD59C,0.0600*%
%ADD60C,0.1000*%
%ADD61C,0.1500*%
G36*
X-180953Y-235676D02*
X-183167D01*
Y-232511D01*
X-185678D01*
Y-235676D01*
X-187892D01*
Y-227295D01*
X-185678D01*
Y-230445D01*
X-183167D01*
Y-227295D01*
X-180953D01*
Y-235676D01*
D02*
G37*
G36*
X-227283D02*
X-229497D01*
Y-231575D01*
X-233821Y-235750D01*
X-234520D01*
Y-227280D01*
X-232306D01*
Y-231367D01*
X-227997Y-227206D01*
X-227283D01*
Y-235676D01*
D02*
G37*
G36*
X-245084Y-235676D02*
X-247298D01*
Y-231575D01*
X-251622Y-235750D01*
X-252321D01*
Y-227280D01*
X-250107D01*
Y-231367D01*
X-245798Y-227206D01*
X-245084D01*
Y-235676D01*
D02*
G37*
G36*
X-189363Y-235676D02*
X-191577D01*
Y-232347D01*
X-193850Y-235542D01*
X-193865D01*
X-196139Y-232347D01*
Y-235676D01*
X-198353D01*
Y-227206D01*
X-197461D01*
X-193850Y-232139D01*
X-190255Y-227206D01*
X-189363D01*
Y-235676D01*
D02*
G37*
G36*
X-171250D02*
X-173687D01*
X-174103Y-234695D01*
X-177253D01*
X-177669Y-235676D01*
X-180106D01*
X-176198Y-227176D01*
X-175143D01*
X-171250Y-235676D01*
D02*
G37*
G36*
X-199824D02*
X-205262D01*
Y-233610D01*
X-202008D01*
Y-232377D01*
X-204683D01*
Y-230534D01*
X-202008D01*
Y-229361D01*
X-205262D01*
Y-227295D01*
X-199824D01*
Y-235676D01*
D02*
G37*
G36*
X-206510Y-227295D02*
Y-235676D01*
X-209334D01*
X-209452Y-235661D01*
X-209601D01*
X-209779Y-235631D01*
X-209987Y-235616D01*
X-210225Y-235572D01*
X-210478Y-235527D01*
X-210745Y-235468D01*
X-211028Y-235393D01*
X-211295Y-235304D01*
X-211577Y-235200D01*
X-211860Y-235067D01*
X-212127Y-234918D01*
X-212380Y-234754D01*
X-212617Y-234561D01*
X-212632Y-234546D01*
X-212677Y-234517D01*
X-212736Y-234442D01*
X-212811Y-234353D01*
X-212900Y-234249D01*
X-213004Y-234116D01*
X-213108Y-233952D01*
X-213227Y-233759D01*
X-213331Y-233566D01*
X-213450Y-233328D01*
X-213554Y-233075D01*
X-213643Y-232808D01*
X-213732Y-232511D01*
X-213791Y-232199D01*
X-213836Y-231857D01*
X-213851Y-231500D01*
Y-231471D01*
Y-231411D01*
X-213836Y-231307D01*
X-213821Y-231173D01*
X-213806Y-231010D01*
X-213776Y-230817D01*
X-213732Y-230594D01*
X-213687Y-230371D01*
X-213613Y-230118D01*
X-213539Y-229866D01*
X-213435Y-229613D01*
X-213316Y-229361D01*
X-213182Y-229108D01*
X-213019Y-228855D01*
X-212826Y-228618D01*
X-212617Y-228410D01*
X-212603Y-228395D01*
X-212558Y-228365D01*
X-212499Y-228306D01*
X-212395Y-228231D01*
X-212276Y-228157D01*
X-212127Y-228053D01*
X-211949Y-227949D01*
X-211741Y-227845D01*
X-211518Y-227741D01*
X-211265Y-227637D01*
X-210983Y-227548D01*
X-210686Y-227459D01*
X-210359Y-227384D01*
X-210017Y-227340D01*
X-209646Y-227295D01*
X-209244Y-227280D01*
X-206510Y-227295D01*
D02*
G37*
G36*
X-217580Y-235676D02*
X-220017D01*
X-220433Y-234695D01*
X-223583D01*
X-224000Y-235676D01*
X-226436D01*
X-222528Y-227176D01*
X-221473D01*
X-217580Y-235676D01*
D02*
G37*
G36*
X-235381D02*
X-237818Y-235676D01*
X-238234Y-234695D01*
X-241385D01*
X-241800Y-235676D01*
X-244237D01*
X-240329Y-227176D01*
X-239275D01*
X-235381Y-235676D01*
D02*
G37*
G36*
X-94795Y-190671D02*
X-94765Y-190710D01*
X-94726Y-190778D01*
X-94668Y-190876D01*
X-94600Y-190983D01*
X-94522Y-191120D01*
X-94444Y-191256D01*
X-94346Y-191412D01*
X-94151Y-191754D01*
X-93946Y-192095D01*
X-93761Y-192427D01*
X-93673Y-192583D01*
X-93595Y-192729D01*
Y-192739D01*
X-93575Y-192758D01*
X-93556Y-192797D01*
X-93536Y-192846D01*
X-93497Y-192904D01*
X-93468Y-192973D01*
X-93390Y-193129D01*
X-93302Y-193304D01*
X-93215Y-193490D01*
X-93146Y-193655D01*
X-93088Y-193802D01*
Y-193821D01*
X-93068Y-193860D01*
X-93059Y-193929D01*
X-93039Y-194007D01*
X-93020Y-194095D01*
X-93010Y-194192D01*
X-93000Y-194280D01*
Y-194368D01*
Y-194377D01*
Y-194397D01*
Y-194426D01*
Y-194475D01*
X-93010Y-194524D01*
X-93020Y-194592D01*
X-93039Y-194738D01*
X-93068Y-194904D01*
X-93117Y-195080D01*
X-93185Y-195265D01*
X-93283Y-195431D01*
X-93293Y-195450D01*
X-93332Y-195499D01*
X-93400Y-195577D01*
X-93488Y-195665D01*
X-93595Y-195762D01*
X-93722Y-195870D01*
X-93868Y-195967D01*
X-94034Y-196055D01*
X-94044D01*
X-94053Y-196065D01*
X-94083Y-196074D01*
X-94112Y-196084D01*
X-94209Y-196113D01*
X-94336Y-196152D01*
X-94492Y-196192D01*
X-94668Y-196221D01*
X-94863Y-196240D01*
X-95068Y-196250D01*
X-95107D01*
X-95155Y-196240D01*
X-95224D01*
X-95302Y-196231D01*
X-95390Y-196211D01*
X-95497Y-196192D01*
X-95604Y-196172D01*
X-95838Y-196104D01*
X-96092Y-196006D01*
X-96219Y-195938D01*
X-96336Y-195870D01*
X-96462Y-195782D01*
X-96570Y-195684D01*
X-96580Y-195674D01*
X-96599Y-195655D01*
X-96628Y-195626D01*
X-96658Y-195587D01*
X-96706Y-195538D01*
X-96755Y-195470D01*
X-96814Y-195392D01*
X-96862Y-195314D01*
X-96970Y-195119D01*
X-97067Y-194894D01*
X-97106Y-194767D01*
X-97135Y-194631D01*
X-97155Y-194494D01*
X-97165Y-194348D01*
Y-194338D01*
Y-194319D01*
Y-194270D01*
X-97155Y-194221D01*
X-97145Y-194153D01*
X-97135Y-194085D01*
X-97097Y-193909D01*
X-97028Y-193714D01*
X-96940Y-193509D01*
X-96882Y-193402D01*
X-96814Y-193304D01*
X-96736Y-193207D01*
X-96648Y-193119D01*
X-96638Y-193109D01*
X-96628Y-193100D01*
X-96599Y-193080D01*
X-96560Y-193041D01*
X-96511Y-193012D01*
X-96453Y-192973D01*
X-96316Y-192885D01*
X-96141Y-192797D01*
X-95936Y-192719D01*
X-95711Y-192661D01*
X-95585Y-192651D01*
X-95458Y-192641D01*
X-95331D01*
X-95263Y-192651D01*
X-96482Y-190651D01*
X-94804D01*
X-94795Y-190671D01*
D02*
G37*
G36*
X-100003Y-196201D02*
X-100666D01*
X-103202Y-190651D01*
X-101603D01*
X-100325Y-193626D01*
X-99057Y-190651D01*
X-97477D01*
X-100003Y-196201D01*
D02*
G37*
G36*
X53215Y145462D02*
X52561Y145101D01*
X52551Y145110D01*
X52532Y145130D01*
X52493Y145159D01*
X52434Y145198D01*
X52376Y145237D01*
X52298Y145276D01*
X52210Y145315D01*
X52112Y145354D01*
X52103D01*
X52064Y145364D01*
X52005Y145384D01*
X51937Y145403D01*
X51849Y145413D01*
X51761Y145432D01*
X51556Y145452D01*
X51498D01*
X51439Y145442D01*
X51361Y145432D01*
X51274Y145413D01*
X51186Y145384D01*
X51088Y145344D01*
X51010Y145286D01*
X51000Y145276D01*
X50981Y145257D01*
X50942Y145218D01*
X50903Y145169D01*
X50864Y145101D01*
X50825Y145013D01*
X50796Y144915D01*
X50786Y144798D01*
Y144779D01*
Y144740D01*
X50796Y144681D01*
X50815Y144603D01*
X50844Y144525D01*
X50883Y144437D01*
X50942Y144350D01*
X51010Y144281D01*
X51020Y144272D01*
X51049Y144252D01*
X51098Y144233D01*
X51157Y144203D01*
X51235Y144164D01*
X51322Y144145D01*
X51420Y144125D01*
X51527Y144115D01*
X51566D01*
X51605Y144125D01*
X51664D01*
X51800Y144164D01*
X51869Y144184D01*
X51947Y144223D01*
X51956Y144233D01*
X51976Y144242D01*
X52015Y144272D01*
X52064Y144301D01*
X52171Y144398D01*
X52298Y144535D01*
X53488Y144008D01*
Y143998D01*
X53468Y143979D01*
X53449Y143950D01*
X53429Y143901D01*
X53351Y143794D01*
X53254Y143657D01*
X53127Y143501D01*
X52971Y143345D01*
X52805Y143199D01*
X52610Y143072D01*
X52600D01*
X52581Y143062D01*
X52551Y143043D01*
X52512Y143023D01*
X52463Y143004D01*
X52405Y142984D01*
X52259Y142926D01*
X52083Y142877D01*
X51878Y142828D01*
X51664Y142799D01*
X51430Y142789D01*
X51342D01*
X51274Y142799D01*
X51196Y142809D01*
X51098Y142818D01*
X51000Y142838D01*
X50883Y142857D01*
X50640Y142926D01*
X50386Y143023D01*
X50259Y143082D01*
X50132Y143150D01*
X50015Y143238D01*
X49898Y143326D01*
X49889Y143335D01*
X49869Y143355D01*
X49840Y143384D01*
X49801Y143423D01*
X49762Y143472D01*
X49703Y143540D01*
X49654Y143618D01*
X49596Y143706D01*
X49537Y143803D01*
X49479Y143911D01*
X49430Y144028D01*
X49381Y144155D01*
X49342Y144291D01*
X49303Y144437D01*
X49284Y144593D01*
X49274Y144759D01*
Y144769D01*
Y144798D01*
Y144837D01*
X49284Y144896D01*
X49294Y144964D01*
X49303Y145042D01*
X49342Y145227D01*
X49401Y145442D01*
X49489Y145666D01*
X49547Y145774D01*
X49616Y145891D01*
X49693Y145998D01*
X49781Y146096D01*
X49791Y146105D01*
X49801Y146115D01*
X49830Y146144D01*
X49869Y146173D01*
X49918Y146222D01*
X49976Y146261D01*
X50045Y146310D01*
X50132Y146359D01*
X50318Y146456D01*
X50542Y146544D01*
X50805Y146603D01*
X50942Y146622D01*
X51098Y146632D01*
X51235D01*
X51371Y146612D01*
X51517Y146593D01*
X51527D01*
X51547Y146583D01*
X51586Y146573D01*
X51625Y146564D01*
X51732Y146525D01*
X51849Y146476D01*
X51761Y147071D01*
X49771D01*
Y148368D01*
X52795D01*
X53215Y145462D01*
D02*
G37*
G36*
X46426Y142818D02*
X45763D01*
X43227Y148368D01*
X44826D01*
X46104Y145393D01*
X47372Y148368D01*
X48952D01*
X46426Y142818D01*
D02*
G37*
G36*
X77208Y142867D02*
X75755D01*
Y145052D01*
X74263Y142955D01*
X74253D01*
X72761Y145052D01*
Y142867D01*
X71308D01*
Y148427D01*
X71893D01*
X74263Y145188D01*
X76623Y148427D01*
X77208D01*
Y142867D01*
D02*
G37*
G36*
X83363Y148495D02*
X83441D01*
X83529Y148485D01*
X83626Y148466D01*
X83734Y148456D01*
X83977Y148407D01*
X84241Y148329D01*
X84504Y148231D01*
X84767Y148105D01*
X84777D01*
X84797Y148085D01*
X84836Y148066D01*
X84885Y148036D01*
X84933Y147997D01*
X85001Y147949D01*
X85158Y147832D01*
X85333Y147676D01*
X85509Y147500D01*
X85684Y147295D01*
X85850Y147061D01*
Y147051D01*
X85870Y147032D01*
X85889Y146993D01*
X85909Y146944D01*
X85938Y146885D01*
X85977Y146817D01*
X86016Y146729D01*
X86045Y146632D01*
X86123Y146417D01*
X86192Y146173D01*
X86230Y145910D01*
X86250Y145618D01*
Y145608D01*
Y145579D01*
Y145540D01*
X86240Y145481D01*
Y145413D01*
X86230Y145335D01*
X86221Y145237D01*
X86201Y145140D01*
X86152Y144915D01*
X86084Y144671D01*
X85987Y144418D01*
X85850Y144164D01*
X85840Y144155D01*
X85831Y144135D01*
X85811Y144106D01*
X85772Y144057D01*
X85733Y144008D01*
X85684Y143940D01*
X85567Y143794D01*
X85411Y143628D01*
X85216Y143462D01*
X85001Y143296D01*
X84758Y143140D01*
X84748D01*
X84728Y143121D01*
X84689Y143101D01*
X84631Y143082D01*
X84572Y143052D01*
X84494Y143023D01*
X84407Y142984D01*
X84299Y142945D01*
X84192Y142916D01*
X84065Y142877D01*
X83802Y142818D01*
X83509Y142769D01*
X83187Y142750D01*
X83109D01*
X83051Y142760D01*
X82983D01*
X82905Y142769D01*
X82807Y142779D01*
X82709Y142789D01*
X82485Y142828D01*
X82241Y142887D01*
X81997Y142974D01*
X81754Y143082D01*
X81744D01*
X81724Y143101D01*
X81695Y143121D01*
X81646Y143140D01*
X81529Y143218D01*
X81393Y143326D01*
X81227Y143462D01*
X81061Y143618D01*
X80895Y143813D01*
X80739Y144028D01*
Y144038D01*
X80720Y144057D01*
X80700Y144096D01*
X80681Y144135D01*
X80651Y144193D01*
X80622Y144272D01*
X80583Y144350D01*
X80544Y144447D01*
X80515Y144545D01*
X80476Y144662D01*
X80417Y144906D01*
X80378Y145188D01*
X80359Y145491D01*
Y145500D01*
Y145540D01*
Y145588D01*
Y145657D01*
X80369Y145735D01*
X80378Y145832D01*
X80398Y146027D01*
X83226D01*
Y144945D01*
X81958D01*
Y144925D01*
X81968Y144876D01*
X81988Y144808D01*
X82017Y144720D01*
X82056Y144613D01*
X82114Y144515D01*
X82202Y144408D01*
X82310Y144320D01*
X82319Y144311D01*
X82368Y144281D01*
X82436Y144252D01*
X82524Y144203D01*
X82651Y144164D01*
X82788Y144125D01*
X82943Y144096D01*
X83129Y144086D01*
X83158D01*
X83207Y144096D01*
X83256D01*
X83324Y144106D01*
X83392Y144115D01*
X83568Y144155D01*
X83763Y144213D01*
X83958Y144301D01*
X84153Y144418D01*
X84241Y144486D01*
X84328Y144564D01*
Y144574D01*
X84348Y144584D01*
X84397Y144642D01*
X84465Y144740D01*
X84543Y144867D01*
X84621Y145023D01*
X84699Y145198D01*
X84748Y145403D01*
X84758Y145510D01*
X84767Y145618D01*
Y145627D01*
Y145647D01*
X84758Y145686D01*
Y145725D01*
X84748Y145783D01*
X84738Y145852D01*
X84699Y145998D01*
X84650Y146173D01*
X84563Y146349D01*
X84455Y146534D01*
X84387Y146622D01*
X84309Y146700D01*
X84299Y146710D01*
X84290Y146720D01*
X84260Y146739D01*
X84231Y146769D01*
X84134Y146837D01*
X84007Y146915D01*
X83841Y147003D01*
X83656Y147071D01*
X83451Y147120D01*
X83217Y147149D01*
X83168D01*
X83109Y147139D01*
X83031Y147129D01*
X82934Y147110D01*
X82836Y147090D01*
X82729Y147051D01*
X82612Y147012D01*
X82602Y147003D01*
X82563Y146993D01*
X82505Y146964D01*
X82427Y146924D01*
X82339Y146876D01*
X82251Y146817D01*
X82066Y146671D01*
X81256Y147783D01*
X81276Y147793D01*
X81315Y147841D01*
X81393Y147900D01*
X81500Y147968D01*
X81627Y148046D01*
X81783Y148134D01*
X81949Y148222D01*
X82144Y148300D01*
X82154D01*
X82163Y148310D01*
X82192Y148319D01*
X82232Y148329D01*
X82339Y148358D01*
X82475Y148397D01*
X82641Y148436D01*
X82826Y148466D01*
X83012Y148495D01*
X83217Y148505D01*
X83304D01*
X83363Y148495D01*
D02*
G37*
G36*
X79627Y142867D02*
X78174D01*
Y148368D01*
X79627D01*
Y142867D01*
D02*
G37*
G36*
X70342D02*
X67962D01*
X67923Y142877D01*
X67864D01*
X67786Y142887D01*
X67708Y142896D01*
X67513Y142935D01*
X67299Y143004D01*
X67074Y143091D01*
X66860Y143208D01*
X66762Y143287D01*
X66665Y143374D01*
X66655Y143384D01*
X66645Y143394D01*
X66616Y143423D01*
X66587Y143462D01*
X66509Y143569D01*
X66411Y143706D01*
X66323Y143872D01*
X66245Y144076D01*
X66177Y144301D01*
X66167Y144418D01*
X66158Y144545D01*
Y144554D01*
Y144574D01*
Y144603D01*
X66167Y144652D01*
X66187Y144769D01*
X66216Y144915D01*
X66265Y145071D01*
X66333Y145247D01*
X66431Y145413D01*
X66557Y145569D01*
X66577Y145588D01*
X66626Y145627D01*
X66704Y145696D01*
X66801Y145764D01*
X66928Y145842D01*
X67074Y145900D01*
X67231Y145949D01*
X67406Y145969D01*
X67377D01*
X67338Y145978D01*
X67289Y145998D01*
X67231Y146037D01*
X67162Y146076D01*
X67094Y146144D01*
X67026Y146232D01*
X67016Y146242D01*
X66996Y146281D01*
X66957Y146339D01*
X66918Y146427D01*
X66879Y146525D01*
X66850Y146651D01*
X66821Y146788D01*
X66811Y146944D01*
Y146954D01*
Y146973D01*
Y147003D01*
X66821Y147042D01*
X66840Y147149D01*
X66879Y147285D01*
X66938Y147442D01*
X67016Y147607D01*
X67143Y147783D01*
X67211Y147861D01*
X67299Y147939D01*
X67309Y147949D01*
X67318Y147958D01*
X67347Y147978D01*
X67386Y148007D01*
X67435Y148036D01*
X67494Y148076D01*
X67630Y148153D01*
X67816Y148231D01*
X68021Y148300D01*
X68264Y148349D01*
X68538Y148368D01*
X70342D01*
Y142867D01*
D02*
G37*
G36*
X65943D02*
X64343D01*
X64070Y143511D01*
X62003D01*
X61729Y142867D01*
X60130D01*
X62695Y148446D01*
X63388D01*
X65943Y142867D01*
D02*
G37*
G36*
X59574D02*
X56004D01*
Y144233D01*
X58121D01*
Y148368D01*
X59574D01*
Y142867D01*
D02*
G37*
%LPC*%
G36*
X-175678Y-231084D02*
X-176540Y-233075D01*
X-174816D01*
X-175678Y-231084D01*
D02*
G37*
G36*
X-208680Y-229361D02*
X-209289D01*
X-209378Y-229375D01*
X-209467D01*
X-209586Y-229390D01*
X-209839Y-229435D01*
X-210121Y-229509D01*
X-210418Y-229613D01*
X-210716Y-229747D01*
X-210968Y-229940D01*
X-210983D01*
X-210998Y-229970D01*
X-211072Y-230044D01*
X-211176Y-230163D01*
X-211295Y-230341D01*
X-211399Y-230564D01*
X-211503Y-230832D01*
X-211577Y-231144D01*
X-211607Y-231322D01*
Y-231500D01*
Y-231515D01*
Y-231545D01*
Y-231590D01*
X-211592Y-231664D01*
X-211577Y-231842D01*
X-211533Y-232065D01*
X-211458Y-232303D01*
X-211340Y-232555D01*
X-211176Y-232808D01*
X-211087Y-232927D01*
X-210968Y-233031D01*
X-210938Y-233060D01*
X-210849Y-233120D01*
X-210716Y-233209D01*
X-210522Y-233298D01*
X-210270Y-233402D01*
X-209973Y-233491D01*
X-209616Y-233551D01*
X-209215Y-233581D01*
X-208680D01*
Y-229361D01*
D02*
G37*
G36*
X-222008Y-231084D02*
X-222870Y-233075D01*
X-221147D01*
X-222008Y-231084D01*
D02*
G37*
G36*
X-239809Y-231084D02*
X-240671Y-233075D01*
X-238948D01*
X-239809Y-231084D01*
D02*
G37*
G36*
X-95087Y-193655D02*
X-95136D01*
X-95185Y-193665D01*
X-95243Y-193685D01*
X-95312Y-193704D01*
X-95380Y-193734D01*
X-95458Y-193782D01*
X-95526Y-193841D01*
X-95536Y-193851D01*
X-95555Y-193870D01*
X-95585Y-193909D01*
X-95624Y-193968D01*
X-95653Y-194026D01*
X-95682Y-194104D01*
X-95711Y-194202D01*
X-95721Y-194299D01*
Y-194309D01*
Y-194348D01*
X-95711Y-194397D01*
X-95692Y-194465D01*
X-95673Y-194533D01*
X-95633Y-194611D01*
X-95585Y-194689D01*
X-95526Y-194758D01*
X-95516Y-194767D01*
X-95497Y-194787D01*
X-95458Y-194806D01*
X-95409Y-194846D01*
X-95341Y-194875D01*
X-95263Y-194904D01*
X-95185Y-194923D01*
X-95087Y-194933D01*
X-95048D01*
X-95000Y-194923D01*
X-94931Y-194904D01*
X-94863Y-194884D01*
X-94795Y-194855D01*
X-94717Y-194816D01*
X-94648Y-194758D01*
X-94639Y-194748D01*
X-94619Y-194728D01*
X-94590Y-194689D01*
X-94561Y-194631D01*
X-94522Y-194572D01*
X-94492Y-194494D01*
X-94473Y-194407D01*
X-94463Y-194309D01*
Y-194299D01*
Y-194260D01*
X-94473Y-194212D01*
X-94492Y-194143D01*
X-94512Y-194065D01*
X-94541Y-193987D01*
X-94590Y-193909D01*
X-94648Y-193841D01*
X-94658Y-193831D01*
X-94678Y-193812D01*
X-94717Y-193782D01*
X-94775Y-193753D01*
X-94834Y-193714D01*
X-94912Y-193685D01*
X-95000Y-193665D01*
X-95087Y-193655D01*
D02*
G37*
G36*
X68947Y147110D02*
X68547D01*
X68498Y147100D01*
X68450Y147090D01*
X68323Y147061D01*
X68196Y146993D01*
X68186D01*
X68167Y146973D01*
X68147Y146944D01*
X68118Y146915D01*
X68060Y146817D01*
X68040Y146749D01*
X68030Y146681D01*
Y146671D01*
Y146642D01*
X68040Y146603D01*
X68050Y146564D01*
X68079Y146505D01*
X68108Y146447D01*
X68147Y146398D01*
X68196Y146349D01*
X68206D01*
X68225Y146330D01*
X68255Y146310D01*
X68303Y146291D01*
X68362Y146271D01*
X68430Y146251D01*
X68508Y146242D01*
X68596Y146232D01*
X68947D01*
Y147110D01*
D02*
G37*
G36*
Y145237D02*
X68157D01*
X68099Y145227D01*
X68030Y145218D01*
X67874Y145169D01*
X67796Y145140D01*
X67728Y145091D01*
X67718Y145081D01*
X67699Y145071D01*
X67679Y145042D01*
X67640Y144993D01*
X67611Y144945D01*
X67582Y144886D01*
X67562Y144808D01*
X67552Y144720D01*
Y144711D01*
Y144671D01*
X67562Y144623D01*
X67582Y144564D01*
X67611Y144496D01*
X67640Y144437D01*
X67689Y144369D01*
X67757Y144311D01*
X67767Y144301D01*
X67796Y144291D01*
X67835Y144272D01*
X67884Y144252D01*
X67952Y144223D01*
X68030Y144203D01*
X68118Y144193D01*
X68216Y144184D01*
X68947D01*
Y145237D01*
D02*
G37*
G36*
X63036Y145881D02*
X62471Y144574D01*
X63602D01*
X63036Y145881D01*
D02*
G37*
%LPD*%
D58*
X268860Y35000D02*
G03*
X268860Y35000I-860J0D01*
G01*
X-91740Y-117105D02*
Y-3855D01*
Y-117105D02*
X-22740D01*
Y-3855D01*
X-91740D02*
X-74303D01*
X-22740D01*
X274000Y-5000D02*
Y50000D01*
X324000Y-5000D02*
Y50000D01*
X307000Y112000D02*
Y136000D01*
X201000Y112000D02*
X307000D01*
X201000D02*
Y136000D01*
X307000Y189250D02*
Y214000D01*
X201000D02*
X307000D01*
X201000Y189250D02*
Y214000D01*
X-173563Y-3750D02*
X-122000D01*
X-191000D02*
X-173563D01*
X-122000Y-117000D02*
Y-3750D01*
X-191000Y-117000D02*
X-122000D01*
X-191000D02*
Y-3750D01*
X-271563D02*
X-220000D01*
X-289000D02*
X-271563D01*
X-220000Y-117000D02*
Y-3750D01*
X-289000Y-117000D02*
X-220000D01*
X-289000D02*
Y-3750D01*
X131438Y-1750D02*
X183000D01*
X114000D02*
X131438D01*
X183000Y-115000D02*
Y-1750D01*
X114000Y-115000D02*
X183000D01*
X114000D02*
Y-1750D01*
X29437Y-1750D02*
X81000D01*
X12000D02*
X29437D01*
X81000Y-115000D02*
Y-1750D01*
X12000Y-115000D02*
X81000D01*
X12000D02*
Y-1750D01*
D59*
X219500Y95000D02*
X260250D01*
X219500Y39500D02*
Y95000D01*
Y39500D02*
X260250D01*
Y95000D01*
D60*
X-271900Y-136000D02*
Y-124000D01*
X-284000Y-136000D02*
X-271900D01*
X-286000Y-134000D02*
X-284000Y-136000D01*
X-288000D02*
X-286000Y-134000D01*
X-300100Y-136000D02*
X-288000D01*
X-300100D02*
Y-124000D01*
X-288000D01*
X-286000Y-126000D01*
X-284000Y-124000D01*
X-271900D01*
X-286000Y-129000D02*
Y-126000D01*
Y-134000D02*
Y-131000D01*
X-288000Y-129000D02*
X-284000D01*
X-288000Y-131000D02*
X-284000D01*
X-225000Y-129000D02*
X-221000D01*
X-225000Y-131000D02*
X-221000D01*
X-223000Y-129000D02*
Y-126000D01*
Y-134000D02*
Y-131000D01*
X-237100Y-136000D02*
X-225000D01*
X-223000Y-134000D01*
X-221000Y-136000D01*
X-208900D01*
Y-124000D01*
X-221000D02*
X-208900D01*
X-223000Y-126000D02*
X-221000Y-124000D01*
X-225000D02*
X-223000Y-126000D01*
X-237100Y-124000D02*
X-225000D01*
X-237100Y-136000D02*
Y-124000D01*
X-191000Y-132000D02*
X-187000D01*
X-191000Y-130000D02*
X-187000D01*
X-189000Y-135000D02*
Y-132000D01*
Y-130000D02*
Y-127000D01*
X-187000Y-125000D02*
X-174900D01*
X-189000Y-127000D02*
X-187000Y-125000D01*
X-191000D02*
X-189000Y-127000D01*
X-203100Y-125000D02*
X-191000D01*
X-203100Y-137000D02*
Y-125000D01*
Y-137000D02*
X-191000D01*
X-189000Y-135000D01*
X-187000Y-137000D01*
X-174900D01*
Y-125000D01*
X-127000Y-130000D02*
X-123000D01*
X-127000Y-132000D02*
X-123000D01*
X-125000Y-130000D02*
Y-127000D01*
Y-135000D02*
Y-132000D01*
X-139100Y-137000D02*
X-127000D01*
X-125000Y-135000D01*
X-123000Y-137000D01*
X-110900D01*
Y-125000D01*
X-123000D02*
X-110900D01*
X-125000Y-127000D02*
X-123000Y-125000D01*
X-127000D02*
X-125000Y-127000D01*
X-139100Y-125000D02*
X-127000D01*
X-139100Y-137000D02*
Y-125000D01*
X-92000Y-131000D02*
X-88000D01*
X-92000Y-129000D02*
X-88000D01*
X-90000Y-134000D02*
Y-131000D01*
Y-129000D02*
Y-126000D01*
X-88000Y-124000D02*
X-75900D01*
X-90000Y-126000D02*
X-88000Y-124000D01*
X-92000D02*
X-90000Y-126000D01*
X-104100Y-124000D02*
X-92000D01*
X-104100Y-136000D02*
Y-124000D01*
Y-136000D02*
X-92000D01*
X-90000Y-134000D01*
X-88000Y-136000D01*
X-75900D01*
Y-124000D01*
X-28000Y-129000D02*
X-24000D01*
X-28000Y-131000D02*
X-24000D01*
X-26000Y-129000D02*
Y-126000D01*
Y-134000D02*
Y-131000D01*
X-40100Y-136000D02*
X-28000D01*
X-26000Y-134000D01*
X-24000Y-136000D01*
X-11900D01*
Y-124000D01*
X-24000D02*
X-11900D01*
X-26000Y-126000D02*
X-24000Y-124000D01*
X-28000D02*
X-26000Y-126000D01*
X-40100Y-124000D02*
X-28000D01*
X-40100Y-136000D02*
Y-124000D01*
X12000Y-129000D02*
X16000D01*
X12000Y-127000D02*
X16000D01*
X14000Y-132000D02*
Y-129000D01*
Y-127000D02*
Y-124000D01*
X16000Y-122000D02*
X28100D01*
X14000Y-124000D02*
X16000Y-122000D01*
X12000D02*
X14000Y-124000D01*
X-100Y-122000D02*
X12000D01*
X-100Y-134000D02*
Y-122000D01*
Y-134000D02*
X12000D01*
X14000Y-132000D01*
X16000Y-134000D01*
X28100D01*
Y-122000D01*
X77000Y-127000D02*
X81000D01*
X77000Y-129000D02*
X81000D01*
X79000Y-127000D02*
Y-124000D01*
Y-132000D02*
Y-129000D01*
X64900Y-134000D02*
X77000D01*
X79000Y-132000D01*
X81000Y-134000D01*
X93100D01*
Y-122000D01*
X81000D02*
X93100D01*
X79000Y-124000D02*
X81000Y-122000D01*
X77000D02*
X79000Y-124000D01*
X64900Y-122000D02*
X77000D01*
X64900Y-134000D02*
Y-122000D01*
X114000Y-130000D02*
X118000D01*
X114000Y-128000D02*
X118000D01*
X116000Y-133000D02*
Y-130000D01*
Y-128000D02*
Y-125000D01*
X118000Y-123000D02*
X130100D01*
X116000Y-125000D02*
X118000Y-123000D01*
X114000D02*
X116000Y-125000D01*
X101900Y-123000D02*
X114000D01*
X101900Y-135000D02*
Y-123000D01*
Y-135000D02*
X114000D01*
X116000Y-133000D01*
X118000Y-135000D01*
X130100D01*
Y-123000D01*
X165900Y-135000D02*
Y-123000D01*
X178000D01*
X180000Y-125000D01*
X182000Y-123000D01*
X194100D01*
Y-135000D02*
Y-123000D01*
X182000Y-135000D02*
X194100D01*
X180000Y-133000D02*
X182000Y-135000D01*
X178000D02*
X180000Y-133000D01*
X165900Y-135000D02*
X178000D01*
X180000Y-133000D02*
Y-130000D01*
Y-128000D02*
Y-125000D01*
X178000Y-130000D02*
X182000D01*
X178000Y-128000D02*
X182000D01*
X-114000Y-147750D02*
X-86000D01*
Y-160250D02*
Y-147750D01*
X-100000Y-150190D02*
Y-147750D01*
X-101270Y-151460D02*
X-100000Y-150190D01*
X-101270Y-151460D02*
X-98730Y-154000D01*
X-101270Y-156540D02*
X-98730Y-154000D01*
X-101270Y-156540D02*
X-100000Y-157810D01*
Y-160250D02*
Y-157810D01*
X-114000Y-160250D02*
X-86000D01*
X-114000D02*
Y-147750D01*
X-116000Y-183500D02*
X-83875D01*
X-116000D02*
Y-164500D01*
X-83875Y-183500D02*
X-79000Y-180250D01*
X-116000Y-164500D02*
X-83875D01*
X-79000Y-167750D01*
Y-180250D02*
Y-167750D01*
X54875Y176500D02*
X87000D01*
Y157500D02*
Y176500D01*
X50000Y173250D02*
X54875Y176500D01*
Y157500D02*
X87000D01*
X50000Y160750D02*
X54875Y157500D01*
X50000Y160750D02*
Y173250D01*
X216100Y70000D02*
Y82000D01*
X204000Y70000D02*
X216100D01*
X202000Y72000D02*
X204000Y70000D01*
X200000D02*
X202000Y72000D01*
X187900Y70000D02*
X200000D01*
X187900D02*
Y82000D01*
X200000D01*
X202000Y80000D01*
X204000Y82000D01*
X216100D01*
X202000Y77000D02*
Y80000D01*
Y72000D02*
Y75000D01*
X200000Y77000D02*
X204000D01*
X200000Y75000D02*
X204000D01*
X188000Y69250D02*
X216000D01*
Y56750D02*
Y69250D01*
X202000Y66810D02*
Y69250D01*
X200730Y65540D02*
X202000Y66810D01*
X200730Y65540D02*
X203270Y63000D01*
X200730Y60460D02*
X203270Y63000D01*
X200730Y60460D02*
X202000Y59190D01*
Y56750D02*
Y59190D01*
X188000Y56750D02*
X216000D01*
X188000D02*
Y69250D01*
X187900Y44000D02*
Y56000D01*
X200000D01*
X202000Y54000D01*
X204000Y56000D01*
X216100D01*
Y44000D02*
Y56000D01*
X204000Y44000D02*
X216100D01*
X202000Y46000D02*
X204000Y44000D01*
X200000D02*
X202000Y46000D01*
X187900Y44000D02*
X200000D01*
X202000Y46000D02*
Y49000D01*
Y51000D02*
Y54000D01*
X200000Y49000D02*
X204000D01*
X200000Y51000D02*
X204000D01*
X188000Y42250D02*
X216000D01*
Y29750D02*
Y42250D01*
X202000Y39810D02*
Y42250D01*
X200730Y38540D02*
X202000Y39810D01*
X200730Y38540D02*
X203270Y36000D01*
X200730Y33460D02*
X203270Y36000D01*
X200730Y33460D02*
X202000Y32190D01*
Y29750D02*
Y32190D01*
X188000Y29750D02*
X216000D01*
X188000D02*
Y42250D01*
X231100Y13000D02*
Y25000D01*
X219000Y13000D02*
X231100D01*
X217000Y15000D02*
X219000Y13000D01*
X215000D02*
X217000Y15000D01*
X202900Y13000D02*
X215000D01*
X202900D02*
Y25000D01*
X215000D01*
X217000Y23000D01*
X219000Y25000D01*
X231100D01*
X217000Y20000D02*
Y23000D01*
Y15000D02*
Y18000D01*
X215000Y20000D02*
X219000D01*
X215000Y18000D02*
X219000D01*
X257000Y-9000D02*
Y37000D01*
X235000Y-9000D02*
X257000D01*
X235000Y37000D02*
X257000D01*
X235000Y-9000D02*
Y37000D01*
X269650Y94250D02*
Y106250D01*
X281750D01*
X283750Y104250D01*
X285750Y106250D01*
X297850D01*
Y94250D02*
Y106250D01*
X285750Y94250D02*
X297850D01*
X283750Y96250D02*
X285750Y94250D01*
X281750D02*
X283750Y96250D01*
X269650Y94250D02*
X281750D01*
X283750Y96250D02*
Y99250D01*
Y101250D02*
Y104250D01*
X281750Y99250D02*
X285750D01*
X281750Y101250D02*
X285750D01*
X178750Y94000D02*
Y122000D01*
X191250D01*
X178750Y108000D02*
X181190D01*
X182460Y106730D01*
X185000Y109270D01*
X187540Y106730D01*
X188810Y108000D01*
X191250D01*
Y94000D02*
Y122000D01*
X178750Y94000D02*
X191250D01*
X134000Y143000D02*
Y189000D01*
X112000Y143000D02*
X134000D01*
X112000Y189000D02*
X134000D01*
X112000Y143000D02*
Y189000D01*
X166000Y143000D02*
Y189000D01*
X144000Y143000D02*
X166000D01*
X144000Y189000D02*
X166000D01*
X144000Y143000D02*
Y189000D01*
X159750Y122000D02*
X172250D01*
X159750Y94000D02*
Y122000D01*
Y108000D02*
X162190D01*
X163460Y109270D01*
X166000Y106730D01*
X168540Y109270D01*
X169810Y108000D01*
X172250D01*
X159750Y94000D02*
X172250D01*
Y122000D01*
X92750Y173000D02*
X105250D01*
X92750Y145000D02*
Y173000D01*
Y159000D02*
X95190D01*
X96460Y160270D01*
X99000Y157730D01*
X101540Y160270D01*
X102810Y159000D01*
X105250D01*
X92750Y145000D02*
X105250D01*
Y173000D01*
X129459Y200486D02*
X130459Y201486D01*
X132458D01*
X133458Y200486D01*
Y196488D01*
X132458Y195488D01*
X130459D01*
X129459Y196488D01*
X127460Y195488D02*
X125461D01*
X126460D01*
Y201486D01*
X127460Y200486D01*
X122462D02*
X121462Y201486D01*
X119462D01*
X118463Y200486D01*
Y196488D01*
X119462Y195488D01*
X121462D01*
X122462Y196488D01*
Y200486D01*
X161463D02*
X162463Y201486D01*
X164462D01*
X165462Y200486D01*
Y196488D01*
X164462Y195488D01*
X162463D01*
X161463Y196488D01*
X159464D02*
X158464Y195488D01*
X156465D01*
X155465Y196488D01*
Y200486D01*
X156465Y201486D01*
X158464D01*
X159464Y200486D01*
Y199487D01*
X158464Y198487D01*
X155465D01*
X-281501Y-143501D02*
X-280502Y-142501D01*
X-278502D01*
X-277503Y-143501D01*
Y-147499D01*
X-278502Y-148499D01*
X-280502D01*
X-281501Y-147499D01*
X-287499Y-148499D02*
X-283501D01*
X-287499Y-144500D01*
Y-143501D01*
X-286500Y-142501D01*
X-284500D01*
X-283501Y-143501D01*
X-292498Y-148499D02*
Y-142501D01*
X-289499Y-145500D01*
X-293497D01*
X-184501Y-143001D02*
X-183502Y-142001D01*
X-181502D01*
X-180503Y-143001D01*
Y-146999D01*
X-181502Y-147999D01*
X-183502D01*
X-184501Y-146999D01*
X-190499Y-147999D02*
X-186501D01*
X-190499Y-144000D01*
Y-143001D01*
X-189500Y-142001D01*
X-187500D01*
X-186501Y-143001D01*
X-196497Y-147999D02*
X-192499D01*
X-196497Y-144000D01*
Y-143001D01*
X-195498Y-142001D01*
X-193498D01*
X-192499Y-143001D01*
X-59001Y-128251D02*
X-58002Y-127251D01*
X-56002D01*
X-55003Y-128251D01*
Y-132249D01*
X-56002Y-133249D01*
X-58002D01*
X-59001Y-132249D01*
X-64999Y-133249D02*
X-61001D01*
X-64999Y-129250D01*
Y-128251D01*
X-64000Y-127251D01*
X-62000D01*
X-61001Y-128251D01*
X-66999D02*
X-67998Y-127251D01*
X-69998D01*
X-70997Y-128251D01*
Y-132249D01*
X-69998Y-133249D01*
X-67998D01*
X-66999Y-132249D01*
Y-128251D01*
X17999Y-143001D02*
X18999Y-142001D01*
X20998D01*
X21997Y-143001D01*
Y-146999D01*
X20998Y-147999D01*
X18999D01*
X17999Y-146999D01*
X15999Y-147999D02*
X14000D01*
X15000D01*
Y-142001D01*
X15999Y-143001D01*
X11001D02*
X10001Y-142001D01*
X8002D01*
X7002Y-143001D01*
Y-144000D01*
X8002Y-145000D01*
X7002Y-146000D01*
Y-146999D01*
X8002Y-147999D01*
X10001D01*
X11001Y-146999D01*
Y-146000D01*
X10001Y-145000D01*
X11001Y-144000D01*
Y-143001D01*
X10001Y-145000D02*
X8002D01*
X119499Y-143001D02*
X120499Y-142001D01*
X122498D01*
X123497Y-143001D01*
Y-146999D01*
X122498Y-147999D01*
X120499D01*
X119499Y-146999D01*
X117500Y-147999D02*
X115500D01*
X116500D01*
Y-142001D01*
X117500Y-143001D01*
X108502Y-142001D02*
X110502Y-143001D01*
X112501Y-145000D01*
Y-146999D01*
X111502Y-147999D01*
X109502D01*
X108502Y-146999D01*
Y-146000D01*
X109502Y-145000D01*
X112501D01*
X-220110Y9208D02*
Y4210D01*
X-221110Y3210D01*
X-223109D01*
X-224109Y4210D01*
Y9208D01*
X-226108D02*
X-230107D01*
Y8208D01*
X-226108Y4210D01*
Y3210D01*
X-122066Y9208D02*
Y4210D01*
X-123066Y3210D01*
X-125065D01*
X-126065Y4210D01*
Y9208D01*
X-132063D02*
X-130063Y8208D01*
X-128064Y6209D01*
Y4210D01*
X-129064Y3210D01*
X-131063D01*
X-132063Y4210D01*
Y5209D01*
X-131063Y6209D01*
X-128064D01*
X-22752Y9208D02*
Y4210D01*
X-23752Y3210D01*
X-25751D01*
X-26751Y4210D01*
Y9208D01*
X-32749D02*
X-28750D01*
Y6209D01*
X-30749Y7209D01*
X-31749D01*
X-32749Y6209D01*
Y4210D01*
X-31749Y3210D01*
X-29750D01*
X-28750Y4210D01*
X80880Y11240D02*
Y6242D01*
X79880Y5242D01*
X77881D01*
X76881Y6242D01*
Y11240D01*
X71883Y5242D02*
Y11240D01*
X74882Y8241D01*
X70883D01*
X182988Y11240D02*
Y6242D01*
X181988Y5242D01*
X179989D01*
X178989Y6242D01*
Y11240D01*
X176990Y10240D02*
X175990Y11240D01*
X173991D01*
X172991Y10240D01*
Y9241D01*
X173991Y8241D01*
X174991D01*
X173991D01*
X172991Y7241D01*
Y6242D01*
X173991Y5242D01*
X175990D01*
X176990Y6242D01*
X279498Y80999D02*
Y76001D01*
X278499Y75001D01*
X276499D01*
X275500Y76001D01*
Y80999D01*
X269502Y75001D02*
X273500D01*
X269502Y79000D01*
Y79999D01*
X270501Y80999D01*
X272501D01*
X273500Y79999D01*
X104756Y179486D02*
Y185484D01*
X101757D01*
X100757Y184484D01*
Y182485D01*
X101757Y181485D01*
X104756D01*
X102757D02*
X100757Y179486D01*
X94759D02*
X98758D01*
X94759Y183485D01*
Y184484D01*
X95759Y185484D01*
X97758D01*
X98758Y184484D01*
X92760D02*
X91760Y185484D01*
X89761D01*
X88761Y184484D01*
Y180486D01*
X89761Y179486D01*
X91760D01*
X92760Y180486D01*
Y184484D01*
X-65752Y-157749D02*
Y-151751D01*
X-68752D01*
X-69751Y-152751D01*
Y-154750D01*
X-68752Y-155750D01*
X-65752D01*
X-67752D02*
X-69751Y-157749D01*
X-71750D02*
X-73750D01*
X-72750D01*
Y-151751D01*
X-71750Y-152751D01*
X-76749Y-156749D02*
X-77748Y-157749D01*
X-79748D01*
X-80748Y-156749D01*
Y-152751D01*
X-79748Y-151751D01*
X-77748D01*
X-76749Y-152751D01*
Y-153750D01*
X-77748Y-154750D01*
X-80748D01*
X181998Y31501D02*
Y37499D01*
X178999D01*
X178000Y36499D01*
Y34500D01*
X178999Y33500D01*
X181998D01*
X179999D02*
X178000Y31501D01*
X176000Y36499D02*
X175001Y37499D01*
X173001D01*
X172002Y36499D01*
Y35500D01*
X173001Y34500D01*
X172002Y33500D01*
Y32501D01*
X173001Y31501D01*
X175001D01*
X176000Y32501D01*
Y33500D01*
X175001Y34500D01*
X176000Y35500D01*
Y36499D01*
X175001Y34500D02*
X173001D01*
X181998Y60751D02*
Y66749D01*
X178999D01*
X178000Y65749D01*
Y63750D01*
X178999Y62750D01*
X181998D01*
X179999D02*
X178000Y60751D01*
X176000Y66749D02*
X172002D01*
Y65749D01*
X176000Y61751D01*
Y60751D01*
X171812Y128686D02*
Y134684D01*
X168813D01*
X167813Y133684D01*
Y131685D01*
X168813Y130685D01*
X171812D01*
X169813D02*
X167813Y128686D01*
X161815Y134684D02*
X163815Y133684D01*
X165814Y131685D01*
Y129686D01*
X164814Y128686D01*
X162815D01*
X161815Y129686D01*
Y130685D01*
X162815Y131685D01*
X165814D01*
X190862Y128686D02*
Y134684D01*
X187863D01*
X186863Y133684D01*
Y131685D01*
X187863Y130685D01*
X190862D01*
X188863D02*
X186863Y128686D01*
X180865Y134684D02*
X184864D01*
Y131685D01*
X182865Y132685D01*
X181865D01*
X180865Y131685D01*
Y129686D01*
X181865Y128686D01*
X183864D01*
X184864Y129686D01*
X319249Y202502D02*
X313251D01*
Y206500D01*
Y212498D02*
Y208500D01*
X317250Y212498D01*
X318249D01*
X319249Y211499D01*
Y209499D01*
X318249Y208500D01*
X43498Y170499D02*
Y164501D01*
X40498D01*
X39499Y165501D01*
Y169499D01*
X40498Y170499D01*
X43498D01*
X37499Y164501D02*
X35500D01*
X36500D01*
Y170499D01*
X37499Y169499D01*
X32501D02*
X31502Y170499D01*
X29502D01*
X28502Y169499D01*
Y168500D01*
X29502Y167500D01*
X30502D01*
X29502D01*
X28502Y166500D01*
Y165501D01*
X29502Y164501D01*
X31502D01*
X32501Y165501D01*
X-57252Y-171501D02*
Y-177499D01*
X-60251D01*
X-61251Y-176499D01*
Y-172501D01*
X-60251Y-171501D01*
X-57252D01*
X-63250Y-177499D02*
X-65250D01*
X-64250D01*
Y-171501D01*
X-63250Y-172501D01*
X-72248Y-177499D02*
X-68249D01*
X-72248Y-173500D01*
Y-172501D01*
X-71248Y-171501D01*
X-69249D01*
X-68249Y-172501D01*
X340748Y47999D02*
Y42001D01*
X337749D01*
X336750Y43001D01*
Y46999D01*
X337749Y47999D01*
X340748D01*
X330752Y42001D02*
X334750D01*
X330752Y46000D01*
Y46999D01*
X331751Y47999D01*
X333751D01*
X334750Y46999D01*
X-218501Y-142501D02*
X-217502Y-141501D01*
X-215502D01*
X-214503Y-142501D01*
Y-146499D01*
X-215502Y-147499D01*
X-217502D01*
X-218501Y-146499D01*
X-224499Y-147499D02*
X-220501D01*
X-224499Y-143500D01*
Y-142501D01*
X-223500Y-141501D01*
X-221500D01*
X-220501Y-142501D01*
X-226499D02*
X-227498Y-141501D01*
X-229498D01*
X-230497Y-142501D01*
Y-143500D01*
X-229498Y-144500D01*
X-228498D01*
X-229498D01*
X-230497Y-145500D01*
Y-146499D01*
X-229498Y-147499D01*
X-227498D01*
X-226499Y-146499D01*
X-154251Y-127751D02*
X-153251Y-126751D01*
X-151252D01*
X-150252Y-127751D01*
Y-131749D01*
X-151252Y-132749D01*
X-153251D01*
X-154251Y-131749D01*
X-160249Y-132749D02*
X-156250D01*
X-160249Y-128750D01*
Y-127751D01*
X-159249Y-126751D01*
X-157250D01*
X-156250Y-127751D01*
X-162248Y-132749D02*
X-164248D01*
X-163248D01*
Y-126751D01*
X-162248Y-127751D01*
X-22751Y-143501D02*
X-21751Y-142501D01*
X-19752D01*
X-18752Y-143501D01*
Y-147499D01*
X-19752Y-148499D01*
X-21751D01*
X-22751Y-147499D01*
X-24750Y-148499D02*
X-26750D01*
X-25750D01*
Y-142501D01*
X-24750Y-143501D01*
X-29749Y-147499D02*
X-30749Y-148499D01*
X-32748D01*
X-33748Y-147499D01*
Y-143501D01*
X-32748Y-142501D01*
X-30749D01*
X-29749Y-143501D01*
Y-144500D01*
X-30749Y-145500D01*
X-33748D01*
X82749Y-143501D02*
X83749Y-142501D01*
X85748D01*
X86748Y-143501D01*
Y-147499D01*
X85748Y-148499D01*
X83749D01*
X82749Y-147499D01*
X80750Y-148499D02*
X78750D01*
X79750D01*
Y-142501D01*
X80750Y-143501D01*
X75751Y-142501D02*
X71752D01*
Y-143501D01*
X75751Y-147499D01*
Y-148499D01*
X184749Y-142501D02*
X185749Y-141501D01*
X187748D01*
X188748Y-142501D01*
Y-146499D01*
X187748Y-147499D01*
X185749D01*
X184749Y-146499D01*
X182750Y-147499D02*
X180750D01*
X181750D01*
Y-141501D01*
X182750Y-142501D01*
X173752Y-141501D02*
X177751D01*
Y-144500D01*
X175752Y-143500D01*
X174752D01*
X173752Y-144500D01*
Y-146499D01*
X174752Y-147499D01*
X176751D01*
X177751Y-146499D01*
X178249Y53249D02*
X179249Y54249D01*
X181248D01*
X182248Y53249D01*
Y49251D01*
X181248Y48251D01*
X179249D01*
X178249Y49251D01*
X176250Y48251D02*
X174250D01*
X175250D01*
Y54249D01*
X176250Y53249D01*
X168252Y48251D02*
Y54249D01*
X171251Y51250D01*
X167252D01*
X178749Y79999D02*
X179748Y80999D01*
X181748D01*
X182747Y79999D01*
Y76001D01*
X181748Y75001D01*
X179748D01*
X178749Y76001D01*
X176749Y75001D02*
X174750D01*
X175750D01*
Y80999D01*
X176749Y79999D01*
X171751D02*
X170751Y80999D01*
X168752D01*
X167752Y79999D01*
Y79000D01*
X168752Y78000D01*
X169752D01*
X168752D01*
X167752Y77000D01*
Y76001D01*
X168752Y75001D01*
X170751D01*
X171751Y76001D01*
X225749Y6499D02*
X226749Y7499D01*
X228748D01*
X229748Y6499D01*
Y2501D01*
X228748Y1501D01*
X226749D01*
X225749Y2501D01*
X223750Y1501D02*
X221750D01*
X222750D01*
Y7499D01*
X223750Y6499D01*
X214752Y1501D02*
X218751D01*
X214752Y5500D01*
Y6499D01*
X215752Y7499D01*
X217752D01*
X218751Y6499D01*
X253999Y-16001D02*
X254999Y-15001D01*
X256998D01*
X257998Y-16001D01*
Y-19999D01*
X256998Y-20999D01*
X254999D01*
X253999Y-19999D01*
X252000Y-20999D02*
X250000D01*
X251000D01*
Y-15001D01*
X252000Y-16001D01*
X247001Y-20999D02*
X245002D01*
X246002D01*
Y-15001D01*
X247001Y-16001D01*
X311000Y102999D02*
X311999Y103999D01*
X313999D01*
X314998Y102999D01*
Y99001D01*
X313999Y98001D01*
X311999D01*
X311000Y99001D01*
X309000Y102999D02*
X308001Y103999D01*
X306001D01*
X305002Y102999D01*
Y102000D01*
X306001Y101000D01*
X305002Y100000D01*
Y99001D01*
X306001Y98001D01*
X308001D01*
X309000Y99001D01*
Y100000D01*
X308001Y101000D01*
X309000Y102000D01*
Y102999D01*
X308001Y101000D02*
X306001D01*
D61*
X-80000Y-180600D02*
Y-167400D01*
X51000Y160400D02*
Y173600D01*
%TF.MD5,4f5946705355fb3bf69190f306cb8c62*%
M02*
