%TF.GenerationSoftware,Altium Limited,Altium Designer,22.5.1 (42)*%
G04 Layer_Color=128*
%FSLAX44Y44*%
%MOMM*%
%TF.SameCoordinates,01627914-4FCA-44A5-8146-F6A238B5A28C*%
%TF.FilePolarity,Positive*%
%TF.FileFunction,Paste,Bot*%
%TF.Part,Single*%
G01*
G75*
%TA.AperFunction,SMDPad,CuDef*%
%ADD10R,1.1600X1.4700*%
%ADD14R,0.8000X0.8000*%
%ADD15R,0.8500X0.8500*%
%ADD18R,0.8500X0.8500*%
%ADD26R,1.6000X1.0000*%
%ADD27R,3.6000X5.3500*%
%ADD28R,1.5000X1.8500*%
%ADD53R,0.4000X1.0000*%
%ADD54R,3.0000X2.6000*%
%ADD55R,1.2000X2.0000*%
%ADD56R,5.8000X5.8500*%
G04:AMPARAMS|DCode=57|XSize=4.2mm|YSize=4.2mm|CornerRadius=0.21mm|HoleSize=0mm|Usage=FLASHONLY|Rotation=180.000|XOffset=0mm|YOffset=0mm|HoleType=Round|Shape=RoundedRectangle|*
%AMROUNDEDRECTD57*
21,1,4.2000,3.7800,0,0,180.0*
21,1,3.7800,4.2000,0,0,180.0*
1,1,0.4200,-1.8900,1.8900*
1,1,0.4200,1.8900,1.8900*
1,1,0.4200,1.8900,-1.8900*
1,1,0.4200,-1.8900,-1.8900*
%
%ADD57ROUNDEDRECTD57*%
D10*
X-107900Y-174000D02*
D03*
X-90100D02*
D03*
X78900Y167000D02*
D03*
X61100D02*
D03*
D14*
X-278000Y-130000D02*
D03*
X-294000D02*
D03*
X-215000D02*
D03*
X-231000D02*
D03*
X-197000Y-131000D02*
D03*
X-181000D02*
D03*
X-117000D02*
D03*
X-133000D02*
D03*
X-98000Y-130000D02*
D03*
X-82000D02*
D03*
X-18000D02*
D03*
X-34000D02*
D03*
X6000Y-128000D02*
D03*
X22000D02*
D03*
X87000D02*
D03*
X71000D02*
D03*
X108000Y-129000D02*
D03*
X124000D02*
D03*
X172000D02*
D03*
X188000D02*
D03*
X210000Y76000D02*
D03*
X194000D02*
D03*
Y50000D02*
D03*
X210000D02*
D03*
X225000Y19000D02*
D03*
X209000D02*
D03*
X275750Y100250D02*
D03*
X291750D02*
D03*
D15*
X185000Y115750D02*
D03*
Y100250D02*
D03*
X166000Y115750D02*
D03*
Y100250D02*
D03*
X99000Y166750D02*
D03*
Y151250D02*
D03*
D18*
X-92250Y-154000D02*
D03*
X-107750D02*
D03*
X209750Y63000D02*
D03*
X194250D02*
D03*
X209750Y36000D02*
D03*
X194250D02*
D03*
D26*
X246000Y29000D02*
D03*
Y-1000D02*
D03*
X123000Y181000D02*
D03*
Y151000D02*
D03*
X155000Y181000D02*
D03*
Y151000D02*
D03*
D27*
X299000Y35000D02*
D03*
D28*
X309500Y-8000D02*
D03*
X288500D02*
D03*
D53*
X256000Y87000D02*
D03*
X248000D02*
D03*
X240000D02*
D03*
X232000D02*
D03*
X224000D02*
D03*
Y47000D02*
D03*
X232000D02*
D03*
X240000D02*
D03*
X248000D02*
D03*
X256000D02*
D03*
D54*
X240000Y67000D02*
D03*
D55*
X-81490Y-103230D02*
D03*
X-33990D02*
D03*
X-133250Y-103125D02*
D03*
X-180750D02*
D03*
X-231250D02*
D03*
X-278750D02*
D03*
X171750Y-101125D02*
D03*
X124250D02*
D03*
X69750Y-101125D02*
D03*
X22250D02*
D03*
D56*
X-57740Y-36980D02*
D03*
X-157000Y-36875D02*
D03*
X-255000D02*
D03*
X148000Y-34875D02*
D03*
X46000Y-34875D02*
D03*
D57*
X207000Y163000D02*
D03*
X301000D02*
D03*
%TF.MD5,b2e41999ddd985928ec823863b7cf4eb*%
M02*
