%TF.GenerationSoftware,Altium Limited,Altium Designer,22.5.1 (42)*%
G04 Layer_Color=0*
%FSLAX44Y44*%
%MOMM*%
%TF.SameCoordinates,01627914-4FCA-44A5-8146-F6A238B5A28C*%
%TF.FilePolarity,Positive*%
%TF.FileFunction,Plated,1,4,PTH,Drill*%
%TF.Part,Single*%
G01*
G75*
%TA.AperFunction,ComponentDrill*%
%ADD112C,3.0000*%
%ADD113C,0.9000*%
%ADD114C,1.6000*%
%ADD115C,1.6000*%
%ADD116C,1.0000*%
%ADD117C,2.3000*%
%ADD118C,2.7000*%
%ADD119R,0.6000X1.7000*%
%ADD120O,0.6000X1.5000*%
%ADD121O,1.5000X0.6000*%
%ADD122C,2.7000*%
%ADD123R,1.7000X0.6000*%
%TA.AperFunction,ViaDrill,NotFilled*%
%ADD124C,0.4000*%
%ADD125C,0.7112*%
D112*
X355000Y-262000D02*
D03*
X-355000Y262000D02*
D03*
Y-262000D02*
D03*
X355000Y262000D02*
D03*
D113*
X-270000Y106300D02*
D03*
Y131700D02*
D03*
X-357000Y-89600D02*
D03*
Y-140400D02*
D03*
Y-216600D02*
D03*
Y-191200D02*
D03*
Y-165800D02*
D03*
X-357000Y-115000D02*
D03*
X-357000Y-64200D02*
D03*
X-357700Y70800D02*
D03*
X-332300D02*
D03*
X-357700Y20000D02*
D03*
X-332300D02*
D03*
X-357700Y-30800D02*
D03*
Y-5400D02*
D03*
X-332300D02*
D03*
Y-30800D02*
D03*
Y45400D02*
D03*
X-357700D02*
D03*
X-357400Y181000D02*
D03*
X-332000D02*
D03*
Y104800D02*
D03*
Y130200D02*
D03*
X-357400D02*
D03*
Y104800D02*
D03*
X-332000Y155600D02*
D03*
X-357400D02*
D03*
X-332000Y206400D02*
D03*
X-357400D02*
D03*
D114*
X361000Y160000D02*
D03*
Y120400D02*
D03*
Y199600D02*
D03*
Y66000D02*
D03*
Y-13200D02*
D03*
Y26400D02*
D03*
D115*
X119000Y238000D02*
D03*
X158600D02*
D03*
X79400D02*
D03*
X213400Y237000D02*
D03*
X292600D02*
D03*
X253000D02*
D03*
X258000Y-239000D02*
D03*
X218400D02*
D03*
X297600D02*
D03*
X-291600Y242000D02*
D03*
X-212400D02*
D03*
X-252000D02*
D03*
X-118000Y239000D02*
D03*
X-78400D02*
D03*
X-157600D02*
D03*
D116*
X-206200Y-171400D02*
D03*
X-181200Y-171400D02*
D03*
X-226200Y-171400D02*
D03*
X-251200D02*
D03*
D117*
X-281900Y-198500D02*
D03*
X-150500D02*
D03*
D118*
X-4000Y-222000D02*
D03*
X-76000D02*
D03*
D119*
X27500Y-282000D02*
D03*
X-107500D02*
D03*
D120*
X145000Y-253000D02*
D03*
X-29000Y259000D02*
D03*
D121*
X118000Y-278000D02*
D03*
Y-228000D02*
D03*
X-2000Y284000D02*
D03*
Y234000D02*
D03*
D122*
X305000Y-94000D02*
D03*
Y-166000D02*
D03*
D123*
X365000Y-62500D02*
D03*
Y-197500D02*
D03*
D124*
X210250Y87750D02*
D03*
X236250Y107000D02*
D03*
D125*
X-76292Y-146833D02*
D03*
%TF.MD5,f4b83b03eb3acf64ee332c533373cf45*%
M02*
