%TF.GenerationSoftware,Altium Limited,Altium Designer,22.5.1 (42)*%
G04 Layer_Color=8388736*
%FSLAX44Y44*%
%MOMM*%
%TF.SameCoordinates,01627914-4FCA-44A5-8146-F6A238B5A28C*%
%TF.FilePolarity,Negative*%
%TF.FileFunction,Soldermask,Top*%
%TF.Part,Single*%
G01*
G75*
%TA.AperFunction,SMDPad,CuDef*%
%ADD66R,1.0032X1.0032*%
%ADD67R,1.0532X1.0532*%
%ADD68R,1.3632X1.6732*%
%ADD69R,1.8032X1.2032*%
%ADD70R,1.6020X1.9520*%
%ADD71R,3.7200X5.4700*%
%ADD73R,1.0532X1.0532*%
%TA.AperFunction,ComponentPad*%
%ADD74C,5.2032*%
G04:AMPARAMS|DCode=75|XSize=1.8032mm|YSize=1.8032mm|CornerRadius=0mm|HoleSize=0mm|Usage=FLASHONLY|Rotation=90.000|XOffset=0mm|YOffset=0mm|HoleType=Round|Shape=Octagon|*
%AMOCTAGOND75*
4,1,8,0.4508,0.9016,-0.4508,0.9016,-0.9016,0.4508,-0.9016,-0.4508,-0.4508,-0.9016,0.4508,-0.9016,0.9016,-0.4508,0.9016,0.4508,0.4508,0.9016,0.0*
%
%ADD75OCTAGOND75*%

%ADD76O,3.7032X3.0032*%
%ADD77R,3.7032X3.0032*%
%ADD78O,3.0032X3.7032*%
%ADD79R,3.0032X3.7032*%
%ADD80C,2.0032*%
%ADD81R,2.0032X2.0032*%
%ADD82O,3.2032X4.7032*%
%ADD83C,3.9192*%
%ADD84R,3.9192X3.9192*%
%ADD85O,1.4032X2.6032*%
%ADD86R,1.4032X2.7032*%
%ADD87R,2.7032X1.4032*%
%ADD88R,3.9192X3.9192*%
%ADD89O,2.6032X1.4032*%
%ADD90C,1.8032*%
%ADD91R,1.8032X1.8032*%
%TA.AperFunction,SMDPad,CuDef*%
%ADD98R,1.1020X0.5020*%
%ADD99R,2.7020X3.1020*%
%ADD100R,1.2032X1.8032*%
%ADD101O,0.7600X1.3600*%
%ADD102R,0.7600X1.3600*%
G04:AMPARAMS|DCode=103|XSize=4.4032mm|YSize=4.4032mm|CornerRadius=0.3116mm|HoleSize=0mm|Usage=FLASHONLY|Rotation=270.000|XOffset=0mm|YOffset=0mm|HoleType=Round|Shape=RoundedRectangle|*
%AMROUNDEDRECTD103*
21,1,4.4032,3.7800,0,0,270.0*
21,1,3.7800,4.4032,0,0,270.0*
1,1,0.6232,-1.8900,-1.8900*
1,1,0.6232,-1.8900,1.8900*
1,1,0.6232,1.8900,1.8900*
1,1,0.6232,1.8900,-1.8900*
%
%ADD103ROUNDEDRECTD103*%
%ADD104R,1.9520X1.6020*%
%ADD105R,5.4700X3.7200*%
%ADD106R,1.7532X1.3032*%
%ADD107R,1.7532X1.3032*%
%ADD108R,1.7532X3.6532*%
%ADD109R,1.0032X1.0032*%
%ADD110C,2.1500*%
D66*
X254500Y-91500D02*
D03*
X238500D02*
D03*
X96000Y-27500D02*
D03*
X80000D02*
D03*
X-82250Y7750D02*
D03*
X-66250D02*
D03*
X-280000Y-142250D02*
D03*
X-264000D02*
D03*
D67*
X94250Y52500D02*
D03*
X109750D02*
D03*
Y68500D02*
D03*
X94250D02*
D03*
X127250Y156500D02*
D03*
X142750D02*
D03*
X-80500Y81250D02*
D03*
X-65000D02*
D03*
X-131000Y-144000D02*
D03*
X-146500D02*
D03*
D68*
X-209600Y191500D02*
D03*
X-227400D02*
D03*
X251100Y-14000D02*
D03*
X268900D02*
D03*
X144900Y177500D02*
D03*
X127100D02*
D03*
X-95100Y-146000D02*
D03*
X-112900D02*
D03*
D69*
X-42000Y5000D02*
D03*
Y35000D02*
D03*
D70*
X-40000Y-83250D02*
D03*
X-61000D02*
D03*
D71*
X-50500Y-40250D02*
D03*
D73*
X252000Y-49750D02*
D03*
Y-34250D02*
D03*
X-228500Y170250D02*
D03*
Y154750D02*
D03*
X-135750Y24750D02*
D03*
Y40250D02*
D03*
X-164500Y24750D02*
D03*
Y40250D02*
D03*
X-180000Y24500D02*
D03*
Y40000D02*
D03*
D74*
X355000Y-262000D02*
D03*
X-355000Y262000D02*
D03*
Y-262000D02*
D03*
X355000Y262000D02*
D03*
D75*
X-270000Y106300D02*
D03*
Y131700D02*
D03*
D76*
X361000Y160000D02*
D03*
Y199600D02*
D03*
Y66000D02*
D03*
Y26400D02*
D03*
D77*
Y120400D02*
D03*
Y-13200D02*
D03*
D78*
X119000Y238000D02*
D03*
X79400D02*
D03*
X213400Y237000D02*
D03*
X253000D02*
D03*
X258000Y-239000D02*
D03*
X297600D02*
D03*
X-291600Y242000D02*
D03*
X-252000D02*
D03*
X-118000Y239000D02*
D03*
X-157600D02*
D03*
D79*
X158600Y238000D02*
D03*
X292600Y237000D02*
D03*
X218400Y-239000D02*
D03*
X-212400Y242000D02*
D03*
X-78400Y239000D02*
D03*
D80*
X-206200Y-171400D02*
D03*
X-181200Y-171400D02*
D03*
X-226200Y-171400D02*
D03*
D81*
X-251200D02*
D03*
D82*
X-281900Y-198500D02*
D03*
X-150500D02*
D03*
D83*
X-4000Y-222000D02*
D03*
X305000Y-94000D02*
D03*
D84*
X-76000Y-222000D02*
D03*
D85*
X27500Y-282000D02*
D03*
X-107500D02*
D03*
D86*
X145000Y-253000D02*
D03*
X-29000Y259000D02*
D03*
D87*
X118000Y-278000D02*
D03*
Y-228000D02*
D03*
X-2000Y284000D02*
D03*
Y234000D02*
D03*
D88*
X305000Y-166000D02*
D03*
D89*
X365000Y-62500D02*
D03*
Y-197500D02*
D03*
D90*
X-357000Y-89600D02*
D03*
Y-140400D02*
D03*
Y-191200D02*
D03*
Y-165800D02*
D03*
X-357000Y-115000D02*
D03*
X-357000Y-64200D02*
D03*
X-357700Y70800D02*
D03*
X-332300D02*
D03*
X-357700Y20000D02*
D03*
X-332300D02*
D03*
X-357700Y-30800D02*
D03*
Y-5400D02*
D03*
X-332300D02*
D03*
Y45400D02*
D03*
X-357700D02*
D03*
X-357400Y181000D02*
D03*
X-332000D02*
D03*
Y130200D02*
D03*
X-357400D02*
D03*
Y104800D02*
D03*
X-332000Y155600D02*
D03*
X-357400D02*
D03*
X-332000Y206400D02*
D03*
X-357400D02*
D03*
D91*
X-357000Y-216600D02*
D03*
X-332300Y-30800D02*
D03*
X-332000Y104800D02*
D03*
D98*
X-63500Y26500D02*
D03*
Y34500D02*
D03*
Y42500D02*
D03*
Y50500D02*
D03*
Y58500D02*
D03*
X-103500D02*
D03*
Y50500D02*
D03*
Y42500D02*
D03*
Y34500D02*
D03*
Y26500D02*
D03*
D99*
X-83500Y42500D02*
D03*
D100*
X257250Y-196000D02*
D03*
X227250D02*
D03*
X256000Y-140000D02*
D03*
X226000D02*
D03*
X255500Y-115500D02*
D03*
X225500D02*
D03*
X-236250Y-56250D02*
D03*
X-206250D02*
D03*
X-235750Y-29750D02*
D03*
X-205750D02*
D03*
D101*
X106000Y19500D02*
D03*
X96500D02*
D03*
X115500Y-6500D02*
D03*
X106000D02*
D03*
X96500D02*
D03*
D102*
X115500Y19500D02*
D03*
D103*
X183000Y-43500D02*
D03*
Y50500D02*
D03*
X-132500Y-13000D02*
D03*
Y-107000D02*
D03*
D104*
X184000Y102500D02*
D03*
Y123500D02*
D03*
D105*
X141000Y113000D02*
D03*
D106*
X-161250Y154500D02*
D03*
Y131500D02*
D03*
D107*
Y177500D02*
D03*
D108*
X-93750Y154500D02*
D03*
D109*
X-188500D02*
D03*
Y170500D02*
D03*
X-209500Y154500D02*
D03*
Y170500D02*
D03*
X-187500Y131500D02*
D03*
Y115500D02*
D03*
X-209500Y131500D02*
D03*
Y115500D02*
D03*
X98000Y119500D02*
D03*
Y103500D02*
D03*
X-149750Y24250D02*
D03*
Y40250D02*
D03*
X-121750Y40500D02*
D03*
Y24500D02*
D03*
X-43500Y51250D02*
D03*
Y67250D02*
D03*
D110*
X101000Y-198000D02*
D03*
Y-168000D02*
D03*
X144000Y-198000D02*
D03*
Y-168000D02*
D03*
%TF.MD5,d23d9667ecb58ff24fb9309111fa0be9*%
M02*
