%TF.GenerationSoftware,Altium Limited,Altium Designer,22.5.1 (42)*%
G04 Layer_Color=32768*
%FSLAX44Y44*%
%MOMM*%
%TF.SameCoordinates,01627914-4FCA-44A5-8146-F6A238B5A28C*%
%TF.FilePolarity,Positive*%
%TF.FileFunction,Other,Top_Designator*%
%TF.Part,Single*%
G01*
G75*
%TA.AperFunction,NonConductor*%
%ADD58C,0.2000*%
%ADD60C,0.1000*%
%ADD93C,0.2540*%
%ADD95C,0.1270*%
D58*
X250585Y-194331D02*
X252252Y-195997D01*
X255584D01*
X257250Y-194331D01*
Y-187666D01*
X255584Y-186000D01*
X252252D01*
X250585Y-187666D01*
X247253Y-194331D02*
X245587Y-195997D01*
X242255D01*
X240589Y-194331D01*
Y-192665D01*
X242255Y-190998D01*
X243921D01*
X242255D01*
X240589Y-189332D01*
Y-187666D01*
X242255Y-186000D01*
X245587D01*
X247253Y-187666D01*
X230592Y-186000D02*
X237256D01*
X230592Y-192665D01*
Y-194331D01*
X232258Y-195997D01*
X235590D01*
X237256Y-194331D01*
X249335Y-138331D02*
X251001Y-139997D01*
X254334D01*
X256000Y-138331D01*
Y-131666D01*
X254334Y-130000D01*
X251001D01*
X249335Y-131666D01*
X246003Y-138331D02*
X244337Y-139997D01*
X241005D01*
X239339Y-138331D01*
Y-136665D01*
X241005Y-134999D01*
X242671D01*
X241005D01*
X239339Y-133332D01*
Y-131666D01*
X241005Y-130000D01*
X244337D01*
X246003Y-131666D01*
X236006Y-138331D02*
X234340Y-139997D01*
X231008D01*
X229342Y-138331D01*
Y-136665D01*
X231008Y-134999D01*
X232674D01*
X231008D01*
X229342Y-133332D01*
Y-131666D01*
X231008Y-130000D01*
X234340D01*
X236006Y-131666D01*
X248835Y-113831D02*
X250501Y-115497D01*
X253834D01*
X255500Y-113831D01*
Y-107166D01*
X253834Y-105500D01*
X250501D01*
X248835Y-107166D01*
X245503Y-113831D02*
X243837Y-115497D01*
X240505D01*
X238839Y-113831D01*
Y-112165D01*
X240505Y-110499D01*
X242171D01*
X240505D01*
X238839Y-108832D01*
Y-107166D01*
X240505Y-105500D01*
X243837D01*
X245503Y-107166D01*
X230508Y-105500D02*
Y-115497D01*
X235506Y-110499D01*
X228842D01*
X-43669Y28335D02*
X-42003Y30001D01*
Y33334D01*
X-43669Y35000D01*
X-50334D01*
X-52000Y33334D01*
Y30001D01*
X-50334Y28335D01*
X-52000Y20005D02*
X-42003D01*
X-47002Y25003D01*
Y18339D01*
X-212915Y-54581D02*
X-211248Y-56247D01*
X-207916D01*
X-206250Y-54581D01*
Y-47916D01*
X-207916Y-46250D01*
X-211248D01*
X-212915Y-47916D01*
X-216247Y-54581D02*
X-217913Y-56247D01*
X-221245D01*
X-222911Y-54581D01*
Y-52915D01*
X-221245Y-51248D01*
X-219579D01*
X-221245D01*
X-222911Y-49582D01*
Y-47916D01*
X-221245Y-46250D01*
X-217913D01*
X-216247Y-47916D01*
X-212414Y-28081D02*
X-210748Y-29747D01*
X-207416D01*
X-205750Y-28081D01*
Y-21416D01*
X-207416Y-19750D01*
X-210748D01*
X-212414Y-21416D01*
X-222411Y-19750D02*
X-215747D01*
X-222411Y-26414D01*
Y-28081D01*
X-220745Y-29747D01*
X-217413D01*
X-215747Y-28081D01*
D60*
X-272999Y116001D02*
Y114002D01*
Y115001D01*
X-268001D01*
X-267001Y114002D01*
Y113002D01*
X-268001Y112002D01*
X-267001Y118000D02*
X-272999D01*
Y120999D01*
X-271999Y121999D01*
X-270000D01*
X-269000Y120999D01*
Y118000D01*
X-267001Y123998D02*
Y125998D01*
Y124998D01*
X-272999D01*
X-271999Y123998D01*
D93*
X-171506Y197847D02*
Y182612D01*
X-163888D01*
X-161349Y185152D01*
Y195308D01*
X-163888Y197847D01*
X-171506D01*
X-156271D02*
X-146114D01*
Y195308D01*
X-156271Y185152D01*
Y182612D01*
X418359Y162539D02*
Y167617D01*
Y165078D01*
X405664D01*
X403125Y167617D01*
Y170157D01*
X405664Y172696D01*
X418359Y147304D02*
Y157461D01*
X410742D01*
X413281Y152382D01*
Y149843D01*
X410742Y147304D01*
X405664D01*
X403125Y149843D01*
Y154922D01*
X405664Y157461D01*
X306994Y-7653D02*
Y-22887D01*
X314612D01*
X317151Y-20348D01*
Y-10192D01*
X314612Y-7653D01*
X306994D01*
X329847Y-22887D02*
Y-7653D01*
X322229Y-15270D01*
X332386D01*
X109525Y26710D02*
X96829D01*
X94290Y24171D01*
Y19092D01*
X96829Y16553D01*
X109525D01*
X106986Y11475D02*
X109525Y8936D01*
Y3857D01*
X106986Y1318D01*
X104447D01*
X101908Y3857D01*
X99368Y1318D01*
X96829D01*
X94290Y3857D01*
Y8936D01*
X96829Y11475D01*
X99368D01*
X101908Y8936D01*
X104447Y11475D01*
X106986D01*
X101908Y8936D02*
Y3857D01*
X178618Y-3804D02*
X163382D01*
Y-13961D01*
X176078Y-19039D02*
X178618Y-21579D01*
Y-26657D01*
X176078Y-29196D01*
X173539D01*
X171000Y-26657D01*
Y-24118D01*
Y-26657D01*
X168461Y-29196D01*
X165922D01*
X163382Y-26657D01*
Y-21579D01*
X165922Y-19039D01*
X182994Y183848D02*
Y168612D01*
X190612D01*
X193151Y171152D01*
Y181308D01*
X190612Y183848D01*
X182994D01*
X208386D02*
X203308Y181308D01*
X198229Y176230D01*
Y171152D01*
X200768Y168612D01*
X205847D01*
X208386Y171152D01*
Y173691D01*
X205847Y176230D01*
X198229D01*
X-119882Y168077D02*
X-132578D01*
X-135118Y165538D01*
Y160459D01*
X-132578Y157920D01*
X-119882D01*
X-132578Y152842D02*
X-135118Y150303D01*
Y145224D01*
X-132578Y142685D01*
X-122422D01*
X-119882Y145224D01*
Y150303D01*
X-122422Y152842D01*
X-124961D01*
X-127500Y150303D01*
Y142685D01*
X-128118Y-50157D02*
X-112882D01*
Y-40000D01*
Y-34922D02*
Y-29843D01*
Y-32383D01*
X-128118D01*
X-125578Y-34922D01*
X-57006Y-139653D02*
Y-154888D01*
X-49388D01*
X-46849Y-152348D01*
Y-142192D01*
X-49388Y-139653D01*
X-57006D01*
X-31614D02*
X-41771D01*
Y-147270D01*
X-36693Y-144731D01*
X-34153D01*
X-31614Y-147270D01*
Y-152348D01*
X-34153Y-154888D01*
X-39232D01*
X-41771Y-152348D01*
X-208022Y-288240D02*
Y-283162D01*
Y-285701D01*
X-220718D01*
X-223258Y-283162D01*
Y-280623D01*
X-220718Y-278083D01*
X-223258Y-293318D02*
Y-298397D01*
Y-295858D01*
X-208022D01*
X-210562Y-293318D01*
X-70113Y-321618D02*
X-65034D01*
X-67574D01*
Y-308922D01*
X-65034Y-306383D01*
X-62495D01*
X-59956Y-308922D01*
X-75191Y-306383D02*
X-80270D01*
X-77730D01*
Y-321618D01*
X-75191Y-319078D01*
X-87887D02*
X-90426Y-321618D01*
X-95505D01*
X-98044Y-319078D01*
Y-308922D01*
X-95505Y-306383D01*
X-90426D01*
X-87887Y-308922D01*
Y-319078D01*
X124618Y-307113D02*
Y-302034D01*
Y-304574D01*
X111922D01*
X109382Y-302034D01*
Y-299495D01*
X111922Y-296956D01*
X109382Y-312191D02*
Y-317270D01*
Y-314730D01*
X124618D01*
X122078Y-312191D01*
X109382Y-335044D02*
Y-324887D01*
X119539Y-335044D01*
X122078D01*
X124618Y-332505D01*
Y-327426D01*
X122078Y-324887D01*
X260539Y-296360D02*
X265618D01*
X263078D01*
Y-283664D01*
X265618Y-281124D01*
X268157D01*
X270696Y-283664D01*
X255461Y-296360D02*
X245304D01*
Y-293820D01*
X255461Y-283664D01*
Y-281124D01*
X404618Y-166461D02*
Y-161383D01*
Y-163922D01*
X391922D01*
X389383Y-161383D01*
Y-158843D01*
X391922Y-156304D01*
X389383Y-181696D02*
Y-171539D01*
X399539Y-181696D01*
X402078D01*
X404618Y-179157D01*
Y-174078D01*
X402078Y-171539D01*
X418359Y28939D02*
Y34018D01*
Y31478D01*
X405664D01*
X403125Y34018D01*
Y36557D01*
X405664Y39096D01*
X418359Y13704D02*
X415820Y18782D01*
X410742Y23861D01*
X405664D01*
X403125Y21322D01*
Y16243D01*
X405664Y13704D01*
X408203D01*
X410742Y16243D01*
Y23861D01*
X250461Y294359D02*
X245382D01*
X247922D01*
Y281664D01*
X245382Y279125D01*
X242843D01*
X240304Y281664D01*
X263157Y279125D02*
Y294359D01*
X255539Y286742D01*
X265696D01*
X116461Y295359D02*
X111383D01*
X113922D01*
Y282664D01*
X111383Y280124D01*
X108843D01*
X106304Y282664D01*
X121539Y292820D02*
X124078Y295359D01*
X129157D01*
X131696Y292820D01*
Y290281D01*
X129157Y287742D01*
X126617D01*
X129157D01*
X131696Y285203D01*
Y282664D01*
X129157Y280124D01*
X124078D01*
X121539Y282664D01*
X-8618Y315652D02*
Y310574D01*
Y313113D01*
X4078D01*
X6617Y310574D01*
Y308034D01*
X4078Y305495D01*
X6617Y320730D02*
Y325809D01*
Y323270D01*
X-8618D01*
X-6078Y320730D01*
X6617Y333426D02*
Y338505D01*
Y335965D01*
X-8618D01*
X-6078Y333426D01*
X-120539Y296360D02*
X-125618D01*
X-123078D01*
Y283664D01*
X-125618Y281124D01*
X-128157D01*
X-130696Y283664D01*
X-115461D02*
X-112922Y281124D01*
X-107843D01*
X-105304Y283664D01*
Y293820D01*
X-107843Y296360D01*
X-112922D01*
X-115461Y293820D01*
Y291281D01*
X-112922Y288742D01*
X-105304D01*
X-254539Y299359D02*
X-259618D01*
X-257078D01*
Y286664D01*
X-259618Y284125D01*
X-262157D01*
X-264696Y286664D01*
X-249461Y296820D02*
X-246922Y299359D01*
X-241843D01*
X-239304Y296820D01*
Y294281D01*
X-241843Y291742D01*
X-239304Y289203D01*
Y286664D01*
X-241843Y284125D01*
X-246922D01*
X-249461Y286664D01*
Y289203D01*
X-246922Y291742D01*
X-249461Y294281D01*
Y296820D01*
X-246922Y291742D02*
X-241843D01*
X-349383Y-148972D02*
X-364618D01*
Y-141354D01*
X-362078Y-138815D01*
X-357000D01*
X-354461Y-141354D01*
Y-148972D01*
X-349383Y-133737D02*
Y-128658D01*
Y-131198D01*
X-364618D01*
X-362078Y-133737D01*
X-337882Y7304D02*
X-353117D01*
Y14922D01*
X-350578Y17461D01*
X-345500D01*
X-342961Y14922D01*
Y7304D01*
X-350578Y22539D02*
X-353117Y25078D01*
Y30157D01*
X-350578Y32696D01*
X-348039D01*
X-345500Y30157D01*
Y27617D01*
Y30157D01*
X-342961Y32696D01*
X-340422D01*
X-337882Y30157D01*
Y25078D01*
X-340422Y22539D01*
X-337583Y142904D02*
X-352818D01*
Y150522D01*
X-350278Y153061D01*
X-345200D01*
X-342661Y150522D01*
Y142904D01*
X-337583Y168296D02*
Y158139D01*
X-347739Y168296D01*
X-350278D01*
X-352818Y165757D01*
Y160678D01*
X-350278Y158139D01*
X80687Y-205618D02*
Y-190382D01*
X85765Y-195461D01*
X90843Y-190382D01*
Y-205618D01*
X95922Y-190382D02*
Y-205618D01*
Y-198000D01*
X106078D01*
Y-190382D01*
Y-205618D01*
X111157Y-192922D02*
X113696Y-190382D01*
X118774D01*
X121313Y-192922D01*
Y-195461D01*
X118774Y-198000D01*
X121313Y-200539D01*
Y-203078D01*
X118774Y-205618D01*
X113696D01*
X111157Y-203078D01*
Y-200539D01*
X113696Y-198000D01*
X111157Y-195461D01*
Y-192922D01*
X113696Y-198000D02*
X118774D01*
X80687Y-175618D02*
Y-160382D01*
X85765Y-165461D01*
X90843Y-160382D01*
Y-175618D01*
X95922Y-160382D02*
Y-175618D01*
Y-168000D01*
X106078D01*
Y-160382D01*
Y-175618D01*
X111157Y-160382D02*
X121313D01*
Y-162922D01*
X111157Y-173078D01*
Y-175618D01*
X123687Y-205618D02*
Y-190382D01*
X128765Y-195461D01*
X133843Y-190382D01*
Y-205618D01*
X138922Y-190382D02*
Y-205618D01*
Y-198000D01*
X149078D01*
Y-190382D01*
Y-205618D01*
X164313Y-190382D02*
X159235Y-192922D01*
X154157Y-198000D01*
Y-203078D01*
X156696Y-205618D01*
X161774D01*
X164313Y-203078D01*
Y-200539D01*
X161774Y-198000D01*
X154157D01*
X123687Y-175618D02*
Y-160382D01*
X128765Y-165461D01*
X133843Y-160382D01*
Y-175618D01*
X138922Y-160382D02*
Y-175618D01*
Y-168000D01*
X149078D01*
Y-160382D01*
Y-175618D01*
X164313Y-160382D02*
X154157D01*
Y-168000D01*
X159235Y-165461D01*
X161774D01*
X164313Y-168000D01*
Y-173078D01*
X161774Y-175618D01*
X156696D01*
X154157Y-173078D01*
X334687Y254382D02*
Y269618D01*
X339765Y264539D01*
X344843Y269618D01*
Y254382D01*
X349922Y269618D02*
Y254382D01*
Y262000D01*
X360078D01*
Y269618D01*
Y254382D01*
X372774D02*
Y269618D01*
X365157Y262000D01*
X375313D01*
X-375313Y-269618D02*
Y-254382D01*
X-370235Y-259461D01*
X-365157Y-254382D01*
Y-269618D01*
X-360078Y-254382D02*
Y-269618D01*
Y-262000D01*
X-349922D01*
Y-254382D01*
Y-269618D01*
X-344843Y-256922D02*
X-342304Y-254382D01*
X-337226D01*
X-334687Y-256922D01*
Y-259461D01*
X-337226Y-262000D01*
X-339765D01*
X-337226D01*
X-334687Y-264539D01*
Y-267078D01*
X-337226Y-269618D01*
X-342304D01*
X-344843Y-267078D01*
X-375313Y254382D02*
Y269618D01*
X-370235Y264539D01*
X-365157Y269618D01*
Y254382D01*
X-360078Y269618D02*
Y254382D01*
Y262000D01*
X-349922D01*
Y269618D01*
Y254382D01*
X-334687D02*
X-344843D01*
X-334687Y264539D01*
Y267078D01*
X-337226Y269618D01*
X-342304D01*
X-344843Y267078D01*
X337226Y-269618D02*
Y-254382D01*
X342304Y-259461D01*
X347383Y-254382D01*
Y-269618D01*
X352461Y-254382D02*
Y-269618D01*
Y-262000D01*
X362618D01*
Y-254382D01*
Y-269618D01*
X367696D02*
X372774D01*
X370235D01*
Y-254382D01*
X367696Y-256922D01*
D95*
X248565Y-92101D02*
X250231Y-93767D01*
X253564D01*
X255230Y-92101D01*
Y-85436D01*
X253564Y-83770D01*
X250231D01*
X248565Y-85436D01*
X245233Y-92101D02*
X243567Y-93767D01*
X240235D01*
X238568Y-92101D01*
Y-90435D01*
X240235Y-88769D01*
X241901D01*
X240235D01*
X238568Y-87102D01*
Y-85436D01*
X240235Y-83770D01*
X243567D01*
X245233Y-85436D01*
X228572Y-93767D02*
X235236D01*
Y-88769D01*
X231904Y-90435D01*
X230238D01*
X228572Y-88769D01*
Y-85436D01*
X230238Y-83770D01*
X233570D01*
X235236Y-85436D01*
X244270Y-33270D02*
X254267D01*
Y-38268D01*
X252601Y-39934D01*
X249268D01*
X247602Y-38268D01*
Y-33270D01*
Y-36602D02*
X244270Y-39934D01*
Y-43267D02*
Y-46599D01*
Y-44933D01*
X254267D01*
X252601Y-43267D01*
X244270Y-51597D02*
Y-54930D01*
Y-53264D01*
X254267D01*
X252601Y-51597D01*
X90065Y-28101D02*
X91732Y-29767D01*
X95064D01*
X96730Y-28101D01*
Y-21436D01*
X95064Y-19770D01*
X91732D01*
X90065Y-21436D01*
X80069Y-19770D02*
X86733D01*
X80069Y-26435D01*
Y-28101D01*
X81735Y-29767D01*
X85067D01*
X86733Y-28101D01*
X70072Y-29767D02*
X76736D01*
Y-24768D01*
X73404Y-26435D01*
X71738D01*
X70072Y-24768D01*
Y-21436D01*
X71738Y-19770D01*
X75070D01*
X76736Y-21436D01*
X110730Y60230D02*
Y50233D01*
X105731D01*
X104065Y51899D01*
Y55231D01*
X105731Y56898D01*
X110730D01*
X107398D02*
X104065Y60230D01*
X100733D02*
X97401D01*
X99067D01*
Y50233D01*
X100733Y51899D01*
X92402D02*
X90736Y50233D01*
X87404D01*
X85738Y51899D01*
Y58564D01*
X87404Y60230D01*
X90736D01*
X92402Y58564D01*
Y51899D01*
X93270Y60770D02*
Y70767D01*
X98268D01*
X99935Y69101D01*
Y65768D01*
X98268Y64102D01*
X93270D01*
X96602D02*
X99935Y60770D01*
X103267Y62436D02*
X104933Y60770D01*
X108265D01*
X109931Y62436D01*
Y69101D01*
X108265Y70767D01*
X104933D01*
X103267Y69101D01*
Y67435D01*
X104933Y65768D01*
X109931D01*
X126270Y148770D02*
Y158767D01*
X131269D01*
X132935Y157101D01*
Y153769D01*
X131269Y152102D01*
X126270D01*
X129602D02*
X132935Y148770D01*
X136267D02*
X139599D01*
X137933D01*
Y158767D01*
X136267Y157101D01*
X144598D02*
X146264Y158767D01*
X149596D01*
X151262Y157101D01*
Y155435D01*
X149596Y153769D01*
X147930D01*
X149596D01*
X151262Y152102D01*
Y150436D01*
X149596Y148770D01*
X146264D01*
X144598Y150436D01*
X-189101Y160435D02*
X-190767Y158769D01*
Y155436D01*
X-189101Y153770D01*
X-182436D01*
X-180770Y155436D01*
Y158769D01*
X-182436Y160435D01*
X-180770Y170431D02*
Y163767D01*
X-187435Y170431D01*
X-189101D01*
X-190767Y168765D01*
Y165433D01*
X-189101Y163767D01*
X-182436Y173764D02*
X-180770Y175430D01*
Y178762D01*
X-182436Y180428D01*
X-189101D01*
X-190767Y178762D01*
Y175430D01*
X-189101Y173764D01*
X-187435D01*
X-185769Y175430D01*
Y180428D01*
X-210101Y160435D02*
X-211767Y158769D01*
Y155436D01*
X-210101Y153770D01*
X-203436D01*
X-201770Y155436D01*
Y158769D01*
X-203436Y160435D01*
X-210101Y163767D02*
X-211767Y165433D01*
Y168765D01*
X-210101Y170431D01*
X-208435D01*
X-206768Y168765D01*
Y167099D01*
Y168765D01*
X-205102Y170431D01*
X-203436D01*
X-201770Y168765D01*
Y165433D01*
X-203436Y163767D01*
X-210101Y173764D02*
X-211767Y175430D01*
Y178762D01*
X-210101Y180428D01*
X-203436D01*
X-201770Y178762D01*
Y175430D01*
X-203436Y173764D01*
X-210101D01*
X-186899Y125565D02*
X-185233Y127232D01*
Y130564D01*
X-186899Y132230D01*
X-193564D01*
X-195230Y130564D01*
Y127232D01*
X-193564Y125565D01*
X-195230Y115569D02*
Y122233D01*
X-188565Y115569D01*
X-186899D01*
X-185233Y117235D01*
Y120567D01*
X-186899Y122233D01*
Y112236D02*
X-185233Y110570D01*
Y107238D01*
X-186899Y105572D01*
X-188565D01*
X-190231Y107238D01*
X-191898Y105572D01*
X-193564D01*
X-195230Y107238D01*
Y110570D01*
X-193564Y112236D01*
X-191898D01*
X-190231Y110570D01*
X-188565Y112236D01*
X-186899D01*
X-190231Y110570D02*
Y107238D01*
X-208899Y125565D02*
X-207233Y127232D01*
Y130564D01*
X-208899Y132230D01*
X-215564D01*
X-217230Y130564D01*
Y127232D01*
X-215564Y125565D01*
X-217230Y115569D02*
Y122233D01*
X-210565Y115569D01*
X-208899D01*
X-207233Y117235D01*
Y120567D01*
X-208899Y122233D01*
X-207233Y112236D02*
Y105572D01*
X-208899D01*
X-215564Y112236D01*
X-217230D01*
X-236230Y171230D02*
X-226233D01*
Y166231D01*
X-227899Y164565D01*
X-231231D01*
X-232898Y166231D01*
Y171230D01*
Y167898D02*
X-236230Y164565D01*
Y161233D02*
Y157901D01*
Y159567D01*
X-226233D01*
X-227899Y161233D01*
X-236230Y147904D02*
X-226233D01*
X-231231Y152902D01*
Y146238D01*
X-81480Y73520D02*
Y83517D01*
X-76482D01*
X-74816Y81851D01*
Y78518D01*
X-76482Y76852D01*
X-81480D01*
X-78148D02*
X-74816Y73520D01*
X-66485D02*
Y83517D01*
X-71483Y78518D01*
X-64819D01*
X-72185Y7149D02*
X-70518Y5483D01*
X-67186D01*
X-65520Y7149D01*
Y13814D01*
X-67186Y15480D01*
X-70518D01*
X-72185Y13814D01*
X-75517Y15480D02*
X-78849D01*
X-77183D01*
Y5483D01*
X-75517Y7149D01*
X-269935Y-142851D02*
X-268269Y-144517D01*
X-264936D01*
X-263270Y-142851D01*
Y-136186D01*
X-264936Y-134520D01*
X-268269D01*
X-269935Y-136186D01*
X-273267Y-142851D02*
X-274933Y-144517D01*
X-278265D01*
X-279931Y-142851D01*
Y-141185D01*
X-278265Y-139518D01*
X-276599D01*
X-278265D01*
X-279931Y-137852D01*
Y-136186D01*
X-278265Y-134520D01*
X-274933D01*
X-273267Y-136186D01*
X-283264Y-134520D02*
X-286596D01*
X-284930D01*
Y-144517D01*
X-283264Y-142851D01*
X-130020Y-136270D02*
Y-146267D01*
X-135018D01*
X-136685Y-144601D01*
Y-141269D01*
X-135018Y-139602D01*
X-130020D01*
X-133352D02*
X-136685Y-136270D01*
X-140017D02*
X-143349D01*
X-141683D01*
Y-146267D01*
X-140017Y-144601D01*
X-155012Y-136270D02*
X-148348D01*
X-155012Y-142935D01*
Y-144601D01*
X-153346Y-146267D01*
X-150014D01*
X-148348Y-144601D01*
X-128020Y23770D02*
X-138017D01*
Y28768D01*
X-136351Y30435D01*
X-133018D01*
X-131352Y28768D01*
Y23770D01*
Y27102D02*
X-128020Y30435D01*
X-136351Y33767D02*
X-138017Y35433D01*
Y38765D01*
X-136351Y40431D01*
X-134684D01*
X-133018Y38765D01*
Y37099D01*
Y38765D01*
X-131352Y40431D01*
X-129686D01*
X-128020Y38765D01*
Y35433D01*
X-129686Y33767D01*
X97399Y109434D02*
X95733Y107768D01*
Y104436D01*
X97399Y102770D01*
X104064D01*
X105730Y104436D01*
Y107768D01*
X104064Y109434D01*
X105730Y119431D02*
Y112767D01*
X99066Y119431D01*
X97399D01*
X95733Y117765D01*
Y114433D01*
X97399Y112767D01*
X95733Y129428D02*
X97399Y126096D01*
X100732Y122764D01*
X104064D01*
X105730Y124430D01*
Y127762D01*
X104064Y129428D01*
X102398D01*
X100732Y127762D01*
Y122764D01*
X-156770Y23770D02*
X-166767D01*
Y28768D01*
X-165101Y30435D01*
X-161768D01*
X-160102Y28768D01*
Y23770D01*
Y27102D02*
X-156770Y30435D01*
Y40431D02*
Y33767D01*
X-163435Y40431D01*
X-165101D01*
X-166767Y38765D01*
Y35433D01*
X-165101Y33767D01*
X-150351Y30185D02*
X-152017Y28518D01*
Y25186D01*
X-150351Y23520D01*
X-143686D01*
X-142020Y25186D01*
Y28518D01*
X-143686Y30185D01*
X-152017Y33517D02*
Y40181D01*
X-150351D01*
X-143686Y33517D01*
X-142020D01*
X-121149Y34565D02*
X-119483Y36232D01*
Y39564D01*
X-121149Y41230D01*
X-127814D01*
X-129480Y39564D01*
Y36232D01*
X-127814Y34565D01*
X-119483Y24569D02*
X-121149Y27901D01*
X-124482Y31233D01*
X-127814D01*
X-129480Y29567D01*
Y26235D01*
X-127814Y24569D01*
X-126148D01*
X-124482Y26235D01*
Y31233D01*
X-44101Y57185D02*
X-45767Y55518D01*
Y52186D01*
X-44101Y50520D01*
X-37436D01*
X-35770Y52186D01*
Y55518D01*
X-37436Y57185D01*
X-45767Y67181D02*
Y60517D01*
X-40768D01*
X-42435Y63849D01*
Y65515D01*
X-40768Y67181D01*
X-37436D01*
X-35770Y65515D01*
Y62183D01*
X-37436Y60517D01*
X-187730Y40980D02*
X-177733D01*
Y35982D01*
X-179399Y34316D01*
X-182731D01*
X-184398Y35982D01*
Y40980D01*
Y37648D02*
X-187730Y34316D01*
Y30983D02*
Y27651D01*
Y29317D01*
X-177733D01*
X-179399Y30983D01*
%TF.MD5,dd252cbf023751f70974f67f82c5a54a*%
M02*
