%TF.GenerationSoftware,Altium Limited,Altium Designer,22.5.1 (42)*%
G04 Layer_Color=32896*
%FSLAX44Y44*%
%MOMM*%
%TF.SameCoordinates,7B58D917-D16F-4CFB-9619-50DAC3371BF8*%
%TF.FilePolarity,Positive*%
%TF.FileFunction,Other,Bottom_Designator*%
%TF.Part,Single*%
G01*
G75*
%TA.AperFunction,NonConductor*%
%ADD62C,0.1270*%
%ADD96C,0.2540*%
D62*
X59399Y86815D02*
X57733Y88482D01*
Y91814D01*
X59399Y93480D01*
X66064D01*
X67730Y91814D01*
Y88482D01*
X66064Y86815D01*
X57733Y76819D02*
Y83483D01*
X62731D01*
X61065Y80151D01*
Y78485D01*
X62731Y76819D01*
X66064D01*
X67730Y78485D01*
Y81817D01*
X66064Y83483D01*
X57733Y66822D02*
Y73486D01*
X62731D01*
X61065Y70154D01*
Y68488D01*
X62731Y66822D01*
X66064D01*
X67730Y68488D01*
Y71820D01*
X66064Y73486D01*
X32480Y159230D02*
X22483D01*
Y154232D01*
X24149Y152565D01*
X27482D01*
X29148Y154232D01*
Y159230D01*
Y155898D02*
X32480Y152565D01*
Y142569D02*
Y149233D01*
X25815Y142569D01*
X24149D01*
X22483Y144235D01*
Y147567D01*
X24149Y149233D01*
Y139236D02*
X22483Y137570D01*
Y134238D01*
X24149Y132572D01*
X30814D01*
X32480Y134238D01*
Y137570D01*
X30814Y139236D01*
X24149D01*
X44101Y148435D02*
X45767Y146769D01*
Y143436D01*
X44101Y141770D01*
X37436D01*
X35770Y143436D01*
Y146769D01*
X37436Y148435D01*
X45767Y158431D02*
Y151767D01*
X40768D01*
X42435Y155099D01*
Y156765D01*
X40768Y158431D01*
X37436D01*
X35770Y156765D01*
Y153433D01*
X37436Y151767D01*
X45767Y161764D02*
Y168428D01*
X44101D01*
X37436Y161764D01*
X35770D01*
X61101Y148435D02*
X62767Y146769D01*
Y143436D01*
X61101Y141770D01*
X54436D01*
X52770Y143436D01*
Y146769D01*
X54436Y148435D01*
X62767Y158431D02*
Y151767D01*
X57769D01*
X59435Y155099D01*
Y156765D01*
X57769Y158431D01*
X54436D01*
X52770Y156765D01*
Y153433D01*
X54436Y151767D01*
X62767Y168428D02*
X61101Y165096D01*
X57769Y161764D01*
X54436D01*
X52770Y163430D01*
Y166762D01*
X54436Y168428D01*
X56102D01*
X57769Y166762D01*
Y161764D01*
X43399Y86815D02*
X41733Y88482D01*
Y91814D01*
X43399Y93480D01*
X50064D01*
X51730Y91814D01*
Y88482D01*
X50064Y86815D01*
X41733Y76819D02*
Y83483D01*
X46732D01*
X45065Y80151D01*
Y78485D01*
X46732Y76819D01*
X50064D01*
X51730Y78485D01*
Y81817D01*
X50064Y83483D01*
X51730Y68488D02*
X41733D01*
X46732Y73486D01*
Y66822D01*
X194435Y10149D02*
X192768Y8483D01*
X189436D01*
X187770Y10149D01*
Y16814D01*
X189436Y18480D01*
X192768D01*
X194435Y16814D01*
X204431Y18480D02*
X197767D01*
X204431Y11815D01*
Y10149D01*
X202765Y8483D01*
X199433D01*
X197767Y10149D01*
X212762Y18480D02*
Y8483D01*
X207764Y13482D01*
X214428D01*
X135565Y11351D02*
X137232Y13017D01*
X140564D01*
X142230Y11351D01*
Y4686D01*
X140564Y3020D01*
X137232D01*
X135565Y4686D01*
X125569Y3020D02*
X132233D01*
X125569Y9685D01*
Y11351D01*
X127235Y13017D01*
X130567D01*
X132233Y11351D01*
X122236D02*
X120570Y13017D01*
X117238D01*
X115572Y11351D01*
Y9685D01*
X117238Y8019D01*
X118904D01*
X117238D01*
X115572Y6352D01*
Y4686D01*
X117238Y3020D01*
X120570D01*
X122236Y4686D01*
X97435Y10149D02*
X95768Y8483D01*
X92436D01*
X90770Y10149D01*
Y16814D01*
X92436Y18480D01*
X95768D01*
X97435Y16814D01*
X107431Y18480D02*
X100767D01*
X107431Y11815D01*
Y10149D01*
X105765Y8483D01*
X102433D01*
X100767Y10149D01*
X117428Y18480D02*
X110764D01*
X117428Y11815D01*
Y10149D01*
X115762Y8483D01*
X112430D01*
X110764Y10149D01*
X37565Y11351D02*
X39232Y13017D01*
X42564D01*
X44230Y11351D01*
Y4686D01*
X42564Y3020D01*
X39232D01*
X37565Y4686D01*
X27569Y3020D02*
X34233D01*
X27569Y9685D01*
Y11351D01*
X29235Y13017D01*
X32567D01*
X34233Y11351D01*
X24236Y3020D02*
X20904D01*
X22570D01*
Y13017D01*
X24236Y11351D01*
X-1565Y10149D02*
X-3232Y8483D01*
X-6564D01*
X-8230Y10149D01*
Y16814D01*
X-6564Y18480D01*
X-3232D01*
X-1565Y16814D01*
X8431Y18480D02*
X1767D01*
X8431Y11815D01*
Y10149D01*
X6765Y8483D01*
X3433D01*
X1767Y10149D01*
X11764D02*
X13430Y8483D01*
X16762D01*
X18428Y10149D01*
Y16814D01*
X16762Y18480D01*
X13430D01*
X11764Y16814D01*
Y10149D01*
X-61434Y11351D02*
X-59768Y13017D01*
X-56436D01*
X-54770Y11351D01*
Y4686D01*
X-56436Y3020D01*
X-59768D01*
X-61434Y4686D01*
X-64767Y3020D02*
X-68099D01*
X-66433D01*
Y13017D01*
X-64767Y11351D01*
X-73098Y4686D02*
X-74764Y3020D01*
X-78096D01*
X-79762Y4686D01*
Y11351D01*
X-78096Y13017D01*
X-74764D01*
X-73098Y11351D01*
Y9685D01*
X-74764Y8019D01*
X-79762D01*
X-105565Y10149D02*
X-107232Y8483D01*
X-110564D01*
X-112230Y10149D01*
Y16814D01*
X-110564Y18480D01*
X-107232D01*
X-105565Y16814D01*
X-102233Y18480D02*
X-98901D01*
X-100567D01*
Y8483D01*
X-102233Y10149D01*
X-93902D02*
X-92236Y8483D01*
X-88904D01*
X-87238Y10149D01*
Y11815D01*
X-88904Y13482D01*
X-87238Y15148D01*
Y16814D01*
X-88904Y18480D01*
X-92236D01*
X-93902Y16814D01*
Y15148D01*
X-92236Y13482D01*
X-93902Y11815D01*
Y10149D01*
X-92236Y13482D02*
X-88904D01*
X-166434Y11351D02*
X-164768Y13017D01*
X-161436D01*
X-159770Y11351D01*
Y4686D01*
X-161436Y3020D01*
X-164768D01*
X-166434Y4686D01*
X-169767Y3020D02*
X-173099D01*
X-171433D01*
Y13017D01*
X-169767Y11351D01*
X-178097Y13017D02*
X-184762D01*
Y11351D01*
X-178097Y4686D01*
Y3020D01*
X-207565Y10149D02*
X-209231Y8483D01*
X-212564D01*
X-214230Y10149D01*
Y16814D01*
X-212564Y18480D01*
X-209231D01*
X-207565Y16814D01*
X-204233Y18480D02*
X-200901D01*
X-202567D01*
Y8483D01*
X-204233Y10149D01*
X-189238Y8483D02*
X-192570Y10149D01*
X-195903Y13482D01*
Y16814D01*
X-194236Y18480D01*
X-190904D01*
X-189238Y16814D01*
Y15148D01*
X-190904Y13482D01*
X-195903D01*
X-267435Y11351D02*
X-265769Y13017D01*
X-262436D01*
X-260770Y11351D01*
Y4686D01*
X-262436Y3020D01*
X-265769D01*
X-267435Y4686D01*
X-270767Y3020D02*
X-274099D01*
X-272433D01*
Y13017D01*
X-270767Y11351D01*
X-285762Y13017D02*
X-279097D01*
Y8019D01*
X-282430Y9685D01*
X-284096D01*
X-285762Y8019D01*
Y4686D01*
X-284096Y3020D01*
X-280764D01*
X-279097Y4686D01*
X19230Y27020D02*
Y37017D01*
X14231D01*
X12565Y35351D01*
Y32018D01*
X14231Y30352D01*
X19230D01*
X15898D02*
X12565Y27020D01*
X9233D02*
X5901D01*
X7567D01*
Y37017D01*
X9233Y35351D01*
X903Y28686D02*
X-764Y27020D01*
X-4096D01*
X-5762Y28686D01*
Y35351D01*
X-4096Y37017D01*
X-764D01*
X903Y35351D01*
Y33685D01*
X-764Y32018D01*
X-5762D01*
D96*
X-268960Y-44025D02*
Y-31329D01*
X-266421Y-28790D01*
X-261342D01*
X-258803Y-31329D01*
Y-44025D01*
X-253725Y-41486D02*
X-251186Y-44025D01*
X-246107D01*
X-243568Y-41486D01*
Y-38947D01*
X-246107Y-36408D01*
X-248647D01*
X-246107D01*
X-243568Y-33868D01*
Y-31329D01*
X-246107Y-28790D01*
X-251186D01*
X-253725Y-31329D01*
X-166960Y-44025D02*
Y-31329D01*
X-164421Y-28790D01*
X-159342D01*
X-156803Y-31329D01*
Y-44025D01*
X-144107Y-28790D02*
Y-44025D01*
X-151725Y-36408D01*
X-141568D01*
X-63220Y-41920D02*
Y-29224D01*
X-60681Y-26685D01*
X-55602D01*
X-53063Y-29224D01*
Y-41920D01*
X-37828D02*
X-47985D01*
Y-34303D01*
X-42906Y-36842D01*
X-40367D01*
X-37828Y-34303D01*
Y-29224D01*
X-40367Y-26685D01*
X-45446D01*
X-47985Y-29224D01*
X36040Y-42025D02*
Y-29329D01*
X38579Y-26790D01*
X43658D01*
X46197Y-29329D01*
Y-42025D01*
X61432D02*
X56354Y-39486D01*
X51275Y-34408D01*
Y-29329D01*
X53814Y-26790D01*
X58893D01*
X61432Y-29329D01*
Y-31868D01*
X58893Y-34408D01*
X51275D01*
X134040Y-42025D02*
Y-29329D01*
X136579Y-26790D01*
X141658D01*
X144197Y-29329D01*
Y-42025D01*
X149275D02*
X159432D01*
Y-39486D01*
X149275Y-29329D01*
Y-26790D01*
X106925Y92090D02*
X94229D01*
X91690Y94629D01*
Y99707D01*
X94229Y102247D01*
X106925D01*
X91690Y107325D02*
Y112403D01*
Y109864D01*
X106925D01*
X104386Y107325D01*
Y120021D02*
X106925Y122560D01*
Y127639D01*
X104386Y130178D01*
X94229D01*
X91690Y127639D01*
Y122560D01*
X94229Y120021D01*
X104386D01*
X-31146Y61097D02*
Y45862D01*
X-38764D01*
X-41303Y48402D01*
Y58558D01*
X-38764Y61097D01*
X-31146D01*
X-46381Y45862D02*
X-51460D01*
X-48920D01*
Y61097D01*
X-46381Y58558D01*
X-69234Y45862D02*
X-59077D01*
X-69234Y56019D01*
Y58558D01*
X-66695Y61097D01*
X-61616D01*
X-59077Y58558D01*
X74146Y176903D02*
Y192138D01*
X81764D01*
X84303Y189598D01*
Y179442D01*
X81764Y176903D01*
X74146D01*
X89381Y192138D02*
X94460D01*
X91920D01*
Y176903D01*
X89381Y179442D01*
X102077D02*
X104616Y176903D01*
X109695D01*
X112234Y179442D01*
Y181981D01*
X109695Y184520D01*
X107156D01*
X109695D01*
X112234Y187059D01*
Y189598D01*
X109695Y192138D01*
X104616D01*
X102077Y189598D01*
%TF.MD5,b9e3237094dccf8d08f57b437bd68de7*%
M02*
