%TF.GenerationSoftware,Altium Limited,Altium Designer,22.5.1 (42)*%
G04 Layer_Physical_Order=2*
G04 Layer_Color=36540*
%FSLAX44Y44*%
%MOMM*%
%TF.SameCoordinates,7B58D917-D16F-4CFB-9619-50DAC3371BF8*%
%TF.FilePolarity,Positive*%
%TF.FileFunction,Copper,L2,Inr,Signal*%
%TF.Part,Single*%
G01*
G75*
%TA.AperFunction,ComponentPad*%
%ADD33C,3.7160*%
%ADD34R,3.7160X3.7160*%
%ADD35O,2.4000X1.2000*%
%ADD36R,2.5000X1.2000*%
%ADD37R,1.2000X2.5000*%
%ADD38C,1.6000*%
%ADD39R,1.6000X1.6000*%
%ADD40C,1.5080*%
%ADD41C,2.5500*%
%ADD43C,5.0000*%
G04:AMPARAMS|DCode=44|XSize=1.6mm|YSize=1.6mm|CornerRadius=0mm|HoleSize=0mm|Usage=FLASHONLY|Rotation=90.000|XOffset=0mm|YOffset=0mm|HoleType=Round|Shape=Octagon|*
%AMOCTAGOND44*
4,1,8,0.4000,0.8000,-0.4000,0.8000,-0.8000,0.4000,-0.8000,-0.4000,-0.4000,-0.8000,0.4000,-0.8000,0.8000,-0.4000,0.8000,0.4000,0.4000,0.8000,0.0*
%
%ADD44OCTAGOND44*%

%ADD45O,2.8000X3.5000*%
%ADD46R,2.8000X3.5000*%
%ADD47O,3.5000X2.8000*%
%ADD48R,3.5000X2.8000*%
%ADD49C,1.8000*%
%ADD50R,1.8000X1.8000*%
%ADD51O,3.0000X4.5000*%
%ADD52R,1.6000X1.6000*%
%TA.AperFunction,ViaPad*%
%ADD53C,0.6000*%
%ADD54C,0.8000*%
%TA.AperFunction,Conductor*%
%ADD55C,0.3500*%
G36*
X355354Y297055D02*
X362060Y295258D01*
X368474Y292601D01*
X374487Y289130D01*
X379994Y284904D01*
X384904Y279994D01*
X389130Y274487D01*
X392601Y268474D01*
X395258Y262060D01*
X397055Y255354D01*
X397961Y248471D01*
Y245000D01*
X397961Y-245000D01*
X397961Y-248471D01*
X397055Y-255354D01*
X395258Y-262060D01*
X392601Y-268474D01*
X389130Y-274487D01*
X384904Y-279994D01*
X379994Y-284904D01*
X374487Y-289130D01*
X368474Y-292601D01*
X362060Y-295258D01*
X355354Y-297055D01*
X348471Y-297961D01*
X-348471D01*
X-355354Y-297055D01*
X-362060Y-295258D01*
X-368474Y-292601D01*
X-374487Y-289130D01*
X-379994Y-284904D01*
X-384904Y-279994D01*
X-389130Y-274487D01*
X-392601Y-268474D01*
X-395258Y-262060D01*
X-397055Y-255354D01*
X-397961Y-248471D01*
X-397961Y-245000D01*
Y245000D01*
X-397961Y248471D01*
X-397055Y255354D01*
X-395258Y262060D01*
X-392601Y268474D01*
X-389130Y274487D01*
X-384904Y279994D01*
X-379994Y284904D01*
X-374487Y289130D01*
X-368474Y292601D01*
X-362060Y295258D01*
X-355354Y297055D01*
X-348471Y297961D01*
X348471D01*
X355354Y297055D01*
D02*
G37*
%LPC*%
G36*
X-118000Y291000D02*
X-147000D01*
Y275000D01*
X-118000D01*
Y291000D01*
D02*
G37*
G36*
X-202500Y289750D02*
X-231500D01*
Y273750D01*
X-202500D01*
Y289750D01*
D02*
G37*
G36*
X-151500Y272500D02*
X-167500D01*
Y243500D01*
X-151500D01*
Y272500D01*
D02*
G37*
G36*
X-236000Y271250D02*
X-252000D01*
Y242250D01*
X-236000D01*
Y271250D01*
D02*
G37*
G36*
X357125Y289000D02*
X352875D01*
X348677Y288335D01*
X344636Y287022D01*
X340849Y285093D01*
X337411Y282595D01*
X334406Y279589D01*
X331908Y276151D01*
X329978Y272364D01*
X328665Y268323D01*
X328000Y264125D01*
Y259875D01*
X328665Y255678D01*
X329978Y251636D01*
X331908Y247849D01*
X334406Y244411D01*
X337411Y241406D01*
X340849Y238908D01*
X344636Y236978D01*
X348677Y235665D01*
X352875Y235000D01*
X357125D01*
X361323Y235665D01*
X365364Y236978D01*
X369151Y238908D01*
X372589Y241406D01*
X375594Y244411D01*
X378092Y247849D01*
X380022Y251636D01*
X381335Y255678D01*
X382000Y259875D01*
Y264125D01*
X381335Y268323D01*
X380022Y272364D01*
X378092Y276151D01*
X375594Y279589D01*
X372589Y282595D01*
X369151Y285093D01*
X365364Y287022D01*
X361323Y288335D01*
X357125Y289000D01*
D02*
G37*
G36*
X-352875D02*
X-357125D01*
X-361323Y288335D01*
X-365364Y287022D01*
X-369151Y285093D01*
X-372589Y282595D01*
X-375594Y279589D01*
X-378092Y276151D01*
X-380022Y272364D01*
X-381335Y268323D01*
X-382000Y264125D01*
Y259875D01*
X-381335Y255678D01*
X-380022Y251636D01*
X-378092Y247849D01*
X-375594Y244411D01*
X-372589Y241406D01*
X-369151Y238908D01*
X-365364Y236978D01*
X-361323Y235665D01*
X-357125Y235000D01*
X-352875D01*
X-348677Y235665D01*
X-344636Y236978D01*
X-340849Y238908D01*
X-337411Y241406D01*
X-334406Y244411D01*
X-331908Y247849D01*
X-329978Y251636D01*
X-328665Y255678D01*
X-328000Y259875D01*
Y264125D01*
X-328665Y268323D01*
X-329978Y272364D01*
X-331908Y276151D01*
X-334406Y279589D01*
X-337411Y282595D01*
X-340849Y285093D01*
X-344636Y287022D01*
X-348677Y288335D01*
X-352875Y289000D01*
D02*
G37*
G36*
X-118000Y241000D02*
X-147000D01*
Y225000D01*
X-118000D01*
Y241000D01*
D02*
G37*
G36*
X-202500Y239750D02*
X-231500D01*
Y223750D01*
X-202500D01*
Y239750D01*
D02*
G37*
G36*
X-9750Y256327D02*
X-12887Y256019D01*
X-15903Y255104D01*
X-18682Y253618D01*
X-21118Y251618D01*
X-23118Y249182D01*
X-24604Y246403D01*
X-25519Y243386D01*
X-25827Y240250D01*
Y233250D01*
X-25519Y230114D01*
X-24604Y227097D01*
X-23118Y224318D01*
X-21118Y221882D01*
X-18682Y219882D01*
X-15903Y218396D01*
X-12887Y217481D01*
X-9750Y217173D01*
X-6613Y217481D01*
X-3597Y218396D01*
X-818Y219882D01*
X1619Y221882D01*
X3618Y224318D01*
X5104Y227097D01*
X6018Y230114D01*
X6327Y233250D01*
Y240250D01*
X6018Y243386D01*
X5104Y246403D01*
X3618Y249182D01*
X1619Y251618D01*
X-818Y253618D01*
X-3597Y255104D01*
X-6613Y256019D01*
X-9750Y256327D01*
D02*
G37*
G36*
X-49350D02*
X-52487Y256019D01*
X-55503Y255104D01*
X-58282Y253618D01*
X-60718Y251618D01*
X-62718Y249182D01*
X-64204Y246403D01*
X-65118Y243386D01*
X-65427Y240250D01*
Y233250D01*
X-65118Y230114D01*
X-64204Y227097D01*
X-62718Y224318D01*
X-60718Y221882D01*
X-58282Y219882D01*
X-55503Y218396D01*
X-52487Y217481D01*
X-49350Y217173D01*
X-46213Y217481D01*
X-43197Y218396D01*
X-40418Y219882D01*
X-37982Y221882D01*
X-35982Y224318D01*
X-34496Y227097D01*
X-33582Y230114D01*
X-33273Y233250D01*
Y240250D01*
X-33582Y243386D01*
X-34496Y246403D01*
X-35982Y249182D01*
X-37982Y251618D01*
X-40418Y253618D01*
X-43197Y255104D01*
X-46213Y256019D01*
X-49350Y256327D01*
D02*
G37*
G36*
X120500Y253827D02*
X117363Y253519D01*
X114347Y252604D01*
X111568Y251118D01*
X109131Y249118D01*
X107132Y246682D01*
X105646Y243903D01*
X104732Y240886D01*
X104423Y237750D01*
Y230750D01*
X104732Y227614D01*
X105646Y224597D01*
X107132Y221818D01*
X109131Y219382D01*
X111568Y217382D01*
X114347Y215896D01*
X117363Y214981D01*
X120500Y214673D01*
X123637Y214981D01*
X126653Y215896D01*
X129432Y217382D01*
X131868Y219382D01*
X133868Y221818D01*
X135354Y224597D01*
X136269Y227614D01*
X136577Y230750D01*
Y237750D01*
X136269Y240886D01*
X135354Y243903D01*
X133868Y246682D01*
X131868Y249118D01*
X129432Y251118D01*
X126653Y252604D01*
X123637Y253519D01*
X120500Y253827D01*
D02*
G37*
G36*
X80900D02*
X77763Y253519D01*
X74747Y252604D01*
X71968Y251118D01*
X69531Y249118D01*
X67532Y246682D01*
X66046Y243903D01*
X65132Y240886D01*
X64823Y237750D01*
Y230750D01*
X65132Y227614D01*
X66046Y224597D01*
X67532Y221818D01*
X69531Y219382D01*
X71968Y217382D01*
X74747Y215896D01*
X77763Y214981D01*
X80900Y214673D01*
X84037Y214981D01*
X87052Y215896D01*
X89832Y217382D01*
X92268Y219382D01*
X94268Y221818D01*
X95754Y224597D01*
X96669Y227614D01*
X96977Y230750D01*
Y237750D01*
X96669Y240886D01*
X95754Y243903D01*
X94268Y246682D01*
X92268Y249118D01*
X89832Y251118D01*
X87052Y252604D01*
X84037Y253519D01*
X80900Y253827D01*
D02*
G37*
G36*
X250600Y252577D02*
X247463Y252269D01*
X244447Y251354D01*
X241668Y249868D01*
X239232Y247868D01*
X237232Y245432D01*
X235746Y242652D01*
X234832Y239636D01*
X234523Y236500D01*
Y229500D01*
X234832Y226364D01*
X235746Y223347D01*
X237232Y220568D01*
X239232Y218132D01*
X241668Y216132D01*
X244447Y214646D01*
X247463Y213731D01*
X250600Y213423D01*
X253737Y213731D01*
X256753Y214646D01*
X259532Y216132D01*
X261968Y218132D01*
X263968Y220568D01*
X265454Y223347D01*
X266369Y226364D01*
X266677Y229500D01*
Y236500D01*
X266369Y239636D01*
X265454Y242652D01*
X263968Y245432D01*
X261968Y247868D01*
X259532Y249868D01*
X256753Y251354D01*
X253737Y252269D01*
X250600Y252577D01*
D02*
G37*
G36*
X211000D02*
X207864Y252269D01*
X204847Y251354D01*
X202068Y249868D01*
X199632Y247868D01*
X197632Y245432D01*
X196146Y242652D01*
X195231Y239636D01*
X194923Y236500D01*
Y229500D01*
X195231Y226364D01*
X196146Y223347D01*
X197632Y220568D01*
X199632Y218132D01*
X202068Y216132D01*
X204847Y214646D01*
X207864Y213731D01*
X211000Y213423D01*
X214137Y213731D01*
X217153Y214646D01*
X219932Y216132D01*
X222369Y218132D01*
X224368Y220568D01*
X225854Y223347D01*
X226768Y226364D01*
X227077Y229500D01*
Y236500D01*
X226768Y239636D01*
X225854Y242652D01*
X224368Y245432D01*
X222369Y247868D01*
X219932Y249868D01*
X217153Y251354D01*
X214137Y252269D01*
X211000Y252577D01*
D02*
G37*
G36*
X-330684Y216400D02*
X-333316D01*
X-335860Y215718D01*
X-338140Y214402D01*
X-340002Y212540D01*
X-341319Y210260D01*
X-342000Y207717D01*
Y205084D01*
X-341319Y202540D01*
X-340002Y200260D01*
X-338140Y198398D01*
X-335860Y197082D01*
X-333316Y196400D01*
X-330684D01*
X-328140Y197082D01*
X-325860Y198398D01*
X-323998Y200260D01*
X-322682Y202540D01*
X-322000Y205084D01*
Y207717D01*
X-322682Y210260D01*
X-323998Y212540D01*
X-325860Y214402D01*
X-328140Y215718D01*
X-330684Y216400D01*
D02*
G37*
G36*
X-356083D02*
X-358717D01*
X-361260Y215718D01*
X-363540Y214402D01*
X-365402Y212540D01*
X-366718Y210260D01*
X-367400Y207717D01*
Y205084D01*
X-366718Y202540D01*
X-365402Y200260D01*
X-363540Y198398D01*
X-361260Y197082D01*
X-358717Y196400D01*
X-356083D01*
X-353540Y197082D01*
X-351260Y198398D01*
X-349398Y200260D01*
X-348082Y202540D01*
X-347400Y205084D01*
Y207717D01*
X-348082Y210260D01*
X-349398Y212540D01*
X-351260Y214402D01*
X-353540Y215718D01*
X-356083Y216400D01*
D02*
G37*
G36*
X363500Y217927D02*
X356500D01*
X353363Y217619D01*
X350347Y216704D01*
X347568Y215218D01*
X345131Y213218D01*
X343132Y210782D01*
X341646Y208003D01*
X340732Y204987D01*
X340423Y201850D01*
X340732Y198713D01*
X341646Y195697D01*
X343132Y192918D01*
X345131Y190482D01*
X347568Y188482D01*
X350347Y186996D01*
X353363Y186082D01*
X356500Y185773D01*
X363500D01*
X366637Y186082D01*
X369652Y186996D01*
X372432Y188482D01*
X374868Y190482D01*
X376868Y192918D01*
X378354Y195697D01*
X379268Y198713D01*
X379577Y201850D01*
X379268Y204987D01*
X378354Y208003D01*
X376868Y210782D01*
X374868Y213218D01*
X372432Y215218D01*
X369652Y216704D01*
X366637Y217619D01*
X363500Y217927D01*
D02*
G37*
G36*
X-330684Y191000D02*
X-333316D01*
X-335860Y190319D01*
X-338140Y189002D01*
X-340002Y187140D01*
X-341319Y184860D01*
X-342000Y182316D01*
Y179683D01*
X-341319Y177140D01*
X-340002Y174860D01*
X-338140Y172998D01*
X-335860Y171681D01*
X-333316Y171000D01*
X-330684D01*
X-328140Y171681D01*
X-325860Y172998D01*
X-323998Y174860D01*
X-322682Y177140D01*
X-322000Y179683D01*
Y182316D01*
X-322682Y184860D01*
X-323998Y187140D01*
X-325860Y189002D01*
X-328140Y190319D01*
X-330684Y191000D01*
D02*
G37*
G36*
X-356083D02*
X-358717D01*
X-361260Y190319D01*
X-363540Y189002D01*
X-365402Y187140D01*
X-366718Y184860D01*
X-367400Y182316D01*
Y179683D01*
X-366718Y177140D01*
X-365402Y174860D01*
X-363540Y172998D01*
X-361260Y171681D01*
X-358717Y171000D01*
X-356083D01*
X-353540Y171681D01*
X-351260Y172998D01*
X-349398Y174860D01*
X-348082Y177140D01*
X-347400Y179683D01*
Y182316D01*
X-348082Y184860D01*
X-349398Y187140D01*
X-351260Y189002D01*
X-353540Y190319D01*
X-356083Y191000D01*
D02*
G37*
G36*
X363500Y178327D02*
X356500D01*
X353363Y178018D01*
X350347Y177104D01*
X347568Y175618D01*
X345131Y173618D01*
X343132Y171182D01*
X341646Y168403D01*
X340732Y165387D01*
X340423Y162250D01*
X340732Y159113D01*
X341646Y156097D01*
X343132Y153318D01*
X345131Y150882D01*
X347568Y148882D01*
X350347Y147396D01*
X353363Y146482D01*
X356500Y146173D01*
X363500D01*
X366637Y146482D01*
X369652Y147396D01*
X372432Y148882D01*
X374868Y150882D01*
X376868Y153318D01*
X378354Y156097D01*
X379268Y159113D01*
X379577Y162250D01*
X379268Y165387D01*
X378354Y168403D01*
X376868Y171182D01*
X374868Y173618D01*
X372432Y175618D01*
X369652Y177104D01*
X366637Y178018D01*
X363500Y178327D01*
D02*
G37*
G36*
X-356083Y165600D02*
X-358717D01*
X-361260Y164918D01*
X-363540Y163602D01*
X-365402Y161740D01*
X-366718Y159460D01*
X-367400Y156917D01*
Y154284D01*
X-366718Y151740D01*
X-365402Y149460D01*
X-363540Y147598D01*
X-361260Y146281D01*
X-358717Y145600D01*
X-356083D01*
X-353540Y146281D01*
X-351260Y147598D01*
X-349398Y149460D01*
X-348082Y151740D01*
X-347400Y154284D01*
Y156917D01*
X-348082Y159460D01*
X-349398Y161740D01*
X-351260Y163602D01*
X-353540Y164918D01*
X-356083Y165600D01*
D02*
G37*
G36*
X-330684D02*
X-333316D01*
X-335860Y164918D01*
X-338140Y163602D01*
X-340002Y161740D01*
X-341319Y159460D01*
X-342000Y156917D01*
Y154284D01*
X-341319Y151740D01*
X-340002Y149460D01*
X-338140Y147598D01*
X-337207Y147059D01*
X-337547Y145789D01*
X-344898D01*
X-345231Y145723D01*
X-345371Y145722D01*
X-345491Y145671D01*
X-345678Y145634D01*
X-345678Y145634D01*
X-345678Y145634D01*
X-345739Y145609D01*
X-345912Y145493D01*
X-345957Y145474D01*
X-346099Y145415D01*
X-346101Y145413D01*
X-346104Y145412D01*
X-346111Y145407D01*
X-346247Y145269D01*
X-346400Y145167D01*
X-346507Y145007D01*
X-346661Y144853D01*
X-346665Y144846D01*
X-346670Y144840D01*
X-346749Y144645D01*
X-346842Y144505D01*
X-346875Y144344D01*
X-346884Y144330D01*
X-346889Y144303D01*
X-346966Y144118D01*
X-347000Y143947D01*
Y143746D01*
X-347039Y143549D01*
Y134795D01*
X-348309Y134454D01*
X-349398Y136340D01*
X-351260Y138202D01*
X-353540Y139518D01*
X-356083Y140200D01*
X-358717D01*
X-361260Y139518D01*
X-363540Y138202D01*
X-365402Y136340D01*
X-366718Y134060D01*
X-367400Y131517D01*
Y128883D01*
X-366718Y126340D01*
X-365402Y124060D01*
X-363540Y122198D01*
X-361260Y120882D01*
X-358717Y120200D01*
X-356083D01*
X-353540Y120882D01*
X-351260Y122198D01*
X-349398Y124060D01*
X-348309Y125946D01*
X-347039Y125605D01*
Y109395D01*
X-348309Y109054D01*
X-349398Y110940D01*
X-351260Y112802D01*
X-353540Y114118D01*
X-356083Y114800D01*
X-358717D01*
X-361260Y114118D01*
X-363540Y112802D01*
X-365402Y110940D01*
X-366718Y108660D01*
X-367400Y106117D01*
Y103483D01*
X-366718Y100940D01*
X-365402Y98660D01*
X-363540Y96798D01*
X-361260Y95482D01*
X-358717Y94800D01*
X-356083D01*
X-353540Y95482D01*
X-351260Y96798D01*
X-349398Y98660D01*
X-348309Y100546D01*
X-347039Y100205D01*
Y74557D01*
X-348309Y74390D01*
X-348382Y74660D01*
X-349698Y76940D01*
X-351560Y78802D01*
X-353840Y80119D01*
X-356384Y80800D01*
X-359016D01*
X-361560Y80119D01*
X-363840Y78802D01*
X-365702Y76940D01*
X-367019Y74660D01*
X-367700Y72117D01*
Y69483D01*
X-367019Y66940D01*
X-365702Y64660D01*
X-363840Y62798D01*
X-361560Y61481D01*
X-359016Y60800D01*
X-356384D01*
X-353840Y61481D01*
X-351560Y62798D01*
X-349698Y64660D01*
X-348382Y66940D01*
X-348309Y67210D01*
X-347039Y67043D01*
Y49157D01*
X-348309Y48990D01*
X-348382Y49260D01*
X-349698Y51540D01*
X-351560Y53402D01*
X-353840Y54718D01*
X-356384Y55400D01*
X-359016D01*
X-361560Y54718D01*
X-363840Y53402D01*
X-365702Y51540D01*
X-367019Y49260D01*
X-367700Y46717D01*
Y44083D01*
X-367019Y41540D01*
X-365702Y39260D01*
X-363840Y37398D01*
X-361560Y36082D01*
X-359016Y35400D01*
X-356384D01*
X-353840Y36082D01*
X-351560Y37398D01*
X-349698Y39260D01*
X-348382Y41540D01*
X-348309Y41810D01*
X-347039Y41643D01*
Y23757D01*
X-348309Y23590D01*
X-348382Y23860D01*
X-349698Y26140D01*
X-351560Y28002D01*
X-353840Y29318D01*
X-356384Y30000D01*
X-359016D01*
X-361560Y29318D01*
X-363840Y28002D01*
X-365702Y26140D01*
X-367019Y23860D01*
X-367700Y21317D01*
Y18684D01*
X-367019Y16140D01*
X-365702Y13860D01*
X-363840Y11998D01*
X-361560Y10682D01*
X-359016Y10000D01*
X-356384D01*
X-353840Y10682D01*
X-351560Y11998D01*
X-349698Y13860D01*
X-348382Y16140D01*
X-348309Y16410D01*
X-347039Y16243D01*
Y-1643D01*
X-348309Y-1810D01*
X-348382Y-1540D01*
X-349698Y740D01*
X-351560Y2602D01*
X-353840Y3918D01*
X-356384Y4600D01*
X-359016D01*
X-361560Y3918D01*
X-363840Y2602D01*
X-365702Y740D01*
X-367019Y-1540D01*
X-367700Y-4083D01*
Y-6716D01*
X-367019Y-9260D01*
X-365702Y-11540D01*
X-363840Y-13402D01*
X-361560Y-14719D01*
X-359016Y-15400D01*
X-356384D01*
X-353840Y-14719D01*
X-351560Y-13402D01*
X-349698Y-11540D01*
X-348382Y-9260D01*
X-348309Y-8990D01*
X-347039Y-9157D01*
Y-27043D01*
X-348309Y-27210D01*
X-348382Y-26940D01*
X-349698Y-24660D01*
X-351560Y-22798D01*
X-353840Y-21481D01*
X-356384Y-20800D01*
X-359016D01*
X-361560Y-21481D01*
X-363840Y-22798D01*
X-365702Y-24660D01*
X-367019Y-26940D01*
X-367700Y-29483D01*
Y-32116D01*
X-367019Y-34660D01*
X-365702Y-36940D01*
X-363840Y-38802D01*
X-361560Y-40118D01*
X-359016Y-40800D01*
X-356384D01*
X-353840Y-40118D01*
X-351560Y-38802D01*
X-349698Y-36940D01*
X-348382Y-34660D01*
X-348309Y-34390D01*
X-347039Y-34557D01*
X-347039Y-49799D01*
X-347000Y-49996D01*
X-347000Y-50196D01*
X-346923Y-50382D01*
X-346884Y-50580D01*
X-346867Y-50605D01*
X-346867Y-50605D01*
X-346821Y-50717D01*
X-346726Y-50859D01*
X-346696Y-50932D01*
X-346679Y-50957D01*
X-346623Y-51012D01*
X-346379Y-51379D01*
X-346013Y-51623D01*
X-345957Y-51679D01*
X-345932Y-51695D01*
X-345902Y-51708D01*
X-345879Y-51730D01*
X-345819Y-51753D01*
X-345717Y-51821D01*
X-345605Y-51867D01*
X-345605Y-51867D01*
X-345579Y-51884D01*
X-345383Y-51923D01*
X-345197Y-52000D01*
X-345165D01*
X-345135Y-52011D01*
X-345134Y-52011D01*
X-344965Y-52006D01*
X-344799Y-52039D01*
X-270039D01*
Y-82000D01*
Y-177099D01*
X-271309Y-177700D01*
X-272410Y-176797D01*
X-275363Y-175218D01*
X-278567Y-174246D01*
X-281900Y-173918D01*
X-285233Y-174246D01*
X-288437Y-175218D01*
X-291390Y-176797D01*
X-293979Y-178921D01*
X-296103Y-181510D01*
X-297682Y-184463D01*
X-298654Y-187667D01*
X-298982Y-191000D01*
Y-206000D01*
X-298654Y-209333D01*
X-297682Y-212537D01*
X-296103Y-215490D01*
X-293979Y-218079D01*
X-291390Y-220203D01*
X-288437Y-221782D01*
X-285233Y-222754D01*
X-281900Y-223082D01*
X-278567Y-222754D01*
X-275363Y-221782D01*
X-272410Y-220203D01*
X-269821Y-218079D01*
X-267697Y-215490D01*
X-266118Y-212537D01*
X-265146Y-209333D01*
X-264818Y-206000D01*
Y-191000D01*
X-265146Y-187667D01*
X-266104Y-184511D01*
X-266032Y-184388D01*
X-265408Y-183843D01*
X-265096Y-183682D01*
X-264997Y-183722D01*
X-264830Y-183834D01*
X-264633Y-183873D01*
X-264448Y-183950D01*
X-264197Y-184000D01*
X-263996D01*
X-263799Y-184039D01*
X-233757D01*
X-233622Y-184012D01*
X-233615Y-184014D01*
X-233587Y-184008D01*
X-233547Y-184013D01*
X-233488Y-184010D01*
X-233377Y-183980D01*
X-233235Y-183971D01*
X-233152Y-183949D01*
X-233056Y-183902D01*
X-232835Y-183858D01*
X-232781Y-183822D01*
X-232719Y-183806D01*
X-232539Y-183669D01*
X-232440Y-183628D01*
X-232369Y-183581D01*
X-232269Y-183480D01*
X-232173Y-183416D01*
X-232132Y-183375D01*
X-232109Y-183341D01*
X-232086Y-183323D01*
X-232083Y-183318D01*
X-231973Y-183234D01*
X-231662Y-182881D01*
X-231578Y-182737D01*
X-231463Y-182616D01*
X-231407Y-182525D01*
X-231389Y-182493D01*
X-231381Y-182484D01*
X-230878Y-182036D01*
X-230295Y-181796D01*
X-230027Y-181800D01*
X-229844Y-181812D01*
X-227648Y-182400D01*
X-224752D01*
X-221954Y-181650D01*
X-219446Y-180202D01*
X-217398Y-178154D01*
X-216835Y-177179D01*
X-215565D01*
X-215002Y-178154D01*
X-212954Y-180202D01*
X-210446Y-181650D01*
X-207648Y-182400D01*
X-204752D01*
X-201954Y-181650D01*
X-199446Y-180202D01*
X-197398Y-178154D01*
X-195950Y-175646D01*
X-195200Y-172848D01*
Y-169952D01*
X-195950Y-167154D01*
X-197398Y-164646D01*
X-199446Y-162598D01*
X-201954Y-161150D01*
X-204752Y-160400D01*
X-207648D01*
X-208453Y-160616D01*
X-209461Y-159843D01*
Y-152595D01*
X-209461Y-152595D01*
X-194424Y-137558D01*
X-186905Y-130039D01*
X-186905Y-130039D01*
X-101201D01*
X-101168Y-130033D01*
X-101168Y-130033D01*
X-101004Y-130000D01*
X-100803Y-130000D01*
X-100770Y-129993D01*
X-100740Y-129981D01*
X-100636Y-129960D01*
X-100636Y-129960D01*
X-100635D01*
X-100480Y-129896D01*
X-100420Y-129884D01*
X-100420Y-129884D01*
X-100387Y-129877D01*
X-100357Y-129865D01*
X-100278Y-129812D01*
X-99901Y-129656D01*
X-99901Y-129656D01*
X-99900Y-129656D01*
X-99645Y-129400D01*
X-99338Y-129093D01*
X-99338Y-129093D01*
X-99338Y-129093D01*
X-99213Y-128793D01*
X-99133Y-128598D01*
X-99116Y-128573D01*
X-99110Y-128544D01*
X-99033Y-128358D01*
Y-128358D01*
X-99033Y-128358D01*
X-99000Y-128190D01*
X-99000Y-127990D01*
X-98961Y-127793D01*
Y-73000D01*
X-98961Y113598D01*
X-98961Y113599D01*
Y113799D01*
X-99000Y113996D01*
X-99000Y114198D01*
X-99077Y114383D01*
X-99116Y114580D01*
X-99123Y114589D01*
X-99256Y114911D01*
X-99256Y114911D01*
X-99258Y114922D01*
X-99369Y115088D01*
X-99445Y115273D01*
X-99445Y115273D01*
X-99446Y115274D01*
X-99447Y115275D01*
X-99588Y115417D01*
X-99700Y115584D01*
X-118374Y134258D01*
X-129308Y145192D01*
X-129970Y145634D01*
X-130750Y145789D01*
X-326453D01*
X-326793Y147059D01*
X-325860Y147598D01*
X-323998Y149460D01*
X-322682Y151740D01*
X-322000Y154284D01*
Y156917D01*
X-322682Y159460D01*
X-323998Y161740D01*
X-325860Y163602D01*
X-328140Y164918D01*
X-330684Y165600D01*
D02*
G37*
G36*
X379500Y138650D02*
X340500D01*
Y126474D01*
X289400D01*
X287937Y126182D01*
X286696Y125354D01*
X-2154Y-163496D01*
X-2982Y-164737D01*
X-3273Y-166200D01*
Y-266922D01*
X-3310Y-266931D01*
X-5590Y-268248D01*
X-7452Y-270110D01*
X-8769Y-272390D01*
X-9450Y-274933D01*
Y-277567D01*
X-8769Y-280110D01*
X-7452Y-282390D01*
X-5590Y-284252D01*
X-3310Y-285569D01*
X-767Y-286250D01*
X1866D01*
X4410Y-285569D01*
X6690Y-284252D01*
X8552Y-282390D01*
X9869Y-280110D01*
X10550Y-277567D01*
Y-274933D01*
X9869Y-272390D01*
X8552Y-270110D01*
X6690Y-268248D01*
X4410Y-266931D01*
X4373Y-266922D01*
Y-167784D01*
X290984Y118827D01*
X340500D01*
Y106650D01*
X379500D01*
Y138650D01*
D02*
G37*
G36*
X363250Y87177D02*
X356250D01*
X353114Y86868D01*
X350097Y85954D01*
X347318Y84468D01*
X344882Y82469D01*
X342882Y80032D01*
X341396Y77253D01*
X340481Y74237D01*
X340173Y71100D01*
X340481Y67964D01*
X341396Y64947D01*
X342882Y62168D01*
X344882Y59732D01*
X347318Y57732D01*
X350097Y56246D01*
X353114Y55332D01*
X356250Y55023D01*
X363250D01*
X366386Y55332D01*
X369403Y56246D01*
X372182Y57732D01*
X374618Y59732D01*
X376618Y62168D01*
X378104Y64947D01*
X379019Y67964D01*
X379327Y71100D01*
X379019Y74237D01*
X378104Y77253D01*
X376618Y80032D01*
X374618Y82469D01*
X372182Y84468D01*
X369403Y85954D01*
X366386Y86868D01*
X363250Y87177D01*
D02*
G37*
G36*
X132943Y31750D02*
X130556D01*
X128351Y30837D01*
X126663Y29149D01*
X125750Y26944D01*
Y24557D01*
X126663Y22351D01*
X128351Y20663D01*
X130556Y19750D01*
X132943D01*
X135149Y20663D01*
X136837Y22351D01*
X137750Y24557D01*
Y26944D01*
X136837Y29149D01*
X135149Y30837D01*
X132943Y31750D01*
D02*
G37*
G36*
X363250Y47577D02*
X356250D01*
X353114Y47269D01*
X350097Y46354D01*
X347318Y44868D01*
X344882Y42868D01*
X342882Y40432D01*
X341396Y37653D01*
X340481Y34636D01*
X340173Y31500D01*
X340481Y28363D01*
X341396Y25347D01*
X342882Y22568D01*
X344882Y20131D01*
X347318Y18132D01*
X350097Y16646D01*
X353114Y15732D01*
X356250Y15423D01*
X363250D01*
X366386Y15732D01*
X369403Y16646D01*
X372182Y18132D01*
X374618Y20131D01*
X376618Y22568D01*
X378104Y25347D01*
X379019Y28363D01*
X379327Y31500D01*
X379019Y34636D01*
X378104Y37653D01*
X376618Y40432D01*
X374618Y42868D01*
X372182Y44868D01*
X369403Y46354D01*
X366386Y47269D01*
X363250Y47577D01*
D02*
G37*
G36*
X379250Y7900D02*
X340250D01*
Y-4277D01*
X211650D01*
X210187Y-4568D01*
X208946Y-5396D01*
X23246Y-191096D01*
X22418Y-192337D01*
X22127Y-193800D01*
Y-266250D01*
X15950D01*
Y-286250D01*
X35950D01*
Y-266250D01*
X29773D01*
Y-195384D01*
X213234Y-11923D01*
X340250D01*
Y-24100D01*
X379250D01*
Y7900D01*
D02*
G37*
G36*
X371000Y-54431D02*
X359000D01*
X356912Y-54706D01*
X354966Y-55512D01*
X353294Y-56794D01*
X352012Y-58465D01*
X351206Y-60412D01*
X350931Y-62500D01*
X351206Y-64588D01*
X352012Y-66535D01*
X353294Y-68206D01*
X354966Y-69488D01*
X356912Y-70294D01*
X359000Y-70569D01*
X371000D01*
X373088Y-70294D01*
X375034Y-69488D01*
X376706Y-68206D01*
X377988Y-66535D01*
X378794Y-64588D01*
X379069Y-62500D01*
X378794Y-60412D01*
X377988Y-58465D01*
X376706Y-56794D01*
X375034Y-55512D01*
X373088Y-54706D01*
X371000Y-54431D01*
D02*
G37*
G36*
X-377244Y-84460D02*
X-379756D01*
X-382182Y-85110D01*
X-384358Y-86366D01*
X-386134Y-88142D01*
X-387390Y-90318D01*
X-388040Y-92744D01*
Y-95256D01*
X-387390Y-97682D01*
X-386134Y-99858D01*
X-384358Y-101634D01*
X-382182Y-102890D01*
X-379756Y-103540D01*
X-377244D01*
X-374818Y-102890D01*
X-372642Y-101634D01*
X-370866Y-99858D01*
X-369610Y-97682D01*
X-368960Y-95256D01*
Y-92744D01*
X-369610Y-90318D01*
X-370866Y-88142D01*
X-372642Y-86366D01*
X-374818Y-85110D01*
X-377244Y-84460D01*
D02*
G37*
G36*
X307027Y-73420D02*
X302973D01*
X298997Y-74211D01*
X295252Y-75762D01*
X291881Y-78014D01*
X289014Y-80881D01*
X286762Y-84252D01*
X285211Y-87997D01*
X284420Y-91973D01*
Y-96027D01*
X285211Y-100003D01*
X286762Y-103748D01*
X289014Y-107119D01*
X291881Y-109986D01*
X295252Y-112238D01*
X298997Y-113789D01*
X302973Y-114580D01*
X307027D01*
X311003Y-113789D01*
X314748Y-112238D01*
X318119Y-109986D01*
X320985Y-107119D01*
X323238Y-103748D01*
X324789Y-100003D01*
X325580Y-96027D01*
Y-91973D01*
X324789Y-87997D01*
X323238Y-84252D01*
X320985Y-80881D01*
X318119Y-78014D01*
X314748Y-75762D01*
X311003Y-74211D01*
X307027Y-73420D01*
D02*
G37*
G36*
X-179752Y-160400D02*
X-182648D01*
X-185446Y-161150D01*
X-187954Y-162598D01*
X-190002Y-164646D01*
X-191450Y-167154D01*
X-192200Y-169952D01*
Y-172848D01*
X-191450Y-175646D01*
X-190002Y-178154D01*
X-187954Y-180202D01*
X-185446Y-181650D01*
X-182648Y-182400D01*
X-179752D01*
X-176954Y-181650D01*
X-174446Y-180202D01*
X-172398Y-178154D01*
X-170950Y-175646D01*
X-170200Y-172848D01*
Y-169952D01*
X-170950Y-167154D01*
X-172398Y-164646D01*
X-174446Y-162598D01*
X-176954Y-161150D01*
X-179752Y-160400D01*
D02*
G37*
G36*
X-327047Y-159250D02*
X-329953D01*
X-332802Y-159817D01*
X-335487Y-160929D01*
X-337903Y-162543D01*
X-339957Y-164597D01*
X-341571Y-167013D01*
X-342683Y-169698D01*
X-343250Y-172547D01*
Y-175453D01*
X-342683Y-178302D01*
X-341571Y-180987D01*
X-339957Y-183403D01*
X-337903Y-185457D01*
X-335487Y-187071D01*
X-332802Y-188183D01*
X-329953Y-188750D01*
X-327047D01*
X-324198Y-188183D01*
X-321513Y-187071D01*
X-319097Y-185457D01*
X-317043Y-183403D01*
X-315429Y-180987D01*
X-314317Y-178302D01*
X-313750Y-175453D01*
Y-172547D01*
X-314317Y-169698D01*
X-315429Y-167013D01*
X-317043Y-164597D01*
X-319097Y-162543D01*
X-321513Y-160929D01*
X-324198Y-159817D01*
X-327047Y-159250D01*
D02*
G37*
G36*
X371000Y-189431D02*
X359000D01*
X356912Y-189706D01*
X354966Y-190512D01*
X353294Y-191794D01*
X352012Y-193465D01*
X351206Y-195412D01*
X350931Y-197500D01*
X351206Y-199588D01*
X352012Y-201535D01*
X353294Y-203206D01*
X354966Y-204488D01*
X356912Y-205294D01*
X359000Y-205569D01*
X371000D01*
X373088Y-205294D01*
X375034Y-204488D01*
X376706Y-203206D01*
X377988Y-201535D01*
X378794Y-199588D01*
X379069Y-197500D01*
X378794Y-195412D01*
X377988Y-193465D01*
X376706Y-191794D01*
X375034Y-190512D01*
X373088Y-189706D01*
X371000Y-189431D01*
D02*
G37*
G36*
X-377244Y-194460D02*
X-379756D01*
X-382182Y-195110D01*
X-384358Y-196366D01*
X-386134Y-198142D01*
X-387390Y-200318D01*
X-388040Y-202744D01*
Y-205256D01*
X-387390Y-207682D01*
X-386134Y-209858D01*
X-384358Y-211634D01*
X-382182Y-212890D01*
X-379756Y-213540D01*
X-377244D01*
X-374818Y-212890D01*
X-372642Y-211634D01*
X-370866Y-209858D01*
X-369610Y-207682D01*
X-368960Y-205256D01*
Y-202744D01*
X-369610Y-200318D01*
X-370866Y-198142D01*
X-372642Y-196366D01*
X-374818Y-195110D01*
X-377244Y-194460D01*
D02*
G37*
G36*
X-150500Y-173918D02*
X-153833Y-174246D01*
X-157037Y-175218D01*
X-159990Y-176797D01*
X-162579Y-178921D01*
X-164703Y-181510D01*
X-166282Y-184463D01*
X-167254Y-187667D01*
X-167582Y-191000D01*
Y-206000D01*
X-167254Y-209333D01*
X-166282Y-212537D01*
X-164703Y-215490D01*
X-162579Y-218079D01*
X-159990Y-220203D01*
X-157037Y-221782D01*
X-153833Y-222754D01*
X-150500Y-223082D01*
X-147167Y-222754D01*
X-143963Y-221782D01*
X-141010Y-220203D01*
X-138421Y-218079D01*
X-136297Y-215490D01*
X-134718Y-212537D01*
X-133746Y-209333D01*
X-133418Y-206000D01*
Y-191000D01*
X-133746Y-187667D01*
X-134718Y-184463D01*
X-136297Y-181510D01*
X-138421Y-178921D01*
X-141010Y-176797D01*
X-143963Y-175218D01*
X-147167Y-174246D01*
X-150500Y-173918D01*
D02*
G37*
G36*
X45850Y256250D02*
X13850D01*
Y217250D01*
X26026D01*
Y13684D01*
X-78354Y-90696D01*
X-79182Y-91937D01*
X-79473Y-93400D01*
Y-266922D01*
X-79510Y-266931D01*
X-81790Y-268248D01*
X-83652Y-270110D01*
X-84969Y-272390D01*
X-85650Y-274933D01*
Y-277567D01*
X-84969Y-280110D01*
X-83652Y-282390D01*
X-81790Y-284252D01*
X-79510Y-285569D01*
X-76967Y-286250D01*
X-74334D01*
X-71790Y-285569D01*
X-69510Y-284252D01*
X-67648Y-282390D01*
X-66332Y-280110D01*
X-65650Y-277567D01*
Y-274933D01*
X-66332Y-272390D01*
X-67648Y-270110D01*
X-69510Y-268248D01*
X-71790Y-266931D01*
X-71827Y-266922D01*
Y-94984D01*
X32554Y9396D01*
X33382Y10637D01*
X33673Y12100D01*
Y217250D01*
X45850D01*
Y256250D01*
D02*
G37*
G36*
X306200Y252500D02*
X274200D01*
Y213500D01*
X286377D01*
Y166784D01*
X-27554Y-147146D01*
X-28382Y-148387D01*
X-28673Y-149850D01*
Y-266922D01*
X-28710Y-266931D01*
X-30990Y-268248D01*
X-32852Y-270110D01*
X-34169Y-272390D01*
X-34850Y-274933D01*
Y-277567D01*
X-34169Y-280110D01*
X-32852Y-282390D01*
X-30990Y-284252D01*
X-28710Y-285569D01*
X-26167Y-286250D01*
X-23533D01*
X-20990Y-285569D01*
X-18710Y-284252D01*
X-16848Y-282390D01*
X-15532Y-280110D01*
X-14850Y-277567D01*
Y-274933D01*
X-15532Y-272390D01*
X-16848Y-270110D01*
X-18710Y-268248D01*
X-20990Y-266931D01*
X-21027Y-266922D01*
Y-151434D01*
X292904Y162496D01*
X293732Y163737D01*
X294023Y165200D01*
Y213500D01*
X306200D01*
Y252500D01*
D02*
G37*
G36*
X176100Y253750D02*
X144100D01*
Y214750D01*
X156277D01*
Y94184D01*
X-52954Y-115046D01*
X-53782Y-116287D01*
X-54073Y-117750D01*
Y-266922D01*
X-54110Y-266931D01*
X-56390Y-268248D01*
X-58252Y-270110D01*
X-59569Y-272390D01*
X-60250Y-274933D01*
Y-277567D01*
X-59569Y-280110D01*
X-58252Y-282390D01*
X-56390Y-284252D01*
X-54110Y-285569D01*
X-51567Y-286250D01*
X-48934D01*
X-46390Y-285569D01*
X-44110Y-284252D01*
X-42248Y-282390D01*
X-40932Y-280110D01*
X-40250Y-277567D01*
Y-274933D01*
X-40932Y-272390D01*
X-42248Y-270110D01*
X-44110Y-268248D01*
X-46390Y-266931D01*
X-46427Y-266922D01*
Y-119334D01*
X162803Y89896D01*
X163632Y91137D01*
X163923Y92600D01*
Y214750D01*
X176100D01*
Y253750D01*
D02*
G37*
G36*
X357125Y-235000D02*
X352875D01*
X348677Y-235665D01*
X344636Y-236978D01*
X340849Y-238908D01*
X337411Y-241406D01*
X334406Y-244411D01*
X331908Y-247849D01*
X329978Y-251636D01*
X328665Y-255678D01*
X328000Y-259875D01*
Y-264125D01*
X328665Y-268323D01*
X329978Y-272364D01*
X331908Y-276151D01*
X334406Y-279589D01*
X337411Y-282595D01*
X340849Y-285093D01*
X344636Y-287022D01*
X348677Y-288335D01*
X352875Y-289000D01*
X357125D01*
X361323Y-288335D01*
X365364Y-287022D01*
X369151Y-285093D01*
X372589Y-282595D01*
X375594Y-279589D01*
X378092Y-276151D01*
X380022Y-272364D01*
X381335Y-268323D01*
X382000Y-264125D01*
Y-259875D01*
X381335Y-255678D01*
X380022Y-251636D01*
X378092Y-247849D01*
X375594Y-244411D01*
X372589Y-241406D01*
X369151Y-238908D01*
X365364Y-236978D01*
X361323Y-235665D01*
X357125Y-235000D01*
D02*
G37*
G36*
X-352875D02*
X-357125D01*
X-361323Y-235665D01*
X-365364Y-236978D01*
X-369151Y-238908D01*
X-372589Y-241406D01*
X-375594Y-244411D01*
X-378092Y-247849D01*
X-380022Y-251636D01*
X-381335Y-255678D01*
X-382000Y-259875D01*
Y-264125D01*
X-381335Y-268323D01*
X-380022Y-272364D01*
X-378092Y-276151D01*
X-375594Y-279589D01*
X-372589Y-282595D01*
X-369151Y-285093D01*
X-365364Y-287022D01*
X-361323Y-288335D01*
X-357125Y-289000D01*
X-352875D01*
X-348677Y-288335D01*
X-344636Y-287022D01*
X-340849Y-285093D01*
X-337411Y-282595D01*
X-334406Y-279589D01*
X-331908Y-276151D01*
X-329978Y-272364D01*
X-328665Y-268323D01*
X-328000Y-264125D01*
Y-259875D01*
X-328665Y-255678D01*
X-329978Y-251636D01*
X-331908Y-247849D01*
X-334406Y-244411D01*
X-337411Y-241406D01*
X-340849Y-238908D01*
X-344636Y-236978D01*
X-348677Y-235665D01*
X-352875Y-235000D01*
D02*
G37*
G36*
X182985Y-182946D02*
X86750D01*
X85970Y-183101D01*
X85308Y-183543D01*
X84866Y-184205D01*
X84711Y-184985D01*
Y-293250D01*
X84866Y-294030D01*
X85308Y-294692D01*
X85970Y-295134D01*
X86750Y-295289D01*
X217000D01*
X217000Y-295289D01*
X217780Y-295134D01*
X218442Y-294692D01*
X221942Y-291192D01*
X222384Y-290530D01*
X222539Y-289750D01*
Y-222500D01*
X222539Y-222500D01*
X222384Y-221720D01*
X221942Y-221058D01*
X184427Y-183543D01*
X183766Y-183101D01*
X182985Y-182946D01*
D02*
G37*
%LPD*%
G36*
X-119816Y132816D02*
X-101142Y114142D01*
X-101142Y114142D01*
X-101139Y114130D01*
X-101006Y113809D01*
X-101000Y113799D01*
Y113599D01*
X-101000Y113598D01*
X-101000Y-73000D01*
Y-127793D01*
X-101033Y-127960D01*
X-101137Y-127981D01*
X-101168Y-127993D01*
X-101201Y-128000D01*
X-186905D01*
X-186905Y-128000D01*
X-186905Y-128000D01*
X-187750D01*
X-195866Y-136116D01*
X-210903Y-151153D01*
X-210903Y-151153D01*
X-211500Y-151750D01*
Y-161758D01*
X-212954Y-162598D01*
X-215002Y-164646D01*
X-215565Y-165621D01*
X-216835D01*
X-217398Y-164646D01*
X-219446Y-162598D01*
X-221954Y-161150D01*
X-224752Y-160400D01*
X-227648D01*
X-230446Y-161150D01*
X-232954Y-162598D01*
X-235002Y-164646D01*
X-236450Y-167154D01*
X-237200Y-169952D01*
Y-172848D01*
X-236450Y-175646D01*
X-235002Y-178154D01*
X-233338Y-179818D01*
X-233087Y-180366D01*
X-233020Y-180659D01*
X-233134Y-181441D01*
X-233191Y-181532D01*
X-233502Y-181885D01*
X-233574Y-181933D01*
X-233615Y-181974D01*
X-233674Y-181978D01*
X-233757Y-182000D01*
X-263799D01*
X-264050Y-181950D01*
X-268000Y-178000D01*
Y-82000D01*
Y-50000D01*
X-344799D01*
X-344799Y-50000D01*
X-344824Y-49983D01*
X-344937Y-49937D01*
X-344983Y-49824D01*
X-345000Y-49799D01*
X-345000Y-34557D01*
Y143348D01*
Y143549D01*
X-344966Y143720D01*
X-344958Y143725D01*
X-344898Y143750D01*
X-130750D01*
X-119816Y132816D01*
D02*
G37*
%LPC*%
G36*
X-265000Y141700D02*
X-275000D01*
X-280000Y136700D01*
Y126700D01*
X-275000Y121700D01*
X-265000D01*
X-260000Y126700D01*
Y136700D01*
X-265000Y141700D01*
D02*
G37*
G36*
X-330684Y140200D02*
X-333316D01*
X-335860Y139518D01*
X-338140Y138202D01*
X-340002Y136340D01*
X-341319Y134060D01*
X-342000Y131517D01*
Y128883D01*
X-341319Y126340D01*
X-340002Y124060D01*
X-338140Y122198D01*
X-335860Y120882D01*
X-333316Y120200D01*
X-330684D01*
X-328140Y120882D01*
X-325860Y122198D01*
X-323998Y124060D01*
X-322682Y126340D01*
X-322000Y128883D01*
Y131517D01*
X-322682Y134060D01*
X-323998Y136340D01*
X-325860Y138202D01*
X-328140Y139518D01*
X-330684Y140200D01*
D02*
G37*
G36*
X-322000Y114800D02*
X-342000D01*
Y94800D01*
X-322000D01*
Y114800D01*
D02*
G37*
G36*
X-196306Y91750D02*
X-198694D01*
X-200899Y90836D01*
X-202587Y89149D01*
X-203500Y86944D01*
Y84557D01*
X-202587Y82351D01*
X-200899Y80663D01*
X-198694Y79750D01*
X-196306D01*
X-194101Y80663D01*
X-192414Y82351D01*
X-191500Y84557D01*
Y86944D01*
X-192414Y89149D01*
X-194101Y90836D01*
X-196306Y91750D01*
D02*
G37*
G36*
X-131306Y83500D02*
X-133694D01*
X-135899Y82587D01*
X-137586Y80899D01*
X-138500Y78693D01*
Y76307D01*
X-137586Y74101D01*
X-135899Y72413D01*
X-133694Y71500D01*
X-131306D01*
X-129101Y72413D01*
X-127413Y74101D01*
X-126500Y76307D01*
Y78693D01*
X-127413Y80899D01*
X-129101Y82587D01*
X-131306Y83500D01*
D02*
G37*
%LPD*%
G36*
X182970Y-185022D02*
X183127Y-185127D01*
X220358Y-222358D01*
X220463Y-222515D01*
X220500Y-222701D01*
Y-289549D01*
X220463Y-289735D01*
X220358Y-289892D01*
X217142Y-293108D01*
X216985Y-293213D01*
X216799Y-293250D01*
X86951D01*
X86783Y-293217D01*
X86750Y-293049D01*
Y-185186D01*
X86783Y-185019D01*
X86951Y-184985D01*
X182785D01*
X182970Y-185022D01*
D02*
G37*
%LPC*%
G36*
X154250Y-239750D02*
X138250D01*
Y-268750D01*
X154250D01*
Y-239750D01*
D02*
G37*
G36*
X133750Y-271250D02*
X104750D01*
Y-287250D01*
X133750D01*
Y-271250D01*
D02*
G37*
%LPD*%
D33*
X305000Y-94000D02*
D03*
D34*
Y-166000D02*
D03*
D35*
X365000Y-62500D02*
D03*
Y-197500D02*
D03*
D36*
X-132500Y233000D02*
D03*
Y283000D02*
D03*
X119250Y-229250D02*
D03*
Y-279250D02*
D03*
X-217000Y231750D02*
D03*
Y281750D02*
D03*
D37*
X-159500Y258000D02*
D03*
X146250Y-254250D02*
D03*
X-244000Y256750D02*
D03*
D38*
X-75650Y-276250D02*
D03*
X-24850Y-276250D02*
D03*
X550D02*
D03*
X-50250D02*
D03*
X-357700Y70800D02*
D03*
X-332300D02*
D03*
X-357700Y20000D02*
D03*
X-332300D02*
D03*
X-357700Y-30800D02*
D03*
Y-5400D02*
D03*
X-332300D02*
D03*
Y45400D02*
D03*
X-357700D02*
D03*
X-357400Y181000D02*
D03*
X-332000D02*
D03*
Y130200D02*
D03*
X-357400D02*
D03*
Y104800D02*
D03*
X-332000Y155600D02*
D03*
X-357400D02*
D03*
X-332000Y206400D02*
D03*
X-357400D02*
D03*
D39*
X25950Y-276250D02*
D03*
D40*
X-378500Y-204000D02*
D03*
Y-94000D02*
D03*
D41*
X-328500Y-174000D02*
D03*
Y-124000D02*
D03*
D43*
X355000Y-262000D02*
D03*
X-355000Y262000D02*
D03*
Y-262000D02*
D03*
X355000Y262000D02*
D03*
D44*
X-270000Y106300D02*
D03*
Y131700D02*
D03*
D45*
X250600Y233000D02*
D03*
X211000D02*
D03*
X-9750Y236750D02*
D03*
X-49350D02*
D03*
X80900Y234250D02*
D03*
X120500D02*
D03*
D46*
X290200Y233000D02*
D03*
X29850Y236750D02*
D03*
X160100Y234250D02*
D03*
D47*
X360000Y201850D02*
D03*
Y162250D02*
D03*
X359750Y31500D02*
D03*
Y71100D02*
D03*
D48*
X360000Y122650D02*
D03*
X359750Y-8100D02*
D03*
D49*
X-206200Y-171400D02*
D03*
X-181200Y-171400D02*
D03*
X-226200Y-171400D02*
D03*
D50*
X-251200D02*
D03*
D51*
X-281900Y-198500D02*
D03*
X-150500D02*
D03*
D52*
X-332300Y-30800D02*
D03*
X-332000Y104800D02*
D03*
D53*
X212500Y170250D02*
D03*
X221250D02*
D03*
X230000D02*
D03*
X238750D02*
D03*
X273750D02*
D03*
X265000D02*
D03*
X256250D02*
D03*
X247500D02*
D03*
Y180000D02*
D03*
X256250D02*
D03*
X265000D02*
D03*
X273750D02*
D03*
X238750D02*
D03*
X230000D02*
D03*
X221250D02*
D03*
X212500D02*
D03*
D54*
X-197500Y85750D02*
D03*
X-132500Y77500D02*
D03*
X131750Y25750D02*
D03*
D55*
X-75650Y-93400D02*
X29850Y12100D01*
X-75650Y-276250D02*
Y-93400D01*
X29850Y12100D02*
Y236750D01*
X-50250Y-276250D02*
Y-117750D01*
X160100Y92600D02*
Y234250D01*
X-50250Y-117750D02*
X160100Y92600D01*
X-24850Y-276250D02*
Y-149850D01*
X290200Y165200D02*
Y233000D01*
X-24850Y-149850D02*
X290200Y165200D01*
X25950Y-276250D02*
Y-193800D01*
X211650Y-8100D02*
X359750D01*
X25950Y-193800D02*
X211650Y-8100D01*
X550Y-166200D02*
X289400Y122650D01*
X360000D01*
X550Y-276250D02*
Y-166200D01*
%TF.MD5,6ba070f66e4fed6e52014c6e51d60156*%
M02*
