%TF.GenerationSoftware,Altium Limited,Altium Designer,22.5.1 (42)*%
G04 Layer_Physical_Order=1*
G04 Layer_Color=255*
%FSLAX44Y44*%
%MOMM*%
%TF.SameCoordinates,7B58D917-D16F-4CFB-9619-50DAC3371BF8*%
%TF.FilePolarity,Positive*%
%TF.FileFunction,Copper,L1,Top,Signal*%
%TF.Part,Single*%
G01*
G75*
%TA.AperFunction,SMDPad,CuDef*%
%ADD10C,2.0000*%
%ADD11R,1.1600X1.4700*%
%ADD12R,1.0000X0.4000*%
%ADD13R,2.6000X3.0000*%
%ADD14R,1.0000X1.6000*%
%ADD15R,0.8000X0.8000*%
%ADD16R,0.8500X0.8500*%
%ADD17O,0.6000X1.2000*%
%ADD18R,0.6000X1.2000*%
%ADD19R,0.8500X0.8500*%
G04:AMPARAMS|DCode=20|XSize=4.2mm|YSize=4.2mm|CornerRadius=0.21mm|HoleSize=0mm|Usage=FLASHONLY|Rotation=270.000|XOffset=0mm|YOffset=0mm|HoleType=Round|Shape=RoundedRectangle|*
%AMROUNDEDRECTD20*
21,1,4.2000,3.7800,0,0,270.0*
21,1,3.7800,4.2000,0,0,270.0*
1,1,0.4200,-1.8900,-1.8900*
1,1,0.4200,-1.8900,1.8900*
1,1,0.4200,1.8900,1.8900*
1,1,0.4200,1.8900,-1.8900*
%
%ADD20ROUNDEDRECTD20*%
%ADD21R,1.8500X1.5000*%
%ADD22R,5.3500X3.6000*%
%ADD23R,1.5500X1.1000*%
%ADD24R,1.5500X1.1000*%
%ADD25R,1.5500X3.4500*%
%ADD26R,0.8000X0.8000*%
%ADD27R,1.6000X1.0000*%
%ADD28R,3.6000X5.3500*%
%ADD29R,1.5000X1.8500*%
%TA.AperFunction,Conductor*%
%ADD30C,0.3810*%
%ADD31C,0.8000*%
%ADD32C,0.7000*%
%TA.AperFunction,ComponentPad*%
%ADD33C,3.7160*%
%ADD34R,3.7160X3.7160*%
%ADD35O,2.4000X1.2000*%
%ADD36R,2.5000X1.2000*%
%ADD37R,1.2000X2.5000*%
%ADD38C,1.6000*%
%ADD39R,1.6000X1.6000*%
%ADD40C,1.5080*%
%ADD41C,2.5500*%
%ADD42R,2.5500X2.5500*%
%ADD43C,5.0000*%
G04:AMPARAMS|DCode=44|XSize=1.6mm|YSize=1.6mm|CornerRadius=0mm|HoleSize=0mm|Usage=FLASHONLY|Rotation=90.000|XOffset=0mm|YOffset=0mm|HoleType=Round|Shape=Octagon|*
%AMOCTAGOND44*
4,1,8,0.4000,0.8000,-0.4000,0.8000,-0.8000,0.4000,-0.8000,-0.4000,-0.4000,-0.8000,0.4000,-0.8000,0.8000,-0.4000,0.8000,0.4000,0.4000,0.8000,0.0*
%
%ADD44OCTAGOND44*%

%ADD45O,2.8000X3.5000*%
%ADD46R,2.8000X3.5000*%
%ADD47O,3.5000X2.8000*%
%ADD48R,3.5000X2.8000*%
%ADD49C,1.8000*%
%ADD50R,1.8000X1.8000*%
%ADD51O,3.0000X4.5000*%
%ADD52R,1.6000X1.6000*%
%TA.AperFunction,ViaPad*%
%ADD53C,0.6000*%
%ADD54C,0.8000*%
G36*
X355354Y297055D02*
X362060Y295258D01*
X368474Y292601D01*
X374487Y289130D01*
X379994Y284904D01*
X384904Y279994D01*
X389130Y274487D01*
X392601Y268474D01*
X395258Y262060D01*
X397055Y255354D01*
X397961Y248471D01*
Y245000D01*
X397961Y-245000D01*
X397961Y-248471D01*
X397055Y-255354D01*
X395258Y-262060D01*
X392601Y-268474D01*
X389130Y-274487D01*
X384904Y-279994D01*
X379994Y-284904D01*
X374487Y-289130D01*
X368474Y-292601D01*
X362060Y-295258D01*
X355354Y-297055D01*
X348471Y-297961D01*
X-348471D01*
X-355354Y-297055D01*
X-362060Y-295258D01*
X-368474Y-292601D01*
X-374487Y-289130D01*
X-379994Y-284904D01*
X-384904Y-279994D01*
X-389130Y-274487D01*
X-392601Y-268474D01*
X-395258Y-262060D01*
X-397055Y-255354D01*
X-397961Y-248471D01*
X-397961Y-245000D01*
Y245000D01*
X-397961Y248471D01*
X-397055Y255354D01*
X-395258Y262060D01*
X-392601Y268474D01*
X-389130Y274487D01*
X-384904Y279994D01*
X-379994Y284904D01*
X-374487Y289130D01*
X-368474Y292601D01*
X-362060Y295258D01*
X-355354Y297055D01*
X-348471Y297961D01*
X348471D01*
X355354Y297055D01*
D02*
G37*
%LPC*%
G36*
X357125Y289000D02*
X352875D01*
X348677Y288335D01*
X344636Y287022D01*
X340849Y285093D01*
X337411Y282595D01*
X334406Y279589D01*
X331908Y276151D01*
X329978Y272364D01*
X328665Y268323D01*
X328000Y264125D01*
Y259875D01*
X328665Y255678D01*
X329978Y251636D01*
X331908Y247849D01*
X334406Y244411D01*
X337411Y241406D01*
X340849Y238908D01*
X344636Y236978D01*
X348677Y235665D01*
X352875Y235000D01*
X357125D01*
X361323Y235665D01*
X365364Y236978D01*
X369151Y238908D01*
X372589Y241406D01*
X375594Y244411D01*
X378092Y247849D01*
X380022Y251636D01*
X381335Y255678D01*
X382000Y259875D01*
Y264125D01*
X381335Y268323D01*
X380022Y272364D01*
X378092Y276151D01*
X375594Y279589D01*
X372589Y282595D01*
X369151Y285093D01*
X365364Y287022D01*
X361323Y288335D01*
X357125Y289000D01*
D02*
G37*
G36*
X-352875D02*
X-357125D01*
X-361323Y288335D01*
X-365364Y287022D01*
X-369151Y285093D01*
X-372589Y282595D01*
X-375594Y279589D01*
X-378092Y276151D01*
X-380022Y272364D01*
X-381335Y268323D01*
X-382000Y264125D01*
Y259875D01*
X-381335Y255678D01*
X-380022Y251636D01*
X-378092Y247849D01*
X-375594Y244411D01*
X-372589Y241406D01*
X-369151Y238908D01*
X-365364Y236978D01*
X-361323Y235665D01*
X-357125Y235000D01*
X-352875D01*
X-348677Y235665D01*
X-344636Y236978D01*
X-340849Y238908D01*
X-337411Y241406D01*
X-334406Y244411D01*
X-331908Y247849D01*
X-329978Y251636D01*
X-328665Y255678D01*
X-328000Y259875D01*
Y264125D01*
X-328665Y268323D01*
X-329978Y272364D01*
X-331908Y276151D01*
X-334406Y279589D01*
X-337411Y282595D01*
X-340849Y285093D01*
X-344636Y287022D01*
X-348677Y288335D01*
X-352875Y289000D01*
D02*
G37*
G36*
X-202500Y239750D02*
X-231500D01*
Y223750D01*
X-202500D01*
Y239750D01*
D02*
G37*
G36*
X45850Y256250D02*
X13850D01*
Y217250D01*
X45850D01*
Y256250D01*
D02*
G37*
G36*
X-9750Y256327D02*
X-12887Y256019D01*
X-15903Y255104D01*
X-18682Y253618D01*
X-21118Y251618D01*
X-23118Y249182D01*
X-24604Y246403D01*
X-25519Y243386D01*
X-25827Y240250D01*
Y233250D01*
X-25519Y230114D01*
X-24604Y227097D01*
X-23118Y224318D01*
X-21118Y221882D01*
X-18682Y219882D01*
X-15903Y218396D01*
X-12887Y217481D01*
X-9750Y217173D01*
X-6613Y217481D01*
X-3597Y218396D01*
X-818Y219882D01*
X1619Y221882D01*
X3618Y224318D01*
X5104Y227097D01*
X6018Y230114D01*
X6327Y233250D01*
Y240250D01*
X6018Y243386D01*
X5104Y246403D01*
X3618Y249182D01*
X1619Y251618D01*
X-818Y253618D01*
X-3597Y255104D01*
X-6613Y256019D01*
X-9750Y256327D01*
D02*
G37*
G36*
X176100Y253750D02*
X144100D01*
Y214750D01*
X176100D01*
Y253750D01*
D02*
G37*
G36*
X120500Y253827D02*
X117363Y253519D01*
X114347Y252604D01*
X111568Y251118D01*
X109131Y249118D01*
X107132Y246682D01*
X105646Y243903D01*
X104732Y240886D01*
X104423Y237750D01*
Y230750D01*
X104732Y227614D01*
X105646Y224597D01*
X107132Y221818D01*
X109131Y219382D01*
X111568Y217382D01*
X114347Y215896D01*
X117363Y214981D01*
X120500Y214673D01*
X123637Y214981D01*
X126653Y215896D01*
X129432Y217382D01*
X131868Y219382D01*
X133868Y221818D01*
X135354Y224597D01*
X136269Y227614D01*
X136577Y230750D01*
Y237750D01*
X136269Y240886D01*
X135354Y243903D01*
X133868Y246682D01*
X131868Y249118D01*
X129432Y251118D01*
X126653Y252604D01*
X123637Y253519D01*
X120500Y253827D01*
D02*
G37*
G36*
X306200Y252500D02*
X274200D01*
Y213500D01*
X306200D01*
Y252500D01*
D02*
G37*
G36*
X250600Y252577D02*
X247463Y252269D01*
X244447Y251354D01*
X241668Y249868D01*
X239232Y247868D01*
X237232Y245432D01*
X235746Y242652D01*
X234832Y239636D01*
X234523Y236500D01*
Y229500D01*
X234832Y226364D01*
X235746Y223347D01*
X237232Y220568D01*
X239232Y218132D01*
X241668Y216132D01*
X244447Y214646D01*
X247463Y213731D01*
X250600Y213423D01*
X253737Y213731D01*
X256753Y214646D01*
X259532Y216132D01*
X261968Y218132D01*
X263968Y220568D01*
X265454Y223347D01*
X266369Y226364D01*
X266677Y229500D01*
Y236500D01*
X266369Y239636D01*
X265454Y242652D01*
X263968Y245432D01*
X261968Y247868D01*
X259532Y249868D01*
X256753Y251354D01*
X253737Y252269D01*
X250600Y252577D01*
D02*
G37*
G36*
X274745Y185000D02*
X272755D01*
X270918Y184239D01*
X270205Y183526D01*
X269375Y182930D01*
X268545Y183526D01*
X267832Y184239D01*
X265995Y185000D01*
X264005D01*
X262168Y184239D01*
X261455Y183526D01*
X260625Y182930D01*
X259795Y183526D01*
X259082Y184239D01*
X257245Y185000D01*
X255255D01*
X253418Y184239D01*
X252705Y183526D01*
X251875Y182930D01*
X251045Y183526D01*
X250332Y184239D01*
X248494Y185000D01*
X246505D01*
X244668Y184239D01*
X243955Y183526D01*
X243125Y182930D01*
X242295Y183526D01*
X241582Y184239D01*
X239745Y185000D01*
X237755D01*
X235918Y184239D01*
X235205Y183526D01*
X234375Y182930D01*
X233545Y183526D01*
X232832Y184239D01*
X230995Y185000D01*
X229005D01*
X227168Y184239D01*
X226455Y183526D01*
X225625Y182930D01*
X224795Y183526D01*
X224082Y184239D01*
X222245Y185000D01*
X220255D01*
X218418Y184239D01*
X217705Y183526D01*
X216875Y182930D01*
X216045Y183526D01*
X215332Y184239D01*
X213495Y185000D01*
X211505D01*
X209668Y184239D01*
X208261Y182832D01*
X207500Y180995D01*
Y179005D01*
X208261Y177168D01*
X209668Y175761D01*
X209671Y175760D01*
Y174490D01*
X209668Y174489D01*
X208261Y173082D01*
X207500Y171245D01*
Y169255D01*
X208261Y167418D01*
X209668Y166011D01*
X211505Y165250D01*
X213495D01*
X215332Y166011D01*
X216045Y166724D01*
X216875Y167320D01*
X217705Y166724D01*
X218418Y166011D01*
X220255Y165250D01*
X222245D01*
X224082Y166011D01*
X224795Y166724D01*
X225625Y167320D01*
X226455Y166724D01*
X227168Y166011D01*
X229005Y165250D01*
X230995D01*
X232832Y166011D01*
X233545Y166724D01*
X234375Y167320D01*
X235205Y166724D01*
X235918Y166011D01*
X237755Y165250D01*
X239745D01*
X241582Y166011D01*
X242295Y166724D01*
X243125Y167320D01*
X243955Y166724D01*
X244668Y166011D01*
X246505Y165250D01*
X248494D01*
X250332Y166011D01*
X251045Y166724D01*
X251875Y167320D01*
X252705Y166724D01*
X253418Y166011D01*
X255255Y165250D01*
X257245D01*
X259082Y166011D01*
X259795Y166724D01*
X260625Y167320D01*
X261455Y166724D01*
X262168Y166011D01*
X264005Y165250D01*
X265995D01*
X267832Y166011D01*
X268545Y166724D01*
X269375Y167320D01*
X270205Y166724D01*
X270918Y166011D01*
X272755Y165250D01*
X274745D01*
X276582Y166011D01*
X277989Y167418D01*
X278750Y169255D01*
Y171245D01*
X277989Y173082D01*
X276582Y174489D01*
X276579Y174490D01*
Y175760D01*
X276582Y175761D01*
X277989Y177168D01*
X278750Y179005D01*
Y180995D01*
X277989Y182832D01*
X276582Y184239D01*
X274745Y185000D01*
D02*
G37*
G36*
X363500Y178327D02*
X356500D01*
X353363Y178018D01*
X350347Y177104D01*
X347568Y175618D01*
X345131Y173618D01*
X343132Y171182D01*
X341646Y168403D01*
X340732Y165387D01*
X340423Y162250D01*
X340732Y159113D01*
X341646Y156097D01*
X343132Y153318D01*
X345131Y150882D01*
X347568Y148882D01*
X350347Y147396D01*
X353363Y146482D01*
X356500Y146173D01*
X363500D01*
X366637Y146482D01*
X369652Y147396D01*
X372432Y148882D01*
X374868Y150882D01*
X376868Y153318D01*
X378354Y156097D01*
X379268Y159113D01*
X379577Y162250D01*
X379268Y165387D01*
X378354Y168403D01*
X376868Y171182D01*
X374868Y173618D01*
X372432Y175618D01*
X369652Y177104D01*
X366637Y178018D01*
X363500Y178327D01*
D02*
G37*
G36*
X379500Y138650D02*
X340500D01*
Y106650D01*
X379500D01*
Y138650D01*
D02*
G37*
G36*
X-129500Y31000D02*
X-142000D01*
Y28482D01*
X-143750D01*
Y30250D01*
X-155750D01*
Y18250D01*
X-143750D01*
Y20519D01*
X-142000D01*
Y18500D01*
X-129500D01*
Y31000D01*
D02*
G37*
G36*
X-112750Y247539D02*
X-151500D01*
X-152280Y247384D01*
X-152942Y246942D01*
X-153384Y246280D01*
X-153539Y245500D01*
Y245211D01*
X-153942Y244942D01*
X-154384Y244280D01*
X-154539Y243500D01*
Y216500D01*
X-154539Y216500D01*
X-154384Y215720D01*
X-153942Y215058D01*
X-153942Y215058D01*
X-113192Y174308D01*
X-112530Y173866D01*
X-111750Y173711D01*
X-103500D01*
Y135250D01*
X-84000D01*
Y173711D01*
X-70595D01*
X9558Y93558D01*
X10220Y93116D01*
X11000Y92961D01*
X101155D01*
X103961Y90155D01*
Y74750D01*
X103500D01*
Y62250D01*
X116000D01*
Y62610D01*
X116030Y62616D01*
X116692Y63058D01*
X128942Y75308D01*
X129384Y75970D01*
X129539Y76750D01*
Y87461D01*
X160500D01*
X160500Y87461D01*
X161280Y87616D01*
X161942Y88058D01*
X161942Y88058D01*
X166884Y93000D01*
X169750D01*
Y95866D01*
X171577Y97693D01*
X172750Y97207D01*
Y93000D01*
X177392D01*
Y73580D01*
X164100D01*
X162500Y73262D01*
X161144Y72356D01*
X160238Y71000D01*
X159920Y69400D01*
Y56858D01*
X133000D01*
X130854Y56431D01*
X129035Y55215D01*
X111535Y37715D01*
X110319Y35896D01*
X109892Y33750D01*
Y19500D01*
X110319Y17354D01*
X110500Y17083D01*
Y11500D01*
X120500D01*
Y17083D01*
X120681Y17354D01*
X121108Y19500D01*
Y31427D01*
X135323Y45642D01*
X159920D01*
Y31600D01*
X160238Y30000D01*
X161144Y28644D01*
X162500Y27738D01*
X164100Y27420D01*
X201900D01*
X203500Y27738D01*
X204856Y28644D01*
X205762Y30000D01*
X206080Y31600D01*
Y69400D01*
X205762Y71000D01*
X204856Y72356D01*
X203500Y73262D01*
X201900Y73580D01*
X188608D01*
Y93000D01*
X195250D01*
Y112000D01*
X189608D01*
Y114000D01*
X195250D01*
Y133000D01*
X173789D01*
Y140750D01*
X173634Y141530D01*
X173192Y142192D01*
X152442Y162942D01*
X152400Y162970D01*
X152371Y163010D01*
X152071Y163190D01*
X151780Y163384D01*
X151731Y163394D01*
X151688Y163419D01*
X151343Y163471D01*
X151000Y163539D01*
X150951Y163529D01*
X150901Y163537D01*
X135401Y162787D01*
X135063Y162702D01*
X134770Y162644D01*
X134694Y162636D01*
X134191Y162684D01*
X133853Y162827D01*
X133368Y163258D01*
Y168150D01*
X134900D01*
Y186850D01*
X119300D01*
Y168150D01*
X121132D01*
Y162750D01*
X121000D01*
Y150250D01*
X128707D01*
X129193Y149077D01*
X115558Y135442D01*
X113116Y133000D01*
X112250D01*
Y132134D01*
X110058Y129942D01*
X109616Y129280D01*
X109461Y128500D01*
Y120095D01*
X102405Y113039D01*
X61095D01*
X-41058Y215192D01*
X-41720Y215634D01*
X-42500Y215789D01*
X-80155D01*
X-111308Y246942D01*
X-111970Y247384D01*
X-112750Y247539D01*
D02*
G37*
G36*
X363250Y47577D02*
X356250D01*
X353114Y47269D01*
X350097Y46354D01*
X347318Y44868D01*
X344882Y42868D01*
X342882Y40432D01*
X341396Y37653D01*
X340481Y34636D01*
X340173Y31500D01*
X340481Y28363D01*
X341396Y25347D01*
X342882Y22568D01*
X344882Y20131D01*
X347318Y18132D01*
X350097Y16646D01*
X353114Y15732D01*
X356250Y15423D01*
X363250D01*
X366386Y15732D01*
X369403Y16646D01*
X372182Y18132D01*
X374618Y20131D01*
X376618Y22568D01*
X378104Y25347D01*
X379019Y28363D01*
X379327Y31500D01*
X379019Y34636D01*
X378104Y37653D01*
X376618Y40432D01*
X374618Y42868D01*
X372182Y44868D01*
X369403Y46354D01*
X366386Y47269D01*
X363250Y47577D01*
D02*
G37*
G36*
X379250Y7900D02*
X340250D01*
Y-24100D01*
X379250D01*
Y7900D01*
D02*
G37*
G36*
X371000Y-54431D02*
X359000D01*
X356912Y-54706D01*
X354966Y-55512D01*
X353294Y-56794D01*
X352012Y-58465D01*
X351206Y-60412D01*
X350931Y-62500D01*
X351206Y-64588D01*
X352012Y-66535D01*
X353294Y-68206D01*
X354966Y-69488D01*
X356912Y-70294D01*
X359000Y-70569D01*
X371000D01*
X373088Y-70294D01*
X375034Y-69488D01*
X376706Y-68206D01*
X377988Y-66535D01*
X378794Y-64588D01*
X379069Y-62500D01*
X378794Y-60412D01*
X377988Y-58465D01*
X376706Y-56794D01*
X375034Y-55512D01*
X373088Y-54706D01*
X371000Y-54431D01*
D02*
G37*
G36*
X-377244Y-84460D02*
X-379756D01*
X-382182Y-85110D01*
X-384358Y-86366D01*
X-386134Y-88142D01*
X-387390Y-90318D01*
X-388040Y-92744D01*
Y-95256D01*
X-387390Y-97682D01*
X-386134Y-99858D01*
X-384358Y-101634D01*
X-382182Y-102890D01*
X-379756Y-103540D01*
X-377244D01*
X-374818Y-102890D01*
X-372642Y-101634D01*
X-370866Y-99858D01*
X-369610Y-97682D01*
X-368960Y-95256D01*
Y-92744D01*
X-369610Y-90318D01*
X-370866Y-88142D01*
X-372642Y-86366D01*
X-374818Y-85110D01*
X-377244Y-84460D01*
D02*
G37*
G36*
X-313750Y-109250D02*
X-343250D01*
Y-138750D01*
X-313750D01*
Y-109250D01*
D02*
G37*
G36*
X-342250Y229289D02*
X-343030Y229134D01*
X-343692Y228692D01*
X-348692Y223692D01*
X-349134Y223030D01*
X-349289Y222250D01*
Y95000D01*
X-349289Y95000D01*
X-349134Y94220D01*
X-348692Y93558D01*
X-347192Y92058D01*
X-346530Y91616D01*
X-345750Y91461D01*
X-345417D01*
X-345039Y91000D01*
Y-50000D01*
X-344884Y-50780D01*
X-344442Y-51442D01*
X-343780Y-51884D01*
X-343000Y-52039D01*
X-301000D01*
X-301000Y-52039D01*
X-300220Y-51884D01*
X-299558Y-51442D01*
X-299558Y-51442D01*
X-267155Y-19039D01*
X-222039D01*
Y-61155D01*
X-240845Y-79961D01*
X-268000D01*
X-268780Y-80116D01*
X-269442Y-80558D01*
X-269884Y-81220D01*
X-270039Y-82000D01*
Y-177099D01*
X-271309Y-177700D01*
X-272410Y-176797D01*
X-275363Y-175218D01*
X-278567Y-174246D01*
X-281900Y-173918D01*
X-285233Y-174246D01*
X-288437Y-175218D01*
X-291390Y-176797D01*
X-293979Y-178921D01*
X-296103Y-181510D01*
X-297682Y-184463D01*
X-298654Y-187667D01*
X-298982Y-191000D01*
Y-206000D01*
X-298654Y-209333D01*
X-297682Y-212537D01*
X-296103Y-215490D01*
X-293979Y-218079D01*
X-291390Y-220203D01*
X-288437Y-221782D01*
X-285233Y-222754D01*
X-281900Y-223082D01*
X-278567Y-222754D01*
X-275363Y-221782D01*
X-272410Y-220203D01*
X-269821Y-218079D01*
X-267697Y-215490D01*
X-266118Y-212537D01*
X-265146Y-209333D01*
X-264818Y-206000D01*
Y-191000D01*
X-265146Y-187667D01*
X-266097Y-184531D01*
X-266021Y-184407D01*
X-265012Y-183729D01*
X-264780Y-183884D01*
X-264000Y-184039D01*
X-232380D01*
X-232248Y-184013D01*
X-232114Y-184022D01*
X-231861Y-183936D01*
X-231600Y-183884D01*
X-231488Y-183809D01*
X-231361Y-183766D01*
X-231160Y-183590D01*
X-230938Y-183442D01*
X-230864Y-183330D01*
X-230763Y-183241D01*
X-230644Y-183002D01*
X-230496Y-182780D01*
X-229690Y-182112D01*
X-229384Y-181935D01*
X-227648Y-182400D01*
X-224752D01*
X-221954Y-181650D01*
X-219446Y-180202D01*
X-217398Y-178154D01*
X-216835Y-177179D01*
X-215565D01*
X-215002Y-178154D01*
X-212954Y-180202D01*
X-210446Y-181650D01*
X-207648Y-182400D01*
X-204752D01*
X-201954Y-181650D01*
X-199446Y-180202D01*
X-197398Y-178154D01*
X-195950Y-175646D01*
X-195200Y-172848D01*
Y-169952D01*
X-195582Y-168526D01*
X-194472Y-168229D01*
X-194352Y-168169D01*
X-194220Y-168143D01*
X-193998Y-167995D01*
X-193759Y-167877D01*
X-193670Y-167776D01*
X-193558Y-167701D01*
X-193410Y-167479D01*
X-193234Y-167279D01*
X-193191Y-167151D01*
X-193116Y-167039D01*
X-193064Y-166778D01*
X-192978Y-166525D01*
X-192987Y-166391D01*
X-192961Y-166259D01*
Y-165845D01*
X-185155Y-158039D01*
X-146000D01*
X-146000Y-158039D01*
X-145220Y-157884D01*
X-144558Y-157442D01*
X-144558Y-157442D01*
X-138558Y-151442D01*
X-138230Y-150951D01*
X-137250Y-150250D01*
X-124750D01*
Y-149608D01*
X-120700D01*
Y-155350D01*
X-105100D01*
Y-136650D01*
X-105100D01*
X-105496Y-135380D01*
X-99558Y-129442D01*
X-99116Y-128780D01*
X-98961Y-128000D01*
Y-73000D01*
X-99116Y-72220D01*
X-99558Y-71558D01*
X-100220Y-71116D01*
X-101000Y-70961D01*
X-153067D01*
X-170961Y-50241D01*
Y31000D01*
X-171116Y31780D01*
X-171558Y32442D01*
X-173558Y34442D01*
X-173750Y34570D01*
Y46250D01*
X-174323D01*
X-174849Y47520D01*
X-169655Y52715D01*
X-168482Y52228D01*
Y46500D01*
X-170750D01*
Y34000D01*
X-158250D01*
Y46500D01*
X-160518D01*
Y54518D01*
X-136819D01*
X-136421Y53534D01*
X-136400Y53249D01*
X-138565Y51083D01*
X-139428Y49792D01*
X-139732Y48268D01*
Y46500D01*
X-142000D01*
Y34000D01*
X-129500D01*
Y45418D01*
X-128625Y45968D01*
X-127750Y45418D01*
Y34500D01*
X-116309D01*
X-115750Y34500D01*
X-115039Y33524D01*
Y14845D01*
X-119804Y10080D01*
X-151400D01*
X-151606Y10039D01*
X-158000D01*
X-158780Y9884D01*
X-159442Y9442D01*
X-159884Y8780D01*
X-160039Y8000D01*
Y-47000D01*
X-160039Y-47000D01*
X-159884Y-47780D01*
X-159442Y-48442D01*
X-139942Y-67942D01*
X-139280Y-68384D01*
X-138500Y-68539D01*
X-70500D01*
Y-69000D01*
X-30500D01*
Y-68539D01*
X-27000D01*
X-26220Y-68384D01*
X-25558Y-67942D01*
X-25116Y-67280D01*
X-24961Y-66500D01*
Y-15000D01*
X-24961Y-15000D01*
X-25116Y-14220D01*
X-25558Y-13558D01*
X-36558Y-2558D01*
X-37220Y-2116D01*
X-38000Y-1961D01*
X-55211D01*
Y12668D01*
X-54037Y13154D01*
X-51942Y11058D01*
X-51280Y10616D01*
X-50500Y10461D01*
X51905D01*
X83961Y-21595D01*
X83961Y-84750D01*
X84116Y-85530D01*
X84558Y-86192D01*
X85220Y-86634D01*
X86000Y-86789D01*
X242461D01*
Y-207000D01*
X242616Y-207780D01*
X243058Y-208442D01*
X243720Y-208884D01*
X244500Y-209039D01*
X391000D01*
X391780Y-208884D01*
X392442Y-208442D01*
X392884Y-207780D01*
X393039Y-207000D01*
Y-114000D01*
X393039Y-114000D01*
X392884Y-113220D01*
X392442Y-112558D01*
X320442Y-40558D01*
X319780Y-40116D01*
X319000Y-39961D01*
X258250D01*
Y-28000D01*
X255982D01*
Y-23350D01*
X258900D01*
Y-4650D01*
X243300D01*
Y-23350D01*
X248018D01*
Y-28000D01*
X245750D01*
Y-39961D01*
X241845D01*
X216442Y-14558D01*
X215780Y-14116D01*
X215000Y-13961D01*
X123845D01*
X121457Y-11573D01*
X121373Y-11517D01*
X121309Y-11439D01*
X121045Y-11298D01*
X120795Y-11131D01*
X120562Y-10174D01*
X120542Y-9781D01*
X120598Y-9500D01*
Y-3500D01*
X120210Y-1549D01*
X119105Y105D01*
X117451Y1210D01*
X115500Y1598D01*
X113549Y1210D01*
X111895Y105D01*
X111604Y-331D01*
X110340Y-456D01*
X99151Y10733D01*
X99313Y12366D01*
X100105Y12895D01*
X101210Y14549D01*
X101598Y16500D01*
Y17230D01*
X101681Y17354D01*
X102108Y19500D01*
Y30500D01*
X101681Y32646D01*
X100465Y34465D01*
X99858Y35073D01*
Y46250D01*
X100500D01*
Y58750D01*
X99858D01*
Y62250D01*
X100500D01*
Y74750D01*
X88000D01*
Y62250D01*
X88642D01*
Y58750D01*
X88000D01*
Y46250D01*
X88642D01*
Y32750D01*
X89069Y30604D01*
X90285Y28785D01*
X90892Y28177D01*
Y20788D01*
X89622Y20262D01*
X47942Y61942D01*
X47280Y62384D01*
X46500Y62539D01*
X-31500D01*
X-31500Y62539D01*
X-32280Y62384D01*
X-32942Y61942D01*
X-32942Y61942D01*
X-37634Y57250D01*
X-49500D01*
Y54577D01*
X-56500D01*
Y62500D01*
X-60269D01*
Y75000D01*
X-58750D01*
Y87500D01*
X-71250D01*
Y75000D01*
X-68232D01*
Y62500D01*
X-70500D01*
Y54500D01*
X-70500D01*
X-70500Y53230D01*
Y47770D01*
X-70500Y46500D01*
X-70500D01*
Y46500D01*
X-70500D01*
Y37197D01*
X-70539Y37000D01*
Y30500D01*
X-70500Y30303D01*
Y28658D01*
X-70539Y28461D01*
Y28356D01*
X-71634Y27517D01*
X-71869Y27433D01*
X-72114Y27384D01*
X-72240Y27300D01*
X-72383Y27248D01*
X-72568Y27081D01*
X-72775Y26942D01*
X-72860Y26816D01*
X-72972Y26714D01*
X-74639Y24464D01*
X-74745Y24238D01*
X-74884Y24030D01*
X-74914Y23881D01*
X-74978Y23744D01*
X-74991Y23495D01*
X-75039Y23250D01*
Y16582D01*
X-76213Y16096D01*
X-76558Y16442D01*
X-77220Y16884D01*
X-78000Y17039D01*
X-94961D01*
Y22500D01*
X-95116Y23280D01*
X-95558Y23942D01*
X-96220Y24384D01*
X-96500Y24440D01*
Y30303D01*
X-96461Y30500D01*
Y37000D01*
X-96500Y37197D01*
Y38500D01*
X-97145D01*
X-97720Y38884D01*
X-98500Y39039D01*
X-113000D01*
X-113780Y38884D01*
X-114442Y38442D01*
X-114480Y38385D01*
X-115750Y38770D01*
Y46500D01*
X-114488Y46519D01*
X-110500D01*
Y46500D01*
X-96500D01*
Y53230D01*
X-96500Y54500D01*
X-96500Y55770D01*
Y62500D01*
X-110500D01*
Y62481D01*
X-169500D01*
X-171024Y62178D01*
X-172315Y61315D01*
X-182815Y50815D01*
X-183678Y49524D01*
X-183981Y48000D01*
Y46250D01*
X-185961D01*
Y59000D01*
X-186116Y59780D01*
X-186558Y60442D01*
X-244558Y118442D01*
X-244931Y118691D01*
X-244619Y119961D01*
X-129250D01*
X-128470Y120116D01*
X-127808Y120558D01*
X-127366Y121220D01*
X-127211Y122000D01*
Y146500D01*
X-127366Y147280D01*
X-127805Y147937D01*
X-127616Y148220D01*
X-127461Y149000D01*
Y162250D01*
X-127616Y163030D01*
X-128058Y163692D01*
X-128720Y164134D01*
X-129500Y164289D01*
X-222250D01*
Y176500D01*
X-222383D01*
Y182150D01*
X-219600D01*
Y200850D01*
X-235200D01*
Y182150D01*
X-234618D01*
Y176500D01*
X-234750D01*
Y164289D01*
X-259905D01*
X-324308Y228692D01*
X-324970Y229134D01*
X-325750Y229289D01*
X-342250D01*
X-342250Y229289D01*
D02*
G37*
G36*
X-377244Y-194460D02*
X-379756D01*
X-382182Y-195110D01*
X-384358Y-196366D01*
X-386134Y-198142D01*
X-387390Y-200318D01*
X-388040Y-202744D01*
Y-205256D01*
X-387390Y-207682D01*
X-386134Y-209858D01*
X-384358Y-211634D01*
X-382182Y-212890D01*
X-379756Y-213540D01*
X-377244D01*
X-374818Y-212890D01*
X-372642Y-211634D01*
X-370866Y-209858D01*
X-369610Y-207682D01*
X-368960Y-205256D01*
Y-202744D01*
X-369610Y-200318D01*
X-370866Y-198142D01*
X-372642Y-196366D01*
X-374818Y-195110D01*
X-377244Y-194460D01*
D02*
G37*
G36*
X-150500Y-173918D02*
X-153833Y-174246D01*
X-157037Y-175218D01*
X-159990Y-176797D01*
X-162579Y-178921D01*
X-164703Y-181510D01*
X-166282Y-184463D01*
X-167254Y-187667D01*
X-167582Y-191000D01*
Y-206000D01*
X-167254Y-209333D01*
X-166282Y-212537D01*
X-164703Y-215490D01*
X-162579Y-218079D01*
X-159990Y-220203D01*
X-157037Y-221782D01*
X-153833Y-222754D01*
X-150500Y-223082D01*
X-147167Y-222754D01*
X-143963Y-221782D01*
X-141010Y-220203D01*
X-138421Y-218079D01*
X-136297Y-215490D01*
X-134718Y-212537D01*
X-133746Y-209333D01*
X-133418Y-206000D01*
Y-191000D01*
X-133746Y-187667D01*
X-134718Y-184463D01*
X-136297Y-181510D01*
X-138421Y-178921D01*
X-141010Y-176797D01*
X-143963Y-175218D01*
X-147167Y-174246D01*
X-150500Y-173918D01*
D02*
G37*
G36*
X-74334Y-266250D02*
X-76967D01*
X-79510Y-266931D01*
X-81790Y-268248D01*
X-83652Y-270110D01*
X-84969Y-272390D01*
X-85650Y-274933D01*
Y-277567D01*
X-84969Y-280110D01*
X-83652Y-282390D01*
X-81790Y-284252D01*
X-79510Y-285569D01*
X-76967Y-286250D01*
X-74334D01*
X-71790Y-285569D01*
X-69510Y-284252D01*
X-67648Y-282390D01*
X-66332Y-280110D01*
X-65650Y-277567D01*
Y-274933D01*
X-66332Y-272390D01*
X-67648Y-270110D01*
X-69510Y-268248D01*
X-71790Y-266931D01*
X-74334Y-266250D01*
D02*
G37*
G36*
X35950Y-266250D02*
X15950D01*
Y-286250D01*
X35950D01*
Y-266250D01*
D02*
G37*
G36*
X1866D02*
X-767D01*
X-3310Y-266931D01*
X-5590Y-268248D01*
X-7452Y-270110D01*
X-8769Y-272390D01*
X-9450Y-274933D01*
Y-277567D01*
X-8769Y-280110D01*
X-7452Y-282390D01*
X-5590Y-284252D01*
X-3310Y-285569D01*
X-767Y-286250D01*
X1866D01*
X4410Y-285569D01*
X6690Y-284252D01*
X8552Y-282390D01*
X9869Y-280110D01*
X10550Y-277567D01*
Y-274933D01*
X9869Y-272390D01*
X8552Y-270110D01*
X6690Y-268248D01*
X4410Y-266931D01*
X1866Y-266250D01*
D02*
G37*
G36*
X-23533D02*
X-26167D01*
X-28710Y-266931D01*
X-30990Y-268248D01*
X-32852Y-270110D01*
X-34169Y-272390D01*
X-34850Y-274933D01*
Y-277567D01*
X-34169Y-280110D01*
X-32852Y-282390D01*
X-30990Y-284252D01*
X-28710Y-285569D01*
X-26167Y-286250D01*
X-23533D01*
X-20990Y-285569D01*
X-18710Y-284252D01*
X-16848Y-282390D01*
X-15532Y-280110D01*
X-14850Y-277567D01*
Y-274933D01*
X-15532Y-272390D01*
X-16848Y-270110D01*
X-18710Y-268248D01*
X-20990Y-266931D01*
X-23533Y-266250D01*
D02*
G37*
G36*
X-48934D02*
X-51567D01*
X-54110Y-266931D01*
X-56390Y-268248D01*
X-58252Y-270110D01*
X-59569Y-272390D01*
X-60250Y-274933D01*
Y-277567D01*
X-59569Y-280110D01*
X-58252Y-282390D01*
X-56390Y-284252D01*
X-54110Y-285569D01*
X-51567Y-286250D01*
X-48934D01*
X-46390Y-285569D01*
X-44110Y-284252D01*
X-42248Y-282390D01*
X-40932Y-280110D01*
X-40250Y-277567D01*
Y-274933D01*
X-40932Y-272390D01*
X-42248Y-270110D01*
X-44110Y-268248D01*
X-46390Y-266931D01*
X-48934Y-266250D01*
D02*
G37*
G36*
X357125Y-235000D02*
X352875D01*
X348677Y-235665D01*
X344636Y-236978D01*
X340849Y-238908D01*
X337411Y-241406D01*
X334406Y-244411D01*
X331908Y-247849D01*
X329978Y-251636D01*
X328665Y-255678D01*
X328000Y-259875D01*
Y-264125D01*
X328665Y-268323D01*
X329978Y-272364D01*
X331908Y-276151D01*
X334406Y-279589D01*
X337411Y-282595D01*
X340849Y-285093D01*
X344636Y-287022D01*
X348677Y-288335D01*
X352875Y-289000D01*
X357125D01*
X361323Y-288335D01*
X365364Y-287022D01*
X369151Y-285093D01*
X372589Y-282595D01*
X375594Y-279589D01*
X378092Y-276151D01*
X380022Y-272364D01*
X381335Y-268323D01*
X382000Y-264125D01*
Y-259875D01*
X381335Y-255678D01*
X380022Y-251636D01*
X378092Y-247849D01*
X375594Y-244411D01*
X372589Y-241406D01*
X369151Y-238908D01*
X365364Y-236978D01*
X361323Y-235665D01*
X357125Y-235000D01*
D02*
G37*
G36*
X-352875D02*
X-357125D01*
X-361323Y-235665D01*
X-365364Y-236978D01*
X-369151Y-238908D01*
X-372589Y-241406D01*
X-375594Y-244411D01*
X-378092Y-247849D01*
X-380022Y-251636D01*
X-381335Y-255678D01*
X-382000Y-259875D01*
Y-264125D01*
X-381335Y-268323D01*
X-380022Y-272364D01*
X-378092Y-276151D01*
X-375594Y-279589D01*
X-372589Y-282595D01*
X-369151Y-285093D01*
X-365364Y-287022D01*
X-361323Y-288335D01*
X-357125Y-289000D01*
X-352875D01*
X-348677Y-288335D01*
X-344636Y-287022D01*
X-340849Y-285093D01*
X-337411Y-282595D01*
X-334406Y-279589D01*
X-331908Y-276151D01*
X-329978Y-272364D01*
X-328665Y-268323D01*
X-328000Y-264125D01*
Y-259875D01*
X-328665Y-255678D01*
X-329978Y-251636D01*
X-331908Y-247849D01*
X-334406Y-244411D01*
X-337411Y-241406D01*
X-340849Y-238908D01*
X-344636Y-236978D01*
X-348677Y-235665D01*
X-352875Y-235000D01*
D02*
G37*
G36*
X182985Y-182946D02*
X86750D01*
X85970Y-183101D01*
X85308Y-183543D01*
X84866Y-184205D01*
X84711Y-184985D01*
Y-293250D01*
X84866Y-294030D01*
X85308Y-294692D01*
X85970Y-295134D01*
X86750Y-295289D01*
X217000D01*
X217000Y-295289D01*
X217780Y-295134D01*
X218442Y-294692D01*
X221942Y-291192D01*
X222384Y-290530D01*
X222539Y-289750D01*
Y-222500D01*
X222539Y-222500D01*
X222384Y-221720D01*
X221942Y-221058D01*
X184427Y-183543D01*
X183766Y-183101D01*
X182985Y-182946D01*
D02*
G37*
%LPD*%
G36*
X-81000Y213750D02*
X-42500D01*
X60250Y111000D01*
X103250D01*
X111500Y119250D01*
Y128500D01*
X117000Y134000D01*
X133250Y150250D01*
X133500D01*
Y150500D01*
X135000Y152000D01*
X135000Y160250D01*
X135500Y160750D01*
X151000Y161500D01*
X171750Y140750D01*
Y100750D01*
X160500Y89500D01*
X127500D01*
Y76750D01*
X115250Y64500D01*
X106000D01*
Y91000D01*
X102000Y95000D01*
X11000D01*
X-69750Y175750D01*
X-111750D01*
X-152500Y216500D01*
Y243500D01*
X-151500D01*
Y245500D01*
X-112750D01*
X-81000Y213750D01*
D02*
G37*
G36*
X-260750Y162250D02*
X-129500D01*
Y149000D01*
X-129750Y148750D01*
X-153539D01*
Y148539D01*
X-168961D01*
Y148750D01*
X-301000D01*
X-302250Y147500D01*
Y119039D01*
X-316000D01*
X-316780Y118884D01*
X-317442Y118442D01*
X-317737Y118000D01*
X-317750D01*
X-318500Y117250D01*
Y93500D01*
X-345750D01*
X-347250Y95000D01*
Y222250D01*
X-342250Y227250D01*
X-325750D01*
X-260750Y162250D01*
D02*
G37*
G36*
X-129250Y122000D02*
X-299750D01*
Y146500D01*
X-129250D01*
Y122000D01*
D02*
G37*
G36*
X-57280Y28116D02*
X-57250Y28110D01*
Y22750D01*
Y-1961D01*
X-71961D01*
Y11000D01*
X-72116Y11780D01*
X-72558Y12442D01*
X-72558Y12442D01*
X-73000Y12884D01*
Y23250D01*
X-71333Y25500D01*
X-68500D01*
Y28461D01*
X-57796D01*
X-57280Y28116D01*
D02*
G37*
G36*
X-98500Y30500D02*
X-110500D01*
Y22500D01*
X-97000D01*
Y15000D01*
X-78000D01*
X-74000Y11000D01*
Y-4000D01*
X-38000D01*
X-27000Y-15000D01*
Y-66500D01*
X-138500D01*
X-158000Y-47000D01*
Y8000D01*
X-119000D01*
X-113000Y14000D01*
Y37000D01*
X-98500D01*
Y30500D01*
D02*
G37*
G36*
X-188000Y59000D02*
Y33000D01*
X-175000D01*
X-173000Y31000D01*
Y-51000D01*
X-154000Y-73000D01*
X-101000D01*
Y-128000D01*
X-108000Y-135000D01*
X-140000D01*
Y-150000D01*
X-146000Y-156000D01*
X-186000D01*
X-195000Y-165000D01*
Y-166259D01*
X-196270Y-166599D01*
X-197398Y-164646D01*
X-199446Y-162598D01*
X-201954Y-161150D01*
X-204752Y-160400D01*
X-207648D01*
X-210446Y-161150D01*
X-212954Y-162598D01*
X-215002Y-164646D01*
X-215565Y-165621D01*
X-216835D01*
X-217398Y-164646D01*
X-219446Y-162598D01*
X-221954Y-161150D01*
X-224752Y-160400D01*
X-227648D01*
X-230446Y-161150D01*
X-232954Y-162598D01*
X-235002Y-164646D01*
X-236450Y-167154D01*
X-237200Y-169952D01*
Y-172848D01*
X-236450Y-175646D01*
X-235002Y-178154D01*
X-232954Y-180202D01*
X-232040Y-180730D01*
X-232380Y-182000D01*
X-264000D01*
X-268000Y-178000D01*
Y-82000D01*
X-240000D01*
X-220000Y-62000D01*
Y-17000D01*
X-268000D01*
X-301000Y-50000D01*
X-343000D01*
Y91000D01*
X-316000D01*
Y116930D01*
X-315977Y116965D01*
X-315799Y117000D01*
X-246000D01*
X-188000Y59000D01*
D02*
G37*
G36*
X91626Y15374D02*
X91790Y14549D01*
X92895Y12895D01*
X94549Y11790D01*
X95374Y11626D01*
X110418Y-3418D01*
X110402Y-3500D01*
Y-9500D01*
X110790Y-11451D01*
X111895Y-13105D01*
X113549Y-14210D01*
X115500Y-14598D01*
X117451Y-14210D01*
X119105Y-13105D01*
X120015Y-13015D01*
X123000Y-16000D01*
X215000D01*
X241000Y-42000D01*
X319000D01*
X391000Y-114000D01*
Y-207000D01*
X244500D01*
Y-84750D01*
X86000D01*
X86000Y-20750D01*
X52750Y12500D01*
X-50500D01*
X-55211Y17211D01*
Y28110D01*
X-55250Y28307D01*
X-55250Y28509D01*
X-55327Y28694D01*
X-55366Y28890D01*
X-55478Y29058D01*
X-55555Y29244D01*
X-55697Y29385D01*
X-55808Y29552D01*
X-55975Y29664D01*
X-56118Y29806D01*
X-56174Y29829D01*
X-56500Y30047D01*
Y30500D01*
X-68500D01*
Y37000D01*
X-55000D01*
X-46750Y45250D01*
X-37500D01*
Y54500D01*
X-31500Y60500D01*
X46500D01*
X91626Y15374D01*
D02*
G37*
%LPC*%
G36*
X307027Y-73420D02*
X302973D01*
X298997Y-74211D01*
X295252Y-75762D01*
X291881Y-78014D01*
X289014Y-80881D01*
X286762Y-84252D01*
X285211Y-87997D01*
X284420Y-91973D01*
Y-96027D01*
X285211Y-100003D01*
X286762Y-103748D01*
X289014Y-107119D01*
X291881Y-109986D01*
X295252Y-112238D01*
X298997Y-113789D01*
X302973Y-114580D01*
X307027D01*
X311003Y-113789D01*
X314748Y-112238D01*
X318119Y-109986D01*
X320985Y-107119D01*
X323238Y-103748D01*
X324789Y-100003D01*
X325580Y-96027D01*
Y-91973D01*
X324789Y-87997D01*
X323238Y-84252D01*
X320985Y-80881D01*
X318119Y-78014D01*
X314748Y-75762D01*
X311003Y-74211D01*
X307027Y-73420D01*
D02*
G37*
G36*
X371000Y-189431D02*
X359000D01*
X356912Y-189706D01*
X354966Y-190512D01*
X353294Y-191794D01*
X352012Y-193465D01*
X351206Y-195412D01*
X350931Y-197500D01*
X351206Y-199588D01*
X352012Y-201535D01*
X353294Y-203206D01*
X354966Y-204488D01*
X356912Y-205294D01*
X359000Y-205569D01*
X371000D01*
X373088Y-205294D01*
X375034Y-204488D01*
X376706Y-203206D01*
X377988Y-201535D01*
X378794Y-199588D01*
X379069Y-197500D01*
X378794Y-195412D01*
X377988Y-193465D01*
X376706Y-191794D01*
X375034Y-190512D01*
X373088Y-189706D01*
X371000Y-189431D01*
D02*
G37*
%LPD*%
G36*
X310408Y-76172D02*
X313782Y-77569D01*
X316819Y-79598D01*
X319402Y-82181D01*
X321431Y-85218D01*
X322828Y-88592D01*
X323541Y-92174D01*
Y-95826D01*
X322828Y-99408D01*
X321431Y-102782D01*
X319401Y-105819D01*
X316819Y-108402D01*
X313782Y-110431D01*
X310408Y-111828D01*
X306826Y-112541D01*
X303174D01*
X299592Y-111828D01*
X296218Y-110431D01*
X293181Y-108401D01*
X290598Y-105819D01*
X288569Y-102782D01*
X287172Y-99408D01*
X286459Y-95826D01*
Y-92174D01*
X287172Y-88592D01*
X288569Y-85218D01*
X290599Y-82181D01*
X293181Y-79598D01*
X296218Y-77569D01*
X299592Y-76172D01*
X303174Y-75459D01*
X306826D01*
X310408Y-76172D01*
D02*
G37*
G36*
X220500Y-222500D02*
Y-289750D01*
X217000Y-293250D01*
X86750D01*
Y-184985D01*
X182985D01*
X220500Y-222500D01*
D02*
G37*
%LPC*%
G36*
X154250Y-239750D02*
X138250D01*
Y-268750D01*
X154250D01*
Y-239750D01*
D02*
G37*
G36*
X133750Y-271250D02*
X104750D01*
Y-287250D01*
X133750D01*
Y-271250D01*
D02*
G37*
%LPD*%
G36*
X152211Y-266711D02*
X140289D01*
Y-241789D01*
X152211D01*
Y-266711D01*
D02*
G37*
G36*
X131711Y-285211D02*
X106789D01*
Y-273289D01*
X131711D01*
Y-285211D01*
D02*
G37*
D10*
X197500Y-275250D02*
D03*
X245500Y-275250D02*
D03*
X197500Y-245250D02*
D03*
X245500Y-245250D02*
D03*
D11*
X-209600Y191500D02*
D03*
X-227400D02*
D03*
X251100Y-14000D02*
D03*
X268900D02*
D03*
X144900Y177500D02*
D03*
X127100D02*
D03*
X-95100Y-146000D02*
D03*
X-112900D02*
D03*
D12*
X-63500Y26500D02*
D03*
Y34500D02*
D03*
Y42500D02*
D03*
Y50500D02*
D03*
Y58500D02*
D03*
X-103500D02*
D03*
Y50500D02*
D03*
Y42500D02*
D03*
Y34500D02*
D03*
Y26500D02*
D03*
D13*
X-83500Y42500D02*
D03*
D14*
X257250Y-196000D02*
D03*
X227250D02*
D03*
X256000Y-140000D02*
D03*
X226000D02*
D03*
X255500Y-115500D02*
D03*
X225500D02*
D03*
X-236250Y-56250D02*
D03*
X-206250D02*
D03*
X-235750Y-29750D02*
D03*
X-205750D02*
D03*
D15*
X254500Y-91500D02*
D03*
X238500D02*
D03*
X96000Y-27500D02*
D03*
X80000D02*
D03*
X-82250Y7750D02*
D03*
X-66250D02*
D03*
X-280000Y-142250D02*
D03*
X-264000D02*
D03*
D16*
X252000Y-49750D02*
D03*
Y-34250D02*
D03*
X-228500Y170250D02*
D03*
Y154750D02*
D03*
X-135750Y24750D02*
D03*
Y40250D02*
D03*
X-164500Y24750D02*
D03*
Y40250D02*
D03*
X-180000Y24500D02*
D03*
Y40000D02*
D03*
D17*
X106000Y19500D02*
D03*
X96500D02*
D03*
X115500Y-6500D02*
D03*
X106000D02*
D03*
X96500D02*
D03*
D18*
X115500Y19500D02*
D03*
D19*
X94250Y52500D02*
D03*
X109750D02*
D03*
Y68500D02*
D03*
X94250D02*
D03*
X127250Y156500D02*
D03*
X142750D02*
D03*
X-80500Y81250D02*
D03*
X-65000D02*
D03*
X-131000Y-144000D02*
D03*
X-146500D02*
D03*
D20*
X183000Y-43500D02*
D03*
Y50500D02*
D03*
X-132500Y-13000D02*
D03*
Y-107000D02*
D03*
D21*
X184000Y102500D02*
D03*
Y123500D02*
D03*
D22*
X141000Y113000D02*
D03*
D23*
X-161250Y154500D02*
D03*
Y131500D02*
D03*
D24*
Y177500D02*
D03*
D25*
X-93750Y154500D02*
D03*
D26*
X-188500D02*
D03*
Y170500D02*
D03*
X-209500Y154500D02*
D03*
Y170500D02*
D03*
X-187500Y131500D02*
D03*
Y115500D02*
D03*
X-209500Y131500D02*
D03*
Y115500D02*
D03*
X98000Y119500D02*
D03*
Y103500D02*
D03*
X-149750Y24250D02*
D03*
Y40250D02*
D03*
X-121750Y40500D02*
D03*
Y24500D02*
D03*
X-43500Y51250D02*
D03*
Y67250D02*
D03*
D27*
X-42000Y5000D02*
D03*
Y35000D02*
D03*
D28*
X-50500Y-40250D02*
D03*
D29*
X-40000Y-83250D02*
D03*
X-61000D02*
D03*
D30*
X252000Y-34250D02*
Y-14900D01*
X251100Y-14000D02*
X252000Y-14900D01*
X127100Y177500D02*
X127250Y177350D01*
X-228500Y190400D02*
X-227400Y191500D01*
X-149750Y24250D02*
X-149500Y24500D01*
X-136000D02*
X-135750Y24750D01*
X-149500Y24500D02*
X-136000D01*
X-163750Y58500D02*
X-103500D01*
X-169500D02*
X-163750D01*
X-164500Y40250D02*
Y57750D01*
X-163750Y58500D01*
X-180000Y48000D02*
X-169500Y58500D01*
X-180000Y40000D02*
Y48000D01*
X-121000Y50500D02*
X-103500D01*
X-133518D02*
X-121000D01*
X-121750Y49750D02*
X-121000Y50500D01*
X-121750Y40500D02*
Y49750D01*
X-135750Y40250D02*
X-135750Y40250D01*
X-135750Y40250D02*
Y48268D01*
X-133518Y50500D01*
X-65000Y81250D02*
X-64250Y80500D01*
X-64155Y58500D02*
X-63500D01*
X-64250Y58595D02*
X-64155Y58500D01*
X-64250Y58595D02*
Y80500D01*
X-63500Y50500D02*
X-63405Y50595D01*
X-44155D01*
X-43500Y51250D01*
D31*
X127250Y156500D02*
Y177350D01*
X-228500Y170250D02*
Y190400D01*
D32*
X182250Y51250D02*
X183000Y50500D01*
X133000Y51250D02*
X182250D01*
X94250Y52500D02*
Y68500D01*
Y32750D02*
Y52500D01*
X96500Y19500D02*
Y30500D01*
X94250Y32750D02*
X96500Y30500D01*
X115500Y19500D02*
Y33750D01*
X133000Y51250D01*
X183000Y101500D02*
X184000Y102500D01*
X183000Y50500D02*
Y101500D01*
X184000Y102500D02*
Y123500D01*
X-131000Y-144000D02*
X-114900D01*
X-112900Y-146000D01*
D33*
X305000Y-94000D02*
D03*
D34*
Y-166000D02*
D03*
D35*
X365000Y-62500D02*
D03*
Y-197500D02*
D03*
D36*
X-132500Y233000D02*
D03*
Y283000D02*
D03*
X119250Y-229250D02*
D03*
Y-279250D02*
D03*
X-217000Y231750D02*
D03*
Y281750D02*
D03*
D37*
X-159500Y258000D02*
D03*
X146250Y-254250D02*
D03*
X-244000Y256750D02*
D03*
D38*
X-75650Y-276250D02*
D03*
X-24850Y-276250D02*
D03*
X550D02*
D03*
X-50250D02*
D03*
X-357700Y70800D02*
D03*
X-332300D02*
D03*
X-357700Y20000D02*
D03*
X-332300D02*
D03*
X-357700Y-30800D02*
D03*
Y-5400D02*
D03*
X-332300D02*
D03*
Y45400D02*
D03*
X-357700D02*
D03*
X-357400Y181000D02*
D03*
X-332000D02*
D03*
Y130200D02*
D03*
X-357400D02*
D03*
Y104800D02*
D03*
X-332000Y155600D02*
D03*
X-357400D02*
D03*
X-332000Y206400D02*
D03*
X-357400D02*
D03*
D39*
X25950Y-276250D02*
D03*
D40*
X-378500Y-204000D02*
D03*
Y-94000D02*
D03*
D41*
X-328500Y-174000D02*
D03*
D42*
Y-124000D02*
D03*
D43*
X355000Y-262000D02*
D03*
X-355000Y262000D02*
D03*
Y-262000D02*
D03*
X355000Y262000D02*
D03*
D44*
X-270000Y106300D02*
D03*
Y131700D02*
D03*
D45*
X250600Y233000D02*
D03*
X211000D02*
D03*
X-9750Y236750D02*
D03*
X-49350D02*
D03*
X80900Y234250D02*
D03*
X120500D02*
D03*
D46*
X290200Y233000D02*
D03*
X29850Y236750D02*
D03*
X160100Y234250D02*
D03*
D47*
X360000Y201850D02*
D03*
Y162250D02*
D03*
X359750Y31500D02*
D03*
Y71100D02*
D03*
D48*
X360000Y122650D02*
D03*
X359750Y-8100D02*
D03*
D49*
X-206200Y-171400D02*
D03*
X-181200Y-171400D02*
D03*
X-226200Y-171400D02*
D03*
D50*
X-251200D02*
D03*
D51*
X-281900Y-198500D02*
D03*
X-150500D02*
D03*
D52*
X-332300Y-30800D02*
D03*
X-332000Y104800D02*
D03*
D53*
X212500Y170250D02*
D03*
X221250D02*
D03*
X230000D02*
D03*
X238750D02*
D03*
X273750D02*
D03*
X265000D02*
D03*
X256250D02*
D03*
X247500D02*
D03*
Y180000D02*
D03*
X256250D02*
D03*
X265000D02*
D03*
X273750D02*
D03*
X238750D02*
D03*
X230000D02*
D03*
X221250D02*
D03*
X212500D02*
D03*
D54*
X-197500Y85750D02*
D03*
X-132500Y77500D02*
D03*
X131750Y25750D02*
D03*
%TF.MD5,027cb753c3502b5684a5f0a63ea458fb*%
M02*
