%TF.GenerationSoftware,Altium Limited,Altium Designer,22.5.1 (42)*%
G04 Layer_Color=2752767*
%FSLAX44Y44*%
%MOMM*%
%TF.SameCoordinates,7B58D917-D16F-4CFB-9619-50DAC3371BF8*%
%TF.FilePolarity,Positive*%
%TF.FileFunction,Drawing*%
%TF.Part,Single*%
G01*
G75*
%TA.AperFunction,NonConductor*%
%ADD62C,0.1270*%
%ADD133C,0.1693*%
%ADD134C,0.1016*%
D62*
X305000Y-99080D02*
X307540Y-96540D01*
X310080D01*
X307540Y-94000D01*
X310080Y-91460D01*
X307540D01*
X305000Y-88920D01*
X302460Y-91460D01*
X299920D01*
X302460Y-94000D01*
X299920Y-96540D01*
X302460D01*
X305000Y-99080D01*
Y-171080D02*
X307540Y-168540D01*
X310080D01*
X307540Y-166000D01*
X310080Y-163460D01*
X307540D01*
X305000Y-160920D01*
X302460Y-163460D01*
X299920D01*
X302460Y-166000D01*
X299920Y-168540D01*
X302460D01*
X305000Y-171080D01*
X365000Y-67580D02*
X359920Y-57420D01*
X370080D01*
X365000Y-67580D01*
Y-202580D02*
X359920Y-192420D01*
X370080D01*
X365000Y-202580D01*
X-137580Y233000D02*
X-132500Y238080D01*
X-127420Y233000D01*
X-132500Y227920D01*
X-137580Y233000D01*
Y283000D02*
X-132500Y288080D01*
X-127420Y283000D01*
X-132500Y277920D01*
X-137580Y283000D01*
X-164580Y258000D02*
X-159500Y263080D01*
X-154420Y258000D01*
X-159500Y252920D01*
X-164580Y258000D01*
X-78190Y-278790D02*
Y-281330D01*
X-73110D01*
Y-278790D01*
X-70570D01*
Y-273710D01*
X-73110D01*
Y-271170D01*
X-78190D01*
Y-273710D01*
X-80730D01*
Y-278790D01*
X-78190D01*
X-27390Y-278790D02*
Y-281330D01*
X-22310D01*
Y-278790D01*
X-19770D01*
Y-273710D01*
X-22310D01*
Y-271170D01*
X-27390D01*
Y-273710D01*
X-29930D01*
Y-278790D01*
X-27390D01*
X-1990D02*
Y-281330D01*
X3090D01*
Y-278790D01*
X5630D01*
Y-273710D01*
X3090D01*
Y-271170D01*
X-1990D01*
Y-273710D01*
X-4530D01*
Y-278790D01*
X-1990D01*
X23410D02*
Y-281330D01*
X28490D01*
Y-278790D01*
X31030D01*
Y-273710D01*
X28490D01*
Y-271170D01*
X23410D01*
Y-273710D01*
X20870D01*
Y-278790D01*
X23410D01*
X-52790D02*
Y-281330D01*
X-47710D01*
Y-278790D01*
X-45170D01*
Y-273710D01*
X-47710D01*
Y-271170D01*
X-52790D01*
Y-273710D01*
X-55330D01*
Y-278790D01*
X-52790D01*
X114170Y-229250D02*
X119250Y-224170D01*
X124330Y-229250D01*
X119250Y-234330D01*
X114170Y-229250D01*
Y-279250D02*
X119250Y-274170D01*
X124330Y-279250D01*
X119250Y-284330D01*
X114170Y-279250D01*
X141170Y-254250D02*
X146250Y-249170D01*
X151330Y-254250D01*
X146250Y-259330D01*
X141170Y-254250D01*
X-333580Y-179080D02*
Y-168920D01*
X-323420D01*
Y-179080D01*
X-333580D01*
X-331548Y-177048D02*
Y-170952D01*
X-325452D01*
Y-177048D01*
X-331548D01*
X-333580Y-129080D02*
Y-118920D01*
X-323420D01*
Y-129080D01*
X-333580D01*
X-331548Y-127048D02*
Y-120952D01*
X-325452D01*
Y-127048D01*
X-331548D01*
X-222080Y231750D02*
X-217000Y236830D01*
X-211920Y231750D01*
X-217000Y226670D01*
X-222080Y231750D01*
Y281750D02*
X-217000Y286830D01*
X-211920Y281750D01*
X-217000Y276670D01*
X-222080Y281750D01*
X-249080Y256750D02*
X-244000Y261830D01*
X-238920Y256750D01*
X-244000Y251670D01*
X-249080Y256750D01*
X349920Y-267080D02*
X352460D01*
X355000Y-264540D01*
X357540Y-267080D01*
X360080D01*
Y-264540D01*
X357540Y-262000D01*
X360080Y-259460D01*
Y-256920D01*
X357540D01*
X355000Y-259460D01*
X352460Y-256920D01*
X349920D01*
Y-259460D01*
X352460Y-262000D01*
X349920Y-264540D01*
Y-267080D01*
X-360080Y256920D02*
X-357540D01*
X-355000Y259460D01*
X-352460Y256920D01*
X-349920D01*
Y259460D01*
X-352460Y262000D01*
X-349920Y264540D01*
Y267080D01*
X-352460D01*
X-355000Y264540D01*
X-357540Y267080D01*
X-360080D01*
Y264540D01*
X-357540Y262000D01*
X-360080Y259460D01*
Y256920D01*
Y-267080D02*
X-357540D01*
X-355000Y-264540D01*
X-352460Y-267080D01*
X-349920D01*
Y-264540D01*
X-352460Y-262000D01*
X-349920Y-259460D01*
Y-256920D01*
X-352460D01*
X-355000Y-259460D01*
X-357540Y-256920D01*
X-360080D01*
Y-259460D01*
X-357540Y-262000D01*
X-360080Y-264540D01*
Y-267080D01*
X349920Y256920D02*
X352460D01*
X355000Y259460D01*
X357540Y256920D01*
X360080D01*
Y259460D01*
X357540Y262000D01*
X360080Y264540D01*
Y267080D01*
X357540D01*
X355000Y264540D01*
X352460Y267080D01*
X349920D01*
Y264540D01*
X352460Y262000D01*
X349920Y259460D01*
Y256920D01*
X-272540Y103760D02*
Y101220D01*
X-267460D01*
Y103760D01*
X-264920D01*
Y108840D01*
X-267460D01*
Y111380D01*
X-272540D01*
Y108840D01*
X-275080D01*
Y103760D01*
X-272540D01*
Y129160D02*
Y126620D01*
X-267460D01*
Y129160D01*
X-264920D01*
Y134240D01*
X-267460D01*
Y136780D01*
X-272540D01*
Y134240D01*
X-275080D01*
Y129160D01*
X-272540D01*
X245520Y227920D02*
X248060Y233000D01*
X245520Y238080D01*
X250600Y235540D01*
X255680Y238080D01*
X253140Y233000D01*
X255680Y227920D01*
X250600Y230460D01*
X245520Y227920D01*
X285120D02*
X287660Y233000D01*
X285120Y238080D01*
X290200Y235540D01*
X295280Y238080D01*
X292740Y233000D01*
X295280Y227920D01*
X290200Y230460D01*
X285120Y227920D01*
X205920D02*
X208460Y233000D01*
X205920Y238080D01*
X211000Y235540D01*
X216080Y238080D01*
X213540Y233000D01*
X216080Y227920D01*
X211000Y230460D01*
X205920Y227920D01*
X-14830Y231670D02*
X-12290Y236750D01*
X-14830Y241830D01*
X-9750Y239290D01*
X-4670Y241830D01*
X-7210Y236750D01*
X-4670Y231670D01*
X-9750Y234210D01*
X-14830Y231670D01*
X24770D02*
X27310Y236750D01*
X24770Y241830D01*
X29850Y239290D01*
X34930Y241830D01*
X32390Y236750D01*
X34930Y231670D01*
X29850Y234210D01*
X24770Y231670D01*
X-54430D02*
X-51890Y236750D01*
X-54430Y241830D01*
X-49350Y239290D01*
X-44270Y241830D01*
X-46810Y236750D01*
X-44270Y231670D01*
X-49350Y234210D01*
X-54430Y231670D01*
X75820Y229170D02*
X78360Y234250D01*
X75820Y239330D01*
X80900Y236790D01*
X85980Y239330D01*
X83440Y234250D01*
X85980Y229170D01*
X80900Y231710D01*
X75820Y229170D01*
X155020D02*
X157560Y234250D01*
X155020Y239330D01*
X160100Y236790D01*
X165180Y239330D01*
X162640Y234250D01*
X165180Y229170D01*
X160100Y231710D01*
X155020Y229170D01*
X115420D02*
X117960Y234250D01*
X115420Y239330D01*
X120500Y236790D01*
X125580Y239330D01*
X123040Y234250D01*
X125580Y229170D01*
X120500Y231710D01*
X115420Y229170D01*
X354920Y196770D02*
X357460Y201850D01*
X354920Y206930D01*
X360000Y204390D01*
X365080Y206930D01*
X362540Y201850D01*
X365080Y196770D01*
X360000Y199310D01*
X354920Y196770D01*
Y117570D02*
X357460Y122650D01*
X354920Y127730D01*
X360000Y125190D01*
X365080Y127730D01*
X362540Y122650D01*
X365080Y117570D01*
X360000Y120110D01*
X354920Y117570D01*
Y157170D02*
X357460Y162250D01*
X354920Y167330D01*
X360000Y164790D01*
X365080Y167330D01*
X362540Y162250D01*
X365080Y157170D01*
X360000Y159710D01*
X354920Y157170D01*
X354670Y26420D02*
X357210Y31500D01*
X354670Y36580D01*
X359750Y34040D01*
X364830Y36580D01*
X362290Y31500D01*
X364830Y26420D01*
X359750Y28960D01*
X354670Y26420D01*
Y-13180D02*
X357210Y-8100D01*
X354670Y-3020D01*
X359750Y-5560D01*
X364830Y-3020D01*
X362290Y-8100D01*
X364830Y-13180D01*
X359750Y-10640D01*
X354670Y-13180D01*
Y66020D02*
X357210Y71100D01*
X354670Y76180D01*
X359750Y73640D01*
X364830Y76180D01*
X362290Y71100D01*
X364830Y66020D01*
X359750Y68560D01*
X354670Y66020D01*
X-286980Y-203580D02*
Y-193420D01*
X-276820D01*
Y-203580D01*
X-286980D01*
X-155580D02*
Y-193420D01*
X-145420D01*
Y-203580D01*
X-155580D01*
X-360240Y68260D02*
Y65720D01*
X-355160D01*
Y68260D01*
X-352620D01*
Y73340D01*
X-355160D01*
Y75880D01*
X-360240D01*
Y73340D01*
X-362780D01*
Y68260D01*
X-360240D01*
X-334840D02*
Y65720D01*
X-329760D01*
Y68260D01*
X-327220D01*
Y73340D01*
X-329760D01*
Y75880D01*
X-334840D01*
Y73340D01*
X-337380D01*
Y68260D01*
X-334840D01*
X-360240Y17460D02*
Y14920D01*
X-355160D01*
Y17460D01*
X-352620D01*
Y22540D01*
X-355160D01*
Y25080D01*
X-360240D01*
Y22540D01*
X-362780D01*
Y17460D01*
X-360240D01*
X-334840D02*
Y14920D01*
X-329760D01*
Y17460D01*
X-327220D01*
Y22540D01*
X-329760D01*
Y25080D01*
X-334840D01*
Y22540D01*
X-337380D01*
Y17460D01*
X-334840D01*
X-360240Y-33340D02*
Y-35880D01*
X-355160D01*
Y-33340D01*
X-352620D01*
Y-28260D01*
X-355160D01*
Y-25720D01*
X-360240D01*
Y-28260D01*
X-362780D01*
Y-33340D01*
X-360240D01*
Y-7940D02*
Y-10480D01*
X-355160D01*
Y-7940D01*
X-352620D01*
Y-2860D01*
X-355160D01*
Y-320D01*
X-360240D01*
Y-2860D01*
X-362780D01*
Y-7940D01*
X-360240D01*
X-334840D02*
Y-10480D01*
X-329760D01*
Y-7940D01*
X-327220D01*
Y-2860D01*
X-329760D01*
Y-320D01*
X-334840D01*
Y-2860D01*
X-337380D01*
Y-7940D01*
X-334840D01*
Y-33340D02*
Y-35880D01*
X-329760D01*
Y-33340D01*
X-327220D01*
Y-28260D01*
X-329760D01*
Y-25720D01*
X-334840D01*
Y-28260D01*
X-337380D01*
Y-33340D01*
X-334840D01*
Y42860D02*
Y40320D01*
X-329760D01*
Y42860D01*
X-327220D01*
Y47940D01*
X-329760D01*
Y50480D01*
X-334840D01*
Y47940D01*
X-337380D01*
Y42860D01*
X-334840D01*
X-360240D02*
Y40320D01*
X-355160D01*
Y42860D01*
X-352620D01*
Y47940D01*
X-355160D01*
Y50480D01*
X-360240D01*
Y47940D01*
X-362780D01*
Y42860D01*
X-360240D01*
X-359940Y178460D02*
Y175920D01*
X-354860D01*
Y178460D01*
X-352320D01*
Y183540D01*
X-354860D01*
Y186080D01*
X-359940D01*
Y183540D01*
X-362480D01*
Y178460D01*
X-359940D01*
X-334540D02*
Y175920D01*
X-329460D01*
Y178460D01*
X-326920D01*
Y183540D01*
X-329460D01*
Y186080D01*
X-334540D01*
Y183540D01*
X-337080D01*
Y178460D01*
X-334540D01*
Y102260D02*
Y99720D01*
X-329460D01*
Y102260D01*
X-326920D01*
Y107340D01*
X-329460D01*
Y109880D01*
X-334540D01*
Y107340D01*
X-337080D01*
Y102260D01*
X-334540D01*
Y127660D02*
Y125120D01*
X-329460D01*
Y127660D01*
X-326920D01*
Y132740D01*
X-329460D01*
Y135280D01*
X-334540D01*
Y132740D01*
X-337080D01*
Y127660D01*
X-334540D01*
X-359940D02*
Y125120D01*
X-354860D01*
Y127660D01*
X-352320D01*
Y132740D01*
X-354860D01*
Y135280D01*
X-359940D01*
Y132740D01*
X-362480D01*
Y127660D01*
X-359940D01*
Y102260D02*
Y99720D01*
X-354860D01*
Y102260D01*
X-352320D01*
Y107340D01*
X-354860D01*
Y109880D01*
X-359940D01*
Y107340D01*
X-362480D01*
Y102260D01*
X-359940D01*
X-334540Y153060D02*
Y150520D01*
X-329460D01*
Y153060D01*
X-326920D01*
Y158140D01*
X-329460D01*
Y160680D01*
X-334540D01*
Y158140D01*
X-337080D01*
Y153060D01*
X-334540D01*
X-359940D02*
Y150520D01*
X-354860D01*
Y153060D01*
X-352320D01*
Y158140D01*
X-354860D01*
Y160680D01*
X-359940D01*
Y158140D01*
X-362480D01*
Y153060D01*
X-359940D01*
X-334540Y203860D02*
Y201320D01*
X-329460D01*
Y203860D01*
X-326920D01*
Y208940D01*
X-329460D01*
Y211480D01*
X-334540D01*
Y208940D01*
X-337080D01*
Y203860D01*
X-334540D01*
X-359940D02*
Y201320D01*
X-354860D01*
Y203860D01*
X-352320D01*
Y208940D01*
X-354860D01*
Y211480D01*
X-359940D01*
Y208940D01*
X-362480D01*
Y203860D01*
X-359940D01*
X212500Y165170D02*
X215040Y167710D01*
X217580D01*
X215040Y170250D01*
X217580Y172790D01*
X215040D01*
X212500Y175330D01*
X209960Y172790D01*
X207420D01*
X209960Y170250D01*
X207420Y167710D01*
X209960D01*
X212500Y165170D01*
Y167202D02*
X214024Y168726D01*
X215548D01*
X214024Y170250D01*
X215548Y171774D01*
X214024D01*
X212500Y173298D01*
X210976Y171774D01*
X209452D01*
X210976Y170250D01*
X209452Y168726D01*
X210976D01*
X212500Y167202D01*
X221250Y165170D02*
X223790Y167710D01*
X226330D01*
X223790Y170250D01*
X226330Y172790D01*
X223790D01*
X221250Y175330D01*
X218710Y172790D01*
X216170D01*
X218710Y170250D01*
X216170Y167710D01*
X218710D01*
X221250Y165170D01*
Y167202D02*
X222774Y168726D01*
X224298D01*
X222774Y170250D01*
X224298Y171774D01*
X222774D01*
X221250Y173298D01*
X219726Y171774D01*
X218202D01*
X219726Y170250D01*
X218202Y168726D01*
X219726D01*
X221250Y167202D01*
X230000Y165170D02*
X232540Y167710D01*
X235080D01*
X232540Y170250D01*
X235080Y172790D01*
X232540D01*
X230000Y175330D01*
X227460Y172790D01*
X224920D01*
X227460Y170250D01*
X224920Y167710D01*
X227460D01*
X230000Y165170D01*
Y167202D02*
X231524Y168726D01*
X233048D01*
X231524Y170250D01*
X233048Y171774D01*
X231524D01*
X230000Y173298D01*
X228476Y171774D01*
X226952D01*
X228476Y170250D01*
X226952Y168726D01*
X228476D01*
X230000Y167202D01*
X238750Y165170D02*
X241290Y167710D01*
X243830D01*
X241290Y170250D01*
X243830Y172790D01*
X241290D01*
X238750Y175330D01*
X236210Y172790D01*
X233670D01*
X236210Y170250D01*
X233670Y167710D01*
X236210D01*
X238750Y165170D01*
Y167202D02*
X240274Y168726D01*
X241798D01*
X240274Y170250D01*
X241798Y171774D01*
X240274D01*
X238750Y173298D01*
X237226Y171774D01*
X235702D01*
X237226Y170250D01*
X235702Y168726D01*
X237226D01*
X238750Y167202D01*
X273750Y165170D02*
X276290Y167710D01*
X278830D01*
X276290Y170250D01*
X278830Y172790D01*
X276290D01*
X273750Y175330D01*
X271210Y172790D01*
X268670D01*
X271210Y170250D01*
X268670Y167710D01*
X271210D01*
X273750Y165170D01*
Y167202D02*
X275274Y168726D01*
X276798D01*
X275274Y170250D01*
X276798Y171774D01*
X275274D01*
X273750Y173298D01*
X272226Y171774D01*
X270702D01*
X272226Y170250D01*
X270702Y168726D01*
X272226D01*
X273750Y167202D01*
X265000Y165170D02*
X267540Y167710D01*
X270080D01*
X267540Y170250D01*
X270080Y172790D01*
X267540D01*
X265000Y175330D01*
X262460Y172790D01*
X259920D01*
X262460Y170250D01*
X259920Y167710D01*
X262460D01*
X265000Y165170D01*
Y167202D02*
X266524Y168726D01*
X268048D01*
X266524Y170250D01*
X268048Y171774D01*
X266524D01*
X265000Y173298D01*
X263476Y171774D01*
X261952D01*
X263476Y170250D01*
X261952Y168726D01*
X263476D01*
X265000Y167202D01*
X256250Y165170D02*
X258790Y167710D01*
X261330D01*
X258790Y170250D01*
X261330Y172790D01*
X258790D01*
X256250Y175330D01*
X253710Y172790D01*
X251170D01*
X253710Y170250D01*
X251170Y167710D01*
X253710D01*
X256250Y165170D01*
Y167202D02*
X257774Y168726D01*
X259298D01*
X257774Y170250D01*
X259298Y171774D01*
X257774D01*
X256250Y173298D01*
X254726Y171774D01*
X253202D01*
X254726Y170250D01*
X253202Y168726D01*
X254726D01*
X256250Y167202D01*
X247500Y165170D02*
X250040Y167710D01*
X252580D01*
X250040Y170250D01*
X252580Y172790D01*
X250040D01*
X247500Y175330D01*
X244960Y172790D01*
X242420D01*
X244960Y170250D01*
X242420Y167710D01*
X244960D01*
X247500Y165170D01*
Y167202D02*
X249024Y168726D01*
X250548D01*
X249024Y170250D01*
X250548Y171774D01*
X249024D01*
X247500Y173298D01*
X245976Y171774D01*
X244452D01*
X245976Y170250D01*
X244452Y168726D01*
X245976D01*
X247500Y167202D01*
Y174920D02*
X250040Y177460D01*
X252580D01*
X250040Y180000D01*
X252580Y182540D01*
X250040D01*
X247500Y185080D01*
X244960Y182540D01*
X242420D01*
X244960Y180000D01*
X242420Y177460D01*
X244960D01*
X247500Y174920D01*
Y176952D02*
X249024Y178476D01*
X250548D01*
X249024Y180000D01*
X250548Y181524D01*
X249024D01*
X247500Y183048D01*
X245976Y181524D01*
X244452D01*
X245976Y180000D01*
X244452Y178476D01*
X245976D01*
X247500Y176952D01*
X256250Y174920D02*
X258790Y177460D01*
X261330D01*
X258790Y180000D01*
X261330Y182540D01*
X258790D01*
X256250Y185080D01*
X253710Y182540D01*
X251170D01*
X253710Y180000D01*
X251170Y177460D01*
X253710D01*
X256250Y174920D01*
Y176952D02*
X257774Y178476D01*
X259298D01*
X257774Y180000D01*
X259298Y181524D01*
X257774D01*
X256250Y183048D01*
X254726Y181524D01*
X253202D01*
X254726Y180000D01*
X253202Y178476D01*
X254726D01*
X256250Y176952D01*
X265000Y174920D02*
X267540Y177460D01*
X270080D01*
X267540Y180000D01*
X270080Y182540D01*
X267540D01*
X265000Y185080D01*
X262460Y182540D01*
X259920D01*
X262460Y180000D01*
X259920Y177460D01*
X262460D01*
X265000Y174920D01*
Y176952D02*
X266524Y178476D01*
X268048D01*
X266524Y180000D01*
X268048Y181524D01*
X266524D01*
X265000Y183048D01*
X263476Y181524D01*
X261952D01*
X263476Y180000D01*
X261952Y178476D01*
X263476D01*
X265000Y176952D01*
X273750Y174920D02*
X276290Y177460D01*
X278830D01*
X276290Y180000D01*
X278830Y182540D01*
X276290D01*
X273750Y185080D01*
X271210Y182540D01*
X268670D01*
X271210Y180000D01*
X268670Y177460D01*
X271210D01*
X273750Y174920D01*
Y176952D02*
X275274Y178476D01*
X276798D01*
X275274Y180000D01*
X276798Y181524D01*
X275274D01*
X273750Y183048D01*
X272226Y181524D01*
X270702D01*
X272226Y180000D01*
X270702Y178476D01*
X272226D01*
X273750Y176952D01*
X238750Y174920D02*
X241290Y177460D01*
X243830D01*
X241290Y180000D01*
X243830Y182540D01*
X241290D01*
X238750Y185080D01*
X236210Y182540D01*
X233670D01*
X236210Y180000D01*
X233670Y177460D01*
X236210D01*
X238750Y174920D01*
Y176952D02*
X240274Y178476D01*
X241798D01*
X240274Y180000D01*
X241798Y181524D01*
X240274D01*
X238750Y183048D01*
X237226Y181524D01*
X235702D01*
X237226Y180000D01*
X235702Y178476D01*
X237226D01*
X238750Y176952D01*
X230000Y174920D02*
X232540Y177460D01*
X235080D01*
X232540Y180000D01*
X235080Y182540D01*
X232540D01*
X230000Y185080D01*
X227460Y182540D01*
X224920D01*
X227460Y180000D01*
X224920Y177460D01*
X227460D01*
X230000Y174920D01*
Y176952D02*
X231524Y178476D01*
X233048D01*
X231524Y180000D01*
X233048Y181524D01*
X231524D01*
X230000Y183048D01*
X228476Y181524D01*
X226952D01*
X228476Y180000D01*
X226952Y178476D01*
X228476D01*
X230000Y176952D01*
X221250Y174920D02*
X223790Y177460D01*
X226330D01*
X223790Y180000D01*
X226330Y182540D01*
X223790D01*
X221250Y185080D01*
X218710Y182540D01*
X216170D01*
X218710Y180000D01*
X216170Y177460D01*
X218710D01*
X221250Y174920D01*
Y176952D02*
X222774Y178476D01*
X224298D01*
X222774Y180000D01*
X224298Y181524D01*
X222774D01*
X221250Y183048D01*
X219726Y181524D01*
X218202D01*
X219726Y180000D01*
X218202Y178476D01*
X219726D01*
X221250Y176952D01*
X212500Y174920D02*
X215040Y177460D01*
X217580D01*
X215040Y180000D01*
X217580Y182540D01*
X215040D01*
X212500Y185080D01*
X209960Y182540D01*
X207420D01*
X209960Y180000D01*
X207420Y177460D01*
X209960D01*
X212500Y174920D01*
Y176952D02*
X214024Y178476D01*
X215548D01*
X214024Y180000D01*
X215548Y181524D01*
X214024D01*
X212500Y183048D01*
X210976Y181524D01*
X209452D01*
X210976Y180000D01*
X209452Y178476D01*
X210976D01*
X212500Y176952D01*
D133*
X-373420Y-204000D02*
G03*
X-373420Y-204000I-5080J0D01*
G01*
Y-94000D02*
G03*
X-373420Y-94000I-5080J0D01*
G01*
X-201120Y-171400D02*
G03*
X-201120Y-171400I-5080J0D01*
G01*
X-176120Y-171400D02*
G03*
X-176120Y-171400I-5080J0D01*
G01*
X-221120Y-171400D02*
G03*
X-221120Y-171400I-5080J0D01*
G01*
X-246120D02*
G03*
X-246120Y-171400I-5080J0D01*
G01*
X-192420Y85750D02*
G03*
X-192420Y85750I-5080J0D01*
G01*
X-127420Y77500D02*
G03*
X-127420Y77500I-5080J0D01*
G01*
X136830Y25750D02*
G03*
X136830Y25750I-5080J0D01*
G01*
D134*
X-194452Y85750D02*
G03*
X-194452Y85750I-3048J0D01*
G01*
X-129452Y77500D02*
G03*
X-129452Y77500I-3048J0D01*
G01*
X134798Y25750D02*
G03*
X134798Y25750I-3048J0D01*
G01*
%TF.MD5,ffd08aff80aa2c7dc25a585af266aed5*%
M02*
