%TF.GenerationSoftware,Altium Limited,Altium Designer,22.5.1 (42)*%
G04 Layer_Color=128*
%FSLAX44Y44*%
%MOMM*%
%TF.SameCoordinates,7B58D917-D16F-4CFB-9619-50DAC3371BF8*%
%TF.FilePolarity,Positive*%
%TF.FileFunction,Paste,Bot*%
%TF.Part,Single*%
G01*
G75*
%TA.AperFunction,SMDPad,CuDef*%
%ADD11R,1.1600X1.4700*%
%ADD15R,0.8000X0.8000*%
%ADD16R,0.8500X0.8500*%
%ADD19R,0.8500X0.8500*%
%ADD26R,0.8000X0.8000*%
%ADD56R,1.2000X2.0000*%
%ADD57R,5.8000X5.8500*%
G04:AMPARAMS|DCode=58|XSize=1.9mm|YSize=0.96mm|CornerRadius=0.1152mm|HoleSize=0mm|Usage=FLASHONLY|Rotation=0.000|XOffset=0mm|YOffset=0mm|HoleType=Round|Shape=RoundedRectangle|*
%AMROUNDEDRECTD58*
21,1,1.9000,0.7296,0,0,0.0*
21,1,1.6696,0.9600,0,0,0.0*
1,1,0.2304,0.8348,-0.3648*
1,1,0.2304,-0.8348,-0.3648*
1,1,0.2304,-0.8348,0.3648*
1,1,0.2304,0.8348,0.3648*
%
%ADD58ROUNDEDRECTD58*%
G36*
X128469Y135353D02*
Y99720D01*
X171730D01*
Y135353D01*
X128469D01*
D02*
G37*
D11*
X18400Y54750D02*
D03*
X600D02*
D03*
X24600Y183250D02*
D03*
X42400D02*
D03*
D15*
X188500Y10750D02*
D03*
X204500D02*
D03*
X125500D02*
D03*
X141500D02*
D03*
X107500D02*
D03*
X91500D02*
D03*
X27500D02*
D03*
X43500D02*
D03*
X8500D02*
D03*
X-7500D02*
D03*
X-71500D02*
D03*
X-55500D02*
D03*
X-95500D02*
D03*
X-111500D02*
D03*
X-176500D02*
D03*
X-160500D02*
D03*
X-197500D02*
D03*
X-213500D02*
D03*
X-261500D02*
D03*
X-277500D02*
D03*
D16*
X24750Y142750D02*
D03*
Y158250D02*
D03*
D19*
X2750Y34750D02*
D03*
X18250D02*
D03*
D26*
X60000Y76750D02*
D03*
Y92750D02*
D03*
X43500Y158500D02*
D03*
Y142500D02*
D03*
X60500Y158500D02*
D03*
Y142500D02*
D03*
X44000Y92750D02*
D03*
Y76750D02*
D03*
D56*
X-213750Y-18125D02*
D03*
X-261250D02*
D03*
X-111750Y-18125D02*
D03*
X-159250D02*
D03*
X-55510Y-16020D02*
D03*
X-8010D02*
D03*
X91250Y-16125D02*
D03*
X43750D02*
D03*
X189250D02*
D03*
X141750D02*
D03*
D57*
X-237500Y-84375D02*
D03*
X-135500Y-84375D02*
D03*
X-31760Y-82270D02*
D03*
X67500Y-82375D02*
D03*
X165500D02*
D03*
D58*
X83000Y140350D02*
D03*
Y94750D02*
D03*
%TF.MD5,3e44321033be7d7dc4fa7c139bc68d58*%
M02*
