%TF.GenerationSoftware,Altium Limited,Altium Designer,22.5.1 (42)*%
G04 Layer_Color=0*
%FSLAX44Y44*%
%MOMM*%
%TF.SameCoordinates,7B58D917-D16F-4CFB-9619-50DAC3371BF8*%
%TF.FilePolarity,Positive*%
%TF.FileFunction,Plated,1,4,PTH,Drill*%
%TF.Part,Single*%
G01*
G75*
%TA.AperFunction,ComponentDrill*%
%ADD117C,2.7000*%
%ADD118R,1.7000X0.6000*%
%ADD119O,1.5000X0.6000*%
%ADD120O,0.6000X1.5000*%
%ADD121C,0.9000*%
%ADD122C,1.0000*%
%ADD123C,1.7000*%
%ADD124C,3.0000*%
%ADD125C,0.9000*%
%ADD126C,1.6000*%
%ADD127C,1.6000*%
%ADD128C,1.0000*%
%ADD129C,2.3000*%
%TA.AperFunction,ViaDrill,NotFilled*%
%ADD130C,0.3000*%
%ADD131C,0.4000*%
D117*
X305000Y-94000D02*
D03*
Y-166000D02*
D03*
D118*
X365000Y-62500D02*
D03*
Y-197500D02*
D03*
D119*
X-132500Y233000D02*
D03*
Y283000D02*
D03*
X119250Y-229250D02*
D03*
Y-279250D02*
D03*
X-217000Y231750D02*
D03*
Y281750D02*
D03*
D120*
X-159500Y258000D02*
D03*
X146250Y-254250D02*
D03*
X-244000Y256750D02*
D03*
D121*
X-75650Y-276250D02*
D03*
X-24850Y-276250D02*
D03*
X550D02*
D03*
X25950D02*
D03*
X-50250D02*
D03*
D122*
X-378500Y-204000D02*
D03*
Y-94000D02*
D03*
D123*
X-328500Y-174000D02*
D03*
Y-124000D02*
D03*
D124*
X355000Y-262000D02*
D03*
X-355000Y262000D02*
D03*
Y-262000D02*
D03*
X355000Y262000D02*
D03*
D125*
X-270000Y106300D02*
D03*
Y131700D02*
D03*
X-357700Y70800D02*
D03*
X-332300D02*
D03*
X-357700Y20000D02*
D03*
X-332300D02*
D03*
X-357700Y-30800D02*
D03*
Y-5400D02*
D03*
X-332300D02*
D03*
Y-30800D02*
D03*
Y45400D02*
D03*
X-357700D02*
D03*
X-357400Y181000D02*
D03*
X-332000D02*
D03*
Y104800D02*
D03*
Y130200D02*
D03*
X-357400D02*
D03*
Y104800D02*
D03*
X-332000Y155600D02*
D03*
X-357400D02*
D03*
X-332000Y206400D02*
D03*
X-357400D02*
D03*
D126*
X250600Y233000D02*
D03*
X290200D02*
D03*
X211000D02*
D03*
X-9750Y236750D02*
D03*
X29850D02*
D03*
X-49350D02*
D03*
X80900Y234250D02*
D03*
X160100D02*
D03*
X120500D02*
D03*
D127*
X360000Y201850D02*
D03*
Y122650D02*
D03*
Y162250D02*
D03*
X359750Y31500D02*
D03*
Y-8100D02*
D03*
Y71100D02*
D03*
D128*
X-206200Y-171400D02*
D03*
X-181200Y-171400D02*
D03*
X-226200Y-171400D02*
D03*
X-251200D02*
D03*
D129*
X-281900Y-198500D02*
D03*
X-150500D02*
D03*
D130*
X212500Y170250D02*
D03*
X221250D02*
D03*
X230000D02*
D03*
X238750D02*
D03*
X273750D02*
D03*
X265000D02*
D03*
X256250D02*
D03*
X247500D02*
D03*
Y180000D02*
D03*
X256250D02*
D03*
X265000D02*
D03*
X273750D02*
D03*
X238750D02*
D03*
X230000D02*
D03*
X221250D02*
D03*
X212500D02*
D03*
D131*
X-197500Y85750D02*
D03*
X-132500Y77500D02*
D03*
X131750Y25750D02*
D03*
%TF.MD5,0fe434037d6010de79874f3089acf92c*%
M02*
