%TF.GenerationSoftware,Altium Limited,Altium Designer,22.5.1 (42)*%
G04 Layer_Color=8421504*
%FSLAX44Y44*%
%MOMM*%
%TF.SameCoordinates,7B58D917-D16F-4CFB-9619-50DAC3371BF8*%
%TF.FilePolarity,Positive*%
%TF.FileFunction,Paste,Top*%
%TF.Part,Single*%
G01*
G75*
%TA.AperFunction,SMDPad,CuDef*%
%ADD10C,2.0000*%
%ADD11R,1.1600X1.4700*%
%ADD12R,1.0000X0.4000*%
%ADD13R,2.6000X3.0000*%
%ADD14R,1.0000X1.6000*%
%ADD15R,0.8000X0.8000*%
%ADD16R,0.8500X0.8500*%
%ADD17O,0.6000X1.2000*%
%ADD18R,0.6000X1.2000*%
%ADD19R,0.8500X0.8500*%
G04:AMPARAMS|DCode=20|XSize=4.2mm|YSize=4.2mm|CornerRadius=0.21mm|HoleSize=0mm|Usage=FLASHONLY|Rotation=270.000|XOffset=0mm|YOffset=0mm|HoleType=Round|Shape=RoundedRectangle|*
%AMROUNDEDRECTD20*
21,1,4.2000,3.7800,0,0,270.0*
21,1,3.7800,4.2000,0,0,270.0*
1,1,0.4200,-1.8900,-1.8900*
1,1,0.4200,-1.8900,1.8900*
1,1,0.4200,1.8900,1.8900*
1,1,0.4200,1.8900,-1.8900*
%
%ADD20ROUNDEDRECTD20*%
%ADD21R,1.8500X1.5000*%
%ADD22R,5.3500X3.6000*%
%ADD23R,1.5500X1.1000*%
%ADD24R,1.5500X1.1000*%
%ADD25R,1.5500X3.4500*%
%ADD26R,0.8000X0.8000*%
%ADD27R,1.6000X1.0000*%
%ADD28R,3.6000X5.3500*%
%ADD29R,1.5000X1.8500*%
D10*
X197500Y-275250D02*
D03*
X245500Y-275250D02*
D03*
X197500Y-245250D02*
D03*
X245500Y-245250D02*
D03*
D11*
X-209600Y191500D02*
D03*
X-227400D02*
D03*
X251100Y-14000D02*
D03*
X268900D02*
D03*
X144900Y177500D02*
D03*
X127100D02*
D03*
X-95100Y-146000D02*
D03*
X-112900D02*
D03*
D12*
X-63500Y26500D02*
D03*
Y34500D02*
D03*
Y42500D02*
D03*
Y50500D02*
D03*
Y58500D02*
D03*
X-103500D02*
D03*
Y50500D02*
D03*
Y42500D02*
D03*
Y34500D02*
D03*
Y26500D02*
D03*
D13*
X-83500Y42500D02*
D03*
D14*
X257250Y-196000D02*
D03*
X227250D02*
D03*
X256000Y-140000D02*
D03*
X226000D02*
D03*
X255500Y-115500D02*
D03*
X225500D02*
D03*
X-236250Y-56250D02*
D03*
X-206250D02*
D03*
X-235750Y-29750D02*
D03*
X-205750D02*
D03*
D15*
X254500Y-91500D02*
D03*
X238500D02*
D03*
X96000Y-27500D02*
D03*
X80000D02*
D03*
X-82250Y7750D02*
D03*
X-66250D02*
D03*
X-280000Y-142250D02*
D03*
X-264000D02*
D03*
D16*
X252000Y-49750D02*
D03*
Y-34250D02*
D03*
X-228500Y170250D02*
D03*
Y154750D02*
D03*
X-135750Y24750D02*
D03*
Y40250D02*
D03*
X-164500Y24750D02*
D03*
Y40250D02*
D03*
X-180000Y24500D02*
D03*
Y40000D02*
D03*
D17*
X106000Y19500D02*
D03*
X96500D02*
D03*
X115500Y-6500D02*
D03*
X106000D02*
D03*
X96500D02*
D03*
D18*
X115500Y19500D02*
D03*
D19*
X94250Y52500D02*
D03*
X109750D02*
D03*
Y68500D02*
D03*
X94250D02*
D03*
X127250Y156500D02*
D03*
X142750D02*
D03*
X-80500Y81250D02*
D03*
X-65000D02*
D03*
X-131000Y-144000D02*
D03*
X-146500D02*
D03*
D20*
X183000Y-43500D02*
D03*
Y50500D02*
D03*
X-132500Y-13000D02*
D03*
Y-107000D02*
D03*
D21*
X184000Y102500D02*
D03*
Y123500D02*
D03*
D22*
X141000Y113000D02*
D03*
D23*
X-161250Y154500D02*
D03*
Y131500D02*
D03*
D24*
Y177500D02*
D03*
D25*
X-93750Y154500D02*
D03*
D26*
X-188500D02*
D03*
Y170500D02*
D03*
X-209500Y154500D02*
D03*
Y170500D02*
D03*
X-187500Y131500D02*
D03*
Y115500D02*
D03*
X-209500Y131500D02*
D03*
Y115500D02*
D03*
X98000Y119500D02*
D03*
Y103500D02*
D03*
X-149750Y24250D02*
D03*
Y40250D02*
D03*
X-121750Y40500D02*
D03*
Y24500D02*
D03*
X-43500Y51250D02*
D03*
Y67250D02*
D03*
D27*
X-42000Y5000D02*
D03*
Y35000D02*
D03*
D28*
X-50500Y-40250D02*
D03*
D29*
X-40000Y-83250D02*
D03*
X-61000D02*
D03*
%TF.MD5,cd6627d55ee623b2e4a14f7c79e58b1e*%
M02*
