%TF.GenerationSoftware,Altium Limited,Altium Designer,22.5.1 (42)*%
G04 Layer_Color=32896*
%FSLAX44Y44*%
%MOMM*%
%TF.SameCoordinates,15DEB0BC-4505-4058-9DE8-AE4841CA441A*%
%TF.FilePolarity,Positive*%
%TF.FileFunction,Other,Bottom_Designator*%
%TF.Part,Single*%
G01*
G75*
%TA.AperFunction,NonConductor*%
%ADD68C,0.2000*%
%ADD71C,0.2540*%
%ADD72C,0.1270*%
D68*
X-313250Y105750D02*
X-323247D01*
Y100752D01*
X-321581Y99086D01*
X-318248D01*
X-316582Y100752D01*
Y105750D01*
Y102418D02*
X-313250Y99086D01*
X-323247Y89089D02*
Y95753D01*
X-318248D01*
X-319914Y92421D01*
Y90755D01*
X-318248Y89089D01*
X-314916D01*
X-313250Y90755D01*
Y94087D01*
X-314916Y95753D01*
X-369081Y262085D02*
X-370747Y263752D01*
Y267084D01*
X-369081Y268750D01*
X-362416D01*
X-360750Y267084D01*
Y263752D01*
X-362416Y262085D01*
X-360750Y258753D02*
Y255421D01*
Y257087D01*
X-370747D01*
X-369081Y258753D01*
X-360750Y243758D02*
Y250423D01*
X-367415Y243758D01*
X-369081D01*
X-370747Y245424D01*
Y248756D01*
X-369081Y250423D01*
X-341831Y262085D02*
X-343497Y263752D01*
Y267084D01*
X-341831Y268750D01*
X-335166D01*
X-333500Y267084D01*
Y263752D01*
X-335166Y262085D01*
X-333500Y258753D02*
Y255421D01*
Y257087D01*
X-343497D01*
X-341831Y258753D01*
X-333500Y250422D02*
Y247090D01*
Y248756D01*
X-343497D01*
X-341831Y250422D01*
X35824Y163619D02*
X34158Y161953D01*
X30826D01*
X29160Y163619D01*
Y170284D01*
X30826Y171950D01*
X34158D01*
X35824Y170284D01*
X45821Y171950D02*
X39157D01*
X45821Y165285D01*
Y163619D01*
X44155Y161953D01*
X40823D01*
X39157Y163619D01*
X54152Y171950D02*
Y161953D01*
X49153Y166952D01*
X55818D01*
X-185581Y148085D02*
X-187247Y149752D01*
Y153084D01*
X-185581Y154750D01*
X-178916D01*
X-177250Y153084D01*
Y149752D01*
X-178916Y148085D01*
X-177250Y144753D02*
Y141421D01*
Y143087D01*
X-187247D01*
X-185581Y144753D01*
Y136423D02*
X-187247Y134756D01*
Y131424D01*
X-185581Y129758D01*
X-183915D01*
X-182248Y131424D01*
Y133090D01*
Y131424D01*
X-180582Y129758D01*
X-178916D01*
X-177250Y131424D01*
Y134756D01*
X-178916Y136423D01*
X-67165Y102581D02*
X-65498Y104247D01*
X-62166D01*
X-60500Y102581D01*
Y95916D01*
X-62166Y94250D01*
X-65498D01*
X-67165Y95916D01*
X-70497Y102581D02*
X-72163Y104247D01*
X-75495D01*
X-77161Y102581D01*
Y100915D01*
X-75495Y99249D01*
X-73829D01*
X-75495D01*
X-77161Y97582D01*
Y95916D01*
X-75495Y94250D01*
X-72163D01*
X-70497Y95916D01*
X-87158Y104247D02*
X-83826Y102581D01*
X-80494Y99249D01*
Y95916D01*
X-82160Y94250D01*
X-85492D01*
X-87158Y95916D01*
Y97582D01*
X-85492Y99249D01*
X-80494D01*
X-67415Y128831D02*
X-65749Y130497D01*
X-62416D01*
X-60750Y128831D01*
Y122166D01*
X-62416Y120500D01*
X-65749D01*
X-67415Y122166D01*
X-70747Y128831D02*
X-72413Y130497D01*
X-75745D01*
X-77411Y128831D01*
Y127165D01*
X-75745Y125499D01*
X-74079D01*
X-75745D01*
X-77411Y123832D01*
Y122166D01*
X-75745Y120500D01*
X-72413D01*
X-70747Y122166D01*
X-87408Y120500D02*
X-80744D01*
X-87408Y127165D01*
Y128831D01*
X-85742Y130497D01*
X-82410D01*
X-80744Y128831D01*
X-66665Y155331D02*
X-64998Y156997D01*
X-61666D01*
X-60000Y155331D01*
Y148666D01*
X-61666Y147000D01*
X-64998D01*
X-66665Y148666D01*
X-76661Y147000D02*
X-69997D01*
X-76661Y153665D01*
Y155331D01*
X-74995Y156997D01*
X-71663D01*
X-69997Y155331D01*
X-86658Y156997D02*
X-83326Y155331D01*
X-79994Y151999D01*
Y148666D01*
X-81660Y147000D01*
X-84992D01*
X-86658Y148666D01*
Y150332D01*
X-84992Y151999D01*
X-79994D01*
X-66665Y182331D02*
X-64998Y183997D01*
X-61666D01*
X-60000Y182331D01*
Y175666D01*
X-61666Y174000D01*
X-64998D01*
X-66665Y175666D01*
X-76661Y174000D02*
X-69997D01*
X-76661Y180665D01*
Y182331D01*
X-74995Y183997D01*
X-71663D01*
X-69997Y182331D01*
X-86658Y183997D02*
X-79994D01*
Y178999D01*
X-83326Y180665D01*
X-84992D01*
X-86658Y178999D01*
Y175666D01*
X-84992Y174000D01*
X-81660D01*
X-79994Y175666D01*
X29750Y-76250D02*
X39747D01*
Y-71252D01*
X38081Y-69585D01*
X34748D01*
X33082Y-71252D01*
Y-76250D01*
Y-72918D02*
X29750Y-69585D01*
Y-59589D02*
Y-66253D01*
X36414Y-59589D01*
X38081D01*
X39747Y-61255D01*
Y-64587D01*
X38081Y-66253D01*
X39747Y-49592D02*
Y-56256D01*
X34748D01*
X36414Y-52924D01*
Y-51258D01*
X34748Y-49592D01*
X31416D01*
X29750Y-51258D01*
Y-54590D01*
X31416Y-56256D01*
X139831Y-80336D02*
X141497Y-82002D01*
Y-85334D01*
X139831Y-87000D01*
X133166D01*
X131500Y-85334D01*
Y-82002D01*
X133166Y-80336D01*
X131500Y-72005D02*
X141497D01*
X136498Y-77003D01*
Y-70339D01*
X131500Y-60342D02*
Y-67006D01*
X138165Y-60342D01*
X139831D01*
X141497Y-62008D01*
Y-65340D01*
X139831Y-67006D01*
X118831Y-80585D02*
X120497Y-82252D01*
Y-85584D01*
X118831Y-87250D01*
X112166D01*
X110500Y-85584D01*
Y-82252D01*
X112166Y-80585D01*
X110500Y-72255D02*
X120497D01*
X115498Y-77253D01*
Y-70589D01*
X110500Y-67256D02*
Y-63924D01*
Y-65590D01*
X120497D01*
X118831Y-67256D01*
X189831Y-79335D02*
X191497Y-81002D01*
Y-84334D01*
X189831Y-86000D01*
X183166D01*
X181500Y-84334D01*
Y-81002D01*
X183166Y-79335D01*
X181500Y-71005D02*
X191497D01*
X186498Y-76003D01*
Y-69339D01*
X181500Y-61008D02*
X191497D01*
X186498Y-66006D01*
Y-59342D01*
X163831Y-79836D02*
X165497Y-81502D01*
Y-84834D01*
X163831Y-86500D01*
X157166D01*
X155500Y-84834D01*
Y-81502D01*
X157166Y-79836D01*
X155500Y-71505D02*
X165497D01*
X160498Y-76503D01*
Y-69839D01*
X163831Y-66507D02*
X165497Y-64840D01*
Y-61508D01*
X163831Y-59842D01*
X162164D01*
X160498Y-61508D01*
Y-63174D01*
Y-61508D01*
X158832Y-59842D01*
X157166D01*
X155500Y-61508D01*
Y-64840D01*
X157166Y-66507D01*
D71*
X-50547Y-6696D02*
X-40391D01*
X-35312Y-11774D01*
X-40391Y-16853D01*
X-50547D01*
Y-21931D02*
Y-32088D01*
Y-27009D01*
X-35312D01*
Y-37166D02*
Y-42244D01*
Y-39705D01*
X-50547D01*
X-48008Y-37166D01*
X61710Y-167225D02*
Y-182460D01*
X51553D01*
X46475Y-169764D02*
X43936Y-167225D01*
X38857D01*
X36318Y-169764D01*
Y-172303D01*
X38857Y-174842D01*
X41397D01*
X38857D01*
X36318Y-177382D01*
Y-179921D01*
X38857Y-182460D01*
X43936D01*
X46475Y-179921D01*
X-246946Y294882D02*
Y310117D01*
X-236789D01*
X-221554D02*
X-231711D01*
X-221554Y299961D01*
Y297422D01*
X-224093Y294882D01*
X-229172D01*
X-231711Y297422D01*
X-60703Y-36093D02*
X-70859D01*
X-75938Y-31015D01*
X-70859Y-25937D01*
X-60703D01*
Y-20858D02*
Y-10702D01*
Y-15780D01*
X-75938D01*
Y4533D02*
Y-5623D01*
X-65781Y4533D01*
X-63242D01*
X-60703Y1994D01*
Y-3084D01*
X-63242Y-5623D01*
D72*
X-260435Y162601D02*
X-258769Y164267D01*
X-255436D01*
X-253770Y162601D01*
Y155936D01*
X-255436Y154270D01*
X-258769D01*
X-260435Y155936D01*
X-263767Y154270D02*
X-267099D01*
X-265433D01*
Y164267D01*
X-263767Y162601D01*
X-272097D02*
X-273764Y164267D01*
X-277096D01*
X-278762Y162601D01*
Y155936D01*
X-277096Y154270D01*
X-273764D01*
X-272097Y155936D01*
Y162601D01*
X-339435Y122851D02*
X-337769Y124517D01*
X-334436D01*
X-332770Y122851D01*
Y116186D01*
X-334436Y114520D01*
X-337769D01*
X-339435Y116186D01*
X-349431Y114520D02*
X-342767D01*
X-349431Y121185D01*
Y122851D01*
X-347765Y124517D01*
X-344433D01*
X-342767Y122851D01*
X-352764D02*
X-354430Y124517D01*
X-357762D01*
X-359428Y122851D01*
Y121185D01*
X-357762Y119518D01*
X-356096D01*
X-357762D01*
X-359428Y117852D01*
Y116186D01*
X-357762Y114520D01*
X-354430D01*
X-352764Y116186D01*
X-318230Y130230D02*
Y120233D01*
X-313232D01*
X-311565Y121899D01*
Y125232D01*
X-313232Y126898D01*
X-318230D01*
X-314898D02*
X-311565Y130230D01*
X-308233Y120233D02*
X-301569D01*
Y121899D01*
X-308233Y128564D01*
Y130230D01*
X-308185Y139601D02*
X-306518Y141267D01*
X-303186D01*
X-301520Y139601D01*
Y132936D01*
X-303186Y131270D01*
X-306518D01*
X-308185Y132936D01*
X-318181Y131270D02*
X-311517D01*
X-318181Y137935D01*
Y139601D01*
X-316515Y141267D01*
X-313183D01*
X-311517Y139601D01*
X-328178Y131270D02*
X-321514D01*
X-328178Y137935D01*
Y139601D01*
X-326512Y141267D01*
X-323180D01*
X-321514Y139601D01*
X-310480Y88270D02*
X-300483D01*
Y93268D01*
X-302149Y94935D01*
X-305482D01*
X-307148Y93268D01*
Y88270D01*
Y91602D02*
X-310480Y94935D01*
X-300483Y104931D02*
X-302149Y101599D01*
X-305482Y98267D01*
X-308814D01*
X-310480Y99933D01*
Y103265D01*
X-308814Y104931D01*
X-307148D01*
X-305482Y103265D01*
Y98267D01*
X-223520Y93520D02*
Y103517D01*
X-228518D01*
X-230184Y101851D01*
Y98518D01*
X-228518Y96852D01*
X-223520D01*
X-226852D02*
X-230184Y93520D01*
X-233517Y101851D02*
X-235183Y103517D01*
X-238515D01*
X-240181Y101851D01*
Y100184D01*
X-238515Y98518D01*
X-240181Y96852D01*
Y95186D01*
X-238515Y93520D01*
X-235183D01*
X-233517Y95186D01*
Y96852D01*
X-235183Y98518D01*
X-233517Y100184D01*
Y101851D01*
X-235183Y98518D02*
X-238515D01*
X-218315Y121399D02*
X-219981Y119733D01*
X-223314D01*
X-224980Y121399D01*
Y128064D01*
X-223314Y129730D01*
X-219981D01*
X-218315Y128064D01*
X-214983Y129730D02*
X-211651D01*
X-213317D01*
Y119733D01*
X-214983Y121399D01*
X-201654Y129730D02*
Y119733D01*
X-206653Y124732D01*
X-199988D01*
X6351Y32435D02*
X8017Y30768D01*
Y27436D01*
X6351Y25770D01*
X-314D01*
X-1980Y27436D01*
Y30768D01*
X-314Y32435D01*
X-1980Y40765D02*
X8017D01*
X3018Y35767D01*
Y42431D01*
X8017Y45764D02*
Y52428D01*
X6351D01*
X-314Y45764D01*
X-1980D01*
X5399Y6065D02*
X3733Y7732D01*
Y11064D01*
X5399Y12730D01*
X12064D01*
X13730Y11064D01*
Y7732D01*
X12064Y6065D01*
X5399Y2733D02*
X3733Y1067D01*
Y-2265D01*
X5399Y-3931D01*
X7065D01*
X8731Y-2265D01*
Y-599D01*
Y-2265D01*
X10398Y-3931D01*
X12064D01*
X13730Y-2265D01*
Y1067D01*
X12064Y2733D01*
Y-7264D02*
X13730Y-8930D01*
Y-12262D01*
X12064Y-13928D01*
X5399D01*
X3733Y-12262D01*
Y-8930D01*
X5399Y-7264D01*
X7065D01*
X8731Y-8930D01*
Y-13928D01*
X19649Y-59185D02*
X17983Y-57519D01*
Y-54186D01*
X19649Y-52520D01*
X26314D01*
X27980Y-54186D01*
Y-57519D01*
X26314Y-59185D01*
X27980Y-67515D02*
X17983D01*
X22982Y-62517D01*
Y-69181D01*
X19649Y-72514D02*
X17983Y-74180D01*
Y-77512D01*
X19649Y-79178D01*
X21315D01*
X22982Y-77512D01*
X24648Y-79178D01*
X26314D01*
X27980Y-77512D01*
Y-74180D01*
X26314Y-72514D01*
X24648D01*
X22982Y-74180D01*
X21315Y-72514D01*
X19649D01*
X22982Y-74180D02*
Y-77512D01*
X56649Y-59935D02*
X54983Y-58268D01*
Y-54936D01*
X56649Y-53270D01*
X63314D01*
X64980Y-54936D01*
Y-58268D01*
X63314Y-59935D01*
X56649Y-63267D02*
X54983Y-64933D01*
Y-68265D01*
X56649Y-69931D01*
X58315D01*
X59981Y-68265D01*
Y-66599D01*
Y-68265D01*
X61648Y-69931D01*
X63314D01*
X64980Y-68265D01*
Y-64933D01*
X63314Y-63267D01*
X56649Y-73264D02*
X54983Y-74930D01*
Y-78262D01*
X56649Y-79928D01*
X58315D01*
X59981Y-78262D01*
X61648Y-79928D01*
X63314D01*
X64980Y-78262D01*
Y-74930D01*
X63314Y-73264D01*
X61648D01*
X59981Y-74930D01*
X58315Y-73264D01*
X56649D01*
X59981Y-74930D02*
Y-78262D01*
X-105520Y-77270D02*
X-115517D01*
Y-82268D01*
X-113851Y-83935D01*
X-110519D01*
X-108852Y-82268D01*
Y-77270D01*
Y-80602D02*
X-105520Y-83935D01*
Y-93931D02*
Y-87267D01*
X-112185Y-93931D01*
X-113851D01*
X-115517Y-92265D01*
Y-88933D01*
X-113851Y-87267D01*
Y-97264D02*
X-115517Y-98930D01*
Y-102262D01*
X-113851Y-103928D01*
X-112185D01*
X-110519Y-102262D01*
Y-100596D01*
Y-102262D01*
X-108852Y-103928D01*
X-107186D01*
X-105520Y-102262D01*
Y-98930D01*
X-107186Y-97264D01*
X71649Y-59935D02*
X69983Y-58268D01*
Y-54936D01*
X71649Y-53270D01*
X78314D01*
X79980Y-54936D01*
Y-58268D01*
X78314Y-59935D01*
X71649Y-63267D02*
X69983Y-64933D01*
Y-68265D01*
X71649Y-69931D01*
X73315D01*
X74981Y-68265D01*
Y-66599D01*
Y-68265D01*
X76648Y-69931D01*
X78314D01*
X79980Y-68265D01*
Y-64933D01*
X78314Y-63267D01*
X69983Y-73264D02*
Y-79928D01*
X71649D01*
X78314Y-73264D01*
X79980D01*
X136601Y-4065D02*
X138267Y-5732D01*
Y-9064D01*
X136601Y-10730D01*
X129936D01*
X128270Y-9064D01*
Y-5732D01*
X129936Y-4065D01*
X128270Y4265D02*
X138267D01*
X133268Y-733D01*
Y5931D01*
X138267Y15928D02*
Y9264D01*
X133268D01*
X134935Y12596D01*
Y14262D01*
X133268Y15928D01*
X129936D01*
X128270Y14262D01*
Y10930D01*
X129936Y9264D01*
X143980Y-24520D02*
X133983D01*
Y-29518D01*
X135649Y-31184D01*
X138982D01*
X140648Y-29518D01*
Y-24520D01*
Y-27852D02*
X143980Y-31184D01*
Y-41181D02*
Y-34517D01*
X137315Y-41181D01*
X135649D01*
X133983Y-39515D01*
Y-36183D01*
X135649Y-34517D01*
X133983Y-44514D02*
Y-51178D01*
X135649D01*
X142314Y-44514D01*
X143980D01*
X104730Y-57730D02*
Y-47733D01*
X99732D01*
X98066Y-49399D01*
Y-52732D01*
X99732Y-54398D01*
X104730D01*
X101398D02*
X98066Y-57730D01*
X88069D02*
X94733D01*
X88069Y-51066D01*
Y-49399D01*
X89735Y-47733D01*
X93067D01*
X94733Y-49399D01*
X79738Y-57730D02*
Y-47733D01*
X84736Y-52732D01*
X78072D01*
X93185Y-8101D02*
X91518Y-9767D01*
X88186D01*
X86520Y-8101D01*
Y-1436D01*
X88186Y230D01*
X91518D01*
X93185Y-1436D01*
X101515Y230D02*
Y-9767D01*
X96517Y-4769D01*
X103181D01*
X106514Y-1436D02*
X108180Y230D01*
X111512D01*
X113178Y-1436D01*
Y-8101D01*
X111512Y-9767D01*
X108180D01*
X106514Y-8101D01*
Y-6435D01*
X108180Y-4769D01*
X113178D01*
X86770Y14480D02*
Y4483D01*
X91768D01*
X93434Y6149D01*
Y9482D01*
X91768Y11148D01*
X86770D01*
X90102D02*
X93434Y14480D01*
X103431D02*
X96767D01*
X103431Y7815D01*
Y6149D01*
X101765Y4483D01*
X98433D01*
X96767Y6149D01*
X113428Y14480D02*
X106763D01*
X113428Y7815D01*
Y6149D01*
X111762Y4483D01*
X108430D01*
X106763Y6149D01*
X93185Y21149D02*
X91518Y19483D01*
X88186D01*
X86520Y21149D01*
Y27814D01*
X88186Y29480D01*
X91518D01*
X93185Y27814D01*
X101515Y29480D02*
Y19483D01*
X96517Y24481D01*
X103181D01*
X106514Y21149D02*
X108180Y19483D01*
X111512D01*
X113178Y21149D01*
Y27814D01*
X111512Y29480D01*
X108180D01*
X106514Y27814D01*
Y21149D01*
X103480Y30270D02*
Y40267D01*
X98482D01*
X96816Y38601D01*
Y35268D01*
X98482Y33602D01*
X103480D01*
X100148D02*
X96816Y30270D01*
X86819D02*
X93483D01*
X86819Y36934D01*
Y38601D01*
X88485Y40267D01*
X91817D01*
X93483Y38601D01*
X83486Y30270D02*
X80154D01*
X81820D01*
Y40267D01*
X83486Y38601D01*
X87020Y-28020D02*
Y-38017D01*
X92018D01*
X93684Y-36351D01*
Y-33018D01*
X92018Y-31352D01*
X87020D01*
X90352D02*
X93684Y-28020D01*
X103681D02*
X97017D01*
X103681Y-34685D01*
Y-36351D01*
X102015Y-38017D01*
X98683D01*
X97017Y-36351D01*
X113678Y-38017D02*
X110346Y-36351D01*
X107014Y-33018D01*
Y-29686D01*
X108680Y-28020D01*
X112012D01*
X113678Y-29686D01*
Y-31352D01*
X112012Y-33018D01*
X107014D01*
X93185Y-21851D02*
X91518Y-23517D01*
X88186D01*
X86520Y-21851D01*
Y-15186D01*
X88186Y-13520D01*
X91518D01*
X93185Y-15186D01*
X101515Y-13520D02*
Y-23517D01*
X96517Y-18519D01*
X103181D01*
X113178Y-23517D02*
X109846Y-21851D01*
X106514Y-18519D01*
Y-15186D01*
X108180Y-13520D01*
X111512D01*
X113178Y-15186D01*
Y-16852D01*
X111512Y-18519D01*
X106514D01*
%TF.MD5,d6109f58001a40fa93f83e62ec950a65*%
M02*
