%TF.GenerationSoftware,Altium Limited,Altium Designer,22.5.1 (42)*%
G04 Layer_Color=8388736*
%FSLAX44Y44*%
%MOMM*%
%TF.SameCoordinates,15DEB0BC-4505-4058-9DE8-AE4841CA441A*%
%TF.FilePolarity,Negative*%
%TF.FileFunction,Soldermask,Top*%
%TF.Part,Single*%
G01*
G75*
%TA.AperFunction,SMDPad,CuDef*%
%ADD73R,1.0032X1.0032*%
%ADD76R,1.0532X1.0532*%
%ADD78R,1.0532X1.0532*%
%ADD79R,1.8032X1.2032*%
%ADD83R,1.2032X1.8032*%
%ADD84R,1.0032X1.0032*%
G04:AMPARAMS|DCode=88|XSize=4.4032mm|YSize=4.4032mm|CornerRadius=0.3116mm|HoleSize=0mm|Usage=FLASHONLY|Rotation=180.000|XOffset=0mm|YOffset=0mm|HoleType=Round|Shape=RoundedRectangle|*
%AMROUNDEDRECTD88*
21,1,4.4032,3.7800,0,0,180.0*
21,1,3.7800,4.4032,0,0,180.0*
1,1,0.6232,-1.8900,1.8900*
1,1,0.6232,1.8900,1.8900*
1,1,0.6232,1.8900,-1.8900*
1,1,0.6232,-1.8900,-1.8900*
%
%ADD88ROUNDEDRECTD88*%
%TA.AperFunction,ComponentPad*%
%ADD89R,2.7532X2.7532*%
%ADD90C,2.7532*%
%ADD91C,1.7112*%
%ADD92O,3.7032X3.0032*%
%ADD93R,3.7032X3.0032*%
%ADD94R,2.7032X1.4032*%
%ADD95R,1.4032X2.7032*%
%ADD96C,1.8032*%
%ADD97R,1.8032X1.8032*%
%ADD98C,2.0032*%
%ADD99R,2.0032X2.0032*%
%ADD100O,4.7032X3.2032*%
%ADD101C,3.9192*%
%ADD102R,3.9192X3.9192*%
%ADD103O,1.4032X2.6032*%
%ADD104C,5.2032*%
%ADD105O,3.0032X3.7032*%
%ADD106R,3.0032X3.7032*%
%TA.AperFunction,SMDPad,CuDef*%
%ADD111R,3.7200X5.4700*%
%ADD112R,1.6020X1.9520*%
%ADD113R,1.3632X1.6732*%
%ADD114R,1.6732X1.3632*%
%ADD115R,1.3032X1.7532*%
%ADD116R,1.3032X1.7532*%
%ADD117R,3.6532X1.7532*%
%ADD118R,0.5020X1.1020*%
%ADD119R,3.1020X2.7020*%
G04:AMPARAMS|DCode=120|XSize=2.1032mm|YSize=1.1632mm|CornerRadius=0.2168mm|HoleSize=0mm|Usage=FLASHONLY|Rotation=270.000|XOffset=0mm|YOffset=0mm|HoleType=Round|Shape=RoundedRectangle|*
%AMROUNDEDRECTD120*
21,1,2.1032,0.7296,0,0,270.0*
21,1,1.6696,1.1632,0,0,270.0*
1,1,0.4336,-0.3648,-0.8348*
1,1,0.4336,-0.3648,0.8348*
1,1,0.4336,0.3648,0.8348*
1,1,0.4336,0.3648,-0.8348*
%
%ADD120ROUNDEDRECTD120*%
G04:AMPARAMS|DCode=121|XSize=7.0432mm|YSize=5.8332mm|CornerRadius=0.7772mm|HoleSize=0mm|Usage=FLASHONLY|Rotation=270.000|XOffset=0mm|YOffset=0mm|HoleType=Round|Shape=RoundedRectangle|*
%AMROUNDEDRECTD121*
21,1,7.0432,4.2788,0,0,270.0*
21,1,5.4888,5.8332,0,0,270.0*
1,1,1.5544,-2.1394,-2.7444*
1,1,1.5544,-2.1394,2.7444*
1,1,1.5544,2.1394,2.7444*
1,1,1.5544,2.1394,-2.7444*
%
%ADD121ROUNDEDRECTD121*%
%ADD122C,2.1500*%
D73*
X-249500Y-121500D02*
D03*
X-265500D02*
D03*
X45000Y-266500D02*
D03*
X61000D02*
D03*
X45000Y-252000D02*
D03*
X61000D02*
D03*
X23250Y-251250D02*
D03*
X7250D02*
D03*
X23250Y-266750D02*
D03*
X7250D02*
D03*
X233000Y-121750D02*
D03*
X217000D02*
D03*
X3750Y95750D02*
D03*
X-12250D02*
D03*
D76*
X-317000Y-259250D02*
D03*
X-332500D02*
D03*
X108500Y243000D02*
D03*
X124000D02*
D03*
X370250Y45000D02*
D03*
X354750D02*
D03*
D78*
X-249500Y-91750D02*
D03*
Y-107250D02*
D03*
X-272000Y-90750D02*
D03*
Y-75250D02*
D03*
X-288250Y-90500D02*
D03*
Y-75000D02*
D03*
X-267000Y-18500D02*
D03*
Y-3000D02*
D03*
X-398000Y209750D02*
D03*
Y225250D02*
D03*
X78500Y-295250D02*
D03*
Y-310750D02*
D03*
X180250Y-202000D02*
D03*
Y-217500D02*
D03*
X233250Y-90750D02*
D03*
Y-106250D02*
D03*
X385250Y224000D02*
D03*
Y239500D02*
D03*
X-396500Y167500D02*
D03*
Y152000D02*
D03*
X213750Y-18000D02*
D03*
Y-2500D02*
D03*
X191250Y-75000D02*
D03*
Y-90500D02*
D03*
X207000Y-90250D02*
D03*
Y-74750D02*
D03*
D79*
X-332000Y-149750D02*
D03*
Y-119750D02*
D03*
X-306000Y-149750D02*
D03*
Y-119750D02*
D03*
X156000Y-168250D02*
D03*
Y-138250D02*
D03*
X182500Y-168000D02*
D03*
Y-138000D02*
D03*
D83*
X9500Y118000D02*
D03*
X-20500D02*
D03*
X10000Y144750D02*
D03*
X-20000D02*
D03*
X10000Y171500D02*
D03*
X-20000D02*
D03*
X10000Y198750D02*
D03*
X-20000D02*
D03*
X-232750Y28000D02*
D03*
X-262750D02*
D03*
X262000Y6250D02*
D03*
X292000D02*
D03*
D84*
X-234250Y-91750D02*
D03*
Y-107750D02*
D03*
X-211250Y-44750D02*
D03*
Y-60750D02*
D03*
X-250000Y-18750D02*
D03*
Y-2750D02*
D03*
X-296000Y162500D02*
D03*
Y178500D02*
D03*
X-311750Y162250D02*
D03*
Y178250D02*
D03*
X-343250Y162500D02*
D03*
Y178500D02*
D03*
X-358750Y163000D02*
D03*
Y179000D02*
D03*
X274000Y-46000D02*
D03*
Y-62000D02*
D03*
X248750Y-106500D02*
D03*
Y-90500D02*
D03*
X389250Y-169750D02*
D03*
Y-153750D02*
D03*
X228750Y-18500D02*
D03*
Y-2500D02*
D03*
D88*
X-279500Y-185000D02*
D03*
X-185500D02*
D03*
X219500D02*
D03*
X313500D02*
D03*
D89*
X415500Y46250D02*
D03*
D90*
Y96250D02*
D03*
D91*
X465500Y16250D02*
D03*
Y126250D02*
D03*
D92*
X-423500Y-238700D02*
D03*
Y-199100D02*
D03*
Y18300D02*
D03*
Y57900D02*
D03*
Y-110200D02*
D03*
Y-70600D02*
D03*
D93*
Y-159500D02*
D03*
Y97500D02*
D03*
Y-31000D02*
D03*
D94*
X-446750Y134500D02*
D03*
X-446000Y204750D02*
D03*
X434750Y218500D02*
D03*
D95*
X-471750Y161500D02*
D03*
X-421750D02*
D03*
X-471000Y231750D02*
D03*
X-421000D02*
D03*
X459750Y191500D02*
D03*
X409750D02*
D03*
D96*
X113300Y-320400D02*
D03*
Y-295000D02*
D03*
X164100Y-320400D02*
D03*
Y-295000D02*
D03*
X214900Y-320400D02*
D03*
X189500D02*
D03*
Y-295000D02*
D03*
X138700D02*
D03*
Y-320400D02*
D03*
X296500Y-319900D02*
D03*
Y-294500D02*
D03*
X347300D02*
D03*
Y-319900D02*
D03*
X372700D02*
D03*
X321900Y-294500D02*
D03*
Y-319900D02*
D03*
X271100Y-294500D02*
D03*
Y-319900D02*
D03*
X-397800Y-321500D02*
D03*
X-347000Y-321500D02*
D03*
X-321600D02*
D03*
X-372400D02*
D03*
D97*
X214900Y-295000D02*
D03*
X372700Y-294500D02*
D03*
X-296200Y-321500D02*
D03*
D98*
X414400Y-130300D02*
D03*
X414400Y-105300D02*
D03*
X414400Y-150300D02*
D03*
D99*
Y-175300D02*
D03*
D100*
X441500Y-206000D02*
D03*
Y-74600D02*
D03*
D101*
X-37500Y248250D02*
D03*
D102*
X34500D02*
D03*
D103*
X-69000Y308250D02*
D03*
X66000D02*
D03*
D104*
X-450000Y300000D02*
D03*
X450000D02*
D03*
X-450000Y-300000D02*
D03*
X450000D02*
D03*
D105*
X-218250Y-306250D02*
D03*
X-178650D02*
D03*
X-92750Y-306500D02*
D03*
X-53150D02*
D03*
D106*
X-257850Y-306250D02*
D03*
X-132350Y-306500D02*
D03*
D111*
X-174750Y-57750D02*
D03*
X313000Y-76000D02*
D03*
D112*
X-185250Y-14750D02*
D03*
X-164250D02*
D03*
X302500Y-33000D02*
D03*
X323500D02*
D03*
D113*
X-378600Y132250D02*
D03*
X-396400D02*
D03*
X179150Y-237000D02*
D03*
X161350D02*
D03*
X58400Y-311250D02*
D03*
X40600D02*
D03*
X385400Y260000D02*
D03*
X367600D02*
D03*
D114*
X-398250Y261150D02*
D03*
Y243350D02*
D03*
X332500Y63650D02*
D03*
Y45850D02*
D03*
X-352250Y-259100D02*
D03*
Y-276900D02*
D03*
X143750Y242600D02*
D03*
Y260400D02*
D03*
D115*
X22750Y-224000D02*
D03*
X45750D02*
D03*
D116*
X-250D02*
D03*
D117*
X22750Y-156500D02*
D03*
D118*
X257500Y-34250D02*
D03*
X249500D02*
D03*
X241500D02*
D03*
X233500D02*
D03*
X225500D02*
D03*
Y-74250D02*
D03*
X233500D02*
D03*
X241500D02*
D03*
X249500D02*
D03*
X257500D02*
D03*
X-225750Y-34250D02*
D03*
X-233750D02*
D03*
X-241750D02*
D03*
X-249750D02*
D03*
X-257750D02*
D03*
Y-74250D02*
D03*
X-249750D02*
D03*
X-241750D02*
D03*
X-233750D02*
D03*
X-225750D02*
D03*
D119*
X241500Y-54250D02*
D03*
X-241750D02*
D03*
D120*
X-350050Y139900D02*
D03*
X-304450D02*
D03*
D121*
X-327250Y72800D02*
D03*
D122*
X345000Y178250D02*
D03*
X308320Y178630D02*
D03*
X344740Y213130D02*
D03*
X307750Y213500D02*
D03*
%TF.MD5,ea14e3414428106678c3cfa2140f98d0*%
M02*
