%TF.GenerationSoftware,Altium Limited,Altium Designer,22.5.1 (42)*%
G04 Layer_Physical_Order=4*
G04 Layer_Color=16711680*
%FSLAX44Y44*%
%MOMM*%
%TF.SameCoordinates,15DEB0BC-4505-4058-9DE8-AE4841CA441A*%
%TF.FilePolarity,Positive*%
%TF.FileFunction,Copper,L4,Bot,Signal*%
%TF.Part,Single*%
G01*
G75*
%TA.AperFunction,SMDPad,CuDef*%
%ADD10R,0.8000X0.8000*%
%ADD11R,0.8500X0.8500*%
%ADD12R,0.8000X0.8000*%
G04:AMPARAMS|DCode=13|XSize=4.2mm|YSize=4.2mm|CornerRadius=0.21mm|HoleSize=0mm|Usage=FLASHONLY|Rotation=180.000|XOffset=0mm|YOffset=0mm|HoleType=Round|Shape=RoundedRectangle|*
%AMROUNDEDRECTD13*
21,1,4.2000,3.7800,0,0,180.0*
21,1,3.7800,4.2000,0,0,180.0*
1,1,0.4200,-1.8900,1.8900*
1,1,0.4200,1.8900,1.8900*
1,1,0.4200,1.8900,-1.8900*
1,1,0.4200,-1.8900,-1.8900*
%
%ADD13ROUNDEDRECTD13*%
%ADD23R,1.0000X1.6000*%
%ADD26R,0.8500X0.8500*%
%ADD27R,1.6000X1.0000*%
%TA.AperFunction,Conductor*%
%ADD30C,0.3810*%
%TA.AperFunction,ComponentPad*%
%ADD31R,2.5500X2.5500*%
%ADD32C,2.5500*%
%ADD33C,1.5080*%
%ADD34C,0.3000*%
%ADD35O,3.5000X2.8000*%
%ADD36R,3.5000X2.8000*%
%ADD37R,2.5000X1.2000*%
%ADD38R,1.2000X2.5000*%
%ADD39C,1.6000*%
%ADD40R,1.6000X1.6000*%
%ADD41C,1.8000*%
%ADD42R,1.8000X1.8000*%
%ADD43O,4.5000X3.0000*%
%ADD44C,3.7160*%
%ADD45R,3.7160X3.7160*%
%ADD46O,1.2000X2.4000*%
%ADD47C,5.0000*%
%ADD48O,2.8000X3.5000*%
%ADD49R,2.8000X3.5000*%
%TA.AperFunction,ViaPad*%
%ADD50C,0.6000*%
%ADD51C,0.8000*%
%TA.AperFunction,Conductor*%
%ADD53C,0.2000*%
%TA.AperFunction,SMDPad,CuDef*%
%ADD54R,1.0000X0.4000*%
%ADD55R,2.6000X3.0000*%
%ADD56R,1.2500X1.0000*%
%ADD57R,5.3500X3.6000*%
%ADD58R,1.8500X1.5000*%
%ADD59R,3.0000X2.0000*%
G04:AMPARAMS|DCode=60|XSize=0.24mm|YSize=0.6mm|CornerRadius=0.03mm|HoleSize=0mm|Usage=FLASHONLY|Rotation=180.000|XOffset=0mm|YOffset=0mm|HoleType=Round|Shape=RoundedRectangle|*
%AMROUNDEDRECTD60*
21,1,0.2400,0.5400,0,0,180.0*
21,1,0.1800,0.6000,0,0,180.0*
1,1,0.0600,-0.0900,0.2700*
1,1,0.0600,0.0900,0.2700*
1,1,0.0600,0.0900,-0.2700*
1,1,0.0600,-0.0900,-0.2700*
%
%ADD60ROUNDEDRECTD60*%
G04:AMPARAMS|DCode=61|XSize=0.6mm|YSize=0.24mm|CornerRadius=0.03mm|HoleSize=0mm|Usage=FLASHONLY|Rotation=180.000|XOffset=0mm|YOffset=0mm|HoleType=Round|Shape=RoundedRectangle|*
%AMROUNDEDRECTD61*
21,1,0.6000,0.1800,0,0,180.0*
21,1,0.5400,0.2400,0,0,180.0*
1,1,0.0600,-0.2700,0.0900*
1,1,0.0600,0.2700,0.0900*
1,1,0.0600,0.2700,-0.0900*
1,1,0.0600,-0.2700,-0.0900*
%
%ADD61ROUNDEDRECTD61*%
G04:AMPARAMS|DCode=62|XSize=2.05mm|YSize=3.05mm|CornerRadius=0.0513mm|HoleSize=0mm|Usage=FLASHONLY|Rotation=180.000|XOffset=0mm|YOffset=0mm|HoleType=Round|Shape=RoundedRectangle|*
%AMROUNDEDRECTD62*
21,1,2.0500,2.9475,0,0,180.0*
21,1,1.9475,3.0500,0,0,180.0*
1,1,0.1025,-0.9738,1.4738*
1,1,0.1025,0.9738,1.4738*
1,1,0.1025,0.9738,-1.4738*
1,1,0.1025,-0.9738,-1.4738*
%
%ADD62ROUNDEDRECTD62*%
%ADD63R,2.0000X1.4000*%
%ADD64R,7.0000X7.0000*%
%ADD65R,3.2500X5.0000*%
%TA.AperFunction,Conductor*%
%ADD66C,0.3000*%
%ADD67C,0.9000*%
G36*
X448641Y347881D02*
X455524Y346975D01*
X462230Y345178D01*
X468644Y342521D01*
X474657Y339050D01*
X480164Y334824D01*
X485074Y329914D01*
X489300Y324407D01*
X492771Y318394D01*
X495428Y311980D01*
X497225Y305274D01*
X498131Y298391D01*
Y294920D01*
X498131Y-294920D01*
X498131Y-298391D01*
X497225Y-305274D01*
X495428Y-311980D01*
X492771Y-318394D01*
X489300Y-324407D01*
X485074Y-329915D01*
X480164Y-334824D01*
X474657Y-339050D01*
X468644Y-342521D01*
X462230Y-345178D01*
X455524Y-346975D01*
X448641Y-347881D01*
X-448641D01*
X-455524Y-346975D01*
X-462230Y-345178D01*
X-468644Y-342521D01*
X-474657Y-339050D01*
X-480164Y-334824D01*
X-485074Y-329914D01*
X-489300Y-324407D01*
X-492771Y-318395D01*
X-495428Y-311980D01*
X-497225Y-305274D01*
X-498131Y-298391D01*
Y-294920D01*
Y294920D01*
Y298391D01*
X-497225Y305274D01*
X-495428Y311980D01*
X-492771Y318394D01*
X-489300Y324407D01*
X-485074Y329914D01*
X-480164Y334824D01*
X-474657Y339050D01*
X-468644Y342521D01*
X-462230Y345178D01*
X-455524Y346975D01*
X-448641Y347881D01*
X-445170D01*
X445170Y347881D01*
X448641Y347881D01*
D02*
G37*
%LPC*%
G36*
X-334755Y343500D02*
X-336744D01*
X-338582Y342739D01*
X-339813Y341508D01*
X-340266Y341347D01*
X-341334Y341405D01*
X-342418Y342489D01*
X-344255Y343250D01*
X-346245D01*
X-348082Y342489D01*
X-349489Y341082D01*
X-349490Y341079D01*
X-350760D01*
X-350761Y341082D01*
X-352168Y342489D01*
X-354005Y343250D01*
X-355994D01*
X-357832Y342489D01*
X-358813Y341508D01*
X-359625Y341219D01*
X-360437Y341508D01*
X-361418Y342489D01*
X-363255Y343250D01*
X-365244D01*
X-367082Y342489D01*
X-367795Y341776D01*
X-368625Y341180D01*
X-369455Y341776D01*
X-370168Y342489D01*
X-372005Y343250D01*
X-373994D01*
X-375832Y342489D01*
X-377063Y341258D01*
X-377516Y341097D01*
X-378583Y341155D01*
X-379668Y342239D01*
X-381505Y343000D01*
X-383494D01*
X-385332Y342239D01*
X-386739Y340832D01*
X-386740Y340829D01*
X-388010D01*
X-388011Y340832D01*
X-389418Y342239D01*
X-391255Y343000D01*
X-393245D01*
X-395082Y342239D01*
X-396063Y341258D01*
X-396875Y340970D01*
X-397687Y341258D01*
X-398668Y342239D01*
X-400505Y343000D01*
X-402495D01*
X-404332Y342239D01*
X-405739Y340832D01*
X-406500Y338995D01*
Y337005D01*
X-405739Y335168D01*
X-405026Y334455D01*
X-404430Y333625D01*
X-405026Y332795D01*
X-405739Y332082D01*
X-406500Y330245D01*
Y328256D01*
X-405739Y326418D01*
X-404651Y325330D01*
X-404374Y324799D01*
X-404581Y323740D01*
X-405489Y322832D01*
X-406250Y320995D01*
Y319005D01*
X-405489Y317168D01*
X-404776Y316455D01*
X-404180Y315625D01*
X-404776Y314795D01*
X-405489Y314082D01*
X-406250Y312245D01*
Y310255D01*
X-405489Y308418D01*
X-404082Y307011D01*
X-402244Y306250D01*
X-400255D01*
X-398418Y307011D01*
X-397437Y307992D01*
X-396625Y308281D01*
X-395813Y307992D01*
X-394832Y307011D01*
X-392994Y306250D01*
X-391005D01*
X-389168Y307011D01*
X-387761Y308418D01*
X-387760Y308421D01*
X-386490D01*
X-386489Y308418D01*
X-385082Y307011D01*
X-383245Y306250D01*
X-381255D01*
X-379418Y307011D01*
X-378187Y308242D01*
X-377734Y308403D01*
X-376666Y308345D01*
X-375582Y307261D01*
X-373745Y306500D01*
X-371755D01*
X-369918Y307261D01*
X-369205Y307974D01*
X-368375Y308570D01*
X-367545Y307974D01*
X-366832Y307261D01*
X-364995Y306500D01*
X-363005D01*
X-361168Y307261D01*
X-360187Y308242D01*
X-359375Y308530D01*
X-358563Y308242D01*
X-357582Y307261D01*
X-355745Y306500D01*
X-353755D01*
X-351918Y307261D01*
X-350511Y308668D01*
X-350510Y308671D01*
X-349240D01*
X-349239Y308668D01*
X-347832Y307261D01*
X-345994Y306500D01*
X-344005D01*
X-342168Y307261D01*
X-340937Y308492D01*
X-340484Y308653D01*
X-339416Y308595D01*
X-338332Y307511D01*
X-336494Y306750D01*
X-334505D01*
X-332668Y307511D01*
X-331261Y308918D01*
X-330500Y310755D01*
Y312745D01*
X-331261Y314582D01*
X-331974Y315295D01*
X-332570Y316125D01*
X-331974Y316955D01*
X-331261Y317668D01*
X-330500Y319505D01*
Y321494D01*
X-331261Y323332D01*
X-332349Y324420D01*
X-332626Y324952D01*
X-332419Y326010D01*
X-331511Y326918D01*
X-330750Y328755D01*
Y330745D01*
X-331511Y332582D01*
X-332224Y333295D01*
X-332820Y334125D01*
X-332224Y334955D01*
X-331511Y335668D01*
X-330750Y337505D01*
Y339495D01*
X-331511Y341332D01*
X-332918Y342739D01*
X-334755Y343500D01*
D02*
G37*
G36*
X-69000Y322319D02*
X-71088Y322044D01*
X-73035Y321238D01*
X-74706Y319956D01*
X-75988Y318284D01*
X-76794Y316338D01*
X-77069Y314250D01*
Y302250D01*
X-76794Y300162D01*
X-75988Y298216D01*
X-74706Y296544D01*
X-73035Y295262D01*
X-71088Y294456D01*
X-69000Y294181D01*
X-66912Y294456D01*
X-64966Y295262D01*
X-63294Y296544D01*
X-62012Y298216D01*
X-61206Y300162D01*
X-60931Y302250D01*
Y314250D01*
X-61206Y316338D01*
X-62012Y318284D01*
X-63294Y319956D01*
X-64966Y321238D01*
X-66912Y322044D01*
X-69000Y322319D01*
D02*
G37*
G36*
X-447875Y327000D02*
X-452125D01*
X-456323Y326335D01*
X-460364Y325022D01*
X-464151Y323092D01*
X-467589Y320594D01*
X-470594Y317589D01*
X-473092Y314151D01*
X-475022Y310364D01*
X-476335Y306322D01*
X-477000Y302125D01*
Y297875D01*
X-476335Y293678D01*
X-475022Y289636D01*
X-473092Y285849D01*
X-470594Y282411D01*
X-467589Y279406D01*
X-464151Y276908D01*
X-460364Y274978D01*
X-456323Y273665D01*
X-452125Y273000D01*
X-447875D01*
X-443677Y273665D01*
X-439636Y274978D01*
X-435849Y276908D01*
X-432411Y279406D01*
X-429406Y282411D01*
X-426908Y285849D01*
X-424978Y289636D01*
X-423665Y293678D01*
X-423000Y297875D01*
Y302125D01*
X-423665Y306322D01*
X-424978Y310364D01*
X-426908Y314151D01*
X-429406Y317589D01*
X-432411Y320594D01*
X-435849Y323092D01*
X-439636Y325022D01*
X-443677Y326335D01*
X-447875Y327000D01*
D02*
G37*
G36*
X-282350Y313580D02*
X-320150D01*
X-321750Y313262D01*
X-323106Y312356D01*
X-324012Y311000D01*
X-324330Y309400D01*
Y297056D01*
X-336250D01*
X-337947Y296833D01*
X-339528Y296178D01*
X-340886Y295136D01*
X-348136Y287886D01*
X-349178Y286528D01*
X-349833Y284947D01*
X-350056Y283250D01*
Y275750D01*
X-353500D01*
Y275306D01*
X-360750D01*
Y275750D01*
X-380750D01*
Y275306D01*
X-415250D01*
X-416947Y275083D01*
X-418528Y274428D01*
X-419886Y273386D01*
X-425636Y267636D01*
X-426678Y266278D01*
X-427333Y264697D01*
X-427556Y263000D01*
Y246250D01*
X-429000D01*
Y217250D01*
X-427556D01*
Y199750D01*
X-427333Y198053D01*
X-426678Y196472D01*
X-425636Y195114D01*
X-374806Y144284D01*
Y92000D01*
X-374583Y90303D01*
X-373928Y88722D01*
X-372886Y87364D01*
X-365636Y80114D01*
X-364278Y79072D01*
X-362697Y78417D01*
X-361000Y78194D01*
X-330500D01*
Y77750D01*
X-314000D01*
Y91750D01*
X-330500D01*
Y91306D01*
X-358284D01*
X-361694Y94716D01*
Y147000D01*
X-361917Y148697D01*
X-362572Y150278D01*
X-363614Y151636D01*
X-414444Y202466D01*
Y217250D01*
X-413000D01*
Y246250D01*
X-414444D01*
Y260284D01*
X-412534Y262194D01*
X-380750D01*
Y261750D01*
X-360750D01*
Y262194D01*
X-353500D01*
Y261750D01*
X-333500D01*
Y275750D01*
X-336944D01*
Y280534D01*
X-333534Y283944D01*
X-324330D01*
Y271600D01*
X-324012Y270000D01*
X-323106Y268644D01*
X-321750Y267738D01*
X-320150Y267420D01*
X-282350D01*
X-280750Y267738D01*
X-279394Y268644D01*
X-278488Y270000D01*
X-278170Y271600D01*
Y309400D01*
X-278488Y311000D01*
X-279394Y312356D01*
X-280750Y313262D01*
X-282350Y313580D01*
D02*
G37*
G36*
X-413750Y176000D02*
X-429750D01*
Y147000D01*
X-413750D01*
Y176000D01*
D02*
G37*
G36*
X86299Y331289D02*
X-4549D01*
X-4746Y331250D01*
X-4947D01*
X-5115Y331217D01*
X-5115D01*
X-5300Y331140D01*
X-5330Y331134D01*
X-5354Y331117D01*
X-5850Y330912D01*
X-6412Y330350D01*
X-6617Y329855D01*
X-6634Y329830D01*
X-6640Y329800D01*
X-6717Y329614D01*
Y329614D01*
X-6750Y329447D01*
Y329246D01*
X-6789Y329049D01*
Y227539D01*
X-151000D01*
X-151780Y227384D01*
X-152030Y227280D01*
X-152692Y226838D01*
X-153134Y226177D01*
X-153289Y225396D01*
Y178039D01*
X-215500D01*
X-216280Y177884D01*
X-216942Y177442D01*
X-217384Y176780D01*
X-217539Y176000D01*
Y173250D01*
Y144289D01*
X-233000D01*
Y150500D01*
X-237005D01*
Y157314D01*
X-237238Y158484D01*
X-237901Y159477D01*
X-237901Y159477D01*
X-242587Y164163D01*
X-243580Y164826D01*
X-244750Y165059D01*
X-244750Y165059D01*
X-248500D01*
Y168000D01*
X-260500Y168000D01*
X-260961Y169079D01*
Y177405D01*
X-258905Y179461D01*
X-225250D01*
X-224470Y179616D01*
X-223808Y180058D01*
X-223366Y180720D01*
X-223211Y181500D01*
Y231405D01*
X-220655Y233961D01*
X-174000D01*
X-173220Y234116D01*
X-172558Y234558D01*
X-172116Y235220D01*
X-171961Y236000D01*
Y317000D01*
X-171961Y317000D01*
X-172116Y317780D01*
X-172558Y318442D01*
X-172558Y318442D01*
X-172808Y318692D01*
X-173470Y319134D01*
X-174250Y319289D01*
X-230679D01*
X-230907Y319244D01*
X-231140Y319236D01*
X-231293Y319167D01*
X-231459Y319134D01*
X-231652Y319005D01*
X-231865Y318909D01*
X-231980Y318786D01*
X-232120Y318692D01*
X-232250Y318498D01*
X-232409Y318329D01*
X-296730Y215146D01*
X-296790Y214988D01*
X-296884Y214848D01*
X-296929Y214620D01*
X-297012Y214402D01*
X-297006Y214233D01*
X-297039Y214068D01*
Y145000D01*
X-308250D01*
Y133000D01*
X-305819D01*
Y128750D01*
X-308000D01*
Y116250D01*
X-295500D01*
Y118931D01*
X-288091D01*
X-287000Y118500D01*
X-287000Y117230D01*
Y110500D01*
X-284168D01*
X-283817Y109230D01*
X-284728Y108319D01*
X-296500D01*
Y111000D01*
X-309000D01*
Y108319D01*
X-314000D01*
Y111750D01*
X-330500D01*
Y97750D01*
X-314000D01*
Y101181D01*
X-309000D01*
Y98500D01*
X-296500D01*
Y101181D01*
X-283250D01*
X-281884Y101453D01*
X-280727Y102227D01*
X-277477Y105477D01*
X-276703Y106634D01*
X-276431Y108000D01*
Y110500D01*
X-273000D01*
Y117230D01*
X-273000Y118500D01*
X-273000Y119770D01*
Y126500D01*
X-287000D01*
Y126069D01*
X-295500D01*
Y128750D01*
X-298681D01*
Y133000D01*
X-296250D01*
X-296250Y133000D01*
Y133000D01*
X-295000Y133211D01*
X-275000D01*
X-274220Y133366D01*
X-273558Y133808D01*
X-273116Y134470D01*
X-273110Y134500D01*
X-273000D01*
Y135053D01*
X-272961Y135250D01*
Y142500D01*
X-273000Y142697D01*
Y145961D01*
X-263000D01*
X-262220Y146116D01*
X-261558Y146558D01*
X-261116Y147220D01*
X-260961Y148000D01*
Y154921D01*
X-260500Y156000D01*
X-259691Y156000D01*
X-248500D01*
Y158941D01*
X-246017D01*
X-243123Y156047D01*
Y150500D01*
X-247000D01*
Y142500D01*
X-247000Y142500D01*
X-247039Y142250D01*
Y134750D01*
X-247000Y134553D01*
Y127770D01*
X-247000Y126500D01*
X-247000Y125230D01*
X-247000Y118500D01*
X-247000Y117230D01*
Y110500D01*
X-243569D01*
Y107500D01*
X-246250D01*
Y95000D01*
X-233750D01*
Y107500D01*
X-236431D01*
Y110500D01*
X-233000D01*
Y117230D01*
X-233000Y118500D01*
X-231909Y118931D01*
X-230250D01*
Y116000D01*
X-218250D01*
Y128000D01*
X-230250D01*
Y126069D01*
X-231909D01*
X-233000Y126500D01*
X-233000Y127770D01*
Y132711D01*
X-163811D01*
X-163500Y132245D01*
Y130255D01*
X-162739Y128418D01*
X-161332Y127011D01*
X-159495Y126250D01*
X-157505D01*
X-155668Y127011D01*
X-154261Y128418D01*
X-153500Y130255D01*
Y132245D01*
X-153188Y132711D01*
X-130709D01*
X-130439Y132765D01*
X-130164Y132785D01*
X-130052Y132842D01*
X-129929Y132866D01*
X-129700Y133019D01*
X-129453Y133144D01*
X-128494Y133893D01*
X-128412Y133989D01*
X-128308Y134058D01*
X-128155Y134287D01*
X-127975Y134496D01*
X-127936Y134615D01*
X-127866Y134720D01*
X-127812Y134990D01*
X-127726Y135252D01*
X-127735Y135377D01*
X-127711Y135500D01*
Y197961D01*
X-77289D01*
Y80539D01*
X-129549D01*
X-129746Y80500D01*
X-129947D01*
X-130133Y80463D01*
X-130133Y80463D01*
X-130133D01*
X-130318Y80386D01*
X-130330Y80384D01*
X-130339Y80378D01*
X-130661Y80244D01*
X-130672Y80242D01*
X-130682Y80236D01*
X-130868Y80159D01*
X-130868Y80159D01*
X-131025Y80054D01*
X-131167Y79911D01*
X-131334Y79800D01*
X-131565Y79569D01*
X-131721Y79334D01*
X-131904Y79119D01*
X-132532Y77992D01*
X-132568Y77879D01*
X-132634Y77780D01*
X-132689Y77503D01*
X-132776Y77234D01*
X-132766Y77116D01*
X-132789Y77000D01*
Y76328D01*
Y-23799D01*
X-132750Y-23996D01*
Y-24197D01*
X-132717Y-24365D01*
Y-24365D01*
X-132640Y-24550D01*
X-132634Y-24580D01*
X-132617Y-24604D01*
X-132412Y-25100D01*
X-131849Y-25662D01*
X-131355Y-25867D01*
X-131330Y-25884D01*
X-131300Y-25890D01*
X-131114Y-25967D01*
X-131114D01*
X-130947Y-26000D01*
X-130746D01*
X-130549Y-26039D01*
X-103201D01*
X-103004Y-26000D01*
X-102803D01*
X-102602Y-25960D01*
X-102552Y-25939D01*
X-79448D01*
X-79398Y-25960D01*
X-79197Y-26000D01*
X-78996D01*
X-78799Y-26039D01*
X-67582D01*
X-67096Y-27213D01*
X-76192Y-36308D01*
X-76634Y-36970D01*
X-76789Y-37750D01*
Y-69031D01*
X-78059Y-69557D01*
X-78308Y-69308D01*
X-78970Y-68866D01*
X-79750Y-68711D01*
X-101000D01*
X-101780Y-68866D01*
X-102442Y-69308D01*
X-102884Y-69970D01*
X-103039Y-70750D01*
Y-85211D01*
X-119846D01*
X-119853Y-85212D01*
X-119859Y-85211D01*
X-120243Y-85290D01*
X-120627Y-85366D01*
X-120632Y-85370D01*
X-120638Y-85371D01*
X-120961Y-85589D01*
X-121288Y-85808D01*
X-121292Y-85814D01*
X-121297Y-85817D01*
X-122190Y-86721D01*
X-122193Y-86726D01*
X-122198Y-86730D01*
X-122412Y-87058D01*
X-122627Y-87385D01*
X-122629Y-87391D01*
X-122632Y-87397D01*
X-122704Y-87780D01*
X-122778Y-88166D01*
X-122776Y-88173D01*
X-122778Y-88179D01*
X-122539Y-107275D01*
X-122459Y-107653D01*
X-122384Y-108030D01*
X-122377Y-108041D01*
X-122374Y-108054D01*
X-122156Y-108371D01*
X-121942Y-108692D01*
X-121931Y-108699D01*
X-121924Y-108710D01*
X-121601Y-108920D01*
X-121280Y-109134D01*
X-121268Y-109136D01*
X-121257Y-109144D01*
X-120878Y-109214D01*
X-120500Y-109289D01*
X-79750D01*
X-79750Y-109289D01*
X-78970Y-109134D01*
X-78308Y-108692D01*
X-78059Y-108443D01*
X-76789Y-108969D01*
Y-202500D01*
X-76634Y-203280D01*
X-76192Y-203942D01*
X-75530Y-204384D01*
X-74750Y-204539D01*
X6250D01*
X6250Y-204539D01*
X7030Y-204384D01*
X7692Y-203942D01*
X7692Y-203942D01*
X10692Y-200942D01*
X11134Y-200280D01*
X11289Y-199500D01*
Y-62631D01*
X12559Y-62319D01*
X12808Y-62692D01*
X13470Y-63134D01*
X14250Y-63289D01*
X47000D01*
X47780Y-63134D01*
X48442Y-62692D01*
X48442Y-62692D01*
X49942Y-61192D01*
X50270Y-60701D01*
X51250Y-60000D01*
X63250D01*
Y-57569D01*
X66250D01*
Y-60000D01*
X68681D01*
Y-61473D01*
X68953Y-62838D01*
X69727Y-63996D01*
X71484Y-65753D01*
X72642Y-66527D01*
X74007Y-66799D01*
X81181D01*
Y-74998D01*
X80511Y-75668D01*
X79750Y-77505D01*
Y-79495D01*
X80511Y-81332D01*
X81181Y-82002D01*
Y-88622D01*
X30477Y-139327D01*
X29703Y-140485D01*
X29431Y-141850D01*
Y-255100D01*
X29703Y-256466D01*
X30477Y-257624D01*
X72477Y-299624D01*
X73634Y-300397D01*
X75000Y-300669D01*
X105026D01*
X105298Y-301140D01*
X107160Y-303002D01*
X109440Y-304319D01*
X111983Y-305000D01*
X114616D01*
X117160Y-304319D01*
X119440Y-303002D01*
X121302Y-301140D01*
X122619Y-298860D01*
X123300Y-296317D01*
Y-293683D01*
X122619Y-291140D01*
X121302Y-288860D01*
X119440Y-286998D01*
X117160Y-285681D01*
X114616Y-285000D01*
X111983D01*
X109440Y-285681D01*
X107160Y-286998D01*
X105298Y-288860D01*
X103982Y-291140D01*
X103341Y-293532D01*
X76478D01*
X36569Y-253622D01*
Y-143328D01*
X87273Y-92624D01*
X88047Y-91466D01*
X88319Y-90100D01*
Y-82002D01*
X88989Y-81332D01*
X89750Y-79495D01*
Y-77505D01*
X88989Y-75668D01*
X88319Y-74998D01*
Y-64987D01*
X88047Y-63622D01*
X87273Y-62464D01*
X85516Y-60707D01*
X84358Y-59933D01*
X82993Y-59661D01*
X78250D01*
Y-48000D01*
X66250D01*
Y-50431D01*
X63250D01*
Y-48000D01*
X55819D01*
Y-38000D01*
X55547Y-36634D01*
X55495Y-36557D01*
Y-35300D01*
X55317Y-34403D01*
X54808Y-33642D01*
X54047Y-33133D01*
X53150Y-32955D01*
X51350D01*
X50453Y-33133D01*
X49692Y-33642D01*
X49184Y-34403D01*
X49005Y-35300D01*
Y-36557D01*
X48953Y-36634D01*
X48681Y-38000D01*
Y-42619D01*
X47662Y-43711D01*
X40070D01*
X39685Y-42441D01*
X39808Y-42358D01*
X40317Y-41597D01*
X40495Y-40700D01*
Y-35300D01*
X40317Y-34403D01*
X39808Y-33642D01*
X39047Y-33133D01*
X38150Y-32955D01*
X36350D01*
X35453Y-33133D01*
X35059Y-33396D01*
X33885Y-32920D01*
X33789Y-32834D01*
Y-32750D01*
X33634Y-31970D01*
X33192Y-31308D01*
X32530Y-30866D01*
X31750Y-30711D01*
X26068D01*
X25081Y-29441D01*
X25134Y-29176D01*
Y-28457D01*
X25550Y-27245D01*
X30950D01*
X31847Y-27067D01*
X32608Y-26558D01*
X33117Y-25797D01*
X33295Y-24900D01*
Y-23100D01*
X33117Y-22203D01*
X32647Y-21500D01*
X33117Y-20797D01*
X33295Y-19900D01*
Y-19541D01*
X34565Y-19015D01*
X35017Y-19467D01*
X36304Y-20000D01*
X37696D01*
X38983Y-19467D01*
X39967Y-18483D01*
X40500Y-17196D01*
Y-15804D01*
X39967Y-14517D01*
X38983Y-13533D01*
X37696Y-13000D01*
X36304D01*
X35017Y-13533D01*
X34565Y-13985D01*
X33295Y-13459D01*
Y-13100D01*
X33117Y-12203D01*
X32647Y-11500D01*
X33117Y-10797D01*
X33295Y-9900D01*
Y-8100D01*
X33117Y-7203D01*
X32647Y-6500D01*
X33117Y-5797D01*
X33295Y-4900D01*
Y-3100D01*
X33117Y-2203D01*
X32710Y-1594D01*
X32756Y-1525D01*
X32898Y-1383D01*
X32908Y-1368D01*
X32909Y-1368D01*
X32909Y-1367D01*
X32986Y-1182D01*
X33087Y-1030D01*
X33122Y-852D01*
X33128Y-839D01*
X33134Y-830D01*
X33136Y-818D01*
X33213Y-633D01*
Y-632D01*
X33213Y-632D01*
X33250Y-447D01*
Y-246D01*
X33289Y-49D01*
Y71D01*
X33295Y100D01*
Y446D01*
X34565Y831D01*
X34692Y642D01*
X35453Y133D01*
X36350Y-45D01*
X38150D01*
X39047Y133D01*
X39808Y642D01*
X40317Y1403D01*
X40495Y2300D01*
Y7700D01*
X40317Y8597D01*
X40309Y8609D01*
Y8988D01*
X41489Y10168D01*
X42250Y12005D01*
Y13995D01*
X41962Y14691D01*
X42810Y15961D01*
X48211D01*
Y1000D01*
X48250Y803D01*
Y602D01*
X48283Y435D01*
Y435D01*
X48360Y249D01*
X48366Y220D01*
X48383Y195D01*
X48588Y-301D01*
X49151Y-863D01*
X49645Y-1068D01*
X49670Y-1085D01*
X49700Y-1091D01*
X49886Y-1168D01*
X49886D01*
X50053Y-1201D01*
X50254D01*
X50451Y-1240D01*
X54334D01*
X54857Y-1753D01*
X55113Y-2133D01*
X55179Y-2469D01*
X55165Y-2489D01*
X55152Y-2555D01*
X55145Y-2576D01*
X55111Y-2637D01*
X55110Y-2639D01*
X55104Y-2690D01*
X55049Y-2843D01*
X55047Y-2857D01*
Y-2857D01*
X55045Y-2863D01*
X55047Y-2891D01*
X55038Y-2918D01*
X55025Y-3027D01*
X55034Y-3147D01*
X55010Y-3270D01*
Y-4910D01*
X55013Y-4924D01*
X55013Y-4924D01*
X55046Y-5094D01*
X55044Y-5279D01*
X55047Y-5294D01*
X55126Y-5494D01*
X55168Y-5705D01*
X55272Y-5860D01*
X55341Y-6033D01*
X55490Y-6187D01*
X55610Y-6366D01*
X55620Y-6376D01*
X55775Y-6479D01*
X55895Y-6604D01*
X56384Y-7203D01*
X56205Y-8100D01*
Y-9900D01*
X56384Y-10797D01*
X56853Y-11500D01*
X56384Y-12203D01*
X56205Y-13100D01*
Y-13459D01*
X54935Y-13985D01*
X54483Y-13533D01*
X53196Y-13000D01*
X51804D01*
X50517Y-13533D01*
X49533Y-14517D01*
X49000Y-15804D01*
Y-17196D01*
X49533Y-18483D01*
X50517Y-19467D01*
X51804Y-20000D01*
X53196D01*
X54483Y-19467D01*
X54935Y-19015D01*
X56205Y-19541D01*
Y-19900D01*
X56384Y-20797D01*
X56853Y-21500D01*
X56384Y-22203D01*
X56205Y-23100D01*
Y-24900D01*
X56384Y-25797D01*
X56853Y-26500D01*
X56384Y-27203D01*
X56205Y-28100D01*
Y-29900D01*
X56384Y-30797D01*
X56892Y-31558D01*
X57653Y-32067D01*
X58550Y-32245D01*
X63950D01*
X64847Y-32067D01*
X64859Y-32059D01*
X67248D01*
X68000Y-32811D01*
Y-33995D01*
X68761Y-35832D01*
X70168Y-37239D01*
X72005Y-38000D01*
X73995D01*
X75832Y-37239D01*
X77239Y-35832D01*
X78000Y-33995D01*
Y-32005D01*
X77239Y-30168D01*
X75832Y-28761D01*
X74026Y-28013D01*
X73821Y-27293D01*
X73835Y-26730D01*
X74684Y-26163D01*
X76538Y-24309D01*
X81250D01*
Y-27250D01*
X83644D01*
Y-29500D01*
X81750D01*
Y-42000D01*
X84143D01*
Y-43750D01*
X82000D01*
Y-56250D01*
X94500D01*
Y-43750D01*
X92107D01*
Y-42000D01*
X94250D01*
Y-29500D01*
X91607D01*
Y-27250D01*
X93250D01*
Y-15250D01*
X91231D01*
Y-13500D01*
X93250D01*
Y-1500D01*
X91482D01*
Y500D01*
X94000D01*
Y13000D01*
X81500D01*
Y500D01*
X83518D01*
Y-1500D01*
X81250D01*
Y-13500D01*
X83268D01*
Y-15250D01*
X81250D01*
Y-18191D01*
X75271D01*
X74100Y-18424D01*
X73108Y-19087D01*
X73108Y-19087D01*
X71254Y-20941D01*
X67383D01*
X66295Y-19900D01*
Y-18100D01*
X67383Y-17059D01*
X72750D01*
X72750Y-17059D01*
X73920Y-16826D01*
X74913Y-16163D01*
X78413Y-12663D01*
X79076Y-11671D01*
X79309Y-10500D01*
X79309Y-10500D01*
Y14983D01*
X80420Y16094D01*
X81250Y15750D01*
Y15750D01*
X93250D01*
Y27750D01*
X81250D01*
Y24509D01*
X80330Y24326D01*
X79337Y23663D01*
X79337Y23663D01*
X76307Y20633D01*
X75134Y21119D01*
Y28576D01*
X79577Y33019D01*
X80750Y32533D01*
Y31750D01*
X93250D01*
Y44250D01*
X80750D01*
Y41707D01*
X79982Y40809D01*
X78811Y40576D01*
X77819Y39913D01*
X77819Y39913D01*
X72463Y34556D01*
X71289Y35042D01*
Y116461D01*
X86500D01*
X87280Y116616D01*
X87942Y117058D01*
X88384Y117720D01*
X88539Y118500D01*
Y329049D01*
X88500Y329246D01*
Y329447D01*
X88467Y329615D01*
Y329615D01*
X88390Y329800D01*
X88384Y329829D01*
X88367Y329855D01*
X88162Y330350D01*
X87599Y330912D01*
X87105Y331117D01*
X87080Y331134D01*
X87050Y331140D01*
X86864Y331217D01*
X86864D01*
X86697Y331250D01*
X86496D01*
X86299Y331289D01*
D02*
G37*
G36*
X-317250Y129056D02*
X-318947Y128833D01*
X-319146Y128750D01*
X-323500D01*
Y125819D01*
X-327500D01*
Y128250D01*
X-339500D01*
Y116250D01*
X-327500D01*
Y118681D01*
X-323500D01*
Y116250D01*
X-320000D01*
X-319197Y115917D01*
X-317500Y115694D01*
X-315803Y115917D01*
X-315000Y116250D01*
X-311000D01*
Y120604D01*
X-310917Y120803D01*
X-310694Y122500D01*
X-310917Y124197D01*
X-311000Y124396D01*
Y128750D01*
X-315354D01*
X-315553Y128833D01*
X-317250Y129056D01*
D02*
G37*
G36*
X-404000Y113500D02*
X-443000D01*
Y81500D01*
X-404000D01*
Y113500D01*
D02*
G37*
G36*
X-420000Y73977D02*
X-427000D01*
X-430136Y73668D01*
X-433153Y72754D01*
X-435932Y71268D01*
X-438368Y69268D01*
X-440368Y66832D01*
X-441854Y64053D01*
X-442769Y61037D01*
X-443077Y57900D01*
X-442769Y54763D01*
X-441854Y51747D01*
X-440368Y48968D01*
X-438368Y46532D01*
X-435932Y44532D01*
X-433153Y43046D01*
X-430136Y42132D01*
X-427000Y41823D01*
X-420000D01*
X-416864Y42132D01*
X-413847Y43046D01*
X-411068Y44532D01*
X-408632Y46532D01*
X-406632Y48968D01*
X-405146Y51747D01*
X-404231Y54763D01*
X-403923Y57900D01*
X-404231Y61037D01*
X-405146Y64053D01*
X-406632Y66832D01*
X-408632Y69268D01*
X-411068Y71268D01*
X-413847Y72754D01*
X-416864Y73668D01*
X-420000Y73977D01*
D02*
G37*
G36*
X109500Y13000D02*
X97000D01*
Y500D01*
X109500D01*
Y3316D01*
X130000D01*
Y0D01*
X142000D01*
Y12000D01*
X130000D01*
Y9434D01*
X109500D01*
Y13000D01*
D02*
G37*
G36*
X45446Y-250D02*
X44054D01*
X42767Y-783D01*
X41783Y-1767D01*
X41250Y-3054D01*
Y-4446D01*
X41783Y-5733D01*
X42767Y-6717D01*
X44054Y-7250D01*
X45446D01*
X46733Y-6717D01*
X47717Y-5733D01*
X48250Y-4446D01*
Y-3054D01*
X47717Y-1767D01*
X46733Y-783D01*
X45446Y-250D01*
D02*
G37*
G36*
X446070Y330039D02*
X157000D01*
X156220Y329884D01*
X155558Y329442D01*
X155116Y328780D01*
X154961Y328000D01*
Y37250D01*
Y33574D01*
Y-8006D01*
X153691Y-8259D01*
X153239Y-7168D01*
X151832Y-5761D01*
X149995Y-5000D01*
X148005D01*
X146168Y-5761D01*
X144988Y-6941D01*
X142000D01*
Y-4000D01*
X130000D01*
Y-16000D01*
X142000D01*
Y-13059D01*
X144988D01*
X145941Y-14012D01*
Y-26983D01*
X143963Y-28961D01*
X142500D01*
Y-19250D01*
X130000D01*
Y-20515D01*
X128827Y-21001D01*
X113163Y-5337D01*
X112170Y-4674D01*
X111000Y-4441D01*
X111000Y-4441D01*
X109250D01*
Y-1500D01*
X97250D01*
Y-13500D01*
X109250D01*
Y-11872D01*
X110520Y-11346D01*
X126837Y-27663D01*
X126837Y-27663D01*
X126880Y-27691D01*
X126494Y-28961D01*
X124287D01*
X114413Y-19087D01*
X113421Y-18424D01*
X112250Y-18191D01*
X112250Y-18191D01*
X109250D01*
Y-15250D01*
X97250D01*
Y-26646D01*
X97250Y-27250D01*
X96656Y-28274D01*
X96605Y-28308D01*
X96605Y-28308D01*
X96499Y-28467D01*
X96362Y-28601D01*
X96362Y-28602D01*
X96358Y-28610D01*
X96352Y-28616D01*
X96275Y-28803D01*
X96163Y-28970D01*
X96128Y-29148D01*
X96128Y-29149D01*
X96123Y-29161D01*
X96122Y-29162D01*
X96116Y-29171D01*
X96113Y-29188D01*
X96051Y-29334D01*
X96051Y-29343D01*
X96047Y-29351D01*
X96013Y-29521D01*
X96000Y-29552D01*
X96000Y-29753D01*
X95961Y-29951D01*
Y-43299D01*
X95985Y-43423D01*
X95985Y-43424D01*
X96000Y-43496D01*
X96000Y-43697D01*
X96025Y-43821D01*
X96043Y-43865D01*
Y-43866D01*
X96077Y-44038D01*
Y-44038D01*
X96077Y-44038D01*
X96077Y-44039D01*
X96136Y-44180D01*
X96141Y-44204D01*
X96159Y-44248D01*
X96163Y-44254D01*
X96198Y-44427D01*
X96305Y-44587D01*
X96382Y-44773D01*
X96386Y-44779D01*
X96528Y-44921D01*
X96640Y-45089D01*
X96640Y-45089D01*
X96667Y-45107D01*
X96667Y-45107D01*
X96807Y-45200D01*
X96948Y-45342D01*
X96975Y-45360D01*
X97076Y-45402D01*
X97119Y-45440D01*
X97217Y-45474D01*
X97301Y-45531D01*
X97302Y-45531D01*
X97329Y-45549D01*
X97377Y-45569D01*
X97507Y-45623D01*
X97507Y-45623D01*
X97524Y-45634D01*
X97685Y-45666D01*
X97697Y-45672D01*
X97716Y-45672D01*
X97721Y-45673D01*
X97907Y-45750D01*
X98107D01*
X98304Y-45789D01*
X107961D01*
Y-48549D01*
X107975Y-48621D01*
X107966Y-48694D01*
X108000Y-48818D01*
X108000Y-48946D01*
X108077Y-49132D01*
X108116Y-49330D01*
X108133Y-49355D01*
X108133Y-49355D01*
X108175Y-49456D01*
X108176Y-49461D01*
X108178Y-49463D01*
X108179Y-49467D01*
X108274Y-49609D01*
X108304Y-49682D01*
X108321Y-49707D01*
X108377Y-49762D01*
X108621Y-50129D01*
X108987Y-50373D01*
X109043Y-50429D01*
X109068Y-50445D01*
X109097Y-50458D01*
X109121Y-50480D01*
X109181Y-50503D01*
X109283Y-50571D01*
X109395Y-50617D01*
X109395Y-50617D01*
X109420Y-50634D01*
X109617Y-50673D01*
X109803Y-50750D01*
X109835D01*
X109866Y-50761D01*
X109866Y-50761D01*
X110035Y-50756D01*
X110201Y-50789D01*
X202461D01*
Y-71655D01*
X196155Y-77961D01*
X113951D01*
X113754Y-78000D01*
X113554Y-78000D01*
X113507Y-78019D01*
X113456Y-78022D01*
X113319Y-78087D01*
X113170Y-78116D01*
X113161Y-78123D01*
X112839Y-78256D01*
X112828Y-78258D01*
X112661Y-78369D01*
X112476Y-78446D01*
X112334Y-78588D01*
X112166Y-78700D01*
X112166D01*
X112166Y-78700D01*
X111616Y-79250D01*
X111250D01*
Y-79616D01*
X111250Y-79616D01*
X93059Y-97808D01*
X93059Y-97808D01*
X83963Y-106903D01*
X83963Y-106903D01*
X56676Y-134190D01*
X56676Y-134191D01*
X55842Y-135024D01*
X55842D01*
X55842Y-135024D01*
X55700Y-135166D01*
X55589Y-135332D01*
X55447Y-135474D01*
X55370Y-135660D01*
X55258Y-135828D01*
X55256Y-135839D01*
X55122Y-136161D01*
X55116Y-136171D01*
X55086Y-136319D01*
X55022Y-136456D01*
X55022Y-136456D01*
X55019Y-136507D01*
X55000Y-136554D01*
X55000Y-136754D01*
X54961Y-136951D01*
Y-261299D01*
X54975Y-261371D01*
X54966Y-261444D01*
X55000Y-261568D01*
X55000Y-261696D01*
X55077Y-261882D01*
X55116Y-262080D01*
X55133Y-262104D01*
X55133Y-262105D01*
X55175Y-262206D01*
X55176Y-262211D01*
X55178Y-262213D01*
X55179Y-262217D01*
X55274Y-262359D01*
X55304Y-262432D01*
X55321Y-262456D01*
X55377Y-262512D01*
X55621Y-262879D01*
X55987Y-263123D01*
X56042Y-263179D01*
X56068Y-263195D01*
X56097Y-263208D01*
X56121Y-263230D01*
X56181Y-263253D01*
X56283Y-263321D01*
X56395Y-263367D01*
X56395Y-263367D01*
X56420Y-263384D01*
X56617Y-263423D01*
X56803Y-263500D01*
X56835D01*
X56865Y-263511D01*
X56866Y-263512D01*
X57035Y-263506D01*
X57201Y-263539D01*
X140250D01*
Y-284821D01*
X140016Y-285000D01*
X137383D01*
X134840Y-285681D01*
X132560Y-286998D01*
X130698Y-288860D01*
X129382Y-291140D01*
X128700Y-293683D01*
Y-296317D01*
X129382Y-298860D01*
X130698Y-301140D01*
X132560Y-303002D01*
X134840Y-304319D01*
X137383Y-305000D01*
X140016D01*
X142560Y-304319D01*
X143111Y-304000D01*
X159689D01*
X160240Y-304319D01*
X162784Y-305000D01*
X165417D01*
X167960Y-304319D01*
X168512Y-304000D01*
X185089D01*
X185640Y-304319D01*
X188183Y-305000D01*
X190816D01*
X193360Y-304319D01*
X193911Y-304000D01*
X204900D01*
Y-305000D01*
X224900D01*
Y-304000D01*
X267917D01*
X269783Y-304500D01*
X272416D01*
X274282Y-304000D01*
X293318D01*
X295184Y-304500D01*
X297817D01*
X299682Y-304000D01*
X318717D01*
X320583Y-304500D01*
X323217D01*
X325082Y-304000D01*
X344118D01*
X345984Y-304500D01*
X348616D01*
X350482Y-304000D01*
X362700D01*
Y-304500D01*
X382700D01*
Y-304000D01*
X423297D01*
X423665Y-306322D01*
X424978Y-310364D01*
X426908Y-314151D01*
X429406Y-317589D01*
X432411Y-320594D01*
X435849Y-323092D01*
X439636Y-325022D01*
X443677Y-326335D01*
X447875Y-327000D01*
X452125D01*
X456323Y-326335D01*
X460364Y-325022D01*
X464151Y-323092D01*
X467589Y-320594D01*
X470594Y-317589D01*
X473092Y-314151D01*
X475022Y-310364D01*
X476335Y-306322D01*
X477000Y-302125D01*
Y-297875D01*
X476335Y-293678D01*
X475022Y-289636D01*
X474500Y-288611D01*
Y-114204D01*
X404539D01*
Y-77095D01*
X404539Y-77094D01*
X452046Y-29588D01*
X475800Y-5834D01*
X475911Y-5667D01*
X476053Y-5525D01*
X476103Y-5406D01*
X476182Y-5304D01*
X476201Y-5233D01*
X476242Y-5172D01*
X476244Y-5161D01*
X476377Y-4839D01*
X476377Y-4839D01*
X476384Y-4830D01*
X476413Y-4681D01*
X476478Y-4544D01*
X476478Y-4544D01*
X476481Y-4494D01*
X476500Y-4448D01*
X476500Y-4247D01*
X476539Y-4049D01*
Y9221D01*
X476534Y9246D01*
Y9419D01*
X476500Y9590D01*
Y9618D01*
X476495Y9643D01*
X476490Y9657D01*
X476484Y9867D01*
X476413Y10027D01*
X476379Y10199D01*
X476253Y10387D01*
X476161Y10595D01*
X476034Y10715D01*
X475937Y10861D01*
X475762Y10977D01*
X475754Y10989D01*
X475735Y11006D01*
X475712Y11021D01*
X475584Y11143D01*
X475438Y11235D01*
X475419Y11253D01*
X474523Y11819D01*
X474505Y11837D01*
X474190Y12035D01*
X474112Y12087D01*
X474390Y12568D01*
X475040Y14994D01*
Y17506D01*
X474390Y19932D01*
X474113Y20413D01*
X474190Y20465D01*
X474505Y20663D01*
X474523Y20681D01*
X475419Y21247D01*
X475438Y21265D01*
X475584Y21357D01*
X475712Y21479D01*
X475736Y21494D01*
X475754Y21511D01*
X475762Y21523D01*
X475937Y21639D01*
X476034Y21785D01*
X476161Y21905D01*
X476253Y22112D01*
X476379Y22301D01*
X476413Y22473D01*
X476484Y22633D01*
X476489Y22843D01*
X476495Y22856D01*
X476500Y22881D01*
Y22909D01*
X476534Y23081D01*
Y23254D01*
X476539Y23279D01*
Y66799D01*
X476500Y66996D01*
X476500Y67197D01*
X476460Y67398D01*
X476383Y67583D01*
X476344Y67780D01*
X476289Y67862D01*
Y120021D01*
X476245Y120244D01*
X476239Y120472D01*
X476168Y120631D01*
X476134Y120801D01*
X476007Y120990D01*
X475915Y121198D01*
X475789Y121318D01*
X475692Y121463D01*
X475503Y121589D01*
X475337Y121746D01*
X474959Y122074D01*
X474592Y122943D01*
X474591Y123320D01*
X475040Y124994D01*
Y127506D01*
X474591Y129180D01*
X474592Y129557D01*
X474959Y130426D01*
X475337Y130754D01*
X475503Y130911D01*
X475692Y131037D01*
X475789Y131182D01*
X475915Y131302D01*
X476007Y131510D01*
X476134Y131699D01*
X476168Y131869D01*
X476239Y132028D01*
X476245Y132256D01*
X476289Y132479D01*
Y285571D01*
X476258Y285729D01*
X476264Y285890D01*
X476181Y286115D01*
X476134Y286351D01*
X476045Y286485D01*
X475989Y286637D01*
X475826Y286813D01*
X475692Y287013D01*
X475558Y287103D01*
X475449Y287221D01*
X475261Y287307D01*
X475209Y287336D01*
X475030Y287455D01*
X474705Y288160D01*
X474675Y288284D01*
X474633Y288873D01*
X475022Y289636D01*
X476335Y293678D01*
X477000Y297875D01*
Y302125D01*
X476335Y306322D01*
X475022Y310364D01*
X473092Y314151D01*
X470594Y317589D01*
X467589Y320594D01*
X464151Y323092D01*
X460364Y325022D01*
X456323Y326335D01*
X452125Y327000D01*
X448195D01*
X448103Y328160D01*
X448017Y328467D01*
X447954Y328780D01*
X447909Y328848D01*
X447887Y328926D01*
X447690Y329176D01*
X447512Y329442D01*
X447445Y329487D01*
X447395Y329551D01*
X447116Y329707D01*
X446851Y329884D01*
X446771Y329900D01*
X446701Y329939D01*
X446383Y329977D01*
X446070Y330039D01*
D02*
G37*
G36*
X45446Y-25750D02*
X44054D01*
X42767Y-26283D01*
X41783Y-27267D01*
X41250Y-28554D01*
Y-29946D01*
X41783Y-31233D01*
X42767Y-32217D01*
X44054Y-32750D01*
X45446D01*
X46733Y-32217D01*
X47717Y-31233D01*
X48250Y-29946D01*
Y-28554D01*
X47717Y-27267D01*
X46733Y-26283D01*
X45446Y-25750D01*
D02*
G37*
G36*
X-404000Y-15000D02*
X-443000D01*
Y-47000D01*
X-404000D01*
Y-15000D01*
D02*
G37*
G36*
X-420000Y-54523D02*
X-427000D01*
X-430136Y-54832D01*
X-433153Y-55746D01*
X-435932Y-57232D01*
X-438368Y-59232D01*
X-440368Y-61668D01*
X-441854Y-64447D01*
X-442769Y-67463D01*
X-443077Y-70600D01*
X-442769Y-73737D01*
X-441854Y-76753D01*
X-440368Y-79532D01*
X-438368Y-81968D01*
X-435932Y-83968D01*
X-433153Y-85454D01*
X-430136Y-86369D01*
X-427000Y-86677D01*
X-420000D01*
X-416864Y-86369D01*
X-413847Y-85454D01*
X-411068Y-83968D01*
X-408632Y-81968D01*
X-406632Y-79532D01*
X-405146Y-76753D01*
X-404231Y-73737D01*
X-403923Y-70600D01*
X-404231Y-67463D01*
X-405146Y-64447D01*
X-406632Y-61668D01*
X-408632Y-59232D01*
X-411068Y-57232D01*
X-413847Y-55746D01*
X-416864Y-54832D01*
X-420000Y-54523D01*
D02*
G37*
G36*
X449000Y-57518D02*
X434000D01*
X430667Y-57846D01*
X427463Y-58818D01*
X424510Y-60397D01*
X421921Y-62521D01*
X419797Y-65110D01*
X418218Y-68063D01*
X417246Y-71267D01*
X416918Y-74600D01*
X417246Y-77933D01*
X418218Y-81137D01*
X419797Y-84090D01*
X421921Y-86679D01*
X424510Y-88803D01*
X427463Y-90382D01*
X430667Y-91354D01*
X434000Y-91682D01*
X449000D01*
X452333Y-91354D01*
X455537Y-90382D01*
X458490Y-88803D01*
X461079Y-86679D01*
X463203Y-84090D01*
X464782Y-81137D01*
X465754Y-77933D01*
X466082Y-74600D01*
X465754Y-71267D01*
X464782Y-68063D01*
X463203Y-65110D01*
X461079Y-62521D01*
X458490Y-60397D01*
X455537Y-58818D01*
X452333Y-57846D01*
X449000Y-57518D01*
D02*
G37*
G36*
X-404000Y-143500D02*
X-443000D01*
Y-175500D01*
X-404000D01*
Y-143500D01*
D02*
G37*
G36*
X-420000Y-183023D02*
X-427000D01*
X-430136Y-183332D01*
X-433153Y-184246D01*
X-435932Y-185732D01*
X-438368Y-187731D01*
X-440368Y-190168D01*
X-441854Y-192947D01*
X-442769Y-195963D01*
X-443077Y-199100D01*
X-442769Y-202236D01*
X-441854Y-205252D01*
X-440368Y-208032D01*
X-438368Y-210468D01*
X-435932Y-212468D01*
X-433153Y-213954D01*
X-430136Y-214869D01*
X-427000Y-215177D01*
X-420000D01*
X-416864Y-214869D01*
X-413847Y-213954D01*
X-411068Y-212468D01*
X-408632Y-210468D01*
X-406632Y-208032D01*
X-405146Y-205252D01*
X-404231Y-202236D01*
X-403923Y-199100D01*
X-404231Y-195963D01*
X-405146Y-192947D01*
X-406632Y-190168D01*
X-408632Y-187731D01*
X-411068Y-185732D01*
X-413847Y-184246D01*
X-416864Y-183332D01*
X-420000Y-183023D01*
D02*
G37*
G36*
X-241850Y-286750D02*
X-273850D01*
Y-325750D01*
X-241850D01*
Y-286750D01*
D02*
G37*
G36*
X-218250Y-286673D02*
X-221387Y-286982D01*
X-224403Y-287896D01*
X-227182Y-289382D01*
X-229618Y-291382D01*
X-231618Y-293818D01*
X-233104Y-296597D01*
X-234018Y-299613D01*
X-234327Y-302750D01*
Y-309750D01*
X-234018Y-312887D01*
X-233104Y-315903D01*
X-231618Y-318682D01*
X-229618Y-321119D01*
X-227182Y-323118D01*
X-224403Y-324604D01*
X-221387Y-325518D01*
X-218250Y-325827D01*
X-215114Y-325518D01*
X-212097Y-324604D01*
X-209318Y-323118D01*
X-206882Y-321119D01*
X-204882Y-318682D01*
X-203396Y-315903D01*
X-202481Y-312887D01*
X-202173Y-309750D01*
Y-302750D01*
X-202481Y-299613D01*
X-203396Y-296597D01*
X-204882Y-293818D01*
X-206882Y-291382D01*
X-209318Y-289382D01*
X-212097Y-287896D01*
X-215114Y-286982D01*
X-218250Y-286673D01*
D02*
G37*
G36*
X-116350Y-287000D02*
X-148350D01*
Y-326000D01*
X-116350D01*
Y-287000D01*
D02*
G37*
G36*
X-92750Y-286923D02*
X-95886Y-287232D01*
X-98903Y-288146D01*
X-101682Y-289632D01*
X-104118Y-291632D01*
X-106118Y-294068D01*
X-107604Y-296847D01*
X-108518Y-299863D01*
X-108827Y-303000D01*
Y-310000D01*
X-108518Y-313137D01*
X-107604Y-316153D01*
X-106118Y-318932D01*
X-104118Y-321368D01*
X-101682Y-323368D01*
X-98903Y-324854D01*
X-95886Y-325769D01*
X-92750Y-326077D01*
X-89614Y-325769D01*
X-86597Y-324854D01*
X-83818Y-323368D01*
X-81382Y-321368D01*
X-79382Y-318932D01*
X-77896Y-316153D01*
X-76982Y-313137D01*
X-76673Y-310000D01*
Y-303000D01*
X-76982Y-299863D01*
X-77896Y-296847D01*
X-79382Y-294068D01*
X-81382Y-291632D01*
X-83818Y-289632D01*
X-86597Y-288146D01*
X-89614Y-287232D01*
X-92750Y-286923D01*
D02*
G37*
G36*
X-447875Y-273000D02*
X-452125D01*
X-456323Y-273665D01*
X-460364Y-274978D01*
X-464151Y-276908D01*
X-467589Y-279406D01*
X-470594Y-282411D01*
X-473092Y-285849D01*
X-475022Y-289636D01*
X-476335Y-293678D01*
X-477000Y-297875D01*
Y-302125D01*
X-476335Y-306322D01*
X-475022Y-310364D01*
X-473092Y-314151D01*
X-470594Y-317589D01*
X-467589Y-320594D01*
X-464151Y-323092D01*
X-460364Y-325022D01*
X-456323Y-326335D01*
X-452125Y-327000D01*
X-447875D01*
X-443677Y-326335D01*
X-439636Y-325022D01*
X-435849Y-323092D01*
X-432411Y-320594D01*
X-429406Y-317589D01*
X-426908Y-314151D01*
X-424978Y-310364D01*
X-423665Y-306322D01*
X-423000Y-302125D01*
Y-297875D01*
X-423665Y-293678D01*
X-424978Y-289636D01*
X-426908Y-285849D01*
X-429406Y-282411D01*
X-432411Y-279406D01*
X-435849Y-276908D01*
X-439636Y-274978D01*
X-443677Y-273665D01*
X-447875Y-273000D01*
D02*
G37*
G36*
X-396483Y-311500D02*
X-399117D01*
X-401660Y-312181D01*
X-403940Y-313498D01*
X-405802Y-315360D01*
X-407118Y-317640D01*
X-407800Y-320183D01*
Y-322817D01*
X-407118Y-325360D01*
X-405802Y-327640D01*
X-403940Y-329502D01*
X-401660Y-330818D01*
X-399117Y-331500D01*
X-396483D01*
X-393940Y-330818D01*
X-391660Y-329502D01*
X-389798Y-327640D01*
X-388481Y-325360D01*
X-387800Y-322817D01*
Y-320183D01*
X-388481Y-317640D01*
X-389798Y-315360D01*
X-391660Y-313498D01*
X-393940Y-312181D01*
X-396483Y-311500D01*
D02*
G37*
G36*
X-286200Y-311500D02*
X-306200D01*
Y-331500D01*
X-286200D01*
Y-311500D01*
D02*
G37*
G36*
X-320283D02*
X-322916D01*
X-325460Y-312181D01*
X-327740Y-313498D01*
X-329602Y-315360D01*
X-330919Y-317640D01*
X-331600Y-320183D01*
Y-322817D01*
X-330919Y-325360D01*
X-329602Y-327640D01*
X-327740Y-329502D01*
X-325460Y-330818D01*
X-322916Y-331500D01*
X-320283D01*
X-317740Y-330818D01*
X-315460Y-329502D01*
X-313598Y-327640D01*
X-312281Y-325360D01*
X-311600Y-322817D01*
Y-320183D01*
X-312281Y-317640D01*
X-313598Y-315360D01*
X-315460Y-313498D01*
X-317740Y-312181D01*
X-320283Y-311500D01*
D02*
G37*
G36*
X-345683D02*
X-348316D01*
X-350860Y-312181D01*
X-353140Y-313498D01*
X-355002Y-315360D01*
X-356319Y-317640D01*
X-357000Y-320183D01*
Y-322817D01*
X-356319Y-325360D01*
X-355002Y-327640D01*
X-353140Y-329502D01*
X-350860Y-330818D01*
X-348316Y-331500D01*
X-345683D01*
X-343140Y-330818D01*
X-340860Y-329502D01*
X-338998Y-327640D01*
X-337682Y-325360D01*
X-337000Y-322817D01*
Y-320183D01*
X-337682Y-317640D01*
X-338998Y-315360D01*
X-340860Y-313498D01*
X-343140Y-312181D01*
X-345683Y-311500D01*
D02*
G37*
G36*
X-371083D02*
X-373717D01*
X-376260Y-312181D01*
X-378540Y-313498D01*
X-380402Y-315360D01*
X-381718Y-317640D01*
X-382400Y-320183D01*
Y-322817D01*
X-381718Y-325360D01*
X-380402Y-327640D01*
X-378540Y-329502D01*
X-376260Y-330818D01*
X-373717Y-331500D01*
X-371083D01*
X-368540Y-330818D01*
X-366260Y-329502D01*
X-364398Y-327640D01*
X-363082Y-325360D01*
X-362400Y-322817D01*
Y-320183D01*
X-363082Y-317640D01*
X-364398Y-315360D01*
X-366260Y-313498D01*
X-368540Y-312181D01*
X-371083Y-311500D01*
D02*
G37*
%LPD*%
G36*
X-174000Y317000D02*
Y236000D01*
X-221500D01*
X-225250Y232250D01*
Y181500D01*
X-259750D01*
X-263000Y178250D01*
Y148000D01*
X-273000D01*
Y150500D01*
X-287000D01*
Y142500D01*
X-275000D01*
Y135250D01*
X-295000D01*
Y214068D01*
X-230679Y317250D01*
X-174250D01*
X-174000Y317000D01*
D02*
G37*
G36*
X23211Y79961D02*
Y26637D01*
X22000Y26495D01*
X21239Y28332D01*
X19832Y29739D01*
X17995Y30500D01*
X16005D01*
X14168Y29739D01*
X13020Y28591D01*
X11750Y28637D01*
Y32500D01*
X59D01*
X-250Y32500D01*
X-1211Y33246D01*
Y78500D01*
X-1366Y79280D01*
X-1808Y79942D01*
X-2470Y80384D01*
X-3250Y80539D01*
X-31750D01*
X-32137Y80462D01*
X-32191Y80452D01*
X-33173Y81010D01*
X-33461Y81290D01*
Y116461D01*
X23211D01*
Y79961D01*
D02*
G37*
G36*
X-3250Y5000D02*
X-31089D01*
X-31986Y5900D01*
X-31750Y78500D01*
X-3250D01*
Y5000D01*
D02*
G37*
G36*
X13500Y1250D02*
Y-13000D01*
X31000D01*
Y-15500D01*
X16250D01*
X9250Y-22500D01*
Y-199500D01*
X6250Y-202500D01*
X-74750D01*
Y-37750D01*
X-63039Y-26039D01*
X-41500D01*
X-41500Y-26039D01*
X-40720Y-25884D01*
X-40058Y-25442D01*
X-40058Y-25442D01*
X-34058Y-19442D01*
X-33616Y-18780D01*
X-33461Y-18000D01*
Y3000D01*
X-31288D01*
X-31093Y2961D01*
X-31091Y2961D01*
X-31089Y2961D01*
X-3250D01*
X-3053Y3000D01*
X11750D01*
X13500Y1250D01*
D02*
G37*
G36*
X86467Y329217D02*
X86500Y329049D01*
Y118500D01*
X69250D01*
Y31015D01*
X69249Y31014D01*
X69016Y29843D01*
X69016Y29843D01*
Y-2908D01*
X65983Y-5941D01*
X64859D01*
X64847Y-5933D01*
X63950Y-5755D01*
X58550D01*
X58142Y-5836D01*
X57927Y-5621D01*
X57659Y-5346D01*
X57062Y-4934D01*
X57052Y-4924D01*
X57049Y-4910D01*
Y-3270D01*
X57050Y-3267D01*
X57063Y-3158D01*
X57065Y-3155D01*
X57067Y-3141D01*
X57253Y-2799D01*
X58017Y-2319D01*
X58250Y-2239D01*
X58415Y-2219D01*
X58420Y-2219D01*
X58550Y-2245D01*
X63950D01*
X64847Y-2067D01*
X65608Y-1558D01*
X66116Y-797D01*
X66295Y100D01*
Y1900D01*
X66116Y2797D01*
X65608Y3558D01*
X64847Y4067D01*
X63950Y4245D01*
X58550D01*
X57653Y4067D01*
X56892Y3558D01*
X56384Y2797D01*
X56205Y1900D01*
Y1523D01*
X55320Y871D01*
X54935Y815D01*
X54750Y1000D01*
X54539Y789D01*
X54488Y799D01*
X50451D01*
X50283Y833D01*
X50250Y1000D01*
Y18000D01*
X31250D01*
Y-49D01*
X31213Y-235D01*
X31203Y-250D01*
X25991D01*
X25250Y491D01*
Y26637D01*
Y79961D01*
Y118500D01*
X-35500D01*
Y3000D01*
Y-17799D01*
X-35537Y-17985D01*
X-35642Y-18142D01*
X-41358Y-23858D01*
X-41515Y-23963D01*
X-41701Y-24000D01*
X-63039D01*
X-63039Y-24000D01*
X-63039Y-24000D01*
X-78799D01*
X-79000Y-23960D01*
Y-23900D01*
X-103000D01*
Y-23960D01*
X-103201Y-24000D01*
X-130549D01*
X-130717Y-23967D01*
X-130750Y-23799D01*
Y76328D01*
Y77000D01*
X-130123Y78127D01*
X-129892Y78358D01*
X-129735Y78463D01*
X-129549Y78500D01*
X-75250D01*
Y200000D01*
X-129750D01*
Y135500D01*
X-130709Y134750D01*
X-154755D01*
X-155437Y135809D01*
X-154974Y136455D01*
X-154261Y137168D01*
X-153500Y139005D01*
Y140995D01*
X-154261Y142832D01*
X-155349Y143920D01*
X-155626Y144452D01*
X-155419Y145510D01*
X-154511Y146418D01*
X-153750Y148255D01*
Y150245D01*
X-154511Y152082D01*
X-155224Y152795D01*
X-155820Y153625D01*
X-155224Y154455D01*
X-154511Y155168D01*
X-153750Y157005D01*
Y158995D01*
X-154511Y160832D01*
X-155918Y162239D01*
X-157755Y163000D01*
X-159745D01*
X-161582Y162239D01*
X-162989Y160832D01*
X-163750Y158995D01*
Y157005D01*
X-162989Y155168D01*
X-162276Y154455D01*
X-161680Y153625D01*
X-162276Y152795D01*
X-162989Y152082D01*
X-163750Y150245D01*
Y148255D01*
X-162989Y146418D01*
X-161901Y145330D01*
X-161624Y144798D01*
X-161831Y143740D01*
X-162739Y142832D01*
X-163500Y140995D01*
Y139005D01*
X-162739Y137168D01*
X-162026Y136455D01*
X-161562Y135809D01*
X-162245Y134750D01*
X-245000D01*
Y142250D01*
X-215500D01*
Y173250D01*
Y176000D01*
X-151250D01*
Y225396D01*
X-151000Y225500D01*
X-4750D01*
Y329049D01*
X-4717Y329217D01*
X-4549Y329250D01*
X86299D01*
X86467Y329217D01*
D02*
G37*
G36*
X31750Y-43000D02*
X34500Y-45750D01*
X47662D01*
Y-49571D01*
X48011Y-51327D01*
X48500Y-52059D01*
Y-59750D01*
X47000Y-61250D01*
X14250D01*
Y-44000D01*
X15000Y-43250D01*
X22000D01*
Y-34000D01*
X23250Y-32750D01*
X31750D01*
Y-43000D01*
D02*
G37*
G36*
X-79000Y-71500D02*
Y-106500D01*
X-79750Y-107250D01*
X-120500D01*
X-120739Y-88154D01*
X-119846Y-87250D01*
X-101250D01*
X-101000Y-87000D01*
Y-70750D01*
X-79750D01*
X-79000Y-71500D01*
D02*
G37*
%LPC*%
G36*
X66000Y322319D02*
X63912Y322044D01*
X61965Y321238D01*
X60294Y319956D01*
X59012Y318284D01*
X58206Y316338D01*
X57931Y314250D01*
Y302250D01*
X58206Y300162D01*
X59012Y298216D01*
X60294Y296544D01*
X61965Y295262D01*
X63912Y294456D01*
X66000Y294181D01*
X68088Y294456D01*
X70034Y295262D01*
X71706Y296544D01*
X72988Y298216D01*
X73794Y300162D01*
X74069Y302250D01*
Y314250D01*
X73794Y316338D01*
X72988Y318284D01*
X71706Y319956D01*
X70034Y321238D01*
X68088Y322044D01*
X66000Y322319D01*
D02*
G37*
%LPD*%
G36*
X446170Y326730D02*
X443677Y326335D01*
X439636Y325022D01*
X435849Y323092D01*
X432411Y320594D01*
X429406Y317589D01*
X426908Y314151D01*
X424978Y310364D01*
X423665Y306322D01*
X423000Y302125D01*
Y297875D01*
X423665Y293678D01*
X424978Y289636D01*
X426908Y285849D01*
X429406Y282411D01*
X432411Y279406D01*
X435849Y276908D01*
X439636Y274978D01*
X443677Y273665D01*
X447875Y273000D01*
X452125D01*
X456323Y273665D01*
X460364Y274978D01*
X464151Y276908D01*
X467589Y279406D01*
X470594Y282411D01*
X472980Y285694D01*
X473885Y285659D01*
X474250Y285571D01*
Y132479D01*
X472980Y132262D01*
X471358Y133884D01*
X469182Y135140D01*
X466756Y135790D01*
X464244D01*
X461818Y135140D01*
X459642Y133884D01*
X457866Y132108D01*
X456610Y129932D01*
X455960Y127506D01*
Y124994D01*
X456610Y122568D01*
X457866Y120392D01*
X459642Y118616D01*
X461818Y117360D01*
X464244Y116710D01*
X466756D01*
X469182Y117360D01*
X471358Y118616D01*
X472980Y120238D01*
X474250Y120021D01*
Y67000D01*
X474460D01*
X474475Y66926D01*
X474500Y66799D01*
Y66598D01*
Y23279D01*
X474495Y23254D01*
Y23081D01*
X474349Y22989D01*
X474330Y22971D01*
X473264Y22298D01*
X473100Y22142D01*
X471358Y23884D01*
X469182Y25140D01*
X466756Y25790D01*
X464244D01*
X461818Y25140D01*
X459642Y23884D01*
X457866Y22108D01*
X456610Y19932D01*
X455960Y17506D01*
Y14994D01*
X456610Y12568D01*
X457866Y10392D01*
X459642Y8616D01*
X461818Y7360D01*
X464244Y6710D01*
X466756D01*
X469182Y7360D01*
X471358Y8616D01*
X473100Y10358D01*
X473264Y10202D01*
X474330Y9529D01*
X474349Y9511D01*
X474495Y9419D01*
Y9246D01*
X474500Y9221D01*
Y-3848D01*
Y-4049D01*
X474500Y-4049D01*
X474493Y-4059D01*
X474360Y-4381D01*
X474358Y-4392D01*
X474358Y-4392D01*
X450605Y-28145D01*
X403097Y-75653D01*
X403097Y-75653D01*
X402500Y-76250D01*
Y-77095D01*
Y-114204D01*
X140250D01*
Y-261500D01*
X57201D01*
X57201Y-261500D01*
X57176Y-261483D01*
X57063Y-261437D01*
X57017Y-261324D01*
X57000Y-261299D01*
X57000Y-261299D01*
Y-261098D01*
Y-136951D01*
X57000Y-136951D01*
X57007Y-136941D01*
X57140Y-136619D01*
X57142Y-136608D01*
X57284Y-136466D01*
X57284Y-136466D01*
X58118Y-135632D01*
X58118Y-135632D01*
X85405Y-108345D01*
X85405Y-108345D01*
X94501Y-99249D01*
X112692Y-81058D01*
X112692Y-81058D01*
X113058Y-80692D01*
X113058Y-80692D01*
X113608Y-80142D01*
X113608Y-80142D01*
X113619Y-80140D01*
X113941Y-80007D01*
X113951Y-80000D01*
X113951Y-80000D01*
X197000D01*
X204500Y-72500D01*
Y-48750D01*
X110201D01*
X110201Y-48750D01*
X110176Y-48733D01*
X110063Y-48687D01*
X110017Y-48574D01*
X110000Y-48549D01*
X110000Y-48549D01*
Y-48348D01*
Y-45789D01*
Y-43750D01*
X98304D01*
X98288Y-43739D01*
X98158Y-43685D01*
X98158Y-43685D01*
X98157Y-43685D01*
X98109Y-43665D01*
X98082Y-43647D01*
X98082Y-43647D01*
X98082Y-43647D01*
X98077Y-43640D01*
X98043Y-43467D01*
X98025Y-43423D01*
X98000Y-43299D01*
Y-43098D01*
Y-30152D01*
Y-29951D01*
X98006Y-29943D01*
X98011Y-29931D01*
X98047Y-29751D01*
X98047Y-29750D01*
X98047Y-29750D01*
X109500D01*
X116500Y-36750D01*
X157000D01*
Y33574D01*
Y37250D01*
Y328000D01*
X446070D01*
X446170Y326730D01*
D02*
G37*
%LPC*%
G36*
X181943Y266250D02*
X179557D01*
X177351Y265337D01*
X175664Y263649D01*
X174750Y261444D01*
Y259056D01*
X175664Y256851D01*
X177351Y255163D01*
X179557Y254250D01*
X181943D01*
X184149Y255163D01*
X185837Y256851D01*
X186750Y259056D01*
Y261444D01*
X185837Y263649D01*
X184149Y265337D01*
X181943Y266250D01*
D02*
G37*
G36*
X449250Y226500D02*
X420250D01*
Y210500D01*
X449250D01*
Y226500D01*
D02*
G37*
G36*
X467750Y206000D02*
X451750D01*
Y177000D01*
X467750D01*
Y206000D01*
D02*
G37*
G36*
X417750D02*
X401750D01*
Y177000D01*
X417750D01*
Y206000D01*
D02*
G37*
G36*
X416953Y111000D02*
X414047D01*
X411198Y110433D01*
X408513Y109321D01*
X406097Y107707D01*
X404043Y105653D01*
X402429Y103237D01*
X401317Y100552D01*
X400750Y97703D01*
Y94797D01*
X401317Y91948D01*
X402429Y89263D01*
X404043Y86847D01*
X406097Y84793D01*
X408513Y83179D01*
X411198Y82067D01*
X414047Y81500D01*
X416953D01*
X419802Y82067D01*
X422487Y83179D01*
X424903Y84793D01*
X426957Y86847D01*
X428571Y89263D01*
X429683Y91948D01*
X430250Y94797D01*
Y97703D01*
X429683Y100552D01*
X428571Y103237D01*
X426957Y105653D01*
X424903Y107707D01*
X422487Y109321D01*
X419802Y110433D01*
X416953Y111000D01*
D02*
G37*
%LPD*%
G36*
X447211Y212539D02*
X422289D01*
Y224461D01*
X447211D01*
Y212539D01*
D02*
G37*
G36*
X465711Y179039D02*
X453789D01*
Y203961D01*
X465711D01*
Y179039D01*
D02*
G37*
G36*
X419207Y108472D02*
X421521Y107514D01*
X423603Y106123D01*
X425373Y104353D01*
X426764Y102271D01*
X427722Y99958D01*
X428211Y97502D01*
Y94998D01*
X427722Y92542D01*
X426764Y90229D01*
X425373Y88147D01*
X423603Y86377D01*
X421521Y84986D01*
X419207Y84028D01*
X416752Y83539D01*
X414248D01*
X411792Y84028D01*
X409479Y84986D01*
X407397Y86377D01*
X405627Y88147D01*
X404236Y90229D01*
X403278Y92542D01*
X402789Y94998D01*
Y97502D01*
X403278Y99958D01*
X404236Y102271D01*
X405627Y104353D01*
X407397Y106123D01*
X409479Y107514D01*
X411792Y108472D01*
X414248Y108961D01*
X416752D01*
X419207Y108472D01*
D02*
G37*
D10*
X5750Y26500D02*
D03*
Y42500D02*
D03*
X6000Y12000D02*
D03*
Y-4000D02*
D03*
X20250Y-53250D02*
D03*
Y-69250D02*
D03*
X57250Y-54000D02*
D03*
Y-70000D02*
D03*
X72250Y-54000D02*
D03*
Y-70000D02*
D03*
X136000Y6000D02*
D03*
Y-10000D02*
D03*
D11*
X-302750Y89250D02*
D03*
Y104750D02*
D03*
X-113250Y-93750D02*
D03*
Y-78250D02*
D03*
X136250Y-25500D02*
D03*
Y-41000D02*
D03*
D12*
X-254500Y162000D02*
D03*
X-270500D02*
D03*
X-333500Y122250D02*
D03*
X-349500D02*
D03*
X-302250Y139000D02*
D03*
X-318250D02*
D03*
X-224250Y122000D02*
D03*
X-208250D02*
D03*
X87250Y-7500D02*
D03*
X103250D02*
D03*
X87250Y21750D02*
D03*
X103250D02*
D03*
X87250Y-21250D02*
D03*
X103250D02*
D03*
D13*
X-301250Y290500D02*
D03*
X-207250D02*
D03*
D23*
X-60500Y104250D02*
D03*
X-90500D02*
D03*
X-60750Y130500D02*
D03*
X-90750D02*
D03*
X-60000Y157000D02*
D03*
X-90000D02*
D03*
X-60000Y184000D02*
D03*
X-90000D02*
D03*
D26*
X-301750Y122500D02*
D03*
X-317250D02*
D03*
X-240000Y101250D02*
D03*
X-224500D02*
D03*
X103750Y-50000D02*
D03*
X88250D02*
D03*
X87750Y6750D02*
D03*
X103250D02*
D03*
X102500Y38000D02*
D03*
X87000D02*
D03*
X88000Y-35750D02*
D03*
X103500D02*
D03*
D27*
X-370750Y268750D02*
D03*
Y238750D02*
D03*
X-343500Y268750D02*
D03*
Y238750D02*
D03*
X-187250Y154750D02*
D03*
Y124750D02*
D03*
X191500Y-86000D02*
D03*
Y-56000D02*
D03*
X165500Y-86500D02*
D03*
Y-56500D02*
D03*
D30*
X88000Y-35750D02*
X88125Y-35875D01*
Y-49875D02*
Y-35875D01*
Y-49875D02*
X88250Y-50000D01*
X87625Y-35375D02*
Y-21625D01*
Y-35375D02*
X88000Y-35750D01*
X87250Y-21250D02*
X87625Y-21625D01*
X87250Y-21250D02*
Y-7500D01*
X87500Y6500D02*
X87750Y6750D01*
X87500Y-7250D02*
Y6500D01*
X87250Y-7500D02*
X87500Y-7250D01*
D31*
X415500Y46250D02*
D03*
D32*
Y96250D02*
D03*
D33*
X465500Y16250D02*
D03*
Y126250D02*
D03*
D34*
X44750Y-3750D02*
D03*
Y-29250D02*
D03*
X37000Y-16500D02*
D03*
X52500D02*
D03*
D35*
X-423500Y-238700D02*
D03*
Y-199100D02*
D03*
Y18300D02*
D03*
Y57900D02*
D03*
Y-110200D02*
D03*
Y-70600D02*
D03*
D36*
Y-159500D02*
D03*
Y97500D02*
D03*
Y-31000D02*
D03*
D37*
X-446750Y134500D02*
D03*
X-446000Y204750D02*
D03*
X434750Y218500D02*
D03*
D38*
X-471750Y161500D02*
D03*
X-421750D02*
D03*
X-471000Y231750D02*
D03*
X-421000D02*
D03*
X459750Y191500D02*
D03*
X409750D02*
D03*
D39*
X113300Y-320400D02*
D03*
Y-295000D02*
D03*
X164100Y-320400D02*
D03*
Y-295000D02*
D03*
X214900Y-320400D02*
D03*
X189500D02*
D03*
Y-295000D02*
D03*
X138700D02*
D03*
Y-320400D02*
D03*
X296500Y-319900D02*
D03*
Y-294500D02*
D03*
X347300D02*
D03*
Y-319900D02*
D03*
X372700D02*
D03*
X321900Y-294500D02*
D03*
Y-319900D02*
D03*
X271100Y-294500D02*
D03*
Y-319900D02*
D03*
X-397800Y-321500D02*
D03*
X-347000Y-321500D02*
D03*
X-321600D02*
D03*
X-372400D02*
D03*
D40*
X214900Y-295000D02*
D03*
X372700Y-294500D02*
D03*
X-296200Y-321500D02*
D03*
D41*
X414400Y-130300D02*
D03*
X414400Y-105300D02*
D03*
X414400Y-150300D02*
D03*
D42*
Y-175300D02*
D03*
D43*
X441500Y-206000D02*
D03*
Y-74600D02*
D03*
D44*
X-37500Y248250D02*
D03*
D45*
X34500D02*
D03*
D46*
X-69000Y308250D02*
D03*
X66000D02*
D03*
D47*
X-450000Y300000D02*
D03*
X450000D02*
D03*
X-450000Y-300000D02*
D03*
X450000D02*
D03*
D48*
X-218250Y-306250D02*
D03*
X-178650D02*
D03*
X-92750Y-306500D02*
D03*
X-53150D02*
D03*
D49*
X-257850Y-306250D02*
D03*
X-132350Y-306500D02*
D03*
D50*
X-288500Y-108750D02*
D03*
X-38250Y-243250D02*
D03*
X-29500D02*
D03*
X-47500Y-243500D02*
D03*
X-56250D02*
D03*
X-38250Y-234000D02*
D03*
X-29500D02*
D03*
X-47500Y-234250D02*
D03*
X-56250D02*
D03*
X-38250Y-224250D02*
D03*
X-29500D02*
D03*
X-47500Y-224500D02*
D03*
X-56250D02*
D03*
X-38500Y-214750D02*
D03*
X-29750D02*
D03*
X-47750Y-215000D02*
D03*
X-56500D02*
D03*
X-56250Y-252250D02*
D03*
X-47500D02*
D03*
X-29500Y-252000D02*
D03*
X-38250D02*
D03*
X-56000Y-261750D02*
D03*
X-47250D02*
D03*
X-29250Y-261500D02*
D03*
X-38000D02*
D03*
X-56000Y-271500D02*
D03*
X-47250D02*
D03*
X-29250Y-271250D02*
D03*
X-38000D02*
D03*
X-56000Y-280750D02*
D03*
X-47250D02*
D03*
X-29250Y-280500D02*
D03*
X-38000D02*
D03*
X-325500Y-29250D02*
D03*
Y-38000D02*
D03*
X-325750Y-20000D02*
D03*
Y-11250D02*
D03*
X-316250Y-29250D02*
D03*
Y-38000D02*
D03*
X-316500Y-20000D02*
D03*
Y-11250D02*
D03*
X-306500Y-29250D02*
D03*
Y-38000D02*
D03*
X-306750Y-20000D02*
D03*
Y-11250D02*
D03*
X-297000Y-29000D02*
D03*
Y-37750D02*
D03*
X-297250Y-19750D02*
D03*
Y-11000D02*
D03*
X-334500Y-11250D02*
D03*
Y-20000D02*
D03*
X-334250Y-38000D02*
D03*
Y-29250D02*
D03*
X-344000Y-11500D02*
D03*
Y-20250D02*
D03*
X-343750Y-38250D02*
D03*
Y-29500D02*
D03*
X-353750Y-11500D02*
D03*
Y-20250D02*
D03*
X-353500Y-38250D02*
D03*
Y-29500D02*
D03*
X-363000Y-11500D02*
D03*
Y-20250D02*
D03*
X-362750Y-38250D02*
D03*
Y-29500D02*
D03*
X43000Y217250D02*
D03*
X16250Y217000D02*
D03*
X25000D02*
D03*
X34250Y217250D02*
D03*
X16500Y207500D02*
D03*
X25250D02*
D03*
X43250Y207750D02*
D03*
X34500D02*
D03*
X16500Y197750D02*
D03*
X25250D02*
D03*
X43250Y198000D02*
D03*
X34500D02*
D03*
Y180000D02*
D03*
X43250D02*
D03*
X25250Y179750D02*
D03*
X43250Y188750D02*
D03*
X16500Y179750D02*
D03*
X34750Y170500D02*
D03*
X43500D02*
D03*
X25500Y170250D02*
D03*
X16750D02*
D03*
X16500Y188500D02*
D03*
X25250D02*
D03*
X34500Y188750D02*
D03*
X25500Y151250D02*
D03*
X34750Y151500D02*
D03*
X43500D02*
D03*
X16750Y151250D02*
D03*
X34750Y160750D02*
D03*
X43500D02*
D03*
X25500Y160500D02*
D03*
X16750D02*
D03*
X-26000Y105750D02*
D03*
Y97000D02*
D03*
X-16250Y105750D02*
D03*
Y97000D02*
D03*
X84750Y-78500D02*
D03*
X31750Y277250D02*
D03*
X40500D02*
D03*
X22500Y277000D02*
D03*
X13750D02*
D03*
X31750Y286500D02*
D03*
X40500D02*
D03*
X22500Y286250D02*
D03*
X13750D02*
D03*
X31750Y296250D02*
D03*
X40500D02*
D03*
X22500Y296000D02*
D03*
X13750D02*
D03*
X31500Y305750D02*
D03*
X40250D02*
D03*
X22250Y305500D02*
D03*
X13500D02*
D03*
Y323500D02*
D03*
X22250D02*
D03*
X40250Y323750D02*
D03*
X31500D02*
D03*
X13500Y314250D02*
D03*
X22250D02*
D03*
X40250Y314500D02*
D03*
X31500D02*
D03*
X-335500Y311750D02*
D03*
X-354750Y311500D02*
D03*
X-364000D02*
D03*
X-401250Y311250D02*
D03*
X-345000Y311500D02*
D03*
X-372750D02*
D03*
X-382250Y311250D02*
D03*
X-392000D02*
D03*
X-355000Y329500D02*
D03*
X-354750Y320250D02*
D03*
X-345000D02*
D03*
X-335500Y320500D02*
D03*
X-345250Y329500D02*
D03*
X-335750Y329750D02*
D03*
Y338500D02*
D03*
X-355000Y338250D02*
D03*
X-345250D02*
D03*
X-373000Y329500D02*
D03*
X-392250Y329250D02*
D03*
X-392000Y320000D02*
D03*
X-372750Y320250D02*
D03*
X-392250Y338000D02*
D03*
X-401500Y329250D02*
D03*
X-382500D02*
D03*
Y338000D02*
D03*
X-364250Y329500D02*
D03*
Y338250D02*
D03*
X-373000D02*
D03*
X-401500Y338000D02*
D03*
X-401250Y320000D02*
D03*
X-382250D02*
D03*
X-364000Y320250D02*
D03*
X360750Y18750D02*
D03*
X370500D02*
D03*
X360750Y27500D02*
D03*
X380000Y27750D02*
D03*
Y19000D02*
D03*
X370500Y27500D02*
D03*
X370750Y750D02*
D03*
X361000Y9500D02*
D03*
Y750D02*
D03*
X380250Y9750D02*
D03*
Y1000D02*
D03*
X370750Y9500D02*
D03*
X351750D02*
D03*
X343000Y750D02*
D03*
Y9500D02*
D03*
X342750Y18750D02*
D03*
Y27500D02*
D03*
X351750Y750D02*
D03*
X351500Y27500D02*
D03*
Y18750D02*
D03*
X333500Y500D02*
D03*
X314250Y18500D02*
D03*
X323500D02*
D03*
X333250Y27250D02*
D03*
X314500Y9250D02*
D03*
Y500D02*
D03*
X323750Y9250D02*
D03*
X323500Y27250D02*
D03*
X333250Y18500D02*
D03*
X323750Y500D02*
D03*
X333500Y9250D02*
D03*
X314250Y27250D02*
D03*
X311500Y295000D02*
D03*
Y286250D02*
D03*
X311250Y304250D02*
D03*
Y313000D02*
D03*
X320750Y295000D02*
D03*
Y286250D02*
D03*
X320500Y304250D02*
D03*
Y313000D02*
D03*
X330500Y295000D02*
D03*
Y286250D02*
D03*
X330250Y304250D02*
D03*
Y313000D02*
D03*
X340000Y295250D02*
D03*
Y286500D02*
D03*
X339750Y304500D02*
D03*
Y313250D02*
D03*
X377000Y313500D02*
D03*
Y304750D02*
D03*
X377250Y286750D02*
D03*
Y295500D02*
D03*
X367500Y313250D02*
D03*
Y304500D02*
D03*
X367750Y286500D02*
D03*
Y295250D02*
D03*
X357750Y313250D02*
D03*
Y304500D02*
D03*
X358000Y286500D02*
D03*
Y295250D02*
D03*
X348500Y313250D02*
D03*
Y304500D02*
D03*
X348750Y286500D02*
D03*
Y295250D02*
D03*
X313500Y130250D02*
D03*
Y121500D02*
D03*
X313250Y139500D02*
D03*
Y148250D02*
D03*
X322750Y130250D02*
D03*
Y121500D02*
D03*
X322500Y139500D02*
D03*
Y148250D02*
D03*
X332500Y130250D02*
D03*
Y121500D02*
D03*
X332250Y139500D02*
D03*
Y148250D02*
D03*
X342000Y130500D02*
D03*
Y121750D02*
D03*
X341750Y139750D02*
D03*
Y148500D02*
D03*
X379000Y148750D02*
D03*
Y140000D02*
D03*
X379250Y122000D02*
D03*
Y130750D02*
D03*
X369500Y148500D02*
D03*
Y139750D02*
D03*
X369750Y121750D02*
D03*
Y130500D02*
D03*
X359750Y148500D02*
D03*
Y139750D02*
D03*
X360000Y121750D02*
D03*
Y130500D02*
D03*
X350500Y148500D02*
D03*
Y139750D02*
D03*
X350750Y121750D02*
D03*
Y130500D02*
D03*
X315250Y-259000D02*
D03*
Y-267750D02*
D03*
X315000Y-249750D02*
D03*
Y-241000D02*
D03*
X324500Y-259000D02*
D03*
Y-267750D02*
D03*
X324250Y-249750D02*
D03*
Y-241000D02*
D03*
X334250Y-259000D02*
D03*
Y-267750D02*
D03*
X334000Y-249750D02*
D03*
Y-241000D02*
D03*
X343750Y-258750D02*
D03*
Y-267500D02*
D03*
X343500Y-249500D02*
D03*
Y-240750D02*
D03*
X306250Y-241000D02*
D03*
Y-249750D02*
D03*
X306500Y-267750D02*
D03*
Y-259000D02*
D03*
X296750Y-241250D02*
D03*
Y-250000D02*
D03*
X297000Y-268000D02*
D03*
Y-259250D02*
D03*
X287000Y-241250D02*
D03*
Y-250000D02*
D03*
X287250Y-268000D02*
D03*
Y-259250D02*
D03*
X277750Y-241250D02*
D03*
Y-250000D02*
D03*
X278000Y-268000D02*
D03*
Y-259250D02*
D03*
X37250Y13000D02*
D03*
X149000Y-10000D02*
D03*
X73000Y-33000D02*
D03*
X-88000Y-104000D02*
D03*
X-96750Y-104250D02*
D03*
X-106500D02*
D03*
X16750Y-33750D02*
D03*
X16194Y-23043D02*
D03*
X19296Y-6366D02*
D03*
X-8417Y13142D02*
D03*
X-17167Y13392D02*
D03*
X17000Y25500D02*
D03*
X-158500Y140000D02*
D03*
Y131250D02*
D03*
X-158750Y149250D02*
D03*
Y158000D02*
D03*
D51*
X180750Y260250D02*
D03*
D53*
X-240064Y146564D02*
Y157314D01*
Y146564D02*
X-240000Y146500D01*
X-244750Y162000D02*
X-240064Y157314D01*
X-254500Y162000D02*
X-244750D01*
X37250Y5000D02*
Y13000D01*
X136000Y-10000D02*
X149000D01*
X111000Y-7500D02*
X129000Y-25500D01*
X136250D01*
X103250Y-7500D02*
X111000D01*
X112250Y-21250D02*
X123020Y-32020D01*
X145230D01*
X149000Y-28250D01*
Y-10000D01*
X103250Y-21250D02*
X112250D01*
X75271D02*
X87250D01*
X72521Y-24000D02*
X75271Y-21250D01*
X61250Y-24000D02*
X72521D01*
X72515Y-33000D02*
X73000D01*
X61250Y-29000D02*
X68515D01*
X72515Y-33000D01*
X103625Y6375D02*
X135625D01*
X103250Y6750D02*
X103625Y6375D01*
X135625D02*
X136000Y6000D01*
X61250Y-14000D02*
X72750D01*
X76250Y-10500D01*
Y16250D01*
X67250Y-9000D02*
X72075Y-4175D01*
Y29843D01*
X76250Y16250D02*
X81500Y21500D01*
X72075Y29843D02*
X79982Y37750D01*
X61250Y-9000D02*
X67250D01*
X81500Y21500D02*
X87000D01*
X87250Y21750D01*
X79982Y37750D02*
X86750D01*
X87000Y38000D01*
X22075Y-29176D02*
Y-26077D01*
X17500Y-33750D02*
X22075Y-29176D01*
X16750Y-33750D02*
X17500D01*
X17276Y-23043D02*
X21319Y-19000D01*
X28250D01*
X24067Y-24084D02*
X28166D01*
X28250Y-24000D01*
X22075Y-26077D02*
X24067Y-24084D01*
X16194Y-23043D02*
X17276D01*
X6000Y12000D02*
X8413Y9586D01*
X11828D02*
X25215Y-3800D01*
X8413Y9586D02*
X11828D01*
X22812Y-8800D02*
X28050D01*
X19296Y-6366D02*
X20378D01*
X25215Y-3800D02*
X28050D01*
X20378Y-6366D02*
X22812Y-8800D01*
X28050Y-3800D02*
X28250Y-4000D01*
X28050Y-8800D02*
X28250Y-9000D01*
X6750Y25500D02*
X17000D01*
X5750Y26500D02*
X6750Y25500D01*
D54*
X-240000Y146500D02*
D03*
Y138500D02*
D03*
Y130500D02*
D03*
Y122500D02*
D03*
Y114500D02*
D03*
X-280000D02*
D03*
Y122500D02*
D03*
Y130500D02*
D03*
Y138500D02*
D03*
Y146500D02*
D03*
D55*
X-260000Y130500D02*
D03*
D56*
X-322250Y84750D02*
D03*
Y104750D02*
D03*
X38750Y-55250D02*
D03*
Y-75250D02*
D03*
X140500Y-86000D02*
D03*
Y-66000D02*
D03*
X119500Y-86250D02*
D03*
Y-66250D02*
D03*
D57*
X-254500Y204500D02*
D03*
D58*
X-211500Y194000D02*
D03*
Y215000D02*
D03*
D59*
X21750Y156250D02*
D03*
X127750D02*
D03*
D60*
X52250Y-38000D02*
D03*
X37250D02*
D03*
Y5000D02*
D03*
X52250D02*
D03*
D61*
X61250Y1000D02*
D03*
Y-4000D02*
D03*
Y-9000D02*
D03*
Y-14000D02*
D03*
Y-19000D02*
D03*
Y-24000D02*
D03*
Y-29000D02*
D03*
Y-34000D02*
D03*
X28250D02*
D03*
Y-29000D02*
D03*
Y-24000D02*
D03*
Y-19000D02*
D03*
Y-14000D02*
D03*
Y-9000D02*
D03*
Y-4000D02*
D03*
Y1000D02*
D03*
D62*
X44750Y-16500D02*
D03*
D63*
X-20250Y-7350D02*
D03*
Y49850D02*
D03*
X-91000Y-32900D02*
D03*
Y-90100D02*
D03*
D64*
X-85250Y21250D02*
D03*
X-26000Y-61500D02*
D03*
D65*
X80250Y-170000D02*
D03*
X-32250D02*
D03*
D66*
X74007Y-63230D02*
X82993D01*
X84750Y-64987D01*
Y-90100D02*
Y-64987D01*
X72250Y-61473D02*
X74007Y-63230D01*
X72250Y-61473D02*
Y-54000D01*
X33000Y-141850D02*
X84750Y-90100D01*
X-280000Y108000D02*
Y114500D01*
X-283250Y104750D02*
X-280000Y108000D01*
X-322250Y104750D02*
X-283250D01*
X-240000Y122500D02*
X-224750D01*
X-224250Y122000D01*
X-240000Y114500D02*
X-240000Y114500D01*
X-240000Y101250D02*
Y114500D01*
X-333500Y122250D02*
X-317500D01*
X-301750Y122500D02*
X-280000D01*
X-301750Y122500D02*
X-301750Y122500D01*
X-302250Y123000D02*
X-301750Y122500D01*
X-302250Y123000D02*
Y139000D01*
X33000Y-255100D02*
X75000Y-297100D01*
X33000Y-255100D02*
Y-141850D01*
X57250Y-54000D02*
X72250D01*
X55750Y-52500D02*
X58750Y-55500D01*
X52250Y-49571D02*
Y-38000D01*
X55179Y-52500D02*
X55750D01*
X111200Y-297100D02*
X113300Y-295000D01*
X75000Y-297100D02*
X111200D01*
X52250Y-49571D02*
X55179Y-52500D01*
D67*
X-317500Y122250D02*
X-317250Y122500D01*
X-368250Y92000D02*
X-361000Y84750D01*
X-322250D01*
X-368250Y92000D02*
Y147000D01*
X-421000Y199750D02*
X-368250Y147000D01*
X-421000Y199750D02*
Y231750D01*
X-336250Y290500D02*
X-301250D01*
X-343500Y283250D02*
X-336250Y290500D01*
X-343500Y268750D02*
Y283250D01*
X-370750Y268750D02*
X-343500D01*
X-421000Y263000D02*
X-415250Y268750D01*
X-370750D01*
X-421000Y231750D02*
Y263000D01*
%TF.MD5,183b0bd516e3d8ee18638815d597f354*%
M02*
