%TF.GenerationSoftware,Altium Limited,Altium Designer,22.5.1 (42)*%
G04 Layer_Color=8421504*
%FSLAX44Y44*%
%MOMM*%
%TF.SameCoordinates,15DEB0BC-4505-4058-9DE8-AE4841CA441A*%
%TF.FilePolarity,Positive*%
%TF.FileFunction,Paste,Top*%
%TF.Part,Single*%
G01*
G75*
%TA.AperFunction,SMDPad,CuDef*%
%ADD10R,0.8000X0.8000*%
%ADD11R,0.8500X0.8500*%
%ADD12R,0.8000X0.8000*%
G04:AMPARAMS|DCode=13|XSize=4.2mm|YSize=4.2mm|CornerRadius=0.21mm|HoleSize=0mm|Usage=FLASHONLY|Rotation=180.000|XOffset=0mm|YOffset=0mm|HoleType=Round|Shape=RoundedRectangle|*
%AMROUNDEDRECTD13*
21,1,4.2000,3.7800,0,0,180.0*
21,1,3.7800,4.2000,0,0,180.0*
1,1,0.4200,-1.8900,1.8900*
1,1,0.4200,1.8900,1.8900*
1,1,0.4200,1.8900,-1.8900*
1,1,0.4200,-1.8900,-1.8900*
%
%ADD13ROUNDEDRECTD13*%
%ADD14R,3.6000X5.3500*%
%ADD15R,1.5000X1.8500*%
%ADD16R,1.1600X1.4700*%
%ADD17R,1.4700X1.1600*%
%ADD18R,1.1000X1.5500*%
%ADD19R,1.1000X1.5500*%
%ADD20R,3.4500X1.5500*%
%ADD21R,0.4000X1.0000*%
%ADD22R,3.0000X2.6000*%
%ADD23R,1.0000X1.6000*%
G04:AMPARAMS|DCode=24|XSize=1.9mm|YSize=0.96mm|CornerRadius=0.1152mm|HoleSize=0mm|Usage=FLASHONLY|Rotation=270.000|XOffset=0mm|YOffset=0mm|HoleType=Round|Shape=RoundedRectangle|*
%AMROUNDEDRECTD24*
21,1,1.9000,0.7296,0,0,270.0*
21,1,1.6696,0.9600,0,0,270.0*
1,1,0.2304,-0.3648,-0.8348*
1,1,0.2304,-0.3648,0.8348*
1,1,0.2304,0.3648,0.8348*
1,1,0.2304,0.3648,-0.8348*
%
%ADD24ROUNDEDRECTD24*%
%ADD26R,0.8500X0.8500*%
%ADD27R,1.6000X1.0000*%
%ADD28C,2.0000*%
G36*
X-345053Y94431D02*
X-309420D01*
Y51170D01*
X-345053D01*
Y94431D01*
D02*
G37*
D10*
X-234250Y-91750D02*
D03*
Y-107750D02*
D03*
X-211250Y-44750D02*
D03*
Y-60750D02*
D03*
X-250000Y-18750D02*
D03*
Y-2750D02*
D03*
X-296000Y162500D02*
D03*
Y178500D02*
D03*
X-311750Y162250D02*
D03*
Y178250D02*
D03*
X-343250Y162500D02*
D03*
Y178500D02*
D03*
X-358750Y163000D02*
D03*
Y179000D02*
D03*
X274000Y-46000D02*
D03*
Y-62000D02*
D03*
X248750Y-106500D02*
D03*
Y-90500D02*
D03*
X389250Y-169750D02*
D03*
Y-153750D02*
D03*
X228750Y-18500D02*
D03*
Y-2500D02*
D03*
D11*
X-249500Y-91750D02*
D03*
Y-107250D02*
D03*
X-272000Y-90750D02*
D03*
Y-75250D02*
D03*
X-288250Y-90500D02*
D03*
Y-75000D02*
D03*
X-267000Y-18500D02*
D03*
Y-3000D02*
D03*
X-398000Y209750D02*
D03*
Y225250D02*
D03*
X78500Y-295250D02*
D03*
Y-310750D02*
D03*
X180250Y-202000D02*
D03*
Y-217500D02*
D03*
X233250Y-90750D02*
D03*
Y-106250D02*
D03*
X385250Y224000D02*
D03*
Y239500D02*
D03*
X-396500Y167500D02*
D03*
Y152000D02*
D03*
X213750Y-18000D02*
D03*
Y-2500D02*
D03*
X191250Y-75000D02*
D03*
Y-90500D02*
D03*
X207000Y-90250D02*
D03*
Y-74750D02*
D03*
D12*
X-249500Y-121500D02*
D03*
X-265500D02*
D03*
X45000Y-266500D02*
D03*
X61000D02*
D03*
X45000Y-252000D02*
D03*
X61000D02*
D03*
X23250Y-251250D02*
D03*
X7250D02*
D03*
X23250Y-266750D02*
D03*
X7250D02*
D03*
X233000Y-121750D02*
D03*
X217000D02*
D03*
X3750Y95750D02*
D03*
X-12250D02*
D03*
D13*
X-279500Y-185000D02*
D03*
X-185500D02*
D03*
X219500D02*
D03*
X313500D02*
D03*
D14*
X-174750Y-57750D02*
D03*
X313000Y-76000D02*
D03*
D15*
X-185250Y-14750D02*
D03*
X-164250D02*
D03*
X302500Y-33000D02*
D03*
X323500D02*
D03*
D16*
X-378600Y132250D02*
D03*
X-396400D02*
D03*
X179150Y-237000D02*
D03*
X161350D02*
D03*
X58400Y-311250D02*
D03*
X40600D02*
D03*
X385400Y260000D02*
D03*
X367600D02*
D03*
D17*
X-398250Y261150D02*
D03*
Y243350D02*
D03*
X332500Y63650D02*
D03*
Y45850D02*
D03*
X-352250Y-259100D02*
D03*
Y-276900D02*
D03*
X143750Y242600D02*
D03*
Y260400D02*
D03*
D18*
X22750Y-224000D02*
D03*
X45750D02*
D03*
D19*
X-250D02*
D03*
D20*
X22750Y-156500D02*
D03*
D21*
X257500Y-34250D02*
D03*
X249500D02*
D03*
X241500D02*
D03*
X233500D02*
D03*
X225500D02*
D03*
Y-74250D02*
D03*
X233500D02*
D03*
X241500D02*
D03*
X249500D02*
D03*
X257500D02*
D03*
X-225750Y-34250D02*
D03*
X-233750D02*
D03*
X-241750D02*
D03*
X-249750D02*
D03*
X-257750D02*
D03*
Y-74250D02*
D03*
X-249750D02*
D03*
X-241750D02*
D03*
X-233750D02*
D03*
X-225750D02*
D03*
D22*
X241500Y-54250D02*
D03*
X-241750D02*
D03*
D23*
X9500Y118000D02*
D03*
X-20500D02*
D03*
X10000Y144750D02*
D03*
X-20000D02*
D03*
X10000Y171500D02*
D03*
X-20000D02*
D03*
X10000Y198750D02*
D03*
X-20000D02*
D03*
X-232750Y28000D02*
D03*
X-262750D02*
D03*
X262000Y6250D02*
D03*
X292000D02*
D03*
D24*
X-350050Y139900D02*
D03*
X-304450D02*
D03*
D26*
X-317000Y-259250D02*
D03*
X-332500D02*
D03*
X108500Y243000D02*
D03*
X124000D02*
D03*
X370250Y45000D02*
D03*
X354750D02*
D03*
D27*
X-332000Y-149750D02*
D03*
Y-119750D02*
D03*
X-306000Y-149750D02*
D03*
Y-119750D02*
D03*
X156000Y-168250D02*
D03*
Y-138250D02*
D03*
X182500Y-168000D02*
D03*
Y-138000D02*
D03*
D28*
X345000Y178250D02*
D03*
X308320Y178630D02*
D03*
X344740Y213130D02*
D03*
X307750Y213500D02*
D03*
%TF.MD5,4a7f48e21e933d428fd4494330abfdda*%
M02*
