G04*
G04 #@! TF.GenerationSoftware,Altium Limited,Altium Designer,22.5.1 (42)*
G04*
G04 Layer_Color=8421504*
%FSLAX44Y44*%
%MOMM*%
G71*
G04*
G04 #@! TF.SameCoordinates,7C753EF8-EF55-4721-AF4D-FDC1614254BA*
G04*
G04*
G04 #@! TF.FilePolarity,Positive*
G04*
G01*
G75*
%ADD18R,1.0000X1.6000*%
G04:AMPARAMS|DCode=19|XSize=1.45mm|YSize=0.43mm|CornerRadius=0.1075mm|HoleSize=0mm|Usage=FLASHONLY|Rotation=0.000|XOffset=0mm|YOffset=0mm|HoleType=Round|Shape=RoundedRectangle|*
%AMROUNDEDRECTD19*
21,1,1.4500,0.2150,0,0,0.0*
21,1,1.2350,0.4300,0,0,0.0*
1,1,0.2150,0.6175,-0.1075*
1,1,0.2150,-0.6175,-0.1075*
1,1,0.2150,-0.6175,0.1075*
1,1,0.2150,0.6175,0.1075*
%
%ADD19ROUNDEDRECTD19*%
G04:AMPARAMS|DCode=20|XSize=4.2mm|YSize=4.2mm|CornerRadius=0.21mm|HoleSize=0mm|Usage=FLASHONLY|Rotation=90.000|XOffset=0mm|YOffset=0mm|HoleType=Round|Shape=RoundedRectangle|*
%AMROUNDEDRECTD20*
21,1,4.2000,3.7800,0,0,90.0*
21,1,3.7800,4.2000,0,0,90.0*
1,1,0.4200,1.8900,1.8900*
1,1,0.4200,1.8900,-1.8900*
1,1,0.4200,-1.8900,-1.8900*
1,1,0.4200,-1.8900,1.8900*
%
%ADD20ROUNDEDRECTD20*%
%ADD21R,1.4700X1.1600*%
%ADD22R,0.8500X0.8500*%
%ADD23R,0.8000X0.8000*%
%ADD24R,0.8500X0.8500*%
%ADD25R,0.4000X1.0000*%
%ADD26R,3.0000X2.6000*%
%ADD27R,2.0000X1.3000*%
%ADD28R,4.6000X3.2000*%
%ADD29R,0.8000X0.8000*%
%ADD30R,3.1000X2.4000*%
%ADD31O,0.4500X2.1500*%
%ADD32R,0.4500X2.1500*%
%ADD33R,1.1000X1.5500*%
%ADD34R,1.1000X1.5500*%
%ADD35R,3.4500X1.5500*%
D18*
X-37000Y343000D02*
D03*
X-7000D02*
D03*
Y317000D02*
D03*
X-37000D02*
D03*
X-7000Y291000D02*
D03*
X-37000D02*
D03*
X-33000Y89458D02*
D03*
X-3000D02*
D03*
X-33000Y115000D02*
D03*
X-3000D02*
D03*
X23000Y252000D02*
D03*
X-7000D02*
D03*
D19*
X197700Y199800D02*
D03*
Y187100D02*
D03*
Y174400D02*
D03*
Y161700D02*
D03*
Y149000D02*
D03*
Y136300D02*
D03*
Y123600D02*
D03*
Y110900D02*
D03*
Y98200D02*
D03*
X290000Y199800D02*
D03*
Y187100D02*
D03*
Y174400D02*
D03*
Y161700D02*
D03*
Y149000D02*
D03*
Y136300D02*
D03*
Y123600D02*
D03*
Y110900D02*
D03*
Y98200D02*
D03*
D20*
X90000Y265000D02*
D03*
Y171000D02*
D03*
X-105000Y-134480D02*
D03*
Y-40480D02*
D03*
D21*
X100642Y326100D02*
D03*
Y343900D02*
D03*
X-86000Y21100D02*
D03*
Y38900D02*
D03*
D22*
X-55500Y68000D02*
D03*
X-40000D02*
D03*
X65250Y342043D02*
D03*
X80750D02*
D03*
X-179708Y-139000D02*
D03*
X-195208D02*
D03*
X-226750D02*
D03*
X-211250D02*
D03*
D23*
X-16708Y135642D02*
D03*
Y151643D02*
D03*
X16000Y151858D02*
D03*
Y135857D02*
D03*
X25403Y195000D02*
D03*
Y211000D02*
D03*
X-244693Y-76893D02*
D03*
Y-60893D02*
D03*
X-260985Y-76893D02*
D03*
Y-60893D02*
D03*
X-388817Y173000D02*
D03*
Y157000D02*
D03*
X-387500Y48000D02*
D03*
Y32000D02*
D03*
X-390000Y-187000D02*
D03*
Y-203000D02*
D03*
Y-64500D02*
D03*
Y-80500D02*
D03*
X384000Y-324000D02*
D03*
Y-340000D02*
D03*
D24*
X-33000Y136208D02*
D03*
Y151707D02*
D03*
X-665D02*
D03*
Y136208D02*
D03*
X-49043Y151750D02*
D03*
Y136250D02*
D03*
X-48292Y209750D02*
D03*
Y194250D02*
D03*
X-242893Y-139250D02*
D03*
Y-154750D02*
D03*
X-245000Y-121750D02*
D03*
Y-106250D02*
D03*
D25*
X2000Y184000D02*
D03*
X-6000D02*
D03*
X-14000D02*
D03*
X-22000D02*
D03*
X-30000D02*
D03*
Y224000D02*
D03*
X-22000D02*
D03*
X-14000D02*
D03*
X-6000D02*
D03*
X2000D02*
D03*
D26*
X-14000Y204000D02*
D03*
D27*
X66000Y121178D02*
D03*
Y100857D02*
D03*
D28*
X109180Y111018D02*
D03*
D29*
X-41000Y247153D02*
D03*
X-25000D02*
D03*
X412000Y-210000D02*
D03*
X428000D02*
D03*
X-7000Y273000D02*
D03*
X-23000D02*
D03*
X253750Y-360750D02*
D03*
X269750D02*
D03*
X-122000Y-191293D02*
D03*
X-106000D02*
D03*
X-122000Y-175000D02*
D03*
X-106000D02*
D03*
X-179258Y-155043D02*
D03*
X-195257D02*
D03*
X-227000Y-155293D02*
D03*
X-211000D02*
D03*
X-261000Y-45000D02*
D03*
X-245000D02*
D03*
X-219000Y-367250D02*
D03*
X-203000D02*
D03*
X-255000Y111000D02*
D03*
X-239000D02*
D03*
X-279000D02*
D03*
X-295000D02*
D03*
X-278000Y93000D02*
D03*
X-294000D02*
D03*
X-255000Y90000D02*
D03*
X-239000D02*
D03*
D30*
X-209000Y-85000D02*
D03*
D31*
X-189950Y-56250D02*
D03*
X-202650D02*
D03*
X-215350D02*
D03*
X-228050D02*
D03*
X-189950Y-113750D02*
D03*
X-202650D02*
D03*
X-215350D02*
D03*
D32*
X-228050D02*
D03*
D33*
X-254000Y65750D02*
D03*
X-277000D02*
D03*
D34*
X-231000D02*
D03*
D35*
X-254000Y-1750D02*
D03*
M02*
