G04*
G04 #@! TF.GenerationSoftware,Altium Limited,Altium Designer,22.5.1 (42)*
G04*
G04 Layer_Color=128*
%FSLAX44Y44*%
%MOMM*%
G71*
G04*
G04 #@! TF.SameCoordinates,7C753EF8-EF55-4721-AF4D-FDC1614254BA*
G04*
G04*
G04 #@! TF.FilePolarity,Positive*
G04*
G01*
G75*
%ADD21R,1.4700X1.1600*%
%ADD22R,0.8500X0.8500*%
%ADD23R,0.8000X0.8000*%
%ADD24R,0.8500X0.8500*%
%ADD29R,0.8000X0.8000*%
G04:AMPARAMS|DCode=89|XSize=1.57mm|YSize=0.41mm|CornerRadius=0.0513mm|HoleSize=0mm|Usage=FLASHONLY|Rotation=90.000|XOffset=0mm|YOffset=0mm|HoleType=Round|Shape=RoundedRectangle|*
%AMROUNDEDRECTD89*
21,1,1.5700,0.3075,0,0,90.0*
21,1,1.4675,0.4100,0,0,90.0*
1,1,0.1025,0.1538,0.7338*
1,1,0.1025,0.1538,-0.7338*
1,1,0.1025,-0.1538,-0.7338*
1,1,0.1025,-0.1538,0.7338*
%
%ADD89ROUNDEDRECTD89*%
%ADD91R,1.1600X1.4700*%
%ADD92R,3.0000X2.0000*%
%ADD93R,5.4000X6.1999*%
%ADD94R,1.0000X1.6000*%
G04:AMPARAMS|DCode=96|XSize=1.57mm|YSize=0.41mm|CornerRadius=0.0513mm|HoleSize=0mm|Usage=FLASHONLY|Rotation=0.000|XOffset=0mm|YOffset=0mm|HoleType=Round|Shape=RoundedRectangle|*
%AMROUNDEDRECTD96*
21,1,1.5700,0.3075,0,0,0.0*
21,1,1.4675,0.4100,0,0,0.0*
1,1,0.1025,0.7338,-0.1538*
1,1,0.1025,-0.7338,-0.1538*
1,1,0.1025,-0.7338,0.1538*
1,1,0.1025,0.7338,0.1538*
%
%ADD96ROUNDEDRECTD96*%
G36*
X-198250Y-247250D02*
Y-263250D01*
X-176750D01*
Y-247250D01*
X-198250D01*
D02*
G37*
G36*
X-214500Y185750D02*
X-230500D01*
Y164250D01*
X-214500D01*
Y185750D01*
D02*
G37*
D21*
X-312000Y172900D02*
D03*
Y155100D02*
D03*
D22*
X-276250Y199000D02*
D03*
X-291750D02*
D03*
X-276250Y171957D02*
D03*
X-291750D02*
D03*
X-291292Y155415D02*
D03*
X-275793D02*
D03*
D23*
X-210000Y-203250D02*
D03*
Y-187250D02*
D03*
X-193957D02*
D03*
Y-203250D02*
D03*
X-167500Y203000D02*
D03*
Y187000D02*
D03*
Y154965D02*
D03*
Y138965D02*
D03*
X263000Y-104000D02*
D03*
Y-120000D02*
D03*
X186000Y-103840D02*
D03*
Y-119840D02*
D03*
X105000Y-105000D02*
D03*
Y-121000D02*
D03*
X29000Y-103840D02*
D03*
Y-119840D02*
D03*
D24*
X-206000Y-328457D02*
D03*
Y-312957D02*
D03*
X-185000Y-312500D02*
D03*
Y-328000D02*
D03*
X-168000Y-343500D02*
D03*
Y-328000D02*
D03*
X246000Y-104250D02*
D03*
Y-119750D02*
D03*
X169000Y-104190D02*
D03*
Y-119690D02*
D03*
X88707Y-105250D02*
D03*
Y-120750D02*
D03*
X12000Y-104190D02*
D03*
Y-119690D02*
D03*
X484000Y-750D02*
D03*
Y14750D02*
D03*
X480000Y-17250D02*
D03*
Y-32750D02*
D03*
X478763Y96913D02*
D03*
Y81413D02*
D03*
Y116413D02*
D03*
Y131913D02*
D03*
X480762Y209913D02*
D03*
Y194413D02*
D03*
Y228413D02*
D03*
Y243913D02*
D03*
Y322913D02*
D03*
Y307413D02*
D03*
Y343413D02*
D03*
Y358913D02*
D03*
D29*
X-161815Y-202750D02*
D03*
X-177815D02*
D03*
X-168000Y171108D02*
D03*
X-152000D02*
D03*
X23000Y-257000D02*
D03*
X7000D02*
D03*
X259000Y-257000D02*
D03*
X243000D02*
D03*
X180000D02*
D03*
X164000D02*
D03*
X99000Y-258000D02*
D03*
X83000D02*
D03*
D89*
X-164750Y-283950D02*
D03*
X-171250D02*
D03*
X-177750D02*
D03*
X-184250D02*
D03*
X-190750D02*
D03*
X-197250D02*
D03*
X-203750D02*
D03*
X-210250D02*
D03*
Y-226550D02*
D03*
X-203750D02*
D03*
X-197250D02*
D03*
X-190750D02*
D03*
X-184250D02*
D03*
X-177750D02*
D03*
X-171250D02*
D03*
X-164750D02*
D03*
D91*
X-204400Y-347500D02*
D03*
X-186600D02*
D03*
X186900Y-84000D02*
D03*
X169100D02*
D03*
X464900Y14000D02*
D03*
X447100D02*
D03*
X462108Y-34000D02*
D03*
X444307D02*
D03*
X462663Y81163D02*
D03*
X444863D02*
D03*
X462663Y131163D02*
D03*
X444863D02*
D03*
X463662Y194163D02*
D03*
X445863D02*
D03*
X446862Y244163D02*
D03*
X464663D02*
D03*
Y307162D02*
D03*
X446862D02*
D03*
X464663Y358162D02*
D03*
X446862D02*
D03*
X89100Y-85857D02*
D03*
X106900D02*
D03*
X12100Y-84697D02*
D03*
X29900D02*
D03*
X246100Y-84857D02*
D03*
X263900D02*
D03*
D92*
X-65750Y-134250D02*
D03*
X-171750D02*
D03*
X6250Y132250D02*
D03*
X-99750D02*
D03*
D93*
X6000Y-211000D02*
D03*
X82000Y-212160D02*
D03*
X163000Y-211000D02*
D03*
X241000Y-212000D02*
D03*
D94*
X-16799Y-137998D02*
D03*
X28799D02*
D03*
X59201Y-139158D02*
D03*
X104799D02*
D03*
X140201Y-137998D02*
D03*
X185799D02*
D03*
X218201Y-138998D02*
D03*
X263799D02*
D03*
D96*
X-193800Y152250D02*
D03*
Y158750D02*
D03*
Y165250D02*
D03*
Y171750D02*
D03*
Y178250D02*
D03*
Y184750D02*
D03*
Y191250D02*
D03*
Y197750D02*
D03*
X-251200D02*
D03*
Y191250D02*
D03*
Y184750D02*
D03*
Y178250D02*
D03*
Y171750D02*
D03*
Y165250D02*
D03*
Y158750D02*
D03*
Y152250D02*
D03*
M02*
