G04*
G04 #@! TF.GenerationSoftware,Altium Limited,Altium Designer,23.9.2 (47)*
G04*
G04 Layer_Color=32896*
%FSLAX44Y44*%
%MOMM*%
G71*
G04*
G04 #@! TF.SameCoordinates,B0C4C809-8F89-4942-82D6-759F1D8726B9*
G04*
G04*
G04 #@! TF.FilePolarity,Positive*
G04*
G01*
G75*
%ADD15C,0.2540*%
D15*
X-200661Y-233937D02*
X-195583D01*
X-198122D01*
Y-246632D01*
X-195583Y-249172D01*
X-193043D01*
X-190504Y-246632D01*
X-215896Y-233937D02*
X-205739D01*
Y-241554D01*
X-210818Y-239015D01*
X-213357D01*
X-215896Y-241554D01*
Y-246632D01*
X-213357Y-249172D01*
X-208278D01*
X-205739Y-246632D01*
X-276861Y-234953D02*
X-271782D01*
X-274322D01*
Y-247648D01*
X-271782Y-250187D01*
X-269243D01*
X-266704Y-247648D01*
X-281939Y-234953D02*
X-292096D01*
Y-237492D01*
X-281939Y-247648D01*
Y-250187D01*
X-203709Y-170182D02*
X-198631D01*
X-201170D01*
Y-182878D01*
X-198631Y-185417D01*
X-196091D01*
X-193552Y-182878D01*
X-218944Y-170182D02*
X-213866Y-172722D01*
X-208787Y-177800D01*
Y-182878D01*
X-211326Y-185417D01*
X-216405D01*
X-218944Y-182878D01*
Y-180339D01*
X-216405Y-177800D01*
X-208787D01*
X-276353Y-171707D02*
X-271275D01*
X-273814D01*
Y-184402D01*
X-271275Y-186942D01*
X-268735D01*
X-266196Y-184402D01*
X-281431Y-174246D02*
X-283970Y-171707D01*
X-289049D01*
X-291588Y-174246D01*
Y-176785D01*
X-289049Y-179324D01*
X-291588Y-181863D01*
Y-184402D01*
X-289049Y-186942D01*
X-283970D01*
X-281431Y-184402D01*
Y-181863D01*
X-283970Y-179324D01*
X-281431Y-176785D01*
Y-174246D01*
X-283970Y-179324D02*
X-289049D01*
X70357Y-353825D02*
X75436D01*
X72896D01*
Y-366520D01*
X75436Y-369059D01*
X77975D01*
X80514Y-366520D01*
X55122Y-369059D02*
X65279D01*
X55122Y-358903D01*
Y-356364D01*
X57661Y-353825D01*
X62740D01*
X65279Y-356364D01*
X-77525Y-357062D02*
X-72446D01*
X-74985D01*
Y-369758D01*
X-72446Y-372297D01*
X-69907D01*
X-67368Y-369758D01*
X-82603Y-359602D02*
X-85142Y-357062D01*
X-90221D01*
X-92760Y-359602D01*
Y-362141D01*
X-90221Y-364680D01*
X-87681D01*
X-90221D01*
X-92760Y-367219D01*
Y-369758D01*
X-90221Y-372297D01*
X-85142D01*
X-82603Y-369758D01*
M02*
