G04*
G04 #@! TF.GenerationSoftware,Altium Limited,Altium Designer,23.9.2 (47)*
G04*
G04 Layer_Color=8388736*
%FSLAX44Y44*%
%MOMM*%
G71*
G04*
G04 #@! TF.SameCoordinates,B0C4C809-8F89-4942-82D6-759F1D8726B9*
G04*
G04*
G04 #@! TF.FilePolarity,Negative*
G04*
G01*
G75*
%ADD34R,1.0000X1.8000*%
%ADD42R,2.5800X3.5000*%
G04:AMPARAMS|DCode=43|XSize=1.67mm|YSize=0.51mm|CornerRadius=0.1013mm|HoleSize=0mm|Usage=FLASHONLY|Rotation=0.000|XOffset=0mm|YOffset=0mm|HoleType=Round|Shape=RoundedRectangle|*
%AMROUNDEDRECTD43*
21,1,1.6700,0.3075,0,0,0.0*
21,1,1.4675,0.5100,0,0,0.0*
1,1,0.2025,0.7338,-0.1538*
1,1,0.2025,-0.7338,-0.1538*
1,1,0.2025,-0.7338,0.1538*
1,1,0.2025,0.7338,0.1538*
%
%ADD43ROUNDEDRECTD43*%
%ADD44R,3.1000X2.1000*%
%ADD45R,1.4000X1.4000*%
%ADD46R,1.4000X1.4000*%
%ADD47R,2.1000X1.0000*%
%ADD48R,1.0000X2.1000*%
G04:AMPARAMS|DCode=49|XSize=1.4mm|YSize=2mm|CornerRadius=0.375mm|HoleSize=0mm|Usage=FLASHONLY|Rotation=180.000|XOffset=0mm|YOffset=0mm|HoleType=Round|Shape=RoundedRectangle|*
%AMROUNDEDRECTD49*
21,1,1.4000,1.2500,0,0,180.0*
21,1,0.6500,2.0000,0,0,180.0*
1,1,0.7500,-0.3250,0.6250*
1,1,0.7500,0.3250,0.6250*
1,1,0.7500,0.3250,-0.6250*
1,1,0.7500,-0.3250,-0.6250*
%
%ADD49ROUNDEDRECTD49*%
%ADD50R,1.4000X2.0000*%
%ADD51R,0.9500X0.9500*%
%ADD52R,1.7000X1.1000*%
%ADD53R,1.5700X1.2600*%
%ADD54R,1.2600X1.5700*%
%ADD55R,0.9500X0.9500*%
G04:AMPARAMS|DCode=56|XSize=1.41mm|YSize=0.72mm|CornerRadius=0.1275mm|HoleSize=0mm|Usage=FLASHONLY|Rotation=90.000|XOffset=0mm|YOffset=0mm|HoleType=Round|Shape=RoundedRectangle|*
%AMROUNDEDRECTD56*
21,1,1.4100,0.4650,0,0,90.0*
21,1,1.1550,0.7200,0,0,90.0*
1,1,0.2550,0.2325,0.5775*
1,1,0.2550,0.2325,-0.5775*
1,1,0.2550,-0.2325,-0.5775*
1,1,0.2550,-0.2325,0.5775*
%
%ADD56ROUNDEDRECTD56*%
%ADD57R,0.9000X0.9000*%
%ADD58R,1.0100X1.3200*%
%ADD59R,0.9000X0.9000*%
G04:AMPARAMS|DCode=60|XSize=2mm|YSize=0.71mm|CornerRadius=0.0957mm|HoleSize=0mm|Usage=FLASHONLY|Rotation=180.000|XOffset=0mm|YOffset=0mm|HoleType=Round|Shape=RoundedRectangle|*
%AMROUNDEDRECTD60*
21,1,2.0000,0.5185,0,0,180.0*
21,1,1.8085,0.7100,0,0,180.0*
1,1,0.1915,-0.9043,0.2592*
1,1,0.1915,0.9043,0.2592*
1,1,0.1915,0.9043,-0.2592*
1,1,0.1915,-0.9043,-0.2592*
%
%ADD60ROUNDEDRECTD60*%
%ADD61R,1.6500X3.5500*%
%ADD62R,1.6500X1.2000*%
%ADD63R,1.6500X1.2000*%
%ADD64R,0.7000X1.2000*%
%ADD65C,2.1000*%
%ADD66R,1.7000X1.7000*%
%ADD67C,1.7000*%
%ADD68C,1.5580*%
%ADD69C,1.3000*%
%ADD70R,1.0000X1.8000*%
%ADD71P,2.4042X4X180.0*%
%ADD72O,2.7000X1.7000*%
%ADD73C,1.4000*%
%ADD74C,2.9500*%
%ADD75R,1.5580X1.5580*%
%ADD76C,5.1000*%
D34*
X336580Y-146812D02*
D03*
X308580D02*
D03*
D42*
X67308Y-299980D02*
D03*
X-75946Y-298450D02*
D03*
D43*
X96008Y-277230D02*
D03*
Y-283730D02*
D03*
Y-290230D02*
D03*
Y-296730D02*
D03*
Y-303230D02*
D03*
Y-309730D02*
D03*
Y-316230D02*
D03*
Y-322730D02*
D03*
X38608D02*
D03*
Y-316230D02*
D03*
Y-309730D02*
D03*
Y-303230D02*
D03*
Y-296730D02*
D03*
Y-290230D02*
D03*
Y-283730D02*
D03*
Y-277230D02*
D03*
X-104646Y-275700D02*
D03*
Y-282200D02*
D03*
Y-288700D02*
D03*
Y-295200D02*
D03*
Y-301700D02*
D03*
Y-308200D02*
D03*
Y-314700D02*
D03*
Y-321200D02*
D03*
X-47246D02*
D03*
Y-314700D02*
D03*
Y-308200D02*
D03*
Y-301700D02*
D03*
Y-295200D02*
D03*
Y-288700D02*
D03*
Y-282200D02*
D03*
Y-275700D02*
D03*
D44*
X28026Y-201168D02*
D03*
X134026D02*
D03*
X-20660D02*
D03*
X-126660D02*
D03*
D45*
X8143Y255849D02*
D03*
X8440Y237420D02*
D03*
X-9910D02*
D03*
X-28260D02*
D03*
X8143Y218991D02*
D03*
D46*
X-10207Y255849D02*
D03*
X-28260Y255770D02*
D03*
Y219070D02*
D03*
X-10207Y218991D02*
D03*
D47*
X-84910Y312420D02*
D03*
D03*
Y299720D02*
D03*
Y287020D02*
D03*
Y274320D02*
D03*
Y261620D02*
D03*
Y248920D02*
D03*
Y236220D02*
D03*
Y223520D02*
D03*
Y210820D02*
D03*
Y198120D02*
D03*
Y185420D02*
D03*
Y172720D02*
D03*
Y160020D02*
D03*
Y147320D02*
D03*
X85090D02*
D03*
D03*
Y160020D02*
D03*
Y172720D02*
D03*
Y185420D02*
D03*
Y198120D02*
D03*
Y210820D02*
D03*
Y223520D02*
D03*
Y236220D02*
D03*
Y248920D02*
D03*
Y287020D02*
D03*
Y299720D02*
D03*
Y312420D02*
D03*
Y274320D02*
D03*
Y261620D02*
D03*
D48*
X-57060Y137320D02*
D03*
D03*
X-44360D02*
D03*
X-31660D02*
D03*
X-18960D02*
D03*
X-6260D02*
D03*
X6440D02*
D03*
X19140D02*
D03*
X31840D02*
D03*
X44540D02*
D03*
X57240D02*
D03*
D49*
X-94048Y27430D02*
D03*
Y-4570D02*
D03*
X-39048D02*
D03*
D50*
Y27430D02*
D03*
D51*
X-138684Y-295780D02*
D03*
Y-311280D02*
D03*
X206248Y-297056D02*
D03*
Y-281556D02*
D03*
X-138684Y-343792D02*
D03*
Y-328292D02*
D03*
X-188976Y-114176D02*
D03*
X-189230Y-9522D02*
D03*
X169164Y308486D02*
D03*
X169672Y260090D02*
D03*
Y275590D02*
D03*
X4572Y-310264D02*
D03*
Y-294764D02*
D03*
X-168148Y-189868D02*
D03*
Y-174368D02*
D03*
X-168910Y-241306D02*
D03*
Y-225806D02*
D03*
X-188976Y-98676D02*
D03*
X-189230Y-25022D02*
D03*
X-242824Y-246132D02*
D03*
Y-230632D02*
D03*
X-243078Y-188090D02*
D03*
Y-172590D02*
D03*
X169164Y292986D02*
D03*
X-132588Y278006D02*
D03*
Y262506D02*
D03*
X-153924Y263138D02*
D03*
Y278638D02*
D03*
X-169164Y167008D02*
D03*
Y151508D02*
D03*
D52*
X176904Y195326D02*
D03*
X120904D02*
D03*
X176904Y232326D02*
D03*
X120904D02*
D03*
X-125864Y193886D02*
D03*
X-181864D02*
D03*
X-125864Y230886D02*
D03*
X-181864D02*
D03*
D53*
X-211074Y-25410D02*
D03*
Y-7610D02*
D03*
X-207264Y-114056D02*
D03*
Y-96256D02*
D03*
D54*
X60716Y107442D02*
D03*
X133604Y289814D02*
D03*
X133848Y268732D02*
D03*
X42916Y107442D02*
D03*
X151404Y289814D02*
D03*
X151648Y268732D02*
D03*
D55*
X17910Y107442D02*
D03*
X89532Y30988D02*
D03*
X105032D02*
D03*
Y51054D02*
D03*
X89532D02*
D03*
X-133220Y134620D02*
D03*
X-148720D02*
D03*
X2410Y107442D02*
D03*
D56*
X224282Y25078D02*
D03*
X211582D02*
D03*
X173482D02*
D03*
X198882Y80078D02*
D03*
X160782Y25078D02*
D03*
X186182D02*
D03*
X198882D02*
D03*
X186182Y80078D02*
D03*
X211582D02*
D03*
X224282D02*
D03*
X249682D02*
D03*
X236982Y25078D02*
D03*
Y80078D02*
D03*
X249682Y25078D02*
D03*
X173482Y80078D02*
D03*
X160782D02*
D03*
D57*
X-16510Y-263780D02*
D03*
Y-279780D02*
D03*
X198882Y9778D02*
D03*
Y-6222D02*
D03*
X313944Y41910D02*
D03*
Y57910D02*
D03*
X314706Y25780D02*
D03*
Y9780D02*
D03*
X132080Y-279780D02*
D03*
Y-263780D02*
D03*
Y-293498D02*
D03*
Y-309498D02*
D03*
X132334Y-345058D02*
D03*
Y-329058D02*
D03*
X-16510Y-293498D02*
D03*
Y-309498D02*
D03*
X160782Y95124D02*
D03*
Y111124D02*
D03*
X-247142Y-129412D02*
D03*
Y-113412D02*
D03*
X-227584Y-129412D02*
D03*
Y-113412D02*
D03*
X-246888Y-93852D02*
D03*
Y-77852D02*
D03*
X-249174Y-43052D02*
D03*
Y-27052D02*
D03*
X-249428Y10794D02*
D03*
Y-5206D02*
D03*
X-232410Y10794D02*
D03*
Y-5206D02*
D03*
X-231902Y-43306D02*
D03*
Y-27306D02*
D03*
X-228600Y-93344D02*
D03*
Y-77344D02*
D03*
X-114808Y278510D02*
D03*
Y262510D02*
D03*
X-170434Y263018D02*
D03*
Y279018D02*
D03*
X-115570Y315466D02*
D03*
Y299466D02*
D03*
X-138430Y315340D02*
D03*
Y299340D02*
D03*
D58*
X258707Y-147066D02*
D03*
X291457D02*
D03*
D59*
X12826Y-325628D02*
D03*
X-3174D02*
D03*
X149480Y175006D02*
D03*
X165480D02*
D03*
D60*
X64768Y38354D02*
D03*
Y25654D02*
D03*
Y12954D02*
D03*
Y254D02*
D03*
X-5332D02*
D03*
Y12954D02*
D03*
Y25654D02*
D03*
Y38354D02*
D03*
D61*
X-337534Y-16510D02*
D03*
Y-103124D02*
D03*
D62*
X-270034Y6490D02*
D03*
Y-16510D02*
D03*
Y-80124D02*
D03*
Y-103124D02*
D03*
D63*
Y-39510D02*
D03*
Y-126124D02*
D03*
D64*
X-142748Y175322D02*
D03*
X-133248Y151322D02*
D03*
X-152248D02*
D03*
X-174752Y110428D02*
D03*
X-184252Y134428D02*
D03*
X-165252D02*
D03*
D65*
X-218694Y-241808D02*
D03*
X-193294D02*
D03*
X-267208D02*
D03*
X-292608D02*
D03*
X-193294Y-178308D02*
D03*
X-218694D02*
D03*
X-267462Y-179324D02*
D03*
X-292862D02*
D03*
X52324Y-359410D02*
D03*
X77724D02*
D03*
X-67564Y-360680D02*
D03*
X-92964D02*
D03*
X100584Y-39624D02*
D03*
X75184Y-39624D02*
D03*
X-343408Y144018D02*
D03*
Y118618D02*
D03*
D66*
X356870Y129286D02*
D03*
X-219456Y133858D02*
D03*
D67*
X356870Y53086D02*
D03*
X257212Y271362D02*
D03*
X275172Y253402D02*
D03*
X239251Y289323D02*
D03*
X356870Y2286D02*
D03*
Y103886D02*
D03*
Y78486D02*
D03*
X356870Y27686D02*
D03*
X-219456Y260858D02*
D03*
Y210058D02*
D03*
Y159258D02*
D03*
Y184658D02*
D03*
X-219456Y235458D02*
D03*
D68*
X311042Y-58424D02*
D03*
X311042Y-90424D02*
D03*
X336042D02*
D03*
D69*
X-114808Y-60198D02*
D03*
X-134808Y-60198D02*
D03*
X-154808Y-60198D02*
D03*
D70*
X-93308Y-60198D02*
D03*
X-176308D02*
D03*
D71*
X293133Y235441D02*
D03*
D72*
X-340868Y43312D02*
D03*
Y83312D02*
D03*
X-200868D02*
D03*
Y43312D02*
D03*
D73*
X281432Y66040D02*
D03*
Y18040D02*
D03*
D74*
X383542Y-83324D02*
D03*
X263542Y-83324D02*
D03*
D75*
X336042Y-58424D02*
D03*
D76*
X0Y-374650D02*
D03*
X324800Y187500D02*
D03*
X-324684D02*
D03*
M02*
