G04*
G04 #@! TF.GenerationSoftware,Altium Limited,Altium Designer,23.9.2 (47)*
G04*
G04 Layer_Color=16711935*
%FSLAX44Y44*%
%MOMM*%
G71*
G04*
G04 #@! TF.SameCoordinates,B0C4C809-8F89-4942-82D6-759F1D8726B9*
G04*
G04*
G04 #@! TF.FilePolarity,Negative*
G04*
G01*
G75*
%ADD65C,2.1000*%
%ADD66R,1.7000X1.7000*%
%ADD67C,1.7000*%
%ADD68C,1.5580*%
%ADD69C,1.3000*%
%ADD70R,1.0000X1.8000*%
%ADD71P,2.4042X4X180.0*%
%ADD72O,2.7000X1.7000*%
%ADD73C,1.4000*%
%ADD74C,2.9500*%
%ADD75R,1.5580X1.5580*%
%ADD76C,5.1000*%
D65*
X-218694Y-241808D02*
D03*
X-193294D02*
D03*
X-267208D02*
D03*
X-292608D02*
D03*
X-193294Y-178308D02*
D03*
X-218694D02*
D03*
X-267462Y-179324D02*
D03*
X-292862D02*
D03*
X52324Y-359410D02*
D03*
X77724D02*
D03*
X-67564Y-360680D02*
D03*
X-92964D02*
D03*
X100584Y-39624D02*
D03*
X75184Y-39624D02*
D03*
X-343408Y144018D02*
D03*
Y118618D02*
D03*
D66*
X356870Y129286D02*
D03*
X-219456Y133858D02*
D03*
D67*
X356870Y53086D02*
D03*
X257212Y271362D02*
D03*
X275172Y253402D02*
D03*
X239251Y289323D02*
D03*
X356870Y2286D02*
D03*
Y103886D02*
D03*
Y78486D02*
D03*
X356870Y27686D02*
D03*
X-219456Y260858D02*
D03*
Y210058D02*
D03*
Y159258D02*
D03*
Y184658D02*
D03*
X-219456Y235458D02*
D03*
D68*
X311042Y-58424D02*
D03*
X311042Y-90424D02*
D03*
X336042D02*
D03*
D69*
X-114808Y-60198D02*
D03*
X-134808Y-60198D02*
D03*
X-154808Y-60198D02*
D03*
D70*
X-93308Y-60198D02*
D03*
X-176308D02*
D03*
D71*
X293133Y235441D02*
D03*
D72*
X-340868Y43312D02*
D03*
Y83312D02*
D03*
X-200868D02*
D03*
Y43312D02*
D03*
D73*
X281432Y66040D02*
D03*
Y18040D02*
D03*
D74*
X383542Y-83324D02*
D03*
X263542Y-83324D02*
D03*
D75*
X336042Y-58424D02*
D03*
D76*
X0Y-374650D02*
D03*
X324800Y187500D02*
D03*
X-324684D02*
D03*
M02*
