G04*
G04 #@! TF.GenerationSoftware,Altium Limited,Altium Designer,23.9.2 (47)*
G04*
G04 Layer_Color=32768*
%FSLAX44Y44*%
%MOMM*%
G71*
G04*
G04 #@! TF.SameCoordinates,B0C4C809-8F89-4942-82D6-759F1D8726B9*
G04*
G04*
G04 #@! TF.FilePolarity,Positive*
G04*
G01*
G75*
%ADD10C,0.2000*%
%ADD14C,0.1270*%
%ADD15C,0.2540*%
G36*
X29511Y16979D02*
Y16964D01*
Y16920D01*
Y16846D01*
Y16742D01*
X29496Y16608D01*
Y16474D01*
X29481Y16311D01*
X29467Y16132D01*
X29422Y15761D01*
X29363Y15375D01*
X29288Y14988D01*
X29169Y14647D01*
Y14632D01*
X29155Y14602D01*
X29140Y14557D01*
X29110Y14498D01*
X29021Y14349D01*
X28902Y14141D01*
X28739Y13918D01*
X28530Y13681D01*
X28263Y13458D01*
X27966Y13235D01*
X27951D01*
X27921Y13205D01*
X27877Y13190D01*
X27803Y13146D01*
X27728Y13116D01*
X27624Y13072D01*
X27490Y13012D01*
X27357Y12967D01*
X27208Y12923D01*
X27030Y12863D01*
X26851Y12819D01*
X26644Y12789D01*
X26198Y12730D01*
X25693Y12700D01*
X25559D01*
X25470Y12715D01*
X25351D01*
X25217Y12730D01*
X25068Y12745D01*
X24905Y12759D01*
X24548Y12819D01*
X24177Y12893D01*
X23791Y13012D01*
X23449Y13161D01*
X23434D01*
X23404Y13190D01*
X23375Y13205D01*
X23315Y13250D01*
X23152Y13354D01*
X22973Y13517D01*
X22765Y13710D01*
X22572Y13933D01*
X22379Y14216D01*
X22215Y14528D01*
Y14542D01*
X22201Y14572D01*
X22186Y14617D01*
X22156Y14691D01*
X22126Y14780D01*
X22097Y14899D01*
X22067Y15033D01*
X22037Y15181D01*
X21993Y15345D01*
X21963Y15523D01*
X21933Y15731D01*
X21903Y15939D01*
X21874Y16177D01*
X21859Y16430D01*
X21844Y16697D01*
Y16979D01*
Y22626D01*
X23137D01*
Y16979D01*
Y16964D01*
Y16920D01*
Y16861D01*
Y16771D01*
Y16667D01*
X23152Y16549D01*
X23166Y16266D01*
X23196Y15969D01*
X23226Y15657D01*
X23285Y15360D01*
X23315Y15226D01*
X23360Y15107D01*
X23375Y15077D01*
X23404Y15003D01*
X23464Y14899D01*
X23553Y14765D01*
X23657Y14617D01*
X23805Y14453D01*
X23969Y14305D01*
X24177Y14171D01*
X24207Y14156D01*
X24281Y14126D01*
X24400Y14067D01*
X24563Y14023D01*
X24771Y13963D01*
X25009Y13904D01*
X25276Y13874D01*
X25574Y13859D01*
X25707D01*
X25811Y13874D01*
X25930D01*
X26064Y13889D01*
X26361Y13933D01*
X26703Y14023D01*
X27030Y14126D01*
X27342Y14290D01*
X27490Y14379D01*
X27609Y14498D01*
Y14513D01*
X27639Y14528D01*
X27669Y14572D01*
X27698Y14632D01*
X27758Y14706D01*
X27803Y14795D01*
X27862Y14914D01*
X27921Y15048D01*
X27966Y15211D01*
X28025Y15389D01*
X28085Y15583D01*
X28129Y15820D01*
X28159Y16073D01*
X28189Y16341D01*
X28219Y16652D01*
Y16979D01*
Y22626D01*
X29511D01*
Y16979D01*
D02*
G37*
G36*
X37178Y21333D02*
X33285D01*
X32750Y18703D01*
X32765Y18718D01*
X32795Y18733D01*
X32840Y18763D01*
X32899Y18807D01*
X32988Y18852D01*
X33077Y18896D01*
X33315Y19015D01*
X33583Y19134D01*
X33895Y19223D01*
X34236Y19297D01*
X34593Y19327D01*
X34712D01*
X34801Y19312D01*
X34920Y19297D01*
X35039Y19282D01*
X35187Y19253D01*
X35336Y19223D01*
X35678Y19104D01*
X35856Y19045D01*
X36034Y18956D01*
X36228Y18852D01*
X36406Y18733D01*
X36584Y18599D01*
X36748Y18436D01*
X36762Y18421D01*
X36792Y18391D01*
X36837Y18346D01*
X36881Y18272D01*
X36956Y18183D01*
X37030Y18079D01*
X37104Y17960D01*
X37193Y17826D01*
X37283Y17663D01*
X37357Y17500D01*
X37431Y17306D01*
X37505Y17113D01*
X37550Y16890D01*
X37594Y16667D01*
X37624Y16415D01*
X37639Y16162D01*
Y16147D01*
Y16103D01*
Y16028D01*
X37624Y15939D01*
X37609Y15820D01*
X37594Y15687D01*
X37580Y15538D01*
X37550Y15375D01*
X37446Y15018D01*
X37312Y14647D01*
X37223Y14439D01*
X37119Y14245D01*
X37000Y14052D01*
X36866Y13874D01*
X36852Y13859D01*
X36822Y13829D01*
X36762Y13770D01*
X36688Y13696D01*
X36599Y13606D01*
X36480Y13502D01*
X36346Y13398D01*
X36183Y13294D01*
X36019Y13175D01*
X35826Y13072D01*
X35603Y12967D01*
X35380Y12878D01*
X35128Y12804D01*
X34875Y12745D01*
X34593Y12715D01*
X34296Y12700D01*
X34162D01*
X34073Y12715D01*
X33969Y12730D01*
X33835Y12745D01*
X33687Y12759D01*
X33523Y12789D01*
X33181Y12878D01*
X32825Y13012D01*
X32647Y13101D01*
X32468Y13205D01*
X32290Y13309D01*
X32126Y13443D01*
X32112Y13458D01*
X32097Y13473D01*
X32052Y13517D01*
X31993Y13577D01*
X31933Y13651D01*
X31859Y13740D01*
X31785Y13844D01*
X31695Y13963D01*
X31532Y14245D01*
X31369Y14587D01*
X31250Y14973D01*
X31205Y15196D01*
X31175Y15419D01*
X32438Y15508D01*
Y15494D01*
Y15464D01*
X32453Y15419D01*
X32468Y15360D01*
X32513Y15196D01*
X32572Y14988D01*
X32647Y14765D01*
X32765Y14542D01*
X32899Y14320D01*
X33077Y14126D01*
X33107Y14112D01*
X33167Y14052D01*
X33271Y13993D01*
X33419Y13904D01*
X33598Y13829D01*
X33805Y13755D01*
X34043Y13696D01*
X34296Y13681D01*
X34385D01*
X34444Y13696D01*
X34608Y13710D01*
X34816Y13755D01*
X35039Y13844D01*
X35291Y13948D01*
X35529Y14112D01*
X35648Y14201D01*
X35767Y14320D01*
Y14334D01*
X35797Y14349D01*
X35856Y14439D01*
X35960Y14587D01*
X36064Y14780D01*
X36168Y15033D01*
X36272Y15330D01*
X36332Y15672D01*
X36361Y16058D01*
Y16073D01*
Y16103D01*
Y16162D01*
X36346Y16222D01*
Y16311D01*
X36332Y16415D01*
X36287Y16652D01*
X36228Y16905D01*
X36123Y17173D01*
X35975Y17440D01*
X35782Y17678D01*
X35752Y17708D01*
X35678Y17767D01*
X35559Y17871D01*
X35380Y17975D01*
X35173Y18079D01*
X34905Y18183D01*
X34608Y18242D01*
X34281Y18272D01*
X34177D01*
X34073Y18257D01*
X33924Y18242D01*
X33761Y18198D01*
X33583Y18153D01*
X33404Y18079D01*
X33226Y17990D01*
X33211Y17975D01*
X33152Y17945D01*
X33063Y17886D01*
X32959Y17811D01*
X32854Y17708D01*
X32736Y17589D01*
X32617Y17455D01*
X32513Y17306D01*
X31384Y17470D01*
X32334Y22477D01*
X37178D01*
Y21333D01*
D02*
G37*
G36*
X324149Y-79027D02*
Y-79042D01*
Y-79086D01*
Y-79146D01*
Y-79235D01*
X324134Y-79339D01*
Y-79458D01*
X324119Y-79725D01*
X324075Y-80037D01*
X324030Y-80350D01*
X323956Y-80661D01*
X323852Y-80929D01*
X323837Y-80959D01*
X323792Y-81033D01*
X323718Y-81152D01*
X323629Y-81300D01*
X323495Y-81479D01*
X323332Y-81642D01*
X323124Y-81806D01*
X322901Y-81954D01*
X322871Y-81969D01*
X322782Y-82014D01*
X322648Y-82058D01*
X322470Y-82118D01*
X322247Y-82192D01*
X321994Y-82237D01*
X321697Y-82281D01*
X321385Y-82296D01*
X321266D01*
X321177Y-82281D01*
X321073Y-82266D01*
X320939Y-82251D01*
X320657Y-82207D01*
X320345Y-82118D01*
X320018Y-81984D01*
X319855Y-81910D01*
X319706Y-81806D01*
X319557Y-81702D01*
X319424Y-81568D01*
Y-81553D01*
X319394Y-81538D01*
X319364Y-81494D01*
X319320Y-81434D01*
X319260Y-81345D01*
X319216Y-81256D01*
X319142Y-81137D01*
X319082Y-81018D01*
X319023Y-80870D01*
X318963Y-80706D01*
X318904Y-80528D01*
X318859Y-80320D01*
X318815Y-80112D01*
X318785Y-79874D01*
X318770Y-79636D01*
Y-79369D01*
X319929Y-79205D01*
Y-79220D01*
Y-79250D01*
Y-79309D01*
X319944Y-79384D01*
Y-79473D01*
X319959Y-79577D01*
X320003Y-79815D01*
X320048Y-80082D01*
X320122Y-80335D01*
X320226Y-80557D01*
X320286Y-80661D01*
X320345Y-80751D01*
X320360Y-80765D01*
X320419Y-80810D01*
X320494Y-80884D01*
X320612Y-80944D01*
X320761Y-81018D01*
X320939Y-81092D01*
X321147Y-81137D01*
X321385Y-81152D01*
X321474D01*
X321563Y-81137D01*
X321668Y-81122D01*
X321801Y-81092D01*
X321950Y-81063D01*
X322084Y-81003D01*
X322217Y-80929D01*
X322232Y-80914D01*
X322277Y-80884D01*
X322336Y-80840D01*
X322411Y-80765D01*
X322500Y-80691D01*
X322574Y-80587D01*
X322648Y-80468D01*
X322708Y-80335D01*
Y-80320D01*
X322737Y-80260D01*
X322752Y-80171D01*
X322782Y-80037D01*
X322812Y-79859D01*
X322826Y-79651D01*
X322856Y-79398D01*
Y-79101D01*
Y-72370D01*
X324149D01*
Y-79027D01*
D02*
G37*
G36*
X330286Y-82133D02*
X329082D01*
Y-74495D01*
X329067Y-74510D01*
X329008Y-74569D01*
X328904Y-74644D01*
X328770Y-74748D01*
X328607Y-74881D01*
X328414Y-75015D01*
X328191Y-75178D01*
X327938Y-75327D01*
X327923D01*
X327908Y-75342D01*
X327819Y-75401D01*
X327685Y-75476D01*
X327522Y-75565D01*
X327329Y-75669D01*
X327121Y-75758D01*
X326898Y-75862D01*
X326690Y-75951D01*
Y-74777D01*
X326705D01*
X326734Y-74763D01*
X326794Y-74733D01*
X326853Y-74688D01*
X326942Y-74644D01*
X327047Y-74599D01*
X327284Y-74465D01*
X327552Y-74302D01*
X327849Y-74109D01*
X328146Y-73886D01*
X328428Y-73648D01*
X328443Y-73633D01*
X328458Y-73618D01*
X328547Y-73529D01*
X328681Y-73396D01*
X328844Y-73232D01*
X329023Y-73024D01*
X329201Y-72801D01*
X329365Y-72563D01*
X329498Y-72326D01*
X330286D01*
Y-82133D01*
D02*
G37*
D10*
X83087Y-198711D02*
X81420Y-197045D01*
X78088D01*
X76422Y-198711D01*
Y-205376D01*
X78088Y-207042D01*
X81420D01*
X83087Y-205376D01*
X86419Y-207042D02*
X89751D01*
X88085D01*
Y-197045D01*
X86419Y-198711D01*
X-77188Y-196425D02*
X-78854Y-194759D01*
X-82186D01*
X-83852Y-196425D01*
Y-203090D01*
X-82186Y-204756D01*
X-78854D01*
X-77188Y-203090D01*
X-73855Y-204756D02*
X-70523D01*
X-72189D01*
Y-194759D01*
X-73855Y-196425D01*
X-60526Y-204756D02*
Y-194759D01*
X-65525Y-199758D01*
X-58860D01*
D14*
X-172212Y-226314D02*
X-162215D01*
Y-231312D01*
X-163881Y-232978D01*
X-167214D01*
X-168880Y-231312D01*
Y-226314D01*
Y-229646D02*
X-172212Y-232978D01*
X-170546Y-236311D02*
X-172212Y-237977D01*
Y-241309D01*
X-170546Y-242975D01*
X-163881D01*
X-162215Y-241309D01*
Y-237977D01*
X-163881Y-236311D01*
X-165548D01*
X-167214Y-237977D01*
Y-242975D01*
X-143510Y-294386D02*
X-133513D01*
Y-299384D01*
X-135179Y-301050D01*
X-138512D01*
X-140178Y-299384D01*
Y-294386D01*
Y-297718D02*
X-143510Y-301050D01*
X-133513Y-311047D02*
Y-304383D01*
X-138512D01*
X-136846Y-307715D01*
Y-309381D01*
X-138512Y-311047D01*
X-141844D01*
X-143510Y-309381D01*
Y-306049D01*
X-141844Y-304383D01*
X202692Y-276606D02*
X212689D01*
Y-281604D01*
X211023Y-283270D01*
X207690D01*
X206024Y-281604D01*
Y-276606D01*
Y-279938D02*
X202692Y-283270D01*
Y-286603D02*
Y-289935D01*
Y-288269D01*
X212689D01*
X211023Y-286603D01*
Y-294933D02*
X212689Y-296600D01*
Y-299932D01*
X211023Y-301598D01*
X209356D01*
X207690Y-299932D01*
X206024Y-301598D01*
X204358D01*
X202692Y-299932D01*
Y-296600D01*
X204358Y-294933D01*
X206024D01*
X207690Y-296600D01*
X209356Y-294933D01*
X211023D01*
X207690Y-296600D02*
Y-299932D01*
X-142240Y-325120D02*
X-132243D01*
Y-330118D01*
X-133909Y-331785D01*
X-137242D01*
X-138908Y-330118D01*
Y-325120D01*
Y-328452D02*
X-142240Y-331785D01*
Y-335117D02*
Y-338449D01*
Y-336783D01*
X-132243D01*
X-133909Y-335117D01*
X-140574Y-343447D02*
X-142240Y-345114D01*
Y-348446D01*
X-140574Y-350112D01*
X-133909D01*
X-132243Y-348446D01*
Y-345114D01*
X-133909Y-343447D01*
X-135576D01*
X-137242Y-345114D01*
Y-350112D01*
X-13005Y-266761D02*
X-11339Y-265094D01*
Y-261762D01*
X-13005Y-260096D01*
X-19670D01*
X-21336Y-261762D01*
Y-265094D01*
X-19670Y-266761D01*
X-21336Y-270093D02*
Y-273425D01*
Y-271759D01*
X-11339D01*
X-13005Y-270093D01*
Y-278423D02*
X-11339Y-280090D01*
Y-283422D01*
X-13005Y-285088D01*
X-14671D01*
X-16338Y-283422D01*
X-18004Y-285088D01*
X-19670D01*
X-21336Y-283422D01*
Y-280090D01*
X-19670Y-278423D01*
X-18004D01*
X-16338Y-280090D01*
X-14671Y-278423D01*
X-13005D01*
X-16338Y-280090D02*
Y-283422D01*
X203657Y5274D02*
X205323Y6940D01*
Y10272D01*
X203657Y11938D01*
X196992D01*
X195326Y10272D01*
Y6940D01*
X196992Y5274D01*
X195326Y-4723D02*
Y1941D01*
X201991Y-4723D01*
X203657D01*
X205323Y-3057D01*
Y275D01*
X203657Y1941D01*
X195326Y-14720D02*
Y-8056D01*
X201991Y-14720D01*
X203657D01*
X205323Y-13054D01*
Y-9722D01*
X203657Y-8056D01*
X316941Y54804D02*
X318607Y56470D01*
Y59802D01*
X316941Y61468D01*
X310276D01*
X308610Y59802D01*
Y56470D01*
X310276Y54804D01*
X308610Y51471D02*
Y48139D01*
Y49805D01*
X318607D01*
X316941Y51471D01*
X310276Y43141D02*
X308610Y41474D01*
Y38142D01*
X310276Y36476D01*
X316941D01*
X318607Y38142D01*
Y41474D01*
X316941Y43141D01*
X315275D01*
X313608Y41474D01*
Y36476D01*
X318973Y19497D02*
X320639Y21164D01*
Y24496D01*
X318973Y26162D01*
X312308D01*
X310642Y24496D01*
Y21164D01*
X312308Y19497D01*
X310642Y9501D02*
Y16165D01*
X317306Y9501D01*
X318973D01*
X320639Y11167D01*
Y14499D01*
X318973Y16165D01*
Y6168D02*
X320639Y4502D01*
Y1170D01*
X318973Y-496D01*
X312308D01*
X310642Y1170D01*
Y4502D01*
X312308Y6168D01*
X318973D01*
X88646Y25908D02*
Y35905D01*
X93644D01*
X95310Y34239D01*
Y30906D01*
X93644Y29240D01*
X88646D01*
X91978D02*
X95310Y25908D01*
X105307Y35905D02*
X101975Y34239D01*
X98643Y30906D01*
Y27574D01*
X100309Y25908D01*
X103641D01*
X105307Y27574D01*
Y29240D01*
X103641Y30906D01*
X98643D01*
X164846Y277114D02*
X174843D01*
Y272116D01*
X173177Y270450D01*
X169844D01*
X168178Y272116D01*
Y277114D01*
Y273782D02*
X164846Y270450D01*
Y267117D02*
Y263785D01*
Y265451D01*
X174843D01*
X173177Y267117D01*
X164846Y252122D02*
Y258787D01*
X171511Y252122D01*
X173177D01*
X174843Y253788D01*
Y257120D01*
X173177Y258787D01*
X134823Y-266507D02*
X136489Y-264840D01*
Y-261508D01*
X134823Y-259842D01*
X128158D01*
X126492Y-261508D01*
Y-264840D01*
X128158Y-266507D01*
X126492Y-269839D02*
Y-273171D01*
Y-271505D01*
X136489D01*
X134823Y-269839D01*
Y-278169D02*
X136489Y-279836D01*
Y-283168D01*
X134823Y-284834D01*
X128158D01*
X126492Y-283168D01*
Y-279836D01*
X128158Y-278169D01*
X134823D01*
X135839Y-301812D02*
X137505Y-300146D01*
Y-296814D01*
X135839Y-295148D01*
X129174D01*
X127508Y-296814D01*
Y-300146D01*
X129174Y-301812D01*
X127508Y-311809D02*
Y-305145D01*
X134172Y-311809D01*
X135839D01*
X137505Y-310143D01*
Y-306811D01*
X135839Y-305145D01*
X135585Y-337118D02*
X137251Y-335452D01*
Y-332120D01*
X135585Y-330454D01*
X128920D01*
X127254Y-332120D01*
Y-335452D01*
X128920Y-337118D01*
X135585Y-340451D02*
X137251Y-342117D01*
Y-345449D01*
X135585Y-347115D01*
X133919D01*
X132252Y-345449D01*
Y-343783D01*
Y-345449D01*
X130586Y-347115D01*
X128920D01*
X127254Y-345449D01*
Y-342117D01*
X128920Y-340451D01*
X254Y-295402D02*
X10251D01*
Y-300400D01*
X8585Y-302066D01*
X5252D01*
X3586Y-300400D01*
Y-295402D01*
Y-298734D02*
X254Y-302066D01*
X8585Y-305399D02*
X10251Y-307065D01*
Y-310397D01*
X8585Y-312063D01*
X6919D01*
X5252Y-310397D01*
Y-308731D01*
Y-310397D01*
X3586Y-312063D01*
X1920D01*
X254Y-310397D01*
Y-307065D01*
X1920Y-305399D01*
X314Y-320853D02*
X-1352Y-319187D01*
X-4684D01*
X-6350Y-320853D01*
Y-327518D01*
X-4684Y-329184D01*
X-1352D01*
X314Y-327518D01*
X3647Y-329184D02*
X6979D01*
X5313D01*
Y-319187D01*
X3647Y-320853D01*
X18642Y-319187D02*
X15310Y-320853D01*
X11977Y-324186D01*
Y-327518D01*
X13644Y-329184D01*
X16976D01*
X18642Y-327518D01*
Y-325852D01*
X16976Y-324186D01*
X11977D01*
X-13005Y-297241D02*
X-11339Y-295574D01*
Y-292242D01*
X-13005Y-290576D01*
X-19670D01*
X-21336Y-292242D01*
Y-295574D01*
X-19670Y-297241D01*
X-21336Y-300573D02*
Y-303905D01*
Y-302239D01*
X-11339D01*
X-13005Y-300573D01*
X-11339Y-315568D02*
Y-308903D01*
X-16338D01*
X-14671Y-312236D01*
Y-313902D01*
X-16338Y-315568D01*
X-19670D01*
X-21336Y-313902D01*
Y-310570D01*
X-19670Y-308903D01*
X-274462Y69514D02*
X-281127D01*
Y64516D01*
X-277794D01*
X-281127D01*
Y59518D01*
X-264465D02*
X-271130D01*
X-264465Y66182D01*
Y67848D01*
X-266131Y69514D01*
X-269464D01*
X-271130Y67848D01*
X-172212Y-169418D02*
X-162215D01*
Y-174416D01*
X-163881Y-176082D01*
X-167214D01*
X-168880Y-174416D01*
Y-169418D01*
Y-172750D02*
X-172212Y-176082D01*
Y-179415D02*
Y-182747D01*
Y-181081D01*
X-162215D01*
X-163881Y-179415D01*
Y-187745D02*
X-162215Y-189412D01*
Y-192744D01*
X-163881Y-194410D01*
X-170546D01*
X-172212Y-192744D01*
Y-189412D01*
X-170546Y-187745D01*
X-163881D01*
X88552Y43324D02*
Y53321D01*
X93550D01*
X95217Y51655D01*
Y48322D01*
X93550Y46656D01*
X88552D01*
X91884D02*
X95217Y43324D01*
X98549Y53321D02*
X105213D01*
Y51655D01*
X98549Y44990D01*
Y43324D01*
X164541Y107889D02*
X166207Y109556D01*
Y112888D01*
X164541Y114554D01*
X157876D01*
X156210Y112888D01*
Y109556D01*
X157876Y107889D01*
X156210Y97893D02*
Y104557D01*
X162875Y97893D01*
X164541D01*
X166207Y99559D01*
Y102891D01*
X164541Y104557D01*
Y94560D02*
X166207Y92894D01*
Y89562D01*
X164541Y87896D01*
X162875D01*
X161208Y89562D01*
Y91228D01*
Y89562D01*
X159542Y87896D01*
X157876D01*
X156210Y89562D01*
Y92894D01*
X157876Y94560D01*
X-241605Y-117916D02*
X-239939Y-116250D01*
Y-112918D01*
X-241605Y-111252D01*
X-248270D01*
X-249936Y-112918D01*
Y-116250D01*
X-248270Y-117916D01*
X-249936Y-127913D02*
Y-121249D01*
X-243272Y-127913D01*
X-241605D01*
X-239939Y-126247D01*
Y-122915D01*
X-241605Y-121249D01*
X-239939Y-137910D02*
X-241605Y-134578D01*
X-244938Y-131246D01*
X-248270D01*
X-249936Y-132912D01*
Y-136244D01*
X-248270Y-137910D01*
X-246604D01*
X-244938Y-136244D01*
Y-131246D01*
X-222047Y-117916D02*
X-220381Y-116250D01*
Y-112918D01*
X-222047Y-111252D01*
X-228712D01*
X-230378Y-112918D01*
Y-116250D01*
X-228712Y-117916D01*
X-230378Y-127913D02*
Y-121249D01*
X-223713Y-127913D01*
X-222047D01*
X-220381Y-126247D01*
Y-122915D01*
X-222047Y-121249D01*
X-230378Y-136244D02*
X-220381D01*
X-225380Y-131246D01*
Y-137910D01*
X-243383Y-83118D02*
X-241717Y-81452D01*
Y-78120D01*
X-243383Y-76454D01*
X-250048D01*
X-251714Y-78120D01*
Y-81452D01*
X-250048Y-83118D01*
Y-86451D02*
X-251714Y-88117D01*
Y-91449D01*
X-250048Y-93115D01*
X-243383D01*
X-241717Y-91449D01*
Y-88117D01*
X-243383Y-86451D01*
X-245049D01*
X-246716Y-88117D01*
Y-93115D01*
X-248573Y-32987D02*
X-246907Y-31320D01*
Y-27988D01*
X-248573Y-26322D01*
X-255238D01*
X-256904Y-27988D01*
Y-31320D01*
X-255238Y-32987D01*
X-246907Y-36319D02*
Y-42983D01*
X-248573D01*
X-255238Y-36319D01*
X-256904D01*
X-245161Y4766D02*
X-243495Y6432D01*
Y9764D01*
X-245161Y11430D01*
X-251826D01*
X-253492Y9764D01*
Y6432D01*
X-251826Y4766D01*
X-243495Y-5231D02*
Y1433D01*
X-248494D01*
X-246828Y-1899D01*
Y-3565D01*
X-248494Y-5231D01*
X-251826D01*
X-253492Y-3565D01*
Y-233D01*
X-251826Y1433D01*
X-228143Y3496D02*
X-226477Y5162D01*
Y8494D01*
X-228143Y10160D01*
X-234808D01*
X-236474Y8494D01*
Y5162D01*
X-234808Y3496D01*
X-236474Y-4835D02*
X-226477D01*
X-231476Y163D01*
Y-6501D01*
X-231301Y-33240D02*
X-229635Y-31574D01*
Y-28242D01*
X-231301Y-26576D01*
X-237966D01*
X-239632Y-28242D01*
Y-31574D01*
X-237966Y-33240D01*
X-229635Y-43237D02*
X-231301Y-39905D01*
X-234634Y-36573D01*
X-237966D01*
X-239632Y-38239D01*
Y-41571D01*
X-237966Y-43237D01*
X-236300D01*
X-234634Y-41571D01*
Y-36573D01*
X-192278Y-92456D02*
X-182281D01*
Y-97454D01*
X-183947Y-99121D01*
X-187280D01*
X-188946Y-97454D01*
Y-92456D01*
Y-95788D02*
X-192278Y-99121D01*
Y-102453D02*
Y-105785D01*
Y-104119D01*
X-182281D01*
X-183947Y-102453D01*
Y-110783D02*
X-182281Y-112450D01*
Y-115782D01*
X-183947Y-117448D01*
X-185613D01*
X-187280Y-115782D01*
Y-114116D01*
Y-115782D01*
X-188946Y-117448D01*
X-190612D01*
X-192278Y-115782D01*
Y-112450D01*
X-190612Y-110783D01*
X-221285Y-83118D02*
X-219619Y-81452D01*
Y-78120D01*
X-221285Y-76454D01*
X-227950D01*
X-229616Y-78120D01*
Y-81452D01*
X-227950Y-83118D01*
X-221285Y-86451D02*
X-219619Y-88117D01*
Y-91449D01*
X-221285Y-93115D01*
X-222952D01*
X-224618Y-91449D01*
X-226284Y-93115D01*
X-227950D01*
X-229616Y-91449D01*
Y-88117D01*
X-227950Y-86451D01*
X-226284D01*
X-224618Y-88117D01*
X-222952Y-86451D01*
X-221285D01*
X-224618Y-88117D02*
Y-91449D01*
X-196960Y-8542D02*
X-186963D01*
Y-13541D01*
X-188629Y-15207D01*
X-191961D01*
X-193628Y-13541D01*
Y-8542D01*
Y-11874D02*
X-196960Y-15207D01*
Y-18539D02*
Y-21871D01*
Y-20205D01*
X-186963D01*
X-188629Y-18539D01*
X-196960Y-31868D02*
X-186963D01*
X-191961Y-26870D01*
Y-33534D01*
X-246888Y-226314D02*
X-236891D01*
Y-231312D01*
X-238557Y-232978D01*
X-241890D01*
X-243556Y-231312D01*
Y-226314D01*
Y-229646D02*
X-246888Y-232978D01*
Y-236311D02*
Y-239643D01*
Y-237977D01*
X-236891D01*
X-238557Y-236311D01*
X-236891Y-251306D02*
X-238557Y-247974D01*
X-241890Y-244641D01*
X-245222D01*
X-246888Y-246308D01*
Y-249640D01*
X-245222Y-251306D01*
X-243556D01*
X-241890Y-249640D01*
Y-244641D01*
X-246888Y-169418D02*
X-236891D01*
Y-174416D01*
X-238557Y-176082D01*
X-241890D01*
X-243556Y-174416D01*
Y-169418D01*
Y-172750D02*
X-246888Y-176082D01*
Y-179415D02*
Y-182747D01*
Y-181081D01*
X-236891D01*
X-238557Y-179415D01*
X-236891Y-187745D02*
Y-194410D01*
X-238557D01*
X-245222Y-187745D01*
X-246888D01*
X161434Y309466D02*
X171431D01*
Y304468D01*
X169765Y302801D01*
X166432D01*
X164766Y304468D01*
Y309466D01*
Y306134D02*
X161434Y302801D01*
Y299469D02*
Y296137D01*
Y297803D01*
X171431D01*
X169765Y299469D01*
X161434Y291139D02*
Y287806D01*
Y289472D01*
X171431D01*
X169765Y291139D01*
X-109779Y274259D02*
X-108113Y275926D01*
Y279258D01*
X-109779Y280924D01*
X-116444D01*
X-118110Y279258D01*
Y275926D01*
X-116444Y274259D01*
X-118110Y270927D02*
Y267595D01*
Y269261D01*
X-108113D01*
X-109779Y270927D01*
Y262597D02*
X-108113Y260930D01*
Y257598D01*
X-109779Y255932D01*
X-111446D01*
X-113112Y257598D01*
Y259264D01*
Y257598D01*
X-114778Y255932D01*
X-116444D01*
X-118110Y257598D01*
Y260930D01*
X-116444Y262597D01*
X-140318Y278986D02*
X-130321D01*
Y273988D01*
X-131987Y272321D01*
X-135320D01*
X-136986Y273988D01*
Y278986D01*
Y275654D02*
X-140318Y272321D01*
Y268989D02*
Y265657D01*
Y267323D01*
X-130321D01*
X-131987Y268989D01*
X-157988Y279908D02*
X-147991D01*
Y274910D01*
X-149657Y273244D01*
X-152990D01*
X-154656Y274910D01*
Y279908D01*
Y276576D02*
X-157988Y273244D01*
Y263247D02*
Y269911D01*
X-151323Y263247D01*
X-149657D01*
X-147991Y264913D01*
Y268245D01*
X-149657Y269911D01*
X-166421Y275529D02*
X-164755Y277196D01*
Y280528D01*
X-166421Y282194D01*
X-173086D01*
X-174752Y280528D01*
Y277196D01*
X-173086Y275529D01*
X-174752Y272197D02*
Y268865D01*
Y270531D01*
X-164755D01*
X-166421Y272197D01*
X-174752Y257202D02*
Y263867D01*
X-168088Y257202D01*
X-166421D01*
X-164755Y258868D01*
Y262200D01*
X-166421Y263867D01*
X-173482Y167386D02*
X-163485D01*
Y162388D01*
X-165151Y160721D01*
X-168484D01*
X-170150Y162388D01*
Y167386D01*
Y164054D02*
X-173482Y160721D01*
Y152391D02*
X-163485D01*
X-168484Y157389D01*
Y150725D01*
X-149098Y129286D02*
Y139283D01*
X-144100D01*
X-142434Y137617D01*
Y134284D01*
X-144100Y132618D01*
X-149098D01*
X-145766D02*
X-142434Y129286D01*
X-139101Y137617D02*
X-137435Y139283D01*
X-134103D01*
X-132437Y137617D01*
Y135950D01*
X-134103Y134284D01*
X-132437Y132618D01*
Y130952D01*
X-134103Y129286D01*
X-137435D01*
X-139101Y130952D01*
Y132618D01*
X-137435Y134284D01*
X-139101Y135950D01*
Y137617D01*
X-137435Y134284D02*
X-134103D01*
X155415Y175607D02*
X153749Y177273D01*
X150416D01*
X148750Y175607D01*
Y168942D01*
X150416Y167276D01*
X153749D01*
X155415Y168942D01*
X158747Y167276D02*
X162079D01*
X160413D01*
Y177273D01*
X158747Y175607D01*
X167078Y167276D02*
X170410D01*
X168744D01*
Y177273D01*
X167078Y175607D01*
X-762Y102870D02*
Y112867D01*
X4236D01*
X5903Y111201D01*
Y107868D01*
X4236Y106202D01*
X-762D01*
X2570D02*
X5903Y102870D01*
X9235D02*
X12567D01*
X10901D01*
Y112867D01*
X9235Y111201D01*
X24230Y112867D02*
X17565D01*
Y107868D01*
X20898Y109535D01*
X22564D01*
X24230Y107868D01*
Y104536D01*
X22564Y102870D01*
X19232D01*
X17565Y104536D01*
X-112065Y314391D02*
X-110399Y316058D01*
Y319390D01*
X-112065Y321056D01*
X-118730D01*
X-120396Y319390D01*
Y316058D01*
X-118730Y314391D01*
X-120396Y304395D02*
Y311059D01*
X-113731Y304395D01*
X-112065D01*
X-110399Y306061D01*
Y309393D01*
X-112065Y311059D01*
X-110399Y294398D02*
Y301062D01*
X-115398D01*
X-113731Y297730D01*
Y296064D01*
X-115398Y294398D01*
X-118730D01*
X-120396Y296064D01*
Y299396D01*
X-118730Y301062D01*
X-133655Y313375D02*
X-131989Y315042D01*
Y318374D01*
X-133655Y320040D01*
X-140320D01*
X-141986Y318374D01*
Y315042D01*
X-140320Y313375D01*
X-141986Y303379D02*
Y310043D01*
X-135322Y303379D01*
X-133655D01*
X-131989Y305045D01*
Y308377D01*
X-133655Y310043D01*
X-131989Y300046D02*
Y293382D01*
X-133655D01*
X-140320Y300046D01*
X-141986D01*
D15*
X-75181Y19302D02*
Y16762D01*
X-70102Y11684D01*
X-65024Y16762D01*
Y19302D01*
X-70102Y11684D02*
Y4067D01*
X-59946D02*
X-54867D01*
X-57406D01*
Y19302D01*
X-59946Y16762D01*
X138747Y218619D02*
X136208Y221158D01*
X131130D01*
X128590Y218619D01*
Y216080D01*
X131130Y213541D01*
X136208D01*
X138747Y211002D01*
Y208463D01*
X136208Y205923D01*
X131130D01*
X128590Y208463D01*
X143826Y221158D02*
Y205923D01*
X151443D01*
X153982Y208463D01*
Y211002D01*
X151443Y213541D01*
X143826D01*
X151443D01*
X153982Y216080D01*
Y218619D01*
X151443Y221158D01*
X143826D01*
X169217Y205923D02*
X159061D01*
X169217Y216080D01*
Y218619D01*
X166678Y221158D01*
X161600D01*
X159061Y218619D01*
X-204473Y-3306D02*
X-219708D01*
Y-10924D01*
X-217168Y-13463D01*
X-207012D01*
X-204473Y-10924D01*
Y-3306D01*
X-207012Y-18541D02*
X-204473Y-21080D01*
Y-26159D01*
X-207012Y-28698D01*
X-209551D01*
X-212090Y-26159D01*
Y-23619D01*
Y-26159D01*
X-214629Y-28698D01*
X-217168D01*
X-219708Y-26159D01*
Y-21080D01*
X-217168Y-18541D01*
X-197614Y-91952D02*
X-212850D01*
Y-99570D01*
X-210310Y-102109D01*
X-200154D01*
X-197614Y-99570D01*
Y-91952D01*
X-212850Y-117344D02*
Y-107187D01*
X-202693Y-117344D01*
X-200154D01*
X-197614Y-114805D01*
Y-109726D01*
X-200154Y-107187D01*
X103890Y113790D02*
Y98554D01*
X111508D01*
X114047Y101094D01*
Y111250D01*
X111508Y113790D01*
X103890D01*
X126743Y98554D02*
Y113790D01*
X119125Y106172D01*
X129282D01*
X129544Y297686D02*
Y282451D01*
X137162D01*
X139701Y284990D01*
Y295146D01*
X137162Y297686D01*
X129544D01*
X154936D02*
X144779D01*
Y290068D01*
X149858Y292607D01*
X152397D01*
X154936Y290068D01*
Y284990D01*
X152397Y282451D01*
X147318D01*
X144779Y284990D01*
X129544Y277365D02*
Y262131D01*
X137162D01*
X139701Y264670D01*
Y274826D01*
X137162Y277365D01*
X129544D01*
X154936D02*
X149858Y274826D01*
X144779Y269748D01*
Y264670D01*
X147318Y262131D01*
X152397D01*
X154936Y264670D01*
Y267209D01*
X152397Y269748D01*
X144779D01*
X263909Y-138687D02*
Y-153921D01*
X271527D01*
X274066Y-151382D01*
Y-141226D01*
X271527Y-138687D01*
X263909D01*
X279144Y-153921D02*
X284223D01*
X281684D01*
Y-138687D01*
X279144Y-141226D01*
X85345Y-36832D02*
X80267D01*
X82806D01*
Y-49528D01*
X80267Y-52067D01*
X77727D01*
X75188Y-49528D01*
X98041Y-52067D02*
Y-36832D01*
X90423Y-44450D01*
X100580D01*
X264024Y273545D02*
X260433Y277136D01*
X262229Y275340D01*
X253251Y266363D01*
X249660D01*
X247865Y268158D01*
Y271749D01*
X256842Y259181D02*
X260433Y255590D01*
X258638Y257385D01*
X269411Y268158D01*
X265820D01*
X271206Y244817D02*
X281979Y255590D01*
X271206D01*
X278388Y248408D01*
X53848Y-290327D02*
Y-303023D01*
X56387Y-305562D01*
X61466D01*
X64005Y-303023D01*
Y-290327D01*
X69083Y-292866D02*
X71622Y-290327D01*
X76701D01*
X79240Y-292866D01*
Y-295405D01*
X76701Y-297945D01*
X74161D01*
X76701D01*
X79240Y-300484D01*
Y-303023D01*
X76701Y-305562D01*
X71622D01*
X69083Y-303023D01*
X-87376Y-292105D02*
Y-304801D01*
X-84837Y-307340D01*
X-79759D01*
X-77219Y-304801D01*
Y-292105D01*
X-64523Y-307340D02*
Y-292105D01*
X-72141Y-299722D01*
X-61984D01*
X267212Y51052D02*
Y48512D01*
X272290Y43434D01*
X277369Y48512D01*
Y51052D01*
X272290Y43434D02*
Y35817D01*
X292604D02*
X282447D01*
X292604Y45973D01*
Y48512D01*
X290065Y51052D01*
X284986D01*
X282447Y48512D01*
X-349501Y140968D02*
X-354580D01*
X-352040D01*
Y128272D01*
X-354580Y125732D01*
X-357119D01*
X-359658Y128272D01*
X-344423Y125732D02*
X-339344D01*
X-341884D01*
Y140968D01*
X-344423Y138428D01*
X-321570Y125732D02*
X-331727D01*
X-321570Y135889D01*
Y138428D01*
X-324109Y140968D01*
X-329188D01*
X-331727Y138428D01*
X-312671Y-5845D02*
Y-18540D01*
X-310131Y-21079D01*
X-305053D01*
X-302514Y-18540D01*
Y-5845D01*
X-297436Y-21079D02*
X-292357D01*
X-294896D01*
Y-5845D01*
X-297436Y-8384D01*
X-315718Y-96269D02*
Y-108964D01*
X-313179Y-111503D01*
X-308100D01*
X-305561Y-108964D01*
Y-96269D01*
X-290326Y-111503D02*
X-300483D01*
X-290326Y-101347D01*
Y-98808D01*
X-292865Y-96269D01*
X-297944D01*
X-300483Y-98808D01*
X-17774Y-382267D02*
Y-367033D01*
X-12696Y-372111D01*
X-7617Y-367033D01*
Y-382267D01*
X-2539Y-367033D02*
Y-382267D01*
Y-374650D01*
X7618D01*
Y-367033D01*
Y-382267D01*
X12696D02*
X17774D01*
X15235D01*
Y-367033D01*
X12696Y-369572D01*
X352807Y77214D02*
X347729D01*
X350268D01*
Y64518D01*
X347729Y61979D01*
X345189D01*
X342650Y64518D01*
X357885D02*
X360424Y61979D01*
X365503D01*
X368042Y64518D01*
Y74674D01*
X365503Y77214D01*
X360424D01*
X357885Y74674D01*
Y72135D01*
X360424Y69596D01*
X368042D01*
X-210823Y213357D02*
Y218435D01*
Y215896D01*
X-223518D01*
X-226057Y218435D01*
Y220975D01*
X-223518Y223514D01*
X-226057Y208279D02*
Y203200D01*
Y205740D01*
X-210823D01*
X-213362Y208279D01*
Y195583D02*
X-210823Y193044D01*
Y187965D01*
X-213362Y185426D01*
X-215901D01*
X-218440Y187965D01*
Y190504D01*
Y187965D01*
X-220979Y185426D01*
X-223518D01*
X-226057Y187965D01*
Y193044D01*
X-223518Y195583D01*
X-163827Y216914D02*
X-166367Y219454D01*
X-171445D01*
X-173984Y216914D01*
Y214375D01*
X-171445Y211836D01*
X-166367D01*
X-163827Y209297D01*
Y206758D01*
X-166367Y204219D01*
X-171445D01*
X-173984Y206758D01*
X-158749Y219454D02*
Y204219D01*
X-151132D01*
X-148592Y206758D01*
Y209297D01*
X-151132Y211836D01*
X-158749D01*
X-151132D01*
X-148592Y214375D01*
Y216914D01*
X-151132Y219454D01*
X-158749D01*
X-143514Y204219D02*
X-138436D01*
X-140975D01*
Y219454D01*
X-143514Y216914D01*
X-143002Y156466D02*
Y166622D01*
X-145541Y169161D01*
X-150619D01*
X-153159Y166622D01*
Y156466D01*
X-150619Y153926D01*
X-145541D01*
X-148080Y159005D02*
X-143002Y153926D01*
X-145541D02*
X-143002Y156466D01*
X-137924Y153926D02*
X-132845D01*
X-135384D01*
Y169161D01*
X-137924Y166622D01*
X-175513Y117604D02*
Y127760D01*
X-178052Y130300D01*
X-183131D01*
X-185670Y127760D01*
Y117604D01*
X-183131Y115064D01*
X-178052D01*
X-180592Y120143D02*
X-175513Y115064D01*
X-178052D02*
X-175513Y117604D01*
X-160278Y115064D02*
X-170435D01*
X-160278Y125221D01*
Y127760D01*
X-162817Y130300D01*
X-167896D01*
X-170435Y127760D01*
X-345113Y179883D02*
Y195117D01*
X-340035Y190039D01*
X-334957Y195117D01*
Y179883D01*
X-329878Y195117D02*
Y179883D01*
Y187500D01*
X-319722D01*
Y195117D01*
Y179883D01*
X-304487D02*
X-314643D01*
X-304487Y190039D01*
Y192578D01*
X-307026Y195117D01*
X-312104D01*
X-314643Y192578D01*
X304487Y179883D02*
Y195117D01*
X309565Y190039D01*
X314643Y195117D01*
Y179883D01*
X319722Y195117D02*
Y179883D01*
Y187500D01*
X329878D01*
Y195117D01*
Y179883D01*
X334957Y192578D02*
X337496Y195117D01*
X342574D01*
X345113Y192578D01*
Y190039D01*
X342574Y187500D01*
X340035D01*
X342574D01*
X345113Y184961D01*
Y182422D01*
X342574Y179883D01*
X337496D01*
X334957Y182422D01*
M02*
