%TF.GenerationSoftware,Altium Limited,Altium Designer,22.5.1 (42)*%
G04 Layer_Color=32896*
%FSLAX44Y44*%
%MOMM*%
%TF.SameCoordinates,FC5E5A78-ED25-47B3-91C5-E03428921660*%
%TF.FilePolarity,Positive*%
%TF.FileFunction,Other,Bottom_Designator*%
%TF.Part,Single*%
G01*
G75*
%TA.AperFunction,NonConductor*%
%ADD59C,0.2000*%
%ADD60C,0.2540*%
%ADD61C,0.1270*%
D59*
X-79825Y-141619D02*
X-78158Y-139953D01*
X-74826D01*
X-73160Y-141619D01*
Y-148284D01*
X-74826Y-149950D01*
X-78158D01*
X-79825Y-148284D01*
X-88155Y-149950D02*
Y-139953D01*
X-83157Y-144951D01*
X-89821D01*
X-93154Y-149950D02*
X-96486D01*
X-94820D01*
Y-139953D01*
X-93154Y-141619D01*
X-85675Y139619D02*
X-87342Y137953D01*
X-90674D01*
X-92340Y139619D01*
Y146284D01*
X-90674Y147950D01*
X-87342D01*
X-85675Y146284D01*
X-77345Y147950D02*
Y137953D01*
X-82343Y142952D01*
X-75679D01*
X-72347Y137953D02*
X-65682D01*
Y139619D01*
X-72347Y146284D01*
Y147950D01*
D60*
X-184725Y-287210D02*
X-197421D01*
X-199960Y-284671D01*
Y-279592D01*
X-197421Y-277053D01*
X-184725D01*
Y-261818D02*
X-187264Y-266897D01*
X-192342Y-271975D01*
X-197421D01*
X-199960Y-269436D01*
Y-264357D01*
X-197421Y-261818D01*
X-194882D01*
X-192342Y-264357D01*
Y-271975D01*
X-149774Y-353848D02*
Y-338613D01*
X-142156D01*
X-139617Y-341152D01*
Y-351308D01*
X-142156Y-353848D01*
X-149774D01*
X-134539Y-338613D02*
X-129460D01*
X-132000D01*
Y-353848D01*
X-134539Y-351308D01*
X-121843D02*
X-119304Y-353848D01*
X-114225D01*
X-111686Y-351308D01*
Y-341152D01*
X-114225Y-338613D01*
X-119304D01*
X-121843Y-341152D01*
Y-351308D01*
X357118Y12996D02*
X341883D01*
Y5378D01*
X344422Y2839D01*
X349500D01*
X352039Y5378D01*
Y12996D01*
X357118Y-12396D02*
Y-2239D01*
X346961Y-12396D01*
X344422D01*
X341883Y-9857D01*
Y-4778D01*
X344422Y-2239D01*
X-342882Y10457D02*
X-358117D01*
Y2839D01*
X-355578Y300D01*
X-350500D01*
X-347961Y2839D01*
Y10457D01*
X-342882Y-4778D02*
Y-9857D01*
Y-7318D01*
X-358117D01*
X-355578Y-4778D01*
X224994Y-90348D02*
Y-75113D01*
X232612D01*
X235151Y-77652D01*
Y-87808D01*
X232612Y-90348D01*
X224994D01*
X240229Y-87808D02*
X242768Y-90348D01*
X247847D01*
X250386Y-87808D01*
Y-85269D01*
X247847Y-82730D01*
X250386Y-80191D01*
Y-77652D01*
X247847Y-75113D01*
X242768D01*
X240229Y-77652D01*
Y-80191D01*
X242768Y-82730D01*
X240229Y-85269D01*
Y-87808D01*
X242768Y-82730D02*
X247847D01*
X413116Y137510D02*
Y122275D01*
X405499D01*
X402960Y124814D01*
Y134971D01*
X405499Y137510D01*
X413116D01*
X397881Y122275D02*
X392803D01*
X395342D01*
Y137510D01*
X397881Y134971D01*
X385186Y124814D02*
X382646Y122275D01*
X377568D01*
X375029Y124814D01*
Y134971D01*
X377568Y137510D01*
X382646D01*
X385186Y134971D01*
Y132432D01*
X382646Y129893D01*
X375029D01*
X-305653Y208457D02*
X-320887D01*
Y216074D01*
X-318348Y218613D01*
X-308192D01*
X-305653Y216074D01*
Y208457D01*
X-320887Y233848D02*
Y223692D01*
X-310731Y233848D01*
X-308192D01*
X-305653Y231309D01*
Y226231D01*
X-308192Y223692D01*
X-320887Y246544D02*
X-305653D01*
X-313270Y238927D01*
Y249083D01*
X36484Y-177106D02*
Y-164410D01*
X39023Y-161871D01*
X44102D01*
X46641Y-164410D01*
Y-177106D01*
X51719D02*
X61876D01*
Y-174567D01*
X51719Y-164410D01*
Y-161871D01*
X112484Y-178267D02*
Y-165571D01*
X115023Y-163032D01*
X120102D01*
X122641Y-165571D01*
Y-178267D01*
X137876D02*
X127719D01*
Y-170649D01*
X132798Y-173188D01*
X135337D01*
X137876Y-170649D01*
Y-165571D01*
X135337Y-163032D01*
X130258D01*
X127719Y-165571D01*
X193484Y-177106D02*
Y-164410D01*
X196023Y-161871D01*
X201102D01*
X203641Y-164410D01*
Y-177106D01*
X216337Y-161871D02*
Y-177106D01*
X208719Y-169489D01*
X218876D01*
X271484Y-178106D02*
Y-165410D01*
X274023Y-162871D01*
X279102D01*
X281641Y-165410D01*
Y-178106D01*
X286719Y-175567D02*
X289258Y-178106D01*
X294337D01*
X296876Y-175567D01*
Y-173028D01*
X294337Y-170489D01*
X291798D01*
X294337D01*
X296876Y-167950D01*
Y-165410D01*
X294337Y-162871D01*
X289258D01*
X286719Y-165410D01*
X414084Y20347D02*
Y5113D01*
X406467D01*
X403927Y7652D01*
Y17808D01*
X406467Y20347D01*
X414084D01*
X388692Y5113D02*
X398849D01*
X388692Y15269D01*
Y17808D01*
X391232Y20347D01*
X396310D01*
X398849Y17808D01*
X383614Y5113D02*
X378536D01*
X381075D01*
Y20347D01*
X383614Y17808D01*
X413831Y-27652D02*
Y-42888D01*
X406213D01*
X403674Y-40348D01*
Y-30192D01*
X406213Y-27652D01*
X413831D01*
X388439Y-42888D02*
X398596D01*
X388439Y-32731D01*
Y-30192D01*
X390978Y-27652D01*
X396057D01*
X398596Y-30192D01*
X373204Y-42888D02*
X383361D01*
X373204Y-32731D01*
Y-30192D01*
X375743Y-27652D01*
X380821D01*
X383361Y-30192D01*
X414386Y87510D02*
Y72275D01*
X406768D01*
X404229Y74814D01*
Y84971D01*
X406768Y87510D01*
X414386D01*
X388994Y72275D02*
X399151D01*
X388994Y82432D01*
Y84971D01*
X391533Y87510D01*
X396612D01*
X399151Y84971D01*
X383916D02*
X381377Y87510D01*
X376298D01*
X373759Y84971D01*
Y74814D01*
X376298Y72275D01*
X381377D01*
X383916Y74814D01*
Y84971D01*
X414116Y200510D02*
Y185275D01*
X406499D01*
X403960Y187814D01*
Y197971D01*
X406499Y200510D01*
X414116D01*
X398881Y185275D02*
X393803D01*
X396342D01*
Y200510D01*
X398881Y197971D01*
X386185D02*
X383646Y200510D01*
X378568D01*
X376029Y197971D01*
Y195432D01*
X378568Y192893D01*
X376029Y190353D01*
Y187814D01*
X378568Y185275D01*
X383646D01*
X386185Y187814D01*
Y190353D01*
X383646Y192893D01*
X386185Y195432D01*
Y197971D01*
X383646Y192893D02*
X378568D01*
X415116Y250510D02*
Y235275D01*
X407499D01*
X404960Y237814D01*
Y247971D01*
X407499Y250510D01*
X415116D01*
X399881Y235275D02*
X394803D01*
X397342D01*
Y250510D01*
X399881Y247971D01*
X387185Y250510D02*
X377029D01*
Y247971D01*
X387185Y237814D01*
Y235275D01*
X415116Y313510D02*
Y298275D01*
X407499D01*
X404960Y300814D01*
Y310971D01*
X407499Y313510D01*
X415116D01*
X399881Y298275D02*
X394803D01*
X397342D01*
Y313510D01*
X399881Y310971D01*
X377029Y313510D02*
X382107Y310971D01*
X387185Y305893D01*
Y300814D01*
X384646Y298275D01*
X379568D01*
X377029Y300814D01*
Y303353D01*
X379568Y305893D01*
X387185D01*
X415116Y364510D02*
Y349275D01*
X407499D01*
X404960Y351814D01*
Y361971D01*
X407499Y364510D01*
X415116D01*
X399881Y349275D02*
X394803D01*
X397342D01*
Y364510D01*
X399881Y361971D01*
X377029Y364510D02*
X387185D01*
Y356893D01*
X382107Y359432D01*
X379568D01*
X377029Y356893D01*
Y351814D01*
X379568Y349275D01*
X384646D01*
X387185Y351814D01*
X144994Y-92205D02*
Y-76970D01*
X152612D01*
X155151Y-79509D01*
Y-89666D01*
X152612Y-92205D01*
X144994D01*
X160229Y-79509D02*
X162768Y-76970D01*
X167847D01*
X170386Y-79509D01*
Y-89666D01*
X167847Y-92205D01*
X162768D01*
X160229Y-89666D01*
Y-87127D01*
X162768Y-84587D01*
X170386D01*
X60377Y-91045D02*
Y-75809D01*
X67994D01*
X70533Y-78349D01*
Y-88505D01*
X67994Y-91045D01*
X60377D01*
X85768Y-75809D02*
X75612D01*
X85768Y-85966D01*
Y-88505D01*
X83229Y-91045D01*
X78151D01*
X75612Y-88505D01*
X90847D02*
X93386Y-91045D01*
X98464D01*
X101003Y-88505D01*
Y-85966D01*
X98464Y-83427D01*
X95925D01*
X98464D01*
X101003Y-80888D01*
Y-78349D01*
X98464Y-75809D01*
X93386D01*
X90847Y-78349D01*
X301994Y-91205D02*
Y-75970D01*
X309612D01*
X312151Y-78509D01*
Y-88666D01*
X309612Y-91205D01*
X301994D01*
X317229D02*
X327386D01*
Y-88666D01*
X317229Y-78509D01*
Y-75970D01*
X-254460Y172225D02*
Y184921D01*
X-251921Y187460D01*
X-246842D01*
X-244303Y184921D01*
Y172225D01*
X-239225Y184921D02*
X-236686Y187460D01*
X-231607D01*
X-229068Y184921D01*
Y174764D01*
X-231607Y172225D01*
X-236686D01*
X-239225Y174764D01*
Y177303D01*
X-236686Y179842D01*
X-229068D01*
D61*
X-213730Y-329437D02*
X-203733D01*
Y-324439D01*
X-205399Y-322773D01*
X-208732D01*
X-210398Y-324439D01*
Y-329437D01*
Y-326105D02*
X-213730Y-322773D01*
Y-312776D02*
Y-319441D01*
X-207066Y-312776D01*
X-205399D01*
X-203733Y-314442D01*
Y-317775D01*
X-205399Y-319441D01*
X-213730Y-309444D02*
Y-306112D01*
Y-307778D01*
X-203733D01*
X-205399Y-309444D01*
X-177270Y-311520D02*
X-187267D01*
Y-316518D01*
X-185601Y-318185D01*
X-182269D01*
X-180602Y-316518D01*
Y-311520D01*
Y-314852D02*
X-177270Y-318185D01*
Y-321517D02*
Y-324849D01*
Y-323183D01*
X-187267D01*
X-185601Y-321517D01*
X-187267Y-336512D02*
X-185601Y-333180D01*
X-182269Y-329847D01*
X-178936D01*
X-177270Y-331514D01*
Y-334846D01*
X-178936Y-336512D01*
X-180602D01*
X-182269Y-334846D01*
Y-329847D01*
X-160270Y-327020D02*
X-170267D01*
Y-332019D01*
X-168601Y-333685D01*
X-165268D01*
X-163602Y-332019D01*
Y-327020D01*
Y-330352D02*
X-160270Y-333685D01*
X-168601Y-337017D02*
X-170267Y-338683D01*
Y-342015D01*
X-168601Y-343681D01*
X-166935D01*
X-165268Y-342015D01*
Y-340349D01*
Y-342015D01*
X-163602Y-343681D01*
X-161936D01*
X-160270Y-342015D01*
Y-338683D01*
X-161936Y-337017D01*
X-168601Y-347014D02*
X-170267Y-348680D01*
Y-352012D01*
X-168601Y-353678D01*
X-166935D01*
X-165268Y-352012D01*
Y-350346D01*
Y-352012D01*
X-163602Y-353678D01*
X-161936D01*
X-160270Y-352012D01*
Y-348680D01*
X-161936Y-347014D01*
X-209399Y-197315D02*
X-207733Y-198981D01*
Y-202314D01*
X-209399Y-203980D01*
X-216064D01*
X-217730Y-202314D01*
Y-198981D01*
X-216064Y-197315D01*
X-217730Y-188985D02*
X-207733D01*
X-212731Y-193983D01*
Y-187319D01*
X-209399Y-183986D02*
X-207733Y-182320D01*
Y-178988D01*
X-209399Y-177322D01*
X-211065D01*
X-212731Y-178988D01*
Y-180654D01*
Y-178988D01*
X-214398Y-177322D01*
X-216064D01*
X-217730Y-178988D01*
Y-182320D01*
X-216064Y-183986D01*
X-194558Y-193185D02*
X-196224Y-191518D01*
Y-188186D01*
X-194558Y-186520D01*
X-187894D01*
X-186228Y-188186D01*
Y-191518D01*
X-187894Y-193185D01*
X-186228Y-201515D02*
X-196224D01*
X-191226Y-196517D01*
Y-203181D01*
X-186228Y-213178D02*
Y-206514D01*
X-192892Y-213178D01*
X-194558D01*
X-196224Y-211512D01*
Y-208180D01*
X-194558Y-206514D01*
X-167749Y-202149D02*
X-166083Y-200483D01*
X-162751D01*
X-161085Y-202149D01*
Y-208814D01*
X-162751Y-210480D01*
X-166083D01*
X-167749Y-208814D01*
X-176080Y-210480D02*
Y-200483D01*
X-171082Y-205482D01*
X-177746D01*
X-187743Y-200483D02*
X-184411Y-202149D01*
X-181078Y-205482D01*
Y-208814D01*
X-182745Y-210480D01*
X-186077D01*
X-187743Y-208814D01*
Y-207148D01*
X-186077Y-205482D01*
X-181078D01*
X-292730Y206730D02*
Y196733D01*
X-287732D01*
X-286065Y198399D01*
Y201731D01*
X-287732Y203398D01*
X-292730D01*
X-289398D02*
X-286065Y206730D01*
X-282733Y198399D02*
X-281067Y196733D01*
X-277735D01*
X-276069Y198399D01*
Y200065D01*
X-277735Y201731D01*
X-279401D01*
X-277735D01*
X-276069Y203398D01*
Y205064D01*
X-277735Y206730D01*
X-281067D01*
X-282733Y205064D01*
X-266072Y206730D02*
X-272736D01*
X-266072Y200065D01*
Y198399D01*
X-267738Y196733D01*
X-271070D01*
X-272736Y198399D01*
X-275270Y164228D02*
Y174224D01*
X-280268D01*
X-281935Y172558D01*
Y169226D01*
X-280268Y167560D01*
X-275270D01*
X-278602D02*
X-281935Y164228D01*
X-285267Y172558D02*
X-286933Y174224D01*
X-290265D01*
X-291931Y172558D01*
Y170892D01*
X-290265Y169226D01*
X-288599D01*
X-290265D01*
X-291931Y167560D01*
Y165894D01*
X-290265Y164228D01*
X-286933D01*
X-285267Y165894D01*
X-295264Y164228D02*
X-298596D01*
X-296930D01*
Y174224D01*
X-295264Y172558D01*
X-274813Y147685D02*
Y157682D01*
X-279811D01*
X-281477Y156016D01*
Y152683D01*
X-279811Y151017D01*
X-274813D01*
X-278145D02*
X-281477Y147685D01*
X-284809Y156016D02*
X-286476Y157682D01*
X-289808D01*
X-291474Y156016D01*
Y154349D01*
X-289808Y152683D01*
X-288142D01*
X-289808D01*
X-291474Y151017D01*
Y149351D01*
X-289808Y147685D01*
X-286476D01*
X-284809Y149351D01*
X-299805Y147685D02*
Y157682D01*
X-294806Y152683D01*
X-301471D01*
X-166899Y192934D02*
X-165233Y191268D01*
Y187936D01*
X-166899Y186270D01*
X-173564D01*
X-175230Y187936D01*
Y191268D01*
X-173564Y192934D01*
X-175230Y201265D02*
X-165233D01*
X-170231Y196267D01*
Y202931D01*
X-173564Y206264D02*
X-175230Y207930D01*
Y211262D01*
X-173564Y212928D01*
X-166899D01*
X-165233Y211262D01*
Y207930D01*
X-166899Y206264D01*
X-168565D01*
X-170231Y207930D01*
Y212928D01*
X-166899Y144899D02*
X-165233Y143233D01*
Y139901D01*
X-166899Y138235D01*
X-173564D01*
X-175230Y139901D01*
Y143233D01*
X-173564Y144899D01*
X-165233Y154896D02*
Y148232D01*
X-170232D01*
X-168566Y151564D01*
Y153230D01*
X-170232Y154896D01*
X-173564D01*
X-175230Y153230D01*
Y149898D01*
X-173564Y148232D01*
X-166899Y158228D02*
X-165233Y159895D01*
Y163227D01*
X-166899Y164893D01*
X-173564D01*
X-175230Y163227D01*
Y159895D01*
X-173564Y158228D01*
X-166899D01*
X-157935Y171708D02*
X-156269Y173374D01*
X-152936D01*
X-151270Y171708D01*
Y165044D01*
X-152936Y163377D01*
X-156269D01*
X-157935Y165044D01*
X-166265Y163377D02*
Y173374D01*
X-161267Y168376D01*
X-167931D01*
X-171264Y171708D02*
X-172930Y173374D01*
X-176262D01*
X-177928Y171708D01*
Y170042D01*
X-176262Y168376D01*
X-177928Y166710D01*
Y165044D01*
X-176262Y163377D01*
X-172930D01*
X-171264Y165044D01*
Y166710D01*
X-172930Y168376D01*
X-171264Y170042D01*
Y171708D01*
X-172930Y168376D02*
X-176262D01*
X12935Y-257601D02*
X11269Y-259267D01*
X7936D01*
X6270Y-257601D01*
Y-250936D01*
X7936Y-249270D01*
X11269D01*
X12935Y-250936D01*
X21265Y-249270D02*
Y-259267D01*
X16267Y-254269D01*
X22931D01*
X31262Y-249270D02*
Y-259267D01*
X26264Y-254269D01*
X32928D01*
X248935Y-257601D02*
X247269Y-259267D01*
X243936D01*
X242270Y-257601D01*
Y-250936D01*
X243936Y-249270D01*
X247269D01*
X248935Y-250936D01*
X252267Y-257601D02*
X253933Y-259267D01*
X257265D01*
X258931Y-257601D01*
Y-255935D01*
X257265Y-254268D01*
X255599D01*
X257265D01*
X258931Y-252602D01*
Y-250936D01*
X257265Y-249270D01*
X253933D01*
X252267Y-250936D01*
X268928Y-259267D02*
X262264D01*
Y-254268D01*
X265596Y-255935D01*
X267262D01*
X268928Y-254268D01*
Y-250936D01*
X267262Y-249270D01*
X263930D01*
X262264Y-250936D01*
X169935Y-257601D02*
X168269Y-259267D01*
X164936D01*
X163270Y-257601D01*
Y-250936D01*
X164936Y-249270D01*
X168269D01*
X169935Y-250936D01*
X173267Y-257601D02*
X174933Y-259267D01*
X178265D01*
X179931Y-257601D01*
Y-255935D01*
X178265Y-254268D01*
X176599D01*
X178265D01*
X179931Y-252602D01*
Y-250936D01*
X178265Y-249270D01*
X174933D01*
X173267Y-250936D01*
X183264Y-259267D02*
X189928D01*
Y-257601D01*
X183264Y-250936D01*
Y-249270D01*
X88935Y-258601D02*
X87268Y-260267D01*
X83936D01*
X82270Y-258601D01*
Y-251936D01*
X83936Y-250270D01*
X87268D01*
X88935Y-251936D01*
X92267Y-258601D02*
X93933Y-260267D01*
X97265D01*
X98931Y-258601D01*
Y-256935D01*
X97265Y-255269D01*
X95599D01*
X97265D01*
X98931Y-253602D01*
Y-251936D01*
X97265Y-250270D01*
X93933D01*
X92267Y-251936D01*
X102264D02*
X103930Y-250270D01*
X107262D01*
X108928Y-251936D01*
Y-258601D01*
X107262Y-260267D01*
X103930D01*
X102264Y-258601D01*
Y-256935D01*
X103930Y-255269D01*
X108928D01*
X263601Y-114066D02*
X265267Y-115732D01*
Y-119064D01*
X263601Y-120730D01*
X256936D01*
X255270Y-119064D01*
Y-115732D01*
X256936Y-114066D01*
X263601Y-110733D02*
X265267Y-109067D01*
Y-105735D01*
X263601Y-104069D01*
X261935D01*
X260268Y-105735D01*
Y-107401D01*
Y-105735D01*
X258602Y-104069D01*
X256936D01*
X255270Y-105735D01*
Y-109067D01*
X256936Y-110733D01*
X265267Y-94072D02*
X263601Y-97404D01*
X260268Y-100736D01*
X256936D01*
X255270Y-99070D01*
Y-95738D01*
X256936Y-94072D01*
X258602D01*
X260268Y-95738D01*
Y-100736D01*
X253730Y-103270D02*
X243733D01*
Y-108268D01*
X245399Y-109935D01*
X248731D01*
X250398Y-108268D01*
Y-103270D01*
Y-106602D02*
X253730Y-109935D01*
Y-113267D02*
Y-116599D01*
Y-114933D01*
X243733D01*
X245399Y-113267D01*
Y-121597D02*
X243733Y-123264D01*
Y-126596D01*
X245399Y-128262D01*
X247065D01*
X248731Y-126596D01*
Y-124930D01*
Y-126596D01*
X250398Y-128262D01*
X252064D01*
X253730Y-126596D01*
Y-123264D01*
X252064Y-121597D01*
X186601Y-113905D02*
X188267Y-115571D01*
Y-118903D01*
X186601Y-120569D01*
X179936D01*
X178270Y-118903D01*
Y-115571D01*
X179936Y-113905D01*
X186601Y-110573D02*
X188267Y-108907D01*
Y-105574D01*
X186601Y-103908D01*
X184935D01*
X183269Y-105574D01*
Y-107240D01*
Y-105574D01*
X181602Y-103908D01*
X179936D01*
X178270Y-105574D01*
Y-108907D01*
X179936Y-110573D01*
X186601Y-100576D02*
X188267Y-98910D01*
Y-95578D01*
X186601Y-93912D01*
X184935D01*
X183269Y-95578D01*
X181602Y-93912D01*
X179936D01*
X178270Y-95578D01*
Y-98910D01*
X179936Y-100576D01*
X181602D01*
X183269Y-98910D01*
X184935Y-100576D01*
X186601D01*
X183269Y-98910D02*
Y-95578D01*
X176730Y-103210D02*
X166733D01*
Y-108208D01*
X168399Y-109874D01*
X171731D01*
X173398Y-108208D01*
Y-103210D01*
Y-106542D02*
X176730Y-109874D01*
Y-113207D02*
Y-116539D01*
Y-114873D01*
X166733D01*
X168399Y-113207D01*
X176730Y-126536D02*
X166733D01*
X171731Y-121537D01*
Y-128202D01*
X105601Y-115065D02*
X107267Y-116732D01*
Y-120064D01*
X105601Y-121730D01*
X98936D01*
X97270Y-120064D01*
Y-116732D01*
X98936Y-115065D01*
X97270Y-106735D02*
X107267D01*
X102268Y-111733D01*
Y-105069D01*
X105601Y-101736D02*
X107267Y-100070D01*
Y-96738D01*
X105601Y-95072D01*
X98936D01*
X97270Y-96738D01*
Y-100070D01*
X98936Y-101736D01*
X105601D01*
X96437Y-104270D02*
X86440D01*
Y-109269D01*
X88107Y-110935D01*
X91439D01*
X93105Y-109269D01*
Y-104270D01*
Y-107602D02*
X96437Y-110935D01*
Y-114267D02*
Y-117599D01*
Y-115933D01*
X86440D01*
X88107Y-114267D01*
X86440Y-129262D02*
Y-122598D01*
X91439D01*
X89773Y-125930D01*
Y-127596D01*
X91439Y-129262D01*
X94771D01*
X96437Y-127596D01*
Y-124264D01*
X94771Y-122598D01*
X19730Y-103210D02*
X9733D01*
Y-108208D01*
X11399Y-109874D01*
X14732D01*
X16398Y-108208D01*
Y-103210D01*
Y-106542D02*
X19730Y-109874D01*
X11399Y-113207D02*
X9733Y-114873D01*
Y-118205D01*
X11399Y-119871D01*
X13065D01*
X14732Y-118205D01*
Y-116539D01*
Y-118205D01*
X16398Y-119871D01*
X18064D01*
X19730Y-118205D01*
Y-114873D01*
X18064Y-113207D01*
X11399Y-123203D02*
X9733Y-124869D01*
Y-128202D01*
X11399Y-129868D01*
X18064D01*
X19730Y-128202D01*
Y-124869D01*
X18064Y-123203D01*
X11399D01*
X29601Y-113905D02*
X31267Y-115571D01*
Y-118903D01*
X29601Y-120569D01*
X22936D01*
X21270Y-118903D01*
Y-115571D01*
X22936Y-113905D01*
X21270Y-105574D02*
X31267D01*
X26268Y-110573D01*
Y-103908D01*
X31267Y-93911D02*
Y-100576D01*
X26268D01*
X27935Y-97244D01*
Y-95578D01*
X26268Y-93911D01*
X22936D01*
X21270Y-95578D01*
Y-98910D01*
X22936Y-100576D01*
X491730Y15730D02*
X481733D01*
Y10732D01*
X483399Y9065D01*
X486731D01*
X488398Y10732D01*
Y15730D01*
Y12398D02*
X491730Y9065D01*
Y-931D02*
Y5733D01*
X485065Y-931D01*
X483399D01*
X481733Y735D01*
Y4067D01*
X483399Y5733D01*
Y-4264D02*
X481733Y-5930D01*
Y-9262D01*
X483399Y-10928D01*
X485065D01*
X486731Y-9262D01*
X488398Y-10928D01*
X490064D01*
X491730Y-9262D01*
Y-5930D01*
X490064Y-4264D01*
X488398D01*
X486731Y-5930D01*
X485065Y-4264D01*
X483399D01*
X486731Y-5930D02*
Y-9262D01*
X472270Y-33730D02*
X482267D01*
Y-28732D01*
X480601Y-27065D01*
X477268D01*
X475602Y-28732D01*
Y-33730D01*
Y-30398D02*
X472270Y-27065D01*
Y-17069D02*
Y-23733D01*
X478935Y-17069D01*
X480601D01*
X482267Y-18735D01*
Y-22067D01*
X480601Y-23733D01*
X473936Y-13736D02*
X472270Y-12070D01*
Y-8738D01*
X473936Y-7072D01*
X480601D01*
X482267Y-8738D01*
Y-12070D01*
X480601Y-13736D01*
X478935D01*
X477268Y-12070D01*
Y-7072D01*
X471033Y80433D02*
X481029D01*
Y85431D01*
X479363Y87097D01*
X476031D01*
X474365Y85431D01*
Y80433D01*
Y83765D02*
X471033Y87097D01*
Y97094D02*
Y90429D01*
X477697Y97094D01*
X479363D01*
X481029Y95428D01*
Y92095D01*
X479363Y90429D01*
X481029Y100426D02*
Y107091D01*
X479363D01*
X472699Y100426D01*
X471033D01*
X486492Y132893D02*
X476496D01*
Y127894D01*
X478162Y126228D01*
X481494D01*
X483160Y127894D01*
Y132893D01*
Y129560D02*
X486492Y126228D01*
Y116231D02*
Y122896D01*
X479828Y116231D01*
X478162D01*
X476496Y117897D01*
Y121230D01*
X478162Y122896D01*
X476496Y106234D02*
X478162Y109567D01*
X481494Y112899D01*
X484826D01*
X486492Y111233D01*
Y107900D01*
X484826Y106234D01*
X483160D01*
X481494Y107900D01*
Y112899D01*
X473033Y193433D02*
X483029D01*
Y198431D01*
X481363Y200097D01*
X478031D01*
X476365Y198431D01*
Y193433D01*
Y196765D02*
X473033Y200097D01*
Y210094D02*
Y203429D01*
X479697Y210094D01*
X481363D01*
X483029Y208428D01*
Y205096D01*
X481363Y203429D01*
X483029Y220091D02*
Y213426D01*
X478031D01*
X479697Y216758D01*
Y218425D01*
X478031Y220091D01*
X474699D01*
X473033Y218425D01*
Y215092D01*
X474699Y213426D01*
X488492Y244893D02*
X478496D01*
Y239894D01*
X480162Y238228D01*
X483494D01*
X485160Y239894D01*
Y244893D01*
Y241560D02*
X488492Y238228D01*
Y228231D02*
Y234896D01*
X481828Y228231D01*
X480162D01*
X478496Y229897D01*
Y233230D01*
X480162Y234896D01*
X488492Y219901D02*
X478496D01*
X483494Y224899D01*
Y218234D01*
X473033Y306433D02*
X483029D01*
Y311431D01*
X481363Y313097D01*
X478031D01*
X476365Y311431D01*
Y306433D01*
Y309765D02*
X473033Y313097D01*
Y323094D02*
Y316429D01*
X479697Y323094D01*
X481363D01*
X483029Y321428D01*
Y318096D01*
X481363Y316429D01*
Y326426D02*
X483029Y328092D01*
Y331425D01*
X481363Y333091D01*
X479697D01*
X478031Y331425D01*
Y329758D01*
Y331425D01*
X476365Y333091D01*
X474699D01*
X473033Y331425D01*
Y328092D01*
X474699Y326426D01*
X488492Y359893D02*
X478496D01*
Y354894D01*
X480162Y353228D01*
X483494D01*
X485160Y354894D01*
Y359893D01*
Y356560D02*
X488492Y353228D01*
Y343231D02*
Y349896D01*
X481828Y343231D01*
X480162D01*
X478496Y344897D01*
Y348230D01*
X480162Y349896D01*
X488492Y333234D02*
Y339899D01*
X481828Y333234D01*
X480162D01*
X478496Y334901D01*
Y338233D01*
X480162Y339899D01*
%TF.MD5,d6c11fba1efaebb99ed512a5f6c53245*%
M02*
