%TF.GenerationSoftware,Altium Limited,Altium Designer,22.5.1 (42)*%
G04 Layer_Color=0*
%FSLAX44Y44*%
%MOMM*%
%TF.SameCoordinates,FC5E5A78-ED25-47B3-91C5-E03428921660*%
%TF.FilePolarity,Positive*%
%TF.FileFunction,Profile,NP*%
%TF.Part,Single*%
G01*
G75*
%TA.AperFunction,Profile*%
%ADD109C,0.0254*%
D109*
X-495110Y-449320D02*
G03*
X-445110Y-499320I50000J0D01*
G01*
X-446000Y-499320D01*
X-137810Y-499320D01*
D02*
G03*
X-125110Y-486620I0J12700D01*
G01*
Y-350000D01*
D02*
G02*
X-115110Y-340000I10000J0D01*
G01*
X38890Y-340000D01*
X114680D01*
X115000Y-340000D01*
D02*
G02*
X125000Y-350000I0J-10000D01*
G01*
Y-486300D01*
D02*
G03*
X137700Y-499000I12700J0D01*
G01*
X454890D01*
Y-499320D01*
D02*
G03*
X504890Y-449320I0J50000D01*
G01*
Y450680D01*
D02*
G03*
X454890Y500680I-50000J0D01*
G01*
X454570Y501000D01*
X378200D01*
D02*
G03*
X365500Y488300I0J-12700D01*
G01*
Y355000D01*
D02*
G02*
X355500Y345000I-10000J0D01*
G01*
X143000D01*
D02*
G02*
X133000Y355000I0J10000D01*
G01*
Y488300D01*
D02*
G03*
X120300Y501000I-12700J0D01*
G01*
X119980Y500680D01*
X-120800D01*
D02*
G03*
X-133500Y487980I0J-12700D01*
G01*
Y355000D01*
D02*
G02*
X-143500Y345000I-10000J0D01*
G01*
X-356000D01*
D02*
G02*
X-366000Y355000I0J10000D01*
G01*
Y487980D01*
D02*
G03*
X-378700Y500680I-12700J0D01*
G01*
X-445110D01*
D02*
G03*
X-495110Y450680I0J-50000D01*
G01*
Y-449320D01*
%TF.MD5,05aa0c2d2080aaf091e9fc8a5b577d5d*%
M02*
