%TF.GenerationSoftware,Altium Limited,Altium Designer,22.5.1 (42)*%
G04 Layer_Physical_Order=3*
G04 Layer_Color=16440176*
%FSLAX44Y44*%
%MOMM*%
%TF.SameCoordinates,FC5E5A78-ED25-47B3-91C5-E03428921660*%
%TF.FilePolarity,Positive*%
%TF.FileFunction,Copper,L3,Inr,Signal*%
%TF.Part,Single*%
G01*
G75*
%TA.AperFunction,Conductor*%
%ADD30C,0.2540*%
%TA.AperFunction,ComponentPad*%
%ADD32O,1.2000X2.4000*%
%ADD33R,3.7160X3.7160*%
%ADD34C,3.7160*%
%ADD35C,1.8000*%
%ADD36R,1.8000X1.8000*%
%ADD37O,3.0000X4.5000*%
%ADD38C,2.0000*%
%ADD39C,1.6000*%
%ADD40R,1.6000X1.6000*%
%ADD41R,2.0000X4.0000*%
%ADD42R,4.0000X2.0000*%
%ADD43R,1.8000X1.8000*%
%ADD44O,4.5000X3.0000*%
%ADD45R,1.6000X1.6000*%
%ADD46C,6.0000*%
%TA.AperFunction,ViaPad*%
%ADD47C,0.6000*%
%ADD48C,0.8000*%
%TA.AperFunction,Conductor*%
%ADD49C,0.5000*%
G36*
X454110Y498796D02*
X454890Y498641D01*
X458033D01*
X464267Y497820D01*
X470340Y496193D01*
X476148Y493787D01*
X481593Y490644D01*
X486581Y486816D01*
X491026Y482371D01*
X494854Y477383D01*
X497997Y471938D01*
X500403Y466130D01*
X502030Y460057D01*
X502851Y453824D01*
Y450680D01*
Y-449320D01*
Y-452463D01*
X502030Y-458697D01*
X500403Y-464770D01*
X497997Y-470578D01*
X494854Y-476023D01*
X491026Y-481011D01*
X486581Y-485456D01*
X481593Y-489284D01*
X476148Y-492427D01*
X470340Y-494833D01*
X464267Y-496460D01*
X458033Y-497281D01*
X455917D01*
X455670Y-497116D01*
X454890Y-496961D01*
X136650D01*
X134590Y-496551D01*
X132650Y-495748D01*
X130904Y-494581D01*
X129419Y-493096D01*
X128252Y-491350D01*
X127449Y-489410D01*
X127039Y-487350D01*
Y-486300D01*
Y-350000D01*
X127029Y-349950D01*
X127037Y-349900D01*
X126988Y-348920D01*
X126952Y-348773D01*
Y-348622D01*
X126569Y-346699D01*
X126492Y-346514D01*
X126453Y-346317D01*
X125703Y-344506D01*
X125591Y-344339D01*
X125515Y-344153D01*
X124425Y-342523D01*
X124284Y-342381D01*
X124172Y-342214D01*
X122786Y-340828D01*
X122619Y-340717D01*
X122477Y-340574D01*
X120847Y-339485D01*
X120661Y-339408D01*
X120494Y-339297D01*
X118683Y-338547D01*
X118486Y-338508D01*
X118301Y-338431D01*
X116378Y-338048D01*
X116227D01*
X116080Y-338012D01*
X115100Y-337963D01*
X115050Y-337971D01*
X115000Y-337961D01*
X114680Y-337961D01*
X38890D01*
X-115110Y-337961D01*
X-115160Y-337971D01*
X-115210Y-337963D01*
X-116190Y-338012D01*
X-116337Y-338048D01*
X-116488D01*
X-118411Y-338431D01*
X-118596Y-338508D01*
X-118793Y-338547D01*
X-120604Y-339297D01*
X-120771Y-339408D01*
X-120957Y-339485D01*
X-122587Y-340574D01*
X-122729Y-340717D01*
X-122896Y-340828D01*
X-124282Y-342214D01*
X-124394Y-342381D01*
X-124536Y-342523D01*
X-125625Y-344153D01*
X-125702Y-344339D01*
X-125813Y-344506D01*
X-126563Y-346317D01*
X-126602Y-346514D01*
X-126679Y-346699D01*
X-127062Y-348622D01*
Y-348773D01*
X-127099Y-348920D01*
X-127147Y-349900D01*
X-127139Y-349950D01*
X-127149Y-350000D01*
Y-486620D01*
Y-487670D01*
X-127559Y-489730D01*
X-128362Y-491670D01*
X-129529Y-493416D01*
X-131014Y-494901D01*
X-132760Y-496068D01*
X-134700Y-496871D01*
X-136760Y-497281D01*
X-137810D01*
X-445820Y-497281D01*
X-445821Y-497281D01*
X-448254Y-497281D01*
X-454487Y-496460D01*
X-460560Y-494833D01*
X-466368Y-492427D01*
X-471813Y-489284D01*
X-476801Y-485456D01*
X-481246Y-481011D01*
X-485074Y-476023D01*
X-488217Y-470578D01*
X-490623Y-464770D01*
X-492250Y-458697D01*
X-493071Y-452463D01*
Y-449320D01*
Y450680D01*
Y453824D01*
X-492250Y460057D01*
X-490623Y466129D01*
X-488217Y471938D01*
X-485074Y477383D01*
X-481246Y482371D01*
X-476801Y486816D01*
X-471813Y490644D01*
X-466368Y493787D01*
X-460560Y496193D01*
X-454487Y497820D01*
X-448254Y498641D01*
X-377650D01*
X-375590Y498231D01*
X-373650Y497428D01*
X-371904Y496261D01*
X-370419Y494776D01*
X-369252Y493030D01*
X-368449Y491090D01*
X-368039Y489030D01*
Y487980D01*
Y414539D01*
X-489000D01*
X-489780Y414384D01*
X-490442Y413942D01*
X-490884Y413280D01*
X-491039Y412500D01*
Y326000D01*
X-490884Y325220D01*
X-490442Y324558D01*
X-479349Y313465D01*
X-479452Y312711D01*
X-479700Y312020D01*
X-480192Y311692D01*
X-480192Y311692D01*
X-489442Y302442D01*
X-489884Y301780D01*
X-490039Y301000D01*
Y255000D01*
X-489884Y254220D01*
X-489442Y253558D01*
X-488780Y253116D01*
X-488000Y252961D01*
X-381582D01*
X-381096Y251787D01*
X-397442Y235442D01*
X-397884Y234780D01*
X-398039Y234000D01*
Y202750D01*
X-397884Y201970D01*
X-397442Y201308D01*
X-396780Y200866D01*
X-396000Y200711D01*
X-367554D01*
X-367214Y199441D01*
X-368840Y198502D01*
X-370702Y196640D01*
X-372019Y194360D01*
X-372700Y191817D01*
Y189184D01*
X-372019Y186640D01*
X-370702Y184360D01*
X-368840Y182498D01*
X-366560Y181182D01*
X-364016Y180500D01*
X-361384D01*
X-358840Y181182D01*
X-356560Y182498D01*
X-354698Y184360D01*
X-353382Y186640D01*
X-352700Y189184D01*
Y191817D01*
X-353382Y194360D01*
X-354698Y196640D01*
X-356560Y198502D01*
X-358186Y199441D01*
X-357846Y200711D01*
X-342154D01*
X-341814Y199441D01*
X-343440Y198502D01*
X-345302Y196640D01*
X-346618Y194360D01*
X-347300Y191817D01*
Y189184D01*
X-346618Y186640D01*
X-345302Y184360D01*
X-343440Y182498D01*
X-341160Y181182D01*
X-338616Y180500D01*
X-335984D01*
X-333440Y181182D01*
X-331160Y182498D01*
X-329298Y184360D01*
X-327981Y186640D01*
X-327300Y189184D01*
Y191817D01*
X-327981Y194360D01*
X-329298Y196640D01*
X-331160Y198502D01*
X-332786Y199441D01*
X-332446Y200711D01*
X-326845D01*
X-323539Y197405D01*
Y153750D01*
X-323384Y152970D01*
X-322942Y152308D01*
X-322280Y151866D01*
X-321500Y151711D01*
X-248845D01*
X-242039Y144905D01*
Y89715D01*
X-241884Y88935D01*
X-241442Y88273D01*
X-241442Y88273D01*
X-182564Y29395D01*
X-182432Y29307D01*
X-182324Y29190D01*
X-182104Y29088D01*
X-181903Y28953D01*
X-181747Y28922D01*
X-181602Y28855D01*
X-181360Y28845D01*
X-181122Y28798D01*
X-180966Y28829D01*
X-180807Y28823D01*
X-180580Y28906D01*
X-180342Y28953D01*
X-180210Y29042D01*
X-180060Y29097D01*
X-90688Y83616D01*
X-90510Y83780D01*
X-90308Y83914D01*
X-90220Y84047D01*
X-90103Y84154D01*
X-90001Y84374D01*
X-89866Y84576D01*
X-89835Y84732D01*
X-89768Y84876D01*
X-89758Y85119D01*
X-89711Y85356D01*
X-89711Y160265D01*
X-89711Y160265D01*
X-89866Y161045D01*
X-90308Y161707D01*
X-90358Y161756D01*
X-90961Y163212D01*
Y164788D01*
X-90358Y166244D01*
X-90308Y166293D01*
X-89866Y166955D01*
X-89711Y167735D01*
X-89711Y213500D01*
X-89711Y223000D01*
X-89711Y228500D01*
X-89866Y229280D01*
X-90308Y229942D01*
X-90970Y230384D01*
X-91750Y230539D01*
X-166500D01*
X-167280Y230384D01*
X-167942Y229942D01*
X-168384Y229280D01*
X-168539Y228500D01*
Y182789D01*
X-272961D01*
Y191619D01*
X-271691Y191931D01*
X-271442Y191558D01*
X-270780Y191116D01*
X-270000Y190961D01*
X-241000D01*
X-240220Y191116D01*
X-239558Y191558D01*
X-239558Y191558D01*
X-235558Y195558D01*
X-235116Y196220D01*
X-234961Y197000D01*
Y212418D01*
X-233787Y212904D01*
X-231442Y210558D01*
X-230780Y210116D01*
X-230000Y209961D01*
X-188845D01*
X-186039Y207155D01*
Y196039D01*
X-203000D01*
X-203780Y195884D01*
X-204442Y195442D01*
X-204884Y194780D01*
X-205039Y194000D01*
Y188000D01*
X-204884Y187220D01*
X-204442Y186558D01*
X-203780Y186116D01*
X-203000Y185961D01*
X-176000D01*
X-175220Y186116D01*
X-174558Y186558D01*
X-174116Y187220D01*
X-173961Y188000D01*
Y227000D01*
X-173961Y227000D01*
X-174116Y227780D01*
X-174558Y228442D01*
X-287904Y341788D01*
X-287418Y342961D01*
X-143500D01*
X-143450Y342971D01*
X-143400Y342963D01*
X-142420Y343012D01*
X-142273Y343048D01*
X-142122D01*
X-140199Y343431D01*
X-140014Y343508D01*
X-139817Y343547D01*
X-138006Y344297D01*
X-137839Y344408D01*
X-137653Y344485D01*
X-136023Y345574D01*
X-135881Y345717D01*
X-135714Y345828D01*
X-134328Y347214D01*
X-134216Y347381D01*
X-134074Y347523D01*
X-132985Y349153D01*
X-132908Y349339D01*
X-132797Y349506D01*
X-132047Y351317D01*
X-132008Y351514D01*
X-131931Y351699D01*
X-131548Y353622D01*
Y353773D01*
X-131511Y353920D01*
X-131463Y354900D01*
X-131471Y354950D01*
X-131461Y355000D01*
Y487980D01*
Y489030D01*
X-131051Y491090D01*
X-130248Y493030D01*
X-129081Y494776D01*
X-127596Y496261D01*
X-125850Y497428D01*
X-123910Y498231D01*
X-121850Y498641D01*
X119980D01*
X120760Y498796D01*
X121007Y498961D01*
X121350D01*
X123410Y498551D01*
X125350Y497748D01*
X127096Y496581D01*
X128581Y495096D01*
X129747Y493350D01*
X130551Y491410D01*
X130961Y489350D01*
Y488300D01*
Y355000D01*
X130971Y354950D01*
X130963Y354900D01*
X131011Y353920D01*
X131048Y353773D01*
Y353622D01*
X131431Y351699D01*
X131508Y351514D01*
X131547Y351317D01*
X132297Y349506D01*
X132408Y349339D01*
X132485Y349153D01*
X133574Y347523D01*
X133716Y347381D01*
X133828Y347214D01*
X135214Y345828D01*
X135381Y345717D01*
X135523Y345574D01*
X137153Y344485D01*
X137339Y344408D01*
X137506Y344297D01*
X139317Y343547D01*
X139514Y343508D01*
X139699Y343431D01*
X141622Y343048D01*
X141773D01*
X141920Y343012D01*
X142900Y342963D01*
X142950Y342971D01*
X143000Y342961D01*
X355500D01*
X355550Y342971D01*
X355600Y342963D01*
X356580Y343012D01*
X356727Y343048D01*
X356878D01*
X358801Y343431D01*
X358986Y343508D01*
X359183Y343547D01*
X360994Y344297D01*
X361161Y344408D01*
X361347Y344485D01*
X362977Y345574D01*
X363119Y345717D01*
X363286Y345828D01*
X364672Y347214D01*
X364784Y347381D01*
X364925Y347523D01*
X366015Y349153D01*
X366091Y349339D01*
X366203Y349506D01*
X366953Y351317D01*
X366992Y351514D01*
X367069Y351699D01*
X367452Y353622D01*
Y353773D01*
X367488Y353920D01*
X367537Y354900D01*
X367529Y354950D01*
X367539Y355000D01*
Y488300D01*
Y489350D01*
X367949Y491410D01*
X368752Y493350D01*
X369919Y495096D01*
X371404Y496581D01*
X373150Y497747D01*
X375090Y498551D01*
X377150Y498961D01*
X453863D01*
X454110Y498796D01*
D02*
G37*
G36*
X-237000Y226000D02*
Y216961D01*
X-237000Y216961D01*
X-237000Y216961D01*
Y197000D01*
X-241000Y193000D01*
X-270000D01*
Y200000D01*
Y207000D01*
X-318000Y255000D01*
X-488000D01*
Y301000D01*
X-478750Y310250D01*
X-321250D01*
X-237000Y226000D01*
D02*
G37*
G36*
X-368039Y355000D02*
X-368029Y354950D01*
X-368037Y354900D01*
X-367988Y353920D01*
X-367952Y353773D01*
Y353622D01*
X-367569Y351699D01*
X-367492Y351514D01*
X-367453Y351317D01*
X-366703Y349506D01*
X-366591Y349339D01*
X-366515Y349153D01*
X-365425Y347523D01*
X-365283Y347381D01*
X-365172Y347214D01*
X-363786Y345828D01*
X-363619Y345717D01*
X-363477Y345574D01*
X-361847Y344485D01*
X-361661Y344408D01*
X-361494Y344297D01*
X-359683Y343547D01*
X-359486Y343508D01*
X-359301Y343431D01*
X-357378Y343048D01*
X-357227D01*
X-357080Y343012D01*
X-356100Y342963D01*
X-356050Y342971D01*
X-356000Y342961D01*
X-291961D01*
X-176000Y227000D01*
Y188000D01*
X-203000D01*
Y194000D01*
X-184000D01*
Y208000D01*
X-188000Y212000D01*
X-230000D01*
X-234500Y216500D01*
Y231500D01*
X-316000Y313000D01*
X-476000D01*
X-489000Y326000D01*
Y412500D01*
X-368039D01*
Y355000D01*
D02*
G37*
G36*
X-320750Y234000D02*
X-313250Y226500D01*
X-294000Y226500D01*
X-275000Y207500D01*
Y180750D01*
X-166750D01*
X-166500Y181000D01*
Y228500D01*
X-91750D01*
X-91750Y223000D01*
X-91750Y213500D01*
X-91750Y167735D01*
X-92087Y167399D01*
X-93000Y165194D01*
Y162806D01*
X-92087Y160601D01*
X-91750Y160265D01*
X-91750Y85356D01*
X-181122Y30837D01*
X-240000Y89715D01*
Y145750D01*
X-248000Y153750D01*
X-321500D01*
Y198250D01*
X-326000Y202750D01*
X-396000D01*
Y234000D01*
X-377039Y252961D01*
X-320750D01*
Y234000D01*
D02*
G37*
%LPC*%
G36*
X67500Y464069D02*
X65412Y463794D01*
X63465Y462988D01*
X61794Y461706D01*
X60512Y460034D01*
X59706Y458088D01*
X59431Y456000D01*
Y444000D01*
X59706Y441912D01*
X60512Y439966D01*
X61794Y438294D01*
X63465Y437012D01*
X65412Y436206D01*
X67500Y435931D01*
X69588Y436206D01*
X71535Y437012D01*
X73206Y438294D01*
X74488Y439966D01*
X75294Y441912D01*
X75569Y444000D01*
Y456000D01*
X75294Y458088D01*
X74488Y460034D01*
X73206Y461706D01*
X71535Y462988D01*
X69588Y463794D01*
X67500Y464069D01*
D02*
G37*
G36*
X-67500D02*
X-69588Y463794D01*
X-71535Y462988D01*
X-73206Y461706D01*
X-74488Y460034D01*
X-75294Y458088D01*
X-75569Y456000D01*
Y444000D01*
X-75294Y441912D01*
X-74488Y439966D01*
X-73206Y438294D01*
X-71535Y437012D01*
X-69588Y436206D01*
X-67500Y435931D01*
X-65412Y436206D01*
X-63465Y437012D01*
X-61794Y438294D01*
X-60512Y439966D01*
X-59706Y441912D01*
X-59431Y444000D01*
Y456000D01*
X-59706Y458088D01*
X-60512Y460034D01*
X-61794Y461706D01*
X-63465Y462988D01*
X-65412Y463794D01*
X-67500Y464069D01*
D02*
G37*
G36*
X452518Y482000D02*
X447481D01*
X442507Y481212D01*
X437716Y479656D01*
X433228Y477369D01*
X429153Y474408D01*
X425592Y470847D01*
X422631Y466772D01*
X420344Y462284D01*
X418788Y457493D01*
X418000Y452518D01*
Y447481D01*
X418788Y442507D01*
X420344Y437716D01*
X422631Y433228D01*
X425592Y429153D01*
X429153Y425592D01*
X433228Y422631D01*
X437716Y420344D01*
X442507Y418788D01*
X447481Y418000D01*
X452518D01*
X457493Y418788D01*
X462284Y420344D01*
X466772Y422631D01*
X470847Y425592D01*
X474408Y429153D01*
X477369Y433228D01*
X479656Y437716D01*
X481212Y442507D01*
X482000Y447481D01*
Y452518D01*
X481212Y457493D01*
X479656Y462284D01*
X477369Y466772D01*
X474408Y470847D01*
X470847Y474408D01*
X466772Y477369D01*
X462284Y479656D01*
X457493Y481212D01*
X452518Y482000D01*
D02*
G37*
G36*
X-447481D02*
X-452518D01*
X-457493Y481212D01*
X-462284Y479656D01*
X-466772Y477369D01*
X-470847Y474408D01*
X-474408Y470847D01*
X-477369Y466772D01*
X-479656Y462284D01*
X-481212Y457493D01*
X-482000Y452518D01*
Y447481D01*
X-481212Y442507D01*
X-479656Y437716D01*
X-477369Y433228D01*
X-474408Y429153D01*
X-470847Y425592D01*
X-466772Y422631D01*
X-462284Y420344D01*
X-457493Y418788D01*
X-452518Y418000D01*
X-447481D01*
X-442507Y418788D01*
X-437716Y420344D01*
X-433228Y422631D01*
X-429153Y425592D01*
X-425592Y429153D01*
X-422631Y433228D01*
X-420344Y437716D01*
X-418788Y442507D01*
X-418000Y447481D01*
Y452518D01*
X-418788Y457493D01*
X-420344Y462284D01*
X-422631Y466772D01*
X-425592Y470847D01*
X-429153Y474408D01*
X-433228Y477369D01*
X-437716Y479656D01*
X-442507Y481212D01*
X-447481Y482000D01*
D02*
G37*
G36*
X56580Y410580D02*
X15420D01*
Y369420D01*
X56580D01*
Y410580D01*
D02*
G37*
G36*
X56245Y354500D02*
X54255D01*
X52418Y353739D01*
X51011Y352332D01*
X50423Y350913D01*
X49077D01*
X48489Y352332D01*
X47082Y353739D01*
X45245Y354500D01*
X43255D01*
X41418Y353739D01*
X40011Y352332D01*
X39423Y350913D01*
X38077D01*
X37489Y352332D01*
X36082Y353739D01*
X34245Y354500D01*
X32255D01*
X30418Y353739D01*
X29011Y352332D01*
X29010Y352329D01*
X27740D01*
X27739Y352332D01*
X26332Y353739D01*
X24495Y354500D01*
X22505D01*
X20668Y353739D01*
X19261Y352332D01*
X18673Y350913D01*
X17327D01*
X16739Y352332D01*
X15332Y353739D01*
X13495Y354500D01*
X11505D01*
X9668Y353739D01*
X8261Y352332D01*
X7673Y350913D01*
X6327D01*
X5739Y352332D01*
X4332Y353739D01*
X2495Y354500D01*
X505D01*
X-1332Y353739D01*
X-2739Y352332D01*
X-3500Y350495D01*
Y348505D01*
X-2739Y346668D01*
X-1821Y345750D01*
X-2739Y344832D01*
X-3500Y342995D01*
Y341005D01*
X-2739Y339168D01*
X-1446Y337875D01*
X-2739Y336582D01*
X-3500Y334745D01*
Y332756D01*
X-2739Y330918D01*
X-2026Y330205D01*
X-1430Y329375D01*
X-2026Y328545D01*
X-2739Y327832D01*
X-3500Y325995D01*
Y324005D01*
X-2739Y322168D01*
X-1332Y320761D01*
X505Y320000D01*
X2495D01*
X4332Y320761D01*
X5739Y322168D01*
X6327Y323587D01*
X7673D01*
X8261Y322168D01*
X9668Y320761D01*
X11505Y320000D01*
X13495D01*
X15332Y320761D01*
X16739Y322168D01*
X17327Y323587D01*
X18673D01*
X19261Y322168D01*
X20668Y320761D01*
X22505Y320000D01*
X24495D01*
X26332Y320761D01*
X27739Y322168D01*
X27740Y322171D01*
X29010D01*
X29011Y322168D01*
X30418Y320761D01*
X32255Y320000D01*
X34245D01*
X36082Y320761D01*
X37489Y322168D01*
X38077Y323587D01*
X39423D01*
X40011Y322168D01*
X41418Y320761D01*
X43255Y320000D01*
X45245D01*
X47082Y320761D01*
X48489Y322168D01*
X49077Y323587D01*
X50423D01*
X51011Y322168D01*
X52418Y320761D01*
X54255Y320000D01*
X56245D01*
X58082Y320761D01*
X59489Y322168D01*
X60250Y324005D01*
Y325995D01*
X59489Y327832D01*
X58776Y328545D01*
X58180Y329375D01*
X58776Y330205D01*
X59489Y330918D01*
X60250Y332756D01*
Y334745D01*
X59489Y336582D01*
X58196Y337875D01*
X59489Y339168D01*
X60250Y341005D01*
Y342995D01*
X59489Y344832D01*
X58571Y345750D01*
X59489Y346668D01*
X60250Y348505D01*
Y350495D01*
X59489Y352332D01*
X58082Y353739D01*
X56245Y354500D01*
D02*
G37*
G36*
X416167Y370563D02*
X413008D01*
X409956Y369745D01*
X407219Y368165D01*
X404985Y365931D01*
X403405Y363194D01*
X402588Y360142D01*
Y356983D01*
X403405Y353931D01*
X404985Y351194D01*
X407219Y348960D01*
X409956Y347380D01*
X413008Y346563D01*
X416167D01*
X419219Y347380D01*
X421956Y348960D01*
X424190Y351194D01*
X425770Y353931D01*
X426587Y356983D01*
Y360142D01*
X425770Y363194D01*
X424190Y365931D01*
X421956Y368165D01*
X419219Y369745D01*
X416167Y370563D01*
D02*
G37*
G36*
Y345163D02*
X413008D01*
X409956Y344345D01*
X407219Y342765D01*
X404985Y340531D01*
X403405Y337794D01*
X402588Y334742D01*
Y331583D01*
X403405Y328531D01*
X404985Y325794D01*
X407219Y323560D01*
X409956Y321980D01*
X413008Y321163D01*
X416167D01*
X419219Y321980D01*
X421956Y323560D01*
X424190Y325794D01*
X425770Y328531D01*
X426587Y331583D01*
Y334742D01*
X425770Y337794D01*
X424190Y340531D01*
X421956Y342765D01*
X419219Y344345D01*
X416167Y345163D01*
D02*
G37*
G36*
Y319763D02*
X413008D01*
X409956Y318945D01*
X407219Y317365D01*
X404985Y315131D01*
X403405Y312394D01*
X402588Y309342D01*
Y306183D01*
X403405Y303131D01*
X404985Y300394D01*
X407219Y298160D01*
X409956Y296580D01*
X413008Y295763D01*
X416167D01*
X419219Y296580D01*
X421956Y298160D01*
X424190Y300394D01*
X425770Y303131D01*
X426587Y306183D01*
Y309342D01*
X425770Y312394D01*
X424190Y315131D01*
X421956Y317365D01*
X419219Y318945D01*
X416167Y319763D01*
D02*
G37*
G36*
Y294363D02*
X413008D01*
X409956Y293545D01*
X407219Y291965D01*
X404985Y289731D01*
X403405Y286994D01*
X402588Y283942D01*
Y280783D01*
X403405Y277731D01*
X404985Y274994D01*
X407219Y272760D01*
X409956Y271180D01*
X413008Y270363D01*
X416167D01*
X419219Y271180D01*
X421956Y272760D01*
X424190Y274994D01*
X425770Y277731D01*
X426587Y280783D01*
Y283942D01*
X425770Y286994D01*
X424190Y289731D01*
X421956Y291965D01*
X419219Y293545D01*
X416167Y294363D01*
D02*
G37*
G36*
Y256643D02*
X413008D01*
X409956Y255825D01*
X407219Y254245D01*
X404985Y252011D01*
X403405Y249274D01*
X402588Y246222D01*
Y243063D01*
X403405Y240011D01*
X404985Y237274D01*
X407219Y235040D01*
X409956Y233460D01*
X413008Y232643D01*
X416167D01*
X419219Y233460D01*
X421956Y235040D01*
X424190Y237274D01*
X425770Y240011D01*
X426587Y243063D01*
Y246222D01*
X425770Y249274D01*
X424190Y252011D01*
X421956Y254245D01*
X419219Y255825D01*
X416167Y256643D01*
D02*
G37*
G36*
X372700Y251300D02*
X352700D01*
Y231300D01*
X372700D01*
Y251300D01*
D02*
G37*
G36*
X338616D02*
X335984D01*
X333440Y250618D01*
X331160Y249302D01*
X329298Y247440D01*
X327981Y245160D01*
X327300Y242617D01*
Y239984D01*
X327981Y237440D01*
X329298Y235160D01*
X331160Y233298D01*
X333440Y231982D01*
X335984Y231300D01*
X338616D01*
X341160Y231982D01*
X343440Y233298D01*
X345302Y235160D01*
X346618Y237440D01*
X347300Y239984D01*
Y242617D01*
X346618Y245160D01*
X345302Y247440D01*
X343440Y249302D01*
X341160Y250618D01*
X338616Y251300D01*
D02*
G37*
G36*
X416167Y231243D02*
X413008D01*
X409956Y230425D01*
X407219Y228845D01*
X404985Y226611D01*
X403405Y223874D01*
X402588Y220822D01*
Y217663D01*
X403405Y214611D01*
X404985Y211874D01*
X407219Y209640D01*
X409956Y208060D01*
X413008Y207243D01*
X416167D01*
X419219Y208060D01*
X421956Y209640D01*
X424190Y211874D01*
X425770Y214611D01*
X426587Y217663D01*
Y220822D01*
X425770Y223874D01*
X424190Y226611D01*
X421956Y228845D01*
X419219Y230425D01*
X416167Y231243D01*
D02*
G37*
G36*
X-401000Y229500D02*
X-425000D01*
Y185500D01*
X-401000D01*
Y229500D01*
D02*
G37*
G36*
X416167Y205843D02*
X413008D01*
X409956Y205025D01*
X407219Y203445D01*
X404985Y201211D01*
X403405Y198474D01*
X402588Y195422D01*
Y192263D01*
X403405Y189211D01*
X404985Y186474D01*
X407219Y184240D01*
X409956Y182660D01*
X413008Y181843D01*
X416167D01*
X419219Y182660D01*
X421956Y184240D01*
X424190Y186474D01*
X425770Y189211D01*
X426587Y192263D01*
Y195422D01*
X425770Y198474D01*
X424190Y201211D01*
X421956Y203445D01*
X419219Y205025D01*
X416167Y205843D01*
D02*
G37*
G36*
X364016Y200500D02*
X361384D01*
X358840Y199818D01*
X356560Y198502D01*
X354698Y196640D01*
X353382Y194360D01*
X352700Y191817D01*
Y189184D01*
X353382Y186640D01*
X354698Y184360D01*
X356560Y182498D01*
X358840Y181182D01*
X361384Y180500D01*
X364016D01*
X366560Y181182D01*
X368840Y182498D01*
X370702Y184360D01*
X372019Y186640D01*
X372700Y189184D01*
Y191817D01*
X372019Y194360D01*
X370702Y196640D01*
X368840Y198502D01*
X366560Y199818D01*
X364016Y200500D01*
D02*
G37*
G36*
X338616D02*
X335984D01*
X333440Y199818D01*
X331160Y198502D01*
X329298Y196640D01*
X327981Y194360D01*
X327300Y191817D01*
Y189184D01*
X327981Y186640D01*
X329298Y184360D01*
X331160Y182498D01*
X333440Y181182D01*
X335984Y180500D01*
X338616D01*
X341160Y181182D01*
X343440Y182498D01*
X345302Y184360D01*
X346618Y186640D01*
X347300Y189184D01*
Y191817D01*
X346618Y194360D01*
X345302Y196640D01*
X343440Y198502D01*
X341160Y199818D01*
X338616Y200500D01*
D02*
G37*
G36*
X311194Y206000D02*
X308806D01*
X306601Y205087D01*
X304913Y203399D01*
X304000Y201194D01*
Y198806D01*
X304913Y196601D01*
X306601Y194914D01*
X308388Y194173D01*
Y192827D01*
X306601Y192087D01*
X304913Y190399D01*
X304000Y188193D01*
Y185807D01*
X304913Y183601D01*
X306601Y181914D01*
X307147Y181687D01*
Y180313D01*
X306601Y180087D01*
X304913Y178399D01*
X304000Y176194D01*
Y173806D01*
X304913Y171601D01*
X306601Y169914D01*
X308806Y169000D01*
X311194D01*
X313399Y169914D01*
X315086Y171601D01*
X316000Y173806D01*
Y176194D01*
X315086Y178399D01*
X313399Y180087D01*
X312853Y180313D01*
Y181687D01*
X313399Y181914D01*
X315086Y183601D01*
X316000Y185807D01*
Y188193D01*
X315086Y190399D01*
X313399Y192087D01*
X311612Y192827D01*
Y194173D01*
X313399Y194914D01*
X315086Y196601D01*
X316000Y198806D01*
Y201194D01*
X315086Y203399D01*
X313399Y205087D01*
X311194Y206000D01*
D02*
G37*
G36*
X271194Y175000D02*
X268806D01*
X266601Y174086D01*
X264913Y172399D01*
X264000Y170194D01*
Y167806D01*
X264913Y165601D01*
X266601Y163913D01*
X268806Y163000D01*
X271194D01*
X273399Y163913D01*
X275086Y165601D01*
X276000Y167806D01*
Y170194D01*
X275086Y172399D01*
X273399Y174086D01*
X271194Y175000D01*
D02*
G37*
G36*
X416167Y180443D02*
X413008D01*
X409956Y179625D01*
X407219Y178045D01*
X404985Y175811D01*
X403405Y173074D01*
X402588Y170022D01*
Y166863D01*
X403405Y163811D01*
X404985Y161074D01*
X407219Y158840D01*
X409956Y157260D01*
X413008Y156443D01*
X416167D01*
X419219Y157260D01*
X421956Y158840D01*
X424190Y161074D01*
X425770Y163811D01*
X426587Y166863D01*
Y170022D01*
X425770Y173074D01*
X424190Y175811D01*
X421956Y178045D01*
X419219Y179625D01*
X416167Y180443D01*
D02*
G37*
G36*
X364016Y175100D02*
X361384D01*
X358840Y174419D01*
X356560Y173102D01*
X354698Y171240D01*
X353382Y168960D01*
X352700Y166416D01*
Y163783D01*
X353382Y161240D01*
X354698Y158960D01*
X356560Y157098D01*
X358840Y155781D01*
X361384Y155100D01*
X364016D01*
X366560Y155781D01*
X368840Y157098D01*
X370702Y158960D01*
X372019Y161240D01*
X372700Y163783D01*
Y166416D01*
X372019Y168960D01*
X370702Y171240D01*
X368840Y173102D01*
X366560Y174419D01*
X364016Y175100D01*
D02*
G37*
G36*
X338616D02*
X335984D01*
X333440Y174419D01*
X331160Y173102D01*
X329298Y171240D01*
X327981Y168960D01*
X327300Y166416D01*
Y163783D01*
X327981Y161240D01*
X329298Y158960D01*
X331160Y157098D01*
X333440Y155781D01*
X335984Y155100D01*
X338616D01*
X341160Y155781D01*
X343440Y157098D01*
X345302Y158960D01*
X346618Y161240D01*
X347300Y163783D01*
Y166416D01*
X346618Y168960D01*
X345302Y171240D01*
X343440Y173102D01*
X341160Y174419D01*
X338616Y175100D01*
D02*
G37*
G36*
X-335984D02*
X-338616D01*
X-341160Y174419D01*
X-343440Y173102D01*
X-345302Y171240D01*
X-346618Y168960D01*
X-347300Y166416D01*
Y163783D01*
X-346618Y161240D01*
X-345302Y158960D01*
X-343440Y157098D01*
X-341160Y155781D01*
X-338616Y155100D01*
X-335984D01*
X-333440Y155781D01*
X-331160Y157098D01*
X-329298Y158960D01*
X-327981Y161240D01*
X-327300Y163783D01*
Y166416D01*
X-327981Y168960D01*
X-329298Y171240D01*
X-331160Y173102D01*
X-333440Y174419D01*
X-335984Y175100D01*
D02*
G37*
G36*
X-361384D02*
X-364016D01*
X-366560Y174419D01*
X-368840Y173102D01*
X-370702Y171240D01*
X-372019Y168960D01*
X-372700Y166416D01*
Y163783D01*
X-372019Y161240D01*
X-370702Y158960D01*
X-368840Y157098D01*
X-366560Y155781D01*
X-364016Y155100D01*
X-361384D01*
X-358840Y155781D01*
X-356560Y157098D01*
X-354698Y158960D01*
X-353382Y161240D01*
X-352700Y163783D01*
Y166416D01*
X-353382Y168960D01*
X-354698Y171240D01*
X-356560Y173102D01*
X-358840Y174419D01*
X-361384Y175100D01*
D02*
G37*
G36*
X311194Y155000D02*
X308806D01*
X306601Y154087D01*
X304913Y152399D01*
X304000Y150194D01*
Y147807D01*
X304913Y145601D01*
X306601Y143913D01*
X307147Y143687D01*
Y142313D01*
X306601Y142087D01*
X304913Y140399D01*
X304000Y138194D01*
Y135807D01*
X304913Y133601D01*
X306601Y131913D01*
X308806Y131000D01*
X311194D01*
X313399Y131913D01*
X315086Y133601D01*
X316000Y135807D01*
Y138194D01*
X315086Y140399D01*
X313399Y142087D01*
X312853Y142313D01*
Y143687D01*
X313399Y143913D01*
X315086Y145601D01*
X316000Y147807D01*
Y150194D01*
X315086Y152399D01*
X313399Y154087D01*
X311194Y155000D01*
D02*
G37*
G36*
X-361384Y149700D02*
X-364016D01*
X-366560Y149018D01*
X-368840Y147702D01*
X-370702Y145840D01*
X-372019Y143560D01*
X-372700Y141017D01*
Y138384D01*
X-372019Y135840D01*
X-370702Y133560D01*
X-368840Y131698D01*
X-366560Y130381D01*
X-364016Y129700D01*
X-361384D01*
X-358840Y130381D01*
X-356560Y131698D01*
X-354698Y133560D01*
X-353382Y135840D01*
X-352700Y138384D01*
Y141017D01*
X-353382Y143560D01*
X-354698Y145840D01*
X-356560Y147702D01*
X-358840Y149018D01*
X-361384Y149700D01*
D02*
G37*
G36*
X418167Y142723D02*
X415008D01*
X411956Y141905D01*
X409219Y140325D01*
X406985Y138091D01*
X405405Y135354D01*
X404588Y132302D01*
Y129143D01*
X405405Y126091D01*
X406985Y123354D01*
X409219Y121120D01*
X411956Y119540D01*
X415008Y118722D01*
X418167D01*
X421219Y119540D01*
X423956Y121120D01*
X426190Y123354D01*
X427770Y126091D01*
X428587Y129143D01*
Y132302D01*
X427770Y135354D01*
X426190Y138091D01*
X423956Y140325D01*
X421219Y141905D01*
X418167Y142723D01*
D02*
G37*
G36*
X311194Y129000D02*
X308806D01*
X306601Y128087D01*
X304913Y126399D01*
X304000Y124193D01*
Y121806D01*
X304913Y119601D01*
X306601Y117914D01*
X307147Y117687D01*
Y116313D01*
X306601Y116087D01*
X304913Y114399D01*
X304000Y112193D01*
Y109806D01*
X304913Y107601D01*
X306601Y105913D01*
X308806Y105000D01*
X311194D01*
X313399Y105913D01*
X315086Y107601D01*
X316000Y109806D01*
Y112193D01*
X315086Y114399D01*
X313399Y116087D01*
X312853Y116313D01*
Y117687D01*
X313399Y117914D01*
X315086Y119601D01*
X316000Y121806D01*
Y124193D01*
X315086Y126399D01*
X313399Y128087D01*
X311194Y129000D01*
D02*
G37*
G36*
X364016Y124300D02*
X361384D01*
X358840Y123618D01*
X356560Y122302D01*
X354698Y120440D01*
X353382Y118160D01*
X352700Y115617D01*
Y112984D01*
X353382Y110440D01*
X354698Y108160D01*
X356560Y106298D01*
X358840Y104981D01*
X361384Y104300D01*
X364016D01*
X366560Y104981D01*
X368840Y106298D01*
X370702Y108160D01*
X372019Y110440D01*
X372700Y112984D01*
Y115617D01*
X372019Y118160D01*
X370702Y120440D01*
X368840Y122302D01*
X366560Y123618D01*
X364016Y124300D01*
D02*
G37*
G36*
X338616D02*
X335984D01*
X333440Y123618D01*
X331160Y122302D01*
X329298Y120440D01*
X327981Y118160D01*
X327300Y115617D01*
Y112984D01*
X327981Y110440D01*
X329298Y108160D01*
X331160Y106298D01*
X333440Y104981D01*
X335984Y104300D01*
X338616D01*
X341160Y104981D01*
X343440Y106298D01*
X345302Y108160D01*
X346618Y110440D01*
X347300Y112984D01*
Y115617D01*
X346618Y118160D01*
X345302Y120440D01*
X343440Y122302D01*
X341160Y123618D01*
X338616Y124300D01*
D02*
G37*
G36*
X-335984D02*
X-338616D01*
X-341160Y123618D01*
X-343440Y122302D01*
X-345302Y120440D01*
X-346618Y118160D01*
X-347300Y115617D01*
Y112984D01*
X-346618Y110440D01*
X-345302Y108160D01*
X-343440Y106298D01*
X-341160Y104981D01*
X-338616Y104300D01*
X-335984D01*
X-333440Y104981D01*
X-331160Y106298D01*
X-329298Y108160D01*
X-327981Y110440D01*
X-327300Y112984D01*
Y115617D01*
X-327981Y118160D01*
X-329298Y120440D01*
X-331160Y122302D01*
X-333440Y123618D01*
X-335984Y124300D01*
D02*
G37*
G36*
X-361384D02*
X-364016D01*
X-366560Y123618D01*
X-368840Y122302D01*
X-370702Y120440D01*
X-372019Y118160D01*
X-372700Y115617D01*
Y112984D01*
X-372019Y110440D01*
X-370702Y108160D01*
X-368840Y106298D01*
X-366560Y104981D01*
X-364016Y104300D01*
X-361384D01*
X-358840Y104981D01*
X-356560Y106298D01*
X-354698Y108160D01*
X-353382Y110440D01*
X-352700Y112984D01*
Y115617D01*
X-353382Y118160D01*
X-354698Y120440D01*
X-356560Y122302D01*
X-358840Y123618D01*
X-361384Y124300D01*
D02*
G37*
G36*
X418167Y117323D02*
X415008D01*
X411956Y116505D01*
X409219Y114925D01*
X406985Y112691D01*
X405405Y109954D01*
X404588Y106902D01*
Y103743D01*
X405405Y100691D01*
X406985Y97954D01*
X409219Y95720D01*
X411956Y94140D01*
X415008Y93322D01*
X418167D01*
X421219Y94140D01*
X423956Y95720D01*
X426190Y97954D01*
X427770Y100691D01*
X428587Y103743D01*
Y106902D01*
X427770Y109954D01*
X426190Y112691D01*
X423956Y114925D01*
X421219Y116505D01*
X418167Y117323D01*
D02*
G37*
G36*
X305995Y97000D02*
X304005D01*
X302168Y96239D01*
X300761Y94832D01*
X300000Y92995D01*
Y91005D01*
X300761Y89168D01*
X300929Y89000D01*
X300761Y88832D01*
X300000Y86995D01*
Y85005D01*
X300761Y83168D01*
X302168Y81761D01*
X304005Y81000D01*
X305995D01*
X307832Y81761D01*
X309239Y83168D01*
X310000Y85005D01*
Y86995D01*
X309239Y88832D01*
X309071Y89000D01*
X309239Y89168D01*
X310000Y91005D01*
Y92995D01*
X309239Y94832D01*
X307832Y96239D01*
X305995Y97000D01*
D02*
G37*
G36*
X-335984Y98900D02*
X-338616D01*
X-341160Y98218D01*
X-343440Y96902D01*
X-345302Y95040D01*
X-346618Y92760D01*
X-347300Y90217D01*
Y87584D01*
X-346618Y85040D01*
X-345302Y82760D01*
X-343440Y80898D01*
X-341160Y79581D01*
X-338616Y78900D01*
X-335984D01*
X-333440Y79581D01*
X-331160Y80898D01*
X-329298Y82760D01*
X-327981Y85040D01*
X-327300Y87584D01*
Y90217D01*
X-327981Y92760D01*
X-329298Y95040D01*
X-331160Y96902D01*
X-333440Y98218D01*
X-335984Y98900D01*
D02*
G37*
G36*
X-361384D02*
X-364016D01*
X-366560Y98218D01*
X-368840Y96902D01*
X-370702Y95040D01*
X-372019Y92760D01*
X-372700Y90217D01*
Y87584D01*
X-372019Y85040D01*
X-370702Y82760D01*
X-368840Y80898D01*
X-366560Y79581D01*
X-364016Y78900D01*
X-361384D01*
X-358840Y79581D01*
X-356560Y80898D01*
X-354698Y82760D01*
X-353382Y85040D01*
X-352700Y87584D01*
Y90217D01*
X-353382Y92760D01*
X-354698Y95040D01*
X-356560Y96902D01*
X-358840Y98218D01*
X-361384Y98900D01*
D02*
G37*
G36*
X418167Y91923D02*
X415008D01*
X411956Y91105D01*
X409219Y89525D01*
X406985Y87291D01*
X405405Y84554D01*
X404588Y81502D01*
Y78343D01*
X405405Y75291D01*
X406985Y72554D01*
X409219Y70320D01*
X411956Y68740D01*
X415008Y67923D01*
X418167D01*
X421219Y68740D01*
X423956Y70320D01*
X426190Y72554D01*
X427770Y75291D01*
X428587Y78343D01*
Y81502D01*
X427770Y84554D01*
X426190Y87291D01*
X423956Y89525D01*
X421219Y91105D01*
X418167Y91923D01*
D02*
G37*
G36*
X-403500Y109500D02*
X-427500D01*
Y65500D01*
X-403500D01*
Y109500D01*
D02*
G37*
G36*
X-301005Y64000D02*
X-302995D01*
X-304832Y63239D01*
X-306000Y62071D01*
X-307168Y63239D01*
X-309005Y64000D01*
X-310995D01*
X-312832Y63239D01*
X-314239Y61832D01*
X-315000Y59995D01*
Y58005D01*
X-314239Y56168D01*
X-313071Y55000D01*
X-314239Y53832D01*
X-315000Y51995D01*
Y50005D01*
X-314239Y48168D01*
X-313071Y47000D01*
X-314239Y45832D01*
X-315000Y43995D01*
Y42005D01*
X-314239Y40168D01*
X-312832Y38761D01*
X-310995Y38000D01*
X-309005D01*
X-307168Y38761D01*
X-306000Y39929D01*
X-304832Y38761D01*
X-302995Y38000D01*
X-301005D01*
X-299168Y38761D01*
X-297761Y40168D01*
X-297000Y42005D01*
Y43995D01*
X-297761Y45832D01*
X-298929Y47000D01*
X-297761Y48168D01*
X-297000Y50005D01*
Y51995D01*
X-297761Y53832D01*
X-298929Y55000D01*
X-297761Y56168D01*
X-297000Y58005D01*
Y59995D01*
X-297761Y61832D01*
X-299168Y63239D01*
X-301005Y64000D01*
D02*
G37*
G36*
X-23750Y193039D02*
X-24530Y192884D01*
X-25192Y192442D01*
X-25634Y191780D01*
X-25789Y191000D01*
Y104750D01*
X-25789Y104750D01*
X-25634Y103970D01*
X-25192Y103308D01*
X-25192Y103308D01*
X17058Y61058D01*
X17720Y60616D01*
X18500Y60461D01*
X77500D01*
X78280Y60616D01*
X78942Y61058D01*
X79384Y61720D01*
X79539Y62500D01*
Y191000D01*
X79384Y191780D01*
X78942Y192442D01*
X78280Y192884D01*
X77500Y193039D01*
X-23750Y193039D01*
D02*
G37*
G36*
X364016Y73500D02*
X361384D01*
X358840Y72818D01*
X356560Y71502D01*
X354698Y69640D01*
X353382Y67360D01*
X352700Y64816D01*
Y62183D01*
X353382Y59640D01*
X354698Y57360D01*
X356560Y55498D01*
X358840Y54181D01*
X361384Y53500D01*
X364016D01*
X366560Y54181D01*
X368840Y55498D01*
X370702Y57360D01*
X372019Y59640D01*
X372700Y62183D01*
Y64816D01*
X372019Y67360D01*
X370702Y69640D01*
X368840Y71502D01*
X366560Y72818D01*
X364016Y73500D01*
D02*
G37*
G36*
X338616D02*
X335984D01*
X333440Y72818D01*
X331160Y71502D01*
X329298Y69640D01*
X327981Y67360D01*
X327300Y64816D01*
Y62183D01*
X327981Y59640D01*
X329298Y57360D01*
X331160Y55498D01*
X333440Y54181D01*
X335984Y53500D01*
X338616D01*
X341160Y54181D01*
X343440Y55498D01*
X345302Y57360D01*
X346618Y59640D01*
X347300Y62183D01*
Y64816D01*
X346618Y67360D01*
X345302Y69640D01*
X343440Y71502D01*
X341160Y72818D01*
X338616Y73500D01*
D02*
G37*
G36*
X-335984D02*
X-338616D01*
X-341160Y72818D01*
X-343440Y71502D01*
X-345302Y69640D01*
X-346618Y67360D01*
X-347300Y64816D01*
Y62183D01*
X-346618Y59640D01*
X-345302Y57360D01*
X-343440Y55498D01*
X-341160Y54181D01*
X-338616Y53500D01*
X-335984D01*
X-333440Y54181D01*
X-331160Y55498D01*
X-329298Y57360D01*
X-327981Y59640D01*
X-327300Y62183D01*
Y64816D01*
X-327981Y67360D01*
X-329298Y69640D01*
X-331160Y71502D01*
X-333440Y72818D01*
X-335984Y73500D01*
D02*
G37*
G36*
X-361384D02*
X-364016D01*
X-366560Y72818D01*
X-368840Y71502D01*
X-370702Y69640D01*
X-372019Y67360D01*
X-372700Y64816D01*
Y62183D01*
X-372019Y59640D01*
X-370702Y57360D01*
X-368840Y55498D01*
X-366560Y54181D01*
X-364016Y53500D01*
X-361384D01*
X-358840Y54181D01*
X-356560Y55498D01*
X-354698Y57360D01*
X-353382Y59640D01*
X-352700Y62183D01*
Y64816D01*
X-353382Y67360D01*
X-354698Y69640D01*
X-356560Y71502D01*
X-358840Y72818D01*
X-361384Y73500D01*
D02*
G37*
G36*
X418167Y66522D02*
X415008D01*
X411956Y65705D01*
X409219Y64125D01*
X406985Y61891D01*
X405405Y59154D01*
X404588Y56102D01*
Y52943D01*
X405405Y49891D01*
X406985Y47154D01*
X409219Y44920D01*
X411956Y43340D01*
X415008Y42523D01*
X418167D01*
X421219Y43340D01*
X423956Y44920D01*
X426190Y47154D01*
X427770Y49891D01*
X428587Y52943D01*
Y56102D01*
X427770Y59154D01*
X426190Y61891D01*
X423956Y64125D01*
X421219Y65705D01*
X418167Y66522D01*
D02*
G37*
G36*
X364016Y48100D02*
X361384D01*
X358840Y47418D01*
X356560Y46102D01*
X354698Y44240D01*
X353382Y41960D01*
X352700Y39416D01*
Y36783D01*
X353382Y34240D01*
X354698Y31960D01*
X356560Y30098D01*
X358840Y28781D01*
X361384Y28100D01*
X364016D01*
X366560Y28781D01*
X368840Y30098D01*
X370702Y31960D01*
X372019Y34240D01*
X372700Y36783D01*
Y39416D01*
X372019Y41960D01*
X370702Y44240D01*
X368840Y46102D01*
X366560Y47418D01*
X364016Y48100D01*
D02*
G37*
G36*
X338616D02*
X335984D01*
X333440Y47418D01*
X331160Y46102D01*
X329298Y44240D01*
X327981Y41960D01*
X327300Y39416D01*
Y36783D01*
X327981Y34240D01*
X329298Y31960D01*
X331160Y30098D01*
X333440Y28781D01*
X335984Y28100D01*
X338616D01*
X341160Y28781D01*
X343440Y30098D01*
X345302Y31960D01*
X346618Y34240D01*
X347300Y36783D01*
Y39416D01*
X346618Y41960D01*
X345302Y44240D01*
X343440Y46102D01*
X341160Y47418D01*
X338616Y48100D01*
D02*
G37*
G36*
X-335984D02*
X-338616D01*
X-341160Y47418D01*
X-343440Y46102D01*
X-345302Y44240D01*
X-346618Y41960D01*
X-347300Y39416D01*
Y36783D01*
X-346618Y34240D01*
X-345302Y31960D01*
X-343440Y30098D01*
X-341160Y28781D01*
X-338616Y28100D01*
X-335984D01*
X-333440Y28781D01*
X-331160Y30098D01*
X-329298Y31960D01*
X-327981Y34240D01*
X-327300Y36783D01*
Y39416D01*
X-327981Y41960D01*
X-329298Y44240D01*
X-331160Y46102D01*
X-333440Y47418D01*
X-335984Y48100D01*
D02*
G37*
G36*
X-361384D02*
X-364016D01*
X-366560Y47418D01*
X-368840Y46102D01*
X-370702Y44240D01*
X-372019Y41960D01*
X-372700Y39416D01*
Y36783D01*
X-372019Y34240D01*
X-370702Y31960D01*
X-368840Y30098D01*
X-366560Y28781D01*
X-364016Y28100D01*
X-361384D01*
X-358840Y28781D01*
X-356560Y30098D01*
X-354698Y31960D01*
X-353382Y34240D01*
X-352700Y36783D01*
Y39416D01*
X-353382Y41960D01*
X-354698Y44240D01*
X-356560Y46102D01*
X-358840Y47418D01*
X-361384Y48100D01*
D02*
G37*
G36*
X421167Y28073D02*
X418008D01*
X414956Y27255D01*
X412219Y25675D01*
X409985Y23441D01*
X408405Y20704D01*
X407588Y17652D01*
Y14493D01*
X408405Y11441D01*
X409985Y8704D01*
X412219Y6470D01*
X414956Y4890D01*
X418008Y4073D01*
X421167D01*
X424219Y4890D01*
X426956Y6470D01*
X429190Y8704D01*
X430770Y11441D01*
X431587Y14493D01*
Y17652D01*
X430770Y20704D01*
X429190Y23441D01*
X426956Y25675D01*
X424219Y27255D01*
X421167Y28073D01*
D02*
G37*
G36*
X364016Y22700D02*
X361384D01*
X358840Y22018D01*
X356560Y20702D01*
X354698Y18840D01*
X353382Y16560D01*
X352700Y14016D01*
Y11384D01*
X353382Y8840D01*
X354698Y6560D01*
X356560Y4698D01*
X358840Y3381D01*
X361384Y2700D01*
X364016D01*
X366560Y3381D01*
X368840Y4698D01*
X370702Y6560D01*
X372019Y8840D01*
X372700Y11384D01*
Y14016D01*
X372019Y16560D01*
X370702Y18840D01*
X368840Y20702D01*
X366560Y22018D01*
X364016Y22700D01*
D02*
G37*
G36*
X338616D02*
X335984D01*
X333440Y22018D01*
X331160Y20702D01*
X329298Y18840D01*
X327981Y16560D01*
X327300Y14016D01*
Y11384D01*
X327981Y8840D01*
X329298Y6560D01*
X331160Y4698D01*
X333440Y3381D01*
X335984Y2700D01*
X338616D01*
X341160Y3381D01*
X343440Y4698D01*
X345302Y6560D01*
X346618Y8840D01*
X347300Y11384D01*
Y14016D01*
X346618Y16560D01*
X345302Y18840D01*
X343440Y20702D01*
X341160Y22018D01*
X338616Y22700D01*
D02*
G37*
G36*
X-335984D02*
X-338616D01*
X-341160Y22018D01*
X-343440Y20702D01*
X-345302Y18840D01*
X-346618Y16560D01*
X-347300Y14016D01*
Y11384D01*
X-346618Y8840D01*
X-345302Y6560D01*
X-343440Y4698D01*
X-341160Y3381D01*
X-338616Y2700D01*
X-335984D01*
X-333440Y3381D01*
X-331160Y4698D01*
X-329298Y6560D01*
X-327981Y8840D01*
X-327300Y11384D01*
Y14016D01*
X-327981Y16560D01*
X-329298Y18840D01*
X-331160Y20702D01*
X-333440Y22018D01*
X-335984Y22700D01*
D02*
G37*
G36*
X-361384D02*
X-364016D01*
X-366560Y22018D01*
X-368840Y20702D01*
X-370702Y18840D01*
X-372019Y16560D01*
X-372700Y14016D01*
Y11384D01*
X-372019Y8840D01*
X-370702Y6560D01*
X-368840Y4698D01*
X-366560Y3381D01*
X-364016Y2700D01*
X-361384D01*
X-358840Y3381D01*
X-356560Y4698D01*
X-354698Y6560D01*
X-353382Y8840D01*
X-352700Y11384D01*
Y14016D01*
X-353382Y16560D01*
X-354698Y18840D01*
X-356560Y20702D01*
X-358840Y22018D01*
X-361384Y22700D01*
D02*
G37*
G36*
X421167Y2673D02*
X418008D01*
X414956Y1855D01*
X412219Y275D01*
X409985Y-1959D01*
X408405Y-4696D01*
X407588Y-7748D01*
Y-10907D01*
X408405Y-13959D01*
X409985Y-16696D01*
X412219Y-18930D01*
X414956Y-20510D01*
X418008Y-21327D01*
X421167D01*
X424219Y-20510D01*
X426956Y-18930D01*
X429190Y-16696D01*
X430770Y-13959D01*
X431587Y-10907D01*
Y-7748D01*
X430770Y-4696D01*
X429190Y-1959D01*
X426956Y275D01*
X424219Y1855D01*
X421167Y2673D01*
D02*
G37*
G36*
X364016Y-2700D02*
X361384D01*
X358840Y-3381D01*
X356560Y-4698D01*
X354698Y-6560D01*
X353382Y-8840D01*
X352700Y-11384D01*
Y-14016D01*
X353382Y-16560D01*
X354698Y-18840D01*
X356560Y-20702D01*
X358840Y-22018D01*
X361384Y-22700D01*
X364016D01*
X366560Y-22018D01*
X368840Y-20702D01*
X370702Y-18840D01*
X372019Y-16560D01*
X372700Y-14016D01*
Y-11384D01*
X372019Y-8840D01*
X370702Y-6560D01*
X368840Y-4698D01*
X366560Y-3381D01*
X364016Y-2700D01*
D02*
G37*
G36*
X338616D02*
X335984D01*
X333440Y-3381D01*
X331160Y-4698D01*
X329298Y-6560D01*
X327981Y-8840D01*
X327300Y-11384D01*
Y-14016D01*
X327981Y-16560D01*
X329298Y-18840D01*
X331160Y-20702D01*
X333440Y-22018D01*
X335984Y-22700D01*
X338616D01*
X341160Y-22018D01*
X343440Y-20702D01*
X345302Y-18840D01*
X346618Y-16560D01*
X347300Y-14016D01*
Y-11384D01*
X346618Y-8840D01*
X345302Y-6560D01*
X343440Y-4698D01*
X341160Y-3381D01*
X338616Y-2700D01*
D02*
G37*
G36*
X-335984D02*
X-338616D01*
X-341160Y-3381D01*
X-343440Y-4698D01*
X-345302Y-6560D01*
X-346618Y-8840D01*
X-347300Y-11384D01*
Y-14016D01*
X-346618Y-16560D01*
X-345302Y-18840D01*
X-343440Y-20702D01*
X-341160Y-22018D01*
X-338616Y-22700D01*
X-335984D01*
X-333440Y-22018D01*
X-331160Y-20702D01*
X-329298Y-18840D01*
X-327981Y-16560D01*
X-327300Y-14016D01*
Y-11384D01*
X-327981Y-8840D01*
X-329298Y-6560D01*
X-331160Y-4698D01*
X-333440Y-3381D01*
X-335984Y-2700D01*
D02*
G37*
G36*
X-361384D02*
X-364016D01*
X-366560Y-3381D01*
X-368840Y-4698D01*
X-370702Y-6560D01*
X-372019Y-8840D01*
X-372700Y-11384D01*
Y-14016D01*
X-372019Y-16560D01*
X-370702Y-18840D01*
X-368840Y-20702D01*
X-366560Y-22018D01*
X-364016Y-22700D01*
X-361384D01*
X-358840Y-22018D01*
X-356560Y-20702D01*
X-354698Y-18840D01*
X-353382Y-16560D01*
X-352700Y-14016D01*
Y-11384D01*
X-353382Y-8840D01*
X-354698Y-6560D01*
X-356560Y-4698D01*
X-358840Y-3381D01*
X-361384Y-2700D01*
D02*
G37*
G36*
X421167Y-22727D02*
X418008D01*
X414956Y-23545D01*
X412219Y-25125D01*
X409985Y-27359D01*
X408405Y-30096D01*
X407588Y-33148D01*
Y-36307D01*
X408405Y-39359D01*
X409985Y-42096D01*
X412219Y-44330D01*
X414956Y-45910D01*
X418008Y-46727D01*
X421167D01*
X424219Y-45910D01*
X426956Y-44330D01*
X429190Y-42096D01*
X430770Y-39359D01*
X431587Y-36307D01*
Y-33148D01*
X430770Y-30096D01*
X429190Y-27359D01*
X426956Y-25125D01*
X424219Y-23545D01*
X421167Y-22727D01*
D02*
G37*
G36*
X-335984Y-28100D02*
X-338616D01*
X-341160Y-28781D01*
X-343440Y-30098D01*
X-345302Y-31960D01*
X-346618Y-34240D01*
X-347300Y-36783D01*
Y-39416D01*
X-346618Y-41960D01*
X-345302Y-44240D01*
X-343440Y-46102D01*
X-341160Y-47418D01*
X-338616Y-48100D01*
X-335984D01*
X-333440Y-47418D01*
X-331160Y-46102D01*
X-329298Y-44240D01*
X-327981Y-41960D01*
X-327300Y-39416D01*
Y-36783D01*
X-327981Y-34240D01*
X-329298Y-31960D01*
X-331160Y-30098D01*
X-333440Y-28781D01*
X-335984Y-28100D01*
D02*
G37*
G36*
X-361384D02*
X-364016D01*
X-366560Y-28781D01*
X-368840Y-30098D01*
X-370702Y-31960D01*
X-372019Y-34240D01*
X-372700Y-36783D01*
Y-39416D01*
X-372019Y-41960D01*
X-370702Y-44240D01*
X-368840Y-46102D01*
X-366560Y-47418D01*
X-364016Y-48100D01*
X-361384D01*
X-358840Y-47418D01*
X-356560Y-46102D01*
X-354698Y-44240D01*
X-353382Y-41960D01*
X-352700Y-39416D01*
Y-36783D01*
X-353382Y-34240D01*
X-354698Y-31960D01*
X-356560Y-30098D01*
X-358840Y-28781D01*
X-361384Y-28100D01*
D02*
G37*
G36*
X-403000Y-8000D02*
X-427000D01*
Y-52000D01*
X-403000D01*
Y-8000D01*
D02*
G37*
G36*
X421167Y-48127D02*
X418008D01*
X414956Y-48945D01*
X412219Y-50525D01*
X409985Y-52759D01*
X408405Y-55496D01*
X407588Y-58548D01*
Y-61707D01*
X408405Y-64759D01*
X409985Y-67496D01*
X412219Y-69730D01*
X414956Y-71310D01*
X418008Y-72127D01*
X421167D01*
X424219Y-71310D01*
X426956Y-69730D01*
X429190Y-67496D01*
X430770Y-64759D01*
X431587Y-61707D01*
Y-58548D01*
X430770Y-55496D01*
X429190Y-52759D01*
X426956Y-50525D01*
X424219Y-48945D01*
X421167Y-48127D01*
D02*
G37*
G36*
X-290005Y-75000D02*
X-291995D01*
X-293832Y-75761D01*
X-295239Y-77168D01*
X-296000Y-79005D01*
Y-80995D01*
X-295239Y-82832D01*
X-293832Y-84239D01*
X-291995Y-85000D01*
X-290005D01*
X-288168Y-84239D01*
X-286761Y-82832D01*
X-286000Y-80995D01*
Y-79005D01*
X-286761Y-77168D01*
X-288168Y-75761D01*
X-290005Y-75000D01*
D02*
G37*
G36*
X-250807Y149000D02*
X-253193D01*
X-255399Y148087D01*
X-257087Y146399D01*
X-258000Y144193D01*
Y141806D01*
X-257087Y139601D01*
X-255399Y137913D01*
X-255334Y137887D01*
Y90000D01*
X-255080Y88724D01*
X-254357Y87642D01*
X-156357Y-10358D01*
X-155276Y-11080D01*
X-154000Y-11334D01*
X133619D01*
X217858Y-95573D01*
X217372Y-96746D01*
X198461D01*
X133357Y-31642D01*
X132276Y-30920D01*
X131000Y-30666D01*
X-150619D01*
X-261666Y80381D01*
Y131887D01*
X-261601Y131913D01*
X-259914Y133601D01*
X-259000Y135807D01*
Y138194D01*
X-259914Y140399D01*
X-261601Y142087D01*
X-263806Y143000D01*
X-266194D01*
X-268399Y142087D01*
X-270087Y140399D01*
X-271000Y138194D01*
Y135807D01*
X-270087Y133601D01*
X-268399Y131913D01*
X-268334Y131887D01*
Y79000D01*
X-268080Y77724D01*
X-267358Y76642D01*
X-154358Y-36358D01*
X-153276Y-37080D01*
X-152000Y-37334D01*
X129619D01*
X194722Y-102437D01*
X195804Y-103160D01*
X197080Y-103414D01*
X291920D01*
X293196Y-103160D01*
X294277Y-102437D01*
X304481Y-92234D01*
X327841D01*
X327981Y-92760D01*
X329298Y-95040D01*
X331160Y-96902D01*
X333440Y-98218D01*
X335984Y-98900D01*
X338616D01*
X341160Y-98218D01*
X343440Y-96902D01*
X345302Y-95040D01*
X346442Y-93065D01*
X347712Y-93405D01*
Y-115111D01*
X338657Y-124166D01*
X333562D01*
X332286Y-124420D01*
X331204Y-125142D01*
X304893Y-151454D01*
X304170Y-152536D01*
X303916Y-153812D01*
Y-232369D01*
X283619Y-252666D01*
X-35799D01*
X-36325Y-251396D01*
X-36011Y-251082D01*
X-35250Y-249245D01*
Y-247255D01*
X-36011Y-245418D01*
X-37418Y-244011D01*
X-38837Y-243423D01*
Y-242077D01*
X-37418Y-241489D01*
X-36011Y-240082D01*
X-35250Y-238245D01*
Y-236255D01*
X-36011Y-234418D01*
X-37418Y-233011D01*
X-38837Y-232423D01*
Y-231077D01*
X-37418Y-230489D01*
X-36011Y-229082D01*
X-35250Y-227245D01*
Y-225255D01*
X-36011Y-223418D01*
X-37418Y-222011D01*
X-37421Y-222010D01*
Y-220740D01*
X-37418Y-220739D01*
X-36011Y-219332D01*
X-35250Y-217495D01*
Y-215505D01*
X-36011Y-213668D01*
X-37418Y-212261D01*
X-38837Y-211673D01*
Y-210327D01*
X-37418Y-209739D01*
X-36011Y-208332D01*
X-35250Y-206495D01*
Y-204505D01*
X-36011Y-202668D01*
X-37418Y-201261D01*
X-38837Y-200673D01*
Y-199327D01*
X-37418Y-198739D01*
X-36011Y-197332D01*
X-35250Y-195495D01*
Y-193505D01*
X-36011Y-191668D01*
X-37418Y-190261D01*
X-39255Y-189500D01*
X-41245D01*
X-43082Y-190261D01*
X-44489Y-191668D01*
X-45077Y-193087D01*
X-46423D01*
X-47011Y-191668D01*
X-48418Y-190261D01*
X-50255Y-189500D01*
X-52245D01*
X-54082Y-190261D01*
X-55489Y-191668D01*
X-55563Y-191846D01*
X-56937D01*
X-57011Y-191668D01*
X-58418Y-190261D01*
X-60255Y-189500D01*
X-62245D01*
X-64082Y-190261D01*
X-65489Y-191668D01*
X-66250Y-193505D01*
Y-195495D01*
X-65489Y-197332D01*
X-64082Y-198739D01*
X-62663Y-199327D01*
Y-200673D01*
X-64082Y-201261D01*
X-65489Y-202668D01*
X-66250Y-204505D01*
Y-206495D01*
X-65489Y-208332D01*
X-64082Y-209739D01*
X-62663Y-210327D01*
Y-211673D01*
X-64082Y-212261D01*
X-65489Y-213668D01*
X-66250Y-215505D01*
Y-217495D01*
X-65489Y-219332D01*
X-64082Y-220739D01*
X-64079Y-220740D01*
Y-222010D01*
X-64082Y-222011D01*
X-65489Y-223418D01*
X-66250Y-225255D01*
Y-227245D01*
X-65489Y-229082D01*
X-64082Y-230489D01*
X-62663Y-231077D01*
Y-232423D01*
X-64082Y-233011D01*
X-65489Y-234418D01*
X-66250Y-236255D01*
Y-238245D01*
X-65489Y-240082D01*
X-64082Y-241489D01*
X-62663Y-242077D01*
Y-243423D01*
X-64082Y-244011D01*
X-65489Y-245418D01*
X-66250Y-247255D01*
Y-249245D01*
X-65489Y-251082D01*
X-65175Y-251396D01*
X-65701Y-252666D01*
X-137000D01*
X-138276Y-252920D01*
X-139358Y-253643D01*
X-155857Y-270142D01*
X-156580Y-271224D01*
X-156834Y-272500D01*
Y-278387D01*
X-156899Y-278413D01*
X-158587Y-280101D01*
X-159500Y-282306D01*
Y-284694D01*
X-158587Y-286899D01*
X-156899Y-288587D01*
X-154693Y-289500D01*
X-152306D01*
X-150101Y-288587D01*
X-148413Y-286899D01*
X-147500Y-284694D01*
Y-282306D01*
X-148413Y-280101D01*
X-150101Y-278413D01*
X-150166Y-278387D01*
Y-273881D01*
X-135619Y-259334D01*
X285000D01*
X286276Y-259080D01*
X287358Y-258358D01*
X309608Y-236108D01*
X310330Y-235026D01*
X310584Y-233750D01*
Y-155193D01*
X326127Y-139650D01*
X327300Y-140136D01*
Y-141017D01*
X327981Y-143560D01*
X329298Y-145840D01*
X331160Y-147702D01*
X333440Y-149018D01*
X335984Y-149700D01*
X338616D01*
X341160Y-149018D01*
X343440Y-147702D01*
X345302Y-145840D01*
X346618Y-143560D01*
X347300Y-141017D01*
Y-138384D01*
X346618Y-135840D01*
X345302Y-133560D01*
X343440Y-131698D01*
X342437Y-131119D01*
X342434Y-131040D01*
X342541Y-129712D01*
X353404Y-118849D01*
X354127Y-117768D01*
X354380Y-116492D01*
Y-96518D01*
X355650Y-95992D01*
X356560Y-96902D01*
X358840Y-98218D01*
X361384Y-98900D01*
X364016D01*
X366560Y-98218D01*
X368840Y-96902D01*
X370702Y-95040D01*
X372019Y-92760D01*
X372159Y-92234D01*
X385269D01*
X390026Y-96992D01*
Y-232509D01*
X358309Y-264226D01*
X-116310D01*
X-117586Y-264480D01*
X-118667Y-265203D01*
X-148881Y-295416D01*
X-162637D01*
X-162663Y-295351D01*
X-164351Y-293663D01*
X-166556Y-292750D01*
X-168944D01*
X-171149Y-293663D01*
X-172837Y-295351D01*
X-173750Y-297556D01*
Y-299944D01*
X-172837Y-302149D01*
X-171149Y-303837D01*
X-168944Y-304750D01*
X-166556D01*
X-164351Y-303837D01*
X-162663Y-302149D01*
X-162637Y-302084D01*
X-147500D01*
X-146224Y-301830D01*
X-145142Y-301108D01*
X-114929Y-270894D01*
X359690D01*
X360966Y-270640D01*
X362048Y-269918D01*
X395718Y-236247D01*
X396441Y-235165D01*
X396695Y-233890D01*
Y-95611D01*
X396441Y-94335D01*
X395718Y-93253D01*
X389008Y-86543D01*
X387926Y-85820D01*
X386650Y-85566D01*
X372159D01*
X372019Y-85040D01*
X370702Y-82760D01*
X368840Y-80898D01*
X366560Y-79581D01*
X364016Y-78900D01*
X363136D01*
X362841Y-78186D01*
X362734Y-77630D01*
X363432Y-76586D01*
X363686Y-75310D01*
Y-73500D01*
X364016D01*
X366560Y-72818D01*
X368840Y-71502D01*
X370702Y-69640D01*
X372019Y-67360D01*
X372700Y-64816D01*
Y-62183D01*
X372019Y-59640D01*
X370702Y-57360D01*
X368840Y-55498D01*
X366560Y-54181D01*
X364016Y-53500D01*
X361384D01*
X358840Y-54181D01*
X356560Y-55498D01*
X354698Y-57360D01*
X353382Y-59640D01*
X352700Y-62183D01*
Y-64816D01*
X353382Y-67360D01*
X354698Y-69640D01*
X356560Y-71502D01*
X357018Y-71766D01*
Y-73929D01*
X348689Y-82258D01*
X347966Y-83340D01*
X347733Y-84513D01*
X347425Y-84642D01*
X346442Y-84735D01*
X345302Y-82760D01*
X343440Y-80898D01*
X341160Y-79581D01*
X338616Y-78900D01*
X335984D01*
X333440Y-79581D01*
X331160Y-80898D01*
X329298Y-82760D01*
X327981Y-85040D01*
X327841Y-85566D01*
X306808D01*
X306322Y-84393D01*
X323881Y-66834D01*
X327841D01*
X327981Y-67360D01*
X329298Y-69640D01*
X331160Y-71502D01*
X333440Y-72818D01*
X335984Y-73500D01*
X338616D01*
X341160Y-72818D01*
X343440Y-71502D01*
X345302Y-69640D01*
X346618Y-67360D01*
X347300Y-64816D01*
Y-62183D01*
X346618Y-59640D01*
X345302Y-57360D01*
X343440Y-55498D01*
X341160Y-54181D01*
X338616Y-53500D01*
X335984D01*
X333440Y-54181D01*
X331160Y-55498D01*
X329298Y-57360D01*
X327981Y-59640D01*
X327841Y-60166D01*
X322500D01*
X321224Y-60420D01*
X320143Y-61143D01*
X288349Y-92936D01*
X224651D01*
X137358Y-5642D01*
X136276Y-4920D01*
X135000Y-4666D01*
X-152619D01*
X-248666Y91381D01*
Y137887D01*
X-248601Y137913D01*
X-246914Y139601D01*
X-246000Y141806D01*
Y144193D01*
X-246914Y146399D01*
X-248601Y148087D01*
X-250807Y149000D01*
D02*
G37*
G36*
X-335984Y-78900D02*
X-338616D01*
X-341160Y-79581D01*
X-343440Y-80898D01*
X-345302Y-82760D01*
X-346618Y-85040D01*
X-347300Y-87584D01*
Y-90217D01*
X-346618Y-92760D01*
X-345302Y-95040D01*
X-344400Y-95942D01*
X-344926Y-97212D01*
X-355074D01*
X-355600Y-95942D01*
X-354698Y-95040D01*
X-353382Y-92760D01*
X-352700Y-90217D01*
Y-87584D01*
X-353382Y-85040D01*
X-354698Y-82760D01*
X-356560Y-80898D01*
X-358840Y-79581D01*
X-361384Y-78900D01*
X-364016D01*
X-366560Y-79581D01*
X-368840Y-80898D01*
X-370702Y-82760D01*
X-372019Y-85040D01*
X-372700Y-87584D01*
Y-90217D01*
X-372019Y-92760D01*
X-370702Y-95040D01*
X-369800Y-95942D01*
X-370326Y-97212D01*
X-422550D01*
X-424306Y-97561D01*
X-425794Y-98556D01*
X-442244Y-115006D01*
X-443239Y-116494D01*
X-443588Y-118250D01*
Y-160500D01*
X-443239Y-162256D01*
X-442244Y-163744D01*
X-399744Y-206244D01*
X-398256Y-207239D01*
X-396500Y-207588D01*
X-370326D01*
X-369800Y-208858D01*
X-370702Y-209760D01*
X-372019Y-212040D01*
X-372700Y-214583D01*
Y-217216D01*
X-372019Y-219760D01*
X-370702Y-222040D01*
X-368840Y-223902D01*
X-368340Y-224191D01*
X-368680Y-225461D01*
X-470250D01*
X-470250Y-225461D01*
X-471030Y-225616D01*
X-471692Y-226058D01*
X-477442Y-231808D01*
X-477884Y-232470D01*
X-478039Y-233250D01*
Y-296750D01*
X-477884Y-297530D01*
X-477442Y-298192D01*
Y-299558D01*
X-477884Y-300220D01*
X-478039Y-301000D01*
Y-386750D01*
X-477884Y-387530D01*
X-477442Y-388192D01*
X-476780Y-388634D01*
X-476000Y-388789D01*
X-302750D01*
X-301970Y-388634D01*
X-301308Y-388192D01*
X-301308Y-388192D01*
X-207058Y-293942D01*
X-206616Y-293280D01*
X-206461Y-292500D01*
Y-260740D01*
X-206463Y-260727D01*
X-206461Y-260714D01*
X-206541Y-260337D01*
X-206616Y-259959D01*
X-206623Y-259948D01*
X-206626Y-259936D01*
X-206843Y-259619D01*
X-207058Y-259298D01*
X-207069Y-259290D01*
X-207076Y-259280D01*
X-207985Y-258393D01*
X-207996Y-258386D01*
X-208004Y-258375D01*
X-208331Y-258168D01*
X-208652Y-257959D01*
X-208665Y-257957D01*
X-208676Y-257950D01*
X-209056Y-257884D01*
X-209435Y-257814D01*
X-209447Y-257817D01*
X-209460Y-257814D01*
X-244388Y-258690D01*
X-244889Y-257523D01*
X-216308Y-228942D01*
X-215866Y-228280D01*
X-215711Y-227500D01*
Y-218845D01*
X-214905Y-218039D01*
X-209845D01*
X-209039Y-218845D01*
Y-235000D01*
X-208884Y-235780D01*
X-208442Y-236442D01*
X-207780Y-236884D01*
X-207000Y-237039D01*
X-200500D01*
X-199720Y-236884D01*
X-199058Y-236442D01*
X-198808Y-236192D01*
X-198366Y-235530D01*
X-198211Y-234750D01*
Y-215000D01*
X-198366Y-214220D01*
X-198808Y-213558D01*
X-198808Y-213558D01*
X-201058Y-211308D01*
X-201720Y-210866D01*
X-202500Y-210711D01*
X-292750D01*
X-292750Y-210711D01*
X-293530Y-210866D01*
X-294192Y-211308D01*
X-294192Y-211308D01*
X-308345Y-225461D01*
X-331320D01*
X-331660Y-224191D01*
X-331160Y-223902D01*
X-329298Y-222040D01*
X-327981Y-219760D01*
X-327300Y-217216D01*
Y-214583D01*
X-327981Y-212040D01*
X-329298Y-209760D01*
X-331160Y-207898D01*
X-333440Y-206581D01*
X-335984Y-205900D01*
X-338616D01*
X-341160Y-206581D01*
X-343440Y-207898D01*
X-345302Y-209760D01*
X-346618Y-212040D01*
X-347300Y-214583D01*
Y-217216D01*
X-346618Y-219760D01*
X-345302Y-222040D01*
X-343440Y-223902D01*
X-342940Y-224191D01*
X-343280Y-225461D01*
X-356720D01*
X-357060Y-224191D01*
X-356560Y-223902D01*
X-354698Y-222040D01*
X-353382Y-219760D01*
X-352700Y-217216D01*
Y-214583D01*
X-353382Y-212040D01*
X-354698Y-209760D01*
X-355600Y-208858D01*
X-355074Y-207588D01*
X-349800D01*
X-348044Y-207239D01*
X-346556Y-206244D01*
X-340348Y-200036D01*
X-338616Y-200500D01*
X-335984D01*
X-333440Y-199818D01*
X-331160Y-198502D01*
X-329298Y-196640D01*
X-327981Y-194360D01*
X-327300Y-191817D01*
Y-189184D01*
X-327981Y-186640D01*
X-329298Y-184360D01*
X-329896Y-183762D01*
X-329410Y-182588D01*
X279000D01*
X280756Y-182239D01*
X282244Y-181244D01*
X290244Y-173244D01*
X291239Y-171756D01*
X291588Y-170000D01*
Y-160897D01*
X292087Y-160399D01*
X293000Y-158194D01*
Y-155807D01*
X292087Y-153601D01*
X290399Y-151913D01*
X288193Y-151000D01*
X285807D01*
X283601Y-151913D01*
X281914Y-153601D01*
X281000Y-155807D01*
Y-158194D01*
X281914Y-160399D01*
X282412Y-160897D01*
Y-168099D01*
X277099Y-173412D01*
X-329674D01*
X-330200Y-172142D01*
X-329298Y-171240D01*
X-328402Y-169688D01*
X18066D01*
X19821Y-169339D01*
X21310Y-168344D01*
X46066Y-143588D01*
X282103D01*
X282601Y-144087D01*
X284806Y-145000D01*
X287194D01*
X289399Y-144087D01*
X291087Y-142399D01*
X292000Y-140194D01*
Y-137807D01*
X291087Y-135601D01*
X289399Y-133913D01*
X287194Y-133000D01*
X284806D01*
X282601Y-133913D01*
X282103Y-134412D01*
X44166D01*
X42410Y-134761D01*
X40921Y-135756D01*
X16165Y-160512D01*
X-328402D01*
X-329298Y-158960D01*
X-331160Y-157098D01*
X-333440Y-155781D01*
X-335984Y-155100D01*
X-338616D01*
X-341160Y-155781D01*
X-343440Y-157098D01*
X-345302Y-158960D01*
X-346618Y-161240D01*
X-347300Y-163783D01*
Y-166416D01*
X-346618Y-168960D01*
X-345302Y-171240D01*
X-344400Y-172142D01*
X-344926Y-173412D01*
X-347900D01*
X-353164Y-168148D01*
X-352700Y-166416D01*
Y-163783D01*
X-353382Y-161240D01*
X-354698Y-158960D01*
X-356560Y-157098D01*
X-358840Y-155781D01*
X-361384Y-155100D01*
X-364016D01*
X-366560Y-155781D01*
X-368840Y-157098D01*
X-370702Y-158960D01*
X-372019Y-161240D01*
X-372700Y-163783D01*
Y-166416D01*
X-372019Y-168960D01*
X-370702Y-171240D01*
X-368840Y-173102D01*
X-366560Y-174419D01*
X-364016Y-175100D01*
X-361384D01*
X-359652Y-174636D01*
X-353044Y-181244D01*
X-351556Y-182239D01*
X-349800Y-182588D01*
X-345190D01*
X-344704Y-183762D01*
X-345302Y-184360D01*
X-346618Y-186640D01*
X-347300Y-189184D01*
Y-191817D01*
X-346836Y-193547D01*
X-351701Y-198412D01*
X-354810D01*
X-355296Y-197239D01*
X-354698Y-196640D01*
X-353382Y-194360D01*
X-352700Y-191817D01*
Y-189184D01*
X-353382Y-186640D01*
X-354698Y-184360D01*
X-356560Y-182498D01*
X-358840Y-181182D01*
X-361384Y-180500D01*
X-364016D01*
X-366560Y-181182D01*
X-368840Y-182498D01*
X-370702Y-184360D01*
X-371598Y-185912D01*
X-379599D01*
X-381162Y-184349D01*
Y-140900D01*
X-371745Y-131483D01*
X-370421D01*
X-369895Y-132753D01*
X-370702Y-133560D01*
X-372019Y-135840D01*
X-372700Y-138384D01*
Y-141017D01*
X-372019Y-143560D01*
X-370702Y-145840D01*
X-368840Y-147702D01*
X-366560Y-149018D01*
X-364016Y-149700D01*
X-361384D01*
X-358840Y-149018D01*
X-356560Y-147702D01*
X-354698Y-145840D01*
X-353382Y-143560D01*
X-352700Y-141017D01*
Y-138384D01*
X-353382Y-135840D01*
X-354698Y-133560D01*
X-355505Y-132753D01*
X-354979Y-131483D01*
X-345021D01*
X-344495Y-132753D01*
X-345302Y-133560D01*
X-346618Y-135840D01*
X-347300Y-138384D01*
Y-141017D01*
X-346618Y-143560D01*
X-345302Y-145840D01*
X-343440Y-147702D01*
X-341160Y-149018D01*
X-338616Y-149700D01*
X-335984D01*
X-333440Y-149018D01*
X-331160Y-147702D01*
X-329298Y-145840D01*
X-327981Y-143560D01*
X-327300Y-141017D01*
Y-138384D01*
X-327981Y-135840D01*
X-329298Y-133560D01*
X-330434Y-132423D01*
X-330442Y-132059D01*
X-330142Y-130920D01*
X-328973Y-130139D01*
X-322672Y-123838D01*
X-21397D01*
X-20899Y-124337D01*
X-18693Y-125250D01*
X-16307D01*
X-14101Y-124337D01*
X-12413Y-122649D01*
X-11500Y-120443D01*
Y-118056D01*
X-12413Y-115851D01*
X-14101Y-114163D01*
X-16307Y-113250D01*
X-18693D01*
X-20899Y-114163D01*
X-21397Y-114662D01*
X-324572D01*
X-326030Y-114952D01*
X-326968Y-114433D01*
X-327300Y-114133D01*
Y-112984D01*
X-327981Y-110440D01*
X-329298Y-108160D01*
X-329896Y-107562D01*
X-329410Y-106388D01*
X28400D01*
X43250Y-121239D01*
Y-121944D01*
X44163Y-124149D01*
X45851Y-125837D01*
X48057Y-126750D01*
X50444D01*
X52649Y-125837D01*
X54337Y-124149D01*
X55250Y-121944D01*
Y-119557D01*
X54337Y-117351D01*
X52649Y-115663D01*
X50444Y-114750D01*
X49739D01*
X33544Y-98556D01*
X32056Y-97561D01*
X30300Y-97212D01*
X-286481D01*
X-286967Y-96039D01*
X-286761Y-95832D01*
X-286000Y-93995D01*
Y-92005D01*
X-286761Y-90168D01*
X-288168Y-88761D01*
X-290005Y-88000D01*
X-291995D01*
X-293832Y-88761D01*
X-295239Y-90168D01*
X-296000Y-92005D01*
Y-93995D01*
X-295239Y-95832D01*
X-295033Y-96039D01*
X-295519Y-97212D01*
X-329674D01*
X-330200Y-95942D01*
X-329298Y-95040D01*
X-327981Y-92760D01*
X-327300Y-90217D01*
Y-87584D01*
X-327981Y-85040D01*
X-329298Y-82760D01*
X-331160Y-80898D01*
X-333440Y-79581D01*
X-335984Y-78900D01*
D02*
G37*
G36*
X364016Y-129700D02*
X361384D01*
X358840Y-130381D01*
X356560Y-131698D01*
X354698Y-133560D01*
X353382Y-135840D01*
X352700Y-138384D01*
Y-141017D01*
X353382Y-143560D01*
X354698Y-145840D01*
X356560Y-147702D01*
X358840Y-149018D01*
X361384Y-149700D01*
X364016D01*
X366560Y-149018D01*
X368840Y-147702D01*
X370702Y-145840D01*
X372019Y-143560D01*
X372700Y-141017D01*
Y-138384D01*
X372019Y-135840D01*
X370702Y-133560D01*
X368840Y-131698D01*
X366560Y-130381D01*
X364016Y-129700D01*
D02*
G37*
G36*
X432500Y-128000D02*
X408500D01*
Y-172000D01*
X432500D01*
Y-128000D01*
D02*
G37*
G36*
X364016Y-155100D02*
X361384D01*
X358840Y-155781D01*
X356560Y-157098D01*
X354698Y-158960D01*
X353382Y-161240D01*
X352700Y-163783D01*
Y-166416D01*
X353382Y-168960D01*
X354698Y-171240D01*
X356560Y-173102D01*
X358840Y-174419D01*
X361384Y-175100D01*
X364016D01*
X366560Y-174419D01*
X368840Y-173102D01*
X370702Y-171240D01*
X372019Y-168960D01*
X372700Y-166416D01*
Y-163783D01*
X372019Y-161240D01*
X370702Y-158960D01*
X368840Y-157098D01*
X366560Y-155781D01*
X364016Y-155100D01*
D02*
G37*
G36*
X338616D02*
X335984D01*
X333440Y-155781D01*
X331160Y-157098D01*
X329298Y-158960D01*
X327981Y-161240D01*
X327300Y-163783D01*
Y-166416D01*
X327981Y-168960D01*
X329298Y-171240D01*
X331160Y-173102D01*
X333440Y-174419D01*
X335984Y-175100D01*
X338616D01*
X341160Y-174419D01*
X343440Y-173102D01*
X345302Y-171240D01*
X346618Y-168960D01*
X347300Y-166416D01*
Y-163783D01*
X346618Y-161240D01*
X345302Y-158960D01*
X343440Y-157098D01*
X341160Y-155781D01*
X338616Y-155100D01*
D02*
G37*
G36*
X364016Y-180500D02*
X361384D01*
X358840Y-181182D01*
X356560Y-182498D01*
X354698Y-184360D01*
X353382Y-186640D01*
X352700Y-189184D01*
Y-191817D01*
X353382Y-194360D01*
X354698Y-196640D01*
X356560Y-198502D01*
X358840Y-199818D01*
X361384Y-200500D01*
X364016D01*
X366560Y-199818D01*
X368840Y-198502D01*
X370702Y-196640D01*
X372019Y-194360D01*
X372700Y-191817D01*
Y-189184D01*
X372019Y-186640D01*
X370702Y-184360D01*
X368840Y-182498D01*
X366560Y-181182D01*
X364016Y-180500D01*
D02*
G37*
G36*
X338616D02*
X335984D01*
X333440Y-181182D01*
X331160Y-182498D01*
X329298Y-184360D01*
X327981Y-186640D01*
X327300Y-189184D01*
Y-191817D01*
X327981Y-194360D01*
X329298Y-196640D01*
X331160Y-198502D01*
X333440Y-199818D01*
X335984Y-200500D01*
X338616D01*
X341160Y-199818D01*
X343440Y-198502D01*
X345302Y-196640D01*
X346618Y-194360D01*
X347300Y-191817D01*
Y-189184D01*
X346618Y-186640D01*
X345302Y-184360D01*
X343440Y-182498D01*
X341160Y-181182D01*
X338616Y-180500D01*
D02*
G37*
G36*
X364016Y-205900D02*
X361384D01*
X358840Y-206581D01*
X356560Y-207898D01*
X354698Y-209760D01*
X353382Y-212040D01*
X352700Y-214583D01*
Y-217216D01*
X353382Y-219760D01*
X354698Y-222040D01*
X356560Y-223902D01*
X358840Y-225219D01*
X361384Y-225900D01*
X364016D01*
X366560Y-225219D01*
X368840Y-223902D01*
X370702Y-222040D01*
X372019Y-219760D01*
X372700Y-217216D01*
Y-214583D01*
X372019Y-212040D01*
X370702Y-209760D01*
X368840Y-207898D01*
X366560Y-206581D01*
X364016Y-205900D01*
D02*
G37*
G36*
X338616D02*
X335984D01*
X333440Y-206581D01*
X331160Y-207898D01*
X329298Y-209760D01*
X327981Y-212040D01*
X327300Y-214583D01*
Y-217216D01*
X327981Y-219760D01*
X329298Y-222040D01*
X331160Y-223902D01*
X333440Y-225219D01*
X335984Y-225900D01*
X338616D01*
X341160Y-225219D01*
X343440Y-223902D01*
X345302Y-222040D01*
X346618Y-219760D01*
X347300Y-217216D01*
Y-214583D01*
X346618Y-212040D01*
X345302Y-209760D01*
X343440Y-207898D01*
X341160Y-206581D01*
X338616Y-205900D01*
D02*
G37*
G36*
X364016Y-231300D02*
X361384D01*
X358840Y-231982D01*
X356560Y-233298D01*
X354698Y-235160D01*
X353382Y-237440D01*
X352700Y-239984D01*
Y-242617D01*
X353382Y-245160D01*
X354698Y-247440D01*
X356560Y-249302D01*
X358840Y-250618D01*
X361384Y-251300D01*
X364016D01*
X366560Y-250618D01*
X368840Y-249302D01*
X370702Y-247440D01*
X372019Y-245160D01*
X372700Y-242617D01*
Y-239984D01*
X372019Y-237440D01*
X370702Y-235160D01*
X368840Y-233298D01*
X366560Y-231982D01*
X364016Y-231300D01*
D02*
G37*
G36*
X338616D02*
X335984D01*
X333440Y-231982D01*
X331160Y-233298D01*
X329298Y-235160D01*
X327981Y-237440D01*
X327300Y-239984D01*
Y-242617D01*
X327981Y-245160D01*
X329298Y-247440D01*
X331160Y-249302D01*
X333440Y-250618D01*
X335984Y-251300D01*
X338616D01*
X341160Y-250618D01*
X343440Y-249302D01*
X345302Y-247440D01*
X346618Y-245160D01*
X347300Y-242617D01*
Y-239984D01*
X346618Y-237440D01*
X345302Y-235160D01*
X343440Y-233298D01*
X341160Y-231982D01*
X338616Y-231300D01*
D02*
G37*
G36*
X450500Y-240918D02*
X435500D01*
X432167Y-241246D01*
X428963Y-242218D01*
X426010Y-243797D01*
X423421Y-245921D01*
X421297Y-248510D01*
X419718Y-251463D01*
X418746Y-254667D01*
X418418Y-258000D01*
X418746Y-261333D01*
X419718Y-264537D01*
X421297Y-267490D01*
X423421Y-270079D01*
X426010Y-272203D01*
X428963Y-273782D01*
X432167Y-274754D01*
X435500Y-275082D01*
X450500D01*
X453833Y-274754D01*
X457037Y-273782D01*
X459990Y-272203D01*
X462579Y-270079D01*
X464703Y-267490D01*
X466282Y-264537D01*
X467254Y-261333D01*
X467582Y-258000D01*
X467254Y-254667D01*
X466282Y-251463D01*
X464703Y-248510D01*
X462579Y-245921D01*
X459990Y-243797D01*
X457037Y-242218D01*
X453833Y-241246D01*
X450500Y-240918D01*
D02*
G37*
G36*
X284850Y-285050D02*
X264850D01*
Y-305050D01*
X284850D01*
Y-285050D01*
D02*
G37*
G36*
X250767D02*
X248134D01*
X245590Y-285732D01*
X243310Y-287048D01*
X241448Y-288910D01*
X240131Y-291190D01*
X239450Y-293734D01*
Y-296367D01*
X240131Y-298910D01*
X241448Y-301190D01*
X243310Y-303052D01*
X245590Y-304368D01*
X248134Y-305050D01*
X250767D01*
X253310Y-304368D01*
X255590Y-303052D01*
X257452Y-301190D01*
X258769Y-298910D01*
X259450Y-296367D01*
Y-293734D01*
X258769Y-291190D01*
X257452Y-288910D01*
X255590Y-287048D01*
X253310Y-285732D01*
X250767Y-285050D01*
D02*
G37*
G36*
X225367D02*
X222733D01*
X220190Y-285732D01*
X217910Y-287048D01*
X216048Y-288910D01*
X214732Y-291190D01*
X214050Y-293734D01*
Y-296367D01*
X214732Y-298910D01*
X216048Y-301190D01*
X217910Y-303052D01*
X220190Y-304368D01*
X222733Y-305050D01*
X225367D01*
X227910Y-304368D01*
X230190Y-303052D01*
X232052Y-301190D01*
X233368Y-298910D01*
X234050Y-296367D01*
Y-293734D01*
X233368Y-291190D01*
X232052Y-288910D01*
X230190Y-287048D01*
X227910Y-285732D01*
X225367Y-285050D01*
D02*
G37*
G36*
X199967D02*
X197334D01*
X194790Y-285732D01*
X192510Y-287048D01*
X190648Y-288910D01*
X189331Y-291190D01*
X188650Y-293734D01*
Y-296367D01*
X189331Y-298910D01*
X190648Y-301190D01*
X192510Y-303052D01*
X194790Y-304368D01*
X197334Y-305050D01*
X199967D01*
X202510Y-304368D01*
X204790Y-303052D01*
X206652Y-301190D01*
X207969Y-298910D01*
X208650Y-296367D01*
Y-293734D01*
X207969Y-291190D01*
X206652Y-288910D01*
X204790Y-287048D01*
X202510Y-285732D01*
X199967Y-285050D01*
D02*
G37*
G36*
X417348Y-302700D02*
X414452D01*
X411654Y-303450D01*
X409146Y-304898D01*
X407098Y-306946D01*
X405650Y-309454D01*
X404900Y-312252D01*
Y-315148D01*
X405650Y-317946D01*
X407098Y-320454D01*
X409146Y-322502D01*
X410121Y-323065D01*
Y-324335D01*
X409146Y-324898D01*
X407098Y-326946D01*
X405650Y-329454D01*
X404900Y-332252D01*
Y-335148D01*
X405650Y-337946D01*
X407098Y-340454D01*
X409146Y-342502D01*
X411654Y-343950D01*
X414452Y-344700D01*
X417348D01*
X420146Y-343950D01*
X422654Y-342502D01*
X424702Y-340454D01*
X426150Y-337946D01*
X426900Y-335148D01*
Y-332252D01*
X426150Y-329454D01*
X424702Y-326946D01*
X422654Y-324898D01*
X421679Y-324335D01*
Y-323065D01*
X422654Y-322502D01*
X424702Y-320454D01*
X426150Y-317946D01*
X426900Y-315148D01*
Y-312252D01*
X426150Y-309454D01*
X424702Y-306946D01*
X422654Y-304898D01*
X420146Y-303450D01*
X417348Y-302700D01*
D02*
G37*
G36*
X426900Y-347700D02*
X404900D01*
Y-369700D01*
X426900D01*
Y-347700D01*
D02*
G37*
G36*
X-227052Y-382600D02*
X-229948D01*
X-232746Y-383350D01*
X-235254Y-384798D01*
X-237302Y-386846D01*
X-237865Y-387821D01*
X-239135D01*
X-239698Y-386846D01*
X-241746Y-384798D01*
X-244254Y-383350D01*
X-247052Y-382600D01*
X-249948D01*
X-252746Y-383350D01*
X-255254Y-384798D01*
X-257302Y-386846D01*
X-258750Y-389354D01*
X-259500Y-392152D01*
Y-395048D01*
X-258750Y-397846D01*
X-257302Y-400354D01*
X-255254Y-402402D01*
X-252746Y-403850D01*
X-249948Y-404600D01*
X-247052D01*
X-244254Y-403850D01*
X-241746Y-402402D01*
X-239698Y-400354D01*
X-239135Y-399379D01*
X-237865D01*
X-237302Y-400354D01*
X-235254Y-402402D01*
X-232746Y-403850D01*
X-229948Y-404600D01*
X-227052D01*
X-224254Y-403850D01*
X-221746Y-402402D01*
X-219698Y-400354D01*
X-218250Y-397846D01*
X-217500Y-395048D01*
Y-392152D01*
X-218250Y-389354D01*
X-219698Y-386846D01*
X-221746Y-384798D01*
X-224254Y-383350D01*
X-227052Y-382600D01*
D02*
G37*
G36*
X247498Y-382650D02*
X244602D01*
X241804Y-383400D01*
X239296Y-384848D01*
X237248Y-386896D01*
X236685Y-387871D01*
X235415D01*
X234852Y-386896D01*
X232804Y-384848D01*
X230296Y-383400D01*
X227498Y-382650D01*
X224602D01*
X221804Y-383400D01*
X219296Y-384848D01*
X217248Y-386896D01*
X215800Y-389404D01*
X215050Y-392202D01*
Y-395098D01*
X215800Y-397896D01*
X217248Y-400404D01*
X219296Y-402452D01*
X221804Y-403900D01*
X224602Y-404650D01*
X227498D01*
X230296Y-403900D01*
X232804Y-402452D01*
X234852Y-400404D01*
X235415Y-399429D01*
X236685D01*
X237248Y-400404D01*
X239296Y-402452D01*
X241804Y-403900D01*
X244602Y-404650D01*
X247498D01*
X250296Y-403900D01*
X252804Y-402452D01*
X254852Y-400404D01*
X256300Y-397896D01*
X257050Y-395098D01*
Y-392202D01*
X256300Y-389404D01*
X254852Y-386896D01*
X252804Y-384848D01*
X250296Y-383400D01*
X247498Y-382650D01*
D02*
G37*
G36*
X-262500Y-382600D02*
X-284500D01*
Y-404600D01*
X-262500D01*
Y-382600D01*
D02*
G37*
G36*
X212050Y-382650D02*
X190050D01*
Y-404650D01*
X212050D01*
Y-382650D01*
D02*
G37*
G36*
X450500Y-372318D02*
X435500D01*
X432167Y-372646D01*
X428963Y-373618D01*
X426010Y-375197D01*
X423421Y-377321D01*
X421297Y-379910D01*
X419718Y-382863D01*
X418746Y-386067D01*
X418418Y-389400D01*
X418746Y-392733D01*
X419718Y-395937D01*
X421297Y-398890D01*
X423421Y-401479D01*
X426010Y-403603D01*
X428963Y-405182D01*
X432167Y-406154D01*
X435500Y-406482D01*
X450500D01*
X453833Y-406154D01*
X457037Y-405182D01*
X459990Y-403603D01*
X462579Y-401479D01*
X464703Y-398890D01*
X466282Y-395937D01*
X467254Y-392733D01*
X467582Y-389400D01*
X467254Y-386067D01*
X466282Y-382863D01*
X464703Y-379910D01*
X462579Y-377321D01*
X459990Y-375197D01*
X457037Y-373618D01*
X453833Y-372646D01*
X450500Y-372318D01*
D02*
G37*
G36*
X-172800Y-396118D02*
X-176133Y-396446D01*
X-179337Y-397418D01*
X-182290Y-398997D01*
X-184879Y-401121D01*
X-187003Y-403710D01*
X-188582Y-406663D01*
X-189554Y-409867D01*
X-189882Y-413200D01*
Y-428200D01*
X-189554Y-431533D01*
X-188582Y-434737D01*
X-187003Y-437690D01*
X-184879Y-440279D01*
X-182290Y-442403D01*
X-179337Y-443982D01*
X-176133Y-444954D01*
X-172800Y-445282D01*
X-169467Y-444954D01*
X-166263Y-443982D01*
X-163310Y-442403D01*
X-160721Y-440279D01*
X-158597Y-437690D01*
X-157018Y-434737D01*
X-156046Y-431533D01*
X-155718Y-428200D01*
Y-413200D01*
X-156046Y-409867D01*
X-157018Y-406663D01*
X-158597Y-403710D01*
X-160721Y-401121D01*
X-163310Y-398997D01*
X-166263Y-397418D01*
X-169467Y-396446D01*
X-172800Y-396118D01*
D02*
G37*
G36*
X-304200D02*
X-307533Y-396446D01*
X-310737Y-397418D01*
X-313690Y-398997D01*
X-316279Y-401121D01*
X-318403Y-403710D01*
X-319982Y-406663D01*
X-320954Y-409867D01*
X-321282Y-413200D01*
Y-428200D01*
X-320954Y-431533D01*
X-319982Y-434737D01*
X-318403Y-437690D01*
X-316279Y-440279D01*
X-313690Y-442403D01*
X-310737Y-443982D01*
X-307533Y-444954D01*
X-304200Y-445282D01*
X-300867Y-444954D01*
X-297663Y-443982D01*
X-294710Y-442403D01*
X-292121Y-440279D01*
X-289997Y-437690D01*
X-288418Y-434737D01*
X-287446Y-431533D01*
X-287118Y-428200D01*
Y-413200D01*
X-287446Y-409867D01*
X-288418Y-406663D01*
X-289997Y-403710D01*
X-292121Y-401121D01*
X-294710Y-398997D01*
X-297663Y-397418D01*
X-300867Y-396446D01*
X-304200Y-396118D01*
D02*
G37*
G36*
X301750Y-396168D02*
X298417Y-396496D01*
X295213Y-397468D01*
X292260Y-399047D01*
X289671Y-401171D01*
X287547Y-403760D01*
X285968Y-406713D01*
X284996Y-409917D01*
X284668Y-413250D01*
Y-428250D01*
X284996Y-431583D01*
X285968Y-434787D01*
X287547Y-437740D01*
X289671Y-440329D01*
X292260Y-442453D01*
X295213Y-444032D01*
X298417Y-445004D01*
X301750Y-445332D01*
X305083Y-445004D01*
X308287Y-444032D01*
X311240Y-442453D01*
X313829Y-440329D01*
X315953Y-437740D01*
X317532Y-434787D01*
X318504Y-431583D01*
X318832Y-428250D01*
Y-413250D01*
X318504Y-409917D01*
X317532Y-406713D01*
X315953Y-403760D01*
X313829Y-401171D01*
X311240Y-399047D01*
X308287Y-397468D01*
X305083Y-396496D01*
X301750Y-396168D01*
D02*
G37*
G36*
X170350D02*
X167017Y-396496D01*
X163813Y-397468D01*
X160860Y-399047D01*
X158271Y-401171D01*
X156147Y-403760D01*
X154568Y-406713D01*
X153596Y-409917D01*
X153268Y-413250D01*
Y-428250D01*
X153596Y-431583D01*
X154568Y-434787D01*
X156147Y-437740D01*
X158271Y-440329D01*
X160860Y-442453D01*
X163813Y-444032D01*
X167017Y-445004D01*
X170350Y-445332D01*
X173683Y-445004D01*
X176887Y-444032D01*
X179840Y-442453D01*
X182429Y-440329D01*
X184553Y-437740D01*
X186132Y-434787D01*
X187104Y-431583D01*
X187432Y-428250D01*
Y-413250D01*
X187104Y-409917D01*
X186132Y-406713D01*
X184553Y-403760D01*
X182429Y-401171D01*
X179840Y-399047D01*
X176887Y-397468D01*
X173683Y-396496D01*
X170350Y-396168D01*
D02*
G37*
G36*
X452518Y-418000D02*
X447481D01*
X442507Y-418788D01*
X437716Y-420344D01*
X433228Y-422631D01*
X429153Y-425592D01*
X425592Y-429153D01*
X422631Y-433228D01*
X420344Y-437716D01*
X418788Y-442507D01*
X418000Y-447481D01*
Y-452518D01*
X418788Y-457493D01*
X420344Y-462284D01*
X422631Y-466772D01*
X425592Y-470847D01*
X429153Y-474408D01*
X433228Y-477369D01*
X437716Y-479656D01*
X442507Y-481212D01*
X447481Y-482000D01*
X452518D01*
X457493Y-481212D01*
X462284Y-479656D01*
X466772Y-477369D01*
X470847Y-474408D01*
X474408Y-470847D01*
X477369Y-466772D01*
X479656Y-462284D01*
X481212Y-457493D01*
X482000Y-452518D01*
Y-447481D01*
X481212Y-442507D01*
X479656Y-437716D01*
X477369Y-433228D01*
X474408Y-429153D01*
X470847Y-425592D01*
X466772Y-422631D01*
X462284Y-420344D01*
X457493Y-418788D01*
X452518Y-418000D01*
D02*
G37*
G36*
X-447481D02*
X-452518D01*
X-457493Y-418788D01*
X-462284Y-420344D01*
X-466772Y-422631D01*
X-470847Y-425592D01*
X-474408Y-429153D01*
X-477369Y-433228D01*
X-479656Y-437716D01*
X-481212Y-442507D01*
X-482000Y-447481D01*
Y-452518D01*
X-481212Y-457493D01*
X-479656Y-462284D01*
X-477369Y-466772D01*
X-474408Y-470847D01*
X-470847Y-474408D01*
X-466772Y-477369D01*
X-462284Y-479656D01*
X-457493Y-481212D01*
X-452518Y-482000D01*
X-447481D01*
X-442507Y-481212D01*
X-437716Y-479656D01*
X-433228Y-477369D01*
X-429153Y-474408D01*
X-425592Y-470847D01*
X-422631Y-466772D01*
X-420344Y-462284D01*
X-418788Y-457493D01*
X-418000Y-452518D01*
Y-447481D01*
X-418788Y-442507D01*
X-420344Y-437716D01*
X-422631Y-433228D01*
X-425592Y-429153D01*
X-429153Y-425592D01*
X-433228Y-422631D01*
X-437716Y-420344D01*
X-442507Y-418788D01*
X-447481Y-418000D01*
D02*
G37*
%LPD*%
G36*
X77500Y191000D02*
Y62500D01*
X18500D01*
X-23750Y104750D01*
Y191000D01*
X77500Y191000D01*
D02*
G37*
G36*
X-200250Y-215000D02*
Y-234750D01*
X-200500Y-235000D01*
X-207000D01*
Y-218000D01*
X-209000Y-216000D01*
X-215750D01*
X-217750Y-218000D01*
Y-227500D01*
X-286858Y-296608D01*
X-287015Y-296713D01*
X-287201Y-296750D01*
X-289039D01*
X-289039Y-296750D01*
X-289039Y-296750D01*
X-476000D01*
Y-233250D01*
X-470250Y-227500D01*
X-307500D01*
X-292750Y-212750D01*
X-202500D01*
X-200250Y-215000D01*
D02*
G37*
G36*
X-208500Y-260740D02*
Y-292500D01*
X-302750Y-386750D01*
X-476000D01*
Y-301000D01*
X-291250D01*
X-289039Y-298789D01*
X-289039Y-298789D01*
X-287201D01*
X-287004Y-298750D01*
X-286803Y-298750D01*
X-286617Y-298713D01*
X-286432Y-298636D01*
X-286420Y-298634D01*
X-286411Y-298627D01*
X-286089Y-298494D01*
X-286078Y-298492D01*
X-286068Y-298486D01*
X-285882Y-298409D01*
X-285725Y-298304D01*
X-285583Y-298162D01*
X-285416Y-298050D01*
X-248191Y-260825D01*
X-209409Y-259853D01*
X-208500Y-260740D01*
D02*
G37*
%LPC*%
G36*
X-335984Y-231300D02*
X-338616D01*
X-341160Y-231982D01*
X-343440Y-233298D01*
X-345302Y-235160D01*
X-346618Y-237440D01*
X-347300Y-239984D01*
Y-242617D01*
X-346618Y-245160D01*
X-345302Y-247440D01*
X-343440Y-249302D01*
X-341160Y-250618D01*
X-338616Y-251300D01*
X-335984D01*
X-333440Y-250618D01*
X-331160Y-249302D01*
X-329298Y-247440D01*
X-327981Y-245160D01*
X-327300Y-242617D01*
Y-239984D01*
X-327981Y-237440D01*
X-329298Y-235160D01*
X-331160Y-233298D01*
X-333440Y-231982D01*
X-335984Y-231300D01*
D02*
G37*
G36*
X-361384D02*
X-364016D01*
X-366560Y-231982D01*
X-368840Y-233298D01*
X-370702Y-235160D01*
X-372019Y-237440D01*
X-372700Y-239984D01*
Y-242617D01*
X-372019Y-245160D01*
X-370702Y-247440D01*
X-368840Y-249302D01*
X-366560Y-250618D01*
X-364016Y-251300D01*
X-361384D01*
X-358840Y-250618D01*
X-356560Y-249302D01*
X-354698Y-247440D01*
X-353382Y-245160D01*
X-352700Y-242617D01*
Y-239984D01*
X-353382Y-237440D01*
X-354698Y-235160D01*
X-356560Y-233298D01*
X-358840Y-231982D01*
X-361384Y-231300D01*
D02*
G37*
G36*
Y225900D02*
X-364016D01*
X-366560Y225219D01*
X-368840Y223902D01*
X-370702Y222040D01*
X-372019Y219760D01*
X-372700Y217216D01*
Y214583D01*
X-372019Y212040D01*
X-370702Y209760D01*
X-368840Y207898D01*
X-366560Y206581D01*
X-364016Y205900D01*
X-361384D01*
X-358840Y206581D01*
X-356560Y207898D01*
X-354698Y209760D01*
X-353382Y212040D01*
X-352700Y214583D01*
Y217216D01*
X-353382Y219760D01*
X-354698Y222040D01*
X-356560Y223902D01*
X-358840Y225219D01*
X-361384Y225900D01*
D02*
G37*
G36*
X-335984D02*
X-338616D01*
X-341160Y225219D01*
X-343440Y223902D01*
X-345302Y222040D01*
X-346618Y219760D01*
X-347300Y217216D01*
Y214583D01*
X-346618Y212040D01*
X-345302Y209760D01*
X-343440Y207898D01*
X-341160Y206581D01*
X-338616Y205900D01*
X-335984D01*
X-333440Y206581D01*
X-331160Y207898D01*
X-329298Y209760D01*
X-328056Y211912D01*
X-300212D01*
X-297924Y209624D01*
X-297087Y207601D01*
X-295399Y205914D01*
X-293193Y205000D01*
X-290807D01*
X-288601Y205914D01*
X-286913Y207601D01*
X-286000Y209806D01*
Y212194D01*
X-286913Y214399D01*
X-288601Y216087D01*
X-290807Y217000D01*
X-292323D01*
X-295068Y219744D01*
X-296556Y220739D01*
X-298312Y221088D01*
X-328748D01*
X-329298Y222040D01*
X-331160Y223902D01*
X-333440Y225219D01*
X-335984Y225900D01*
D02*
G37*
%LPD*%
G36*
X-359627Y223318D02*
X-357812Y222270D01*
X-356330Y220788D01*
X-355282Y218973D01*
X-354739Y216948D01*
Y214852D01*
X-355282Y212827D01*
X-356330Y211012D01*
X-357812Y209530D01*
X-359627Y208482D01*
X-361652Y207939D01*
X-363748D01*
X-365773Y208482D01*
X-367588Y209530D01*
X-369070Y211012D01*
X-370118Y212827D01*
X-370661Y214852D01*
Y216948D01*
X-370118Y218973D01*
X-369070Y220788D01*
X-367588Y222270D01*
X-365773Y223318D01*
X-363748Y223861D01*
X-361652D01*
X-359627Y223318D01*
D02*
G37*
D30*
X-154000Y-8000D02*
X135000D01*
X-252000Y90000D02*
X-154000Y-8000D01*
X-252000Y90000D02*
Y143000D01*
X-153500Y-283500D02*
Y-272500D01*
X-137000Y-256000D02*
X285000D01*
X-153500Y-272500D02*
X-137000Y-256000D01*
X-116310Y-267560D02*
X359690D01*
X-147500Y-298750D02*
X-116310Y-267560D01*
X-167750Y-298750D02*
X-147500D01*
X359690Y-267560D02*
X393360Y-233890D01*
X285000Y-256000D02*
X307250Y-233750D01*
X333562Y-127500D02*
X340038D01*
X307250Y-153812D02*
X333562Y-127500D01*
X307250Y-233750D02*
Y-153812D01*
X351046Y-116492D02*
Y-84615D01*
X360352Y-75310D01*
Y-65848D01*
X362700Y-63500D01*
X340038Y-127500D02*
X351046Y-116492D01*
X362700Y-88900D02*
X386650D01*
X393360Y-233890D02*
Y-95611D01*
X386650Y-88900D02*
X393360Y-95611D01*
X135000Y-8000D02*
X223270Y-96270D01*
X-152000Y-34000D02*
X131000D01*
X197080Y-100080D01*
X-265000Y79000D02*
X-152000Y-34000D01*
X223270Y-96270D02*
X289730D01*
X197080Y-100080D02*
X291920D01*
X-265000Y79000D02*
Y137000D01*
X291920Y-100080D02*
X303100Y-88900D01*
X289730Y-96270D02*
X322500Y-63500D01*
X303100Y-88900D02*
X337300D01*
X322500Y-63500D02*
X337300D01*
D32*
X67500Y450000D02*
D03*
X-67500D02*
D03*
D33*
X36000Y390000D02*
D03*
D34*
X-36000D02*
D03*
D35*
X-228500Y-393600D02*
D03*
X-203500Y-393600D02*
D03*
X-248500Y-393600D02*
D03*
X415900Y-313700D02*
D03*
X415900Y-288700D02*
D03*
X415900Y-333700D02*
D03*
X226050Y-393650D02*
D03*
X271050Y-393650D02*
D03*
X246050Y-393650D02*
D03*
D36*
X-273500Y-393600D02*
D03*
X201050Y-393650D02*
D03*
D37*
X-304200Y-420700D02*
D03*
X-172800D02*
D03*
X301750Y-420750D02*
D03*
X170350D02*
D03*
D38*
X-407500Y-285100D02*
D03*
Y-310500D02*
D03*
Y300000D02*
D03*
Y325400D02*
D03*
X419588Y-60127D02*
D03*
Y-34727D02*
D03*
Y-9327D02*
D03*
Y16073D02*
D03*
X416587Y130723D02*
D03*
Y105323D02*
D03*
Y79922D02*
D03*
Y54523D02*
D03*
X414588Y168443D02*
D03*
Y193843D02*
D03*
Y219243D02*
D03*
Y244643D02*
D03*
Y358563D02*
D03*
Y333163D02*
D03*
Y307763D02*
D03*
Y282363D02*
D03*
D39*
X337300Y-241300D02*
D03*
X362700D02*
D03*
X337300Y-190500D02*
D03*
X362700D02*
D03*
X337300Y-139700D02*
D03*
X362700D02*
D03*
X337300Y-88900D02*
D03*
X362700D02*
D03*
X337300Y-12700D02*
D03*
X362700D02*
D03*
X337300Y38100D02*
D03*
X362700D02*
D03*
X337300Y88900D02*
D03*
X362700D02*
D03*
X337300Y139700D02*
D03*
X362700D02*
D03*
X337300Y190500D02*
D03*
X362700D02*
D03*
X337300Y241300D02*
D03*
Y215900D02*
D03*
X362700D02*
D03*
Y165100D02*
D03*
X337300D02*
D03*
X362700Y114300D02*
D03*
X337300D02*
D03*
X362700Y63500D02*
D03*
X337300D02*
D03*
X362700Y12700D02*
D03*
X337300D02*
D03*
X362700Y-38100D02*
D03*
X337300D02*
D03*
X362700Y-63500D02*
D03*
X337300D02*
D03*
X362700Y-114300D02*
D03*
X337300D02*
D03*
X362700Y-165100D02*
D03*
X337300D02*
D03*
X362700Y-215900D02*
D03*
X337300D02*
D03*
X-362700D02*
D03*
X-337300D02*
D03*
X-362700Y-165100D02*
D03*
X-337300D02*
D03*
X-362700Y-114300D02*
D03*
X-337300D02*
D03*
X-362700Y-63500D02*
D03*
X-337300D02*
D03*
X-362700Y-38100D02*
D03*
X-337300D02*
D03*
X-362700Y12700D02*
D03*
X-337300D02*
D03*
X-362700Y63500D02*
D03*
X-337300D02*
D03*
X-362700Y114300D02*
D03*
X-337300D02*
D03*
X-362700Y165100D02*
D03*
X-337300D02*
D03*
Y215900D02*
D03*
X-362700D02*
D03*
Y241300D02*
D03*
X-337300Y190500D02*
D03*
X-362700D02*
D03*
X-337300Y139700D02*
D03*
X-362700D02*
D03*
X-337300Y88900D02*
D03*
X-362700D02*
D03*
X-337300Y38100D02*
D03*
X-362700D02*
D03*
X-337300Y-12700D02*
D03*
X-362700D02*
D03*
X-337300Y-88900D02*
D03*
X-362700D02*
D03*
X-337300Y-139700D02*
D03*
X-362700D02*
D03*
X-337300Y-190500D02*
D03*
X-362700D02*
D03*
X-337300Y-241300D02*
D03*
X-362700D02*
D03*
X198650Y-320450D02*
D03*
Y-295050D02*
D03*
X249450D02*
D03*
Y-320450D02*
D03*
X274850D02*
D03*
X224050Y-295050D02*
D03*
Y-320450D02*
D03*
D40*
X362700Y241300D02*
D03*
X-337300D02*
D03*
D41*
X-413000Y207500D02*
D03*
X-475000D02*
D03*
X-477500Y87500D02*
D03*
X-415500D02*
D03*
X-415000Y-30000D02*
D03*
X-477000D02*
D03*
X-477500Y-147500D02*
D03*
X-415500D02*
D03*
X420500Y-150000D02*
D03*
X482500D02*
D03*
D42*
X-440000Y160500D02*
D03*
X-442500Y40500D02*
D03*
X-442000Y-77000D02*
D03*
X-442500Y-194500D02*
D03*
X447500Y-103000D02*
D03*
D43*
X415900Y-358700D02*
D03*
D44*
X443000Y-389400D02*
D03*
Y-258000D02*
D03*
D45*
X274850Y-295050D02*
D03*
D46*
X-450000Y-450000D02*
D03*
X450000Y450000D02*
D03*
Y-450000D02*
D03*
X-450000Y450000D02*
D03*
D47*
X1500Y333750D02*
D03*
Y349500D02*
D03*
Y342000D02*
D03*
X33250Y333750D02*
D03*
X44250D02*
D03*
X55250D02*
D03*
Y342000D02*
D03*
X44250D02*
D03*
X33250D02*
D03*
Y349500D02*
D03*
X44250D02*
D03*
X55250D02*
D03*
X12500Y333750D02*
D03*
X23500D02*
D03*
Y342000D02*
D03*
X12500D02*
D03*
Y349500D02*
D03*
X23500D02*
D03*
Y325000D02*
D03*
X12500D02*
D03*
X55250D02*
D03*
X44250D02*
D03*
X33250D02*
D03*
X1500D02*
D03*
X63500Y77750D02*
D03*
X25500Y183750D02*
D03*
Y176000D02*
D03*
X25250Y167750D02*
D03*
X-291000Y-80000D02*
D03*
X-156750Y251000D02*
D03*
X-201500Y67250D02*
D03*
X-169750D02*
D03*
X-158750D02*
D03*
X-147750D02*
D03*
X-190500D02*
D03*
X-179500D02*
D03*
Y91750D02*
D03*
X-190500D02*
D03*
Y84250D02*
D03*
X-179500D02*
D03*
Y76000D02*
D03*
X-190500D02*
D03*
X-147750Y91750D02*
D03*
X-158750D02*
D03*
X-169750D02*
D03*
Y84250D02*
D03*
X-158750D02*
D03*
X-147750D02*
D03*
Y76000D02*
D03*
X-158750D02*
D03*
X-169750D02*
D03*
X-201500Y84250D02*
D03*
Y91750D02*
D03*
Y76000D02*
D03*
X-291000Y-93000D02*
D03*
X-61250Y-194500D02*
D03*
X-40250D02*
D03*
X-51250D02*
D03*
X-61250Y-226250D02*
D03*
Y-237250D02*
D03*
Y-248250D02*
D03*
X-51250D02*
D03*
Y-237250D02*
D03*
Y-226250D02*
D03*
X-40250D02*
D03*
Y-237250D02*
D03*
Y-248250D02*
D03*
X-61250Y-205500D02*
D03*
Y-216500D02*
D03*
X-51250D02*
D03*
Y-205500D02*
D03*
X-40250D02*
D03*
Y-216500D02*
D03*
X305000Y86000D02*
D03*
Y92000D02*
D03*
X-302000Y43000D02*
D03*
Y51000D02*
D03*
Y59000D02*
D03*
X-310000Y43000D02*
D03*
Y51000D02*
D03*
Y59000D02*
D03*
X-356000Y325000D02*
D03*
X-343000D02*
D03*
X-332000D02*
D03*
X-319000D02*
D03*
X-356000Y332000D02*
D03*
X-343000D02*
D03*
X-332000D02*
D03*
X-319000D02*
D03*
X-356000Y340000D02*
D03*
X-343000D02*
D03*
X-332000D02*
D03*
X-319000D02*
D03*
Y272000D02*
D03*
Y286000D02*
D03*
Y301000D02*
D03*
X-332000D02*
D03*
Y286000D02*
D03*
Y272000D02*
D03*
X-343000D02*
D03*
Y286000D02*
D03*
Y301000D02*
D03*
X-356000Y272000D02*
D03*
Y286000D02*
D03*
Y301000D02*
D03*
D48*
X-167750Y-298750D02*
D03*
X-153500Y-283500D02*
D03*
X49250Y-120750D02*
D03*
X-17500Y-119250D02*
D03*
X-252000Y143000D02*
D03*
X-265000Y137000D02*
D03*
X310000Y200000D02*
D03*
Y111000D02*
D03*
Y123000D02*
D03*
Y137000D02*
D03*
Y149000D02*
D03*
X270000Y169000D02*
D03*
X310000Y175000D02*
D03*
Y187000D02*
D03*
X287000Y-157000D02*
D03*
X286000Y-139000D02*
D03*
X-292000Y211000D02*
D03*
X-306000Y184700D02*
D03*
X-305000Y208000D02*
D03*
D49*
X-373645Y-126895D02*
X-332217D01*
X-385750Y-186250D02*
Y-139000D01*
X-373645Y-126895D01*
X-422550Y-101800D02*
X30300D01*
X49250Y-120750D01*
X-324572Y-119250D02*
X-17500D01*
X-332217Y-126895D02*
X-324572Y-119250D01*
X-385750Y-186250D02*
X-381500Y-190500D01*
X-362700D01*
X-439000Y-160500D02*
Y-118250D01*
X-396500Y-203000D02*
X-349800D01*
X-439000Y-160500D02*
X-396500Y-203000D01*
X-439000Y-118250D02*
X-422550Y-101800D01*
X-337300Y-165100D02*
X18066D01*
X44166Y-139000D01*
X286000D01*
X-362700Y-165100D02*
X-349800Y-178000D01*
X279000D02*
X287000Y-170000D01*
X-349800Y-178000D02*
X279000D01*
X287000Y-170000D02*
Y-157000D01*
X-349800Y-203000D02*
X-337300Y-190500D01*
Y215900D02*
X-336700Y216500D01*
X-298312D01*
X-292812Y211000D01*
X-292000D01*
%TF.MD5,ad8a23eaf27bd69a03fe01002f51c469*%
M02*
