%TF.GenerationSoftware,Altium Limited,Altium Designer,22.5.1 (42)*%
G04 Layer_Color=32768*
%FSLAX44Y44*%
%MOMM*%
%TF.SameCoordinates,B102F14A-A54C-4FC6-BF91-0F17097562DF*%
%TF.FilePolarity,Positive*%
%TF.FileFunction,Other,Top_Designator*%
%TF.Part,Single*%
G01*
G75*
%TA.AperFunction,NonConductor*%
%ADD68C,0.2000*%
%ADD71C,0.2540*%
%ADD72C,0.1270*%
D68*
X2835Y119669D02*
X4502Y118003D01*
X7834D01*
X9500Y119669D01*
Y126334D01*
X7834Y128000D01*
X4502D01*
X2835Y126334D01*
X-497Y119669D02*
X-2163Y118003D01*
X-5495D01*
X-7161Y119669D01*
Y121335D01*
X-5495Y123001D01*
X-3829D01*
X-5495D01*
X-7161Y124668D01*
Y126334D01*
X-5495Y128000D01*
X-2163D01*
X-497Y126334D01*
X-15492Y128000D02*
Y118003D01*
X-10494Y123001D01*
X-17158D01*
X3335Y146419D02*
X5001Y144753D01*
X8334D01*
X10000Y146419D01*
Y153084D01*
X8334Y154750D01*
X5001D01*
X3335Y153084D01*
X3Y146419D02*
X-1663Y144753D01*
X-4995D01*
X-6661Y146419D01*
Y148085D01*
X-4995Y149752D01*
X-3329D01*
X-4995D01*
X-6661Y151418D01*
Y153084D01*
X-4995Y154750D01*
X-1663D01*
X3Y153084D01*
X-9994Y146419D02*
X-11660Y144753D01*
X-14992D01*
X-16658Y146419D01*
Y148085D01*
X-14992Y149752D01*
X-13326D01*
X-14992D01*
X-16658Y151418D01*
Y153084D01*
X-14992Y154750D01*
X-11660D01*
X-9994Y153084D01*
X3335Y173169D02*
X5001Y171503D01*
X8334D01*
X10000Y173169D01*
Y179834D01*
X8334Y181500D01*
X5001D01*
X3335Y179834D01*
X3D02*
X-1663Y181500D01*
X-4995D01*
X-6661Y179834D01*
Y173169D01*
X-4995Y171503D01*
X-1663D01*
X3Y173169D01*
Y174835D01*
X-1663Y176502D01*
X-6661D01*
X3335Y200419D02*
X5001Y198753D01*
X8334D01*
X10000Y200419D01*
Y207084D01*
X8334Y208750D01*
X5001D01*
X3335Y207084D01*
X3Y200419D02*
X-1663Y198753D01*
X-4995D01*
X-6661Y200419D01*
Y202085D01*
X-4995Y203752D01*
X-6661Y205418D01*
Y207084D01*
X-4995Y208750D01*
X-1663D01*
X3Y207084D01*
Y205418D01*
X-1663Y203752D01*
X3Y202085D01*
Y200419D01*
X-1663Y203752D02*
X-4995D01*
X-239415Y29669D02*
X-237749Y28003D01*
X-234416D01*
X-232750Y29669D01*
Y36334D01*
X-234416Y38000D01*
X-237749D01*
X-239415Y36334D01*
X-242747Y38000D02*
X-246079D01*
X-244413D01*
Y28003D01*
X-242747Y29669D01*
X-251078D02*
X-252744Y28003D01*
X-256076D01*
X-257742Y29669D01*
Y31335D01*
X-256076Y33001D01*
X-257742Y34668D01*
Y36334D01*
X-256076Y38000D01*
X-252744D01*
X-251078Y36334D01*
Y34668D01*
X-252744Y33001D01*
X-251078Y31335D01*
Y29669D01*
X-252744Y33001D02*
X-256076D01*
X-330331Y-143085D02*
X-331997Y-144752D01*
Y-148084D01*
X-330331Y-149750D01*
X-323666D01*
X-322000Y-148084D01*
Y-144752D01*
X-323666Y-143085D01*
X-322000Y-139753D02*
Y-136421D01*
Y-138087D01*
X-331997D01*
X-330331Y-139753D01*
X-331997Y-131423D02*
Y-124758D01*
X-330331D01*
X-323666Y-131423D01*
X-322000D01*
X-304331Y-143085D02*
X-305997Y-144752D01*
Y-148084D01*
X-304331Y-149750D01*
X-297666D01*
X-296000Y-148084D01*
Y-144752D01*
X-297666Y-143085D01*
X-296000Y-139753D02*
Y-136421D01*
Y-138087D01*
X-305997D01*
X-304331Y-139753D01*
X-305997Y-124758D02*
X-304331Y-128090D01*
X-300998Y-131423D01*
X-297666D01*
X-296000Y-129756D01*
Y-126424D01*
X-297666Y-124758D01*
X-299332D01*
X-300998Y-126424D01*
Y-131423D01*
X268665Y4581D02*
X266999Y6247D01*
X263666D01*
X262000Y4581D01*
Y-2084D01*
X263666Y-3750D01*
X266999D01*
X268665Y-2084D01*
X276995Y-3750D02*
Y6247D01*
X271997Y1248D01*
X278661D01*
X157669Y-161586D02*
X156003Y-163252D01*
Y-166584D01*
X157669Y-168250D01*
X164334D01*
X166000Y-166584D01*
Y-163252D01*
X164334Y-161586D01*
X157669Y-158253D02*
X156003Y-156587D01*
Y-153255D01*
X157669Y-151589D01*
X159335D01*
X161002Y-153255D01*
Y-154921D01*
Y-153255D01*
X162668Y-151589D01*
X164334D01*
X166000Y-153255D01*
Y-156587D01*
X164334Y-158253D01*
X184169Y-161336D02*
X182503Y-163002D01*
Y-166334D01*
X184169Y-168000D01*
X190834D01*
X192500Y-166334D01*
Y-163002D01*
X190834Y-161336D01*
X192500Y-151339D02*
Y-158003D01*
X185835Y-151339D01*
X184169D01*
X182503Y-153005D01*
Y-156337D01*
X184169Y-158003D01*
D71*
X-480859Y-201639D02*
Y-206717D01*
Y-204178D01*
X-468164D01*
X-465625Y-206717D01*
Y-209257D01*
X-468164Y-211796D01*
X-480859Y-186404D02*
Y-196561D01*
X-473242D01*
X-475781Y-191483D01*
Y-188943D01*
X-473242Y-186404D01*
X-468164D01*
X-465625Y-188943D01*
Y-194022D01*
X-468164Y-196561D01*
X-480859Y55361D02*
Y50283D01*
Y52822D01*
X-468164D01*
X-465624Y50283D01*
Y47743D01*
X-468164Y45204D01*
X-478320Y60439D02*
X-480859Y62978D01*
Y68057D01*
X-478320Y70596D01*
X-475781D01*
X-473242Y68057D01*
Y65518D01*
Y68057D01*
X-470703Y70596D01*
X-468164D01*
X-465624Y68057D01*
Y62978D01*
X-468164Y60439D01*
X-507211Y154882D02*
X-502132D01*
X-504672D01*
Y167578D01*
X-502132Y170117D01*
X-499593D01*
X-497054Y167578D01*
X-512289Y157422D02*
X-514828Y154882D01*
X-519907D01*
X-522446Y157422D01*
Y159961D01*
X-519907Y162500D01*
X-522446Y165039D01*
Y167578D01*
X-519907Y170117D01*
X-514828D01*
X-512289Y167578D01*
Y165039D01*
X-514828Y162500D01*
X-512289Y159961D01*
Y157422D01*
X-514828Y162500D02*
X-519907D01*
X-502652Y225133D02*
X-497574D01*
X-500113D01*
Y237828D01*
X-497574Y240368D01*
X-495034D01*
X-492495Y237828D01*
X-507730Y240368D02*
X-512809D01*
X-510270D01*
Y225133D01*
X-507730Y227672D01*
X-520426Y240368D02*
X-525505D01*
X-522966D01*
Y225133D01*
X-520426Y227672D01*
X-225196Y-189382D02*
Y-204618D01*
X-215039D01*
X-202343D02*
Y-189382D01*
X-209961Y-197000D01*
X-199804D01*
X-340506Y138597D02*
Y123363D01*
X-332888D01*
X-330349Y125902D01*
Y136058D01*
X-332888Y138597D01*
X-340506D01*
X-325271D02*
X-315114D01*
Y136058D01*
X-325271Y125902D01*
Y123363D01*
X-404598Y299244D02*
X-389362D01*
Y306862D01*
X-391902Y309401D01*
X-402058D01*
X-404598Y306862D01*
Y299244D01*
Y324636D02*
Y314479D01*
X-396980D01*
X-399519Y319557D01*
Y322097D01*
X-396980Y324636D01*
X-391902D01*
X-389362Y322097D01*
Y317018D01*
X-391902Y314479D01*
X176796Y-300583D02*
Y-315818D01*
X169178D01*
X166639Y-313278D01*
Y-308200D01*
X169178Y-305661D01*
X176796D01*
X151404Y-300583D02*
X161561D01*
X151404Y-310739D01*
Y-313278D01*
X153943Y-315818D01*
X159022D01*
X161561Y-313278D01*
X9173Y-182633D02*
Y-195328D01*
X11712Y-197868D01*
X16791D01*
X19330Y-195328D01*
Y-182633D01*
X24408Y-195328D02*
X26947Y-197868D01*
X32026D01*
X34565Y-195328D01*
Y-185172D01*
X32026Y-182633D01*
X26947D01*
X24408Y-185172D01*
Y-187711D01*
X26947Y-190250D01*
X34565D01*
X276343Y-189382D02*
Y-204618D01*
X286500D01*
X291578D02*
X296657D01*
X294118D01*
Y-189382D01*
X291578Y-191922D01*
X531240Y-132122D02*
X526162D01*
X528701D01*
Y-144818D01*
X526162Y-147358D01*
X523623D01*
X521083Y-144818D01*
X536318Y-147358D02*
X541397D01*
X538858D01*
Y-132122D01*
X536318Y-134662D01*
X326152Y101744D02*
X341387D01*
Y109362D01*
X338848Y111901D01*
X328692D01*
X326152Y109362D01*
Y101744D01*
X328692Y116979D02*
X326152Y119518D01*
Y124597D01*
X328692Y127136D01*
X331231D01*
X333770Y124597D01*
Y122058D01*
Y124597D01*
X336309Y127136D01*
X338848D01*
X341387Y124597D01*
Y119518D01*
X338848Y116979D01*
X488863Y198118D02*
X483784D01*
X486324D01*
Y185422D01*
X483784Y182882D01*
X481245D01*
X478706Y185422D01*
X493941Y182882D02*
X499020D01*
X496480D01*
Y198118D01*
X493941Y195578D01*
X516794Y182882D02*
X506637D01*
X516794Y193039D01*
Y195578D01*
X514255Y198118D01*
X509176D01*
X506637Y195578D01*
X34961Y347868D02*
X29883D01*
X32422D01*
Y335172D01*
X29883Y332632D01*
X27343D01*
X24804Y335172D01*
X50196Y332632D02*
X40039D01*
X50196Y342789D01*
Y345328D01*
X47657Y347868D01*
X42578D01*
X40039Y345328D01*
X-301790Y115975D02*
Y128671D01*
X-304329Y131210D01*
X-309408D01*
X-311947Y128671D01*
Y115975D01*
X-327182D02*
X-317025D01*
Y123592D01*
X-322103Y121053D01*
X-324643D01*
X-327182Y123592D01*
Y128671D01*
X-324643Y131210D01*
X-319564D01*
X-317025Y128671D01*
X-480859Y-73139D02*
Y-78218D01*
Y-75678D01*
X-468164D01*
X-465625Y-78218D01*
Y-80757D01*
X-468164Y-83296D01*
X-465625Y-60443D02*
X-480859D01*
X-473242Y-68061D01*
Y-57904D01*
X334596Y-300082D02*
Y-315318D01*
X326978D01*
X324439Y-312778D01*
Y-307700D01*
X326978Y-305161D01*
X334596D01*
X319361Y-312778D02*
X316822Y-315318D01*
X311743D01*
X309204Y-312778D01*
Y-310239D01*
X311743Y-307700D01*
X314282D01*
X311743D01*
X309204Y-305161D01*
Y-302622D01*
X311743Y-300082D01*
X316822D01*
X319361Y-302622D01*
X-337843Y-313883D02*
Y-329118D01*
X-345461D01*
X-348000Y-326578D01*
Y-321500D01*
X-345461Y-318961D01*
X-337843D01*
X-353078Y-313883D02*
X-358157D01*
X-355617D01*
Y-329118D01*
X-353078Y-326578D01*
X352617Y157937D02*
X337383D01*
X342461Y163015D01*
X337383Y168093D01*
X352617D01*
X337383Y173172D02*
X352617D01*
X345000D01*
Y183328D01*
X337383D01*
X352617D01*
X339922Y188407D02*
X337383Y190946D01*
Y196024D01*
X339922Y198563D01*
X342461D01*
X345000Y196024D01*
X347539Y198563D01*
X350078D01*
X352617Y196024D01*
Y190946D01*
X350078Y188407D01*
X347539D01*
X345000Y190946D01*
X342461Y188407D01*
X339922D01*
X345000Y190946D02*
Y196024D01*
X315938Y158317D02*
X300702D01*
X305781Y163395D01*
X300702Y168473D01*
X315938D01*
X300702Y173552D02*
X315938D01*
X308320D01*
Y183708D01*
X300702D01*
X315938D01*
X300702Y188787D02*
Y198944D01*
X303242D01*
X313398Y188787D01*
X315938D01*
X352357Y192817D02*
X337122D01*
X342201Y197895D01*
X337122Y202973D01*
X352357D01*
X337122Y208052D02*
X352357D01*
X344740D01*
Y218208D01*
X337122D01*
X352357D01*
X337122Y233443D02*
X339662Y228365D01*
X344740Y223287D01*
X349818D01*
X352357Y225826D01*
Y230904D01*
X349818Y233443D01*
X347279D01*
X344740Y230904D01*
Y223287D01*
X315368Y193187D02*
X300133D01*
X305211Y198265D01*
X300133Y203343D01*
X315368D01*
X300133Y208422D02*
X315368D01*
X307750D01*
Y218578D01*
X300133D01*
X315368D01*
X300133Y233813D02*
Y223657D01*
X307750D01*
X305211Y228735D01*
Y231274D01*
X307750Y233813D01*
X312828D01*
X315368Y231274D01*
Y226196D01*
X312828Y223657D01*
X-470313Y292383D02*
Y307617D01*
X-465235Y302539D01*
X-460157Y307617D01*
Y292383D01*
X-455078Y307617D02*
Y292383D01*
Y300000D01*
X-444922D01*
Y307617D01*
Y292383D01*
X-432226D02*
Y307617D01*
X-439843Y300000D01*
X-429687D01*
X429687Y292383D02*
Y307617D01*
X434765Y302539D01*
X439843Y307617D01*
Y292383D01*
X444922Y307617D02*
Y292383D01*
Y300000D01*
X455078D01*
Y307617D01*
Y292383D01*
X460157Y305078D02*
X462696Y307617D01*
X467774D01*
X470313Y305078D01*
Y302539D01*
X467774Y300000D01*
X465235D01*
X467774D01*
X470313Y297461D01*
Y294922D01*
X467774Y292383D01*
X462696D01*
X460157Y294922D01*
X-470313Y-307617D02*
Y-292383D01*
X-465235Y-297461D01*
X-460157Y-292383D01*
Y-307617D01*
X-455078Y-292383D02*
Y-307617D01*
Y-300000D01*
X-444922D01*
Y-292383D01*
Y-307617D01*
X-429687D02*
X-439843D01*
X-429687Y-297461D01*
Y-294922D01*
X-432226Y-292383D01*
X-437304D01*
X-439843Y-294922D01*
X432226Y-307617D02*
Y-292383D01*
X437304Y-297461D01*
X442383Y-292383D01*
Y-307617D01*
X447461Y-292383D02*
Y-307617D01*
Y-300000D01*
X457618D01*
Y-292383D01*
Y-307617D01*
X462696D02*
X467774D01*
X465235D01*
Y-292383D01*
X462696Y-294922D01*
X-215711Y-363610D02*
X-210632D01*
X-213172D01*
Y-350914D01*
X-210632Y-348374D01*
X-208093D01*
X-205554Y-350914D01*
X-220789Y-363610D02*
X-230946D01*
Y-361070D01*
X-220789Y-350914D01*
Y-348374D01*
X-90211Y-363860D02*
X-85133D01*
X-87672D01*
Y-351164D01*
X-85133Y-348624D01*
X-82593D01*
X-80054Y-351164D01*
X-105446Y-363860D02*
X-100367Y-361320D01*
X-95289Y-356242D01*
Y-351164D01*
X-97828Y-348624D01*
X-102907D01*
X-105446Y-351164D01*
Y-353703D01*
X-102907Y-356242D01*
X-95289D01*
X129604Y-243348D02*
Y-228113D01*
X121986D01*
X119447Y-230652D01*
Y-240808D01*
X121986Y-243348D01*
X129604D01*
X114369Y-228113D02*
X109290D01*
X111830D01*
Y-243348D01*
X114369Y-240808D01*
X101673D02*
X99134Y-243348D01*
X94055D01*
X91516Y-240808D01*
Y-238269D01*
X94055Y-235730D01*
X96594D01*
X94055D01*
X91516Y-233191D01*
Y-230652D01*
X94055Y-228113D01*
X99134D01*
X101673Y-230652D01*
X-345902Y-308646D02*
X-361138D01*
Y-316264D01*
X-358598Y-318803D01*
X-348442D01*
X-345902Y-316264D01*
Y-308646D01*
X-361138Y-323881D02*
Y-328960D01*
Y-326421D01*
X-345902D01*
X-348442Y-323881D01*
X-361138Y-346734D02*
Y-336577D01*
X-350981Y-346734D01*
X-348442D01*
X-345902Y-344195D01*
Y-339116D01*
X-348442Y-336577D01*
X2506Y-317598D02*
Y-302362D01*
X-5112D01*
X-7651Y-304902D01*
Y-315058D01*
X-5112Y-317598D01*
X2506D01*
X-12729Y-304902D02*
X-15268Y-302362D01*
X-20347D01*
X-22886Y-304902D01*
Y-315058D01*
X-20347Y-317598D01*
X-15268D01*
X-12729Y-315058D01*
Y-312519D01*
X-15268Y-309980D01*
X-22886D01*
X329506Y253652D02*
Y268888D01*
X321888D01*
X319349Y266348D01*
Y256192D01*
X321888Y253652D01*
X329506D01*
X304114D02*
X309193Y256192D01*
X314271Y261270D01*
Y266348D01*
X311732Y268888D01*
X306653D01*
X304114Y266348D01*
Y263809D01*
X306653Y261270D01*
X314271D01*
X137402Y298494D02*
X152638D01*
Y306112D01*
X150098Y308651D01*
X139942D01*
X137402Y306112D01*
Y298494D01*
X152638Y321347D02*
X137402D01*
X145020Y313729D01*
Y323886D01*
D72*
X-233649Y-97685D02*
X-231983Y-96018D01*
Y-92686D01*
X-233649Y-91020D01*
X-240314D01*
X-241980Y-92686D01*
Y-96018D01*
X-240314Y-97685D01*
X-241980Y-107681D02*
Y-101017D01*
X-235315Y-107681D01*
X-233649D01*
X-231983Y-106015D01*
Y-102683D01*
X-233649Y-101017D01*
Y-111014D02*
X-231983Y-112680D01*
Y-116012D01*
X-233649Y-117678D01*
X-240314D01*
X-241980Y-116012D01*
Y-112680D01*
X-240314Y-111014D01*
X-233649D01*
X-241770Y-108230D02*
X-251767D01*
Y-103231D01*
X-250101Y-101565D01*
X-246768D01*
X-245102Y-103231D01*
Y-108230D01*
Y-104898D02*
X-241770Y-101565D01*
Y-98233D02*
Y-94901D01*
Y-96567D01*
X-251767D01*
X-250101Y-98233D01*
X-251767Y-89902D02*
Y-83238D01*
X-250101D01*
X-243436Y-89902D01*
X-241770D01*
X-255435Y-122101D02*
X-253769Y-123767D01*
X-250436D01*
X-248770Y-122101D01*
Y-115436D01*
X-250436Y-113770D01*
X-253769D01*
X-255435Y-115436D01*
X-265431Y-113770D02*
X-258767D01*
X-265431Y-120435D01*
Y-122101D01*
X-263765Y-123767D01*
X-260433D01*
X-258767Y-122101D01*
X-268764Y-113770D02*
X-272096D01*
X-270430D01*
Y-123767D01*
X-268764Y-122101D01*
X-210649Y-50685D02*
X-208983Y-49019D01*
Y-45686D01*
X-210649Y-44020D01*
X-217314D01*
X-218980Y-45686D01*
Y-49019D01*
X-217314Y-50685D01*
X-218980Y-54017D02*
Y-57349D01*
Y-55683D01*
X-208983D01*
X-210649Y-54017D01*
X-208983Y-69012D02*
Y-62348D01*
X-213981D01*
X-212315Y-65680D01*
Y-67346D01*
X-213981Y-69012D01*
X-217314D01*
X-218980Y-67346D01*
Y-64014D01*
X-217314Y-62348D01*
X-279730Y-74270D02*
X-269733D01*
Y-79268D01*
X-271399Y-80935D01*
X-274732D01*
X-276398Y-79268D01*
Y-74270D01*
Y-77602D02*
X-279730Y-80935D01*
Y-84267D02*
Y-87599D01*
Y-85933D01*
X-269733D01*
X-271399Y-84267D01*
X-269733Y-99262D02*
Y-92598D01*
X-274732D01*
X-273065Y-95930D01*
Y-97596D01*
X-274732Y-99262D01*
X-278064D01*
X-279730Y-97596D01*
Y-94264D01*
X-278064Y-92598D01*
X-280520Y-91480D02*
X-290517D01*
Y-86482D01*
X-288851Y-84816D01*
X-285518D01*
X-283852Y-86482D01*
Y-91480D01*
Y-88148D02*
X-280520Y-84816D01*
Y-81483D02*
Y-78151D01*
Y-79817D01*
X-290517D01*
X-288851Y-81483D01*
X-290517Y-66488D02*
X-288851Y-69820D01*
X-285518Y-73153D01*
X-282186D01*
X-280520Y-71487D01*
Y-68154D01*
X-282186Y-66488D01*
X-283852D01*
X-285518Y-68154D01*
Y-73153D01*
X-250601Y-12815D02*
X-252267Y-14482D01*
Y-17814D01*
X-250601Y-19480D01*
X-243936D01*
X-242270Y-17814D01*
Y-14482D01*
X-243936Y-12815D01*
X-242270Y-9483D02*
Y-6151D01*
Y-7817D01*
X-252267D01*
X-250601Y-9483D01*
X-243936Y-1152D02*
X-242270Y514D01*
Y3846D01*
X-243936Y5512D01*
X-250601D01*
X-252267Y3846D01*
Y514D01*
X-250601Y-1152D01*
X-248935D01*
X-247269Y514D01*
Y5512D01*
X-274730Y-2020D02*
X-264733D01*
Y-7018D01*
X-266399Y-8685D01*
X-269732D01*
X-271398Y-7018D01*
Y-2020D01*
Y-5352D02*
X-274730Y-8685D01*
Y-12017D02*
Y-15349D01*
Y-13683D01*
X-264733D01*
X-266399Y-12017D01*
Y-20347D02*
X-264733Y-22014D01*
Y-25346D01*
X-266399Y-27012D01*
X-268065D01*
X-269732Y-25346D01*
X-271398Y-27012D01*
X-273064D01*
X-274730Y-25346D01*
Y-22014D01*
X-273064Y-20347D01*
X-271398D01*
X-269732Y-22014D01*
X-268065Y-20347D01*
X-266399D01*
X-269732Y-22014D02*
Y-25346D01*
X-296601Y168435D02*
X-298267Y166768D01*
Y163436D01*
X-296601Y161770D01*
X-289936D01*
X-288270Y163436D01*
Y166768D01*
X-289936Y168435D01*
X-298267Y178431D02*
Y171767D01*
X-293269D01*
X-294935Y175099D01*
Y176765D01*
X-293269Y178431D01*
X-289936D01*
X-288270Y176765D01*
Y173433D01*
X-289936Y171767D01*
X-288270Y181764D02*
Y185096D01*
Y183430D01*
X-298267D01*
X-296601Y181764D01*
X-312351Y168185D02*
X-314017Y166518D01*
Y163186D01*
X-312351Y161520D01*
X-305686D01*
X-304020Y163186D01*
Y166518D01*
X-305686Y168185D01*
X-314017Y178181D02*
Y171517D01*
X-309018D01*
X-310685Y174849D01*
Y176515D01*
X-309018Y178181D01*
X-305686D01*
X-304020Y176515D01*
Y173183D01*
X-305686Y171517D01*
X-312351Y181514D02*
X-314017Y183180D01*
Y186512D01*
X-312351Y188178D01*
X-305686D01*
X-304020Y186512D01*
Y183180D01*
X-305686Y181514D01*
X-312351D01*
X-343851Y168435D02*
X-345517Y166768D01*
Y163436D01*
X-343851Y161770D01*
X-337186D01*
X-335520Y163436D01*
Y166768D01*
X-337186Y168435D01*
X-345517Y178431D02*
Y171767D01*
X-340518D01*
X-342185Y175099D01*
Y176765D01*
X-340518Y178431D01*
X-337186D01*
X-335520Y176765D01*
Y173433D01*
X-337186Y171767D01*
X-335520Y188428D02*
Y181764D01*
X-342185Y188428D01*
X-343851D01*
X-345517Y186762D01*
Y183430D01*
X-343851Y181764D01*
X-359351Y168935D02*
X-361017Y167269D01*
Y163936D01*
X-359351Y162270D01*
X-352686D01*
X-351020Y163936D01*
Y167269D01*
X-352686Y168935D01*
X-361017Y178931D02*
Y172267D01*
X-356018D01*
X-357685Y175599D01*
Y177265D01*
X-356018Y178931D01*
X-352686D01*
X-351020Y177265D01*
Y173933D01*
X-352686Y172267D01*
X-359351Y182264D02*
X-361017Y183930D01*
Y187262D01*
X-359351Y188928D01*
X-357685D01*
X-356018Y187262D01*
Y185596D01*
Y187262D01*
X-354352Y188928D01*
X-352686D01*
X-351020Y187262D01*
Y183930D01*
X-352686Y182264D01*
X-405730Y226230D02*
X-395733D01*
Y221231D01*
X-397399Y219565D01*
X-400732D01*
X-402398Y221231D01*
Y226230D01*
Y222898D02*
X-405730Y219565D01*
Y216233D02*
Y212901D01*
Y214567D01*
X-395733D01*
X-397399Y216233D01*
X-405730Y201238D02*
Y207903D01*
X-399065Y201238D01*
X-397399D01*
X-395733Y202904D01*
Y206236D01*
X-397399Y207903D01*
X86230Y-311730D02*
X76233D01*
Y-306731D01*
X77899Y-305065D01*
X81231D01*
X82898Y-306731D01*
Y-311730D01*
Y-308398D02*
X86230Y-305065D01*
Y-301733D02*
Y-298401D01*
Y-300067D01*
X76233D01*
X77899Y-301733D01*
Y-293403D02*
X76233Y-291736D01*
Y-288404D01*
X77899Y-286738D01*
X84564D01*
X86230Y-288404D01*
Y-291736D01*
X84564Y-293403D01*
X77899D01*
X50935Y-265899D02*
X49268Y-264233D01*
X45936D01*
X44270Y-265899D01*
Y-272564D01*
X45936Y-274230D01*
X49268D01*
X50935Y-272564D01*
X60931Y-274230D02*
X54267D01*
X60931Y-267565D01*
Y-265899D01*
X59265Y-264233D01*
X55933D01*
X54267Y-265899D01*
X64264Y-264233D02*
X70928D01*
Y-265899D01*
X64264Y-272564D01*
Y-274230D01*
X50935Y-251399D02*
X49268Y-249733D01*
X45936D01*
X44270Y-251399D01*
Y-258064D01*
X45936Y-259730D01*
X49268D01*
X50935Y-258064D01*
X60931Y-259730D02*
X54267D01*
X60931Y-253065D01*
Y-251399D01*
X59265Y-249733D01*
X55933D01*
X54267Y-251399D01*
X64264D02*
X65930Y-249733D01*
X69262D01*
X70928Y-251399D01*
Y-253065D01*
X69262Y-254732D01*
X70928Y-256398D01*
Y-258064D01*
X69262Y-259730D01*
X65930D01*
X64264Y-258064D01*
Y-256398D01*
X65930Y-254732D01*
X64264Y-253065D01*
Y-251399D01*
X65930Y-254732D02*
X69262D01*
X17315Y-251851D02*
X18981Y-253517D01*
X22314D01*
X23980Y-251851D01*
Y-245186D01*
X22314Y-243520D01*
X18981D01*
X17315Y-245186D01*
X7319Y-243520D02*
X13983D01*
X7319Y-250185D01*
Y-251851D01*
X8985Y-253517D01*
X12317D01*
X13983Y-251851D01*
X3986Y-245186D02*
X2320Y-243520D01*
X-1012D01*
X-2678Y-245186D01*
Y-251851D01*
X-1012Y-253517D01*
X2320D01*
X3986Y-251851D01*
Y-250185D01*
X2320Y-248519D01*
X-2678D01*
X17315Y-267351D02*
X18981Y-269017D01*
X22314D01*
X23980Y-267351D01*
Y-260686D01*
X22314Y-259020D01*
X18981D01*
X17315Y-260686D01*
X13983Y-267351D02*
X12317Y-269017D01*
X8985D01*
X7319Y-267351D01*
Y-265685D01*
X8985Y-264018D01*
X10651D01*
X8985D01*
X7319Y-262352D01*
Y-260686D01*
X8985Y-259020D01*
X12317D01*
X13983Y-260686D01*
X3986Y-267351D02*
X2320Y-269017D01*
X-1012D01*
X-2678Y-267351D01*
Y-260686D01*
X-1012Y-259020D01*
X2320D01*
X3986Y-260686D01*
Y-267351D01*
X187980Y-218480D02*
X177983D01*
Y-213482D01*
X179649Y-211815D01*
X182981D01*
X184648Y-213482D01*
Y-218480D01*
Y-215148D02*
X187980Y-211815D01*
Y-201819D02*
Y-208483D01*
X181315Y-201819D01*
X179649D01*
X177983Y-203485D01*
Y-206817D01*
X179649Y-208483D01*
Y-198486D02*
X177983Y-196820D01*
Y-193488D01*
X179649Y-191822D01*
X186314D01*
X187980Y-193488D01*
Y-196820D01*
X186314Y-198486D01*
X179649D01*
X274601Y-51934D02*
X276267Y-50268D01*
Y-46936D01*
X274601Y-45270D01*
X267936D01*
X266270Y-46936D01*
Y-50268D01*
X267936Y-51934D01*
X266270Y-55267D02*
Y-58599D01*
Y-56933D01*
X276267D01*
X274601Y-55267D01*
X248149Y-100566D02*
X246483Y-102232D01*
Y-105564D01*
X248149Y-107230D01*
X254814D01*
X256480Y-105564D01*
Y-102232D01*
X254814Y-100566D01*
X246483Y-90569D02*
X248149Y-93901D01*
X251482Y-97233D01*
X254814D01*
X256480Y-95567D01*
Y-92235D01*
X254814Y-90569D01*
X253148D01*
X251482Y-92235D01*
Y-97233D01*
X240980Y-107230D02*
X230983D01*
Y-102232D01*
X232649Y-100566D01*
X235982D01*
X237648Y-102232D01*
Y-107230D01*
Y-103898D02*
X240980Y-100566D01*
X232649Y-97233D02*
X230983Y-95567D01*
Y-92235D01*
X232649Y-90569D01*
X234315D01*
X235982Y-92235D01*
Y-93901D01*
Y-92235D01*
X237648Y-90569D01*
X239314D01*
X240980Y-92235D01*
Y-95567D01*
X239314Y-97233D01*
X227066Y-122351D02*
X228732Y-124017D01*
X232064D01*
X233730Y-122351D01*
Y-115686D01*
X232064Y-114020D01*
X228732D01*
X227066Y-115686D01*
X223733Y-124017D02*
X217069D01*
Y-122351D01*
X223733Y-115686D01*
Y-114020D01*
X377520Y240480D02*
X387517D01*
Y235481D01*
X385851Y233815D01*
X382519D01*
X380852Y235481D01*
Y240480D01*
Y237148D02*
X377520Y233815D01*
Y230483D02*
Y227151D01*
Y228817D01*
X387517D01*
X385851Y230483D01*
Y222153D02*
X387517Y220486D01*
Y217154D01*
X385851Y215488D01*
X384185D01*
X382519Y217154D01*
Y218820D01*
Y217154D01*
X380852Y215488D01*
X379186D01*
X377520Y217154D01*
Y220486D01*
X379186Y222153D01*
X-2185Y95149D02*
X-518Y93483D01*
X2814D01*
X4480Y95149D01*
Y101814D01*
X2814Y103480D01*
X-518D01*
X-2185Y101814D01*
X-5517Y95149D02*
X-7183Y93483D01*
X-10515D01*
X-12181Y95149D01*
Y96815D01*
X-10515Y98482D01*
X-8849D01*
X-10515D01*
X-12181Y100148D01*
Y101814D01*
X-10515Y103480D01*
X-7183D01*
X-5517Y101814D01*
X-22178Y93483D02*
X-15514D01*
Y98482D01*
X-18846Y96815D01*
X-20512D01*
X-22178Y98482D01*
Y101814D01*
X-20512Y103480D01*
X-17180D01*
X-15514Y101814D01*
X-333480Y-266980D02*
Y-256983D01*
X-328481D01*
X-326815Y-258649D01*
Y-261982D01*
X-328481Y-263648D01*
X-333480D01*
X-330148D02*
X-326815Y-266980D01*
X-323483D02*
X-320151D01*
X-321817D01*
Y-256983D01*
X-323483Y-258649D01*
X-315152Y-265314D02*
X-313486Y-266980D01*
X-310154D01*
X-308488Y-265314D01*
Y-258649D01*
X-310154Y-256983D01*
X-313486D01*
X-315152Y-258649D01*
Y-260315D01*
X-313486Y-261982D01*
X-308488D01*
X-388770Y151020D02*
X-398767D01*
Y156018D01*
X-397101Y157685D01*
X-393769D01*
X-392102Y156018D01*
Y151020D01*
Y154352D02*
X-388770Y157685D01*
Y161017D02*
Y164349D01*
Y162683D01*
X-398767D01*
X-397101Y161017D01*
X-388770Y174346D02*
X-398767D01*
X-393769Y169347D01*
Y176012D01*
X124980Y250730D02*
Y240733D01*
X119982D01*
X118315Y242399D01*
Y245732D01*
X119982Y247398D01*
X124980D01*
X121648D02*
X118315Y250730D01*
X114983D02*
X111651D01*
X113317D01*
Y240733D01*
X114983Y242399D01*
X106653Y250730D02*
X103320D01*
X104986D01*
Y240733D01*
X106653Y242399D01*
X353770Y37270D02*
Y47267D01*
X358768D01*
X360434Y45601D01*
Y42268D01*
X358768Y40602D01*
X353770D01*
X357102D02*
X360434Y37270D01*
X363767Y38936D02*
X365433Y37270D01*
X368765D01*
X370431Y38936D01*
Y45601D01*
X368765Y47267D01*
X365433D01*
X363767Y45601D01*
Y43934D01*
X365433Y42268D01*
X370431D01*
X206020Y-1520D02*
X216017D01*
Y-6518D01*
X214351Y-8184D01*
X211018D01*
X209352Y-6518D01*
Y-1520D01*
Y-4852D02*
X206020Y-8184D01*
Y-16515D02*
X216017D01*
X211018Y-11517D01*
Y-18181D01*
X388649Y-163815D02*
X386983Y-165481D01*
Y-168814D01*
X388649Y-170480D01*
X395314D01*
X396980Y-168814D01*
Y-165481D01*
X395314Y-163815D01*
X388649Y-160483D02*
X386983Y-158817D01*
Y-155485D01*
X388649Y-153819D01*
X390315D01*
X391982Y-155485D01*
Y-157151D01*
Y-155485D01*
X393648Y-153819D01*
X395314D01*
X396980Y-155485D01*
Y-158817D01*
X395314Y-160483D01*
X396980Y-150486D02*
Y-147154D01*
Y-148820D01*
X386983D01*
X388649Y-150486D01*
X228149Y-12565D02*
X226483Y-14232D01*
Y-17564D01*
X228149Y-19230D01*
X234814D01*
X236480Y-17564D01*
Y-14232D01*
X234814Y-12565D01*
X226483Y-2569D02*
Y-9233D01*
X231482D01*
X229816Y-5901D01*
Y-4235D01*
X231482Y-2569D01*
X234814D01*
X236480Y-4235D01*
Y-7567D01*
X234814Y-9233D01*
X198980Y-91480D02*
X188983D01*
Y-86482D01*
X190649Y-84816D01*
X193982D01*
X195648Y-86482D01*
Y-91480D01*
Y-88148D02*
X198980Y-84816D01*
Y-74819D02*
Y-81483D01*
X192316Y-74819D01*
X190649D01*
X188983Y-76485D01*
Y-79817D01*
X190649Y-81483D01*
X199270Y-73770D02*
X209267D01*
Y-78768D01*
X207601Y-80435D01*
X204268D01*
X202602Y-78768D01*
Y-73770D01*
Y-77102D02*
X199270Y-80435D01*
Y-83767D02*
Y-87099D01*
Y-85433D01*
X209267D01*
X207601Y-83767D01*
%TF.MD5,d5fb085dd24bb05acb3401237b5c980a*%
M02*
