%TF.GenerationSoftware,Altium Limited,Altium Designer,22.5.1 (42)*%
G04 Layer_Color=16711935*
%FSLAX44Y44*%
%MOMM*%
%TF.SameCoordinates,B102F14A-A54C-4FC6-BF91-0F17097562DF*%
%TF.FilePolarity,Negative*%
%TF.FileFunction,Soldermask,Bot*%
%TF.Part,Single*%
G01*
G75*
%TA.AperFunction,SMDPad,CuDef*%
%ADD73R,1.0032X1.0032*%
%ADD74R,1.1020X0.5020*%
%ADD75R,2.7020X3.1020*%
%ADD76R,1.0532X1.0532*%
%ADD77R,1.4532X1.2032*%
%ADD78R,1.0532X1.0532*%
%ADD79R,1.8032X1.2032*%
%ADD80R,5.4700X3.7200*%
%ADD81R,1.9520X1.6020*%
%ADD82R,3.2032X2.2032*%
%ADD83R,1.2032X1.8032*%
%ADD84R,1.0032X1.0032*%
%ADD85R,2.2032X1.6032*%
%ADD86R,7.2032X7.2032*%
%ADD87R,3.4532X5.2032*%
G04:AMPARAMS|DCode=88|XSize=4.4032mm|YSize=4.4032mm|CornerRadius=0.3116mm|HoleSize=0mm|Usage=FLASHONLY|Rotation=180.000|XOffset=0mm|YOffset=0mm|HoleType=Round|Shape=RoundedRectangle|*
%AMROUNDEDRECTD88*
21,1,4.4032,3.7800,0,0,180.0*
21,1,3.7800,4.4032,0,0,180.0*
1,1,0.6232,-1.8900,1.8900*
1,1,0.6232,1.8900,1.8900*
1,1,0.6232,1.8900,-1.8900*
1,1,0.6232,-1.8900,-1.8900*
%
%ADD88ROUNDEDRECTD88*%
%TA.AperFunction,ComponentPad*%
%ADD89R,2.7532X2.7532*%
%ADD90C,2.7532*%
%ADD91C,1.7112*%
%ADD92O,3.7032X3.0032*%
%ADD93R,3.7032X3.0032*%
%ADD94R,2.7032X1.4032*%
%ADD95R,1.4032X2.7032*%
%ADD96C,1.8032*%
%ADD97R,1.8032X1.8032*%
%ADD98C,2.0032*%
%ADD99R,2.0032X2.0032*%
%ADD100O,4.7032X3.2032*%
%ADD101C,3.9192*%
%ADD102R,3.9192X3.9192*%
%ADD103O,1.4032X2.6032*%
%ADD104C,5.2032*%
%ADD105O,3.0032X3.7032*%
%ADD106R,3.0032X3.7032*%
G36*
X53730Y8690D02*
X53750D01*
X53780Y8680D01*
X53800D01*
X53830Y8670D01*
X53850Y8660D01*
X53880Y8650D01*
X53900Y8630D01*
X53920Y8620D01*
X53940Y8600D01*
X53960Y8590D01*
X53980Y8570D01*
X54000Y8550D01*
X54020Y8530D01*
X54040Y8510D01*
X54050Y8490D01*
X54070Y8470D01*
X54080Y8450D01*
X54100Y8430D01*
X54110Y8400D01*
X54120Y8380D01*
X54130Y8350D01*
Y8330D01*
X54140Y8300D01*
Y8280D01*
X54150Y8250D01*
Y8230D01*
Y8200D01*
Y1800D01*
Y1770D01*
Y1750D01*
X54140Y1720D01*
Y1700D01*
X54130Y1670D01*
Y1650D01*
X54120Y1620D01*
X54110Y1600D01*
X54100Y1570D01*
X54080Y1550D01*
X54070Y1530D01*
X54050Y1510D01*
X54040Y1490D01*
X54020Y1470D01*
X54000Y1450D01*
X53980Y1430D01*
X53960Y1410D01*
X53940Y1400D01*
X53920Y1380D01*
X53900Y1370D01*
X53880Y1350D01*
X53850Y1340D01*
X53830Y1330D01*
X53800Y1320D01*
X53780D01*
X53750Y1310D01*
X53730D01*
X53700Y1300D01*
X50800D01*
X50770Y1310D01*
X50750D01*
X50720Y1320D01*
X50700D01*
X50670Y1330D01*
X50650Y1340D01*
X50620Y1350D01*
X50600Y1370D01*
X50580Y1380D01*
X50560Y1400D01*
X50540Y1410D01*
X50520Y1430D01*
X50500Y1450D01*
X50480Y1470D01*
X50460Y1490D01*
X50450Y1510D01*
X50430Y1530D01*
X50420Y1550D01*
X50400Y1570D01*
X50390Y1600D01*
X50380Y1620D01*
X50370Y1650D01*
Y1670D01*
X50360Y1700D01*
Y1720D01*
X50350Y1750D01*
Y1770D01*
Y1800D01*
Y8200D01*
Y8230D01*
Y8250D01*
X50360Y8280D01*
Y8300D01*
X50370Y8330D01*
Y8350D01*
X50380Y8380D01*
X50390Y8400D01*
X50400Y8430D01*
X50420Y8450D01*
X50430Y8470D01*
X50450Y8490D01*
X50460Y8510D01*
X50480Y8530D01*
X50500Y8550D01*
X50520Y8570D01*
X50540Y8590D01*
X50560Y8600D01*
X50580Y8620D01*
X50600Y8630D01*
X50620Y8650D01*
X50650Y8660D01*
X50670Y8670D01*
X50700Y8680D01*
X50720D01*
X50750Y8690D01*
X50770D01*
X50800Y8700D01*
X53700D01*
X53730Y8690D01*
D02*
G37*
G36*
X38730D02*
X38750D01*
X38780Y8680D01*
X38800D01*
X38830Y8670D01*
X38850Y8660D01*
X38880Y8650D01*
X38900Y8630D01*
X38920Y8620D01*
X38940Y8600D01*
X38960Y8590D01*
X38980Y8570D01*
X39000Y8550D01*
X39020Y8530D01*
X39040Y8510D01*
X39050Y8490D01*
X39070Y8470D01*
X39080Y8450D01*
X39100Y8430D01*
X39110Y8400D01*
X39120Y8380D01*
X39130Y8350D01*
Y8330D01*
X39140Y8300D01*
Y8280D01*
X39150Y8250D01*
Y8230D01*
Y8200D01*
Y1800D01*
Y1770D01*
Y1750D01*
X39140Y1720D01*
Y1700D01*
X39130Y1670D01*
Y1650D01*
X39120Y1620D01*
X39110Y1600D01*
X39100Y1570D01*
X39080Y1550D01*
X39070Y1530D01*
X39050Y1510D01*
X39040Y1490D01*
X39020Y1470D01*
X39000Y1450D01*
X38980Y1430D01*
X38960Y1410D01*
X38940Y1400D01*
X38920Y1380D01*
X38900Y1370D01*
X38880Y1350D01*
X38850Y1340D01*
X38830Y1330D01*
X38800Y1320D01*
X38780D01*
X38750Y1310D01*
X38730D01*
X38700Y1300D01*
X35800D01*
X35770Y1310D01*
X35750D01*
X35720Y1320D01*
X35700D01*
X35670Y1330D01*
X35650Y1340D01*
X35620Y1350D01*
X35600Y1370D01*
X35580Y1380D01*
X35560Y1400D01*
X35540Y1410D01*
X35520Y1430D01*
X35500Y1450D01*
X35480Y1470D01*
X35460Y1490D01*
X35450Y1510D01*
X35430Y1530D01*
X35420Y1550D01*
X35400Y1570D01*
X35390Y1600D01*
X35380Y1620D01*
X35370Y1650D01*
Y1670D01*
X35360Y1700D01*
Y1720D01*
X35350Y1750D01*
Y1770D01*
Y1800D01*
Y8200D01*
Y8230D01*
Y8250D01*
X35360Y8280D01*
Y8300D01*
X35370Y8330D01*
Y8350D01*
X35380Y8380D01*
X35390Y8400D01*
X35400Y8430D01*
X35420Y8450D01*
X35430Y8470D01*
X35450Y8490D01*
X35460Y8510D01*
X35480Y8530D01*
X35500Y8550D01*
X35520Y8570D01*
X35540Y8590D01*
X35560Y8600D01*
X35580Y8620D01*
X35600Y8630D01*
X35620Y8650D01*
X35650Y8660D01*
X35670Y8670D01*
X35700Y8680D01*
X35720D01*
X35750Y8690D01*
X35770D01*
X35800Y8700D01*
X38700D01*
X38730Y8690D01*
D02*
G37*
G36*
X64530Y2890D02*
X64550D01*
X64580Y2880D01*
X64600D01*
X64630Y2870D01*
X64650Y2860D01*
X64680Y2850D01*
X64700Y2830D01*
X64720Y2820D01*
X64740Y2800D01*
X64760Y2790D01*
X64780Y2770D01*
X64800Y2750D01*
X64820Y2730D01*
X64840Y2710D01*
X64850Y2690D01*
X64870Y2670D01*
X64880Y2650D01*
X64900Y2630D01*
X64910Y2600D01*
X64920Y2580D01*
X64930Y2550D01*
Y2530D01*
X64940Y2500D01*
Y2480D01*
X64950Y2450D01*
Y2430D01*
Y2400D01*
Y-400D01*
Y-430D01*
Y-450D01*
X64940Y-480D01*
Y-500D01*
X64930Y-530D01*
Y-550D01*
X64920Y-580D01*
X64910Y-600D01*
X64900Y-630D01*
X64880Y-650D01*
X64870Y-670D01*
X64850Y-690D01*
X64840Y-710D01*
X64820Y-730D01*
X64800Y-750D01*
X64780Y-770D01*
X64760Y-790D01*
X64740Y-800D01*
X64720Y-820D01*
X64700Y-830D01*
X64680Y-850D01*
X64650Y-860D01*
X64630Y-870D01*
X64600Y-880D01*
X64580D01*
X64550Y-890D01*
X64530D01*
X64500Y-900D01*
X58000D01*
X57970Y-890D01*
X57950D01*
X57920Y-880D01*
X57900D01*
X57870Y-870D01*
X57850Y-860D01*
X57820Y-850D01*
X57800Y-830D01*
X57780Y-820D01*
X57760Y-800D01*
X57740Y-790D01*
X57720Y-770D01*
X57700Y-750D01*
X57680Y-730D01*
X57660Y-710D01*
X57650Y-690D01*
X57630Y-670D01*
X57620Y-650D01*
X57600Y-630D01*
X57590Y-600D01*
X57580Y-580D01*
X57570Y-550D01*
Y-530D01*
X57560Y-500D01*
Y-480D01*
X57550Y-450D01*
Y-430D01*
Y-400D01*
Y2400D01*
Y2430D01*
Y2450D01*
X57560Y2480D01*
Y2500D01*
X57570Y2530D01*
Y2550D01*
X57580Y2580D01*
X57590Y2600D01*
X57600Y2630D01*
X57620Y2650D01*
X57630Y2670D01*
X57650Y2690D01*
X57660Y2710D01*
X57680Y2730D01*
X57700Y2750D01*
X57720Y2770D01*
X57740Y2790D01*
X57760Y2800D01*
X57780Y2820D01*
X57800Y2830D01*
X57820Y2850D01*
X57850Y2860D01*
X57870Y2870D01*
X57900Y2880D01*
X57920D01*
X57950Y2890D01*
X57970D01*
X58000Y2900D01*
X64500D01*
X64530Y2890D01*
D02*
G37*
G36*
X31530D02*
X31550D01*
X31580Y2880D01*
X31600D01*
X31630Y2870D01*
X31650Y2860D01*
X31680Y2850D01*
X31700Y2830D01*
X31720Y2820D01*
X31740Y2800D01*
X31760Y2790D01*
X31780Y2770D01*
X31800Y2750D01*
X31820Y2730D01*
X31840Y2710D01*
X31850Y2690D01*
X31870Y2670D01*
X31880Y2650D01*
X31900Y2630D01*
X31910Y2600D01*
X31920Y2580D01*
X31930Y2550D01*
Y2530D01*
X31940Y2500D01*
Y2480D01*
X31950Y2450D01*
Y2430D01*
Y2400D01*
Y-400D01*
Y-430D01*
Y-450D01*
X31940Y-480D01*
Y-500D01*
X31930Y-530D01*
Y-550D01*
X31920Y-580D01*
X31910Y-600D01*
X31900Y-630D01*
X31880Y-650D01*
X31870Y-670D01*
X31850Y-690D01*
X31840Y-710D01*
X31820Y-730D01*
X31800Y-750D01*
X31780Y-770D01*
X31760Y-790D01*
X31740Y-800D01*
X31720Y-820D01*
X31700Y-830D01*
X31680Y-850D01*
X31650Y-860D01*
X31630Y-870D01*
X31600Y-880D01*
X31580D01*
X31550Y-890D01*
X31530D01*
X31500Y-900D01*
X25000D01*
X24970Y-890D01*
X24950D01*
X24920Y-880D01*
X24900D01*
X24870Y-870D01*
X24850Y-860D01*
X24820Y-850D01*
X24800Y-830D01*
X24780Y-820D01*
X24760Y-800D01*
X24740Y-790D01*
X24720Y-770D01*
X24700Y-750D01*
X24680Y-730D01*
X24660Y-710D01*
X24650Y-690D01*
X24630Y-670D01*
X24620Y-650D01*
X24600Y-630D01*
X24590Y-600D01*
X24580Y-580D01*
X24570Y-550D01*
Y-530D01*
X24560Y-500D01*
Y-480D01*
X24550Y-450D01*
Y-430D01*
Y-400D01*
Y2400D01*
Y2430D01*
Y2450D01*
X24560Y2480D01*
Y2500D01*
X24570Y2530D01*
Y2550D01*
X24580Y2580D01*
X24590Y2600D01*
X24600Y2630D01*
X24620Y2650D01*
X24630Y2670D01*
X24650Y2690D01*
X24660Y2710D01*
X24680Y2730D01*
X24700Y2750D01*
X24720Y2770D01*
X24740Y2790D01*
X24760Y2800D01*
X24780Y2820D01*
X24800Y2830D01*
X24820Y2850D01*
X24850Y2860D01*
X24870Y2870D01*
X24900Y2880D01*
X24920D01*
X24950Y2890D01*
X24970D01*
X25000Y2900D01*
X31500D01*
X31530Y2890D01*
D02*
G37*
G36*
X64530Y-2110D02*
X64550D01*
X64580Y-2120D01*
X64600D01*
X64630Y-2130D01*
X64650Y-2140D01*
X64680Y-2150D01*
X64700Y-2170D01*
X64720Y-2180D01*
X64740Y-2200D01*
X64760Y-2210D01*
X64780Y-2230D01*
X64800Y-2250D01*
X64820Y-2270D01*
X64840Y-2290D01*
X64850Y-2310D01*
X64870Y-2330D01*
X64880Y-2350D01*
X64900Y-2370D01*
X64910Y-2400D01*
X64920Y-2420D01*
X64930Y-2450D01*
Y-2470D01*
X64940Y-2500D01*
Y-2520D01*
X64950Y-2550D01*
Y-2570D01*
Y-2600D01*
Y-5400D01*
Y-5430D01*
Y-5450D01*
X64940Y-5480D01*
Y-5500D01*
X64930Y-5530D01*
Y-5550D01*
X64920Y-5580D01*
X64910Y-5600D01*
X64900Y-5630D01*
X64880Y-5650D01*
X64870Y-5670D01*
X64850Y-5690D01*
X64840Y-5710D01*
X64820Y-5730D01*
X64800Y-5750D01*
X64780Y-5770D01*
X64760Y-5790D01*
X64740Y-5800D01*
X64720Y-5820D01*
X64700Y-5830D01*
X64680Y-5850D01*
X64650Y-5860D01*
X64630Y-5870D01*
X64600Y-5880D01*
X64580D01*
X64550Y-5890D01*
X64530D01*
X64500Y-5900D01*
X58000D01*
X57970Y-5890D01*
X57950D01*
X57920Y-5880D01*
X57900D01*
X57870Y-5870D01*
X57850Y-5860D01*
X57820Y-5850D01*
X57800Y-5830D01*
X57780Y-5820D01*
X57760Y-5800D01*
X57740Y-5790D01*
X57720Y-5770D01*
X57700Y-5750D01*
X57680Y-5730D01*
X57660Y-5710D01*
X57650Y-5690D01*
X57630Y-5670D01*
X57620Y-5650D01*
X57600Y-5630D01*
X57590Y-5600D01*
X57580Y-5580D01*
X57570Y-5550D01*
Y-5530D01*
X57560Y-5500D01*
Y-5480D01*
X57550Y-5450D01*
Y-5430D01*
Y-5400D01*
Y-2600D01*
Y-2570D01*
Y-2550D01*
X57560Y-2520D01*
Y-2500D01*
X57570Y-2470D01*
Y-2450D01*
X57580Y-2420D01*
X57590Y-2400D01*
X57600Y-2370D01*
X57620Y-2350D01*
X57630Y-2330D01*
X57650Y-2310D01*
X57660Y-2290D01*
X57680Y-2270D01*
X57700Y-2250D01*
X57720Y-2230D01*
X57740Y-2210D01*
X57760Y-2200D01*
X57780Y-2180D01*
X57800Y-2170D01*
X57820Y-2150D01*
X57850Y-2140D01*
X57870Y-2130D01*
X57900Y-2120D01*
X57920D01*
X57950Y-2110D01*
X57970D01*
X58000Y-2100D01*
X64500D01*
X64530Y-2110D01*
D02*
G37*
G36*
X31530D02*
X31550D01*
X31580Y-2120D01*
X31600D01*
X31630Y-2130D01*
X31650Y-2140D01*
X31680Y-2150D01*
X31700Y-2170D01*
X31720Y-2180D01*
X31740Y-2200D01*
X31760Y-2210D01*
X31780Y-2230D01*
X31800Y-2250D01*
X31820Y-2270D01*
X31840Y-2290D01*
X31850Y-2310D01*
X31870Y-2330D01*
X31880Y-2350D01*
X31900Y-2370D01*
X31910Y-2400D01*
X31920Y-2420D01*
X31930Y-2450D01*
Y-2470D01*
X31940Y-2500D01*
Y-2520D01*
X31950Y-2550D01*
Y-2570D01*
Y-2600D01*
Y-5400D01*
Y-5430D01*
Y-5450D01*
X31940Y-5480D01*
Y-5500D01*
X31930Y-5530D01*
Y-5550D01*
X31920Y-5580D01*
X31910Y-5600D01*
X31900Y-5630D01*
X31880Y-5650D01*
X31870Y-5670D01*
X31850Y-5690D01*
X31840Y-5710D01*
X31820Y-5730D01*
X31800Y-5750D01*
X31780Y-5770D01*
X31760Y-5790D01*
X31740Y-5800D01*
X31720Y-5820D01*
X31700Y-5830D01*
X31680Y-5850D01*
X31650Y-5860D01*
X31630Y-5870D01*
X31600Y-5880D01*
X31580D01*
X31550Y-5890D01*
X31530D01*
X31500Y-5900D01*
X25000D01*
X24970Y-5890D01*
X24950D01*
X24920Y-5880D01*
X24900D01*
X24870Y-5870D01*
X24850Y-5860D01*
X24820Y-5850D01*
X24800Y-5830D01*
X24780Y-5820D01*
X24760Y-5800D01*
X24740Y-5790D01*
X24720Y-5770D01*
X24700Y-5750D01*
X24680Y-5730D01*
X24660Y-5710D01*
X24650Y-5690D01*
X24630Y-5670D01*
X24620Y-5650D01*
X24600Y-5630D01*
X24590Y-5600D01*
X24580Y-5580D01*
X24570Y-5550D01*
Y-5530D01*
X24560Y-5500D01*
Y-5480D01*
X24550Y-5450D01*
Y-5430D01*
Y-5400D01*
Y-2600D01*
Y-2570D01*
Y-2550D01*
X24560Y-2520D01*
Y-2500D01*
X24570Y-2470D01*
Y-2450D01*
X24580Y-2420D01*
X24590Y-2400D01*
X24600Y-2370D01*
X24620Y-2350D01*
X24630Y-2330D01*
X24650Y-2310D01*
X24660Y-2290D01*
X24680Y-2270D01*
X24700Y-2250D01*
X24720Y-2230D01*
X24740Y-2210D01*
X24760Y-2200D01*
X24780Y-2180D01*
X24800Y-2170D01*
X24820Y-2150D01*
X24850Y-2140D01*
X24870Y-2130D01*
X24900Y-2120D01*
X24920D01*
X24950Y-2110D01*
X24970D01*
X25000Y-2100D01*
X31500D01*
X31530Y-2110D01*
D02*
G37*
G36*
X64530Y-7110D02*
X64550D01*
X64580Y-7120D01*
X64600D01*
X64630Y-7130D01*
X64650Y-7140D01*
X64680Y-7150D01*
X64700Y-7170D01*
X64720Y-7180D01*
X64740Y-7200D01*
X64760Y-7210D01*
X64780Y-7230D01*
X64800Y-7250D01*
X64820Y-7270D01*
X64840Y-7290D01*
X64850Y-7310D01*
X64870Y-7330D01*
X64880Y-7350D01*
X64900Y-7370D01*
X64910Y-7400D01*
X64920Y-7420D01*
X64930Y-7450D01*
Y-7470D01*
X64940Y-7500D01*
Y-7520D01*
X64950Y-7550D01*
Y-7570D01*
Y-7600D01*
Y-10400D01*
Y-10430D01*
Y-10450D01*
X64940Y-10480D01*
Y-10500D01*
X64930Y-10530D01*
Y-10550D01*
X64920Y-10580D01*
X64910Y-10600D01*
X64900Y-10630D01*
X64880Y-10650D01*
X64870Y-10670D01*
X64850Y-10690D01*
X64840Y-10710D01*
X64820Y-10730D01*
X64800Y-10750D01*
X64780Y-10770D01*
X64760Y-10790D01*
X64740Y-10800D01*
X64720Y-10820D01*
X64700Y-10830D01*
X64680Y-10850D01*
X64650Y-10860D01*
X64630Y-10870D01*
X64600Y-10880D01*
X64580D01*
X64550Y-10890D01*
X64530D01*
X64500Y-10900D01*
X58000D01*
X57970Y-10890D01*
X57950D01*
X57920Y-10880D01*
X57900D01*
X57870Y-10870D01*
X57850Y-10860D01*
X57820Y-10850D01*
X57800Y-10830D01*
X57780Y-10820D01*
X57760Y-10800D01*
X57740Y-10790D01*
X57720Y-10770D01*
X57700Y-10750D01*
X57680Y-10730D01*
X57660Y-10710D01*
X57650Y-10690D01*
X57630Y-10670D01*
X57620Y-10650D01*
X57600Y-10630D01*
X57590Y-10600D01*
X57580Y-10580D01*
X57570Y-10550D01*
Y-10530D01*
X57560Y-10500D01*
Y-10480D01*
X57550Y-10450D01*
Y-10430D01*
Y-10400D01*
Y-7600D01*
Y-7570D01*
Y-7550D01*
X57560Y-7520D01*
Y-7500D01*
X57570Y-7470D01*
Y-7450D01*
X57580Y-7420D01*
X57590Y-7400D01*
X57600Y-7370D01*
X57620Y-7350D01*
X57630Y-7330D01*
X57650Y-7310D01*
X57660Y-7290D01*
X57680Y-7270D01*
X57700Y-7250D01*
X57720Y-7230D01*
X57740Y-7210D01*
X57760Y-7200D01*
X57780Y-7180D01*
X57800Y-7170D01*
X57820Y-7150D01*
X57850Y-7140D01*
X57870Y-7130D01*
X57900Y-7120D01*
X57920D01*
X57950Y-7110D01*
X57970D01*
X58000Y-7100D01*
X64500D01*
X64530Y-7110D01*
D02*
G37*
G36*
X31530D02*
X31550D01*
X31580Y-7120D01*
X31600D01*
X31630Y-7130D01*
X31650Y-7140D01*
X31680Y-7150D01*
X31700Y-7170D01*
X31720Y-7180D01*
X31740Y-7200D01*
X31760Y-7210D01*
X31780Y-7230D01*
X31800Y-7250D01*
X31820Y-7270D01*
X31840Y-7290D01*
X31850Y-7310D01*
X31870Y-7330D01*
X31880Y-7350D01*
X31900Y-7370D01*
X31910Y-7400D01*
X31920Y-7420D01*
X31930Y-7450D01*
Y-7470D01*
X31940Y-7500D01*
Y-7520D01*
X31950Y-7550D01*
Y-7570D01*
Y-7600D01*
Y-10400D01*
Y-10430D01*
Y-10450D01*
X31940Y-10480D01*
Y-10500D01*
X31930Y-10530D01*
Y-10550D01*
X31920Y-10580D01*
X31910Y-10600D01*
X31900Y-10630D01*
X31880Y-10650D01*
X31870Y-10670D01*
X31850Y-10690D01*
X31840Y-10710D01*
X31820Y-10730D01*
X31800Y-10750D01*
X31780Y-10770D01*
X31760Y-10790D01*
X31740Y-10800D01*
X31720Y-10820D01*
X31700Y-10830D01*
X31680Y-10850D01*
X31650Y-10860D01*
X31630Y-10870D01*
X31600Y-10880D01*
X31580D01*
X31550Y-10890D01*
X31530D01*
X31500Y-10900D01*
X25000D01*
X24970Y-10890D01*
X24950D01*
X24920Y-10880D01*
X24900D01*
X24870Y-10870D01*
X24850Y-10860D01*
X24820Y-10850D01*
X24800Y-10830D01*
X24780Y-10820D01*
X24760Y-10800D01*
X24740Y-10790D01*
X24720Y-10770D01*
X24700Y-10750D01*
X24680Y-10730D01*
X24660Y-10710D01*
X24650Y-10690D01*
X24630Y-10670D01*
X24620Y-10650D01*
X24600Y-10630D01*
X24590Y-10600D01*
X24580Y-10580D01*
X24570Y-10550D01*
Y-10530D01*
X24560Y-10500D01*
Y-10480D01*
X24550Y-10450D01*
Y-10430D01*
Y-10400D01*
Y-7600D01*
Y-7570D01*
Y-7550D01*
X24560Y-7520D01*
Y-7500D01*
X24570Y-7470D01*
Y-7450D01*
X24580Y-7420D01*
X24590Y-7400D01*
X24600Y-7370D01*
X24620Y-7350D01*
X24630Y-7330D01*
X24650Y-7310D01*
X24660Y-7290D01*
X24680Y-7270D01*
X24700Y-7250D01*
X24720Y-7230D01*
X24740Y-7210D01*
X24760Y-7200D01*
X24780Y-7180D01*
X24800Y-7170D01*
X24820Y-7150D01*
X24850Y-7140D01*
X24870Y-7130D01*
X24900Y-7120D01*
X24920D01*
X24950Y-7110D01*
X24970D01*
X25000Y-7100D01*
X31500D01*
X31530Y-7110D01*
D02*
G37*
G36*
X64530Y-12110D02*
X64550D01*
X64580Y-12120D01*
X64600D01*
X64630Y-12130D01*
X64650Y-12140D01*
X64680Y-12150D01*
X64700Y-12170D01*
X64720Y-12180D01*
X64740Y-12200D01*
X64760Y-12210D01*
X64780Y-12230D01*
X64800Y-12250D01*
X64820Y-12270D01*
X64840Y-12290D01*
X64850Y-12310D01*
X64870Y-12330D01*
X64880Y-12350D01*
X64900Y-12370D01*
X64910Y-12400D01*
X64920Y-12420D01*
X64930Y-12450D01*
Y-12470D01*
X64940Y-12500D01*
Y-12520D01*
X64950Y-12550D01*
Y-12570D01*
Y-12600D01*
Y-15400D01*
Y-15430D01*
Y-15450D01*
X64940Y-15480D01*
Y-15500D01*
X64930Y-15530D01*
Y-15550D01*
X64920Y-15580D01*
X64910Y-15600D01*
X64900Y-15630D01*
X64880Y-15650D01*
X64870Y-15670D01*
X64850Y-15690D01*
X64840Y-15710D01*
X64820Y-15730D01*
X64800Y-15750D01*
X64780Y-15770D01*
X64760Y-15790D01*
X64740Y-15800D01*
X64720Y-15820D01*
X64700Y-15830D01*
X64680Y-15850D01*
X64650Y-15860D01*
X64630Y-15870D01*
X64600Y-15880D01*
X64580D01*
X64550Y-15890D01*
X64530D01*
X64500Y-15900D01*
X58000D01*
X57970Y-15890D01*
X57950D01*
X57920Y-15880D01*
X57900D01*
X57870Y-15870D01*
X57850Y-15860D01*
X57820Y-15850D01*
X57800Y-15830D01*
X57780Y-15820D01*
X57760Y-15800D01*
X57740Y-15790D01*
X57720Y-15770D01*
X57700Y-15750D01*
X57680Y-15730D01*
X57660Y-15710D01*
X57650Y-15690D01*
X57630Y-15670D01*
X57620Y-15650D01*
X57600Y-15630D01*
X57590Y-15600D01*
X57580Y-15580D01*
X57570Y-15550D01*
Y-15530D01*
X57560Y-15500D01*
Y-15480D01*
X57550Y-15450D01*
Y-15430D01*
Y-15400D01*
Y-12600D01*
Y-12570D01*
Y-12550D01*
X57560Y-12520D01*
Y-12500D01*
X57570Y-12470D01*
Y-12450D01*
X57580Y-12420D01*
X57590Y-12400D01*
X57600Y-12370D01*
X57620Y-12350D01*
X57630Y-12330D01*
X57650Y-12310D01*
X57660Y-12290D01*
X57680Y-12270D01*
X57700Y-12250D01*
X57720Y-12230D01*
X57740Y-12210D01*
X57760Y-12200D01*
X57780Y-12180D01*
X57800Y-12170D01*
X57820Y-12150D01*
X57850Y-12140D01*
X57870Y-12130D01*
X57900Y-12120D01*
X57920D01*
X57950Y-12110D01*
X57970D01*
X58000Y-12100D01*
X64500D01*
X64530Y-12110D01*
D02*
G37*
G36*
X31530D02*
X31550D01*
X31580Y-12120D01*
X31600D01*
X31630Y-12130D01*
X31650Y-12140D01*
X31680Y-12150D01*
X31700Y-12170D01*
X31720Y-12180D01*
X31740Y-12200D01*
X31760Y-12210D01*
X31780Y-12230D01*
X31800Y-12250D01*
X31820Y-12270D01*
X31840Y-12290D01*
X31850Y-12310D01*
X31870Y-12330D01*
X31880Y-12350D01*
X31900Y-12370D01*
X31910Y-12400D01*
X31920Y-12420D01*
X31930Y-12450D01*
Y-12470D01*
X31940Y-12500D01*
Y-12520D01*
X31950Y-12550D01*
Y-12570D01*
Y-12600D01*
Y-15400D01*
Y-15430D01*
Y-15450D01*
X31940Y-15480D01*
Y-15500D01*
X31930Y-15530D01*
Y-15550D01*
X31920Y-15580D01*
X31910Y-15600D01*
X31900Y-15630D01*
X31880Y-15650D01*
X31870Y-15670D01*
X31850Y-15690D01*
X31840Y-15710D01*
X31820Y-15730D01*
X31800Y-15750D01*
X31780Y-15770D01*
X31760Y-15790D01*
X31740Y-15800D01*
X31720Y-15820D01*
X31700Y-15830D01*
X31680Y-15850D01*
X31650Y-15860D01*
X31630Y-15870D01*
X31600Y-15880D01*
X31580D01*
X31550Y-15890D01*
X31530D01*
X31500Y-15900D01*
X25000D01*
X24970Y-15890D01*
X24950D01*
X24920Y-15880D01*
X24900D01*
X24870Y-15870D01*
X24850Y-15860D01*
X24820Y-15850D01*
X24800Y-15830D01*
X24780Y-15820D01*
X24760Y-15800D01*
X24740Y-15790D01*
X24720Y-15770D01*
X24700Y-15750D01*
X24680Y-15730D01*
X24660Y-15710D01*
X24650Y-15690D01*
X24630Y-15670D01*
X24620Y-15650D01*
X24600Y-15630D01*
X24590Y-15600D01*
X24580Y-15580D01*
X24570Y-15550D01*
Y-15530D01*
X24560Y-15500D01*
Y-15480D01*
X24550Y-15450D01*
Y-15430D01*
Y-15400D01*
Y-12600D01*
Y-12570D01*
Y-12550D01*
X24560Y-12520D01*
Y-12500D01*
X24570Y-12470D01*
Y-12450D01*
X24580Y-12420D01*
X24590Y-12400D01*
X24600Y-12370D01*
X24620Y-12350D01*
X24630Y-12330D01*
X24650Y-12310D01*
X24660Y-12290D01*
X24680Y-12270D01*
X24700Y-12250D01*
X24720Y-12230D01*
X24740Y-12210D01*
X24760Y-12200D01*
X24780Y-12180D01*
X24800Y-12170D01*
X24820Y-12150D01*
X24850Y-12140D01*
X24870Y-12130D01*
X24900Y-12120D01*
X24920D01*
X24950Y-12110D01*
X24970D01*
X25000Y-12100D01*
X31500D01*
X31530Y-12110D01*
D02*
G37*
G36*
X64530Y-17110D02*
X64550D01*
X64580Y-17120D01*
X64600D01*
X64630Y-17130D01*
X64650Y-17140D01*
X64680Y-17150D01*
X64700Y-17170D01*
X64720Y-17180D01*
X64740Y-17200D01*
X64760Y-17210D01*
X64780Y-17230D01*
X64800Y-17250D01*
X64820Y-17270D01*
X64840Y-17290D01*
X64850Y-17310D01*
X64870Y-17330D01*
X64880Y-17350D01*
X64900Y-17370D01*
X64910Y-17400D01*
X64920Y-17420D01*
X64930Y-17450D01*
Y-17470D01*
X64940Y-17500D01*
Y-17520D01*
X64950Y-17550D01*
Y-17570D01*
Y-17600D01*
Y-20400D01*
Y-20430D01*
Y-20450D01*
X64940Y-20480D01*
Y-20500D01*
X64930Y-20530D01*
Y-20550D01*
X64920Y-20580D01*
X64910Y-20600D01*
X64900Y-20630D01*
X64880Y-20650D01*
X64870Y-20670D01*
X64850Y-20690D01*
X64840Y-20710D01*
X64820Y-20730D01*
X64800Y-20750D01*
X64780Y-20770D01*
X64760Y-20790D01*
X64740Y-20800D01*
X64720Y-20820D01*
X64700Y-20830D01*
X64680Y-20850D01*
X64650Y-20860D01*
X64630Y-20870D01*
X64600Y-20880D01*
X64580D01*
X64550Y-20890D01*
X64530D01*
X64500Y-20900D01*
X58000D01*
X57970Y-20890D01*
X57950D01*
X57920Y-20880D01*
X57900D01*
X57870Y-20870D01*
X57850Y-20860D01*
X57820Y-20850D01*
X57800Y-20830D01*
X57780Y-20820D01*
X57760Y-20800D01*
X57740Y-20790D01*
X57720Y-20770D01*
X57700Y-20750D01*
X57680Y-20730D01*
X57660Y-20710D01*
X57650Y-20690D01*
X57630Y-20670D01*
X57620Y-20650D01*
X57600Y-20630D01*
X57590Y-20600D01*
X57580Y-20580D01*
X57570Y-20550D01*
Y-20530D01*
X57560Y-20500D01*
Y-20480D01*
X57550Y-20450D01*
Y-20430D01*
Y-20400D01*
Y-17600D01*
Y-17570D01*
Y-17550D01*
X57560Y-17520D01*
Y-17500D01*
X57570Y-17470D01*
Y-17450D01*
X57580Y-17420D01*
X57590Y-17400D01*
X57600Y-17370D01*
X57620Y-17350D01*
X57630Y-17330D01*
X57650Y-17310D01*
X57660Y-17290D01*
X57680Y-17270D01*
X57700Y-17250D01*
X57720Y-17230D01*
X57740Y-17210D01*
X57760Y-17200D01*
X57780Y-17180D01*
X57800Y-17170D01*
X57820Y-17150D01*
X57850Y-17140D01*
X57870Y-17130D01*
X57900Y-17120D01*
X57920D01*
X57950Y-17110D01*
X57970D01*
X58000Y-17100D01*
X64500D01*
X64530Y-17110D01*
D02*
G37*
G36*
X31530D02*
X31550D01*
X31580Y-17120D01*
X31600D01*
X31630Y-17130D01*
X31650Y-17140D01*
X31680Y-17150D01*
X31700Y-17170D01*
X31720Y-17180D01*
X31740Y-17200D01*
X31760Y-17210D01*
X31780Y-17230D01*
X31800Y-17250D01*
X31820Y-17270D01*
X31840Y-17290D01*
X31850Y-17310D01*
X31870Y-17330D01*
X31880Y-17350D01*
X31900Y-17370D01*
X31910Y-17400D01*
X31920Y-17420D01*
X31930Y-17450D01*
Y-17470D01*
X31940Y-17500D01*
Y-17520D01*
X31950Y-17550D01*
Y-17570D01*
Y-17600D01*
Y-20400D01*
Y-20430D01*
Y-20450D01*
X31940Y-20480D01*
Y-20500D01*
X31930Y-20530D01*
Y-20550D01*
X31920Y-20580D01*
X31910Y-20600D01*
X31900Y-20630D01*
X31880Y-20650D01*
X31870Y-20670D01*
X31850Y-20690D01*
X31840Y-20710D01*
X31820Y-20730D01*
X31800Y-20750D01*
X31780Y-20770D01*
X31760Y-20790D01*
X31740Y-20800D01*
X31720Y-20820D01*
X31700Y-20830D01*
X31680Y-20850D01*
X31650Y-20860D01*
X31630Y-20870D01*
X31600Y-20880D01*
X31580D01*
X31550Y-20890D01*
X31530D01*
X31500Y-20900D01*
X25000D01*
X24970Y-20890D01*
X24950D01*
X24920Y-20880D01*
X24900D01*
X24870Y-20870D01*
X24850Y-20860D01*
X24820Y-20850D01*
X24800Y-20830D01*
X24780Y-20820D01*
X24760Y-20800D01*
X24740Y-20790D01*
X24720Y-20770D01*
X24700Y-20750D01*
X24680Y-20730D01*
X24660Y-20710D01*
X24650Y-20690D01*
X24630Y-20670D01*
X24620Y-20650D01*
X24600Y-20630D01*
X24590Y-20600D01*
X24580Y-20580D01*
X24570Y-20550D01*
Y-20530D01*
X24560Y-20500D01*
Y-20480D01*
X24550Y-20450D01*
Y-20430D01*
Y-20400D01*
Y-17600D01*
Y-17570D01*
Y-17550D01*
X24560Y-17520D01*
Y-17500D01*
X24570Y-17470D01*
Y-17450D01*
X24580Y-17420D01*
X24590Y-17400D01*
X24600Y-17370D01*
X24620Y-17350D01*
X24630Y-17330D01*
X24650Y-17310D01*
X24660Y-17290D01*
X24680Y-17270D01*
X24700Y-17250D01*
X24720Y-17230D01*
X24740Y-17210D01*
X24760Y-17200D01*
X24780Y-17180D01*
X24800Y-17170D01*
X24820Y-17150D01*
X24850Y-17140D01*
X24870Y-17130D01*
X24900Y-17120D01*
X24920D01*
X24950Y-17110D01*
X24970D01*
X25000Y-17100D01*
X31500D01*
X31530Y-17110D01*
D02*
G37*
G36*
X64530Y-22110D02*
X64550D01*
X64580Y-22120D01*
X64600D01*
X64630Y-22130D01*
X64650Y-22140D01*
X64680Y-22150D01*
X64700Y-22170D01*
X64720Y-22180D01*
X64740Y-22200D01*
X64760Y-22210D01*
X64780Y-22230D01*
X64800Y-22250D01*
X64820Y-22270D01*
X64840Y-22290D01*
X64850Y-22310D01*
X64870Y-22330D01*
X64880Y-22350D01*
X64900Y-22370D01*
X64910Y-22400D01*
X64920Y-22420D01*
X64930Y-22450D01*
Y-22470D01*
X64940Y-22500D01*
Y-22520D01*
X64950Y-22550D01*
Y-22570D01*
Y-22600D01*
Y-25400D01*
Y-25430D01*
Y-25450D01*
X64940Y-25480D01*
Y-25500D01*
X64930Y-25530D01*
Y-25550D01*
X64920Y-25580D01*
X64910Y-25600D01*
X64900Y-25630D01*
X64880Y-25650D01*
X64870Y-25670D01*
X64850Y-25690D01*
X64840Y-25710D01*
X64820Y-25730D01*
X64800Y-25750D01*
X64780Y-25770D01*
X64760Y-25790D01*
X64740Y-25800D01*
X64720Y-25820D01*
X64700Y-25830D01*
X64680Y-25850D01*
X64650Y-25860D01*
X64630Y-25870D01*
X64600Y-25880D01*
X64580D01*
X64550Y-25890D01*
X64530D01*
X64500Y-25900D01*
X58000D01*
X57970Y-25890D01*
X57950D01*
X57920Y-25880D01*
X57900D01*
X57870Y-25870D01*
X57850Y-25860D01*
X57820Y-25850D01*
X57800Y-25830D01*
X57780Y-25820D01*
X57760Y-25800D01*
X57740Y-25790D01*
X57720Y-25770D01*
X57700Y-25750D01*
X57680Y-25730D01*
X57660Y-25710D01*
X57650Y-25690D01*
X57630Y-25670D01*
X57620Y-25650D01*
X57600Y-25630D01*
X57590Y-25600D01*
X57580Y-25580D01*
X57570Y-25550D01*
Y-25530D01*
X57560Y-25500D01*
Y-25480D01*
X57550Y-25450D01*
Y-25430D01*
Y-25400D01*
Y-22600D01*
Y-22570D01*
Y-22550D01*
X57560Y-22520D01*
Y-22500D01*
X57570Y-22470D01*
Y-22450D01*
X57580Y-22420D01*
X57590Y-22400D01*
X57600Y-22370D01*
X57620Y-22350D01*
X57630Y-22330D01*
X57650Y-22310D01*
X57660Y-22290D01*
X57680Y-22270D01*
X57700Y-22250D01*
X57720Y-22230D01*
X57740Y-22210D01*
X57760Y-22200D01*
X57780Y-22180D01*
X57800Y-22170D01*
X57820Y-22150D01*
X57850Y-22140D01*
X57870Y-22130D01*
X57900Y-22120D01*
X57920D01*
X57950Y-22110D01*
X57970D01*
X58000Y-22100D01*
X64500D01*
X64530Y-22110D01*
D02*
G37*
G36*
X31530D02*
X31550D01*
X31580Y-22120D01*
X31600D01*
X31630Y-22130D01*
X31650Y-22140D01*
X31680Y-22150D01*
X31700Y-22170D01*
X31720Y-22180D01*
X31740Y-22200D01*
X31760Y-22210D01*
X31780Y-22230D01*
X31800Y-22250D01*
X31820Y-22270D01*
X31840Y-22290D01*
X31850Y-22310D01*
X31870Y-22330D01*
X31880Y-22350D01*
X31900Y-22370D01*
X31910Y-22400D01*
X31920Y-22420D01*
X31930Y-22450D01*
Y-22470D01*
X31940Y-22500D01*
Y-22520D01*
X31950Y-22550D01*
Y-22570D01*
Y-22600D01*
Y-25400D01*
Y-25430D01*
Y-25450D01*
X31940Y-25480D01*
Y-25500D01*
X31930Y-25530D01*
Y-25550D01*
X31920Y-25580D01*
X31910Y-25600D01*
X31900Y-25630D01*
X31880Y-25650D01*
X31870Y-25670D01*
X31850Y-25690D01*
X31840Y-25710D01*
X31820Y-25730D01*
X31800Y-25750D01*
X31780Y-25770D01*
X31760Y-25790D01*
X31740Y-25800D01*
X31720Y-25820D01*
X31700Y-25830D01*
X31680Y-25850D01*
X31650Y-25860D01*
X31630Y-25870D01*
X31600Y-25880D01*
X31580D01*
X31550Y-25890D01*
X31530D01*
X31500Y-25900D01*
X25000D01*
X24970Y-25890D01*
X24950D01*
X24920Y-25880D01*
X24900D01*
X24870Y-25870D01*
X24850Y-25860D01*
X24820Y-25850D01*
X24800Y-25830D01*
X24780Y-25820D01*
X24760Y-25800D01*
X24740Y-25790D01*
X24720Y-25770D01*
X24700Y-25750D01*
X24680Y-25730D01*
X24660Y-25710D01*
X24650Y-25690D01*
X24630Y-25670D01*
X24620Y-25650D01*
X24600Y-25630D01*
X24590Y-25600D01*
X24580Y-25580D01*
X24570Y-25550D01*
Y-25530D01*
X24560Y-25500D01*
Y-25480D01*
X24550Y-25450D01*
Y-25430D01*
Y-25400D01*
Y-22600D01*
Y-22570D01*
Y-22550D01*
X24560Y-22520D01*
Y-22500D01*
X24570Y-22470D01*
Y-22450D01*
X24580Y-22420D01*
X24590Y-22400D01*
X24600Y-22370D01*
X24620Y-22350D01*
X24630Y-22330D01*
X24650Y-22310D01*
X24660Y-22290D01*
X24680Y-22270D01*
X24700Y-22250D01*
X24720Y-22230D01*
X24740Y-22210D01*
X24760Y-22200D01*
X24780Y-22180D01*
X24800Y-22170D01*
X24820Y-22150D01*
X24850Y-22140D01*
X24870Y-22130D01*
X24900Y-22120D01*
X24920D01*
X24950Y-22110D01*
X24970D01*
X25000Y-22100D01*
X31500D01*
X31530Y-22110D01*
D02*
G37*
G36*
X64530Y-27110D02*
X64550D01*
X64580Y-27120D01*
X64600D01*
X64630Y-27130D01*
X64650Y-27140D01*
X64680Y-27150D01*
X64700Y-27170D01*
X64720Y-27180D01*
X64740Y-27200D01*
X64760Y-27210D01*
X64780Y-27230D01*
X64800Y-27250D01*
X64820Y-27270D01*
X64840Y-27290D01*
X64850Y-27310D01*
X64870Y-27330D01*
X64880Y-27350D01*
X64900Y-27370D01*
X64910Y-27400D01*
X64920Y-27420D01*
X64930Y-27450D01*
Y-27470D01*
X64940Y-27500D01*
Y-27520D01*
X64950Y-27550D01*
Y-27570D01*
Y-27600D01*
Y-30400D01*
Y-30430D01*
Y-30450D01*
X64940Y-30480D01*
Y-30500D01*
X64930Y-30530D01*
Y-30550D01*
X64920Y-30580D01*
X64910Y-30600D01*
X64900Y-30630D01*
X64880Y-30650D01*
X64870Y-30670D01*
X64850Y-30690D01*
X64840Y-30710D01*
X64820Y-30730D01*
X64800Y-30750D01*
X64780Y-30770D01*
X64760Y-30790D01*
X64740Y-30800D01*
X64720Y-30820D01*
X64700Y-30830D01*
X64680Y-30850D01*
X64650Y-30860D01*
X64630Y-30870D01*
X64600Y-30880D01*
X64580D01*
X64550Y-30890D01*
X64530D01*
X64500Y-30900D01*
X58000D01*
X57970Y-30890D01*
X57950D01*
X57920Y-30880D01*
X57900D01*
X57870Y-30870D01*
X57850Y-30860D01*
X57820Y-30850D01*
X57800Y-30830D01*
X57780Y-30820D01*
X57760Y-30800D01*
X57740Y-30790D01*
X57720Y-30770D01*
X57700Y-30750D01*
X57680Y-30730D01*
X57660Y-30710D01*
X57650Y-30690D01*
X57630Y-30670D01*
X57620Y-30650D01*
X57600Y-30630D01*
X57590Y-30600D01*
X57580Y-30580D01*
X57570Y-30550D01*
Y-30530D01*
X57560Y-30500D01*
Y-30480D01*
X57550Y-30450D01*
Y-30430D01*
Y-30400D01*
Y-27600D01*
Y-27570D01*
Y-27550D01*
X57560Y-27520D01*
Y-27500D01*
X57570Y-27470D01*
Y-27450D01*
X57580Y-27420D01*
X57590Y-27400D01*
X57600Y-27370D01*
X57620Y-27350D01*
X57630Y-27330D01*
X57650Y-27310D01*
X57660Y-27290D01*
X57680Y-27270D01*
X57700Y-27250D01*
X57720Y-27230D01*
X57740Y-27210D01*
X57760Y-27200D01*
X57780Y-27180D01*
X57800Y-27170D01*
X57820Y-27150D01*
X57850Y-27140D01*
X57870Y-27130D01*
X57900Y-27120D01*
X57920D01*
X57950Y-27110D01*
X57970D01*
X58000Y-27100D01*
X64500D01*
X64530Y-27110D01*
D02*
G37*
G36*
X31530D02*
X31550D01*
X31580Y-27120D01*
X31600D01*
X31630Y-27130D01*
X31650Y-27140D01*
X31680Y-27150D01*
X31700Y-27170D01*
X31720Y-27180D01*
X31740Y-27200D01*
X31760Y-27210D01*
X31780Y-27230D01*
X31800Y-27250D01*
X31820Y-27270D01*
X31840Y-27290D01*
X31850Y-27310D01*
X31870Y-27330D01*
X31880Y-27350D01*
X31900Y-27370D01*
X31910Y-27400D01*
X31920Y-27420D01*
X31930Y-27450D01*
Y-27470D01*
X31940Y-27500D01*
Y-27520D01*
X31950Y-27550D01*
Y-27570D01*
Y-27600D01*
Y-30400D01*
Y-30430D01*
Y-30450D01*
X31940Y-30480D01*
Y-30500D01*
X31930Y-30530D01*
Y-30550D01*
X31920Y-30580D01*
X31910Y-30600D01*
X31900Y-30630D01*
X31880Y-30650D01*
X31870Y-30670D01*
X31850Y-30690D01*
X31840Y-30710D01*
X31820Y-30730D01*
X31800Y-30750D01*
X31780Y-30770D01*
X31760Y-30790D01*
X31740Y-30800D01*
X31720Y-30820D01*
X31700Y-30830D01*
X31680Y-30850D01*
X31650Y-30860D01*
X31630Y-30870D01*
X31600Y-30880D01*
X31580D01*
X31550Y-30890D01*
X31530D01*
X31500Y-30900D01*
X25000D01*
X24970Y-30890D01*
X24950D01*
X24920Y-30880D01*
X24900D01*
X24870Y-30870D01*
X24850Y-30860D01*
X24820Y-30850D01*
X24800Y-30830D01*
X24780Y-30820D01*
X24760Y-30800D01*
X24740Y-30790D01*
X24720Y-30770D01*
X24700Y-30750D01*
X24680Y-30730D01*
X24660Y-30710D01*
X24650Y-30690D01*
X24630Y-30670D01*
X24620Y-30650D01*
X24600Y-30630D01*
X24590Y-30600D01*
X24580Y-30580D01*
X24570Y-30550D01*
Y-30530D01*
X24560Y-30500D01*
Y-30480D01*
X24550Y-30450D01*
Y-30430D01*
Y-30400D01*
Y-27600D01*
Y-27570D01*
Y-27550D01*
X24560Y-27520D01*
Y-27500D01*
X24570Y-27470D01*
Y-27450D01*
X24580Y-27420D01*
X24590Y-27400D01*
X24600Y-27370D01*
X24620Y-27350D01*
X24630Y-27330D01*
X24650Y-27310D01*
X24660Y-27290D01*
X24680Y-27270D01*
X24700Y-27250D01*
X24720Y-27230D01*
X24740Y-27210D01*
X24760Y-27200D01*
X24780Y-27180D01*
X24800Y-27170D01*
X24820Y-27150D01*
X24850Y-27140D01*
X24870Y-27130D01*
X24900Y-27120D01*
X24920D01*
X24950Y-27110D01*
X24970D01*
X25000Y-27100D01*
X31500D01*
X31530Y-27110D01*
D02*
G37*
G36*
X55280Y-560D02*
X55300D01*
X55330Y-570D01*
X55350D01*
X55380Y-580D01*
X55400Y-590D01*
X55430Y-600D01*
X55450Y-620D01*
X55470Y-630D01*
X55490Y-650D01*
X55510Y-660D01*
X55530Y-680D01*
X55550Y-700D01*
X55570Y-720D01*
X55590Y-740D01*
X55600Y-760D01*
X55620Y-780D01*
X55630Y-800D01*
X55650Y-820D01*
X55660Y-850D01*
X55670Y-870D01*
X55680Y-900D01*
Y-920D01*
X55690Y-950D01*
Y-970D01*
X55700Y-1000D01*
Y-1020D01*
Y-1050D01*
Y-31950D01*
Y-31980D01*
Y-32000D01*
X55690Y-32030D01*
Y-32050D01*
X55680Y-32080D01*
Y-32100D01*
X55670Y-32130D01*
X55660Y-32150D01*
X55650Y-32180D01*
X55630Y-32200D01*
X55620Y-32220D01*
X55600Y-32240D01*
X55590Y-32260D01*
X55570Y-32280D01*
X55550Y-32300D01*
X55530Y-32320D01*
X55510Y-32340D01*
X55490Y-32350D01*
X55470Y-32370D01*
X55450Y-32380D01*
X55430Y-32400D01*
X55400Y-32410D01*
X55380Y-32420D01*
X55350Y-32430D01*
X55330D01*
X55300Y-32440D01*
X55280D01*
X55250Y-32450D01*
X34250D01*
X34220Y-32440D01*
X34200D01*
X34170Y-32430D01*
X34150D01*
X34120Y-32420D01*
X34100Y-32410D01*
X34070Y-32400D01*
X34050Y-32380D01*
X34030Y-32370D01*
X34010Y-32350D01*
X33990Y-32340D01*
X33970Y-32320D01*
X33950Y-32300D01*
X33930Y-32280D01*
X33910Y-32260D01*
X33900Y-32240D01*
X33880Y-32220D01*
X33870Y-32200D01*
X33850Y-32180D01*
X33840Y-32150D01*
X33830Y-32130D01*
X33820Y-32100D01*
Y-32080D01*
X33810Y-32050D01*
Y-32030D01*
X33800Y-32000D01*
Y-31980D01*
Y-31950D01*
Y-1050D01*
Y-1020D01*
Y-1000D01*
X33810Y-970D01*
Y-950D01*
X33820Y-920D01*
Y-900D01*
X33830Y-870D01*
X33840Y-850D01*
X33850Y-820D01*
X33870Y-800D01*
X33880Y-780D01*
X33900Y-760D01*
X33910Y-740D01*
X33930Y-720D01*
X33950Y-700D01*
X33970Y-680D01*
X33990Y-660D01*
X34010Y-650D01*
X34030Y-630D01*
X34050Y-620D01*
X34070Y-600D01*
X34100Y-590D01*
X34120Y-580D01*
X34150Y-570D01*
X34170D01*
X34200Y-560D01*
X34220D01*
X34250Y-550D01*
X55250D01*
X55280Y-560D01*
D02*
G37*
G36*
X64530Y-32110D02*
X64550D01*
X64580Y-32120D01*
X64600D01*
X64630Y-32130D01*
X64650Y-32140D01*
X64680Y-32150D01*
X64700Y-32170D01*
X64720Y-32180D01*
X64740Y-32200D01*
X64760Y-32210D01*
X64780Y-32230D01*
X64800Y-32250D01*
X64820Y-32270D01*
X64840Y-32290D01*
X64850Y-32310D01*
X64870Y-32330D01*
X64880Y-32350D01*
X64900Y-32370D01*
X64910Y-32400D01*
X64920Y-32420D01*
X64930Y-32450D01*
Y-32470D01*
X64940Y-32500D01*
Y-32520D01*
X64950Y-32550D01*
Y-32570D01*
Y-32600D01*
Y-35400D01*
Y-35430D01*
Y-35450D01*
X64940Y-35480D01*
Y-35500D01*
X64930Y-35530D01*
Y-35550D01*
X64920Y-35580D01*
X64910Y-35600D01*
X64900Y-35630D01*
X64880Y-35650D01*
X64870Y-35670D01*
X64850Y-35690D01*
X64840Y-35710D01*
X64820Y-35730D01*
X64800Y-35750D01*
X64780Y-35770D01*
X64760Y-35790D01*
X64740Y-35800D01*
X64720Y-35820D01*
X64700Y-35830D01*
X64680Y-35850D01*
X64650Y-35860D01*
X64630Y-35870D01*
X64600Y-35880D01*
X64580D01*
X64550Y-35890D01*
X64530D01*
X64500Y-35900D01*
X58000D01*
X57970Y-35890D01*
X57950D01*
X57920Y-35880D01*
X57900D01*
X57870Y-35870D01*
X57850Y-35860D01*
X57820Y-35850D01*
X57800Y-35830D01*
X57780Y-35820D01*
X57760Y-35800D01*
X57740Y-35790D01*
X57720Y-35770D01*
X57700Y-35750D01*
X57680Y-35730D01*
X57660Y-35710D01*
X57650Y-35690D01*
X57630Y-35670D01*
X57620Y-35650D01*
X57600Y-35630D01*
X57590Y-35600D01*
X57580Y-35580D01*
X57570Y-35550D01*
Y-35530D01*
X57560Y-35500D01*
Y-35480D01*
X57550Y-35450D01*
Y-35430D01*
Y-35400D01*
Y-32600D01*
Y-32570D01*
Y-32550D01*
X57560Y-32520D01*
Y-32500D01*
X57570Y-32470D01*
Y-32450D01*
X57580Y-32420D01*
X57590Y-32400D01*
X57600Y-32370D01*
X57620Y-32350D01*
X57630Y-32330D01*
X57650Y-32310D01*
X57660Y-32290D01*
X57680Y-32270D01*
X57700Y-32250D01*
X57720Y-32230D01*
X57740Y-32210D01*
X57760Y-32200D01*
X57780Y-32180D01*
X57800Y-32170D01*
X57820Y-32150D01*
X57850Y-32140D01*
X57870Y-32130D01*
X57900Y-32120D01*
X57920D01*
X57950Y-32110D01*
X57970D01*
X58000Y-32100D01*
X64500D01*
X64530Y-32110D01*
D02*
G37*
G36*
X31530D02*
X31550D01*
X31580Y-32120D01*
X31600D01*
X31630Y-32130D01*
X31650Y-32140D01*
X31680Y-32150D01*
X31700Y-32170D01*
X31720Y-32180D01*
X31740Y-32200D01*
X31760Y-32210D01*
X31780Y-32230D01*
X31800Y-32250D01*
X31820Y-32270D01*
X31840Y-32290D01*
X31850Y-32310D01*
X31870Y-32330D01*
X31880Y-32350D01*
X31900Y-32370D01*
X31910Y-32400D01*
X31920Y-32420D01*
X31930Y-32450D01*
Y-32470D01*
X31940Y-32500D01*
Y-32520D01*
X31950Y-32550D01*
Y-32570D01*
Y-32600D01*
Y-35400D01*
Y-35430D01*
Y-35450D01*
X31940Y-35480D01*
Y-35500D01*
X31930Y-35530D01*
Y-35550D01*
X31920Y-35580D01*
X31910Y-35600D01*
X31900Y-35630D01*
X31880Y-35650D01*
X31870Y-35670D01*
X31850Y-35690D01*
X31840Y-35710D01*
X31820Y-35730D01*
X31800Y-35750D01*
X31780Y-35770D01*
X31760Y-35790D01*
X31740Y-35800D01*
X31720Y-35820D01*
X31700Y-35830D01*
X31680Y-35850D01*
X31650Y-35860D01*
X31630Y-35870D01*
X31600Y-35880D01*
X31580D01*
X31550Y-35890D01*
X31530D01*
X31500Y-35900D01*
X25000D01*
X24970Y-35890D01*
X24950D01*
X24920Y-35880D01*
X24900D01*
X24870Y-35870D01*
X24850Y-35860D01*
X24820Y-35850D01*
X24800Y-35830D01*
X24780Y-35820D01*
X24760Y-35800D01*
X24740Y-35790D01*
X24720Y-35770D01*
X24700Y-35750D01*
X24680Y-35730D01*
X24660Y-35710D01*
X24650Y-35690D01*
X24630Y-35670D01*
X24620Y-35650D01*
X24600Y-35630D01*
X24590Y-35600D01*
X24580Y-35580D01*
X24570Y-35550D01*
Y-35530D01*
X24560Y-35500D01*
Y-35480D01*
X24550Y-35450D01*
Y-35430D01*
Y-35400D01*
Y-32600D01*
Y-32570D01*
Y-32550D01*
X24560Y-32520D01*
Y-32500D01*
X24570Y-32470D01*
Y-32450D01*
X24580Y-32420D01*
X24590Y-32400D01*
X24600Y-32370D01*
X24620Y-32350D01*
X24630Y-32330D01*
X24650Y-32310D01*
X24660Y-32290D01*
X24680Y-32270D01*
X24700Y-32250D01*
X24720Y-32230D01*
X24740Y-32210D01*
X24760Y-32200D01*
X24780Y-32180D01*
X24800Y-32170D01*
X24820Y-32150D01*
X24850Y-32140D01*
X24870Y-32130D01*
X24900Y-32120D01*
X24920D01*
X24950Y-32110D01*
X24970D01*
X25000Y-32100D01*
X31500D01*
X31530Y-32110D01*
D02*
G37*
G36*
X53730Y-34310D02*
X53750D01*
X53780Y-34320D01*
X53800D01*
X53830Y-34330D01*
X53850Y-34340D01*
X53880Y-34350D01*
X53900Y-34370D01*
X53920Y-34380D01*
X53940Y-34400D01*
X53960Y-34410D01*
X53980Y-34430D01*
X54000Y-34450D01*
X54020Y-34470D01*
X54040Y-34490D01*
X54050Y-34510D01*
X54070Y-34530D01*
X54080Y-34550D01*
X54100Y-34570D01*
X54110Y-34600D01*
X54120Y-34620D01*
X54130Y-34650D01*
Y-34670D01*
X54140Y-34700D01*
Y-34720D01*
X54150Y-34750D01*
Y-34770D01*
Y-34800D01*
Y-41200D01*
Y-41230D01*
Y-41250D01*
X54140Y-41280D01*
Y-41300D01*
X54130Y-41330D01*
Y-41350D01*
X54120Y-41380D01*
X54110Y-41400D01*
X54100Y-41430D01*
X54080Y-41450D01*
X54070Y-41470D01*
X54050Y-41490D01*
X54040Y-41510D01*
X54020Y-41530D01*
X54000Y-41550D01*
X53980Y-41570D01*
X53960Y-41590D01*
X53940Y-41600D01*
X53920Y-41620D01*
X53900Y-41630D01*
X53880Y-41650D01*
X53850Y-41660D01*
X53830Y-41670D01*
X53800Y-41680D01*
X53780D01*
X53750Y-41690D01*
X53730D01*
X53700Y-41700D01*
X50800D01*
X50770Y-41690D01*
X50750D01*
X50720Y-41680D01*
X50700D01*
X50670Y-41670D01*
X50650Y-41660D01*
X50620Y-41650D01*
X50600Y-41630D01*
X50580Y-41620D01*
X50560Y-41600D01*
X50540Y-41590D01*
X50520Y-41570D01*
X50500Y-41550D01*
X50480Y-41530D01*
X50460Y-41510D01*
X50450Y-41490D01*
X50430Y-41470D01*
X50420Y-41450D01*
X50400Y-41430D01*
X50390Y-41400D01*
X50380Y-41380D01*
X50370Y-41350D01*
Y-41330D01*
X50360Y-41300D01*
Y-41280D01*
X50350Y-41250D01*
Y-41230D01*
Y-41200D01*
Y-34800D01*
Y-34770D01*
Y-34750D01*
X50360Y-34720D01*
Y-34700D01*
X50370Y-34670D01*
Y-34650D01*
X50380Y-34620D01*
X50390Y-34600D01*
X50400Y-34570D01*
X50420Y-34550D01*
X50430Y-34530D01*
X50450Y-34510D01*
X50460Y-34490D01*
X50480Y-34470D01*
X50500Y-34450D01*
X50520Y-34430D01*
X50540Y-34410D01*
X50560Y-34400D01*
X50580Y-34380D01*
X50600Y-34370D01*
X50620Y-34350D01*
X50650Y-34340D01*
X50670Y-34330D01*
X50700Y-34320D01*
X50720D01*
X50750Y-34310D01*
X50770D01*
X50800Y-34300D01*
X53700D01*
X53730Y-34310D01*
D02*
G37*
G36*
X38730D02*
X38750D01*
X38780Y-34320D01*
X38800D01*
X38830Y-34330D01*
X38850Y-34340D01*
X38880Y-34350D01*
X38900Y-34370D01*
X38920Y-34380D01*
X38940Y-34400D01*
X38960Y-34410D01*
X38980Y-34430D01*
X39000Y-34450D01*
X39020Y-34470D01*
X39040Y-34490D01*
X39050Y-34510D01*
X39070Y-34530D01*
X39080Y-34550D01*
X39100Y-34570D01*
X39110Y-34600D01*
X39120Y-34620D01*
X39130Y-34650D01*
Y-34670D01*
X39140Y-34700D01*
Y-34720D01*
X39150Y-34750D01*
Y-34770D01*
Y-34800D01*
Y-41200D01*
Y-41230D01*
Y-41250D01*
X39140Y-41280D01*
Y-41300D01*
X39130Y-41330D01*
Y-41350D01*
X39120Y-41380D01*
X39110Y-41400D01*
X39100Y-41430D01*
X39080Y-41450D01*
X39070Y-41470D01*
X39050Y-41490D01*
X39040Y-41510D01*
X39020Y-41530D01*
X39000Y-41550D01*
X38980Y-41570D01*
X38960Y-41590D01*
X38940Y-41600D01*
X38920Y-41620D01*
X38900Y-41630D01*
X38880Y-41650D01*
X38850Y-41660D01*
X38830Y-41670D01*
X38800Y-41680D01*
X38780D01*
X38750Y-41690D01*
X38730D01*
X38700Y-41700D01*
X35800D01*
X35770Y-41690D01*
X35750D01*
X35720Y-41680D01*
X35700D01*
X35670Y-41670D01*
X35650Y-41660D01*
X35620Y-41650D01*
X35600Y-41630D01*
X35580Y-41620D01*
X35560Y-41600D01*
X35540Y-41590D01*
X35520Y-41570D01*
X35500Y-41550D01*
X35480Y-41530D01*
X35460Y-41510D01*
X35450Y-41490D01*
X35430Y-41470D01*
X35420Y-41450D01*
X35400Y-41430D01*
X35390Y-41400D01*
X35380Y-41380D01*
X35370Y-41350D01*
Y-41330D01*
X35360Y-41300D01*
Y-41280D01*
X35350Y-41250D01*
Y-41230D01*
Y-41200D01*
Y-34800D01*
Y-34770D01*
Y-34750D01*
X35360Y-34720D01*
Y-34700D01*
X35370Y-34670D01*
Y-34650D01*
X35380Y-34620D01*
X35390Y-34600D01*
X35400Y-34570D01*
X35420Y-34550D01*
X35430Y-34530D01*
X35450Y-34510D01*
X35460Y-34490D01*
X35480Y-34470D01*
X35500Y-34450D01*
X35520Y-34430D01*
X35540Y-34410D01*
X35560Y-34400D01*
X35580Y-34380D01*
X35600Y-34370D01*
X35620Y-34350D01*
X35650Y-34340D01*
X35670Y-34330D01*
X35700Y-34320D01*
X35720D01*
X35750Y-34310D01*
X35770D01*
X35800Y-34300D01*
X38700D01*
X38730Y-34310D01*
D02*
G37*
D73*
X-254500Y162000D02*
D03*
X-270500D02*
D03*
X-333500Y122250D02*
D03*
X-349500D02*
D03*
X-302250Y139000D02*
D03*
X-318250D02*
D03*
X-224250Y122000D02*
D03*
X-208250D02*
D03*
X87250Y-7500D02*
D03*
X103250D02*
D03*
X87250Y21750D02*
D03*
X103250D02*
D03*
X87250Y-21250D02*
D03*
X103250D02*
D03*
D74*
X-240000Y146500D02*
D03*
Y138500D02*
D03*
Y130500D02*
D03*
Y122500D02*
D03*
Y114500D02*
D03*
X-280000D02*
D03*
Y122500D02*
D03*
Y130500D02*
D03*
Y138500D02*
D03*
Y146500D02*
D03*
D75*
X-260000Y130500D02*
D03*
D76*
X-301750Y122500D02*
D03*
X-317250D02*
D03*
X-240000Y101250D02*
D03*
X-224500D02*
D03*
X103750Y-50000D02*
D03*
X88250D02*
D03*
X87750Y6750D02*
D03*
X103250D02*
D03*
X102500Y38000D02*
D03*
X87000D02*
D03*
X88000Y-35750D02*
D03*
X103500D02*
D03*
D77*
X-322250Y84750D02*
D03*
Y104750D02*
D03*
X38750Y-55250D02*
D03*
Y-75250D02*
D03*
X140500Y-86000D02*
D03*
Y-66000D02*
D03*
X119500Y-86250D02*
D03*
Y-66250D02*
D03*
D78*
X-302750Y89250D02*
D03*
Y104750D02*
D03*
X-113250Y-93750D02*
D03*
Y-78250D02*
D03*
X136250Y-25500D02*
D03*
Y-41000D02*
D03*
D79*
X-370750Y268750D02*
D03*
Y238750D02*
D03*
X-343500Y268750D02*
D03*
Y238750D02*
D03*
X-187250Y154750D02*
D03*
Y124750D02*
D03*
X191500Y-86000D02*
D03*
Y-56000D02*
D03*
X165500Y-86500D02*
D03*
Y-56500D02*
D03*
D80*
X-254500Y204500D02*
D03*
D81*
X-211500Y194000D02*
D03*
Y215000D02*
D03*
D82*
X21750Y156250D02*
D03*
X127750D02*
D03*
D83*
X-60500Y104250D02*
D03*
X-90500D02*
D03*
X-60750Y130500D02*
D03*
X-90750D02*
D03*
X-60000Y157000D02*
D03*
X-90000D02*
D03*
X-60000Y184000D02*
D03*
X-90000D02*
D03*
D84*
X5750Y26500D02*
D03*
Y42500D02*
D03*
X6000Y12000D02*
D03*
Y-4000D02*
D03*
X20250Y-53250D02*
D03*
Y-69250D02*
D03*
X57250Y-54000D02*
D03*
Y-70000D02*
D03*
X72250Y-54000D02*
D03*
Y-70000D02*
D03*
X136000Y6000D02*
D03*
Y-10000D02*
D03*
D85*
X-20250Y-7350D02*
D03*
Y49850D02*
D03*
X-91000Y-32900D02*
D03*
Y-90100D02*
D03*
D86*
X-85250Y21250D02*
D03*
X-26000Y-61500D02*
D03*
D87*
X80250Y-170000D02*
D03*
X-32250D02*
D03*
D88*
X-301250Y290500D02*
D03*
X-207250D02*
D03*
D89*
X415500Y46250D02*
D03*
D90*
Y96250D02*
D03*
D91*
X465500Y16250D02*
D03*
Y126250D02*
D03*
D92*
X-423500Y-238700D02*
D03*
Y-199100D02*
D03*
Y18300D02*
D03*
Y57900D02*
D03*
Y-110200D02*
D03*
Y-70600D02*
D03*
D93*
Y-159500D02*
D03*
Y97500D02*
D03*
Y-31000D02*
D03*
D94*
X-446750Y134500D02*
D03*
X-446000Y204750D02*
D03*
X434750Y218500D02*
D03*
D95*
X-471750Y161500D02*
D03*
X-421750D02*
D03*
X-471000Y231750D02*
D03*
X-421000D02*
D03*
X459750Y191500D02*
D03*
X409750D02*
D03*
D96*
X113300Y-320400D02*
D03*
Y-295000D02*
D03*
X164100Y-320400D02*
D03*
Y-295000D02*
D03*
X214900Y-320400D02*
D03*
X189500D02*
D03*
Y-295000D02*
D03*
X138700D02*
D03*
Y-320400D02*
D03*
X296500Y-319900D02*
D03*
Y-294500D02*
D03*
X347300D02*
D03*
Y-319900D02*
D03*
X372700D02*
D03*
X321900Y-294500D02*
D03*
Y-319900D02*
D03*
X271100Y-294500D02*
D03*
Y-319900D02*
D03*
X-397800Y-321500D02*
D03*
X-347000Y-321500D02*
D03*
X-321600D02*
D03*
X-372400D02*
D03*
D97*
X214900Y-295000D02*
D03*
X372700Y-294500D02*
D03*
X-296200Y-321500D02*
D03*
D98*
X414400Y-130300D02*
D03*
X414400Y-105300D02*
D03*
X414400Y-150300D02*
D03*
D99*
Y-175300D02*
D03*
D100*
X441500Y-206000D02*
D03*
Y-74600D02*
D03*
D101*
X-37500Y248250D02*
D03*
D102*
X34500D02*
D03*
D103*
X-69000Y308250D02*
D03*
X66000D02*
D03*
D104*
X-450000Y300000D02*
D03*
X450000D02*
D03*
X-450000Y-300000D02*
D03*
X450000D02*
D03*
D105*
X-218250Y-306250D02*
D03*
X-178650D02*
D03*
X-92750Y-306500D02*
D03*
X-53150D02*
D03*
D106*
X-257850Y-306250D02*
D03*
X-132350Y-306500D02*
D03*
%TF.MD5,250bb0cf9b43ca9810001066e2acd88c*%
M02*
