%TF.GenerationSoftware,Altium Limited,Altium Designer,22.5.1 (42)*%
G04 Layer_Color=0*
%FSLAX44Y44*%
%MOMM*%
%TF.SameCoordinates,B102F14A-A54C-4FC6-BF91-0F17097562DF*%
%TF.FilePolarity,Positive*%
%TF.FileFunction,Plated,1,4,PTH,Drill*%
%TF.Part,Single*%
G01*
G75*
%TA.AperFunction,ComponentDrill*%
%ADD124C,1.7000*%
%ADD125C,1.0000*%
%ADD126C,0.2000*%
%ADD127C,1.6000*%
%ADD128O,1.5000X0.6000*%
%ADD129O,0.6000X1.5000*%
%ADD130C,0.9000*%
%ADD131C,2.3000*%
%ADD132C,2.7000*%
%ADD133R,0.6000X1.7000*%
%ADD134C,3.0000*%
%ADD135C,1.6000*%
%TA.AperFunction,ViaDrill,NotFilled*%
%ADD136C,0.3000*%
%ADD137C,0.4000*%
D124*
X415500Y46250D02*
D03*
Y96250D02*
D03*
D125*
X465500Y16250D02*
D03*
Y126250D02*
D03*
X414400Y-130300D02*
D03*
X414400Y-105300D02*
D03*
X414400Y-150300D02*
D03*
Y-175300D02*
D03*
D126*
X44750Y-3750D02*
D03*
Y-29250D02*
D03*
X37000Y-16500D02*
D03*
X52500D02*
D03*
D127*
X-423500Y-238700D02*
D03*
Y-159500D02*
D03*
Y-199100D02*
D03*
Y18300D02*
D03*
Y97500D02*
D03*
Y57900D02*
D03*
Y-110200D02*
D03*
Y-31000D02*
D03*
Y-70600D02*
D03*
D128*
X-446750Y134500D02*
D03*
X-446000Y204750D02*
D03*
X434750Y218500D02*
D03*
D129*
X-471750Y161500D02*
D03*
X-421750D02*
D03*
X-471000Y231750D02*
D03*
X-421000D02*
D03*
X459750Y191500D02*
D03*
X409750D02*
D03*
D130*
X113300Y-320400D02*
D03*
Y-295000D02*
D03*
X164100Y-320400D02*
D03*
Y-295000D02*
D03*
X214900Y-320400D02*
D03*
X189500D02*
D03*
Y-295000D02*
D03*
X214900D02*
D03*
X138700D02*
D03*
Y-320400D02*
D03*
X296500Y-319900D02*
D03*
Y-294500D02*
D03*
X372700D02*
D03*
X347300D02*
D03*
Y-319900D02*
D03*
X372700D02*
D03*
X321900Y-294500D02*
D03*
Y-319900D02*
D03*
X271100Y-294500D02*
D03*
Y-319900D02*
D03*
X-397800Y-321500D02*
D03*
X-347000Y-321500D02*
D03*
X-321600D02*
D03*
X-296200D02*
D03*
X-372400D02*
D03*
D131*
X441500Y-206000D02*
D03*
Y-74600D02*
D03*
D132*
X-37500Y248250D02*
D03*
X34500D02*
D03*
D133*
X-69000Y308250D02*
D03*
X66000D02*
D03*
D134*
X-450000Y300000D02*
D03*
X450000D02*
D03*
X-450000Y-300000D02*
D03*
X450000D02*
D03*
D135*
X-218250Y-306250D02*
D03*
X-257850D02*
D03*
X-178650D02*
D03*
X-92750Y-306500D02*
D03*
X-132350D02*
D03*
X-53150D02*
D03*
D136*
X-288500Y-108750D02*
D03*
X-38250Y-243250D02*
D03*
X-29500D02*
D03*
X-47500Y-243500D02*
D03*
X-56250D02*
D03*
X-38250Y-234000D02*
D03*
X-29500D02*
D03*
X-47500Y-234250D02*
D03*
X-56250D02*
D03*
X-38250Y-224250D02*
D03*
X-29500D02*
D03*
X-47500Y-224500D02*
D03*
X-56250D02*
D03*
X-38500Y-214750D02*
D03*
X-29750D02*
D03*
X-47750Y-215000D02*
D03*
X-56500D02*
D03*
X-56250Y-252250D02*
D03*
X-47500D02*
D03*
X-29500Y-252000D02*
D03*
X-38250D02*
D03*
X-56000Y-261750D02*
D03*
X-47250D02*
D03*
X-29250Y-261500D02*
D03*
X-38000D02*
D03*
X-56000Y-271500D02*
D03*
X-47250D02*
D03*
X-29250Y-271250D02*
D03*
X-38000D02*
D03*
X-56000Y-280750D02*
D03*
X-47250D02*
D03*
X-29250Y-280500D02*
D03*
X-38000D02*
D03*
X-325500Y-29250D02*
D03*
Y-38000D02*
D03*
X-325750Y-20000D02*
D03*
Y-11250D02*
D03*
X-316250Y-29250D02*
D03*
Y-38000D02*
D03*
X-316500Y-20000D02*
D03*
Y-11250D02*
D03*
X-306500Y-29250D02*
D03*
Y-38000D02*
D03*
X-306750Y-20000D02*
D03*
Y-11250D02*
D03*
X-297000Y-29000D02*
D03*
Y-37750D02*
D03*
X-297250Y-19750D02*
D03*
Y-11000D02*
D03*
X-334500Y-11250D02*
D03*
Y-20000D02*
D03*
X-334250Y-38000D02*
D03*
Y-29250D02*
D03*
X-344000Y-11500D02*
D03*
Y-20250D02*
D03*
X-343750Y-38250D02*
D03*
Y-29500D02*
D03*
X-353750Y-11500D02*
D03*
Y-20250D02*
D03*
X-353500Y-38250D02*
D03*
Y-29500D02*
D03*
X-363000Y-11500D02*
D03*
Y-20250D02*
D03*
X-362750Y-38250D02*
D03*
Y-29500D02*
D03*
X43000Y217250D02*
D03*
X16250Y217000D02*
D03*
X25000D02*
D03*
X34250Y217250D02*
D03*
X16500Y207500D02*
D03*
X25250D02*
D03*
X43250Y207750D02*
D03*
X34500D02*
D03*
X16500Y197750D02*
D03*
X25250D02*
D03*
X43250Y198000D02*
D03*
X34500D02*
D03*
Y180000D02*
D03*
X43250D02*
D03*
X25250Y179750D02*
D03*
X43250Y188750D02*
D03*
X16500Y179750D02*
D03*
X34750Y170500D02*
D03*
X43500D02*
D03*
X25500Y170250D02*
D03*
X16750D02*
D03*
X16500Y188500D02*
D03*
X25250D02*
D03*
X34500Y188750D02*
D03*
X25500Y151250D02*
D03*
X34750Y151500D02*
D03*
X43500D02*
D03*
X16750Y151250D02*
D03*
X34750Y160750D02*
D03*
X43500D02*
D03*
X25500Y160500D02*
D03*
X16750D02*
D03*
X-26000Y105750D02*
D03*
Y97000D02*
D03*
X-16250Y105750D02*
D03*
Y97000D02*
D03*
X84750Y-78500D02*
D03*
X31750Y277250D02*
D03*
X40500D02*
D03*
X22500Y277000D02*
D03*
X13750D02*
D03*
X31750Y286500D02*
D03*
X40500D02*
D03*
X22500Y286250D02*
D03*
X13750D02*
D03*
X31750Y296250D02*
D03*
X40500D02*
D03*
X22500Y296000D02*
D03*
X13750D02*
D03*
X31500Y305750D02*
D03*
X40250D02*
D03*
X22250Y305500D02*
D03*
X13500D02*
D03*
Y323500D02*
D03*
X22250D02*
D03*
X40250Y323750D02*
D03*
X31500D02*
D03*
X13500Y314250D02*
D03*
X22250D02*
D03*
X40250Y314500D02*
D03*
X31500D02*
D03*
X-335500Y311750D02*
D03*
X-354750Y311500D02*
D03*
X-364000D02*
D03*
X-401250Y311250D02*
D03*
X-345000Y311500D02*
D03*
X-372750D02*
D03*
X-382250Y311250D02*
D03*
X-392000D02*
D03*
X-355000Y329500D02*
D03*
X-354750Y320250D02*
D03*
X-345000D02*
D03*
X-335500Y320500D02*
D03*
X-345250Y329500D02*
D03*
X-335750Y329750D02*
D03*
Y338500D02*
D03*
X-355000Y338250D02*
D03*
X-345250D02*
D03*
X-373000Y329500D02*
D03*
X-392250Y329250D02*
D03*
X-392000Y320000D02*
D03*
X-372750Y320250D02*
D03*
X-392250Y338000D02*
D03*
X-401500Y329250D02*
D03*
X-382500D02*
D03*
Y338000D02*
D03*
X-364250Y329500D02*
D03*
Y338250D02*
D03*
X-373000D02*
D03*
X-401500Y338000D02*
D03*
X-401250Y320000D02*
D03*
X-382250D02*
D03*
X-364000Y320250D02*
D03*
X360750Y18750D02*
D03*
X370500D02*
D03*
X360750Y27500D02*
D03*
X380000Y27750D02*
D03*
Y19000D02*
D03*
X370500Y27500D02*
D03*
X370750Y750D02*
D03*
X361000Y9500D02*
D03*
Y750D02*
D03*
X380250Y9750D02*
D03*
Y1000D02*
D03*
X370750Y9500D02*
D03*
X351750D02*
D03*
X343000Y750D02*
D03*
Y9500D02*
D03*
X342750Y18750D02*
D03*
Y27500D02*
D03*
X351750Y750D02*
D03*
X351500Y27500D02*
D03*
Y18750D02*
D03*
X333500Y500D02*
D03*
X314250Y18500D02*
D03*
X323500D02*
D03*
X333250Y27250D02*
D03*
X314500Y9250D02*
D03*
Y500D02*
D03*
X323750Y9250D02*
D03*
X323500Y27250D02*
D03*
X333250Y18500D02*
D03*
X323750Y500D02*
D03*
X333500Y9250D02*
D03*
X314250Y27250D02*
D03*
X311500Y295000D02*
D03*
Y286250D02*
D03*
X311250Y304250D02*
D03*
Y313000D02*
D03*
X320750Y295000D02*
D03*
Y286250D02*
D03*
X320500Y304250D02*
D03*
Y313000D02*
D03*
X330500Y295000D02*
D03*
Y286250D02*
D03*
X330250Y304250D02*
D03*
Y313000D02*
D03*
X340000Y295250D02*
D03*
Y286500D02*
D03*
X339750Y304500D02*
D03*
Y313250D02*
D03*
X377000Y313500D02*
D03*
Y304750D02*
D03*
X377250Y286750D02*
D03*
Y295500D02*
D03*
X367500Y313250D02*
D03*
Y304500D02*
D03*
X367750Y286500D02*
D03*
Y295250D02*
D03*
X357750Y313250D02*
D03*
Y304500D02*
D03*
X358000Y286500D02*
D03*
Y295250D02*
D03*
X348500Y313250D02*
D03*
Y304500D02*
D03*
X348750Y286500D02*
D03*
Y295250D02*
D03*
X313500Y130250D02*
D03*
Y121500D02*
D03*
X313250Y139500D02*
D03*
Y148250D02*
D03*
X322750Y130250D02*
D03*
Y121500D02*
D03*
X322500Y139500D02*
D03*
Y148250D02*
D03*
X332500Y130250D02*
D03*
Y121500D02*
D03*
X332250Y139500D02*
D03*
Y148250D02*
D03*
X342000Y130500D02*
D03*
Y121750D02*
D03*
X341750Y139750D02*
D03*
Y148500D02*
D03*
X379000Y148750D02*
D03*
Y140000D02*
D03*
X379250Y122000D02*
D03*
Y130750D02*
D03*
X369500Y148500D02*
D03*
Y139750D02*
D03*
X369750Y121750D02*
D03*
Y130500D02*
D03*
X359750Y148500D02*
D03*
Y139750D02*
D03*
X360000Y121750D02*
D03*
Y130500D02*
D03*
X350500Y148500D02*
D03*
Y139750D02*
D03*
X350750Y121750D02*
D03*
Y130500D02*
D03*
X315250Y-259000D02*
D03*
Y-267750D02*
D03*
X315000Y-249750D02*
D03*
Y-241000D02*
D03*
X324500Y-259000D02*
D03*
Y-267750D02*
D03*
X324250Y-249750D02*
D03*
Y-241000D02*
D03*
X334250Y-259000D02*
D03*
Y-267750D02*
D03*
X334000Y-249750D02*
D03*
Y-241000D02*
D03*
X343750Y-258750D02*
D03*
Y-267500D02*
D03*
X343500Y-249500D02*
D03*
Y-240750D02*
D03*
X306250Y-241000D02*
D03*
Y-249750D02*
D03*
X306500Y-267750D02*
D03*
Y-259000D02*
D03*
X296750Y-241250D02*
D03*
Y-250000D02*
D03*
X297000Y-268000D02*
D03*
Y-259250D02*
D03*
X287000Y-241250D02*
D03*
Y-250000D02*
D03*
X287250Y-268000D02*
D03*
Y-259250D02*
D03*
X277750Y-241250D02*
D03*
Y-250000D02*
D03*
X278000Y-268000D02*
D03*
Y-259250D02*
D03*
X37250Y13000D02*
D03*
X149000Y-10000D02*
D03*
X73000Y-33000D02*
D03*
X-88000Y-104000D02*
D03*
X-96750Y-104250D02*
D03*
X-106500D02*
D03*
X16750Y-33750D02*
D03*
X16194Y-23043D02*
D03*
X19296Y-6366D02*
D03*
X-8417Y13142D02*
D03*
X-17167Y13392D02*
D03*
X17000Y25500D02*
D03*
X-158500Y140000D02*
D03*
Y131250D02*
D03*
X-158750Y149250D02*
D03*
Y158000D02*
D03*
D137*
X180750Y260250D02*
D03*
%TF.MD5,d273c9fd7e777700df2a7786dd1d490e*%
M02*
