%TF.GenerationSoftware,Altium Limited,Altium Designer,22.5.1 (42)*%
G04 Layer_Color=128*
%FSLAX44Y44*%
%MOMM*%
%TF.SameCoordinates,B102F14A-A54C-4FC6-BF91-0F17097562DF*%
%TF.FilePolarity,Positive*%
%TF.FileFunction,Drillmap*%
%TF.Part,Single*%
G01*
G75*
%TA.AperFunction,NonConductor*%
%ADD72C,0.1270*%
D72*
X407000Y46250D02*
X424000D01*
X415500Y37750D02*
Y54750D01*
X407000Y96250D02*
X424000D01*
X415500Y87750D02*
Y104750D01*
X460500Y16250D02*
X470500D01*
X465500Y11250D02*
Y21250D01*
X460500Y126250D02*
X470500D01*
X465500Y121250D02*
Y131250D01*
X43750Y-3750D02*
X45750D01*
X44750Y-4750D02*
Y-2750D01*
X43750Y-29250D02*
X45750D01*
X44750Y-30250D02*
Y-28250D01*
X36000Y-16500D02*
X38000D01*
X37000Y-17500D02*
Y-15500D01*
X51500Y-16500D02*
X53500D01*
X52500Y-17500D02*
Y-15500D01*
X-431500Y-238700D02*
X-415500D01*
X-423500Y-246700D02*
Y-230700D01*
X-431500Y-159500D02*
X-415500D01*
X-423500Y-167500D02*
Y-151500D01*
X-431500Y-199100D02*
X-415500D01*
X-423500Y-207100D02*
Y-191100D01*
X-431500Y18300D02*
X-415500D01*
X-423500Y10300D02*
Y26300D01*
X-431500Y97500D02*
X-415500D01*
X-423500Y89500D02*
Y105500D01*
X-431500Y57900D02*
X-415500D01*
X-423500Y49900D02*
Y65900D01*
X-449750Y134500D02*
X-443750D01*
X-446750Y131500D02*
Y137500D01*
X-474750Y161500D02*
X-468750D01*
X-471750Y158500D02*
Y164500D01*
X-424750Y161500D02*
X-418750D01*
X-421750Y158500D02*
Y164500D01*
X-449000Y204750D02*
X-443000D01*
X-446000Y201750D02*
Y207750D01*
X-474000Y231750D02*
X-468000D01*
X-471000Y228750D02*
Y234750D01*
X-424000Y231750D02*
X-418000D01*
X-421000Y228750D02*
Y234750D01*
X108800Y-320400D02*
X117800D01*
X113300Y-324900D02*
Y-315900D01*
X108800Y-295000D02*
X117800D01*
X113300Y-299500D02*
Y-290500D01*
X159600Y-320400D02*
X168600D01*
X164100Y-324900D02*
Y-315900D01*
X159600Y-295000D02*
X168600D01*
X164100Y-299500D02*
Y-290500D01*
X210400Y-320400D02*
X219400D01*
X214900Y-324900D02*
Y-315900D01*
X185000Y-320400D02*
X194000D01*
X189500Y-324900D02*
Y-315900D01*
X185000Y-295000D02*
X194000D01*
X189500Y-299500D02*
Y-290500D01*
X210400Y-295000D02*
X219400D01*
X214900Y-299500D02*
Y-290500D01*
X134200Y-295000D02*
X143200D01*
X138700Y-299500D02*
Y-290500D01*
X134200Y-320400D02*
X143200D01*
X138700Y-324900D02*
Y-315900D01*
X409400Y-130300D02*
X419400D01*
X414400Y-135300D02*
Y-125300D01*
X409400Y-105300D02*
X419400D01*
X414400Y-110300D02*
Y-100300D01*
X409400Y-150300D02*
X419400D01*
X414400Y-155300D02*
Y-145300D01*
X409400Y-175300D02*
X419400D01*
X414400Y-180300D02*
Y-170300D01*
X430000Y-206000D02*
X453000D01*
X441500Y-217500D02*
Y-194500D01*
X430000Y-74600D02*
X453000D01*
X441500Y-86100D02*
Y-63100D01*
X431750Y218500D02*
X437750D01*
X434750Y215500D02*
Y221500D01*
X456750Y191500D02*
X462750D01*
X459750Y188500D02*
Y194500D01*
X406750Y191500D02*
X412750D01*
X409750Y188500D02*
Y194500D01*
X-51000Y248250D02*
X-24000D01*
X-37500Y234750D02*
Y261750D01*
X21000Y248250D02*
X48000D01*
X34500Y234750D02*
Y261750D01*
X-72000Y308250D02*
X-66000D01*
X-69000Y305250D02*
Y311250D01*
X63000Y308250D02*
X69000D01*
X66000Y305250D02*
Y311250D01*
X-431500Y-110200D02*
X-415500D01*
X-423500Y-118200D02*
Y-102200D01*
X-431500Y-31000D02*
X-415500D01*
X-423500Y-39000D02*
Y-23000D01*
X-431500Y-70600D02*
X-415500D01*
X-423500Y-78600D02*
Y-62600D01*
X292000Y-319900D02*
X301000D01*
X296500Y-324400D02*
Y-315400D01*
X292000Y-294500D02*
X301000D01*
X296500Y-299000D02*
Y-290000D01*
X368200Y-294500D02*
X377200D01*
X372700Y-299000D02*
Y-290000D01*
X342800Y-294500D02*
X351800D01*
X347300Y-299000D02*
Y-290000D01*
X342800Y-319900D02*
X351800D01*
X347300Y-324400D02*
Y-315400D01*
X368200Y-319900D02*
X377200D01*
X372700Y-324400D02*
Y-315400D01*
X317400Y-294500D02*
X326400D01*
X321900Y-299000D02*
Y-290000D01*
X317400Y-319900D02*
X326400D01*
X321900Y-324400D02*
Y-315400D01*
X266600Y-294500D02*
X275600D01*
X271100Y-299000D02*
Y-290000D01*
X266600Y-319900D02*
X275600D01*
X271100Y-324400D02*
Y-315400D01*
X-402300Y-321500D02*
X-393300D01*
X-397800Y-326000D02*
Y-317000D01*
X-351500Y-321500D02*
X-342500D01*
X-347000Y-326000D02*
Y-317000D01*
X-326100Y-321500D02*
X-317100D01*
X-321600Y-326000D02*
Y-317000D01*
X-300700Y-321500D02*
X-291700D01*
X-296200Y-326000D02*
Y-317000D01*
X-376900Y-321500D02*
X-367900D01*
X-372400Y-326000D02*
Y-317000D01*
X-465000Y300000D02*
X-435000D01*
X-450000Y285000D02*
Y315000D01*
X435000Y300000D02*
X465000D01*
X450000Y285000D02*
Y315000D01*
X-465000Y-300000D02*
X-435000D01*
X-450000Y-315000D02*
Y-285000D01*
X435000Y-300000D02*
X465000D01*
X450000Y-315000D02*
Y-285000D01*
X-226250Y-306250D02*
X-210250D01*
X-218250Y-314250D02*
Y-298250D01*
X-265850Y-306250D02*
X-249850D01*
X-257850Y-314250D02*
Y-298250D01*
X-186650Y-306250D02*
X-170650D01*
X-178650Y-314250D02*
Y-298250D01*
X-100750Y-306500D02*
X-84750D01*
X-92750Y-314500D02*
Y-298500D01*
X-140350Y-306500D02*
X-124350D01*
X-132350Y-314500D02*
Y-298500D01*
X-61150Y-306500D02*
X-45150D01*
X-53150Y-314500D02*
Y-298500D01*
X-290000Y-108750D02*
X-287000D01*
X-288500Y-110250D02*
Y-107250D01*
X-39750Y-243250D02*
X-36750D01*
X-38250Y-244750D02*
Y-241750D01*
X-31000Y-243250D02*
X-28000D01*
X-29500Y-244750D02*
Y-241750D01*
X-49000Y-243500D02*
X-46000D01*
X-47500Y-245000D02*
Y-242000D01*
X-57750Y-243500D02*
X-54750D01*
X-56250Y-245000D02*
Y-242000D01*
X-39750Y-234000D02*
X-36750D01*
X-38250Y-235500D02*
Y-232500D01*
X-31000Y-234000D02*
X-28000D01*
X-29500Y-235500D02*
Y-232500D01*
X-49000Y-234250D02*
X-46000D01*
X-47500Y-235750D02*
Y-232750D01*
X-57750Y-234250D02*
X-54750D01*
X-56250Y-235750D02*
Y-232750D01*
X-39750Y-224250D02*
X-36750D01*
X-38250Y-225750D02*
Y-222750D01*
X-31000Y-224250D02*
X-28000D01*
X-29500Y-225750D02*
Y-222750D01*
X-49000Y-224500D02*
X-46000D01*
X-47500Y-226000D02*
Y-223000D01*
X-57750Y-224500D02*
X-54750D01*
X-56250Y-226000D02*
Y-223000D01*
X-40000Y-214750D02*
X-37000D01*
X-38500Y-216250D02*
Y-213250D01*
X-31250Y-214750D02*
X-28250D01*
X-29750Y-216250D02*
Y-213250D01*
X-49250Y-215000D02*
X-46250D01*
X-47750Y-216500D02*
Y-213500D01*
X-58000Y-215000D02*
X-55000D01*
X-56500Y-216500D02*
Y-213500D01*
X-57750Y-252250D02*
X-54750D01*
X-56250Y-253750D02*
Y-250750D01*
X-49000Y-252250D02*
X-46000D01*
X-47500Y-253750D02*
Y-250750D01*
X-31000Y-252000D02*
X-28000D01*
X-29500Y-253500D02*
Y-250500D01*
X-39750Y-252000D02*
X-36750D01*
X-38250Y-253500D02*
Y-250500D01*
X-57500Y-261750D02*
X-54500D01*
X-56000Y-263250D02*
Y-260250D01*
X-48750Y-261750D02*
X-45750D01*
X-47250Y-263250D02*
Y-260250D01*
X-30750Y-261500D02*
X-27750D01*
X-29250Y-263000D02*
Y-260000D01*
X-39500Y-261500D02*
X-36500D01*
X-38000Y-263000D02*
Y-260000D01*
X-57500Y-271500D02*
X-54500D01*
X-56000Y-273000D02*
Y-270000D01*
X-48750Y-271500D02*
X-45750D01*
X-47250Y-273000D02*
Y-270000D01*
X-30750Y-271250D02*
X-27750D01*
X-29250Y-272750D02*
Y-269750D01*
X-39500Y-271250D02*
X-36500D01*
X-38000Y-272750D02*
Y-269750D01*
X-57500Y-280750D02*
X-54500D01*
X-56000Y-282250D02*
Y-279250D01*
X-48750Y-280750D02*
X-45750D01*
X-47250Y-282250D02*
Y-279250D01*
X-30750Y-280500D02*
X-27750D01*
X-29250Y-282000D02*
Y-279000D01*
X-39500Y-280500D02*
X-36500D01*
X-38000Y-282000D02*
Y-279000D01*
X-327000Y-29250D02*
X-324000D01*
X-325500Y-30750D02*
Y-27750D01*
X-327000Y-38000D02*
X-324000D01*
X-325500Y-39500D02*
Y-36500D01*
X-327250Y-20000D02*
X-324250D01*
X-325750Y-21500D02*
Y-18500D01*
X-327250Y-11250D02*
X-324250D01*
X-325750Y-12750D02*
Y-9750D01*
X-317750Y-29250D02*
X-314750D01*
X-316250Y-30750D02*
Y-27750D01*
X-317750Y-38000D02*
X-314750D01*
X-316250Y-39500D02*
Y-36500D01*
X-318000Y-20000D02*
X-315000D01*
X-316500Y-21500D02*
Y-18500D01*
X-318000Y-11250D02*
X-315000D01*
X-316500Y-12750D02*
Y-9750D01*
X-308000Y-29250D02*
X-305000D01*
X-306500Y-30750D02*
Y-27750D01*
X-308000Y-38000D02*
X-305000D01*
X-306500Y-39500D02*
Y-36500D01*
X-308250Y-20000D02*
X-305250D01*
X-306750Y-21500D02*
Y-18500D01*
X-308250Y-11250D02*
X-305250D01*
X-306750Y-12750D02*
Y-9750D01*
X-298500Y-29000D02*
X-295500D01*
X-297000Y-30500D02*
Y-27500D01*
X-298500Y-37750D02*
X-295500D01*
X-297000Y-39250D02*
Y-36250D01*
X-298750Y-19750D02*
X-295750D01*
X-297250Y-21250D02*
Y-18250D01*
X-298750Y-11000D02*
X-295750D01*
X-297250Y-12500D02*
Y-9500D01*
X-336000Y-11250D02*
X-333000D01*
X-334500Y-12750D02*
Y-9750D01*
X-336000Y-20000D02*
X-333000D01*
X-334500Y-21500D02*
Y-18500D01*
X-335750Y-38000D02*
X-332750D01*
X-334250Y-39500D02*
Y-36500D01*
X-335750Y-29250D02*
X-332750D01*
X-334250Y-30750D02*
Y-27750D01*
X-345500Y-11500D02*
X-342500D01*
X-344000Y-13000D02*
Y-10000D01*
X-345500Y-20250D02*
X-342500D01*
X-344000Y-21750D02*
Y-18750D01*
X-345250Y-38250D02*
X-342250D01*
X-343750Y-39750D02*
Y-36750D01*
X-345250Y-29500D02*
X-342250D01*
X-343750Y-31000D02*
Y-28000D01*
X-355250Y-11500D02*
X-352250D01*
X-353750Y-13000D02*
Y-10000D01*
X-355250Y-20250D02*
X-352250D01*
X-353750Y-21750D02*
Y-18750D01*
X-355000Y-38250D02*
X-352000D01*
X-353500Y-39750D02*
Y-36750D01*
X-355000Y-29500D02*
X-352000D01*
X-353500Y-31000D02*
Y-28000D01*
X-364500Y-11500D02*
X-361500D01*
X-363000Y-13000D02*
Y-10000D01*
X-364500Y-20250D02*
X-361500D01*
X-363000Y-21750D02*
Y-18750D01*
X-364250Y-38250D02*
X-361250D01*
X-362750Y-39750D02*
Y-36750D01*
X-364250Y-29500D02*
X-361250D01*
X-362750Y-31000D02*
Y-28000D01*
X41500Y217250D02*
X44500D01*
X43000Y215750D02*
Y218750D01*
X14750Y217000D02*
X17750D01*
X16250Y215500D02*
Y218500D01*
X23500Y217000D02*
X26500D01*
X25000Y215500D02*
Y218500D01*
X32750Y217250D02*
X35750D01*
X34250Y215750D02*
Y218750D01*
X15000Y207500D02*
X18000D01*
X16500Y206000D02*
Y209000D01*
X23750Y207500D02*
X26750D01*
X25250Y206000D02*
Y209000D01*
X41750Y207750D02*
X44750D01*
X43250Y206250D02*
Y209250D01*
X33000Y207750D02*
X36000D01*
X34500Y206250D02*
Y209250D01*
X15000Y197750D02*
X18000D01*
X16500Y196250D02*
Y199250D01*
X23750Y197750D02*
X26750D01*
X25250Y196250D02*
Y199250D01*
X41750Y198000D02*
X44750D01*
X43250Y196500D02*
Y199500D01*
X33000Y198000D02*
X36000D01*
X34500Y196500D02*
Y199500D01*
X33000Y180000D02*
X36000D01*
X34500Y178500D02*
Y181500D01*
X41750Y180000D02*
X44750D01*
X43250Y178500D02*
Y181500D01*
X23750Y179750D02*
X26750D01*
X25250Y178250D02*
Y181250D01*
X41750Y188750D02*
X44750D01*
X43250Y187250D02*
Y190250D01*
X15000Y179750D02*
X18000D01*
X16500Y178250D02*
Y181250D01*
X33250Y170500D02*
X36250D01*
X34750Y169000D02*
Y172000D01*
X42000Y170500D02*
X45000D01*
X43500Y169000D02*
Y172000D01*
X24000Y170250D02*
X27000D01*
X25500Y168750D02*
Y171750D01*
X15250Y170250D02*
X18250D01*
X16750Y168750D02*
Y171750D01*
X15000Y188500D02*
X18000D01*
X16500Y187000D02*
Y190000D01*
X23750Y188500D02*
X26750D01*
X25250Y187000D02*
Y190000D01*
X33000Y188750D02*
X36000D01*
X34500Y187250D02*
Y190250D01*
X24000Y151250D02*
X27000D01*
X25500Y149750D02*
Y152750D01*
X33250Y151500D02*
X36250D01*
X34750Y150000D02*
Y153000D01*
X42000Y151500D02*
X45000D01*
X43500Y150000D02*
Y153000D01*
X15250Y151250D02*
X18250D01*
X16750Y149750D02*
Y152750D01*
X33250Y160750D02*
X36250D01*
X34750Y159250D02*
Y162250D01*
X42000Y160750D02*
X45000D01*
X43500Y159250D02*
Y162250D01*
X24000Y160500D02*
X27000D01*
X25500Y159000D02*
Y162000D01*
X15250Y160500D02*
X18250D01*
X16750Y159000D02*
Y162000D01*
X-27500Y105750D02*
X-24500D01*
X-26000Y104250D02*
Y107250D01*
X-27500Y97000D02*
X-24500D01*
X-26000Y95500D02*
Y98500D01*
X-17750Y105750D02*
X-14750D01*
X-16250Y104250D02*
Y107250D01*
X-17750Y97000D02*
X-14750D01*
X-16250Y95500D02*
Y98500D01*
X83250Y-78500D02*
X86250D01*
X84750Y-80000D02*
Y-77000D01*
X30250Y277250D02*
X33250D01*
X31750Y275750D02*
Y278750D01*
X39000Y277250D02*
X42000D01*
X40500Y275750D02*
Y278750D01*
X21000Y277000D02*
X24000D01*
X22500Y275500D02*
Y278500D01*
X12250Y277000D02*
X15250D01*
X13750Y275500D02*
Y278500D01*
X30250Y286500D02*
X33250D01*
X31750Y285000D02*
Y288000D01*
X39000Y286500D02*
X42000D01*
X40500Y285000D02*
Y288000D01*
X21000Y286250D02*
X24000D01*
X22500Y284750D02*
Y287750D01*
X12250Y286250D02*
X15250D01*
X13750Y284750D02*
Y287750D01*
X30250Y296250D02*
X33250D01*
X31750Y294750D02*
Y297750D01*
X39000Y296250D02*
X42000D01*
X40500Y294750D02*
Y297750D01*
X21000Y296000D02*
X24000D01*
X22500Y294500D02*
Y297500D01*
X12250Y296000D02*
X15250D01*
X13750Y294500D02*
Y297500D01*
X30000Y305750D02*
X33000D01*
X31500Y304250D02*
Y307250D01*
X38750Y305750D02*
X41750D01*
X40250Y304250D02*
Y307250D01*
X20750Y305500D02*
X23750D01*
X22250Y304000D02*
Y307000D01*
X12000Y305500D02*
X15000D01*
X13500Y304000D02*
Y307000D01*
X12000Y323500D02*
X15000D01*
X13500Y322000D02*
Y325000D01*
X20750Y323500D02*
X23750D01*
X22250Y322000D02*
Y325000D01*
X38750Y323750D02*
X41750D01*
X40250Y322250D02*
Y325250D01*
X30000Y323750D02*
X33000D01*
X31500Y322250D02*
Y325250D01*
X12000Y314250D02*
X15000D01*
X13500Y312750D02*
Y315750D01*
X20750Y314250D02*
X23750D01*
X22250Y312750D02*
Y315750D01*
X38750Y314500D02*
X41750D01*
X40250Y313000D02*
Y316000D01*
X30000Y314500D02*
X33000D01*
X31500Y313000D02*
Y316000D01*
X-337000Y311750D02*
X-334000D01*
X-335500Y310250D02*
Y313250D01*
X-356250Y311500D02*
X-353250D01*
X-354750Y310000D02*
Y313000D01*
X-365500Y311500D02*
X-362500D01*
X-364000Y310000D02*
Y313000D01*
X-402750Y311250D02*
X-399750D01*
X-401250Y309750D02*
Y312750D01*
X-346500Y311500D02*
X-343500D01*
X-345000Y310000D02*
Y313000D01*
X-374250Y311500D02*
X-371250D01*
X-372750Y310000D02*
Y313000D01*
X-383750Y311250D02*
X-380750D01*
X-382250Y309750D02*
Y312750D01*
X-393500Y311250D02*
X-390500D01*
X-392000Y309750D02*
Y312750D01*
X-356500Y329500D02*
X-353500D01*
X-355000Y328000D02*
Y331000D01*
X-356250Y320250D02*
X-353250D01*
X-354750Y318750D02*
Y321750D01*
X-346500Y320250D02*
X-343500D01*
X-345000Y318750D02*
Y321750D01*
X-337000Y320500D02*
X-334000D01*
X-335500Y319000D02*
Y322000D01*
X-346750Y329500D02*
X-343750D01*
X-345250Y328000D02*
Y331000D01*
X-337250Y329750D02*
X-334250D01*
X-335750Y328250D02*
Y331250D01*
X-337250Y338500D02*
X-334250D01*
X-335750Y337000D02*
Y340000D01*
X-356500Y338250D02*
X-353500D01*
X-355000Y336750D02*
Y339750D01*
X-346750Y338250D02*
X-343750D01*
X-345250Y336750D02*
Y339750D01*
X-374500Y329500D02*
X-371500D01*
X-373000Y328000D02*
Y331000D01*
X-393750Y329250D02*
X-390750D01*
X-392250Y327750D02*
Y330750D01*
X-393500Y320000D02*
X-390500D01*
X-392000Y318500D02*
Y321500D01*
X-374250Y320250D02*
X-371250D01*
X-372750Y318750D02*
Y321750D01*
X-393750Y338000D02*
X-390750D01*
X-392250Y336500D02*
Y339500D01*
X-403000Y329250D02*
X-400000D01*
X-401500Y327750D02*
Y330750D01*
X-384000Y329250D02*
X-381000D01*
X-382500Y327750D02*
Y330750D01*
X-384000Y338000D02*
X-381000D01*
X-382500Y336500D02*
Y339500D01*
X-365750Y329500D02*
X-362750D01*
X-364250Y328000D02*
Y331000D01*
X-365750Y338250D02*
X-362750D01*
X-364250Y336750D02*
Y339750D01*
X-374500Y338250D02*
X-371500D01*
X-373000Y336750D02*
Y339750D01*
X-403000Y338000D02*
X-400000D01*
X-401500Y336500D02*
Y339500D01*
X-402750Y320000D02*
X-399750D01*
X-401250Y318500D02*
Y321500D01*
X-383750Y320000D02*
X-380750D01*
X-382250Y318500D02*
Y321500D01*
X-365500Y320250D02*
X-362500D01*
X-364000Y318750D02*
Y321750D01*
X359250Y18750D02*
X362250D01*
X360750Y17250D02*
Y20250D01*
X369000Y18750D02*
X372000D01*
X370500Y17250D02*
Y20250D01*
X359250Y27500D02*
X362250D01*
X360750Y26000D02*
Y29000D01*
X378500Y27750D02*
X381500D01*
X380000Y26250D02*
Y29250D01*
X378500Y19000D02*
X381500D01*
X380000Y17500D02*
Y20500D01*
X369000Y27500D02*
X372000D01*
X370500Y26000D02*
Y29000D01*
X369250Y750D02*
X372250D01*
X370750Y-750D02*
Y2250D01*
X359500Y9500D02*
X362500D01*
X361000Y8000D02*
Y11000D01*
X359500Y750D02*
X362500D01*
X361000Y-750D02*
Y2250D01*
X378750Y9750D02*
X381750D01*
X380250Y8250D02*
Y11250D01*
X378750Y1000D02*
X381750D01*
X380250Y-500D02*
Y2500D01*
X369250Y9500D02*
X372250D01*
X370750Y8000D02*
Y11000D01*
X350250Y9500D02*
X353250D01*
X351750Y8000D02*
Y11000D01*
X341500Y750D02*
X344500D01*
X343000Y-750D02*
Y2250D01*
X341500Y9500D02*
X344500D01*
X343000Y8000D02*
Y11000D01*
X341250Y18750D02*
X344250D01*
X342750Y17250D02*
Y20250D01*
X341250Y27500D02*
X344250D01*
X342750Y26000D02*
Y29000D01*
X350250Y750D02*
X353250D01*
X351750Y-750D02*
Y2250D01*
X350000Y27500D02*
X353000D01*
X351500Y26000D02*
Y29000D01*
X350000Y18750D02*
X353000D01*
X351500Y17250D02*
Y20250D01*
X332000Y500D02*
X335000D01*
X333500Y-1000D02*
Y2000D01*
X312750Y18500D02*
X315750D01*
X314250Y17000D02*
Y20000D01*
X322000Y18500D02*
X325000D01*
X323500Y17000D02*
Y20000D01*
X331750Y27250D02*
X334750D01*
X333250Y25750D02*
Y28750D01*
X313000Y9250D02*
X316000D01*
X314500Y7750D02*
Y10750D01*
X313000Y500D02*
X316000D01*
X314500Y-1000D02*
Y2000D01*
X322250Y9250D02*
X325250D01*
X323750Y7750D02*
Y10750D01*
X322000Y27250D02*
X325000D01*
X323500Y25750D02*
Y28750D01*
X331750Y18500D02*
X334750D01*
X333250Y17000D02*
Y20000D01*
X322250Y500D02*
X325250D01*
X323750Y-1000D02*
Y2000D01*
X332000Y9250D02*
X335000D01*
X333500Y7750D02*
Y10750D01*
X312750Y27250D02*
X315750D01*
X314250Y25750D02*
Y28750D01*
X310000Y295000D02*
X313000D01*
X311500Y293500D02*
Y296500D01*
X310000Y286250D02*
X313000D01*
X311500Y284750D02*
Y287750D01*
X309750Y304250D02*
X312750D01*
X311250Y302750D02*
Y305750D01*
X309750Y313000D02*
X312750D01*
X311250Y311500D02*
Y314500D01*
X319250Y295000D02*
X322250D01*
X320750Y293500D02*
Y296500D01*
X319250Y286250D02*
X322250D01*
X320750Y284750D02*
Y287750D01*
X319000Y304250D02*
X322000D01*
X320500Y302750D02*
Y305750D01*
X319000Y313000D02*
X322000D01*
X320500Y311500D02*
Y314500D01*
X329000Y295000D02*
X332000D01*
X330500Y293500D02*
Y296500D01*
X329000Y286250D02*
X332000D01*
X330500Y284750D02*
Y287750D01*
X328750Y304250D02*
X331750D01*
X330250Y302750D02*
Y305750D01*
X328750Y313000D02*
X331750D01*
X330250Y311500D02*
Y314500D01*
X338500Y295250D02*
X341500D01*
X340000Y293750D02*
Y296750D01*
X338500Y286500D02*
X341500D01*
X340000Y285000D02*
Y288000D01*
X338250Y304500D02*
X341250D01*
X339750Y303000D02*
Y306000D01*
X338250Y313250D02*
X341250D01*
X339750Y311750D02*
Y314750D01*
X375500Y313500D02*
X378500D01*
X377000Y312000D02*
Y315000D01*
X375500Y304750D02*
X378500D01*
X377000Y303250D02*
Y306250D01*
X375750Y286750D02*
X378750D01*
X377250Y285250D02*
Y288250D01*
X375750Y295500D02*
X378750D01*
X377250Y294000D02*
Y297000D01*
X366000Y313250D02*
X369000D01*
X367500Y311750D02*
Y314750D01*
X366000Y304500D02*
X369000D01*
X367500Y303000D02*
Y306000D01*
X366250Y286500D02*
X369250D01*
X367750Y285000D02*
Y288000D01*
X366250Y295250D02*
X369250D01*
X367750Y293750D02*
Y296750D01*
X356250Y313250D02*
X359250D01*
X357750Y311750D02*
Y314750D01*
X356250Y304500D02*
X359250D01*
X357750Y303000D02*
Y306000D01*
X356500Y286500D02*
X359500D01*
X358000Y285000D02*
Y288000D01*
X356500Y295250D02*
X359500D01*
X358000Y293750D02*
Y296750D01*
X347000Y313250D02*
X350000D01*
X348500Y311750D02*
Y314750D01*
X347000Y304500D02*
X350000D01*
X348500Y303000D02*
Y306000D01*
X347250Y286500D02*
X350250D01*
X348750Y285000D02*
Y288000D01*
X347250Y295250D02*
X350250D01*
X348750Y293750D02*
Y296750D01*
X312000Y130250D02*
X315000D01*
X313500Y128750D02*
Y131750D01*
X312000Y121500D02*
X315000D01*
X313500Y120000D02*
Y123000D01*
X311750Y139500D02*
X314750D01*
X313250Y138000D02*
Y141000D01*
X311750Y148250D02*
X314750D01*
X313250Y146750D02*
Y149750D01*
X321250Y130250D02*
X324250D01*
X322750Y128750D02*
Y131750D01*
X321250Y121500D02*
X324250D01*
X322750Y120000D02*
Y123000D01*
X321000Y139500D02*
X324000D01*
X322500Y138000D02*
Y141000D01*
X321000Y148250D02*
X324000D01*
X322500Y146750D02*
Y149750D01*
X331000Y130250D02*
X334000D01*
X332500Y128750D02*
Y131750D01*
X331000Y121500D02*
X334000D01*
X332500Y120000D02*
Y123000D01*
X330750Y139500D02*
X333750D01*
X332250Y138000D02*
Y141000D01*
X330750Y148250D02*
X333750D01*
X332250Y146750D02*
Y149750D01*
X340500Y130500D02*
X343500D01*
X342000Y129000D02*
Y132000D01*
X340500Y121750D02*
X343500D01*
X342000Y120250D02*
Y123250D01*
X340250Y139750D02*
X343250D01*
X341750Y138250D02*
Y141250D01*
X340250Y148500D02*
X343250D01*
X341750Y147000D02*
Y150000D01*
X377500Y148750D02*
X380500D01*
X379000Y147250D02*
Y150250D01*
X377500Y140000D02*
X380500D01*
X379000Y138500D02*
Y141500D01*
X377750Y122000D02*
X380750D01*
X379250Y120500D02*
Y123500D01*
X377750Y130750D02*
X380750D01*
X379250Y129250D02*
Y132250D01*
X368000Y148500D02*
X371000D01*
X369500Y147000D02*
Y150000D01*
X368000Y139750D02*
X371000D01*
X369500Y138250D02*
Y141250D01*
X368250Y121750D02*
X371250D01*
X369750Y120250D02*
Y123250D01*
X368250Y130500D02*
X371250D01*
X369750Y129000D02*
Y132000D01*
X358250Y148500D02*
X361250D01*
X359750Y147000D02*
Y150000D01*
X358250Y139750D02*
X361250D01*
X359750Y138250D02*
Y141250D01*
X358500Y121750D02*
X361500D01*
X360000Y120250D02*
Y123250D01*
X358500Y130500D02*
X361500D01*
X360000Y129000D02*
Y132000D01*
X349000Y148500D02*
X352000D01*
X350500Y147000D02*
Y150000D01*
X349000Y139750D02*
X352000D01*
X350500Y138250D02*
Y141250D01*
X349250Y121750D02*
X352250D01*
X350750Y120250D02*
Y123250D01*
X349250Y130500D02*
X352250D01*
X350750Y129000D02*
Y132000D01*
X313750Y-259000D02*
X316750D01*
X315250Y-260500D02*
Y-257500D01*
X313750Y-267750D02*
X316750D01*
X315250Y-269250D02*
Y-266250D01*
X313500Y-249750D02*
X316500D01*
X315000Y-251250D02*
Y-248250D01*
X313500Y-241000D02*
X316500D01*
X315000Y-242500D02*
Y-239500D01*
X323000Y-259000D02*
X326000D01*
X324500Y-260500D02*
Y-257500D01*
X323000Y-267750D02*
X326000D01*
X324500Y-269250D02*
Y-266250D01*
X322750Y-249750D02*
X325750D01*
X324250Y-251250D02*
Y-248250D01*
X322750Y-241000D02*
X325750D01*
X324250Y-242500D02*
Y-239500D01*
X332750Y-259000D02*
X335750D01*
X334250Y-260500D02*
Y-257500D01*
X332750Y-267750D02*
X335750D01*
X334250Y-269250D02*
Y-266250D01*
X332500Y-249750D02*
X335500D01*
X334000Y-251250D02*
Y-248250D01*
X332500Y-241000D02*
X335500D01*
X334000Y-242500D02*
Y-239500D01*
X342250Y-258750D02*
X345250D01*
X343750Y-260250D02*
Y-257250D01*
X342250Y-267500D02*
X345250D01*
X343750Y-269000D02*
Y-266000D01*
X342000Y-249500D02*
X345000D01*
X343500Y-251000D02*
Y-248000D01*
X342000Y-240750D02*
X345000D01*
X343500Y-242250D02*
Y-239250D01*
X304750Y-241000D02*
X307750D01*
X306250Y-242500D02*
Y-239500D01*
X304750Y-249750D02*
X307750D01*
X306250Y-251250D02*
Y-248250D01*
X305000Y-267750D02*
X308000D01*
X306500Y-269250D02*
Y-266250D01*
X305000Y-259000D02*
X308000D01*
X306500Y-260500D02*
Y-257500D01*
X295250Y-241250D02*
X298250D01*
X296750Y-242750D02*
Y-239750D01*
X295250Y-250000D02*
X298250D01*
X296750Y-251500D02*
Y-248500D01*
X295500Y-268000D02*
X298500D01*
X297000Y-269500D02*
Y-266500D01*
X295500Y-259250D02*
X298500D01*
X297000Y-260750D02*
Y-257750D01*
X285500Y-241250D02*
X288500D01*
X287000Y-242750D02*
Y-239750D01*
X285500Y-250000D02*
X288500D01*
X287000Y-251500D02*
Y-248500D01*
X285750Y-268000D02*
X288750D01*
X287250Y-269500D02*
Y-266500D01*
X285750Y-259250D02*
X288750D01*
X287250Y-260750D02*
Y-257750D01*
X276250Y-241250D02*
X279250D01*
X277750Y-242750D02*
Y-239750D01*
X276250Y-250000D02*
X279250D01*
X277750Y-251500D02*
Y-248500D01*
X276500Y-268000D02*
X279500D01*
X278000Y-269500D02*
Y-266500D01*
X276500Y-259250D02*
X279500D01*
X278000Y-260750D02*
Y-257750D01*
X35750Y13000D02*
X38750D01*
X37250Y11500D02*
Y14500D01*
X147500Y-10000D02*
X150500D01*
X149000Y-11500D02*
Y-8500D01*
X71500Y-33000D02*
X74500D01*
X73000Y-34500D02*
Y-31500D01*
X-89500Y-104000D02*
X-86500D01*
X-88000Y-105500D02*
Y-102500D01*
X-98250Y-104250D02*
X-95250D01*
X-96750Y-105750D02*
Y-102750D01*
X-108000Y-104250D02*
X-105000D01*
X-106500Y-105750D02*
Y-102750D01*
X15250Y-33750D02*
X18250D01*
X16750Y-35250D02*
Y-32250D01*
X14694Y-23043D02*
X17694D01*
X16194Y-24543D02*
Y-21543D01*
X17796Y-6366D02*
X20796D01*
X19296Y-7866D02*
Y-4866D01*
X-9917Y13142D02*
X-6917D01*
X-8417Y11642D02*
Y14642D01*
X-18667Y13392D02*
X-15667D01*
X-17167Y11892D02*
Y14892D01*
X15500Y25500D02*
X18500D01*
X17000Y24000D02*
Y27000D01*
X178750Y260250D02*
X182750D01*
X180750Y258250D02*
Y262250D01*
X-160000Y140000D02*
X-157000D01*
X-158500Y138500D02*
Y141500D01*
X-160000Y131250D02*
X-157000D01*
X-158500Y129750D02*
Y132750D01*
X-160250Y149250D02*
X-157250D01*
X-158750Y147750D02*
Y150750D01*
X-160250Y158000D02*
X-157250D01*
X-158750Y156500D02*
Y159500D01*
%TF.MD5,d311798532124326305f5a451bf6b44b*%
M02*
