%TF.GenerationSoftware,Altium Limited,Altium Designer,22.5.1 (42)*%
G04 Layer_Color=2752767*
%FSLAX44Y44*%
%MOMM*%
%TF.SameCoordinates,B102F14A-A54C-4FC6-BF91-0F17097562DF*%
%TF.FilePolarity,Positive*%
%TF.FileFunction,Drawing*%
%TF.Part,Single*%
G01*
G75*
%TA.AperFunction,NonConductor*%
%ADD72C,0.1270*%
%ADD138C,0.1693*%
%ADD139C,0.1016*%
D72*
X39670Y-8830D02*
X42210D01*
X44750Y-6290D01*
X47290Y-8830D01*
X49830D01*
Y-6290D01*
X47290Y-3750D01*
X49830Y-1210D01*
Y1330D01*
X47290D01*
X44750Y-1210D01*
X42210Y1330D01*
X39670D01*
Y-1210D01*
X42210Y-3750D01*
X39670Y-6290D01*
Y-8830D01*
Y-34330D02*
X42210D01*
X44750Y-31790D01*
X47290Y-34330D01*
X49830D01*
Y-31790D01*
X47290Y-29250D01*
X49830Y-26710D01*
Y-24170D01*
X47290D01*
X44750Y-26710D01*
X42210Y-24170D01*
X39670D01*
Y-26710D01*
X42210Y-29250D01*
X39670Y-31790D01*
Y-34330D01*
X31920Y-21580D02*
X34460D01*
X37000Y-19040D01*
X39540Y-21580D01*
X42080D01*
Y-19040D01*
X39540Y-16500D01*
X42080Y-13960D01*
Y-11420D01*
X39540D01*
X37000Y-13960D01*
X34460Y-11420D01*
X31920D01*
Y-13960D01*
X34460Y-16500D01*
X31920Y-19040D01*
Y-21580D01*
X47420D02*
X49960D01*
X52500Y-19040D01*
X55040Y-21580D01*
X57580D01*
Y-19040D01*
X55040Y-16500D01*
X57580Y-13960D01*
Y-11420D01*
X55040D01*
X52500Y-13960D01*
X49960Y-11420D01*
X47420D01*
Y-13960D01*
X49960Y-16500D01*
X47420Y-19040D01*
Y-21580D01*
X-428580Y-243780D02*
X-426040Y-238700D01*
X-428580Y-233620D01*
X-423500Y-236160D01*
X-418420Y-233620D01*
X-420960Y-238700D01*
X-418420Y-243780D01*
X-423500Y-241240D01*
X-428580Y-243780D01*
Y-164580D02*
X-426040Y-159500D01*
X-428580Y-154420D01*
X-423500Y-156960D01*
X-418420Y-154420D01*
X-420960Y-159500D01*
X-418420Y-164580D01*
X-423500Y-162040D01*
X-428580Y-164580D01*
Y-204180D02*
X-426040Y-199100D01*
X-428580Y-194020D01*
X-423500Y-196560D01*
X-418420Y-194020D01*
X-420960Y-199100D01*
X-418420Y-204180D01*
X-423500Y-201640D01*
X-428580Y-204180D01*
Y13220D02*
X-426040Y18300D01*
X-428580Y23380D01*
X-423500Y20840D01*
X-418420Y23380D01*
X-420960Y18300D01*
X-418420Y13220D01*
X-423500Y15760D01*
X-428580Y13220D01*
Y92420D02*
X-426040Y97500D01*
X-428580Y102580D01*
X-423500Y100040D01*
X-418420Y102580D01*
X-420960Y97500D01*
X-418420Y92420D01*
X-423500Y94960D01*
X-428580Y92420D01*
Y52820D02*
X-426040Y57900D01*
X-428580Y62980D01*
X-423500Y60440D01*
X-418420Y62980D01*
X-420960Y57900D01*
X-418420Y52820D01*
X-423500Y55360D01*
X-428580Y52820D01*
X-451830Y134500D02*
X-446750Y139580D01*
X-441670Y134500D01*
X-446750Y129420D01*
X-451830Y134500D01*
X-476830Y161500D02*
X-471750Y166580D01*
X-466670Y161500D01*
X-471750Y156420D01*
X-476830Y161500D01*
X-426830D02*
X-421750Y166580D01*
X-416670Y161500D01*
X-421750Y156420D01*
X-426830Y161500D01*
X-451080Y204750D02*
X-446000Y209830D01*
X-440920Y204750D01*
X-446000Y199670D01*
X-451080Y204750D01*
X-476080Y231750D02*
X-471000Y236830D01*
X-465920Y231750D01*
X-471000Y226670D01*
X-476080Y231750D01*
X-426080D02*
X-421000Y236830D01*
X-415920Y231750D01*
X-421000Y226670D01*
X-426080Y231750D01*
X110760Y-322940D02*
Y-325480D01*
X115840D01*
Y-322940D01*
X118380D01*
Y-317860D01*
X115840D01*
Y-315320D01*
X110760D01*
Y-317860D01*
X108220D01*
Y-322940D01*
X110760D01*
Y-297540D02*
Y-300080D01*
X115840D01*
Y-297540D01*
X118380D01*
Y-292460D01*
X115840D01*
Y-289920D01*
X110760D01*
Y-292460D01*
X108220D01*
Y-297540D01*
X110760D01*
X161560Y-322940D02*
Y-325480D01*
X166640D01*
Y-322940D01*
X169180D01*
Y-317860D01*
X166640D01*
Y-315320D01*
X161560D01*
Y-317860D01*
X159020D01*
Y-322940D01*
X161560D01*
Y-297540D02*
Y-300080D01*
X166640D01*
Y-297540D01*
X169180D01*
Y-292460D01*
X166640D01*
Y-289920D01*
X161560D01*
Y-292460D01*
X159020D01*
Y-297540D01*
X161560D01*
X212360Y-322940D02*
Y-325480D01*
X217440D01*
Y-322940D01*
X219980D01*
Y-317860D01*
X217440D01*
Y-315320D01*
X212360D01*
Y-317860D01*
X209820D01*
Y-322940D01*
X212360D01*
X186960D02*
Y-325480D01*
X192040D01*
Y-322940D01*
X194580D01*
Y-317860D01*
X192040D01*
Y-315320D01*
X186960D01*
Y-317860D01*
X184420D01*
Y-322940D01*
X186960D01*
Y-297540D02*
Y-300080D01*
X192040D01*
Y-297540D01*
X194580D01*
Y-292460D01*
X192040D01*
Y-289920D01*
X186960D01*
Y-292460D01*
X184420D01*
Y-297540D01*
X186960D01*
X212360D02*
Y-300080D01*
X217440D01*
Y-297540D01*
X219980D01*
Y-292460D01*
X217440D01*
Y-289920D01*
X212360D01*
Y-292460D01*
X209820D01*
Y-297540D01*
X212360D01*
X136160D02*
Y-300080D01*
X141240D01*
Y-297540D01*
X143780D01*
Y-292460D01*
X141240D01*
Y-289920D01*
X136160D01*
Y-292460D01*
X133620D01*
Y-297540D01*
X136160D01*
Y-322940D02*
Y-325480D01*
X141240D01*
Y-322940D01*
X143780D01*
Y-317860D01*
X141240D01*
Y-315320D01*
X136160D01*
Y-317860D01*
X133620D01*
Y-322940D01*
X136160D01*
X436420Y-211080D02*
Y-200920D01*
X446580D01*
Y-211080D01*
X436420D01*
Y-79680D02*
Y-69520D01*
X446580D01*
Y-79680D01*
X436420D01*
X429670Y218500D02*
X434750Y223580D01*
X439830Y218500D01*
X434750Y213420D01*
X429670Y218500D01*
X454670Y191500D02*
X459750Y196580D01*
X464830Y191500D01*
X459750Y186420D01*
X454670Y191500D01*
X404670D02*
X409750Y196580D01*
X414830Y191500D01*
X409750Y186420D01*
X404670Y191500D01*
X-37500Y243170D02*
X-34960Y245710D01*
X-32420D01*
X-34960Y248250D01*
X-32420Y250790D01*
X-34960D01*
X-37500Y253330D01*
X-40040Y250790D01*
X-42580D01*
X-40040Y248250D01*
X-42580Y245710D01*
X-40040D01*
X-37500Y243170D01*
X34500D02*
X37040Y245710D01*
X39580D01*
X37040Y248250D01*
X39580Y250790D01*
X37040D01*
X34500Y253330D01*
X31960Y250790D01*
X29420D01*
X31960Y248250D01*
X29420Y245710D01*
X31960D01*
X34500Y243170D01*
X-69000Y303170D02*
X-74080Y313330D01*
X-63920D01*
X-69000Y303170D01*
X66000D02*
X60920Y313330D01*
X71080D01*
X66000Y303170D01*
X-428580Y-115280D02*
X-426040Y-110200D01*
X-428580Y-105120D01*
X-423500Y-107660D01*
X-418420Y-105120D01*
X-420960Y-110200D01*
X-418420Y-115280D01*
X-423500Y-112740D01*
X-428580Y-115280D01*
Y-36080D02*
X-426040Y-31000D01*
X-428580Y-25920D01*
X-423500Y-28460D01*
X-418420Y-25920D01*
X-420960Y-31000D01*
X-418420Y-36080D01*
X-423500Y-33540D01*
X-428580Y-36080D01*
Y-75680D02*
X-426040Y-70600D01*
X-428580Y-65520D01*
X-423500Y-68060D01*
X-418420Y-65520D01*
X-420960Y-70600D01*
X-418420Y-75680D01*
X-423500Y-73140D01*
X-428580Y-75680D01*
X293960Y-322440D02*
Y-324980D01*
X299040D01*
Y-322440D01*
X301580D01*
Y-317360D01*
X299040D01*
Y-314820D01*
X293960D01*
Y-317360D01*
X291420D01*
Y-322440D01*
X293960D01*
Y-297040D02*
Y-299580D01*
X299040D01*
Y-297040D01*
X301580D01*
Y-291960D01*
X299040D01*
Y-289420D01*
X293960D01*
Y-291960D01*
X291420D01*
Y-297040D01*
X293960D01*
X370160D02*
Y-299580D01*
X375240D01*
Y-297040D01*
X377780D01*
Y-291960D01*
X375240D01*
Y-289420D01*
X370160D01*
Y-291960D01*
X367620D01*
Y-297040D01*
X370160D01*
X344760D02*
Y-299580D01*
X349840D01*
Y-297040D01*
X352380D01*
Y-291960D01*
X349840D01*
Y-289420D01*
X344760D01*
Y-291960D01*
X342220D01*
Y-297040D01*
X344760D01*
Y-322440D02*
Y-324980D01*
X349840D01*
Y-322440D01*
X352380D01*
Y-317360D01*
X349840D01*
Y-314820D01*
X344760D01*
Y-317360D01*
X342220D01*
Y-322440D01*
X344760D01*
X370160D02*
Y-324980D01*
X375240D01*
Y-322440D01*
X377780D01*
Y-317360D01*
X375240D01*
Y-314820D01*
X370160D01*
Y-317360D01*
X367620D01*
Y-322440D01*
X370160D01*
X319360Y-297040D02*
Y-299580D01*
X324440D01*
Y-297040D01*
X326980D01*
Y-291960D01*
X324440D01*
Y-289420D01*
X319360D01*
Y-291960D01*
X316820D01*
Y-297040D01*
X319360D01*
Y-322440D02*
Y-324980D01*
X324440D01*
Y-322440D01*
X326980D01*
Y-317360D01*
X324440D01*
Y-314820D01*
X319360D01*
Y-317360D01*
X316820D01*
Y-322440D01*
X319360D01*
X268560Y-297040D02*
Y-299580D01*
X273640D01*
Y-297040D01*
X276180D01*
Y-291960D01*
X273640D01*
Y-289420D01*
X268560D01*
Y-291960D01*
X266020D01*
Y-297040D01*
X268560D01*
Y-322440D02*
Y-324980D01*
X273640D01*
Y-322440D01*
X276180D01*
Y-317360D01*
X273640D01*
Y-314820D01*
X268560D01*
Y-317360D01*
X266020D01*
Y-322440D01*
X268560D01*
X-400340Y-324040D02*
Y-326580D01*
X-395260D01*
Y-324040D01*
X-392720D01*
Y-318960D01*
X-395260D01*
Y-316420D01*
X-400340D01*
Y-318960D01*
X-402880D01*
Y-324040D01*
X-400340D01*
X-349540Y-324040D02*
Y-326580D01*
X-344460D01*
Y-324040D01*
X-341920D01*
Y-318960D01*
X-344460D01*
Y-316420D01*
X-349540D01*
Y-318960D01*
X-352080D01*
Y-324040D01*
X-349540D01*
X-324140D02*
Y-326580D01*
X-319060D01*
Y-324040D01*
X-316520D01*
Y-318960D01*
X-319060D01*
Y-316420D01*
X-324140D01*
Y-318960D01*
X-326680D01*
Y-324040D01*
X-324140D01*
X-298740D02*
Y-326580D01*
X-293660D01*
Y-324040D01*
X-291120D01*
Y-318960D01*
X-293660D01*
Y-316420D01*
X-298740D01*
Y-318960D01*
X-301280D01*
Y-324040D01*
X-298740D01*
X-374940D02*
Y-326580D01*
X-369860D01*
Y-324040D01*
X-367320D01*
Y-318960D01*
X-369860D01*
Y-316420D01*
X-374940D01*
Y-318960D01*
X-377480D01*
Y-324040D01*
X-374940D01*
X-455080Y294920D02*
Y305080D01*
X-444920D01*
Y294920D01*
X-455080D01*
X-453048Y296952D02*
Y303048D01*
X-446952D01*
Y296952D01*
X-453048D01*
X444920Y294920D02*
Y305080D01*
X455080D01*
Y294920D01*
X444920D01*
X446952Y296952D02*
Y303048D01*
X453048D01*
Y296952D01*
X446952D01*
X-455080Y-305080D02*
Y-294920D01*
X-444920D01*
Y-305080D01*
X-455080D01*
X-453048Y-303048D02*
Y-296952D01*
X-446952D01*
Y-303048D01*
X-453048D01*
X444920Y-305080D02*
Y-294920D01*
X455080D01*
Y-305080D01*
X444920D01*
X446952Y-303048D02*
Y-296952D01*
X453048D01*
Y-303048D01*
X446952D01*
X-223330Y-311330D02*
X-220790Y-306250D01*
X-223330Y-301170D01*
X-218250Y-303710D01*
X-213170Y-301170D01*
X-215710Y-306250D01*
X-213170Y-311330D01*
X-218250Y-308790D01*
X-223330Y-311330D01*
X-262930D02*
X-260390Y-306250D01*
X-262930Y-301170D01*
X-257850Y-303710D01*
X-252770Y-301170D01*
X-255310Y-306250D01*
X-252770Y-311330D01*
X-257850Y-308790D01*
X-262930Y-311330D01*
X-183730D02*
X-181190Y-306250D01*
X-183730Y-301170D01*
X-178650Y-303710D01*
X-173570Y-301170D01*
X-176110Y-306250D01*
X-173570Y-311330D01*
X-178650Y-308790D01*
X-183730Y-311330D01*
X-97830Y-311580D02*
X-95290Y-306500D01*
X-97830Y-301420D01*
X-92750Y-303960D01*
X-87670Y-301420D01*
X-90210Y-306500D01*
X-87670Y-311580D01*
X-92750Y-309040D01*
X-97830Y-311580D01*
X-137430D02*
X-134890Y-306500D01*
X-137430Y-301420D01*
X-132350Y-303960D01*
X-127270Y-301420D01*
X-129810Y-306500D01*
X-127270Y-311580D01*
X-132350Y-309040D01*
X-137430Y-311580D01*
X-58230D02*
X-55690Y-306500D01*
X-58230Y-301420D01*
X-53150Y-303960D01*
X-48070Y-301420D01*
X-50610Y-306500D01*
X-48070Y-311580D01*
X-53150Y-309040D01*
X-58230Y-311580D01*
X-288500Y-113830D02*
X-285960Y-111290D01*
X-283420D01*
X-285960Y-108750D01*
X-283420Y-106210D01*
X-285960D01*
X-288500Y-103670D01*
X-291040Y-106210D01*
X-293580D01*
X-291040Y-108750D01*
X-293580Y-111290D01*
X-291040D01*
X-288500Y-113830D01*
Y-111798D02*
X-286976Y-110274D01*
X-285452D01*
X-286976Y-108750D01*
X-285452Y-107226D01*
X-286976D01*
X-288500Y-105702D01*
X-290024Y-107226D01*
X-291548D01*
X-290024Y-108750D01*
X-291548Y-110274D01*
X-290024D01*
X-288500Y-111798D01*
X-38250Y-248330D02*
X-35710Y-245790D01*
X-33170D01*
X-35710Y-243250D01*
X-33170Y-240710D01*
X-35710D01*
X-38250Y-238170D01*
X-40790Y-240710D01*
X-43330D01*
X-40790Y-243250D01*
X-43330Y-245790D01*
X-40790D01*
X-38250Y-248330D01*
Y-246298D02*
X-36726Y-244774D01*
X-35202D01*
X-36726Y-243250D01*
X-35202Y-241726D01*
X-36726D01*
X-38250Y-240202D01*
X-39774Y-241726D01*
X-41298D01*
X-39774Y-243250D01*
X-41298Y-244774D01*
X-39774D01*
X-38250Y-246298D01*
X-29500Y-248330D02*
X-26960Y-245790D01*
X-24420D01*
X-26960Y-243250D01*
X-24420Y-240710D01*
X-26960D01*
X-29500Y-238170D01*
X-32040Y-240710D01*
X-34580D01*
X-32040Y-243250D01*
X-34580Y-245790D01*
X-32040D01*
X-29500Y-248330D01*
Y-246298D02*
X-27976Y-244774D01*
X-26452D01*
X-27976Y-243250D01*
X-26452Y-241726D01*
X-27976D01*
X-29500Y-240202D01*
X-31024Y-241726D01*
X-32548D01*
X-31024Y-243250D01*
X-32548Y-244774D01*
X-31024D01*
X-29500Y-246298D01*
X-47500Y-248580D02*
X-44960Y-246040D01*
X-42420D01*
X-44960Y-243500D01*
X-42420Y-240960D01*
X-44960D01*
X-47500Y-238420D01*
X-50040Y-240960D01*
X-52580D01*
X-50040Y-243500D01*
X-52580Y-246040D01*
X-50040D01*
X-47500Y-248580D01*
Y-246548D02*
X-45976Y-245024D01*
X-44452D01*
X-45976Y-243500D01*
X-44452Y-241976D01*
X-45976D01*
X-47500Y-240452D01*
X-49024Y-241976D01*
X-50548D01*
X-49024Y-243500D01*
X-50548Y-245024D01*
X-49024D01*
X-47500Y-246548D01*
X-56250Y-248580D02*
X-53710Y-246040D01*
X-51170D01*
X-53710Y-243500D01*
X-51170Y-240960D01*
X-53710D01*
X-56250Y-238420D01*
X-58790Y-240960D01*
X-61330D01*
X-58790Y-243500D01*
X-61330Y-246040D01*
X-58790D01*
X-56250Y-248580D01*
Y-246548D02*
X-54726Y-245024D01*
X-53202D01*
X-54726Y-243500D01*
X-53202Y-241976D01*
X-54726D01*
X-56250Y-240452D01*
X-57774Y-241976D01*
X-59298D01*
X-57774Y-243500D01*
X-59298Y-245024D01*
X-57774D01*
X-56250Y-246548D01*
X-38250Y-239080D02*
X-35710Y-236540D01*
X-33170D01*
X-35710Y-234000D01*
X-33170Y-231460D01*
X-35710D01*
X-38250Y-228920D01*
X-40790Y-231460D01*
X-43330D01*
X-40790Y-234000D01*
X-43330Y-236540D01*
X-40790D01*
X-38250Y-239080D01*
Y-237048D02*
X-36726Y-235524D01*
X-35202D01*
X-36726Y-234000D01*
X-35202Y-232476D01*
X-36726D01*
X-38250Y-230952D01*
X-39774Y-232476D01*
X-41298D01*
X-39774Y-234000D01*
X-41298Y-235524D01*
X-39774D01*
X-38250Y-237048D01*
X-29500Y-239080D02*
X-26960Y-236540D01*
X-24420D01*
X-26960Y-234000D01*
X-24420Y-231460D01*
X-26960D01*
X-29500Y-228920D01*
X-32040Y-231460D01*
X-34580D01*
X-32040Y-234000D01*
X-34580Y-236540D01*
X-32040D01*
X-29500Y-239080D01*
Y-237048D02*
X-27976Y-235524D01*
X-26452D01*
X-27976Y-234000D01*
X-26452Y-232476D01*
X-27976D01*
X-29500Y-230952D01*
X-31024Y-232476D01*
X-32548D01*
X-31024Y-234000D01*
X-32548Y-235524D01*
X-31024D01*
X-29500Y-237048D01*
X-47500Y-239330D02*
X-44960Y-236790D01*
X-42420D01*
X-44960Y-234250D01*
X-42420Y-231710D01*
X-44960D01*
X-47500Y-229170D01*
X-50040Y-231710D01*
X-52580D01*
X-50040Y-234250D01*
X-52580Y-236790D01*
X-50040D01*
X-47500Y-239330D01*
Y-237298D02*
X-45976Y-235774D01*
X-44452D01*
X-45976Y-234250D01*
X-44452Y-232726D01*
X-45976D01*
X-47500Y-231202D01*
X-49024Y-232726D01*
X-50548D01*
X-49024Y-234250D01*
X-50548Y-235774D01*
X-49024D01*
X-47500Y-237298D01*
X-56250Y-239330D02*
X-53710Y-236790D01*
X-51170D01*
X-53710Y-234250D01*
X-51170Y-231710D01*
X-53710D01*
X-56250Y-229170D01*
X-58790Y-231710D01*
X-61330D01*
X-58790Y-234250D01*
X-61330Y-236790D01*
X-58790D01*
X-56250Y-239330D01*
Y-237298D02*
X-54726Y-235774D01*
X-53202D01*
X-54726Y-234250D01*
X-53202Y-232726D01*
X-54726D01*
X-56250Y-231202D01*
X-57774Y-232726D01*
X-59298D01*
X-57774Y-234250D01*
X-59298Y-235774D01*
X-57774D01*
X-56250Y-237298D01*
X-38250Y-229330D02*
X-35710Y-226790D01*
X-33170D01*
X-35710Y-224250D01*
X-33170Y-221710D01*
X-35710D01*
X-38250Y-219170D01*
X-40790Y-221710D01*
X-43330D01*
X-40790Y-224250D01*
X-43330Y-226790D01*
X-40790D01*
X-38250Y-229330D01*
Y-227298D02*
X-36726Y-225774D01*
X-35202D01*
X-36726Y-224250D01*
X-35202Y-222726D01*
X-36726D01*
X-38250Y-221202D01*
X-39774Y-222726D01*
X-41298D01*
X-39774Y-224250D01*
X-41298Y-225774D01*
X-39774D01*
X-38250Y-227298D01*
X-29500Y-229330D02*
X-26960Y-226790D01*
X-24420D01*
X-26960Y-224250D01*
X-24420Y-221710D01*
X-26960D01*
X-29500Y-219170D01*
X-32040Y-221710D01*
X-34580D01*
X-32040Y-224250D01*
X-34580Y-226790D01*
X-32040D01*
X-29500Y-229330D01*
Y-227298D02*
X-27976Y-225774D01*
X-26452D01*
X-27976Y-224250D01*
X-26452Y-222726D01*
X-27976D01*
X-29500Y-221202D01*
X-31024Y-222726D01*
X-32548D01*
X-31024Y-224250D01*
X-32548Y-225774D01*
X-31024D01*
X-29500Y-227298D01*
X-47500Y-229580D02*
X-44960Y-227040D01*
X-42420D01*
X-44960Y-224500D01*
X-42420Y-221960D01*
X-44960D01*
X-47500Y-219420D01*
X-50040Y-221960D01*
X-52580D01*
X-50040Y-224500D01*
X-52580Y-227040D01*
X-50040D01*
X-47500Y-229580D01*
Y-227548D02*
X-45976Y-226024D01*
X-44452D01*
X-45976Y-224500D01*
X-44452Y-222976D01*
X-45976D01*
X-47500Y-221452D01*
X-49024Y-222976D01*
X-50548D01*
X-49024Y-224500D01*
X-50548Y-226024D01*
X-49024D01*
X-47500Y-227548D01*
X-56250Y-229580D02*
X-53710Y-227040D01*
X-51170D01*
X-53710Y-224500D01*
X-51170Y-221960D01*
X-53710D01*
X-56250Y-219420D01*
X-58790Y-221960D01*
X-61330D01*
X-58790Y-224500D01*
X-61330Y-227040D01*
X-58790D01*
X-56250Y-229580D01*
Y-227548D02*
X-54726Y-226024D01*
X-53202D01*
X-54726Y-224500D01*
X-53202Y-222976D01*
X-54726D01*
X-56250Y-221452D01*
X-57774Y-222976D01*
X-59298D01*
X-57774Y-224500D01*
X-59298Y-226024D01*
X-57774D01*
X-56250Y-227548D01*
X-38500Y-219830D02*
X-35960Y-217290D01*
X-33420D01*
X-35960Y-214750D01*
X-33420Y-212210D01*
X-35960D01*
X-38500Y-209670D01*
X-41040Y-212210D01*
X-43580D01*
X-41040Y-214750D01*
X-43580Y-217290D01*
X-41040D01*
X-38500Y-219830D01*
Y-217798D02*
X-36976Y-216274D01*
X-35452D01*
X-36976Y-214750D01*
X-35452Y-213226D01*
X-36976D01*
X-38500Y-211702D01*
X-40024Y-213226D01*
X-41548D01*
X-40024Y-214750D01*
X-41548Y-216274D01*
X-40024D01*
X-38500Y-217798D01*
X-29750Y-219830D02*
X-27210Y-217290D01*
X-24670D01*
X-27210Y-214750D01*
X-24670Y-212210D01*
X-27210D01*
X-29750Y-209670D01*
X-32290Y-212210D01*
X-34830D01*
X-32290Y-214750D01*
X-34830Y-217290D01*
X-32290D01*
X-29750Y-219830D01*
Y-217798D02*
X-28226Y-216274D01*
X-26702D01*
X-28226Y-214750D01*
X-26702Y-213226D01*
X-28226D01*
X-29750Y-211702D01*
X-31274Y-213226D01*
X-32798D01*
X-31274Y-214750D01*
X-32798Y-216274D01*
X-31274D01*
X-29750Y-217798D01*
X-47750Y-220080D02*
X-45210Y-217540D01*
X-42670D01*
X-45210Y-215000D01*
X-42670Y-212460D01*
X-45210D01*
X-47750Y-209920D01*
X-50290Y-212460D01*
X-52830D01*
X-50290Y-215000D01*
X-52830Y-217540D01*
X-50290D01*
X-47750Y-220080D01*
Y-218048D02*
X-46226Y-216524D01*
X-44702D01*
X-46226Y-215000D01*
X-44702Y-213476D01*
X-46226D01*
X-47750Y-211952D01*
X-49274Y-213476D01*
X-50798D01*
X-49274Y-215000D01*
X-50798Y-216524D01*
X-49274D01*
X-47750Y-218048D01*
X-56500Y-220080D02*
X-53960Y-217540D01*
X-51420D01*
X-53960Y-215000D01*
X-51420Y-212460D01*
X-53960D01*
X-56500Y-209920D01*
X-59040Y-212460D01*
X-61580D01*
X-59040Y-215000D01*
X-61580Y-217540D01*
X-59040D01*
X-56500Y-220080D01*
Y-218048D02*
X-54976Y-216524D01*
X-53452D01*
X-54976Y-215000D01*
X-53452Y-213476D01*
X-54976D01*
X-56500Y-211952D01*
X-58024Y-213476D01*
X-59548D01*
X-58024Y-215000D01*
X-59548Y-216524D01*
X-58024D01*
X-56500Y-218048D01*
X-56250Y-257330D02*
X-53710Y-254790D01*
X-51170D01*
X-53710Y-252250D01*
X-51170Y-249710D01*
X-53710D01*
X-56250Y-247170D01*
X-58790Y-249710D01*
X-61330D01*
X-58790Y-252250D01*
X-61330Y-254790D01*
X-58790D01*
X-56250Y-257330D01*
Y-255298D02*
X-54726Y-253774D01*
X-53202D01*
X-54726Y-252250D01*
X-53202Y-250726D01*
X-54726D01*
X-56250Y-249202D01*
X-57774Y-250726D01*
X-59298D01*
X-57774Y-252250D01*
X-59298Y-253774D01*
X-57774D01*
X-56250Y-255298D01*
X-47500Y-257330D02*
X-44960Y-254790D01*
X-42420D01*
X-44960Y-252250D01*
X-42420Y-249710D01*
X-44960D01*
X-47500Y-247170D01*
X-50040Y-249710D01*
X-52580D01*
X-50040Y-252250D01*
X-52580Y-254790D01*
X-50040D01*
X-47500Y-257330D01*
Y-255298D02*
X-45976Y-253774D01*
X-44452D01*
X-45976Y-252250D01*
X-44452Y-250726D01*
X-45976D01*
X-47500Y-249202D01*
X-49024Y-250726D01*
X-50548D01*
X-49024Y-252250D01*
X-50548Y-253774D01*
X-49024D01*
X-47500Y-255298D01*
X-29500Y-257080D02*
X-26960Y-254540D01*
X-24420D01*
X-26960Y-252000D01*
X-24420Y-249460D01*
X-26960D01*
X-29500Y-246920D01*
X-32040Y-249460D01*
X-34580D01*
X-32040Y-252000D01*
X-34580Y-254540D01*
X-32040D01*
X-29500Y-257080D01*
Y-255048D02*
X-27976Y-253524D01*
X-26452D01*
X-27976Y-252000D01*
X-26452Y-250476D01*
X-27976D01*
X-29500Y-248952D01*
X-31024Y-250476D01*
X-32548D01*
X-31024Y-252000D01*
X-32548Y-253524D01*
X-31024D01*
X-29500Y-255048D01*
X-38250Y-257080D02*
X-35710Y-254540D01*
X-33170D01*
X-35710Y-252000D01*
X-33170Y-249460D01*
X-35710D01*
X-38250Y-246920D01*
X-40790Y-249460D01*
X-43330D01*
X-40790Y-252000D01*
X-43330Y-254540D01*
X-40790D01*
X-38250Y-257080D01*
Y-255048D02*
X-36726Y-253524D01*
X-35202D01*
X-36726Y-252000D01*
X-35202Y-250476D01*
X-36726D01*
X-38250Y-248952D01*
X-39774Y-250476D01*
X-41298D01*
X-39774Y-252000D01*
X-41298Y-253524D01*
X-39774D01*
X-38250Y-255048D01*
X-56000Y-266830D02*
X-53460Y-264290D01*
X-50920D01*
X-53460Y-261750D01*
X-50920Y-259210D01*
X-53460D01*
X-56000Y-256670D01*
X-58540Y-259210D01*
X-61080D01*
X-58540Y-261750D01*
X-61080Y-264290D01*
X-58540D01*
X-56000Y-266830D01*
Y-264798D02*
X-54476Y-263274D01*
X-52952D01*
X-54476Y-261750D01*
X-52952Y-260226D01*
X-54476D01*
X-56000Y-258702D01*
X-57524Y-260226D01*
X-59048D01*
X-57524Y-261750D01*
X-59048Y-263274D01*
X-57524D01*
X-56000Y-264798D01*
X-47250Y-266830D02*
X-44710Y-264290D01*
X-42170D01*
X-44710Y-261750D01*
X-42170Y-259210D01*
X-44710D01*
X-47250Y-256670D01*
X-49790Y-259210D01*
X-52330D01*
X-49790Y-261750D01*
X-52330Y-264290D01*
X-49790D01*
X-47250Y-266830D01*
Y-264798D02*
X-45726Y-263274D01*
X-44202D01*
X-45726Y-261750D01*
X-44202Y-260226D01*
X-45726D01*
X-47250Y-258702D01*
X-48774Y-260226D01*
X-50298D01*
X-48774Y-261750D01*
X-50298Y-263274D01*
X-48774D01*
X-47250Y-264798D01*
X-29250Y-266580D02*
X-26710Y-264040D01*
X-24170D01*
X-26710Y-261500D01*
X-24170Y-258960D01*
X-26710D01*
X-29250Y-256420D01*
X-31790Y-258960D01*
X-34330D01*
X-31790Y-261500D01*
X-34330Y-264040D01*
X-31790D01*
X-29250Y-266580D01*
Y-264548D02*
X-27726Y-263024D01*
X-26202D01*
X-27726Y-261500D01*
X-26202Y-259976D01*
X-27726D01*
X-29250Y-258452D01*
X-30774Y-259976D01*
X-32298D01*
X-30774Y-261500D01*
X-32298Y-263024D01*
X-30774D01*
X-29250Y-264548D01*
X-38000Y-266580D02*
X-35460Y-264040D01*
X-32920D01*
X-35460Y-261500D01*
X-32920Y-258960D01*
X-35460D01*
X-38000Y-256420D01*
X-40540Y-258960D01*
X-43080D01*
X-40540Y-261500D01*
X-43080Y-264040D01*
X-40540D01*
X-38000Y-266580D01*
Y-264548D02*
X-36476Y-263024D01*
X-34952D01*
X-36476Y-261500D01*
X-34952Y-259976D01*
X-36476D01*
X-38000Y-258452D01*
X-39524Y-259976D01*
X-41048D01*
X-39524Y-261500D01*
X-41048Y-263024D01*
X-39524D01*
X-38000Y-264548D01*
X-56000Y-276580D02*
X-53460Y-274040D01*
X-50920D01*
X-53460Y-271500D01*
X-50920Y-268960D01*
X-53460D01*
X-56000Y-266420D01*
X-58540Y-268960D01*
X-61080D01*
X-58540Y-271500D01*
X-61080Y-274040D01*
X-58540D01*
X-56000Y-276580D01*
Y-274548D02*
X-54476Y-273024D01*
X-52952D01*
X-54476Y-271500D01*
X-52952Y-269976D01*
X-54476D01*
X-56000Y-268452D01*
X-57524Y-269976D01*
X-59048D01*
X-57524Y-271500D01*
X-59048Y-273024D01*
X-57524D01*
X-56000Y-274548D01*
X-47250Y-276580D02*
X-44710Y-274040D01*
X-42170D01*
X-44710Y-271500D01*
X-42170Y-268960D01*
X-44710D01*
X-47250Y-266420D01*
X-49790Y-268960D01*
X-52330D01*
X-49790Y-271500D01*
X-52330Y-274040D01*
X-49790D01*
X-47250Y-276580D01*
Y-274548D02*
X-45726Y-273024D01*
X-44202D01*
X-45726Y-271500D01*
X-44202Y-269976D01*
X-45726D01*
X-47250Y-268452D01*
X-48774Y-269976D01*
X-50298D01*
X-48774Y-271500D01*
X-50298Y-273024D01*
X-48774D01*
X-47250Y-274548D01*
X-29250Y-276330D02*
X-26710Y-273790D01*
X-24170D01*
X-26710Y-271250D01*
X-24170Y-268710D01*
X-26710D01*
X-29250Y-266170D01*
X-31790Y-268710D01*
X-34330D01*
X-31790Y-271250D01*
X-34330Y-273790D01*
X-31790D01*
X-29250Y-276330D01*
Y-274298D02*
X-27726Y-272774D01*
X-26202D01*
X-27726Y-271250D01*
X-26202Y-269726D01*
X-27726D01*
X-29250Y-268202D01*
X-30774Y-269726D01*
X-32298D01*
X-30774Y-271250D01*
X-32298Y-272774D01*
X-30774D01*
X-29250Y-274298D01*
X-38000Y-276330D02*
X-35460Y-273790D01*
X-32920D01*
X-35460Y-271250D01*
X-32920Y-268710D01*
X-35460D01*
X-38000Y-266170D01*
X-40540Y-268710D01*
X-43080D01*
X-40540Y-271250D01*
X-43080Y-273790D01*
X-40540D01*
X-38000Y-276330D01*
Y-274298D02*
X-36476Y-272774D01*
X-34952D01*
X-36476Y-271250D01*
X-34952Y-269726D01*
X-36476D01*
X-38000Y-268202D01*
X-39524Y-269726D01*
X-41048D01*
X-39524Y-271250D01*
X-41048Y-272774D01*
X-39524D01*
X-38000Y-274298D01*
X-56000Y-285830D02*
X-53460Y-283290D01*
X-50920D01*
X-53460Y-280750D01*
X-50920Y-278210D01*
X-53460D01*
X-56000Y-275670D01*
X-58540Y-278210D01*
X-61080D01*
X-58540Y-280750D01*
X-61080Y-283290D01*
X-58540D01*
X-56000Y-285830D01*
Y-283798D02*
X-54476Y-282274D01*
X-52952D01*
X-54476Y-280750D01*
X-52952Y-279226D01*
X-54476D01*
X-56000Y-277702D01*
X-57524Y-279226D01*
X-59048D01*
X-57524Y-280750D01*
X-59048Y-282274D01*
X-57524D01*
X-56000Y-283798D01*
X-47250Y-285830D02*
X-44710Y-283290D01*
X-42170D01*
X-44710Y-280750D01*
X-42170Y-278210D01*
X-44710D01*
X-47250Y-275670D01*
X-49790Y-278210D01*
X-52330D01*
X-49790Y-280750D01*
X-52330Y-283290D01*
X-49790D01*
X-47250Y-285830D01*
Y-283798D02*
X-45726Y-282274D01*
X-44202D01*
X-45726Y-280750D01*
X-44202Y-279226D01*
X-45726D01*
X-47250Y-277702D01*
X-48774Y-279226D01*
X-50298D01*
X-48774Y-280750D01*
X-50298Y-282274D01*
X-48774D01*
X-47250Y-283798D01*
X-29250Y-285580D02*
X-26710Y-283040D01*
X-24170D01*
X-26710Y-280500D01*
X-24170Y-277960D01*
X-26710D01*
X-29250Y-275420D01*
X-31790Y-277960D01*
X-34330D01*
X-31790Y-280500D01*
X-34330Y-283040D01*
X-31790D01*
X-29250Y-285580D01*
Y-283548D02*
X-27726Y-282024D01*
X-26202D01*
X-27726Y-280500D01*
X-26202Y-278976D01*
X-27726D01*
X-29250Y-277452D01*
X-30774Y-278976D01*
X-32298D01*
X-30774Y-280500D01*
X-32298Y-282024D01*
X-30774D01*
X-29250Y-283548D01*
X-38000Y-285580D02*
X-35460Y-283040D01*
X-32920D01*
X-35460Y-280500D01*
X-32920Y-277960D01*
X-35460D01*
X-38000Y-275420D01*
X-40540Y-277960D01*
X-43080D01*
X-40540Y-280500D01*
X-43080Y-283040D01*
X-40540D01*
X-38000Y-285580D01*
Y-283548D02*
X-36476Y-282024D01*
X-34952D01*
X-36476Y-280500D01*
X-34952Y-278976D01*
X-36476D01*
X-38000Y-277452D01*
X-39524Y-278976D01*
X-41048D01*
X-39524Y-280500D01*
X-41048Y-282024D01*
X-39524D01*
X-38000Y-283548D01*
X-325500Y-34330D02*
X-322960Y-31790D01*
X-320420D01*
X-322960Y-29250D01*
X-320420Y-26710D01*
X-322960D01*
X-325500Y-24170D01*
X-328040Y-26710D01*
X-330580D01*
X-328040Y-29250D01*
X-330580Y-31790D01*
X-328040D01*
X-325500Y-34330D01*
Y-32298D02*
X-323976Y-30774D01*
X-322452D01*
X-323976Y-29250D01*
X-322452Y-27726D01*
X-323976D01*
X-325500Y-26202D01*
X-327024Y-27726D01*
X-328548D01*
X-327024Y-29250D01*
X-328548Y-30774D01*
X-327024D01*
X-325500Y-32298D01*
Y-43080D02*
X-322960Y-40540D01*
X-320420D01*
X-322960Y-38000D01*
X-320420Y-35460D01*
X-322960D01*
X-325500Y-32920D01*
X-328040Y-35460D01*
X-330580D01*
X-328040Y-38000D01*
X-330580Y-40540D01*
X-328040D01*
X-325500Y-43080D01*
Y-41048D02*
X-323976Y-39524D01*
X-322452D01*
X-323976Y-38000D01*
X-322452Y-36476D01*
X-323976D01*
X-325500Y-34952D01*
X-327024Y-36476D01*
X-328548D01*
X-327024Y-38000D01*
X-328548Y-39524D01*
X-327024D01*
X-325500Y-41048D01*
X-325750Y-25080D02*
X-323210Y-22540D01*
X-320670D01*
X-323210Y-20000D01*
X-320670Y-17460D01*
X-323210D01*
X-325750Y-14920D01*
X-328290Y-17460D01*
X-330830D01*
X-328290Y-20000D01*
X-330830Y-22540D01*
X-328290D01*
X-325750Y-25080D01*
Y-23048D02*
X-324226Y-21524D01*
X-322702D01*
X-324226Y-20000D01*
X-322702Y-18476D01*
X-324226D01*
X-325750Y-16952D01*
X-327274Y-18476D01*
X-328798D01*
X-327274Y-20000D01*
X-328798Y-21524D01*
X-327274D01*
X-325750Y-23048D01*
Y-16330D02*
X-323210Y-13790D01*
X-320670D01*
X-323210Y-11250D01*
X-320670Y-8710D01*
X-323210D01*
X-325750Y-6170D01*
X-328290Y-8710D01*
X-330830D01*
X-328290Y-11250D01*
X-330830Y-13790D01*
X-328290D01*
X-325750Y-16330D01*
Y-14298D02*
X-324226Y-12774D01*
X-322702D01*
X-324226Y-11250D01*
X-322702Y-9726D01*
X-324226D01*
X-325750Y-8202D01*
X-327274Y-9726D01*
X-328798D01*
X-327274Y-11250D01*
X-328798Y-12774D01*
X-327274D01*
X-325750Y-14298D01*
X-316250Y-34330D02*
X-313710Y-31790D01*
X-311170D01*
X-313710Y-29250D01*
X-311170Y-26710D01*
X-313710D01*
X-316250Y-24170D01*
X-318790Y-26710D01*
X-321330D01*
X-318790Y-29250D01*
X-321330Y-31790D01*
X-318790D01*
X-316250Y-34330D01*
Y-32298D02*
X-314726Y-30774D01*
X-313202D01*
X-314726Y-29250D01*
X-313202Y-27726D01*
X-314726D01*
X-316250Y-26202D01*
X-317774Y-27726D01*
X-319298D01*
X-317774Y-29250D01*
X-319298Y-30774D01*
X-317774D01*
X-316250Y-32298D01*
Y-43080D02*
X-313710Y-40540D01*
X-311170D01*
X-313710Y-38000D01*
X-311170Y-35460D01*
X-313710D01*
X-316250Y-32920D01*
X-318790Y-35460D01*
X-321330D01*
X-318790Y-38000D01*
X-321330Y-40540D01*
X-318790D01*
X-316250Y-43080D01*
Y-41048D02*
X-314726Y-39524D01*
X-313202D01*
X-314726Y-38000D01*
X-313202Y-36476D01*
X-314726D01*
X-316250Y-34952D01*
X-317774Y-36476D01*
X-319298D01*
X-317774Y-38000D01*
X-319298Y-39524D01*
X-317774D01*
X-316250Y-41048D01*
X-316500Y-25080D02*
X-313960Y-22540D01*
X-311420D01*
X-313960Y-20000D01*
X-311420Y-17460D01*
X-313960D01*
X-316500Y-14920D01*
X-319040Y-17460D01*
X-321580D01*
X-319040Y-20000D01*
X-321580Y-22540D01*
X-319040D01*
X-316500Y-25080D01*
Y-23048D02*
X-314976Y-21524D01*
X-313452D01*
X-314976Y-20000D01*
X-313452Y-18476D01*
X-314976D01*
X-316500Y-16952D01*
X-318024Y-18476D01*
X-319548D01*
X-318024Y-20000D01*
X-319548Y-21524D01*
X-318024D01*
X-316500Y-23048D01*
Y-16330D02*
X-313960Y-13790D01*
X-311420D01*
X-313960Y-11250D01*
X-311420Y-8710D01*
X-313960D01*
X-316500Y-6170D01*
X-319040Y-8710D01*
X-321580D01*
X-319040Y-11250D01*
X-321580Y-13790D01*
X-319040D01*
X-316500Y-16330D01*
Y-14298D02*
X-314976Y-12774D01*
X-313452D01*
X-314976Y-11250D01*
X-313452Y-9726D01*
X-314976D01*
X-316500Y-8202D01*
X-318024Y-9726D01*
X-319548D01*
X-318024Y-11250D01*
X-319548Y-12774D01*
X-318024D01*
X-316500Y-14298D01*
X-306500Y-34330D02*
X-303960Y-31790D01*
X-301420D01*
X-303960Y-29250D01*
X-301420Y-26710D01*
X-303960D01*
X-306500Y-24170D01*
X-309040Y-26710D01*
X-311580D01*
X-309040Y-29250D01*
X-311580Y-31790D01*
X-309040D01*
X-306500Y-34330D01*
Y-32298D02*
X-304976Y-30774D01*
X-303452D01*
X-304976Y-29250D01*
X-303452Y-27726D01*
X-304976D01*
X-306500Y-26202D01*
X-308024Y-27726D01*
X-309548D01*
X-308024Y-29250D01*
X-309548Y-30774D01*
X-308024D01*
X-306500Y-32298D01*
Y-43080D02*
X-303960Y-40540D01*
X-301420D01*
X-303960Y-38000D01*
X-301420Y-35460D01*
X-303960D01*
X-306500Y-32920D01*
X-309040Y-35460D01*
X-311580D01*
X-309040Y-38000D01*
X-311580Y-40540D01*
X-309040D01*
X-306500Y-43080D01*
Y-41048D02*
X-304976Y-39524D01*
X-303452D01*
X-304976Y-38000D01*
X-303452Y-36476D01*
X-304976D01*
X-306500Y-34952D01*
X-308024Y-36476D01*
X-309548D01*
X-308024Y-38000D01*
X-309548Y-39524D01*
X-308024D01*
X-306500Y-41048D01*
X-306750Y-25080D02*
X-304210Y-22540D01*
X-301670D01*
X-304210Y-20000D01*
X-301670Y-17460D01*
X-304210D01*
X-306750Y-14920D01*
X-309290Y-17460D01*
X-311830D01*
X-309290Y-20000D01*
X-311830Y-22540D01*
X-309290D01*
X-306750Y-25080D01*
Y-23048D02*
X-305226Y-21524D01*
X-303702D01*
X-305226Y-20000D01*
X-303702Y-18476D01*
X-305226D01*
X-306750Y-16952D01*
X-308274Y-18476D01*
X-309798D01*
X-308274Y-20000D01*
X-309798Y-21524D01*
X-308274D01*
X-306750Y-23048D01*
Y-16330D02*
X-304210Y-13790D01*
X-301670D01*
X-304210Y-11250D01*
X-301670Y-8710D01*
X-304210D01*
X-306750Y-6170D01*
X-309290Y-8710D01*
X-311830D01*
X-309290Y-11250D01*
X-311830Y-13790D01*
X-309290D01*
X-306750Y-16330D01*
Y-14298D02*
X-305226Y-12774D01*
X-303702D01*
X-305226Y-11250D01*
X-303702Y-9726D01*
X-305226D01*
X-306750Y-8202D01*
X-308274Y-9726D01*
X-309798D01*
X-308274Y-11250D01*
X-309798Y-12774D01*
X-308274D01*
X-306750Y-14298D01*
X-297000Y-34080D02*
X-294460Y-31540D01*
X-291920D01*
X-294460Y-29000D01*
X-291920Y-26460D01*
X-294460D01*
X-297000Y-23920D01*
X-299540Y-26460D01*
X-302080D01*
X-299540Y-29000D01*
X-302080Y-31540D01*
X-299540D01*
X-297000Y-34080D01*
Y-32048D02*
X-295476Y-30524D01*
X-293952D01*
X-295476Y-29000D01*
X-293952Y-27476D01*
X-295476D01*
X-297000Y-25952D01*
X-298524Y-27476D01*
X-300048D01*
X-298524Y-29000D01*
X-300048Y-30524D01*
X-298524D01*
X-297000Y-32048D01*
Y-42830D02*
X-294460Y-40290D01*
X-291920D01*
X-294460Y-37750D01*
X-291920Y-35210D01*
X-294460D01*
X-297000Y-32670D01*
X-299540Y-35210D01*
X-302080D01*
X-299540Y-37750D01*
X-302080Y-40290D01*
X-299540D01*
X-297000Y-42830D01*
Y-40798D02*
X-295476Y-39274D01*
X-293952D01*
X-295476Y-37750D01*
X-293952Y-36226D01*
X-295476D01*
X-297000Y-34702D01*
X-298524Y-36226D01*
X-300048D01*
X-298524Y-37750D01*
X-300048Y-39274D01*
X-298524D01*
X-297000Y-40798D01*
X-297250Y-24830D02*
X-294710Y-22290D01*
X-292170D01*
X-294710Y-19750D01*
X-292170Y-17210D01*
X-294710D01*
X-297250Y-14670D01*
X-299790Y-17210D01*
X-302330D01*
X-299790Y-19750D01*
X-302330Y-22290D01*
X-299790D01*
X-297250Y-24830D01*
Y-22798D02*
X-295726Y-21274D01*
X-294202D01*
X-295726Y-19750D01*
X-294202Y-18226D01*
X-295726D01*
X-297250Y-16702D01*
X-298774Y-18226D01*
X-300298D01*
X-298774Y-19750D01*
X-300298Y-21274D01*
X-298774D01*
X-297250Y-22798D01*
Y-16080D02*
X-294710Y-13540D01*
X-292170D01*
X-294710Y-11000D01*
X-292170Y-8460D01*
X-294710D01*
X-297250Y-5920D01*
X-299790Y-8460D01*
X-302330D01*
X-299790Y-11000D01*
X-302330Y-13540D01*
X-299790D01*
X-297250Y-16080D01*
Y-14048D02*
X-295726Y-12524D01*
X-294202D01*
X-295726Y-11000D01*
X-294202Y-9476D01*
X-295726D01*
X-297250Y-7952D01*
X-298774Y-9476D01*
X-300298D01*
X-298774Y-11000D01*
X-300298Y-12524D01*
X-298774D01*
X-297250Y-14048D01*
X-334500Y-16330D02*
X-331960Y-13790D01*
X-329420D01*
X-331960Y-11250D01*
X-329420Y-8710D01*
X-331960D01*
X-334500Y-6170D01*
X-337040Y-8710D01*
X-339580D01*
X-337040Y-11250D01*
X-339580Y-13790D01*
X-337040D01*
X-334500Y-16330D01*
Y-14298D02*
X-332976Y-12774D01*
X-331452D01*
X-332976Y-11250D01*
X-331452Y-9726D01*
X-332976D01*
X-334500Y-8202D01*
X-336024Y-9726D01*
X-337548D01*
X-336024Y-11250D01*
X-337548Y-12774D01*
X-336024D01*
X-334500Y-14298D01*
Y-25080D02*
X-331960Y-22540D01*
X-329420D01*
X-331960Y-20000D01*
X-329420Y-17460D01*
X-331960D01*
X-334500Y-14920D01*
X-337040Y-17460D01*
X-339580D01*
X-337040Y-20000D01*
X-339580Y-22540D01*
X-337040D01*
X-334500Y-25080D01*
Y-23048D02*
X-332976Y-21524D01*
X-331452D01*
X-332976Y-20000D01*
X-331452Y-18476D01*
X-332976D01*
X-334500Y-16952D01*
X-336024Y-18476D01*
X-337548D01*
X-336024Y-20000D01*
X-337548Y-21524D01*
X-336024D01*
X-334500Y-23048D01*
X-334250Y-43080D02*
X-331710Y-40540D01*
X-329170D01*
X-331710Y-38000D01*
X-329170Y-35460D01*
X-331710D01*
X-334250Y-32920D01*
X-336790Y-35460D01*
X-339330D01*
X-336790Y-38000D01*
X-339330Y-40540D01*
X-336790D01*
X-334250Y-43080D01*
Y-41048D02*
X-332726Y-39524D01*
X-331202D01*
X-332726Y-38000D01*
X-331202Y-36476D01*
X-332726D01*
X-334250Y-34952D01*
X-335774Y-36476D01*
X-337298D01*
X-335774Y-38000D01*
X-337298Y-39524D01*
X-335774D01*
X-334250Y-41048D01*
Y-34330D02*
X-331710Y-31790D01*
X-329170D01*
X-331710Y-29250D01*
X-329170Y-26710D01*
X-331710D01*
X-334250Y-24170D01*
X-336790Y-26710D01*
X-339330D01*
X-336790Y-29250D01*
X-339330Y-31790D01*
X-336790D01*
X-334250Y-34330D01*
Y-32298D02*
X-332726Y-30774D01*
X-331202D01*
X-332726Y-29250D01*
X-331202Y-27726D01*
X-332726D01*
X-334250Y-26202D01*
X-335774Y-27726D01*
X-337298D01*
X-335774Y-29250D01*
X-337298Y-30774D01*
X-335774D01*
X-334250Y-32298D01*
X-344000Y-16580D02*
X-341460Y-14040D01*
X-338920D01*
X-341460Y-11500D01*
X-338920Y-8960D01*
X-341460D01*
X-344000Y-6420D01*
X-346540Y-8960D01*
X-349080D01*
X-346540Y-11500D01*
X-349080Y-14040D01*
X-346540D01*
X-344000Y-16580D01*
Y-14548D02*
X-342476Y-13024D01*
X-340952D01*
X-342476Y-11500D01*
X-340952Y-9976D01*
X-342476D01*
X-344000Y-8452D01*
X-345524Y-9976D01*
X-347048D01*
X-345524Y-11500D01*
X-347048Y-13024D01*
X-345524D01*
X-344000Y-14548D01*
Y-25330D02*
X-341460Y-22790D01*
X-338920D01*
X-341460Y-20250D01*
X-338920Y-17710D01*
X-341460D01*
X-344000Y-15170D01*
X-346540Y-17710D01*
X-349080D01*
X-346540Y-20250D01*
X-349080Y-22790D01*
X-346540D01*
X-344000Y-25330D01*
Y-23298D02*
X-342476Y-21774D01*
X-340952D01*
X-342476Y-20250D01*
X-340952Y-18726D01*
X-342476D01*
X-344000Y-17202D01*
X-345524Y-18726D01*
X-347048D01*
X-345524Y-20250D01*
X-347048Y-21774D01*
X-345524D01*
X-344000Y-23298D01*
X-343750Y-43330D02*
X-341210Y-40790D01*
X-338670D01*
X-341210Y-38250D01*
X-338670Y-35710D01*
X-341210D01*
X-343750Y-33170D01*
X-346290Y-35710D01*
X-348830D01*
X-346290Y-38250D01*
X-348830Y-40790D01*
X-346290D01*
X-343750Y-43330D01*
Y-41298D02*
X-342226Y-39774D01*
X-340702D01*
X-342226Y-38250D01*
X-340702Y-36726D01*
X-342226D01*
X-343750Y-35202D01*
X-345274Y-36726D01*
X-346798D01*
X-345274Y-38250D01*
X-346798Y-39774D01*
X-345274D01*
X-343750Y-41298D01*
Y-34580D02*
X-341210Y-32040D01*
X-338670D01*
X-341210Y-29500D01*
X-338670Y-26960D01*
X-341210D01*
X-343750Y-24420D01*
X-346290Y-26960D01*
X-348830D01*
X-346290Y-29500D01*
X-348830Y-32040D01*
X-346290D01*
X-343750Y-34580D01*
Y-32548D02*
X-342226Y-31024D01*
X-340702D01*
X-342226Y-29500D01*
X-340702Y-27976D01*
X-342226D01*
X-343750Y-26452D01*
X-345274Y-27976D01*
X-346798D01*
X-345274Y-29500D01*
X-346798Y-31024D01*
X-345274D01*
X-343750Y-32548D01*
X-353750Y-16580D02*
X-351210Y-14040D01*
X-348670D01*
X-351210Y-11500D01*
X-348670Y-8960D01*
X-351210D01*
X-353750Y-6420D01*
X-356290Y-8960D01*
X-358830D01*
X-356290Y-11500D01*
X-358830Y-14040D01*
X-356290D01*
X-353750Y-16580D01*
Y-14548D02*
X-352226Y-13024D01*
X-350702D01*
X-352226Y-11500D01*
X-350702Y-9976D01*
X-352226D01*
X-353750Y-8452D01*
X-355274Y-9976D01*
X-356798D01*
X-355274Y-11500D01*
X-356798Y-13024D01*
X-355274D01*
X-353750Y-14548D01*
Y-25330D02*
X-351210Y-22790D01*
X-348670D01*
X-351210Y-20250D01*
X-348670Y-17710D01*
X-351210D01*
X-353750Y-15170D01*
X-356290Y-17710D01*
X-358830D01*
X-356290Y-20250D01*
X-358830Y-22790D01*
X-356290D01*
X-353750Y-25330D01*
Y-23298D02*
X-352226Y-21774D01*
X-350702D01*
X-352226Y-20250D01*
X-350702Y-18726D01*
X-352226D01*
X-353750Y-17202D01*
X-355274Y-18726D01*
X-356798D01*
X-355274Y-20250D01*
X-356798Y-21774D01*
X-355274D01*
X-353750Y-23298D01*
X-353500Y-43330D02*
X-350960Y-40790D01*
X-348420D01*
X-350960Y-38250D01*
X-348420Y-35710D01*
X-350960D01*
X-353500Y-33170D01*
X-356040Y-35710D01*
X-358580D01*
X-356040Y-38250D01*
X-358580Y-40790D01*
X-356040D01*
X-353500Y-43330D01*
Y-41298D02*
X-351976Y-39774D01*
X-350452D01*
X-351976Y-38250D01*
X-350452Y-36726D01*
X-351976D01*
X-353500Y-35202D01*
X-355024Y-36726D01*
X-356548D01*
X-355024Y-38250D01*
X-356548Y-39774D01*
X-355024D01*
X-353500Y-41298D01*
Y-34580D02*
X-350960Y-32040D01*
X-348420D01*
X-350960Y-29500D01*
X-348420Y-26960D01*
X-350960D01*
X-353500Y-24420D01*
X-356040Y-26960D01*
X-358580D01*
X-356040Y-29500D01*
X-358580Y-32040D01*
X-356040D01*
X-353500Y-34580D01*
Y-32548D02*
X-351976Y-31024D01*
X-350452D01*
X-351976Y-29500D01*
X-350452Y-27976D01*
X-351976D01*
X-353500Y-26452D01*
X-355024Y-27976D01*
X-356548D01*
X-355024Y-29500D01*
X-356548Y-31024D01*
X-355024D01*
X-353500Y-32548D01*
X-363000Y-16580D02*
X-360460Y-14040D01*
X-357920D01*
X-360460Y-11500D01*
X-357920Y-8960D01*
X-360460D01*
X-363000Y-6420D01*
X-365540Y-8960D01*
X-368080D01*
X-365540Y-11500D01*
X-368080Y-14040D01*
X-365540D01*
X-363000Y-16580D01*
Y-14548D02*
X-361476Y-13024D01*
X-359952D01*
X-361476Y-11500D01*
X-359952Y-9976D01*
X-361476D01*
X-363000Y-8452D01*
X-364524Y-9976D01*
X-366048D01*
X-364524Y-11500D01*
X-366048Y-13024D01*
X-364524D01*
X-363000Y-14548D01*
Y-25330D02*
X-360460Y-22790D01*
X-357920D01*
X-360460Y-20250D01*
X-357920Y-17710D01*
X-360460D01*
X-363000Y-15170D01*
X-365540Y-17710D01*
X-368080D01*
X-365540Y-20250D01*
X-368080Y-22790D01*
X-365540D01*
X-363000Y-25330D01*
Y-23298D02*
X-361476Y-21774D01*
X-359952D01*
X-361476Y-20250D01*
X-359952Y-18726D01*
X-361476D01*
X-363000Y-17202D01*
X-364524Y-18726D01*
X-366048D01*
X-364524Y-20250D01*
X-366048Y-21774D01*
X-364524D01*
X-363000Y-23298D01*
X-362750Y-43330D02*
X-360210Y-40790D01*
X-357670D01*
X-360210Y-38250D01*
X-357670Y-35710D01*
X-360210D01*
X-362750Y-33170D01*
X-365290Y-35710D01*
X-367830D01*
X-365290Y-38250D01*
X-367830Y-40790D01*
X-365290D01*
X-362750Y-43330D01*
Y-41298D02*
X-361226Y-39774D01*
X-359702D01*
X-361226Y-38250D01*
X-359702Y-36726D01*
X-361226D01*
X-362750Y-35202D01*
X-364274Y-36726D01*
X-365798D01*
X-364274Y-38250D01*
X-365798Y-39774D01*
X-364274D01*
X-362750Y-41298D01*
Y-34580D02*
X-360210Y-32040D01*
X-357670D01*
X-360210Y-29500D01*
X-357670Y-26960D01*
X-360210D01*
X-362750Y-24420D01*
X-365290Y-26960D01*
X-367830D01*
X-365290Y-29500D01*
X-367830Y-32040D01*
X-365290D01*
X-362750Y-34580D01*
Y-32548D02*
X-361226Y-31024D01*
X-359702D01*
X-361226Y-29500D01*
X-359702Y-27976D01*
X-361226D01*
X-362750Y-26452D01*
X-364274Y-27976D01*
X-365798D01*
X-364274Y-29500D01*
X-365798Y-31024D01*
X-364274D01*
X-362750Y-32548D01*
X43000Y212170D02*
X45540Y214710D01*
X48080D01*
X45540Y217250D01*
X48080Y219790D01*
X45540D01*
X43000Y222330D01*
X40460Y219790D01*
X37920D01*
X40460Y217250D01*
X37920Y214710D01*
X40460D01*
X43000Y212170D01*
Y214202D02*
X44524Y215726D01*
X46048D01*
X44524Y217250D01*
X46048Y218774D01*
X44524D01*
X43000Y220298D01*
X41476Y218774D01*
X39952D01*
X41476Y217250D01*
X39952Y215726D01*
X41476D01*
X43000Y214202D01*
X16250Y211920D02*
X18790Y214460D01*
X21330D01*
X18790Y217000D01*
X21330Y219540D01*
X18790D01*
X16250Y222080D01*
X13710Y219540D01*
X11170D01*
X13710Y217000D01*
X11170Y214460D01*
X13710D01*
X16250Y211920D01*
Y213952D02*
X17774Y215476D01*
X19298D01*
X17774Y217000D01*
X19298Y218524D01*
X17774D01*
X16250Y220048D01*
X14726Y218524D01*
X13202D01*
X14726Y217000D01*
X13202Y215476D01*
X14726D01*
X16250Y213952D01*
X25000Y211920D02*
X27540Y214460D01*
X30080D01*
X27540Y217000D01*
X30080Y219540D01*
X27540D01*
X25000Y222080D01*
X22460Y219540D01*
X19920D01*
X22460Y217000D01*
X19920Y214460D01*
X22460D01*
X25000Y211920D01*
Y213952D02*
X26524Y215476D01*
X28048D01*
X26524Y217000D01*
X28048Y218524D01*
X26524D01*
X25000Y220048D01*
X23476Y218524D01*
X21952D01*
X23476Y217000D01*
X21952Y215476D01*
X23476D01*
X25000Y213952D01*
X34250Y212170D02*
X36790Y214710D01*
X39330D01*
X36790Y217250D01*
X39330Y219790D01*
X36790D01*
X34250Y222330D01*
X31710Y219790D01*
X29170D01*
X31710Y217250D01*
X29170Y214710D01*
X31710D01*
X34250Y212170D01*
Y214202D02*
X35774Y215726D01*
X37298D01*
X35774Y217250D01*
X37298Y218774D01*
X35774D01*
X34250Y220298D01*
X32726Y218774D01*
X31202D01*
X32726Y217250D01*
X31202Y215726D01*
X32726D01*
X34250Y214202D01*
X16500Y202420D02*
X19040Y204960D01*
X21580D01*
X19040Y207500D01*
X21580Y210040D01*
X19040D01*
X16500Y212580D01*
X13960Y210040D01*
X11420D01*
X13960Y207500D01*
X11420Y204960D01*
X13960D01*
X16500Y202420D01*
Y204452D02*
X18024Y205976D01*
X19548D01*
X18024Y207500D01*
X19548Y209024D01*
X18024D01*
X16500Y210548D01*
X14976Y209024D01*
X13452D01*
X14976Y207500D01*
X13452Y205976D01*
X14976D01*
X16500Y204452D01*
X25250Y202420D02*
X27790Y204960D01*
X30330D01*
X27790Y207500D01*
X30330Y210040D01*
X27790D01*
X25250Y212580D01*
X22710Y210040D01*
X20170D01*
X22710Y207500D01*
X20170Y204960D01*
X22710D01*
X25250Y202420D01*
Y204452D02*
X26774Y205976D01*
X28298D01*
X26774Y207500D01*
X28298Y209024D01*
X26774D01*
X25250Y210548D01*
X23726Y209024D01*
X22202D01*
X23726Y207500D01*
X22202Y205976D01*
X23726D01*
X25250Y204452D01*
X43250Y202670D02*
X45790Y205210D01*
X48330D01*
X45790Y207750D01*
X48330Y210290D01*
X45790D01*
X43250Y212830D01*
X40710Y210290D01*
X38170D01*
X40710Y207750D01*
X38170Y205210D01*
X40710D01*
X43250Y202670D01*
Y204702D02*
X44774Y206226D01*
X46298D01*
X44774Y207750D01*
X46298Y209274D01*
X44774D01*
X43250Y210798D01*
X41726Y209274D01*
X40202D01*
X41726Y207750D01*
X40202Y206226D01*
X41726D01*
X43250Y204702D01*
X34500Y202670D02*
X37040Y205210D01*
X39580D01*
X37040Y207750D01*
X39580Y210290D01*
X37040D01*
X34500Y212830D01*
X31960Y210290D01*
X29420D01*
X31960Y207750D01*
X29420Y205210D01*
X31960D01*
X34500Y202670D01*
Y204702D02*
X36024Y206226D01*
X37548D01*
X36024Y207750D01*
X37548Y209274D01*
X36024D01*
X34500Y210798D01*
X32976Y209274D01*
X31452D01*
X32976Y207750D01*
X31452Y206226D01*
X32976D01*
X34500Y204702D01*
X16500Y192670D02*
X19040Y195210D01*
X21580D01*
X19040Y197750D01*
X21580Y200290D01*
X19040D01*
X16500Y202830D01*
X13960Y200290D01*
X11420D01*
X13960Y197750D01*
X11420Y195210D01*
X13960D01*
X16500Y192670D01*
Y194702D02*
X18024Y196226D01*
X19548D01*
X18024Y197750D01*
X19548Y199274D01*
X18024D01*
X16500Y200798D01*
X14976Y199274D01*
X13452D01*
X14976Y197750D01*
X13452Y196226D01*
X14976D01*
X16500Y194702D01*
X25250Y192670D02*
X27790Y195210D01*
X30330D01*
X27790Y197750D01*
X30330Y200290D01*
X27790D01*
X25250Y202830D01*
X22710Y200290D01*
X20170D01*
X22710Y197750D01*
X20170Y195210D01*
X22710D01*
X25250Y192670D01*
Y194702D02*
X26774Y196226D01*
X28298D01*
X26774Y197750D01*
X28298Y199274D01*
X26774D01*
X25250Y200798D01*
X23726Y199274D01*
X22202D01*
X23726Y197750D01*
X22202Y196226D01*
X23726D01*
X25250Y194702D01*
X43250Y192920D02*
X45790Y195460D01*
X48330D01*
X45790Y198000D01*
X48330Y200540D01*
X45790D01*
X43250Y203080D01*
X40710Y200540D01*
X38170D01*
X40710Y198000D01*
X38170Y195460D01*
X40710D01*
X43250Y192920D01*
Y194952D02*
X44774Y196476D01*
X46298D01*
X44774Y198000D01*
X46298Y199524D01*
X44774D01*
X43250Y201048D01*
X41726Y199524D01*
X40202D01*
X41726Y198000D01*
X40202Y196476D01*
X41726D01*
X43250Y194952D01*
X34500Y192920D02*
X37040Y195460D01*
X39580D01*
X37040Y198000D01*
X39580Y200540D01*
X37040D01*
X34500Y203080D01*
X31960Y200540D01*
X29420D01*
X31960Y198000D01*
X29420Y195460D01*
X31960D01*
X34500Y192920D01*
Y194952D02*
X36024Y196476D01*
X37548D01*
X36024Y198000D01*
X37548Y199524D01*
X36024D01*
X34500Y201048D01*
X32976Y199524D01*
X31452D01*
X32976Y198000D01*
X31452Y196476D01*
X32976D01*
X34500Y194952D01*
Y174920D02*
X37040Y177460D01*
X39580D01*
X37040Y180000D01*
X39580Y182540D01*
X37040D01*
X34500Y185080D01*
X31960Y182540D01*
X29420D01*
X31960Y180000D01*
X29420Y177460D01*
X31960D01*
X34500Y174920D01*
Y176952D02*
X36024Y178476D01*
X37548D01*
X36024Y180000D01*
X37548Y181524D01*
X36024D01*
X34500Y183048D01*
X32976Y181524D01*
X31452D01*
X32976Y180000D01*
X31452Y178476D01*
X32976D01*
X34500Y176952D01*
X43250Y174920D02*
X45790Y177460D01*
X48330D01*
X45790Y180000D01*
X48330Y182540D01*
X45790D01*
X43250Y185080D01*
X40710Y182540D01*
X38170D01*
X40710Y180000D01*
X38170Y177460D01*
X40710D01*
X43250Y174920D01*
Y176952D02*
X44774Y178476D01*
X46298D01*
X44774Y180000D01*
X46298Y181524D01*
X44774D01*
X43250Y183048D01*
X41726Y181524D01*
X40202D01*
X41726Y180000D01*
X40202Y178476D01*
X41726D01*
X43250Y176952D01*
X25250Y174670D02*
X27790Y177210D01*
X30330D01*
X27790Y179750D01*
X30330Y182290D01*
X27790D01*
X25250Y184830D01*
X22710Y182290D01*
X20170D01*
X22710Y179750D01*
X20170Y177210D01*
X22710D01*
X25250Y174670D01*
Y176702D02*
X26774Y178226D01*
X28298D01*
X26774Y179750D01*
X28298Y181274D01*
X26774D01*
X25250Y182798D01*
X23726Y181274D01*
X22202D01*
X23726Y179750D01*
X22202Y178226D01*
X23726D01*
X25250Y176702D01*
X43250Y183670D02*
X45790Y186210D01*
X48330D01*
X45790Y188750D01*
X48330Y191290D01*
X45790D01*
X43250Y193830D01*
X40710Y191290D01*
X38170D01*
X40710Y188750D01*
X38170Y186210D01*
X40710D01*
X43250Y183670D01*
Y185702D02*
X44774Y187226D01*
X46298D01*
X44774Y188750D01*
X46298Y190274D01*
X44774D01*
X43250Y191798D01*
X41726Y190274D01*
X40202D01*
X41726Y188750D01*
X40202Y187226D01*
X41726D01*
X43250Y185702D01*
X16500Y174670D02*
X19040Y177210D01*
X21580D01*
X19040Y179750D01*
X21580Y182290D01*
X19040D01*
X16500Y184830D01*
X13960Y182290D01*
X11420D01*
X13960Y179750D01*
X11420Y177210D01*
X13960D01*
X16500Y174670D01*
Y176702D02*
X18024Y178226D01*
X19548D01*
X18024Y179750D01*
X19548Y181274D01*
X18024D01*
X16500Y182798D01*
X14976Y181274D01*
X13452D01*
X14976Y179750D01*
X13452Y178226D01*
X14976D01*
X16500Y176702D01*
X34750Y165420D02*
X37290Y167960D01*
X39830D01*
X37290Y170500D01*
X39830Y173040D01*
X37290D01*
X34750Y175580D01*
X32210Y173040D01*
X29670D01*
X32210Y170500D01*
X29670Y167960D01*
X32210D01*
X34750Y165420D01*
Y167452D02*
X36274Y168976D01*
X37798D01*
X36274Y170500D01*
X37798Y172024D01*
X36274D01*
X34750Y173548D01*
X33226Y172024D01*
X31702D01*
X33226Y170500D01*
X31702Y168976D01*
X33226D01*
X34750Y167452D01*
X43500Y165420D02*
X46040Y167960D01*
X48580D01*
X46040Y170500D01*
X48580Y173040D01*
X46040D01*
X43500Y175580D01*
X40960Y173040D01*
X38420D01*
X40960Y170500D01*
X38420Y167960D01*
X40960D01*
X43500Y165420D01*
Y167452D02*
X45024Y168976D01*
X46548D01*
X45024Y170500D01*
X46548Y172024D01*
X45024D01*
X43500Y173548D01*
X41976Y172024D01*
X40452D01*
X41976Y170500D01*
X40452Y168976D01*
X41976D01*
X43500Y167452D01*
X25500Y165170D02*
X28040Y167710D01*
X30580D01*
X28040Y170250D01*
X30580Y172790D01*
X28040D01*
X25500Y175330D01*
X22960Y172790D01*
X20420D01*
X22960Y170250D01*
X20420Y167710D01*
X22960D01*
X25500Y165170D01*
Y167202D02*
X27024Y168726D01*
X28548D01*
X27024Y170250D01*
X28548Y171774D01*
X27024D01*
X25500Y173298D01*
X23976Y171774D01*
X22452D01*
X23976Y170250D01*
X22452Y168726D01*
X23976D01*
X25500Y167202D01*
X16750Y165170D02*
X19290Y167710D01*
X21830D01*
X19290Y170250D01*
X21830Y172790D01*
X19290D01*
X16750Y175330D01*
X14210Y172790D01*
X11670D01*
X14210Y170250D01*
X11670Y167710D01*
X14210D01*
X16750Y165170D01*
Y167202D02*
X18274Y168726D01*
X19798D01*
X18274Y170250D01*
X19798Y171774D01*
X18274D01*
X16750Y173298D01*
X15226Y171774D01*
X13702D01*
X15226Y170250D01*
X13702Y168726D01*
X15226D01*
X16750Y167202D01*
X16500Y183420D02*
X19040Y185960D01*
X21580D01*
X19040Y188500D01*
X21580Y191040D01*
X19040D01*
X16500Y193580D01*
X13960Y191040D01*
X11420D01*
X13960Y188500D01*
X11420Y185960D01*
X13960D01*
X16500Y183420D01*
Y185452D02*
X18024Y186976D01*
X19548D01*
X18024Y188500D01*
X19548Y190024D01*
X18024D01*
X16500Y191548D01*
X14976Y190024D01*
X13452D01*
X14976Y188500D01*
X13452Y186976D01*
X14976D01*
X16500Y185452D01*
X25250Y183420D02*
X27790Y185960D01*
X30330D01*
X27790Y188500D01*
X30330Y191040D01*
X27790D01*
X25250Y193580D01*
X22710Y191040D01*
X20170D01*
X22710Y188500D01*
X20170Y185960D01*
X22710D01*
X25250Y183420D01*
Y185452D02*
X26774Y186976D01*
X28298D01*
X26774Y188500D01*
X28298Y190024D01*
X26774D01*
X25250Y191548D01*
X23726Y190024D01*
X22202D01*
X23726Y188500D01*
X22202Y186976D01*
X23726D01*
X25250Y185452D01*
X34500Y183670D02*
X37040Y186210D01*
X39580D01*
X37040Y188750D01*
X39580Y191290D01*
X37040D01*
X34500Y193830D01*
X31960Y191290D01*
X29420D01*
X31960Y188750D01*
X29420Y186210D01*
X31960D01*
X34500Y183670D01*
Y185702D02*
X36024Y187226D01*
X37548D01*
X36024Y188750D01*
X37548Y190274D01*
X36024D01*
X34500Y191798D01*
X32976Y190274D01*
X31452D01*
X32976Y188750D01*
X31452Y187226D01*
X32976D01*
X34500Y185702D01*
X25500Y146170D02*
X28040Y148710D01*
X30580D01*
X28040Y151250D01*
X30580Y153790D01*
X28040D01*
X25500Y156330D01*
X22960Y153790D01*
X20420D01*
X22960Y151250D01*
X20420Y148710D01*
X22960D01*
X25500Y146170D01*
Y148202D02*
X27024Y149726D01*
X28548D01*
X27024Y151250D01*
X28548Y152774D01*
X27024D01*
X25500Y154298D01*
X23976Y152774D01*
X22452D01*
X23976Y151250D01*
X22452Y149726D01*
X23976D01*
X25500Y148202D01*
X34750Y146420D02*
X37290Y148960D01*
X39830D01*
X37290Y151500D01*
X39830Y154040D01*
X37290D01*
X34750Y156580D01*
X32210Y154040D01*
X29670D01*
X32210Y151500D01*
X29670Y148960D01*
X32210D01*
X34750Y146420D01*
Y148452D02*
X36274Y149976D01*
X37798D01*
X36274Y151500D01*
X37798Y153024D01*
X36274D01*
X34750Y154548D01*
X33226Y153024D01*
X31702D01*
X33226Y151500D01*
X31702Y149976D01*
X33226D01*
X34750Y148452D01*
X43500Y146420D02*
X46040Y148960D01*
X48580D01*
X46040Y151500D01*
X48580Y154040D01*
X46040D01*
X43500Y156580D01*
X40960Y154040D01*
X38420D01*
X40960Y151500D01*
X38420Y148960D01*
X40960D01*
X43500Y146420D01*
Y148452D02*
X45024Y149976D01*
X46548D01*
X45024Y151500D01*
X46548Y153024D01*
X45024D01*
X43500Y154548D01*
X41976Y153024D01*
X40452D01*
X41976Y151500D01*
X40452Y149976D01*
X41976D01*
X43500Y148452D01*
X16750Y146170D02*
X19290Y148710D01*
X21830D01*
X19290Y151250D01*
X21830Y153790D01*
X19290D01*
X16750Y156330D01*
X14210Y153790D01*
X11670D01*
X14210Y151250D01*
X11670Y148710D01*
X14210D01*
X16750Y146170D01*
Y148202D02*
X18274Y149726D01*
X19798D01*
X18274Y151250D01*
X19798Y152774D01*
X18274D01*
X16750Y154298D01*
X15226Y152774D01*
X13702D01*
X15226Y151250D01*
X13702Y149726D01*
X15226D01*
X16750Y148202D01*
X34750Y155670D02*
X37290Y158210D01*
X39830D01*
X37290Y160750D01*
X39830Y163290D01*
X37290D01*
X34750Y165830D01*
X32210Y163290D01*
X29670D01*
X32210Y160750D01*
X29670Y158210D01*
X32210D01*
X34750Y155670D01*
Y157702D02*
X36274Y159226D01*
X37798D01*
X36274Y160750D01*
X37798Y162274D01*
X36274D01*
X34750Y163798D01*
X33226Y162274D01*
X31702D01*
X33226Y160750D01*
X31702Y159226D01*
X33226D01*
X34750Y157702D01*
X43500Y155670D02*
X46040Y158210D01*
X48580D01*
X46040Y160750D01*
X48580Y163290D01*
X46040D01*
X43500Y165830D01*
X40960Y163290D01*
X38420D01*
X40960Y160750D01*
X38420Y158210D01*
X40960D01*
X43500Y155670D01*
Y157702D02*
X45024Y159226D01*
X46548D01*
X45024Y160750D01*
X46548Y162274D01*
X45024D01*
X43500Y163798D01*
X41976Y162274D01*
X40452D01*
X41976Y160750D01*
X40452Y159226D01*
X41976D01*
X43500Y157702D01*
X25500Y155420D02*
X28040Y157960D01*
X30580D01*
X28040Y160500D01*
X30580Y163040D01*
X28040D01*
X25500Y165580D01*
X22960Y163040D01*
X20420D01*
X22960Y160500D01*
X20420Y157960D01*
X22960D01*
X25500Y155420D01*
Y157452D02*
X27024Y158976D01*
X28548D01*
X27024Y160500D01*
X28548Y162024D01*
X27024D01*
X25500Y163548D01*
X23976Y162024D01*
X22452D01*
X23976Y160500D01*
X22452Y158976D01*
X23976D01*
X25500Y157452D01*
X16750Y155420D02*
X19290Y157960D01*
X21830D01*
X19290Y160500D01*
X21830Y163040D01*
X19290D01*
X16750Y165580D01*
X14210Y163040D01*
X11670D01*
X14210Y160500D01*
X11670Y157960D01*
X14210D01*
X16750Y155420D01*
Y157452D02*
X18274Y158976D01*
X19798D01*
X18274Y160500D01*
X19798Y162024D01*
X18274D01*
X16750Y163548D01*
X15226Y162024D01*
X13702D01*
X15226Y160500D01*
X13702Y158976D01*
X15226D01*
X16750Y157452D01*
X-26000Y100670D02*
X-23460Y103210D01*
X-20920D01*
X-23460Y105750D01*
X-20920Y108290D01*
X-23460D01*
X-26000Y110830D01*
X-28540Y108290D01*
X-31080D01*
X-28540Y105750D01*
X-31080Y103210D01*
X-28540D01*
X-26000Y100670D01*
Y102702D02*
X-24476Y104226D01*
X-22952D01*
X-24476Y105750D01*
X-22952Y107274D01*
X-24476D01*
X-26000Y108798D01*
X-27524Y107274D01*
X-29048D01*
X-27524Y105750D01*
X-29048Y104226D01*
X-27524D01*
X-26000Y102702D01*
Y91920D02*
X-23460Y94460D01*
X-20920D01*
X-23460Y97000D01*
X-20920Y99540D01*
X-23460D01*
X-26000Y102080D01*
X-28540Y99540D01*
X-31080D01*
X-28540Y97000D01*
X-31080Y94460D01*
X-28540D01*
X-26000Y91920D01*
Y93952D02*
X-24476Y95476D01*
X-22952D01*
X-24476Y97000D01*
X-22952Y98524D01*
X-24476D01*
X-26000Y100048D01*
X-27524Y98524D01*
X-29048D01*
X-27524Y97000D01*
X-29048Y95476D01*
X-27524D01*
X-26000Y93952D01*
X-16250Y100670D02*
X-13710Y103210D01*
X-11170D01*
X-13710Y105750D01*
X-11170Y108290D01*
X-13710D01*
X-16250Y110830D01*
X-18790Y108290D01*
X-21330D01*
X-18790Y105750D01*
X-21330Y103210D01*
X-18790D01*
X-16250Y100670D01*
Y102702D02*
X-14726Y104226D01*
X-13202D01*
X-14726Y105750D01*
X-13202Y107274D01*
X-14726D01*
X-16250Y108798D01*
X-17774Y107274D01*
X-19298D01*
X-17774Y105750D01*
X-19298Y104226D01*
X-17774D01*
X-16250Y102702D01*
Y91920D02*
X-13710Y94460D01*
X-11170D01*
X-13710Y97000D01*
X-11170Y99540D01*
X-13710D01*
X-16250Y102080D01*
X-18790Y99540D01*
X-21330D01*
X-18790Y97000D01*
X-21330Y94460D01*
X-18790D01*
X-16250Y91920D01*
Y93952D02*
X-14726Y95476D01*
X-13202D01*
X-14726Y97000D01*
X-13202Y98524D01*
X-14726D01*
X-16250Y100048D01*
X-17774Y98524D01*
X-19298D01*
X-17774Y97000D01*
X-19298Y95476D01*
X-17774D01*
X-16250Y93952D01*
X84750Y-83580D02*
X87290Y-81040D01*
X89830D01*
X87290Y-78500D01*
X89830Y-75960D01*
X87290D01*
X84750Y-73420D01*
X82210Y-75960D01*
X79670D01*
X82210Y-78500D01*
X79670Y-81040D01*
X82210D01*
X84750Y-83580D01*
Y-81548D02*
X86274Y-80024D01*
X87798D01*
X86274Y-78500D01*
X87798Y-76976D01*
X86274D01*
X84750Y-75452D01*
X83226Y-76976D01*
X81702D01*
X83226Y-78500D01*
X81702Y-80024D01*
X83226D01*
X84750Y-81548D01*
X31750Y272170D02*
X34290Y274710D01*
X36830D01*
X34290Y277250D01*
X36830Y279790D01*
X34290D01*
X31750Y282330D01*
X29210Y279790D01*
X26670D01*
X29210Y277250D01*
X26670Y274710D01*
X29210D01*
X31750Y272170D01*
Y274202D02*
X33274Y275726D01*
X34798D01*
X33274Y277250D01*
X34798Y278774D01*
X33274D01*
X31750Y280298D01*
X30226Y278774D01*
X28702D01*
X30226Y277250D01*
X28702Y275726D01*
X30226D01*
X31750Y274202D01*
X40500Y272170D02*
X43040Y274710D01*
X45580D01*
X43040Y277250D01*
X45580Y279790D01*
X43040D01*
X40500Y282330D01*
X37960Y279790D01*
X35420D01*
X37960Y277250D01*
X35420Y274710D01*
X37960D01*
X40500Y272170D01*
Y274202D02*
X42024Y275726D01*
X43548D01*
X42024Y277250D01*
X43548Y278774D01*
X42024D01*
X40500Y280298D01*
X38976Y278774D01*
X37452D01*
X38976Y277250D01*
X37452Y275726D01*
X38976D01*
X40500Y274202D01*
X22500Y271920D02*
X25040Y274460D01*
X27580D01*
X25040Y277000D01*
X27580Y279540D01*
X25040D01*
X22500Y282080D01*
X19960Y279540D01*
X17420D01*
X19960Y277000D01*
X17420Y274460D01*
X19960D01*
X22500Y271920D01*
Y273952D02*
X24024Y275476D01*
X25548D01*
X24024Y277000D01*
X25548Y278524D01*
X24024D01*
X22500Y280048D01*
X20976Y278524D01*
X19452D01*
X20976Y277000D01*
X19452Y275476D01*
X20976D01*
X22500Y273952D01*
X13750Y271920D02*
X16290Y274460D01*
X18830D01*
X16290Y277000D01*
X18830Y279540D01*
X16290D01*
X13750Y282080D01*
X11210Y279540D01*
X8670D01*
X11210Y277000D01*
X8670Y274460D01*
X11210D01*
X13750Y271920D01*
Y273952D02*
X15274Y275476D01*
X16798D01*
X15274Y277000D01*
X16798Y278524D01*
X15274D01*
X13750Y280048D01*
X12226Y278524D01*
X10702D01*
X12226Y277000D01*
X10702Y275476D01*
X12226D01*
X13750Y273952D01*
X31750Y281420D02*
X34290Y283960D01*
X36830D01*
X34290Y286500D01*
X36830Y289040D01*
X34290D01*
X31750Y291580D01*
X29210Y289040D01*
X26670D01*
X29210Y286500D01*
X26670Y283960D01*
X29210D01*
X31750Y281420D01*
Y283452D02*
X33274Y284976D01*
X34798D01*
X33274Y286500D01*
X34798Y288024D01*
X33274D01*
X31750Y289548D01*
X30226Y288024D01*
X28702D01*
X30226Y286500D01*
X28702Y284976D01*
X30226D01*
X31750Y283452D01*
X40500Y281420D02*
X43040Y283960D01*
X45580D01*
X43040Y286500D01*
X45580Y289040D01*
X43040D01*
X40500Y291580D01*
X37960Y289040D01*
X35420D01*
X37960Y286500D01*
X35420Y283960D01*
X37960D01*
X40500Y281420D01*
Y283452D02*
X42024Y284976D01*
X43548D01*
X42024Y286500D01*
X43548Y288024D01*
X42024D01*
X40500Y289548D01*
X38976Y288024D01*
X37452D01*
X38976Y286500D01*
X37452Y284976D01*
X38976D01*
X40500Y283452D01*
X22500Y281170D02*
X25040Y283710D01*
X27580D01*
X25040Y286250D01*
X27580Y288790D01*
X25040D01*
X22500Y291330D01*
X19960Y288790D01*
X17420D01*
X19960Y286250D01*
X17420Y283710D01*
X19960D01*
X22500Y281170D01*
Y283202D02*
X24024Y284726D01*
X25548D01*
X24024Y286250D01*
X25548Y287774D01*
X24024D01*
X22500Y289298D01*
X20976Y287774D01*
X19452D01*
X20976Y286250D01*
X19452Y284726D01*
X20976D01*
X22500Y283202D01*
X13750Y281170D02*
X16290Y283710D01*
X18830D01*
X16290Y286250D01*
X18830Y288790D01*
X16290D01*
X13750Y291330D01*
X11210Y288790D01*
X8670D01*
X11210Y286250D01*
X8670Y283710D01*
X11210D01*
X13750Y281170D01*
Y283202D02*
X15274Y284726D01*
X16798D01*
X15274Y286250D01*
X16798Y287774D01*
X15274D01*
X13750Y289298D01*
X12226Y287774D01*
X10702D01*
X12226Y286250D01*
X10702Y284726D01*
X12226D01*
X13750Y283202D01*
X31750Y291170D02*
X34290Y293710D01*
X36830D01*
X34290Y296250D01*
X36830Y298790D01*
X34290D01*
X31750Y301330D01*
X29210Y298790D01*
X26670D01*
X29210Y296250D01*
X26670Y293710D01*
X29210D01*
X31750Y291170D01*
Y293202D02*
X33274Y294726D01*
X34798D01*
X33274Y296250D01*
X34798Y297774D01*
X33274D01*
X31750Y299298D01*
X30226Y297774D01*
X28702D01*
X30226Y296250D01*
X28702Y294726D01*
X30226D01*
X31750Y293202D01*
X40500Y291170D02*
X43040Y293710D01*
X45580D01*
X43040Y296250D01*
X45580Y298790D01*
X43040D01*
X40500Y301330D01*
X37960Y298790D01*
X35420D01*
X37960Y296250D01*
X35420Y293710D01*
X37960D01*
X40500Y291170D01*
Y293202D02*
X42024Y294726D01*
X43548D01*
X42024Y296250D01*
X43548Y297774D01*
X42024D01*
X40500Y299298D01*
X38976Y297774D01*
X37452D01*
X38976Y296250D01*
X37452Y294726D01*
X38976D01*
X40500Y293202D01*
X22500Y290920D02*
X25040Y293460D01*
X27580D01*
X25040Y296000D01*
X27580Y298540D01*
X25040D01*
X22500Y301080D01*
X19960Y298540D01*
X17420D01*
X19960Y296000D01*
X17420Y293460D01*
X19960D01*
X22500Y290920D01*
Y292952D02*
X24024Y294476D01*
X25548D01*
X24024Y296000D01*
X25548Y297524D01*
X24024D01*
X22500Y299048D01*
X20976Y297524D01*
X19452D01*
X20976Y296000D01*
X19452Y294476D01*
X20976D01*
X22500Y292952D01*
X13750Y290920D02*
X16290Y293460D01*
X18830D01*
X16290Y296000D01*
X18830Y298540D01*
X16290D01*
X13750Y301080D01*
X11210Y298540D01*
X8670D01*
X11210Y296000D01*
X8670Y293460D01*
X11210D01*
X13750Y290920D01*
Y292952D02*
X15274Y294476D01*
X16798D01*
X15274Y296000D01*
X16798Y297524D01*
X15274D01*
X13750Y299048D01*
X12226Y297524D01*
X10702D01*
X12226Y296000D01*
X10702Y294476D01*
X12226D01*
X13750Y292952D01*
X31500Y300670D02*
X34040Y303210D01*
X36580D01*
X34040Y305750D01*
X36580Y308290D01*
X34040D01*
X31500Y310830D01*
X28960Y308290D01*
X26420D01*
X28960Y305750D01*
X26420Y303210D01*
X28960D01*
X31500Y300670D01*
Y302702D02*
X33024Y304226D01*
X34548D01*
X33024Y305750D01*
X34548Y307274D01*
X33024D01*
X31500Y308798D01*
X29976Y307274D01*
X28452D01*
X29976Y305750D01*
X28452Y304226D01*
X29976D01*
X31500Y302702D01*
X40250Y300670D02*
X42790Y303210D01*
X45330D01*
X42790Y305750D01*
X45330Y308290D01*
X42790D01*
X40250Y310830D01*
X37710Y308290D01*
X35170D01*
X37710Y305750D01*
X35170Y303210D01*
X37710D01*
X40250Y300670D01*
Y302702D02*
X41774Y304226D01*
X43298D01*
X41774Y305750D01*
X43298Y307274D01*
X41774D01*
X40250Y308798D01*
X38726Y307274D01*
X37202D01*
X38726Y305750D01*
X37202Y304226D01*
X38726D01*
X40250Y302702D01*
X22250Y300420D02*
X24790Y302960D01*
X27330D01*
X24790Y305500D01*
X27330Y308040D01*
X24790D01*
X22250Y310580D01*
X19710Y308040D01*
X17170D01*
X19710Y305500D01*
X17170Y302960D01*
X19710D01*
X22250Y300420D01*
Y302452D02*
X23774Y303976D01*
X25298D01*
X23774Y305500D01*
X25298Y307024D01*
X23774D01*
X22250Y308548D01*
X20726Y307024D01*
X19202D01*
X20726Y305500D01*
X19202Y303976D01*
X20726D01*
X22250Y302452D01*
X13500Y300420D02*
X16040Y302960D01*
X18580D01*
X16040Y305500D01*
X18580Y308040D01*
X16040D01*
X13500Y310580D01*
X10960Y308040D01*
X8420D01*
X10960Y305500D01*
X8420Y302960D01*
X10960D01*
X13500Y300420D01*
Y302452D02*
X15024Y303976D01*
X16548D01*
X15024Y305500D01*
X16548Y307024D01*
X15024D01*
X13500Y308548D01*
X11976Y307024D01*
X10452D01*
X11976Y305500D01*
X10452Y303976D01*
X11976D01*
X13500Y302452D01*
Y318420D02*
X16040Y320960D01*
X18580D01*
X16040Y323500D01*
X18580Y326040D01*
X16040D01*
X13500Y328580D01*
X10960Y326040D01*
X8420D01*
X10960Y323500D01*
X8420Y320960D01*
X10960D01*
X13500Y318420D01*
Y320452D02*
X15024Y321976D01*
X16548D01*
X15024Y323500D01*
X16548Y325024D01*
X15024D01*
X13500Y326548D01*
X11976Y325024D01*
X10452D01*
X11976Y323500D01*
X10452Y321976D01*
X11976D01*
X13500Y320452D01*
X22250Y318420D02*
X24790Y320960D01*
X27330D01*
X24790Y323500D01*
X27330Y326040D01*
X24790D01*
X22250Y328580D01*
X19710Y326040D01*
X17170D01*
X19710Y323500D01*
X17170Y320960D01*
X19710D01*
X22250Y318420D01*
Y320452D02*
X23774Y321976D01*
X25298D01*
X23774Y323500D01*
X25298Y325024D01*
X23774D01*
X22250Y326548D01*
X20726Y325024D01*
X19202D01*
X20726Y323500D01*
X19202Y321976D01*
X20726D01*
X22250Y320452D01*
X40250Y318670D02*
X42790Y321210D01*
X45330D01*
X42790Y323750D01*
X45330Y326290D01*
X42790D01*
X40250Y328830D01*
X37710Y326290D01*
X35170D01*
X37710Y323750D01*
X35170Y321210D01*
X37710D01*
X40250Y318670D01*
Y320702D02*
X41774Y322226D01*
X43298D01*
X41774Y323750D01*
X43298Y325274D01*
X41774D01*
X40250Y326798D01*
X38726Y325274D01*
X37202D01*
X38726Y323750D01*
X37202Y322226D01*
X38726D01*
X40250Y320702D01*
X31500Y318670D02*
X34040Y321210D01*
X36580D01*
X34040Y323750D01*
X36580Y326290D01*
X34040D01*
X31500Y328830D01*
X28960Y326290D01*
X26420D01*
X28960Y323750D01*
X26420Y321210D01*
X28960D01*
X31500Y318670D01*
Y320702D02*
X33024Y322226D01*
X34548D01*
X33024Y323750D01*
X34548Y325274D01*
X33024D01*
X31500Y326798D01*
X29976Y325274D01*
X28452D01*
X29976Y323750D01*
X28452Y322226D01*
X29976D01*
X31500Y320702D01*
X13500Y309170D02*
X16040Y311710D01*
X18580D01*
X16040Y314250D01*
X18580Y316790D01*
X16040D01*
X13500Y319330D01*
X10960Y316790D01*
X8420D01*
X10960Y314250D01*
X8420Y311710D01*
X10960D01*
X13500Y309170D01*
Y311202D02*
X15024Y312726D01*
X16548D01*
X15024Y314250D01*
X16548Y315774D01*
X15024D01*
X13500Y317298D01*
X11976Y315774D01*
X10452D01*
X11976Y314250D01*
X10452Y312726D01*
X11976D01*
X13500Y311202D01*
X22250Y309170D02*
X24790Y311710D01*
X27330D01*
X24790Y314250D01*
X27330Y316790D01*
X24790D01*
X22250Y319330D01*
X19710Y316790D01*
X17170D01*
X19710Y314250D01*
X17170Y311710D01*
X19710D01*
X22250Y309170D01*
Y311202D02*
X23774Y312726D01*
X25298D01*
X23774Y314250D01*
X25298Y315774D01*
X23774D01*
X22250Y317298D01*
X20726Y315774D01*
X19202D01*
X20726Y314250D01*
X19202Y312726D01*
X20726D01*
X22250Y311202D01*
X40250Y309420D02*
X42790Y311960D01*
X45330D01*
X42790Y314500D01*
X45330Y317040D01*
X42790D01*
X40250Y319580D01*
X37710Y317040D01*
X35170D01*
X37710Y314500D01*
X35170Y311960D01*
X37710D01*
X40250Y309420D01*
Y311452D02*
X41774Y312976D01*
X43298D01*
X41774Y314500D01*
X43298Y316024D01*
X41774D01*
X40250Y317548D01*
X38726Y316024D01*
X37202D01*
X38726Y314500D01*
X37202Y312976D01*
X38726D01*
X40250Y311452D01*
X31500Y309420D02*
X34040Y311960D01*
X36580D01*
X34040Y314500D01*
X36580Y317040D01*
X34040D01*
X31500Y319580D01*
X28960Y317040D01*
X26420D01*
X28960Y314500D01*
X26420Y311960D01*
X28960D01*
X31500Y309420D01*
Y311452D02*
X33024Y312976D01*
X34548D01*
X33024Y314500D01*
X34548Y316024D01*
X33024D01*
X31500Y317548D01*
X29976Y316024D01*
X28452D01*
X29976Y314500D01*
X28452Y312976D01*
X29976D01*
X31500Y311452D01*
X-335500Y306670D02*
X-332960Y309210D01*
X-330420D01*
X-332960Y311750D01*
X-330420Y314290D01*
X-332960D01*
X-335500Y316830D01*
X-338040Y314290D01*
X-340580D01*
X-338040Y311750D01*
X-340580Y309210D01*
X-338040D01*
X-335500Y306670D01*
Y308702D02*
X-333976Y310226D01*
X-332452D01*
X-333976Y311750D01*
X-332452Y313274D01*
X-333976D01*
X-335500Y314798D01*
X-337024Y313274D01*
X-338548D01*
X-337024Y311750D01*
X-338548Y310226D01*
X-337024D01*
X-335500Y308702D01*
X-354750Y306420D02*
X-352210Y308960D01*
X-349670D01*
X-352210Y311500D01*
X-349670Y314040D01*
X-352210D01*
X-354750Y316580D01*
X-357290Y314040D01*
X-359830D01*
X-357290Y311500D01*
X-359830Y308960D01*
X-357290D01*
X-354750Y306420D01*
Y308452D02*
X-353226Y309976D01*
X-351702D01*
X-353226Y311500D01*
X-351702Y313024D01*
X-353226D01*
X-354750Y314548D01*
X-356274Y313024D01*
X-357798D01*
X-356274Y311500D01*
X-357798Y309976D01*
X-356274D01*
X-354750Y308452D01*
X-364000Y306420D02*
X-361460Y308960D01*
X-358920D01*
X-361460Y311500D01*
X-358920Y314040D01*
X-361460D01*
X-364000Y316580D01*
X-366540Y314040D01*
X-369080D01*
X-366540Y311500D01*
X-369080Y308960D01*
X-366540D01*
X-364000Y306420D01*
Y308452D02*
X-362476Y309976D01*
X-360952D01*
X-362476Y311500D01*
X-360952Y313024D01*
X-362476D01*
X-364000Y314548D01*
X-365524Y313024D01*
X-367048D01*
X-365524Y311500D01*
X-367048Y309976D01*
X-365524D01*
X-364000Y308452D01*
X-401250Y306170D02*
X-398710Y308710D01*
X-396170D01*
X-398710Y311250D01*
X-396170Y313790D01*
X-398710D01*
X-401250Y316330D01*
X-403790Y313790D01*
X-406330D01*
X-403790Y311250D01*
X-406330Y308710D01*
X-403790D01*
X-401250Y306170D01*
Y308202D02*
X-399726Y309726D01*
X-398202D01*
X-399726Y311250D01*
X-398202Y312774D01*
X-399726D01*
X-401250Y314298D01*
X-402774Y312774D01*
X-404298D01*
X-402774Y311250D01*
X-404298Y309726D01*
X-402774D01*
X-401250Y308202D01*
X-345000Y306420D02*
X-342460Y308960D01*
X-339920D01*
X-342460Y311500D01*
X-339920Y314040D01*
X-342460D01*
X-345000Y316580D01*
X-347540Y314040D01*
X-350080D01*
X-347540Y311500D01*
X-350080Y308960D01*
X-347540D01*
X-345000Y306420D01*
Y308452D02*
X-343476Y309976D01*
X-341952D01*
X-343476Y311500D01*
X-341952Y313024D01*
X-343476D01*
X-345000Y314548D01*
X-346524Y313024D01*
X-348048D01*
X-346524Y311500D01*
X-348048Y309976D01*
X-346524D01*
X-345000Y308452D01*
X-372750Y306420D02*
X-370210Y308960D01*
X-367670D01*
X-370210Y311500D01*
X-367670Y314040D01*
X-370210D01*
X-372750Y316580D01*
X-375290Y314040D01*
X-377830D01*
X-375290Y311500D01*
X-377830Y308960D01*
X-375290D01*
X-372750Y306420D01*
Y308452D02*
X-371226Y309976D01*
X-369702D01*
X-371226Y311500D01*
X-369702Y313024D01*
X-371226D01*
X-372750Y314548D01*
X-374274Y313024D01*
X-375798D01*
X-374274Y311500D01*
X-375798Y309976D01*
X-374274D01*
X-372750Y308452D01*
X-382250Y306170D02*
X-379710Y308710D01*
X-377170D01*
X-379710Y311250D01*
X-377170Y313790D01*
X-379710D01*
X-382250Y316330D01*
X-384790Y313790D01*
X-387330D01*
X-384790Y311250D01*
X-387330Y308710D01*
X-384790D01*
X-382250Y306170D01*
Y308202D02*
X-380726Y309726D01*
X-379202D01*
X-380726Y311250D01*
X-379202Y312774D01*
X-380726D01*
X-382250Y314298D01*
X-383774Y312774D01*
X-385298D01*
X-383774Y311250D01*
X-385298Y309726D01*
X-383774D01*
X-382250Y308202D01*
X-392000Y306170D02*
X-389460Y308710D01*
X-386920D01*
X-389460Y311250D01*
X-386920Y313790D01*
X-389460D01*
X-392000Y316330D01*
X-394540Y313790D01*
X-397080D01*
X-394540Y311250D01*
X-397080Y308710D01*
X-394540D01*
X-392000Y306170D01*
Y308202D02*
X-390476Y309726D01*
X-388952D01*
X-390476Y311250D01*
X-388952Y312774D01*
X-390476D01*
X-392000Y314298D01*
X-393524Y312774D01*
X-395048D01*
X-393524Y311250D01*
X-395048Y309726D01*
X-393524D01*
X-392000Y308202D01*
X-355000Y324420D02*
X-352460Y326960D01*
X-349920D01*
X-352460Y329500D01*
X-349920Y332040D01*
X-352460D01*
X-355000Y334580D01*
X-357540Y332040D01*
X-360080D01*
X-357540Y329500D01*
X-360080Y326960D01*
X-357540D01*
X-355000Y324420D01*
Y326452D02*
X-353476Y327976D01*
X-351952D01*
X-353476Y329500D01*
X-351952Y331024D01*
X-353476D01*
X-355000Y332548D01*
X-356524Y331024D01*
X-358048D01*
X-356524Y329500D01*
X-358048Y327976D01*
X-356524D01*
X-355000Y326452D01*
X-354750Y315170D02*
X-352210Y317710D01*
X-349670D01*
X-352210Y320250D01*
X-349670Y322790D01*
X-352210D01*
X-354750Y325330D01*
X-357290Y322790D01*
X-359830D01*
X-357290Y320250D01*
X-359830Y317710D01*
X-357290D01*
X-354750Y315170D01*
Y317202D02*
X-353226Y318726D01*
X-351702D01*
X-353226Y320250D01*
X-351702Y321774D01*
X-353226D01*
X-354750Y323298D01*
X-356274Y321774D01*
X-357798D01*
X-356274Y320250D01*
X-357798Y318726D01*
X-356274D01*
X-354750Y317202D01*
X-345000Y315170D02*
X-342460Y317710D01*
X-339920D01*
X-342460Y320250D01*
X-339920Y322790D01*
X-342460D01*
X-345000Y325330D01*
X-347540Y322790D01*
X-350080D01*
X-347540Y320250D01*
X-350080Y317710D01*
X-347540D01*
X-345000Y315170D01*
Y317202D02*
X-343476Y318726D01*
X-341952D01*
X-343476Y320250D01*
X-341952Y321774D01*
X-343476D01*
X-345000Y323298D01*
X-346524Y321774D01*
X-348048D01*
X-346524Y320250D01*
X-348048Y318726D01*
X-346524D01*
X-345000Y317202D01*
X-335500Y315420D02*
X-332960Y317960D01*
X-330420D01*
X-332960Y320500D01*
X-330420Y323040D01*
X-332960D01*
X-335500Y325580D01*
X-338040Y323040D01*
X-340580D01*
X-338040Y320500D01*
X-340580Y317960D01*
X-338040D01*
X-335500Y315420D01*
Y317452D02*
X-333976Y318976D01*
X-332452D01*
X-333976Y320500D01*
X-332452Y322024D01*
X-333976D01*
X-335500Y323548D01*
X-337024Y322024D01*
X-338548D01*
X-337024Y320500D01*
X-338548Y318976D01*
X-337024D01*
X-335500Y317452D01*
X-345250Y324420D02*
X-342710Y326960D01*
X-340170D01*
X-342710Y329500D01*
X-340170Y332040D01*
X-342710D01*
X-345250Y334580D01*
X-347790Y332040D01*
X-350330D01*
X-347790Y329500D01*
X-350330Y326960D01*
X-347790D01*
X-345250Y324420D01*
Y326452D02*
X-343726Y327976D01*
X-342202D01*
X-343726Y329500D01*
X-342202Y331024D01*
X-343726D01*
X-345250Y332548D01*
X-346774Y331024D01*
X-348298D01*
X-346774Y329500D01*
X-348298Y327976D01*
X-346774D01*
X-345250Y326452D01*
X-335750Y324670D02*
X-333210Y327210D01*
X-330670D01*
X-333210Y329750D01*
X-330670Y332290D01*
X-333210D01*
X-335750Y334830D01*
X-338290Y332290D01*
X-340830D01*
X-338290Y329750D01*
X-340830Y327210D01*
X-338290D01*
X-335750Y324670D01*
Y326702D02*
X-334226Y328226D01*
X-332702D01*
X-334226Y329750D01*
X-332702Y331274D01*
X-334226D01*
X-335750Y332798D01*
X-337274Y331274D01*
X-338798D01*
X-337274Y329750D01*
X-338798Y328226D01*
X-337274D01*
X-335750Y326702D01*
Y333420D02*
X-333210Y335960D01*
X-330670D01*
X-333210Y338500D01*
X-330670Y341040D01*
X-333210D01*
X-335750Y343580D01*
X-338290Y341040D01*
X-340830D01*
X-338290Y338500D01*
X-340830Y335960D01*
X-338290D01*
X-335750Y333420D01*
Y335452D02*
X-334226Y336976D01*
X-332702D01*
X-334226Y338500D01*
X-332702Y340024D01*
X-334226D01*
X-335750Y341548D01*
X-337274Y340024D01*
X-338798D01*
X-337274Y338500D01*
X-338798Y336976D01*
X-337274D01*
X-335750Y335452D01*
X-355000Y333170D02*
X-352460Y335710D01*
X-349920D01*
X-352460Y338250D01*
X-349920Y340790D01*
X-352460D01*
X-355000Y343330D01*
X-357540Y340790D01*
X-360080D01*
X-357540Y338250D01*
X-360080Y335710D01*
X-357540D01*
X-355000Y333170D01*
Y335202D02*
X-353476Y336726D01*
X-351952D01*
X-353476Y338250D01*
X-351952Y339774D01*
X-353476D01*
X-355000Y341298D01*
X-356524Y339774D01*
X-358048D01*
X-356524Y338250D01*
X-358048Y336726D01*
X-356524D01*
X-355000Y335202D01*
X-345250Y333170D02*
X-342710Y335710D01*
X-340170D01*
X-342710Y338250D01*
X-340170Y340790D01*
X-342710D01*
X-345250Y343330D01*
X-347790Y340790D01*
X-350330D01*
X-347790Y338250D01*
X-350330Y335710D01*
X-347790D01*
X-345250Y333170D01*
Y335202D02*
X-343726Y336726D01*
X-342202D01*
X-343726Y338250D01*
X-342202Y339774D01*
X-343726D01*
X-345250Y341298D01*
X-346774Y339774D01*
X-348298D01*
X-346774Y338250D01*
X-348298Y336726D01*
X-346774D01*
X-345250Y335202D01*
X-373000Y324420D02*
X-370460Y326960D01*
X-367920D01*
X-370460Y329500D01*
X-367920Y332040D01*
X-370460D01*
X-373000Y334580D01*
X-375540Y332040D01*
X-378080D01*
X-375540Y329500D01*
X-378080Y326960D01*
X-375540D01*
X-373000Y324420D01*
Y326452D02*
X-371476Y327976D01*
X-369952D01*
X-371476Y329500D01*
X-369952Y331024D01*
X-371476D01*
X-373000Y332548D01*
X-374524Y331024D01*
X-376048D01*
X-374524Y329500D01*
X-376048Y327976D01*
X-374524D01*
X-373000Y326452D01*
X-392250Y324170D02*
X-389710Y326710D01*
X-387170D01*
X-389710Y329250D01*
X-387170Y331790D01*
X-389710D01*
X-392250Y334330D01*
X-394790Y331790D01*
X-397330D01*
X-394790Y329250D01*
X-397330Y326710D01*
X-394790D01*
X-392250Y324170D01*
Y326202D02*
X-390726Y327726D01*
X-389202D01*
X-390726Y329250D01*
X-389202Y330774D01*
X-390726D01*
X-392250Y332298D01*
X-393774Y330774D01*
X-395298D01*
X-393774Y329250D01*
X-395298Y327726D01*
X-393774D01*
X-392250Y326202D01*
X-392000Y314920D02*
X-389460Y317460D01*
X-386920D01*
X-389460Y320000D01*
X-386920Y322540D01*
X-389460D01*
X-392000Y325080D01*
X-394540Y322540D01*
X-397080D01*
X-394540Y320000D01*
X-397080Y317460D01*
X-394540D01*
X-392000Y314920D01*
Y316952D02*
X-390476Y318476D01*
X-388952D01*
X-390476Y320000D01*
X-388952Y321524D01*
X-390476D01*
X-392000Y323048D01*
X-393524Y321524D01*
X-395048D01*
X-393524Y320000D01*
X-395048Y318476D01*
X-393524D01*
X-392000Y316952D01*
X-372750Y315170D02*
X-370210Y317710D01*
X-367670D01*
X-370210Y320250D01*
X-367670Y322790D01*
X-370210D01*
X-372750Y325330D01*
X-375290Y322790D01*
X-377830D01*
X-375290Y320250D01*
X-377830Y317710D01*
X-375290D01*
X-372750Y315170D01*
Y317202D02*
X-371226Y318726D01*
X-369702D01*
X-371226Y320250D01*
X-369702Y321774D01*
X-371226D01*
X-372750Y323298D01*
X-374274Y321774D01*
X-375798D01*
X-374274Y320250D01*
X-375798Y318726D01*
X-374274D01*
X-372750Y317202D01*
X-392250Y332920D02*
X-389710Y335460D01*
X-387170D01*
X-389710Y338000D01*
X-387170Y340540D01*
X-389710D01*
X-392250Y343080D01*
X-394790Y340540D01*
X-397330D01*
X-394790Y338000D01*
X-397330Y335460D01*
X-394790D01*
X-392250Y332920D01*
Y334952D02*
X-390726Y336476D01*
X-389202D01*
X-390726Y338000D01*
X-389202Y339524D01*
X-390726D01*
X-392250Y341048D01*
X-393774Y339524D01*
X-395298D01*
X-393774Y338000D01*
X-395298Y336476D01*
X-393774D01*
X-392250Y334952D01*
X-401500Y324170D02*
X-398960Y326710D01*
X-396420D01*
X-398960Y329250D01*
X-396420Y331790D01*
X-398960D01*
X-401500Y334330D01*
X-404040Y331790D01*
X-406580D01*
X-404040Y329250D01*
X-406580Y326710D01*
X-404040D01*
X-401500Y324170D01*
Y326202D02*
X-399976Y327726D01*
X-398452D01*
X-399976Y329250D01*
X-398452Y330774D01*
X-399976D01*
X-401500Y332298D01*
X-403024Y330774D01*
X-404548D01*
X-403024Y329250D01*
X-404548Y327726D01*
X-403024D01*
X-401500Y326202D01*
X-382500Y324170D02*
X-379960Y326710D01*
X-377420D01*
X-379960Y329250D01*
X-377420Y331790D01*
X-379960D01*
X-382500Y334330D01*
X-385040Y331790D01*
X-387580D01*
X-385040Y329250D01*
X-387580Y326710D01*
X-385040D01*
X-382500Y324170D01*
Y326202D02*
X-380976Y327726D01*
X-379452D01*
X-380976Y329250D01*
X-379452Y330774D01*
X-380976D01*
X-382500Y332298D01*
X-384024Y330774D01*
X-385548D01*
X-384024Y329250D01*
X-385548Y327726D01*
X-384024D01*
X-382500Y326202D01*
Y332920D02*
X-379960Y335460D01*
X-377420D01*
X-379960Y338000D01*
X-377420Y340540D01*
X-379960D01*
X-382500Y343080D01*
X-385040Y340540D01*
X-387580D01*
X-385040Y338000D01*
X-387580Y335460D01*
X-385040D01*
X-382500Y332920D01*
Y334952D02*
X-380976Y336476D01*
X-379452D01*
X-380976Y338000D01*
X-379452Y339524D01*
X-380976D01*
X-382500Y341048D01*
X-384024Y339524D01*
X-385548D01*
X-384024Y338000D01*
X-385548Y336476D01*
X-384024D01*
X-382500Y334952D01*
X-364250Y324420D02*
X-361710Y326960D01*
X-359170D01*
X-361710Y329500D01*
X-359170Y332040D01*
X-361710D01*
X-364250Y334580D01*
X-366790Y332040D01*
X-369330D01*
X-366790Y329500D01*
X-369330Y326960D01*
X-366790D01*
X-364250Y324420D01*
Y326452D02*
X-362726Y327976D01*
X-361202D01*
X-362726Y329500D01*
X-361202Y331024D01*
X-362726D01*
X-364250Y332548D01*
X-365774Y331024D01*
X-367298D01*
X-365774Y329500D01*
X-367298Y327976D01*
X-365774D01*
X-364250Y326452D01*
Y333170D02*
X-361710Y335710D01*
X-359170D01*
X-361710Y338250D01*
X-359170Y340790D01*
X-361710D01*
X-364250Y343330D01*
X-366790Y340790D01*
X-369330D01*
X-366790Y338250D01*
X-369330Y335710D01*
X-366790D01*
X-364250Y333170D01*
Y335202D02*
X-362726Y336726D01*
X-361202D01*
X-362726Y338250D01*
X-361202Y339774D01*
X-362726D01*
X-364250Y341298D01*
X-365774Y339774D01*
X-367298D01*
X-365774Y338250D01*
X-367298Y336726D01*
X-365774D01*
X-364250Y335202D01*
X-373000Y333170D02*
X-370460Y335710D01*
X-367920D01*
X-370460Y338250D01*
X-367920Y340790D01*
X-370460D01*
X-373000Y343330D01*
X-375540Y340790D01*
X-378080D01*
X-375540Y338250D01*
X-378080Y335710D01*
X-375540D01*
X-373000Y333170D01*
Y335202D02*
X-371476Y336726D01*
X-369952D01*
X-371476Y338250D01*
X-369952Y339774D01*
X-371476D01*
X-373000Y341298D01*
X-374524Y339774D01*
X-376048D01*
X-374524Y338250D01*
X-376048Y336726D01*
X-374524D01*
X-373000Y335202D01*
X-401500Y332920D02*
X-398960Y335460D01*
X-396420D01*
X-398960Y338000D01*
X-396420Y340540D01*
X-398960D01*
X-401500Y343080D01*
X-404040Y340540D01*
X-406580D01*
X-404040Y338000D01*
X-406580Y335460D01*
X-404040D01*
X-401500Y332920D01*
Y334952D02*
X-399976Y336476D01*
X-398452D01*
X-399976Y338000D01*
X-398452Y339524D01*
X-399976D01*
X-401500Y341048D01*
X-403024Y339524D01*
X-404548D01*
X-403024Y338000D01*
X-404548Y336476D01*
X-403024D01*
X-401500Y334952D01*
X-401250Y314920D02*
X-398710Y317460D01*
X-396170D01*
X-398710Y320000D01*
X-396170Y322540D01*
X-398710D01*
X-401250Y325080D01*
X-403790Y322540D01*
X-406330D01*
X-403790Y320000D01*
X-406330Y317460D01*
X-403790D01*
X-401250Y314920D01*
Y316952D02*
X-399726Y318476D01*
X-398202D01*
X-399726Y320000D01*
X-398202Y321524D01*
X-399726D01*
X-401250Y323048D01*
X-402774Y321524D01*
X-404298D01*
X-402774Y320000D01*
X-404298Y318476D01*
X-402774D01*
X-401250Y316952D01*
X-382250Y314920D02*
X-379710Y317460D01*
X-377170D01*
X-379710Y320000D01*
X-377170Y322540D01*
X-379710D01*
X-382250Y325080D01*
X-384790Y322540D01*
X-387330D01*
X-384790Y320000D01*
X-387330Y317460D01*
X-384790D01*
X-382250Y314920D01*
Y316952D02*
X-380726Y318476D01*
X-379202D01*
X-380726Y320000D01*
X-379202Y321524D01*
X-380726D01*
X-382250Y323048D01*
X-383774Y321524D01*
X-385298D01*
X-383774Y320000D01*
X-385298Y318476D01*
X-383774D01*
X-382250Y316952D01*
X-364000Y315170D02*
X-361460Y317710D01*
X-358920D01*
X-361460Y320250D01*
X-358920Y322790D01*
X-361460D01*
X-364000Y325330D01*
X-366540Y322790D01*
X-369080D01*
X-366540Y320250D01*
X-369080Y317710D01*
X-366540D01*
X-364000Y315170D01*
Y317202D02*
X-362476Y318726D01*
X-360952D01*
X-362476Y320250D01*
X-360952Y321774D01*
X-362476D01*
X-364000Y323298D01*
X-365524Y321774D01*
X-367048D01*
X-365524Y320250D01*
X-367048Y318726D01*
X-365524D01*
X-364000Y317202D01*
X360750Y13670D02*
X363290Y16210D01*
X365830D01*
X363290Y18750D01*
X365830Y21290D01*
X363290D01*
X360750Y23830D01*
X358210Y21290D01*
X355670D01*
X358210Y18750D01*
X355670Y16210D01*
X358210D01*
X360750Y13670D01*
Y15702D02*
X362274Y17226D01*
X363798D01*
X362274Y18750D01*
X363798Y20274D01*
X362274D01*
X360750Y21798D01*
X359226Y20274D01*
X357702D01*
X359226Y18750D01*
X357702Y17226D01*
X359226D01*
X360750Y15702D01*
X370500Y13670D02*
X373040Y16210D01*
X375580D01*
X373040Y18750D01*
X375580Y21290D01*
X373040D01*
X370500Y23830D01*
X367960Y21290D01*
X365420D01*
X367960Y18750D01*
X365420Y16210D01*
X367960D01*
X370500Y13670D01*
Y15702D02*
X372024Y17226D01*
X373548D01*
X372024Y18750D01*
X373548Y20274D01*
X372024D01*
X370500Y21798D01*
X368976Y20274D01*
X367452D01*
X368976Y18750D01*
X367452Y17226D01*
X368976D01*
X370500Y15702D01*
X360750Y22420D02*
X363290Y24960D01*
X365830D01*
X363290Y27500D01*
X365830Y30040D01*
X363290D01*
X360750Y32580D01*
X358210Y30040D01*
X355670D01*
X358210Y27500D01*
X355670Y24960D01*
X358210D01*
X360750Y22420D01*
Y24452D02*
X362274Y25976D01*
X363798D01*
X362274Y27500D01*
X363798Y29024D01*
X362274D01*
X360750Y30548D01*
X359226Y29024D01*
X357702D01*
X359226Y27500D01*
X357702Y25976D01*
X359226D01*
X360750Y24452D01*
X380000Y22670D02*
X382540Y25210D01*
X385080D01*
X382540Y27750D01*
X385080Y30290D01*
X382540D01*
X380000Y32830D01*
X377460Y30290D01*
X374920D01*
X377460Y27750D01*
X374920Y25210D01*
X377460D01*
X380000Y22670D01*
Y24702D02*
X381524Y26226D01*
X383048D01*
X381524Y27750D01*
X383048Y29274D01*
X381524D01*
X380000Y30798D01*
X378476Y29274D01*
X376952D01*
X378476Y27750D01*
X376952Y26226D01*
X378476D01*
X380000Y24702D01*
Y13920D02*
X382540Y16460D01*
X385080D01*
X382540Y19000D01*
X385080Y21540D01*
X382540D01*
X380000Y24080D01*
X377460Y21540D01*
X374920D01*
X377460Y19000D01*
X374920Y16460D01*
X377460D01*
X380000Y13920D01*
Y15952D02*
X381524Y17476D01*
X383048D01*
X381524Y19000D01*
X383048Y20524D01*
X381524D01*
X380000Y22048D01*
X378476Y20524D01*
X376952D01*
X378476Y19000D01*
X376952Y17476D01*
X378476D01*
X380000Y15952D01*
X370500Y22420D02*
X373040Y24960D01*
X375580D01*
X373040Y27500D01*
X375580Y30040D01*
X373040D01*
X370500Y32580D01*
X367960Y30040D01*
X365420D01*
X367960Y27500D01*
X365420Y24960D01*
X367960D01*
X370500Y22420D01*
Y24452D02*
X372024Y25976D01*
X373548D01*
X372024Y27500D01*
X373548Y29024D01*
X372024D01*
X370500Y30548D01*
X368976Y29024D01*
X367452D01*
X368976Y27500D01*
X367452Y25976D01*
X368976D01*
X370500Y24452D01*
X370750Y-4330D02*
X373290Y-1790D01*
X375830D01*
X373290Y750D01*
X375830Y3290D01*
X373290D01*
X370750Y5830D01*
X368210Y3290D01*
X365670D01*
X368210Y750D01*
X365670Y-1790D01*
X368210D01*
X370750Y-4330D01*
Y-2298D02*
X372274Y-774D01*
X373798D01*
X372274Y750D01*
X373798Y2274D01*
X372274D01*
X370750Y3798D01*
X369226Y2274D01*
X367702D01*
X369226Y750D01*
X367702Y-774D01*
X369226D01*
X370750Y-2298D01*
X361000Y4420D02*
X363540Y6960D01*
X366080D01*
X363540Y9500D01*
X366080Y12040D01*
X363540D01*
X361000Y14580D01*
X358460Y12040D01*
X355920D01*
X358460Y9500D01*
X355920Y6960D01*
X358460D01*
X361000Y4420D01*
Y6452D02*
X362524Y7976D01*
X364048D01*
X362524Y9500D01*
X364048Y11024D01*
X362524D01*
X361000Y12548D01*
X359476Y11024D01*
X357952D01*
X359476Y9500D01*
X357952Y7976D01*
X359476D01*
X361000Y6452D01*
Y-4330D02*
X363540Y-1790D01*
X366080D01*
X363540Y750D01*
X366080Y3290D01*
X363540D01*
X361000Y5830D01*
X358460Y3290D01*
X355920D01*
X358460Y750D01*
X355920Y-1790D01*
X358460D01*
X361000Y-4330D01*
Y-2298D02*
X362524Y-774D01*
X364048D01*
X362524Y750D01*
X364048Y2274D01*
X362524D01*
X361000Y3798D01*
X359476Y2274D01*
X357952D01*
X359476Y750D01*
X357952Y-774D01*
X359476D01*
X361000Y-2298D01*
X380250Y4670D02*
X382790Y7210D01*
X385330D01*
X382790Y9750D01*
X385330Y12290D01*
X382790D01*
X380250Y14830D01*
X377710Y12290D01*
X375170D01*
X377710Y9750D01*
X375170Y7210D01*
X377710D01*
X380250Y4670D01*
Y6702D02*
X381774Y8226D01*
X383298D01*
X381774Y9750D01*
X383298Y11274D01*
X381774D01*
X380250Y12798D01*
X378726Y11274D01*
X377202D01*
X378726Y9750D01*
X377202Y8226D01*
X378726D01*
X380250Y6702D01*
Y-4080D02*
X382790Y-1540D01*
X385330D01*
X382790Y1000D01*
X385330Y3540D01*
X382790D01*
X380250Y6080D01*
X377710Y3540D01*
X375170D01*
X377710Y1000D01*
X375170Y-1540D01*
X377710D01*
X380250Y-4080D01*
Y-2048D02*
X381774Y-524D01*
X383298D01*
X381774Y1000D01*
X383298Y2524D01*
X381774D01*
X380250Y4048D01*
X378726Y2524D01*
X377202D01*
X378726Y1000D01*
X377202Y-524D01*
X378726D01*
X380250Y-2048D01*
X370750Y4420D02*
X373290Y6960D01*
X375830D01*
X373290Y9500D01*
X375830Y12040D01*
X373290D01*
X370750Y14580D01*
X368210Y12040D01*
X365670D01*
X368210Y9500D01*
X365670Y6960D01*
X368210D01*
X370750Y4420D01*
Y6452D02*
X372274Y7976D01*
X373798D01*
X372274Y9500D01*
X373798Y11024D01*
X372274D01*
X370750Y12548D01*
X369226Y11024D01*
X367702D01*
X369226Y9500D01*
X367702Y7976D01*
X369226D01*
X370750Y6452D01*
X351750Y4420D02*
X354290Y6960D01*
X356830D01*
X354290Y9500D01*
X356830Y12040D01*
X354290D01*
X351750Y14580D01*
X349210Y12040D01*
X346670D01*
X349210Y9500D01*
X346670Y6960D01*
X349210D01*
X351750Y4420D01*
Y6452D02*
X353274Y7976D01*
X354798D01*
X353274Y9500D01*
X354798Y11024D01*
X353274D01*
X351750Y12548D01*
X350226Y11024D01*
X348702D01*
X350226Y9500D01*
X348702Y7976D01*
X350226D01*
X351750Y6452D01*
X343000Y-4330D02*
X345540Y-1790D01*
X348080D01*
X345540Y750D01*
X348080Y3290D01*
X345540D01*
X343000Y5830D01*
X340460Y3290D01*
X337920D01*
X340460Y750D01*
X337920Y-1790D01*
X340460D01*
X343000Y-4330D01*
Y-2298D02*
X344524Y-774D01*
X346048D01*
X344524Y750D01*
X346048Y2274D01*
X344524D01*
X343000Y3798D01*
X341476Y2274D01*
X339952D01*
X341476Y750D01*
X339952Y-774D01*
X341476D01*
X343000Y-2298D01*
Y4420D02*
X345540Y6960D01*
X348080D01*
X345540Y9500D01*
X348080Y12040D01*
X345540D01*
X343000Y14580D01*
X340460Y12040D01*
X337920D01*
X340460Y9500D01*
X337920Y6960D01*
X340460D01*
X343000Y4420D01*
Y6452D02*
X344524Y7976D01*
X346048D01*
X344524Y9500D01*
X346048Y11024D01*
X344524D01*
X343000Y12548D01*
X341476Y11024D01*
X339952D01*
X341476Y9500D01*
X339952Y7976D01*
X341476D01*
X343000Y6452D01*
X342750Y13670D02*
X345290Y16210D01*
X347830D01*
X345290Y18750D01*
X347830Y21290D01*
X345290D01*
X342750Y23830D01*
X340210Y21290D01*
X337670D01*
X340210Y18750D01*
X337670Y16210D01*
X340210D01*
X342750Y13670D01*
Y15702D02*
X344274Y17226D01*
X345798D01*
X344274Y18750D01*
X345798Y20274D01*
X344274D01*
X342750Y21798D01*
X341226Y20274D01*
X339702D01*
X341226Y18750D01*
X339702Y17226D01*
X341226D01*
X342750Y15702D01*
Y22420D02*
X345290Y24960D01*
X347830D01*
X345290Y27500D01*
X347830Y30040D01*
X345290D01*
X342750Y32580D01*
X340210Y30040D01*
X337670D01*
X340210Y27500D01*
X337670Y24960D01*
X340210D01*
X342750Y22420D01*
Y24452D02*
X344274Y25976D01*
X345798D01*
X344274Y27500D01*
X345798Y29024D01*
X344274D01*
X342750Y30548D01*
X341226Y29024D01*
X339702D01*
X341226Y27500D01*
X339702Y25976D01*
X341226D01*
X342750Y24452D01*
X351750Y-4330D02*
X354290Y-1790D01*
X356830D01*
X354290Y750D01*
X356830Y3290D01*
X354290D01*
X351750Y5830D01*
X349210Y3290D01*
X346670D01*
X349210Y750D01*
X346670Y-1790D01*
X349210D01*
X351750Y-4330D01*
Y-2298D02*
X353274Y-774D01*
X354798D01*
X353274Y750D01*
X354798Y2274D01*
X353274D01*
X351750Y3798D01*
X350226Y2274D01*
X348702D01*
X350226Y750D01*
X348702Y-774D01*
X350226D01*
X351750Y-2298D01*
X351500Y22420D02*
X354040Y24960D01*
X356580D01*
X354040Y27500D01*
X356580Y30040D01*
X354040D01*
X351500Y32580D01*
X348960Y30040D01*
X346420D01*
X348960Y27500D01*
X346420Y24960D01*
X348960D01*
X351500Y22420D01*
Y24452D02*
X353024Y25976D01*
X354548D01*
X353024Y27500D01*
X354548Y29024D01*
X353024D01*
X351500Y30548D01*
X349976Y29024D01*
X348452D01*
X349976Y27500D01*
X348452Y25976D01*
X349976D01*
X351500Y24452D01*
Y13670D02*
X354040Y16210D01*
X356580D01*
X354040Y18750D01*
X356580Y21290D01*
X354040D01*
X351500Y23830D01*
X348960Y21290D01*
X346420D01*
X348960Y18750D01*
X346420Y16210D01*
X348960D01*
X351500Y13670D01*
Y15702D02*
X353024Y17226D01*
X354548D01*
X353024Y18750D01*
X354548Y20274D01*
X353024D01*
X351500Y21798D01*
X349976Y20274D01*
X348452D01*
X349976Y18750D01*
X348452Y17226D01*
X349976D01*
X351500Y15702D01*
X333500Y-4580D02*
X336040Y-2040D01*
X338580D01*
X336040Y500D01*
X338580Y3040D01*
X336040D01*
X333500Y5580D01*
X330960Y3040D01*
X328420D01*
X330960Y500D01*
X328420Y-2040D01*
X330960D01*
X333500Y-4580D01*
Y-2548D02*
X335024Y-1024D01*
X336548D01*
X335024Y500D01*
X336548Y2024D01*
X335024D01*
X333500Y3548D01*
X331976Y2024D01*
X330452D01*
X331976Y500D01*
X330452Y-1024D01*
X331976D01*
X333500Y-2548D01*
X314250Y13420D02*
X316790Y15960D01*
X319330D01*
X316790Y18500D01*
X319330Y21040D01*
X316790D01*
X314250Y23580D01*
X311710Y21040D01*
X309170D01*
X311710Y18500D01*
X309170Y15960D01*
X311710D01*
X314250Y13420D01*
Y15452D02*
X315774Y16976D01*
X317298D01*
X315774Y18500D01*
X317298Y20024D01*
X315774D01*
X314250Y21548D01*
X312726Y20024D01*
X311202D01*
X312726Y18500D01*
X311202Y16976D01*
X312726D01*
X314250Y15452D01*
X323500Y13420D02*
X326040Y15960D01*
X328580D01*
X326040Y18500D01*
X328580Y21040D01*
X326040D01*
X323500Y23580D01*
X320960Y21040D01*
X318420D01*
X320960Y18500D01*
X318420Y15960D01*
X320960D01*
X323500Y13420D01*
Y15452D02*
X325024Y16976D01*
X326548D01*
X325024Y18500D01*
X326548Y20024D01*
X325024D01*
X323500Y21548D01*
X321976Y20024D01*
X320452D01*
X321976Y18500D01*
X320452Y16976D01*
X321976D01*
X323500Y15452D01*
X333250Y22170D02*
X335790Y24710D01*
X338330D01*
X335790Y27250D01*
X338330Y29790D01*
X335790D01*
X333250Y32330D01*
X330710Y29790D01*
X328170D01*
X330710Y27250D01*
X328170Y24710D01*
X330710D01*
X333250Y22170D01*
Y24202D02*
X334774Y25726D01*
X336298D01*
X334774Y27250D01*
X336298Y28774D01*
X334774D01*
X333250Y30298D01*
X331726Y28774D01*
X330202D01*
X331726Y27250D01*
X330202Y25726D01*
X331726D01*
X333250Y24202D01*
X314500Y4170D02*
X317040Y6710D01*
X319580D01*
X317040Y9250D01*
X319580Y11790D01*
X317040D01*
X314500Y14330D01*
X311960Y11790D01*
X309420D01*
X311960Y9250D01*
X309420Y6710D01*
X311960D01*
X314500Y4170D01*
Y6202D02*
X316024Y7726D01*
X317548D01*
X316024Y9250D01*
X317548Y10774D01*
X316024D01*
X314500Y12298D01*
X312976Y10774D01*
X311452D01*
X312976Y9250D01*
X311452Y7726D01*
X312976D01*
X314500Y6202D01*
Y-4580D02*
X317040Y-2040D01*
X319580D01*
X317040Y500D01*
X319580Y3040D01*
X317040D01*
X314500Y5580D01*
X311960Y3040D01*
X309420D01*
X311960Y500D01*
X309420Y-2040D01*
X311960D01*
X314500Y-4580D01*
Y-2548D02*
X316024Y-1024D01*
X317548D01*
X316024Y500D01*
X317548Y2024D01*
X316024D01*
X314500Y3548D01*
X312976Y2024D01*
X311452D01*
X312976Y500D01*
X311452Y-1024D01*
X312976D01*
X314500Y-2548D01*
X323750Y4170D02*
X326290Y6710D01*
X328830D01*
X326290Y9250D01*
X328830Y11790D01*
X326290D01*
X323750Y14330D01*
X321210Y11790D01*
X318670D01*
X321210Y9250D01*
X318670Y6710D01*
X321210D01*
X323750Y4170D01*
Y6202D02*
X325274Y7726D01*
X326798D01*
X325274Y9250D01*
X326798Y10774D01*
X325274D01*
X323750Y12298D01*
X322226Y10774D01*
X320702D01*
X322226Y9250D01*
X320702Y7726D01*
X322226D01*
X323750Y6202D01*
X323500Y22170D02*
X326040Y24710D01*
X328580D01*
X326040Y27250D01*
X328580Y29790D01*
X326040D01*
X323500Y32330D01*
X320960Y29790D01*
X318420D01*
X320960Y27250D01*
X318420Y24710D01*
X320960D01*
X323500Y22170D01*
Y24202D02*
X325024Y25726D01*
X326548D01*
X325024Y27250D01*
X326548Y28774D01*
X325024D01*
X323500Y30298D01*
X321976Y28774D01*
X320452D01*
X321976Y27250D01*
X320452Y25726D01*
X321976D01*
X323500Y24202D01*
X333250Y13420D02*
X335790Y15960D01*
X338330D01*
X335790Y18500D01*
X338330Y21040D01*
X335790D01*
X333250Y23580D01*
X330710Y21040D01*
X328170D01*
X330710Y18500D01*
X328170Y15960D01*
X330710D01*
X333250Y13420D01*
Y15452D02*
X334774Y16976D01*
X336298D01*
X334774Y18500D01*
X336298Y20024D01*
X334774D01*
X333250Y21548D01*
X331726Y20024D01*
X330202D01*
X331726Y18500D01*
X330202Y16976D01*
X331726D01*
X333250Y15452D01*
X323750Y-4580D02*
X326290Y-2040D01*
X328830D01*
X326290Y500D01*
X328830Y3040D01*
X326290D01*
X323750Y5580D01*
X321210Y3040D01*
X318670D01*
X321210Y500D01*
X318670Y-2040D01*
X321210D01*
X323750Y-4580D01*
Y-2548D02*
X325274Y-1024D01*
X326798D01*
X325274Y500D01*
X326798Y2024D01*
X325274D01*
X323750Y3548D01*
X322226Y2024D01*
X320702D01*
X322226Y500D01*
X320702Y-1024D01*
X322226D01*
X323750Y-2548D01*
X333500Y4170D02*
X336040Y6710D01*
X338580D01*
X336040Y9250D01*
X338580Y11790D01*
X336040D01*
X333500Y14330D01*
X330960Y11790D01*
X328420D01*
X330960Y9250D01*
X328420Y6710D01*
X330960D01*
X333500Y4170D01*
Y6202D02*
X335024Y7726D01*
X336548D01*
X335024Y9250D01*
X336548Y10774D01*
X335024D01*
X333500Y12298D01*
X331976Y10774D01*
X330452D01*
X331976Y9250D01*
X330452Y7726D01*
X331976D01*
X333500Y6202D01*
X314250Y22170D02*
X316790Y24710D01*
X319330D01*
X316790Y27250D01*
X319330Y29790D01*
X316790D01*
X314250Y32330D01*
X311710Y29790D01*
X309170D01*
X311710Y27250D01*
X309170Y24710D01*
X311710D01*
X314250Y22170D01*
Y24202D02*
X315774Y25726D01*
X317298D01*
X315774Y27250D01*
X317298Y28774D01*
X315774D01*
X314250Y30298D01*
X312726Y28774D01*
X311202D01*
X312726Y27250D01*
X311202Y25726D01*
X312726D01*
X314250Y24202D01*
X311500Y289920D02*
X314040Y292460D01*
X316580D01*
X314040Y295000D01*
X316580Y297540D01*
X314040D01*
X311500Y300080D01*
X308960Y297540D01*
X306420D01*
X308960Y295000D01*
X306420Y292460D01*
X308960D01*
X311500Y289920D01*
Y291952D02*
X313024Y293476D01*
X314548D01*
X313024Y295000D01*
X314548Y296524D01*
X313024D01*
X311500Y298048D01*
X309976Y296524D01*
X308452D01*
X309976Y295000D01*
X308452Y293476D01*
X309976D01*
X311500Y291952D01*
Y281170D02*
X314040Y283710D01*
X316580D01*
X314040Y286250D01*
X316580Y288790D01*
X314040D01*
X311500Y291330D01*
X308960Y288790D01*
X306420D01*
X308960Y286250D01*
X306420Y283710D01*
X308960D01*
X311500Y281170D01*
Y283202D02*
X313024Y284726D01*
X314548D01*
X313024Y286250D01*
X314548Y287774D01*
X313024D01*
X311500Y289298D01*
X309976Y287774D01*
X308452D01*
X309976Y286250D01*
X308452Y284726D01*
X309976D01*
X311500Y283202D01*
X311250Y299170D02*
X313790Y301710D01*
X316330D01*
X313790Y304250D01*
X316330Y306790D01*
X313790D01*
X311250Y309330D01*
X308710Y306790D01*
X306170D01*
X308710Y304250D01*
X306170Y301710D01*
X308710D01*
X311250Y299170D01*
Y301202D02*
X312774Y302726D01*
X314298D01*
X312774Y304250D01*
X314298Y305774D01*
X312774D01*
X311250Y307298D01*
X309726Y305774D01*
X308202D01*
X309726Y304250D01*
X308202Y302726D01*
X309726D01*
X311250Y301202D01*
Y307920D02*
X313790Y310460D01*
X316330D01*
X313790Y313000D01*
X316330Y315540D01*
X313790D01*
X311250Y318080D01*
X308710Y315540D01*
X306170D01*
X308710Y313000D01*
X306170Y310460D01*
X308710D01*
X311250Y307920D01*
Y309952D02*
X312774Y311476D01*
X314298D01*
X312774Y313000D01*
X314298Y314524D01*
X312774D01*
X311250Y316048D01*
X309726Y314524D01*
X308202D01*
X309726Y313000D01*
X308202Y311476D01*
X309726D01*
X311250Y309952D01*
X320750Y289920D02*
X323290Y292460D01*
X325830D01*
X323290Y295000D01*
X325830Y297540D01*
X323290D01*
X320750Y300080D01*
X318210Y297540D01*
X315670D01*
X318210Y295000D01*
X315670Y292460D01*
X318210D01*
X320750Y289920D01*
Y291952D02*
X322274Y293476D01*
X323798D01*
X322274Y295000D01*
X323798Y296524D01*
X322274D01*
X320750Y298048D01*
X319226Y296524D01*
X317702D01*
X319226Y295000D01*
X317702Y293476D01*
X319226D01*
X320750Y291952D01*
Y281170D02*
X323290Y283710D01*
X325830D01*
X323290Y286250D01*
X325830Y288790D01*
X323290D01*
X320750Y291330D01*
X318210Y288790D01*
X315670D01*
X318210Y286250D01*
X315670Y283710D01*
X318210D01*
X320750Y281170D01*
Y283202D02*
X322274Y284726D01*
X323798D01*
X322274Y286250D01*
X323798Y287774D01*
X322274D01*
X320750Y289298D01*
X319226Y287774D01*
X317702D01*
X319226Y286250D01*
X317702Y284726D01*
X319226D01*
X320750Y283202D01*
X320500Y299170D02*
X323040Y301710D01*
X325580D01*
X323040Y304250D01*
X325580Y306790D01*
X323040D01*
X320500Y309330D01*
X317960Y306790D01*
X315420D01*
X317960Y304250D01*
X315420Y301710D01*
X317960D01*
X320500Y299170D01*
Y301202D02*
X322024Y302726D01*
X323548D01*
X322024Y304250D01*
X323548Y305774D01*
X322024D01*
X320500Y307298D01*
X318976Y305774D01*
X317452D01*
X318976Y304250D01*
X317452Y302726D01*
X318976D01*
X320500Y301202D01*
Y307920D02*
X323040Y310460D01*
X325580D01*
X323040Y313000D01*
X325580Y315540D01*
X323040D01*
X320500Y318080D01*
X317960Y315540D01*
X315420D01*
X317960Y313000D01*
X315420Y310460D01*
X317960D01*
X320500Y307920D01*
Y309952D02*
X322024Y311476D01*
X323548D01*
X322024Y313000D01*
X323548Y314524D01*
X322024D01*
X320500Y316048D01*
X318976Y314524D01*
X317452D01*
X318976Y313000D01*
X317452Y311476D01*
X318976D01*
X320500Y309952D01*
X330500Y289920D02*
X333040Y292460D01*
X335580D01*
X333040Y295000D01*
X335580Y297540D01*
X333040D01*
X330500Y300080D01*
X327960Y297540D01*
X325420D01*
X327960Y295000D01*
X325420Y292460D01*
X327960D01*
X330500Y289920D01*
Y291952D02*
X332024Y293476D01*
X333548D01*
X332024Y295000D01*
X333548Y296524D01*
X332024D01*
X330500Y298048D01*
X328976Y296524D01*
X327452D01*
X328976Y295000D01*
X327452Y293476D01*
X328976D01*
X330500Y291952D01*
Y281170D02*
X333040Y283710D01*
X335580D01*
X333040Y286250D01*
X335580Y288790D01*
X333040D01*
X330500Y291330D01*
X327960Y288790D01*
X325420D01*
X327960Y286250D01*
X325420Y283710D01*
X327960D01*
X330500Y281170D01*
Y283202D02*
X332024Y284726D01*
X333548D01*
X332024Y286250D01*
X333548Y287774D01*
X332024D01*
X330500Y289298D01*
X328976Y287774D01*
X327452D01*
X328976Y286250D01*
X327452Y284726D01*
X328976D01*
X330500Y283202D01*
X330250Y299170D02*
X332790Y301710D01*
X335330D01*
X332790Y304250D01*
X335330Y306790D01*
X332790D01*
X330250Y309330D01*
X327710Y306790D01*
X325170D01*
X327710Y304250D01*
X325170Y301710D01*
X327710D01*
X330250Y299170D01*
Y301202D02*
X331774Y302726D01*
X333298D01*
X331774Y304250D01*
X333298Y305774D01*
X331774D01*
X330250Y307298D01*
X328726Y305774D01*
X327202D01*
X328726Y304250D01*
X327202Y302726D01*
X328726D01*
X330250Y301202D01*
Y307920D02*
X332790Y310460D01*
X335330D01*
X332790Y313000D01*
X335330Y315540D01*
X332790D01*
X330250Y318080D01*
X327710Y315540D01*
X325170D01*
X327710Y313000D01*
X325170Y310460D01*
X327710D01*
X330250Y307920D01*
Y309952D02*
X331774Y311476D01*
X333298D01*
X331774Y313000D01*
X333298Y314524D01*
X331774D01*
X330250Y316048D01*
X328726Y314524D01*
X327202D01*
X328726Y313000D01*
X327202Y311476D01*
X328726D01*
X330250Y309952D01*
X340000Y290170D02*
X342540Y292710D01*
X345080D01*
X342540Y295250D01*
X345080Y297790D01*
X342540D01*
X340000Y300330D01*
X337460Y297790D01*
X334920D01*
X337460Y295250D01*
X334920Y292710D01*
X337460D01*
X340000Y290170D01*
Y292202D02*
X341524Y293726D01*
X343048D01*
X341524Y295250D01*
X343048Y296774D01*
X341524D01*
X340000Y298298D01*
X338476Y296774D01*
X336952D01*
X338476Y295250D01*
X336952Y293726D01*
X338476D01*
X340000Y292202D01*
Y281420D02*
X342540Y283960D01*
X345080D01*
X342540Y286500D01*
X345080Y289040D01*
X342540D01*
X340000Y291580D01*
X337460Y289040D01*
X334920D01*
X337460Y286500D01*
X334920Y283960D01*
X337460D01*
X340000Y281420D01*
Y283452D02*
X341524Y284976D01*
X343048D01*
X341524Y286500D01*
X343048Y288024D01*
X341524D01*
X340000Y289548D01*
X338476Y288024D01*
X336952D01*
X338476Y286500D01*
X336952Y284976D01*
X338476D01*
X340000Y283452D01*
X339750Y299420D02*
X342290Y301960D01*
X344830D01*
X342290Y304500D01*
X344830Y307040D01*
X342290D01*
X339750Y309580D01*
X337210Y307040D01*
X334670D01*
X337210Y304500D01*
X334670Y301960D01*
X337210D01*
X339750Y299420D01*
Y301452D02*
X341274Y302976D01*
X342798D01*
X341274Y304500D01*
X342798Y306024D01*
X341274D01*
X339750Y307548D01*
X338226Y306024D01*
X336702D01*
X338226Y304500D01*
X336702Y302976D01*
X338226D01*
X339750Y301452D01*
Y308170D02*
X342290Y310710D01*
X344830D01*
X342290Y313250D01*
X344830Y315790D01*
X342290D01*
X339750Y318330D01*
X337210Y315790D01*
X334670D01*
X337210Y313250D01*
X334670Y310710D01*
X337210D01*
X339750Y308170D01*
Y310202D02*
X341274Y311726D01*
X342798D01*
X341274Y313250D01*
X342798Y314774D01*
X341274D01*
X339750Y316298D01*
X338226Y314774D01*
X336702D01*
X338226Y313250D01*
X336702Y311726D01*
X338226D01*
X339750Y310202D01*
X377000Y308420D02*
X379540Y310960D01*
X382080D01*
X379540Y313500D01*
X382080Y316040D01*
X379540D01*
X377000Y318580D01*
X374460Y316040D01*
X371920D01*
X374460Y313500D01*
X371920Y310960D01*
X374460D01*
X377000Y308420D01*
Y310452D02*
X378524Y311976D01*
X380048D01*
X378524Y313500D01*
X380048Y315024D01*
X378524D01*
X377000Y316548D01*
X375476Y315024D01*
X373952D01*
X375476Y313500D01*
X373952Y311976D01*
X375476D01*
X377000Y310452D01*
Y299670D02*
X379540Y302210D01*
X382080D01*
X379540Y304750D01*
X382080Y307290D01*
X379540D01*
X377000Y309830D01*
X374460Y307290D01*
X371920D01*
X374460Y304750D01*
X371920Y302210D01*
X374460D01*
X377000Y299670D01*
Y301702D02*
X378524Y303226D01*
X380048D01*
X378524Y304750D01*
X380048Y306274D01*
X378524D01*
X377000Y307798D01*
X375476Y306274D01*
X373952D01*
X375476Y304750D01*
X373952Y303226D01*
X375476D01*
X377000Y301702D01*
X377250Y281670D02*
X379790Y284210D01*
X382330D01*
X379790Y286750D01*
X382330Y289290D01*
X379790D01*
X377250Y291830D01*
X374710Y289290D01*
X372170D01*
X374710Y286750D01*
X372170Y284210D01*
X374710D01*
X377250Y281670D01*
Y283702D02*
X378774Y285226D01*
X380298D01*
X378774Y286750D01*
X380298Y288274D01*
X378774D01*
X377250Y289798D01*
X375726Y288274D01*
X374202D01*
X375726Y286750D01*
X374202Y285226D01*
X375726D01*
X377250Y283702D01*
Y290420D02*
X379790Y292960D01*
X382330D01*
X379790Y295500D01*
X382330Y298040D01*
X379790D01*
X377250Y300580D01*
X374710Y298040D01*
X372170D01*
X374710Y295500D01*
X372170Y292960D01*
X374710D01*
X377250Y290420D01*
Y292452D02*
X378774Y293976D01*
X380298D01*
X378774Y295500D01*
X380298Y297024D01*
X378774D01*
X377250Y298548D01*
X375726Y297024D01*
X374202D01*
X375726Y295500D01*
X374202Y293976D01*
X375726D01*
X377250Y292452D01*
X367500Y308170D02*
X370040Y310710D01*
X372580D01*
X370040Y313250D01*
X372580Y315790D01*
X370040D01*
X367500Y318330D01*
X364960Y315790D01*
X362420D01*
X364960Y313250D01*
X362420Y310710D01*
X364960D01*
X367500Y308170D01*
Y310202D02*
X369024Y311726D01*
X370548D01*
X369024Y313250D01*
X370548Y314774D01*
X369024D01*
X367500Y316298D01*
X365976Y314774D01*
X364452D01*
X365976Y313250D01*
X364452Y311726D01*
X365976D01*
X367500Y310202D01*
Y299420D02*
X370040Y301960D01*
X372580D01*
X370040Y304500D01*
X372580Y307040D01*
X370040D01*
X367500Y309580D01*
X364960Y307040D01*
X362420D01*
X364960Y304500D01*
X362420Y301960D01*
X364960D01*
X367500Y299420D01*
Y301452D02*
X369024Y302976D01*
X370548D01*
X369024Y304500D01*
X370548Y306024D01*
X369024D01*
X367500Y307548D01*
X365976Y306024D01*
X364452D01*
X365976Y304500D01*
X364452Y302976D01*
X365976D01*
X367500Y301452D01*
X367750Y281420D02*
X370290Y283960D01*
X372830D01*
X370290Y286500D01*
X372830Y289040D01*
X370290D01*
X367750Y291580D01*
X365210Y289040D01*
X362670D01*
X365210Y286500D01*
X362670Y283960D01*
X365210D01*
X367750Y281420D01*
Y283452D02*
X369274Y284976D01*
X370798D01*
X369274Y286500D01*
X370798Y288024D01*
X369274D01*
X367750Y289548D01*
X366226Y288024D01*
X364702D01*
X366226Y286500D01*
X364702Y284976D01*
X366226D01*
X367750Y283452D01*
Y290170D02*
X370290Y292710D01*
X372830D01*
X370290Y295250D01*
X372830Y297790D01*
X370290D01*
X367750Y300330D01*
X365210Y297790D01*
X362670D01*
X365210Y295250D01*
X362670Y292710D01*
X365210D01*
X367750Y290170D01*
Y292202D02*
X369274Y293726D01*
X370798D01*
X369274Y295250D01*
X370798Y296774D01*
X369274D01*
X367750Y298298D01*
X366226Y296774D01*
X364702D01*
X366226Y295250D01*
X364702Y293726D01*
X366226D01*
X367750Y292202D01*
X357750Y308170D02*
X360290Y310710D01*
X362830D01*
X360290Y313250D01*
X362830Y315790D01*
X360290D01*
X357750Y318330D01*
X355210Y315790D01*
X352670D01*
X355210Y313250D01*
X352670Y310710D01*
X355210D01*
X357750Y308170D01*
Y310202D02*
X359274Y311726D01*
X360798D01*
X359274Y313250D01*
X360798Y314774D01*
X359274D01*
X357750Y316298D01*
X356226Y314774D01*
X354702D01*
X356226Y313250D01*
X354702Y311726D01*
X356226D01*
X357750Y310202D01*
Y299420D02*
X360290Y301960D01*
X362830D01*
X360290Y304500D01*
X362830Y307040D01*
X360290D01*
X357750Y309580D01*
X355210Y307040D01*
X352670D01*
X355210Y304500D01*
X352670Y301960D01*
X355210D01*
X357750Y299420D01*
Y301452D02*
X359274Y302976D01*
X360798D01*
X359274Y304500D01*
X360798Y306024D01*
X359274D01*
X357750Y307548D01*
X356226Y306024D01*
X354702D01*
X356226Y304500D01*
X354702Y302976D01*
X356226D01*
X357750Y301452D01*
X358000Y281420D02*
X360540Y283960D01*
X363080D01*
X360540Y286500D01*
X363080Y289040D01*
X360540D01*
X358000Y291580D01*
X355460Y289040D01*
X352920D01*
X355460Y286500D01*
X352920Y283960D01*
X355460D01*
X358000Y281420D01*
Y283452D02*
X359524Y284976D01*
X361048D01*
X359524Y286500D01*
X361048Y288024D01*
X359524D01*
X358000Y289548D01*
X356476Y288024D01*
X354952D01*
X356476Y286500D01*
X354952Y284976D01*
X356476D01*
X358000Y283452D01*
Y290170D02*
X360540Y292710D01*
X363080D01*
X360540Y295250D01*
X363080Y297790D01*
X360540D01*
X358000Y300330D01*
X355460Y297790D01*
X352920D01*
X355460Y295250D01*
X352920Y292710D01*
X355460D01*
X358000Y290170D01*
Y292202D02*
X359524Y293726D01*
X361048D01*
X359524Y295250D01*
X361048Y296774D01*
X359524D01*
X358000Y298298D01*
X356476Y296774D01*
X354952D01*
X356476Y295250D01*
X354952Y293726D01*
X356476D01*
X358000Y292202D01*
X348500Y308170D02*
X351040Y310710D01*
X353580D01*
X351040Y313250D01*
X353580Y315790D01*
X351040D01*
X348500Y318330D01*
X345960Y315790D01*
X343420D01*
X345960Y313250D01*
X343420Y310710D01*
X345960D01*
X348500Y308170D01*
Y310202D02*
X350024Y311726D01*
X351548D01*
X350024Y313250D01*
X351548Y314774D01*
X350024D01*
X348500Y316298D01*
X346976Y314774D01*
X345452D01*
X346976Y313250D01*
X345452Y311726D01*
X346976D01*
X348500Y310202D01*
Y299420D02*
X351040Y301960D01*
X353580D01*
X351040Y304500D01*
X353580Y307040D01*
X351040D01*
X348500Y309580D01*
X345960Y307040D01*
X343420D01*
X345960Y304500D01*
X343420Y301960D01*
X345960D01*
X348500Y299420D01*
Y301452D02*
X350024Y302976D01*
X351548D01*
X350024Y304500D01*
X351548Y306024D01*
X350024D01*
X348500Y307548D01*
X346976Y306024D01*
X345452D01*
X346976Y304500D01*
X345452Y302976D01*
X346976D01*
X348500Y301452D01*
X348750Y281420D02*
X351290Y283960D01*
X353830D01*
X351290Y286500D01*
X353830Y289040D01*
X351290D01*
X348750Y291580D01*
X346210Y289040D01*
X343670D01*
X346210Y286500D01*
X343670Y283960D01*
X346210D01*
X348750Y281420D01*
Y283452D02*
X350274Y284976D01*
X351798D01*
X350274Y286500D01*
X351798Y288024D01*
X350274D01*
X348750Y289548D01*
X347226Y288024D01*
X345702D01*
X347226Y286500D01*
X345702Y284976D01*
X347226D01*
X348750Y283452D01*
Y290170D02*
X351290Y292710D01*
X353830D01*
X351290Y295250D01*
X353830Y297790D01*
X351290D01*
X348750Y300330D01*
X346210Y297790D01*
X343670D01*
X346210Y295250D01*
X343670Y292710D01*
X346210D01*
X348750Y290170D01*
Y292202D02*
X350274Y293726D01*
X351798D01*
X350274Y295250D01*
X351798Y296774D01*
X350274D01*
X348750Y298298D01*
X347226Y296774D01*
X345702D01*
X347226Y295250D01*
X345702Y293726D01*
X347226D01*
X348750Y292202D01*
X313500Y125170D02*
X316040Y127710D01*
X318580D01*
X316040Y130250D01*
X318580Y132790D01*
X316040D01*
X313500Y135330D01*
X310960Y132790D01*
X308420D01*
X310960Y130250D01*
X308420Y127710D01*
X310960D01*
X313500Y125170D01*
Y127202D02*
X315024Y128726D01*
X316548D01*
X315024Y130250D01*
X316548Y131774D01*
X315024D01*
X313500Y133298D01*
X311976Y131774D01*
X310452D01*
X311976Y130250D01*
X310452Y128726D01*
X311976D01*
X313500Y127202D01*
Y116420D02*
X316040Y118960D01*
X318580D01*
X316040Y121500D01*
X318580Y124040D01*
X316040D01*
X313500Y126580D01*
X310960Y124040D01*
X308420D01*
X310960Y121500D01*
X308420Y118960D01*
X310960D01*
X313500Y116420D01*
Y118452D02*
X315024Y119976D01*
X316548D01*
X315024Y121500D01*
X316548Y123024D01*
X315024D01*
X313500Y124548D01*
X311976Y123024D01*
X310452D01*
X311976Y121500D01*
X310452Y119976D01*
X311976D01*
X313500Y118452D01*
X313250Y134420D02*
X315790Y136960D01*
X318330D01*
X315790Y139500D01*
X318330Y142040D01*
X315790D01*
X313250Y144580D01*
X310710Y142040D01*
X308170D01*
X310710Y139500D01*
X308170Y136960D01*
X310710D01*
X313250Y134420D01*
Y136452D02*
X314774Y137976D01*
X316298D01*
X314774Y139500D01*
X316298Y141024D01*
X314774D01*
X313250Y142548D01*
X311726Y141024D01*
X310202D01*
X311726Y139500D01*
X310202Y137976D01*
X311726D01*
X313250Y136452D01*
Y143170D02*
X315790Y145710D01*
X318330D01*
X315790Y148250D01*
X318330Y150790D01*
X315790D01*
X313250Y153330D01*
X310710Y150790D01*
X308170D01*
X310710Y148250D01*
X308170Y145710D01*
X310710D01*
X313250Y143170D01*
Y145202D02*
X314774Y146726D01*
X316298D01*
X314774Y148250D01*
X316298Y149774D01*
X314774D01*
X313250Y151298D01*
X311726Y149774D01*
X310202D01*
X311726Y148250D01*
X310202Y146726D01*
X311726D01*
X313250Y145202D01*
X322750Y125170D02*
X325290Y127710D01*
X327830D01*
X325290Y130250D01*
X327830Y132790D01*
X325290D01*
X322750Y135330D01*
X320210Y132790D01*
X317670D01*
X320210Y130250D01*
X317670Y127710D01*
X320210D01*
X322750Y125170D01*
Y127202D02*
X324274Y128726D01*
X325798D01*
X324274Y130250D01*
X325798Y131774D01*
X324274D01*
X322750Y133298D01*
X321226Y131774D01*
X319702D01*
X321226Y130250D01*
X319702Y128726D01*
X321226D01*
X322750Y127202D01*
Y116420D02*
X325290Y118960D01*
X327830D01*
X325290Y121500D01*
X327830Y124040D01*
X325290D01*
X322750Y126580D01*
X320210Y124040D01*
X317670D01*
X320210Y121500D01*
X317670Y118960D01*
X320210D01*
X322750Y116420D01*
Y118452D02*
X324274Y119976D01*
X325798D01*
X324274Y121500D01*
X325798Y123024D01*
X324274D01*
X322750Y124548D01*
X321226Y123024D01*
X319702D01*
X321226Y121500D01*
X319702Y119976D01*
X321226D01*
X322750Y118452D01*
X322500Y134420D02*
X325040Y136960D01*
X327580D01*
X325040Y139500D01*
X327580Y142040D01*
X325040D01*
X322500Y144580D01*
X319960Y142040D01*
X317420D01*
X319960Y139500D01*
X317420Y136960D01*
X319960D01*
X322500Y134420D01*
Y136452D02*
X324024Y137976D01*
X325548D01*
X324024Y139500D01*
X325548Y141024D01*
X324024D01*
X322500Y142548D01*
X320976Y141024D01*
X319452D01*
X320976Y139500D01*
X319452Y137976D01*
X320976D01*
X322500Y136452D01*
Y143170D02*
X325040Y145710D01*
X327580D01*
X325040Y148250D01*
X327580Y150790D01*
X325040D01*
X322500Y153330D01*
X319960Y150790D01*
X317420D01*
X319960Y148250D01*
X317420Y145710D01*
X319960D01*
X322500Y143170D01*
Y145202D02*
X324024Y146726D01*
X325548D01*
X324024Y148250D01*
X325548Y149774D01*
X324024D01*
X322500Y151298D01*
X320976Y149774D01*
X319452D01*
X320976Y148250D01*
X319452Y146726D01*
X320976D01*
X322500Y145202D01*
X332500Y125170D02*
X335040Y127710D01*
X337580D01*
X335040Y130250D01*
X337580Y132790D01*
X335040D01*
X332500Y135330D01*
X329960Y132790D01*
X327420D01*
X329960Y130250D01*
X327420Y127710D01*
X329960D01*
X332500Y125170D01*
Y127202D02*
X334024Y128726D01*
X335548D01*
X334024Y130250D01*
X335548Y131774D01*
X334024D01*
X332500Y133298D01*
X330976Y131774D01*
X329452D01*
X330976Y130250D01*
X329452Y128726D01*
X330976D01*
X332500Y127202D01*
Y116420D02*
X335040Y118960D01*
X337580D01*
X335040Y121500D01*
X337580Y124040D01*
X335040D01*
X332500Y126580D01*
X329960Y124040D01*
X327420D01*
X329960Y121500D01*
X327420Y118960D01*
X329960D01*
X332500Y116420D01*
Y118452D02*
X334024Y119976D01*
X335548D01*
X334024Y121500D01*
X335548Y123024D01*
X334024D01*
X332500Y124548D01*
X330976Y123024D01*
X329452D01*
X330976Y121500D01*
X329452Y119976D01*
X330976D01*
X332500Y118452D01*
X332250Y134420D02*
X334790Y136960D01*
X337330D01*
X334790Y139500D01*
X337330Y142040D01*
X334790D01*
X332250Y144580D01*
X329710Y142040D01*
X327170D01*
X329710Y139500D01*
X327170Y136960D01*
X329710D01*
X332250Y134420D01*
Y136452D02*
X333774Y137976D01*
X335298D01*
X333774Y139500D01*
X335298Y141024D01*
X333774D01*
X332250Y142548D01*
X330726Y141024D01*
X329202D01*
X330726Y139500D01*
X329202Y137976D01*
X330726D01*
X332250Y136452D01*
Y143170D02*
X334790Y145710D01*
X337330D01*
X334790Y148250D01*
X337330Y150790D01*
X334790D01*
X332250Y153330D01*
X329710Y150790D01*
X327170D01*
X329710Y148250D01*
X327170Y145710D01*
X329710D01*
X332250Y143170D01*
Y145202D02*
X333774Y146726D01*
X335298D01*
X333774Y148250D01*
X335298Y149774D01*
X333774D01*
X332250Y151298D01*
X330726Y149774D01*
X329202D01*
X330726Y148250D01*
X329202Y146726D01*
X330726D01*
X332250Y145202D01*
X342000Y125420D02*
X344540Y127960D01*
X347080D01*
X344540Y130500D01*
X347080Y133040D01*
X344540D01*
X342000Y135580D01*
X339460Y133040D01*
X336920D01*
X339460Y130500D01*
X336920Y127960D01*
X339460D01*
X342000Y125420D01*
Y127452D02*
X343524Y128976D01*
X345048D01*
X343524Y130500D01*
X345048Y132024D01*
X343524D01*
X342000Y133548D01*
X340476Y132024D01*
X338952D01*
X340476Y130500D01*
X338952Y128976D01*
X340476D01*
X342000Y127452D01*
Y116670D02*
X344540Y119210D01*
X347080D01*
X344540Y121750D01*
X347080Y124290D01*
X344540D01*
X342000Y126830D01*
X339460Y124290D01*
X336920D01*
X339460Y121750D01*
X336920Y119210D01*
X339460D01*
X342000Y116670D01*
Y118702D02*
X343524Y120226D01*
X345048D01*
X343524Y121750D01*
X345048Y123274D01*
X343524D01*
X342000Y124798D01*
X340476Y123274D01*
X338952D01*
X340476Y121750D01*
X338952Y120226D01*
X340476D01*
X342000Y118702D01*
X341750Y134670D02*
X344290Y137210D01*
X346830D01*
X344290Y139750D01*
X346830Y142290D01*
X344290D01*
X341750Y144830D01*
X339210Y142290D01*
X336670D01*
X339210Y139750D01*
X336670Y137210D01*
X339210D01*
X341750Y134670D01*
Y136702D02*
X343274Y138226D01*
X344798D01*
X343274Y139750D01*
X344798Y141274D01*
X343274D01*
X341750Y142798D01*
X340226Y141274D01*
X338702D01*
X340226Y139750D01*
X338702Y138226D01*
X340226D01*
X341750Y136702D01*
Y143420D02*
X344290Y145960D01*
X346830D01*
X344290Y148500D01*
X346830Y151040D01*
X344290D01*
X341750Y153580D01*
X339210Y151040D01*
X336670D01*
X339210Y148500D01*
X336670Y145960D01*
X339210D01*
X341750Y143420D01*
Y145452D02*
X343274Y146976D01*
X344798D01*
X343274Y148500D01*
X344798Y150024D01*
X343274D01*
X341750Y151548D01*
X340226Y150024D01*
X338702D01*
X340226Y148500D01*
X338702Y146976D01*
X340226D01*
X341750Y145452D01*
X379000Y143670D02*
X381540Y146210D01*
X384080D01*
X381540Y148750D01*
X384080Y151290D01*
X381540D01*
X379000Y153830D01*
X376460Y151290D01*
X373920D01*
X376460Y148750D01*
X373920Y146210D01*
X376460D01*
X379000Y143670D01*
Y145702D02*
X380524Y147226D01*
X382048D01*
X380524Y148750D01*
X382048Y150274D01*
X380524D01*
X379000Y151798D01*
X377476Y150274D01*
X375952D01*
X377476Y148750D01*
X375952Y147226D01*
X377476D01*
X379000Y145702D01*
Y134920D02*
X381540Y137460D01*
X384080D01*
X381540Y140000D01*
X384080Y142540D01*
X381540D01*
X379000Y145080D01*
X376460Y142540D01*
X373920D01*
X376460Y140000D01*
X373920Y137460D01*
X376460D01*
X379000Y134920D01*
Y136952D02*
X380524Y138476D01*
X382048D01*
X380524Y140000D01*
X382048Y141524D01*
X380524D01*
X379000Y143048D01*
X377476Y141524D01*
X375952D01*
X377476Y140000D01*
X375952Y138476D01*
X377476D01*
X379000Y136952D01*
X379250Y116920D02*
X381790Y119460D01*
X384330D01*
X381790Y122000D01*
X384330Y124540D01*
X381790D01*
X379250Y127080D01*
X376710Y124540D01*
X374170D01*
X376710Y122000D01*
X374170Y119460D01*
X376710D01*
X379250Y116920D01*
Y118952D02*
X380774Y120476D01*
X382298D01*
X380774Y122000D01*
X382298Y123524D01*
X380774D01*
X379250Y125048D01*
X377726Y123524D01*
X376202D01*
X377726Y122000D01*
X376202Y120476D01*
X377726D01*
X379250Y118952D01*
Y125670D02*
X381790Y128210D01*
X384330D01*
X381790Y130750D01*
X384330Y133290D01*
X381790D01*
X379250Y135830D01*
X376710Y133290D01*
X374170D01*
X376710Y130750D01*
X374170Y128210D01*
X376710D01*
X379250Y125670D01*
Y127702D02*
X380774Y129226D01*
X382298D01*
X380774Y130750D01*
X382298Y132274D01*
X380774D01*
X379250Y133798D01*
X377726Y132274D01*
X376202D01*
X377726Y130750D01*
X376202Y129226D01*
X377726D01*
X379250Y127702D01*
X369500Y143420D02*
X372040Y145960D01*
X374580D01*
X372040Y148500D01*
X374580Y151040D01*
X372040D01*
X369500Y153580D01*
X366960Y151040D01*
X364420D01*
X366960Y148500D01*
X364420Y145960D01*
X366960D01*
X369500Y143420D01*
Y145452D02*
X371024Y146976D01*
X372548D01*
X371024Y148500D01*
X372548Y150024D01*
X371024D01*
X369500Y151548D01*
X367976Y150024D01*
X366452D01*
X367976Y148500D01*
X366452Y146976D01*
X367976D01*
X369500Y145452D01*
Y134670D02*
X372040Y137210D01*
X374580D01*
X372040Y139750D01*
X374580Y142290D01*
X372040D01*
X369500Y144830D01*
X366960Y142290D01*
X364420D01*
X366960Y139750D01*
X364420Y137210D01*
X366960D01*
X369500Y134670D01*
Y136702D02*
X371024Y138226D01*
X372548D01*
X371024Y139750D01*
X372548Y141274D01*
X371024D01*
X369500Y142798D01*
X367976Y141274D01*
X366452D01*
X367976Y139750D01*
X366452Y138226D01*
X367976D01*
X369500Y136702D01*
X369750Y116670D02*
X372290Y119210D01*
X374830D01*
X372290Y121750D01*
X374830Y124290D01*
X372290D01*
X369750Y126830D01*
X367210Y124290D01*
X364670D01*
X367210Y121750D01*
X364670Y119210D01*
X367210D01*
X369750Y116670D01*
Y118702D02*
X371274Y120226D01*
X372798D01*
X371274Y121750D01*
X372798Y123274D01*
X371274D01*
X369750Y124798D01*
X368226Y123274D01*
X366702D01*
X368226Y121750D01*
X366702Y120226D01*
X368226D01*
X369750Y118702D01*
Y125420D02*
X372290Y127960D01*
X374830D01*
X372290Y130500D01*
X374830Y133040D01*
X372290D01*
X369750Y135580D01*
X367210Y133040D01*
X364670D01*
X367210Y130500D01*
X364670Y127960D01*
X367210D01*
X369750Y125420D01*
Y127452D02*
X371274Y128976D01*
X372798D01*
X371274Y130500D01*
X372798Y132024D01*
X371274D01*
X369750Y133548D01*
X368226Y132024D01*
X366702D01*
X368226Y130500D01*
X366702Y128976D01*
X368226D01*
X369750Y127452D01*
X359750Y143420D02*
X362290Y145960D01*
X364830D01*
X362290Y148500D01*
X364830Y151040D01*
X362290D01*
X359750Y153580D01*
X357210Y151040D01*
X354670D01*
X357210Y148500D01*
X354670Y145960D01*
X357210D01*
X359750Y143420D01*
Y145452D02*
X361274Y146976D01*
X362798D01*
X361274Y148500D01*
X362798Y150024D01*
X361274D01*
X359750Y151548D01*
X358226Y150024D01*
X356702D01*
X358226Y148500D01*
X356702Y146976D01*
X358226D01*
X359750Y145452D01*
Y134670D02*
X362290Y137210D01*
X364830D01*
X362290Y139750D01*
X364830Y142290D01*
X362290D01*
X359750Y144830D01*
X357210Y142290D01*
X354670D01*
X357210Y139750D01*
X354670Y137210D01*
X357210D01*
X359750Y134670D01*
Y136702D02*
X361274Y138226D01*
X362798D01*
X361274Y139750D01*
X362798Y141274D01*
X361274D01*
X359750Y142798D01*
X358226Y141274D01*
X356702D01*
X358226Y139750D01*
X356702Y138226D01*
X358226D01*
X359750Y136702D01*
X360000Y116670D02*
X362540Y119210D01*
X365080D01*
X362540Y121750D01*
X365080Y124290D01*
X362540D01*
X360000Y126830D01*
X357460Y124290D01*
X354920D01*
X357460Y121750D01*
X354920Y119210D01*
X357460D01*
X360000Y116670D01*
Y118702D02*
X361524Y120226D01*
X363048D01*
X361524Y121750D01*
X363048Y123274D01*
X361524D01*
X360000Y124798D01*
X358476Y123274D01*
X356952D01*
X358476Y121750D01*
X356952Y120226D01*
X358476D01*
X360000Y118702D01*
Y125420D02*
X362540Y127960D01*
X365080D01*
X362540Y130500D01*
X365080Y133040D01*
X362540D01*
X360000Y135580D01*
X357460Y133040D01*
X354920D01*
X357460Y130500D01*
X354920Y127960D01*
X357460D01*
X360000Y125420D01*
Y127452D02*
X361524Y128976D01*
X363048D01*
X361524Y130500D01*
X363048Y132024D01*
X361524D01*
X360000Y133548D01*
X358476Y132024D01*
X356952D01*
X358476Y130500D01*
X356952Y128976D01*
X358476D01*
X360000Y127452D01*
X350500Y143420D02*
X353040Y145960D01*
X355580D01*
X353040Y148500D01*
X355580Y151040D01*
X353040D01*
X350500Y153580D01*
X347960Y151040D01*
X345420D01*
X347960Y148500D01*
X345420Y145960D01*
X347960D01*
X350500Y143420D01*
Y145452D02*
X352024Y146976D01*
X353548D01*
X352024Y148500D01*
X353548Y150024D01*
X352024D01*
X350500Y151548D01*
X348976Y150024D01*
X347452D01*
X348976Y148500D01*
X347452Y146976D01*
X348976D01*
X350500Y145452D01*
Y134670D02*
X353040Y137210D01*
X355580D01*
X353040Y139750D01*
X355580Y142290D01*
X353040D01*
X350500Y144830D01*
X347960Y142290D01*
X345420D01*
X347960Y139750D01*
X345420Y137210D01*
X347960D01*
X350500Y134670D01*
Y136702D02*
X352024Y138226D01*
X353548D01*
X352024Y139750D01*
X353548Y141274D01*
X352024D01*
X350500Y142798D01*
X348976Y141274D01*
X347452D01*
X348976Y139750D01*
X347452Y138226D01*
X348976D01*
X350500Y136702D01*
X350750Y116670D02*
X353290Y119210D01*
X355830D01*
X353290Y121750D01*
X355830Y124290D01*
X353290D01*
X350750Y126830D01*
X348210Y124290D01*
X345670D01*
X348210Y121750D01*
X345670Y119210D01*
X348210D01*
X350750Y116670D01*
Y118702D02*
X352274Y120226D01*
X353798D01*
X352274Y121750D01*
X353798Y123274D01*
X352274D01*
X350750Y124798D01*
X349226Y123274D01*
X347702D01*
X349226Y121750D01*
X347702Y120226D01*
X349226D01*
X350750Y118702D01*
Y125420D02*
X353290Y127960D01*
X355830D01*
X353290Y130500D01*
X355830Y133040D01*
X353290D01*
X350750Y135580D01*
X348210Y133040D01*
X345670D01*
X348210Y130500D01*
X345670Y127960D01*
X348210D01*
X350750Y125420D01*
Y127452D02*
X352274Y128976D01*
X353798D01*
X352274Y130500D01*
X353798Y132024D01*
X352274D01*
X350750Y133548D01*
X349226Y132024D01*
X347702D01*
X349226Y130500D01*
X347702Y128976D01*
X349226D01*
X350750Y127452D01*
X315250Y-264080D02*
X317790Y-261540D01*
X320330D01*
X317790Y-259000D01*
X320330Y-256460D01*
X317790D01*
X315250Y-253920D01*
X312710Y-256460D01*
X310170D01*
X312710Y-259000D01*
X310170Y-261540D01*
X312710D01*
X315250Y-264080D01*
Y-262048D02*
X316774Y-260524D01*
X318298D01*
X316774Y-259000D01*
X318298Y-257476D01*
X316774D01*
X315250Y-255952D01*
X313726Y-257476D01*
X312202D01*
X313726Y-259000D01*
X312202Y-260524D01*
X313726D01*
X315250Y-262048D01*
Y-272830D02*
X317790Y-270290D01*
X320330D01*
X317790Y-267750D01*
X320330Y-265210D01*
X317790D01*
X315250Y-262670D01*
X312710Y-265210D01*
X310170D01*
X312710Y-267750D01*
X310170Y-270290D01*
X312710D01*
X315250Y-272830D01*
Y-270798D02*
X316774Y-269274D01*
X318298D01*
X316774Y-267750D01*
X318298Y-266226D01*
X316774D01*
X315250Y-264702D01*
X313726Y-266226D01*
X312202D01*
X313726Y-267750D01*
X312202Y-269274D01*
X313726D01*
X315250Y-270798D01*
X315000Y-254830D02*
X317540Y-252290D01*
X320080D01*
X317540Y-249750D01*
X320080Y-247210D01*
X317540D01*
X315000Y-244670D01*
X312460Y-247210D01*
X309920D01*
X312460Y-249750D01*
X309920Y-252290D01*
X312460D01*
X315000Y-254830D01*
Y-252798D02*
X316524Y-251274D01*
X318048D01*
X316524Y-249750D01*
X318048Y-248226D01*
X316524D01*
X315000Y-246702D01*
X313476Y-248226D01*
X311952D01*
X313476Y-249750D01*
X311952Y-251274D01*
X313476D01*
X315000Y-252798D01*
Y-246080D02*
X317540Y-243540D01*
X320080D01*
X317540Y-241000D01*
X320080Y-238460D01*
X317540D01*
X315000Y-235920D01*
X312460Y-238460D01*
X309920D01*
X312460Y-241000D01*
X309920Y-243540D01*
X312460D01*
X315000Y-246080D01*
Y-244048D02*
X316524Y-242524D01*
X318048D01*
X316524Y-241000D01*
X318048Y-239476D01*
X316524D01*
X315000Y-237952D01*
X313476Y-239476D01*
X311952D01*
X313476Y-241000D01*
X311952Y-242524D01*
X313476D01*
X315000Y-244048D01*
X324500Y-264080D02*
X327040Y-261540D01*
X329580D01*
X327040Y-259000D01*
X329580Y-256460D01*
X327040D01*
X324500Y-253920D01*
X321960Y-256460D01*
X319420D01*
X321960Y-259000D01*
X319420Y-261540D01*
X321960D01*
X324500Y-264080D01*
Y-262048D02*
X326024Y-260524D01*
X327548D01*
X326024Y-259000D01*
X327548Y-257476D01*
X326024D01*
X324500Y-255952D01*
X322976Y-257476D01*
X321452D01*
X322976Y-259000D01*
X321452Y-260524D01*
X322976D01*
X324500Y-262048D01*
Y-272830D02*
X327040Y-270290D01*
X329580D01*
X327040Y-267750D01*
X329580Y-265210D01*
X327040D01*
X324500Y-262670D01*
X321960Y-265210D01*
X319420D01*
X321960Y-267750D01*
X319420Y-270290D01*
X321960D01*
X324500Y-272830D01*
Y-270798D02*
X326024Y-269274D01*
X327548D01*
X326024Y-267750D01*
X327548Y-266226D01*
X326024D01*
X324500Y-264702D01*
X322976Y-266226D01*
X321452D01*
X322976Y-267750D01*
X321452Y-269274D01*
X322976D01*
X324500Y-270798D01*
X324250Y-254830D02*
X326790Y-252290D01*
X329330D01*
X326790Y-249750D01*
X329330Y-247210D01*
X326790D01*
X324250Y-244670D01*
X321710Y-247210D01*
X319170D01*
X321710Y-249750D01*
X319170Y-252290D01*
X321710D01*
X324250Y-254830D01*
Y-252798D02*
X325774Y-251274D01*
X327298D01*
X325774Y-249750D01*
X327298Y-248226D01*
X325774D01*
X324250Y-246702D01*
X322726Y-248226D01*
X321202D01*
X322726Y-249750D01*
X321202Y-251274D01*
X322726D01*
X324250Y-252798D01*
Y-246080D02*
X326790Y-243540D01*
X329330D01*
X326790Y-241000D01*
X329330Y-238460D01*
X326790D01*
X324250Y-235920D01*
X321710Y-238460D01*
X319170D01*
X321710Y-241000D01*
X319170Y-243540D01*
X321710D01*
X324250Y-246080D01*
Y-244048D02*
X325774Y-242524D01*
X327298D01*
X325774Y-241000D01*
X327298Y-239476D01*
X325774D01*
X324250Y-237952D01*
X322726Y-239476D01*
X321202D01*
X322726Y-241000D01*
X321202Y-242524D01*
X322726D01*
X324250Y-244048D01*
X334250Y-264080D02*
X336790Y-261540D01*
X339330D01*
X336790Y-259000D01*
X339330Y-256460D01*
X336790D01*
X334250Y-253920D01*
X331710Y-256460D01*
X329170D01*
X331710Y-259000D01*
X329170Y-261540D01*
X331710D01*
X334250Y-264080D01*
Y-262048D02*
X335774Y-260524D01*
X337298D01*
X335774Y-259000D01*
X337298Y-257476D01*
X335774D01*
X334250Y-255952D01*
X332726Y-257476D01*
X331202D01*
X332726Y-259000D01*
X331202Y-260524D01*
X332726D01*
X334250Y-262048D01*
Y-272830D02*
X336790Y-270290D01*
X339330D01*
X336790Y-267750D01*
X339330Y-265210D01*
X336790D01*
X334250Y-262670D01*
X331710Y-265210D01*
X329170D01*
X331710Y-267750D01*
X329170Y-270290D01*
X331710D01*
X334250Y-272830D01*
Y-270798D02*
X335774Y-269274D01*
X337298D01*
X335774Y-267750D01*
X337298Y-266226D01*
X335774D01*
X334250Y-264702D01*
X332726Y-266226D01*
X331202D01*
X332726Y-267750D01*
X331202Y-269274D01*
X332726D01*
X334250Y-270798D01*
X334000Y-254830D02*
X336540Y-252290D01*
X339080D01*
X336540Y-249750D01*
X339080Y-247210D01*
X336540D01*
X334000Y-244670D01*
X331460Y-247210D01*
X328920D01*
X331460Y-249750D01*
X328920Y-252290D01*
X331460D01*
X334000Y-254830D01*
Y-252798D02*
X335524Y-251274D01*
X337048D01*
X335524Y-249750D01*
X337048Y-248226D01*
X335524D01*
X334000Y-246702D01*
X332476Y-248226D01*
X330952D01*
X332476Y-249750D01*
X330952Y-251274D01*
X332476D01*
X334000Y-252798D01*
Y-246080D02*
X336540Y-243540D01*
X339080D01*
X336540Y-241000D01*
X339080Y-238460D01*
X336540D01*
X334000Y-235920D01*
X331460Y-238460D01*
X328920D01*
X331460Y-241000D01*
X328920Y-243540D01*
X331460D01*
X334000Y-246080D01*
Y-244048D02*
X335524Y-242524D01*
X337048D01*
X335524Y-241000D01*
X337048Y-239476D01*
X335524D01*
X334000Y-237952D01*
X332476Y-239476D01*
X330952D01*
X332476Y-241000D01*
X330952Y-242524D01*
X332476D01*
X334000Y-244048D01*
X343750Y-263830D02*
X346290Y-261290D01*
X348830D01*
X346290Y-258750D01*
X348830Y-256210D01*
X346290D01*
X343750Y-253670D01*
X341210Y-256210D01*
X338670D01*
X341210Y-258750D01*
X338670Y-261290D01*
X341210D01*
X343750Y-263830D01*
Y-261798D02*
X345274Y-260274D01*
X346798D01*
X345274Y-258750D01*
X346798Y-257226D01*
X345274D01*
X343750Y-255702D01*
X342226Y-257226D01*
X340702D01*
X342226Y-258750D01*
X340702Y-260274D01*
X342226D01*
X343750Y-261798D01*
Y-272580D02*
X346290Y-270040D01*
X348830D01*
X346290Y-267500D01*
X348830Y-264960D01*
X346290D01*
X343750Y-262420D01*
X341210Y-264960D01*
X338670D01*
X341210Y-267500D01*
X338670Y-270040D01*
X341210D01*
X343750Y-272580D01*
Y-270548D02*
X345274Y-269024D01*
X346798D01*
X345274Y-267500D01*
X346798Y-265976D01*
X345274D01*
X343750Y-264452D01*
X342226Y-265976D01*
X340702D01*
X342226Y-267500D01*
X340702Y-269024D01*
X342226D01*
X343750Y-270548D01*
X343500Y-254580D02*
X346040Y-252040D01*
X348580D01*
X346040Y-249500D01*
X348580Y-246960D01*
X346040D01*
X343500Y-244420D01*
X340960Y-246960D01*
X338420D01*
X340960Y-249500D01*
X338420Y-252040D01*
X340960D01*
X343500Y-254580D01*
Y-252548D02*
X345024Y-251024D01*
X346548D01*
X345024Y-249500D01*
X346548Y-247976D01*
X345024D01*
X343500Y-246452D01*
X341976Y-247976D01*
X340452D01*
X341976Y-249500D01*
X340452Y-251024D01*
X341976D01*
X343500Y-252548D01*
Y-245830D02*
X346040Y-243290D01*
X348580D01*
X346040Y-240750D01*
X348580Y-238210D01*
X346040D01*
X343500Y-235670D01*
X340960Y-238210D01*
X338420D01*
X340960Y-240750D01*
X338420Y-243290D01*
X340960D01*
X343500Y-245830D01*
Y-243798D02*
X345024Y-242274D01*
X346548D01*
X345024Y-240750D01*
X346548Y-239226D01*
X345024D01*
X343500Y-237702D01*
X341976Y-239226D01*
X340452D01*
X341976Y-240750D01*
X340452Y-242274D01*
X341976D01*
X343500Y-243798D01*
X306250Y-246080D02*
X308790Y-243540D01*
X311330D01*
X308790Y-241000D01*
X311330Y-238460D01*
X308790D01*
X306250Y-235920D01*
X303710Y-238460D01*
X301170D01*
X303710Y-241000D01*
X301170Y-243540D01*
X303710D01*
X306250Y-246080D01*
Y-244048D02*
X307774Y-242524D01*
X309298D01*
X307774Y-241000D01*
X309298Y-239476D01*
X307774D01*
X306250Y-237952D01*
X304726Y-239476D01*
X303202D01*
X304726Y-241000D01*
X303202Y-242524D01*
X304726D01*
X306250Y-244048D01*
Y-254830D02*
X308790Y-252290D01*
X311330D01*
X308790Y-249750D01*
X311330Y-247210D01*
X308790D01*
X306250Y-244670D01*
X303710Y-247210D01*
X301170D01*
X303710Y-249750D01*
X301170Y-252290D01*
X303710D01*
X306250Y-254830D01*
Y-252798D02*
X307774Y-251274D01*
X309298D01*
X307774Y-249750D01*
X309298Y-248226D01*
X307774D01*
X306250Y-246702D01*
X304726Y-248226D01*
X303202D01*
X304726Y-249750D01*
X303202Y-251274D01*
X304726D01*
X306250Y-252798D01*
X306500Y-272830D02*
X309040Y-270290D01*
X311580D01*
X309040Y-267750D01*
X311580Y-265210D01*
X309040D01*
X306500Y-262670D01*
X303960Y-265210D01*
X301420D01*
X303960Y-267750D01*
X301420Y-270290D01*
X303960D01*
X306500Y-272830D01*
Y-270798D02*
X308024Y-269274D01*
X309548D01*
X308024Y-267750D01*
X309548Y-266226D01*
X308024D01*
X306500Y-264702D01*
X304976Y-266226D01*
X303452D01*
X304976Y-267750D01*
X303452Y-269274D01*
X304976D01*
X306500Y-270798D01*
Y-264080D02*
X309040Y-261540D01*
X311580D01*
X309040Y-259000D01*
X311580Y-256460D01*
X309040D01*
X306500Y-253920D01*
X303960Y-256460D01*
X301420D01*
X303960Y-259000D01*
X301420Y-261540D01*
X303960D01*
X306500Y-264080D01*
Y-262048D02*
X308024Y-260524D01*
X309548D01*
X308024Y-259000D01*
X309548Y-257476D01*
X308024D01*
X306500Y-255952D01*
X304976Y-257476D01*
X303452D01*
X304976Y-259000D01*
X303452Y-260524D01*
X304976D01*
X306500Y-262048D01*
X296750Y-246330D02*
X299290Y-243790D01*
X301830D01*
X299290Y-241250D01*
X301830Y-238710D01*
X299290D01*
X296750Y-236170D01*
X294210Y-238710D01*
X291670D01*
X294210Y-241250D01*
X291670Y-243790D01*
X294210D01*
X296750Y-246330D01*
Y-244298D02*
X298274Y-242774D01*
X299798D01*
X298274Y-241250D01*
X299798Y-239726D01*
X298274D01*
X296750Y-238202D01*
X295226Y-239726D01*
X293702D01*
X295226Y-241250D01*
X293702Y-242774D01*
X295226D01*
X296750Y-244298D01*
Y-255080D02*
X299290Y-252540D01*
X301830D01*
X299290Y-250000D01*
X301830Y-247460D01*
X299290D01*
X296750Y-244920D01*
X294210Y-247460D01*
X291670D01*
X294210Y-250000D01*
X291670Y-252540D01*
X294210D01*
X296750Y-255080D01*
Y-253048D02*
X298274Y-251524D01*
X299798D01*
X298274Y-250000D01*
X299798Y-248476D01*
X298274D01*
X296750Y-246952D01*
X295226Y-248476D01*
X293702D01*
X295226Y-250000D01*
X293702Y-251524D01*
X295226D01*
X296750Y-253048D01*
X297000Y-273080D02*
X299540Y-270540D01*
X302080D01*
X299540Y-268000D01*
X302080Y-265460D01*
X299540D01*
X297000Y-262920D01*
X294460Y-265460D01*
X291920D01*
X294460Y-268000D01*
X291920Y-270540D01*
X294460D01*
X297000Y-273080D01*
Y-271048D02*
X298524Y-269524D01*
X300048D01*
X298524Y-268000D01*
X300048Y-266476D01*
X298524D01*
X297000Y-264952D01*
X295476Y-266476D01*
X293952D01*
X295476Y-268000D01*
X293952Y-269524D01*
X295476D01*
X297000Y-271048D01*
Y-264330D02*
X299540Y-261790D01*
X302080D01*
X299540Y-259250D01*
X302080Y-256710D01*
X299540D01*
X297000Y-254170D01*
X294460Y-256710D01*
X291920D01*
X294460Y-259250D01*
X291920Y-261790D01*
X294460D01*
X297000Y-264330D01*
Y-262298D02*
X298524Y-260774D01*
X300048D01*
X298524Y-259250D01*
X300048Y-257726D01*
X298524D01*
X297000Y-256202D01*
X295476Y-257726D01*
X293952D01*
X295476Y-259250D01*
X293952Y-260774D01*
X295476D01*
X297000Y-262298D01*
X287000Y-246330D02*
X289540Y-243790D01*
X292080D01*
X289540Y-241250D01*
X292080Y-238710D01*
X289540D01*
X287000Y-236170D01*
X284460Y-238710D01*
X281920D01*
X284460Y-241250D01*
X281920Y-243790D01*
X284460D01*
X287000Y-246330D01*
Y-244298D02*
X288524Y-242774D01*
X290048D01*
X288524Y-241250D01*
X290048Y-239726D01*
X288524D01*
X287000Y-238202D01*
X285476Y-239726D01*
X283952D01*
X285476Y-241250D01*
X283952Y-242774D01*
X285476D01*
X287000Y-244298D01*
Y-255080D02*
X289540Y-252540D01*
X292080D01*
X289540Y-250000D01*
X292080Y-247460D01*
X289540D01*
X287000Y-244920D01*
X284460Y-247460D01*
X281920D01*
X284460Y-250000D01*
X281920Y-252540D01*
X284460D01*
X287000Y-255080D01*
Y-253048D02*
X288524Y-251524D01*
X290048D01*
X288524Y-250000D01*
X290048Y-248476D01*
X288524D01*
X287000Y-246952D01*
X285476Y-248476D01*
X283952D01*
X285476Y-250000D01*
X283952Y-251524D01*
X285476D01*
X287000Y-253048D01*
X287250Y-273080D02*
X289790Y-270540D01*
X292330D01*
X289790Y-268000D01*
X292330Y-265460D01*
X289790D01*
X287250Y-262920D01*
X284710Y-265460D01*
X282170D01*
X284710Y-268000D01*
X282170Y-270540D01*
X284710D01*
X287250Y-273080D01*
Y-271048D02*
X288774Y-269524D01*
X290298D01*
X288774Y-268000D01*
X290298Y-266476D01*
X288774D01*
X287250Y-264952D01*
X285726Y-266476D01*
X284202D01*
X285726Y-268000D01*
X284202Y-269524D01*
X285726D01*
X287250Y-271048D01*
Y-264330D02*
X289790Y-261790D01*
X292330D01*
X289790Y-259250D01*
X292330Y-256710D01*
X289790D01*
X287250Y-254170D01*
X284710Y-256710D01*
X282170D01*
X284710Y-259250D01*
X282170Y-261790D01*
X284710D01*
X287250Y-264330D01*
Y-262298D02*
X288774Y-260774D01*
X290298D01*
X288774Y-259250D01*
X290298Y-257726D01*
X288774D01*
X287250Y-256202D01*
X285726Y-257726D01*
X284202D01*
X285726Y-259250D01*
X284202Y-260774D01*
X285726D01*
X287250Y-262298D01*
X277750Y-246330D02*
X280290Y-243790D01*
X282830D01*
X280290Y-241250D01*
X282830Y-238710D01*
X280290D01*
X277750Y-236170D01*
X275210Y-238710D01*
X272670D01*
X275210Y-241250D01*
X272670Y-243790D01*
X275210D01*
X277750Y-246330D01*
Y-244298D02*
X279274Y-242774D01*
X280798D01*
X279274Y-241250D01*
X280798Y-239726D01*
X279274D01*
X277750Y-238202D01*
X276226Y-239726D01*
X274702D01*
X276226Y-241250D01*
X274702Y-242774D01*
X276226D01*
X277750Y-244298D01*
Y-255080D02*
X280290Y-252540D01*
X282830D01*
X280290Y-250000D01*
X282830Y-247460D01*
X280290D01*
X277750Y-244920D01*
X275210Y-247460D01*
X272670D01*
X275210Y-250000D01*
X272670Y-252540D01*
X275210D01*
X277750Y-255080D01*
Y-253048D02*
X279274Y-251524D01*
X280798D01*
X279274Y-250000D01*
X280798Y-248476D01*
X279274D01*
X277750Y-246952D01*
X276226Y-248476D01*
X274702D01*
X276226Y-250000D01*
X274702Y-251524D01*
X276226D01*
X277750Y-253048D01*
X278000Y-273080D02*
X280540Y-270540D01*
X283080D01*
X280540Y-268000D01*
X283080Y-265460D01*
X280540D01*
X278000Y-262920D01*
X275460Y-265460D01*
X272920D01*
X275460Y-268000D01*
X272920Y-270540D01*
X275460D01*
X278000Y-273080D01*
Y-271048D02*
X279524Y-269524D01*
X281048D01*
X279524Y-268000D01*
X281048Y-266476D01*
X279524D01*
X278000Y-264952D01*
X276476Y-266476D01*
X274952D01*
X276476Y-268000D01*
X274952Y-269524D01*
X276476D01*
X278000Y-271048D01*
Y-264330D02*
X280540Y-261790D01*
X283080D01*
X280540Y-259250D01*
X283080Y-256710D01*
X280540D01*
X278000Y-254170D01*
X275460Y-256710D01*
X272920D01*
X275460Y-259250D01*
X272920Y-261790D01*
X275460D01*
X278000Y-264330D01*
Y-262298D02*
X279524Y-260774D01*
X281048D01*
X279524Y-259250D01*
X281048Y-257726D01*
X279524D01*
X278000Y-256202D01*
X276476Y-257726D01*
X274952D01*
X276476Y-259250D01*
X274952Y-260774D01*
X276476D01*
X278000Y-262298D01*
X37250Y7920D02*
X39790Y10460D01*
X42330D01*
X39790Y13000D01*
X42330Y15540D01*
X39790D01*
X37250Y18080D01*
X34710Y15540D01*
X32170D01*
X34710Y13000D01*
X32170Y10460D01*
X34710D01*
X37250Y7920D01*
Y9952D02*
X38774Y11476D01*
X40298D01*
X38774Y13000D01*
X40298Y14524D01*
X38774D01*
X37250Y16048D01*
X35726Y14524D01*
X34202D01*
X35726Y13000D01*
X34202Y11476D01*
X35726D01*
X37250Y9952D01*
X149000Y-15080D02*
X151540Y-12540D01*
X154080D01*
X151540Y-10000D01*
X154080Y-7460D01*
X151540D01*
X149000Y-4920D01*
X146460Y-7460D01*
X143920D01*
X146460Y-10000D01*
X143920Y-12540D01*
X146460D01*
X149000Y-15080D01*
Y-13048D02*
X150524Y-11524D01*
X152048D01*
X150524Y-10000D01*
X152048Y-8476D01*
X150524D01*
X149000Y-6952D01*
X147476Y-8476D01*
X145952D01*
X147476Y-10000D01*
X145952Y-11524D01*
X147476D01*
X149000Y-13048D01*
X73000Y-38080D02*
X75540Y-35540D01*
X78080D01*
X75540Y-33000D01*
X78080Y-30460D01*
X75540D01*
X73000Y-27920D01*
X70460Y-30460D01*
X67920D01*
X70460Y-33000D01*
X67920Y-35540D01*
X70460D01*
X73000Y-38080D01*
Y-36048D02*
X74524Y-34524D01*
X76048D01*
X74524Y-33000D01*
X76048Y-31476D01*
X74524D01*
X73000Y-29952D01*
X71476Y-31476D01*
X69952D01*
X71476Y-33000D01*
X69952Y-34524D01*
X71476D01*
X73000Y-36048D01*
X-88000Y-109080D02*
X-85460Y-106540D01*
X-82920D01*
X-85460Y-104000D01*
X-82920Y-101460D01*
X-85460D01*
X-88000Y-98920D01*
X-90540Y-101460D01*
X-93080D01*
X-90540Y-104000D01*
X-93080Y-106540D01*
X-90540D01*
X-88000Y-109080D01*
Y-107048D02*
X-86476Y-105524D01*
X-84952D01*
X-86476Y-104000D01*
X-84952Y-102476D01*
X-86476D01*
X-88000Y-100952D01*
X-89524Y-102476D01*
X-91048D01*
X-89524Y-104000D01*
X-91048Y-105524D01*
X-89524D01*
X-88000Y-107048D01*
X-96750Y-109330D02*
X-94210Y-106790D01*
X-91670D01*
X-94210Y-104250D01*
X-91670Y-101710D01*
X-94210D01*
X-96750Y-99170D01*
X-99290Y-101710D01*
X-101830D01*
X-99290Y-104250D01*
X-101830Y-106790D01*
X-99290D01*
X-96750Y-109330D01*
Y-107298D02*
X-95226Y-105774D01*
X-93702D01*
X-95226Y-104250D01*
X-93702Y-102726D01*
X-95226D01*
X-96750Y-101202D01*
X-98274Y-102726D01*
X-99798D01*
X-98274Y-104250D01*
X-99798Y-105774D01*
X-98274D01*
X-96750Y-107298D01*
X-106500Y-109330D02*
X-103960Y-106790D01*
X-101420D01*
X-103960Y-104250D01*
X-101420Y-101710D01*
X-103960D01*
X-106500Y-99170D01*
X-109040Y-101710D01*
X-111580D01*
X-109040Y-104250D01*
X-111580Y-106790D01*
X-109040D01*
X-106500Y-109330D01*
Y-107298D02*
X-104976Y-105774D01*
X-103452D01*
X-104976Y-104250D01*
X-103452Y-102726D01*
X-104976D01*
X-106500Y-101202D01*
X-108024Y-102726D01*
X-109548D01*
X-108024Y-104250D01*
X-109548Y-105774D01*
X-108024D01*
X-106500Y-107298D01*
X16750Y-38830D02*
X19290Y-36290D01*
X21830D01*
X19290Y-33750D01*
X21830Y-31210D01*
X19290D01*
X16750Y-28670D01*
X14210Y-31210D01*
X11670D01*
X14210Y-33750D01*
X11670Y-36290D01*
X14210D01*
X16750Y-38830D01*
Y-36798D02*
X18274Y-35274D01*
X19798D01*
X18274Y-33750D01*
X19798Y-32226D01*
X18274D01*
X16750Y-30702D01*
X15226Y-32226D01*
X13702D01*
X15226Y-33750D01*
X13702Y-35274D01*
X15226D01*
X16750Y-36798D01*
X16194Y-28123D02*
X18734Y-25583D01*
X21274D01*
X18734Y-23043D01*
X21274Y-20503D01*
X18734D01*
X16194Y-17963D01*
X13654Y-20503D01*
X11114D01*
X13654Y-23043D01*
X11114Y-25583D01*
X13654D01*
X16194Y-28123D01*
Y-26091D02*
X17718Y-24567D01*
X19242D01*
X17718Y-23043D01*
X19242Y-21519D01*
X17718D01*
X16194Y-19995D01*
X14670Y-21519D01*
X13146D01*
X14670Y-23043D01*
X13146Y-24567D01*
X14670D01*
X16194Y-26091D01*
X19296Y-11446D02*
X21836Y-8906D01*
X24376D01*
X21836Y-6366D01*
X24376Y-3826D01*
X21836D01*
X19296Y-1286D01*
X16756Y-3826D01*
X14216D01*
X16756Y-6366D01*
X14216Y-8906D01*
X16756D01*
X19296Y-11446D01*
Y-9414D02*
X20820Y-7890D01*
X22344D01*
X20820Y-6366D01*
X22344Y-4842D01*
X20820D01*
X19296Y-3318D01*
X17772Y-4842D01*
X16248D01*
X17772Y-6366D01*
X16248Y-7890D01*
X17772D01*
X19296Y-9414D01*
X-8417Y8062D02*
X-5877Y10602D01*
X-3337D01*
X-5877Y13142D01*
X-3337Y15682D01*
X-5877D01*
X-8417Y18222D01*
X-10957Y15682D01*
X-13497D01*
X-10957Y13142D01*
X-13497Y10602D01*
X-10957D01*
X-8417Y8062D01*
Y10094D02*
X-6893Y11618D01*
X-5369D01*
X-6893Y13142D01*
X-5369Y14666D01*
X-6893D01*
X-8417Y16190D01*
X-9941Y14666D01*
X-11465D01*
X-9941Y13142D01*
X-11465Y11618D01*
X-9941D01*
X-8417Y10094D01*
X-17167Y8312D02*
X-14627Y10852D01*
X-12087D01*
X-14627Y13392D01*
X-12087Y15932D01*
X-14627D01*
X-17167Y18472D01*
X-19707Y15932D01*
X-22247D01*
X-19707Y13392D01*
X-22247Y10852D01*
X-19707D01*
X-17167Y8312D01*
Y10344D02*
X-15643Y11868D01*
X-14119D01*
X-15643Y13392D01*
X-14119Y14916D01*
X-15643D01*
X-17167Y16440D01*
X-18691Y14916D01*
X-20215D01*
X-18691Y13392D01*
X-20215Y11868D01*
X-18691D01*
X-17167Y10344D01*
X17000Y20420D02*
X19540Y22960D01*
X22080D01*
X19540Y25500D01*
X22080Y28040D01*
X19540D01*
X17000Y30580D01*
X14460Y28040D01*
X11920D01*
X14460Y25500D01*
X11920Y22960D01*
X14460D01*
X17000Y20420D01*
Y22452D02*
X18524Y23976D01*
X20048D01*
X18524Y25500D01*
X20048Y27024D01*
X18524D01*
X17000Y28548D01*
X15476Y27024D01*
X13952D01*
X15476Y25500D01*
X13952Y23976D01*
X15476D01*
X17000Y22452D01*
X180750Y255170D02*
X175670Y265330D01*
X185830D01*
X180750Y255170D01*
Y257202D02*
X177702Y263298D01*
X183798D01*
X180750Y257202D01*
X-158500Y134920D02*
X-155960Y137460D01*
X-153420D01*
X-155960Y140000D01*
X-153420Y142540D01*
X-155960D01*
X-158500Y145080D01*
X-161040Y142540D01*
X-163580D01*
X-161040Y140000D01*
X-163580Y137460D01*
X-161040D01*
X-158500Y134920D01*
Y136952D02*
X-156976Y138476D01*
X-155452D01*
X-156976Y140000D01*
X-155452Y141524D01*
X-156976D01*
X-158500Y143048D01*
X-160024Y141524D01*
X-161548D01*
X-160024Y140000D01*
X-161548Y138476D01*
X-160024D01*
X-158500Y136952D01*
Y126170D02*
X-155960Y128710D01*
X-153420D01*
X-155960Y131250D01*
X-153420Y133790D01*
X-155960D01*
X-158500Y136330D01*
X-161040Y133790D01*
X-163580D01*
X-161040Y131250D01*
X-163580Y128710D01*
X-161040D01*
X-158500Y126170D01*
Y128202D02*
X-156976Y129726D01*
X-155452D01*
X-156976Y131250D01*
X-155452Y132774D01*
X-156976D01*
X-158500Y134298D01*
X-160024Y132774D01*
X-161548D01*
X-160024Y131250D01*
X-161548Y129726D01*
X-160024D01*
X-158500Y128202D01*
X-158750Y144170D02*
X-156210Y146710D01*
X-153670D01*
X-156210Y149250D01*
X-153670Y151790D01*
X-156210D01*
X-158750Y154330D01*
X-161290Y151790D01*
X-163830D01*
X-161290Y149250D01*
X-163830Y146710D01*
X-161290D01*
X-158750Y144170D01*
Y146202D02*
X-157226Y147726D01*
X-155702D01*
X-157226Y149250D01*
X-155702Y150774D01*
X-157226D01*
X-158750Y152298D01*
X-160274Y150774D01*
X-161798D01*
X-160274Y149250D01*
X-161798Y147726D01*
X-160274D01*
X-158750Y146202D01*
Y152920D02*
X-156210Y155460D01*
X-153670D01*
X-156210Y158000D01*
X-153670Y160540D01*
X-156210D01*
X-158750Y163080D01*
X-161290Y160540D01*
X-163830D01*
X-161290Y158000D01*
X-163830Y155460D01*
X-161290D01*
X-158750Y152920D01*
Y154952D02*
X-157226Y156476D01*
X-155702D01*
X-157226Y158000D01*
X-155702Y159524D01*
X-157226D01*
X-158750Y161048D01*
X-160274Y159524D01*
X-161798D01*
X-160274Y158000D01*
X-161798Y156476D01*
X-160274D01*
X-158750Y154952D01*
D138*
X420580Y46250D02*
G03*
X420580Y46250I-5080J0D01*
G01*
Y96250D02*
G03*
X420580Y96250I-5080J0D01*
G01*
X470580Y16250D02*
G03*
X470580Y16250I-5080J0D01*
G01*
Y126250D02*
G03*
X470580Y126250I-5080J0D01*
G01*
X419480Y-130300D02*
G03*
X419480Y-130300I-5080J0D01*
G01*
X419480Y-105300D02*
G03*
X419480Y-105300I-5080J0D01*
G01*
X419480Y-150300D02*
G03*
X419480Y-150300I-5080J0D01*
G01*
Y-175300D02*
G03*
X419480Y-175300I-5080J0D01*
G01*
D139*
X418548Y46250D02*
G03*
X418548Y46250I-3048J0D01*
G01*
Y96250D02*
G03*
X418548Y96250I-3048J0D01*
G01*
%TF.MD5,c84066ba989b5b05debdfd846c5bac0e*%
M02*
