%TF.GenerationSoftware,Altium Limited,Altium Designer,22.5.1 (42)*%
G04 Layer_Physical_Order=2*
G04 Layer_Color=36540*
%FSLAX44Y44*%
%MOMM*%
%TF.SameCoordinates,B102F14A-A54C-4FC6-BF91-0F17097562DF*%
%TF.FilePolarity,Positive*%
%TF.FileFunction,Copper,L2,Inr,Signal*%
%TF.Part,Single*%
G01*
G75*
%TA.AperFunction,Conductor*%
%ADD29C,0.8000*%
%ADD30C,0.3810*%
%TA.AperFunction,ComponentPad*%
%ADD32C,2.5500*%
%ADD33C,1.5080*%
%ADD34C,0.3000*%
%ADD35O,3.5000X2.8000*%
%ADD36R,3.5000X2.8000*%
%ADD37R,2.5000X1.2000*%
%ADD38R,1.2000X2.5000*%
%ADD39C,1.6000*%
%ADD40R,1.6000X1.6000*%
%ADD41C,1.8000*%
%ADD42R,1.8000X1.8000*%
%ADD43O,4.5000X3.0000*%
%ADD44C,3.7160*%
%ADD45R,3.7160X3.7160*%
%ADD46O,1.2000X2.4000*%
%ADD47C,5.0000*%
%ADD48O,2.8000X3.5000*%
%ADD49R,2.8000X3.5000*%
%TA.AperFunction,ViaPad*%
%ADD50C,0.6000*%
%ADD51C,0.8000*%
G36*
X448641Y347881D02*
X455524Y346975D01*
X462230Y345178D01*
X468644Y342521D01*
X474657Y339050D01*
X480164Y334824D01*
X485074Y329914D01*
X489300Y324407D01*
X492771Y318394D01*
X495428Y311980D01*
X497225Y305274D01*
X498131Y298391D01*
Y294920D01*
X498131Y-294920D01*
X498131Y-298391D01*
X497225Y-305274D01*
X495428Y-311980D01*
X492771Y-318394D01*
X489300Y-324407D01*
X485074Y-329915D01*
X480164Y-334824D01*
X474657Y-339050D01*
X468644Y-342521D01*
X462230Y-345178D01*
X455524Y-346975D01*
X448641Y-347881D01*
X-448641D01*
X-455524Y-346975D01*
X-462230Y-345178D01*
X-468644Y-342521D01*
X-474657Y-339050D01*
X-480164Y-334824D01*
X-485074Y-329914D01*
X-489300Y-324407D01*
X-492771Y-318395D01*
X-495428Y-311980D01*
X-497225Y-305274D01*
X-498131Y-298391D01*
Y-294920D01*
Y294920D01*
Y298391D01*
X-497225Y305274D01*
X-495428Y311980D01*
X-492771Y318394D01*
X-489300Y324407D01*
X-485074Y329914D01*
X-480164Y334824D01*
X-474657Y339050D01*
X-468644Y342521D01*
X-462230Y345178D01*
X-455524Y346975D01*
X-448641Y347881D01*
X-445170D01*
X445170Y347881D01*
X448641Y347881D01*
D02*
G37*
%LPC*%
G36*
X377995Y318500D02*
X376006D01*
X374168Y317739D01*
X372937Y316508D01*
X372484Y316347D01*
X371417Y316404D01*
X370332Y317489D01*
X368495Y318250D01*
X366506D01*
X364668Y317489D01*
X363261Y316082D01*
X363260Y316079D01*
X361990D01*
X361989Y316082D01*
X360582Y317489D01*
X358745Y318250D01*
X356755D01*
X354918Y317489D01*
X353937Y316508D01*
X353125Y316220D01*
X352313Y316508D01*
X351332Y317489D01*
X349495Y318250D01*
X347505D01*
X345668Y317489D01*
X344955Y316776D01*
X344125Y316180D01*
X343295Y316776D01*
X342582Y317489D01*
X340745Y318250D01*
X338755D01*
X336918Y317489D01*
X335687Y316258D01*
X335234Y316097D01*
X334166Y316155D01*
X333082Y317239D01*
X331245Y318000D01*
X329255D01*
X327418Y317239D01*
X326011Y315832D01*
X326010Y315829D01*
X324740D01*
X324739Y315832D01*
X323332Y317239D01*
X321495Y318000D01*
X319506D01*
X317668Y317239D01*
X316687Y316258D01*
X315875Y315970D01*
X315063Y316258D01*
X314082Y317239D01*
X312245Y318000D01*
X310255D01*
X308418Y317239D01*
X307011Y315832D01*
X306250Y313995D01*
Y312005D01*
X307011Y310168D01*
X307724Y309455D01*
X308320Y308625D01*
X307724Y307795D01*
X307011Y307082D01*
X306250Y305245D01*
Y303255D01*
X307011Y301418D01*
X308099Y300330D01*
X308376Y299799D01*
X308169Y298740D01*
X307261Y297832D01*
X306500Y295994D01*
Y294005D01*
X307261Y292168D01*
X307974Y291455D01*
X308570Y290625D01*
X307974Y289795D01*
X307261Y289082D01*
X306500Y287244D01*
Y285255D01*
X307261Y283418D01*
X308668Y282011D01*
X310505Y281250D01*
X312495D01*
X314332Y282011D01*
X315313Y282992D01*
X316125Y283280D01*
X316937Y282992D01*
X317918Y282011D01*
X319755Y281250D01*
X321745D01*
X323582Y282011D01*
X324989Y283418D01*
X324990Y283421D01*
X326260D01*
X326261Y283418D01*
X327668Y282011D01*
X329506Y281250D01*
X331495D01*
X333332Y282011D01*
X334563Y283242D01*
X335016Y283403D01*
X336083Y283345D01*
X337168Y282261D01*
X339006Y281500D01*
X340995D01*
X342832Y282261D01*
X343545Y282974D01*
X344375Y283570D01*
X345205Y282974D01*
X345918Y282261D01*
X347756Y281500D01*
X349745D01*
X351582Y282261D01*
X352563Y283242D01*
X353375Y283530D01*
X354187Y283242D01*
X355168Y282261D01*
X357006Y281500D01*
X358995D01*
X360832Y282261D01*
X362239Y283668D01*
X362240Y283671D01*
X363510D01*
X363511Y283668D01*
X364918Y282261D01*
X366755Y281500D01*
X368745D01*
X370582Y282261D01*
X371813Y283492D01*
X372266Y283653D01*
X373334Y283595D01*
X374418Y282511D01*
X376255Y281750D01*
X378245D01*
X380082Y282511D01*
X381489Y283918D01*
X382250Y285755D01*
Y287745D01*
X381489Y289582D01*
X380776Y290295D01*
X380180Y291125D01*
X380776Y291955D01*
X381489Y292668D01*
X382250Y294505D01*
Y296495D01*
X381489Y298332D01*
X380401Y299420D01*
X380124Y299951D01*
X380331Y301010D01*
X381239Y301918D01*
X382000Y303755D01*
Y305744D01*
X381239Y307582D01*
X380526Y308295D01*
X379930Y309125D01*
X380526Y309955D01*
X381239Y310668D01*
X382000Y312505D01*
Y314494D01*
X381239Y316332D01*
X379832Y317739D01*
X377995Y318500D01*
D02*
G37*
G36*
X66000Y322319D02*
X63912Y322044D01*
X61965Y321238D01*
X60294Y319956D01*
X59012Y318284D01*
X58206Y316338D01*
X57931Y314250D01*
Y302250D01*
X58206Y300162D01*
X59012Y298216D01*
X60294Y296544D01*
X61965Y295262D01*
X63912Y294456D01*
X66000Y294181D01*
X68088Y294456D01*
X70034Y295262D01*
X71706Y296544D01*
X72988Y298216D01*
X73794Y300162D01*
X74069Y302250D01*
Y314250D01*
X73794Y316338D01*
X72988Y318284D01*
X71706Y319956D01*
X70034Y321238D01*
X68088Y322044D01*
X66000Y322319D01*
D02*
G37*
G36*
X-69000D02*
X-71088Y322044D01*
X-73035Y321238D01*
X-74706Y319956D01*
X-75988Y318284D01*
X-76794Y316338D01*
X-77069Y314250D01*
Y302250D01*
X-76794Y300162D01*
X-75988Y298216D01*
X-74706Y296544D01*
X-73035Y295262D01*
X-71088Y294456D01*
X-69000Y294181D01*
X-66912Y294456D01*
X-64966Y295262D01*
X-63294Y296544D01*
X-62012Y298216D01*
X-61206Y300162D01*
X-60931Y302250D01*
Y314250D01*
X-61206Y316338D01*
X-62012Y318284D01*
X-63294Y319956D01*
X-64966Y321238D01*
X-66912Y322044D01*
X-69000Y322319D01*
D02*
G37*
G36*
X452125Y327000D02*
X447875D01*
X443677Y326335D01*
X439636Y325022D01*
X435849Y323092D01*
X432411Y320594D01*
X429406Y317589D01*
X426908Y314151D01*
X424978Y310364D01*
X423665Y306322D01*
X423000Y302125D01*
Y297875D01*
X423665Y293678D01*
X424978Y289636D01*
X426908Y285849D01*
X429406Y282411D01*
X432411Y279406D01*
X435849Y276908D01*
X439636Y274978D01*
X443677Y273665D01*
X447875Y273000D01*
X452125D01*
X456323Y273665D01*
X460364Y274978D01*
X464151Y276908D01*
X467589Y279406D01*
X470594Y282411D01*
X473092Y285849D01*
X475022Y289636D01*
X476335Y293678D01*
X477000Y297875D01*
Y302125D01*
X476335Y306322D01*
X475022Y310364D01*
X473092Y314151D01*
X470594Y317589D01*
X467589Y320594D01*
X464151Y323092D01*
X460364Y325022D01*
X456323Y326335D01*
X452125Y327000D01*
D02*
G37*
G36*
X-447875D02*
X-452125D01*
X-456323Y326335D01*
X-460364Y325022D01*
X-464151Y323092D01*
X-467589Y320594D01*
X-470594Y317589D01*
X-473092Y314151D01*
X-475022Y310364D01*
X-476335Y306322D01*
X-477000Y302125D01*
Y297875D01*
X-476335Y293678D01*
X-475022Y289636D01*
X-473092Y285849D01*
X-470594Y282411D01*
X-467589Y279406D01*
X-464151Y276908D01*
X-460364Y274978D01*
X-456323Y273665D01*
X-452125Y273000D01*
X-447875D01*
X-443677Y273665D01*
X-439636Y274978D01*
X-435849Y276908D01*
X-432411Y279406D01*
X-429406Y282411D01*
X-426908Y285849D01*
X-424978Y289636D01*
X-423665Y293678D01*
X-423000Y297875D01*
Y302125D01*
X-423665Y306322D01*
X-424978Y310364D01*
X-426908Y314151D01*
X-429406Y317589D01*
X-432411Y320594D01*
X-435849Y323092D01*
X-439636Y325022D01*
X-443677Y326335D01*
X-447875Y327000D01*
D02*
G37*
G36*
X103500Y343618D02*
X-30064D01*
X-32405Y343152D01*
X-34390Y341826D01*
X-39076Y337140D01*
X-40402Y335155D01*
X-40868Y332814D01*
Y268563D01*
X-43503Y268039D01*
X-47248Y266488D01*
X-50619Y264235D01*
X-53485Y261369D01*
X-55738Y257998D01*
X-57289Y254253D01*
X-58080Y250277D01*
Y246223D01*
X-57289Y242247D01*
X-55738Y238502D01*
X-53485Y235131D01*
X-50619Y232264D01*
X-47248Y230012D01*
X-43503Y228461D01*
X-39527Y227670D01*
X-35473D01*
X-31497Y228461D01*
X-27752Y230012D01*
X-24381Y232264D01*
X-21514Y235131D01*
X-19262Y238502D01*
X-17711Y242247D01*
X-16920Y246223D01*
Y250277D01*
X-17711Y254253D01*
X-19262Y257998D01*
X-21514Y261369D01*
X-24381Y264235D01*
X-27752Y266488D01*
X-28633Y266853D01*
Y330280D01*
X-27530Y331382D01*
X100966D01*
X176424Y255924D01*
X176925Y255590D01*
X177351Y255163D01*
X177908Y254933D01*
X178409Y254598D01*
X179000Y254481D01*
X179557Y254250D01*
X180159D01*
X180750Y254132D01*
X181341Y254250D01*
X181943D01*
X182500Y254481D01*
X183091Y254598D01*
X183592Y254933D01*
X184149Y255163D01*
X184575Y255590D01*
X185076Y255924D01*
X185410Y256425D01*
X185837Y256851D01*
X186067Y257408D01*
X186402Y257909D01*
X186519Y258500D01*
X186750Y259056D01*
Y259659D01*
X186868Y260250D01*
X186750Y260841D01*
Y261444D01*
X186519Y262000D01*
X186402Y262591D01*
X186067Y263092D01*
X185837Y263649D01*
X185410Y264075D01*
X185076Y264576D01*
X107826Y341826D01*
X105841Y343152D01*
X103500Y343618D01*
D02*
G37*
G36*
X-413000Y246250D02*
X-429000D01*
Y217250D01*
X-413000D01*
Y246250D01*
D02*
G37*
G36*
X-463000D02*
X-479000D01*
Y217250D01*
X-463000D01*
Y246250D01*
D02*
G37*
G36*
X-431500Y212750D02*
X-460500D01*
Y196750D01*
X-431500D01*
Y212750D01*
D02*
G37*
G36*
X467750Y206000D02*
X451750D01*
Y177000D01*
X467750D01*
Y206000D01*
D02*
G37*
G36*
X-413750Y176000D02*
X-429750D01*
Y147000D01*
X-413750D01*
Y176000D01*
D02*
G37*
G36*
X-463750D02*
X-479750D01*
Y147000D01*
X-463750D01*
Y176000D01*
D02*
G37*
G36*
X449250Y226500D02*
X420250D01*
Y224289D01*
X352500D01*
X352119Y224213D01*
X351734Y224140D01*
X351728Y224135D01*
X351720Y224134D01*
X351395Y223917D01*
X351069Y223703D01*
X254915Y129039D01*
X-82405D01*
X-130058Y176692D01*
X-130720Y177134D01*
X-131500Y177289D01*
X-132280Y177134D01*
X-132796Y176789D01*
X-197750D01*
X-198530Y176634D01*
X-199192Y176192D01*
X-199634Y175530D01*
X-199789Y174750D01*
Y129250D01*
X-199789Y129250D01*
X-199634Y128470D01*
X-199192Y127808D01*
X-199192Y127808D01*
X-140192Y68808D01*
X-139530Y68366D01*
X-138750Y68211D01*
X-137970Y68366D01*
X-137454Y68711D01*
X342000D01*
X342780Y68866D01*
X343442Y69308D01*
X343442Y69308D01*
X421692Y147558D01*
X422134Y148220D01*
X422289Y149000D01*
Y210500D01*
X449250D01*
Y226500D01*
D02*
G37*
G36*
X-432250Y142500D02*
X-461250D01*
Y126500D01*
X-432250D01*
Y142500D01*
D02*
G37*
G36*
X466756Y135790D02*
X464244D01*
X461818Y135140D01*
X459642Y133884D01*
X457866Y132108D01*
X456610Y129932D01*
X455960Y127506D01*
Y124994D01*
X456610Y122568D01*
X457866Y120392D01*
X459642Y118616D01*
X461818Y117360D01*
X464244Y116710D01*
X466756D01*
X469182Y117360D01*
X471358Y118616D01*
X473134Y120392D01*
X474390Y122568D01*
X475040Y124994D01*
Y127506D01*
X474390Y129932D01*
X473134Y132108D01*
X471358Y133884D01*
X469182Y135140D01*
X466756Y135790D01*
D02*
G37*
G36*
X416953Y111000D02*
X414047D01*
X411198Y110433D01*
X408513Y109321D01*
X406097Y107707D01*
X404043Y105653D01*
X402429Y103237D01*
X401317Y100552D01*
X400750Y97703D01*
Y94797D01*
X401317Y91948D01*
X402429Y89263D01*
X404043Y86847D01*
X406097Y84793D01*
X408513Y83179D01*
X411198Y82067D01*
X414047Y81500D01*
X416953D01*
X419802Y82067D01*
X422487Y83179D01*
X424903Y84793D01*
X426957Y86847D01*
X428571Y89263D01*
X429683Y91948D01*
X430250Y94797D01*
Y97703D01*
X429683Y100552D01*
X428571Y103237D01*
X426957Y105653D01*
X424903Y107707D01*
X422487Y109321D01*
X419802Y110433D01*
X416953Y111000D01*
D02*
G37*
G36*
X-404000Y113500D02*
X-443000D01*
Y103482D01*
X-454500D01*
X-456024Y103178D01*
X-457315Y102315D01*
X-483315Y76315D01*
X-484178Y75024D01*
X-484482Y73500D01*
Y-216250D01*
X-484178Y-217774D01*
X-483315Y-219065D01*
X-402145Y-300236D01*
Y-312461D01*
X-403940Y-313498D01*
X-405802Y-315360D01*
X-407118Y-317640D01*
X-407800Y-320183D01*
Y-322817D01*
X-407118Y-325360D01*
X-405802Y-327640D01*
X-403940Y-329502D01*
X-401660Y-330818D01*
X-399117Y-331500D01*
X-396483D01*
X-393940Y-330818D01*
X-391660Y-329502D01*
X-389798Y-327640D01*
X-388481Y-325360D01*
X-387800Y-322817D01*
Y-320183D01*
X-388481Y-317640D01*
X-389798Y-315360D01*
X-391660Y-313498D01*
X-393940Y-312181D01*
X-394182Y-312117D01*
Y-298587D01*
X-394484Y-297063D01*
X-395348Y-295772D01*
X-476519Y-214601D01*
Y71851D01*
X-452851Y95519D01*
X-443000D01*
Y81500D01*
X-404000D01*
Y113500D01*
D02*
G37*
G36*
X-420000Y73977D02*
X-427000D01*
X-430136Y73668D01*
X-433153Y72754D01*
X-435932Y71268D01*
X-438368Y69268D01*
X-440368Y66832D01*
X-441854Y64053D01*
X-442769Y61037D01*
X-443077Y57900D01*
X-442769Y54763D01*
X-441854Y51747D01*
X-440368Y48968D01*
X-438368Y46532D01*
X-435932Y44532D01*
X-433153Y43046D01*
X-430136Y42132D01*
X-427000Y41823D01*
X-420000D01*
X-416864Y42132D01*
X-413847Y43046D01*
X-411068Y44532D01*
X-408632Y46532D01*
X-406632Y48968D01*
X-405146Y51747D01*
X-404231Y54763D01*
X-403923Y57900D01*
X-404231Y61037D01*
X-405146Y64053D01*
X-406632Y66832D01*
X-408632Y69268D01*
X-411068Y71268D01*
X-413847Y72754D01*
X-416864Y73668D01*
X-420000Y73977D01*
D02*
G37*
G36*
X416953Y61000D02*
X414047D01*
X411198Y60433D01*
X408513Y59321D01*
X406097Y57707D01*
X404043Y55653D01*
X402429Y53237D01*
X401317Y50552D01*
X400750Y47703D01*
Y44797D01*
X401317Y41948D01*
X402429Y39263D01*
X404043Y36847D01*
X406097Y34793D01*
X408513Y33179D01*
X411198Y32067D01*
X414047Y31500D01*
X416953D01*
X419802Y32067D01*
X422487Y33179D01*
X424903Y34793D01*
X426957Y36847D01*
X428571Y39263D01*
X429683Y41948D01*
X430250Y44797D01*
Y47703D01*
X429683Y50552D01*
X428571Y53237D01*
X426957Y55653D01*
X424903Y57707D01*
X422487Y59321D01*
X419802Y60433D01*
X416953Y61000D01*
D02*
G37*
G36*
X380995Y32750D02*
X379006D01*
X377168Y31989D01*
X375937Y30758D01*
X375484Y30597D01*
X374417Y30654D01*
X373332Y31739D01*
X371495Y32500D01*
X369506D01*
X367668Y31739D01*
X366261Y30332D01*
X366260Y30329D01*
X364990D01*
X364989Y30332D01*
X363582Y31739D01*
X361745Y32500D01*
X359756D01*
X357918Y31739D01*
X356937Y30758D01*
X356125Y30470D01*
X355313Y30758D01*
X354332Y31739D01*
X352495Y32500D01*
X350505D01*
X348668Y31739D01*
X347955Y31026D01*
X347125Y30430D01*
X346295Y31026D01*
X345582Y31739D01*
X343745Y32500D01*
X341755D01*
X339918Y31739D01*
X338687Y30508D01*
X338234Y30347D01*
X337166Y30405D01*
X336082Y31489D01*
X334245Y32250D01*
X332255D01*
X330418Y31489D01*
X329011Y30082D01*
X329010Y30079D01*
X327740D01*
X327739Y30082D01*
X326332Y31489D01*
X324495Y32250D01*
X322505D01*
X320668Y31489D01*
X319687Y30508D01*
X318875Y30220D01*
X318063Y30508D01*
X317082Y31489D01*
X315245Y32250D01*
X313255D01*
X311418Y31489D01*
X310011Y30082D01*
X309250Y28245D01*
Y26255D01*
X310011Y24418D01*
X310724Y23705D01*
X311320Y22875D01*
X310724Y22045D01*
X310011Y21332D01*
X309250Y19495D01*
Y17505D01*
X310011Y15668D01*
X311099Y14580D01*
X311376Y14049D01*
X311169Y12990D01*
X310261Y12082D01*
X309500Y10244D01*
Y8255D01*
X310261Y6418D01*
X310974Y5705D01*
X311570Y4875D01*
X310974Y4045D01*
X310261Y3332D01*
X309500Y1495D01*
Y-495D01*
X310261Y-2332D01*
X311668Y-3739D01*
X313505Y-4500D01*
X315495D01*
X317332Y-3739D01*
X318313Y-2758D01*
X319125Y-2470D01*
X319937Y-2758D01*
X320918Y-3739D01*
X322756Y-4500D01*
X324745D01*
X326582Y-3739D01*
X327989Y-2332D01*
X327990Y-2329D01*
X329260D01*
X329261Y-2332D01*
X330668Y-3739D01*
X332505Y-4500D01*
X334495D01*
X336332Y-3739D01*
X337563Y-2508D01*
X338016Y-2347D01*
X339084Y-2405D01*
X340168Y-3489D01*
X342006Y-4250D01*
X343995D01*
X345832Y-3489D01*
X346545Y-2776D01*
X347375Y-2180D01*
X348205Y-2776D01*
X348918Y-3489D01*
X350756Y-4250D01*
X352745D01*
X354582Y-3489D01*
X355563Y-2508D01*
X356375Y-2220D01*
X357187Y-2508D01*
X358168Y-3489D01*
X360005Y-4250D01*
X361995D01*
X363832Y-3489D01*
X365239Y-2082D01*
X365240Y-2079D01*
X366510D01*
X366511Y-2082D01*
X367918Y-3489D01*
X369756Y-4250D01*
X371745D01*
X373582Y-3489D01*
X374813Y-2258D01*
X375266Y-2097D01*
X376334Y-2155D01*
X377418Y-3239D01*
X379255Y-4000D01*
X381245D01*
X383082Y-3239D01*
X384489Y-1832D01*
X385250Y5D01*
Y1995D01*
X384489Y3832D01*
X383776Y4545D01*
X383180Y5375D01*
X383776Y6205D01*
X384489Y6918D01*
X385250Y8755D01*
Y10745D01*
X384489Y12582D01*
X383401Y13670D01*
X383124Y14201D01*
X383331Y15260D01*
X384239Y16168D01*
X385000Y18005D01*
Y19994D01*
X384239Y21832D01*
X383526Y22545D01*
X382930Y23375D01*
X383526Y24205D01*
X384239Y24918D01*
X385000Y26755D01*
Y28744D01*
X384239Y30582D01*
X382832Y31989D01*
X380995Y32750D01*
D02*
G37*
G36*
X17995Y30500D02*
X16005D01*
X14168Y29739D01*
X12761Y28332D01*
X12000Y26495D01*
Y24505D01*
X12761Y22668D01*
X14168Y21261D01*
X16005Y20500D01*
X17995D01*
X19832Y21261D01*
X21239Y22668D01*
X22000Y24505D01*
Y26495D01*
X21239Y28332D01*
X19832Y29739D01*
X17995Y30500D01*
D02*
G37*
G36*
X38245Y18000D02*
X36255D01*
X34418Y17239D01*
X33011Y15832D01*
X32250Y13995D01*
Y12005D01*
X33011Y10168D01*
X34418Y8761D01*
X36255Y8000D01*
X38245D01*
X40082Y8761D01*
X41489Y10168D01*
X42250Y12005D01*
Y13995D01*
X41489Y15832D01*
X40082Y17239D01*
X38245Y18000D01*
D02*
G37*
G36*
X466756Y25790D02*
X464244D01*
X461818Y25140D01*
X459642Y23884D01*
X457866Y22108D01*
X456610Y19932D01*
X455960Y17506D01*
Y14994D01*
X456610Y12568D01*
X457866Y10392D01*
X459642Y8616D01*
X461818Y7360D01*
X464244Y6710D01*
X466756D01*
X469182Y7360D01*
X471358Y8616D01*
X473134Y10392D01*
X474390Y12568D01*
X475040Y14994D01*
Y17506D01*
X474390Y19932D01*
X473134Y22108D01*
X471358Y23884D01*
X469182Y25140D01*
X466756Y25790D01*
D02*
G37*
G36*
X-420000Y34377D02*
X-427000D01*
X-430136Y34069D01*
X-433153Y33154D01*
X-435932Y31668D01*
X-438368Y29669D01*
X-440368Y27232D01*
X-441854Y24453D01*
X-442769Y21437D01*
X-443077Y18300D01*
X-442769Y15164D01*
X-441854Y12147D01*
X-440368Y9368D01*
X-438368Y6932D01*
X-435932Y4932D01*
X-433153Y3446D01*
X-430136Y2531D01*
X-427000Y2223D01*
X-420000D01*
X-416864Y2531D01*
X-413847Y3446D01*
X-411068Y4932D01*
X-408632Y6932D01*
X-406632Y9368D01*
X-405146Y12147D01*
X-404231Y15164D01*
X-403923Y18300D01*
X-404231Y21437D01*
X-405146Y24453D01*
X-406632Y27232D01*
X-408632Y29669D01*
X-411068Y31668D01*
X-413847Y33154D01*
X-416864Y34069D01*
X-420000Y34377D01*
D02*
G37*
G36*
X45446Y-250D02*
X44054D01*
X42767Y-783D01*
X41783Y-1767D01*
X41250Y-3054D01*
Y-4446D01*
X41783Y-5733D01*
X42767Y-6717D01*
X44054Y-7250D01*
X45446D01*
X46733Y-6717D01*
X47717Y-5733D01*
X48250Y-4446D01*
Y-3054D01*
X47717Y-1767D01*
X46733Y-783D01*
X45446Y-250D01*
D02*
G37*
G36*
X-296255Y-6000D02*
X-298244D01*
X-300082Y-6761D01*
X-301313Y-7992D01*
X-301766Y-8153D01*
X-302833Y-8095D01*
X-303918Y-7011D01*
X-305755Y-6250D01*
X-307745D01*
X-309582Y-7011D01*
X-310989Y-8418D01*
X-310990Y-8421D01*
X-312260D01*
X-312261Y-8418D01*
X-313668Y-7011D01*
X-315505Y-6250D01*
X-317495D01*
X-319332Y-7011D01*
X-320313Y-7992D01*
X-321125Y-8281D01*
X-321937Y-7992D01*
X-322918Y-7011D01*
X-324755Y-6250D01*
X-326745D01*
X-328582Y-7011D01*
X-329295Y-7724D01*
X-330125Y-8320D01*
X-330955Y-7724D01*
X-331668Y-7011D01*
X-333505Y-6250D01*
X-335495D01*
X-337332Y-7011D01*
X-338563Y-8242D01*
X-339016Y-8403D01*
X-340084Y-8345D01*
X-341168Y-7261D01*
X-343005Y-6500D01*
X-344995D01*
X-346832Y-7261D01*
X-348239Y-8668D01*
X-348240Y-8671D01*
X-349510D01*
X-349511Y-8668D01*
X-350918Y-7261D01*
X-352755Y-6500D01*
X-354745D01*
X-356582Y-7261D01*
X-357563Y-8242D01*
X-358375Y-8530D01*
X-359187Y-8242D01*
X-360168Y-7261D01*
X-362005Y-6500D01*
X-363995D01*
X-365832Y-7261D01*
X-367239Y-8668D01*
X-368000Y-10505D01*
Y-12495D01*
X-367239Y-14332D01*
X-366526Y-15045D01*
X-365930Y-15875D01*
X-366526Y-16705D01*
X-367239Y-17418D01*
X-368000Y-19255D01*
Y-21245D01*
X-367239Y-23082D01*
X-366151Y-24170D01*
X-365874Y-24701D01*
X-366081Y-25760D01*
X-366989Y-26668D01*
X-367750Y-28505D01*
Y-30495D01*
X-366989Y-32332D01*
X-366276Y-33045D01*
X-365680Y-33875D01*
X-366276Y-34705D01*
X-366989Y-35418D01*
X-367750Y-37255D01*
Y-39245D01*
X-366989Y-41082D01*
X-365582Y-42489D01*
X-363745Y-43250D01*
X-361755D01*
X-359918Y-42489D01*
X-358937Y-41508D01*
X-358125Y-41220D01*
X-357313Y-41508D01*
X-356332Y-42489D01*
X-354495Y-43250D01*
X-352505D01*
X-350668Y-42489D01*
X-349261Y-41082D01*
X-349260Y-41079D01*
X-347990D01*
X-347989Y-41082D01*
X-346582Y-42489D01*
X-344744Y-43250D01*
X-342755D01*
X-340918Y-42489D01*
X-339687Y-41258D01*
X-339234Y-41097D01*
X-338167Y-41155D01*
X-337082Y-42239D01*
X-335244Y-43000D01*
X-333255D01*
X-331418Y-42239D01*
X-330705Y-41526D01*
X-329875Y-40930D01*
X-329045Y-41526D01*
X-328332Y-42239D01*
X-326494Y-43000D01*
X-324505D01*
X-322668Y-42239D01*
X-321687Y-41258D01*
X-320875Y-40970D01*
X-320063Y-41258D01*
X-319082Y-42239D01*
X-317244Y-43000D01*
X-315255D01*
X-313418Y-42239D01*
X-312011Y-40832D01*
X-312010Y-40829D01*
X-310740D01*
X-310739Y-40832D01*
X-309332Y-42239D01*
X-307495Y-43000D01*
X-305505D01*
X-303668Y-42239D01*
X-302437Y-41008D01*
X-301984Y-40847D01*
X-300917Y-40905D01*
X-299832Y-41989D01*
X-297994Y-42750D01*
X-296005D01*
X-294168Y-41989D01*
X-292761Y-40582D01*
X-292000Y-38745D01*
Y-36755D01*
X-292761Y-34918D01*
X-293474Y-34205D01*
X-294070Y-33375D01*
X-293474Y-32545D01*
X-292761Y-31832D01*
X-292000Y-29995D01*
Y-28005D01*
X-292761Y-26168D01*
X-293849Y-25080D01*
X-294126Y-24548D01*
X-293919Y-23490D01*
X-293011Y-22582D01*
X-292250Y-20745D01*
Y-18756D01*
X-293011Y-16918D01*
X-293724Y-16205D01*
X-294320Y-15375D01*
X-293724Y-14545D01*
X-293011Y-13832D01*
X-292250Y-11995D01*
Y-10006D01*
X-293011Y-8168D01*
X-294418Y-6761D01*
X-296255Y-6000D01*
D02*
G37*
G36*
X149995Y-5000D02*
X148005D01*
X146168Y-5761D01*
X144761Y-7168D01*
X144000Y-9005D01*
Y-10995D01*
X144761Y-12832D01*
X146168Y-14239D01*
X148005Y-15000D01*
X149995D01*
X151832Y-14239D01*
X153239Y-12832D01*
X154000Y-10995D01*
Y-9005D01*
X153239Y-7168D01*
X151832Y-5761D01*
X149995Y-5000D01*
D02*
G37*
G36*
X-3250Y18539D02*
X-21750D01*
X-22530Y18384D01*
X-23192Y17942D01*
X-23634Y17280D01*
X-23789Y16500D01*
Y-7500D01*
X-23789Y-7500D01*
X-23634Y-8280D01*
X-23192Y-8942D01*
X-23192Y-8942D01*
X-17192Y-14942D01*
X-16530Y-15384D01*
X-15750Y-15539D01*
X22750Y-15539D01*
X23530Y-15384D01*
X24192Y-14942D01*
X24634Y-14280D01*
X24789Y-13500D01*
Y-3250D01*
X24634Y-2470D01*
X24192Y-1808D01*
X23530Y-1366D01*
X22750Y-1211D01*
X3845D01*
X-1211Y3845D01*
Y16500D01*
X-1366Y17280D01*
X-1808Y17942D01*
X-2470Y18384D01*
X-3250Y18539D01*
D02*
G37*
G36*
X53196Y-13000D02*
X51804D01*
X50517Y-13533D01*
X49533Y-14517D01*
X49000Y-15804D01*
Y-17196D01*
X49533Y-18483D01*
X50517Y-19467D01*
X51804Y-20000D01*
X53196D01*
X54483Y-19467D01*
X55467Y-18483D01*
X56000Y-17196D01*
Y-15804D01*
X55467Y-14517D01*
X54483Y-13533D01*
X53196Y-13000D01*
D02*
G37*
G36*
X37696D02*
X36304D01*
X35017Y-13533D01*
X34033Y-14517D01*
X33500Y-15804D01*
Y-17196D01*
X34033Y-18483D01*
X35017Y-19467D01*
X36304Y-20000D01*
X37696D01*
X38983Y-19467D01*
X39967Y-18483D01*
X40500Y-17196D01*
Y-15804D01*
X39967Y-14517D01*
X38983Y-13533D01*
X37696Y-13000D01*
D02*
G37*
G36*
X17188Y-18043D02*
X15199D01*
X13362Y-18804D01*
X11955Y-20210D01*
X11194Y-22048D01*
Y-24037D01*
X11879Y-25691D01*
X11381Y-26961D01*
X-15937D01*
X-15985Y-26970D01*
X-16033Y-26963D01*
X-16373Y-27048D01*
X-16717Y-27116D01*
X-16758Y-27143D01*
X-16805Y-27155D01*
X-17868Y-27655D01*
X-18114Y-27836D01*
X-18376Y-27995D01*
X-61291Y-67211D01*
X-98250D01*
X-99030Y-67366D01*
X-99692Y-67808D01*
X-99692Y-67808D01*
X-119192Y-87308D01*
X-119634Y-87970D01*
X-119789Y-88750D01*
Y-114000D01*
X-119634Y-114780D01*
X-119192Y-115442D01*
X-118530Y-115884D01*
X-117750Y-116039D01*
X-46000D01*
X-45220Y-115884D01*
X-44558Y-115442D01*
X24442Y-46442D01*
X24884Y-45780D01*
X25039Y-45000D01*
Y-29000D01*
X24884Y-28220D01*
X24442Y-27558D01*
X23780Y-27116D01*
X23000Y-26961D01*
X21006D01*
X20509Y-25691D01*
X21194Y-24037D01*
Y-22048D01*
X20433Y-20210D01*
X19026Y-18804D01*
X17188Y-18043D01*
D02*
G37*
G36*
X45446Y-25750D02*
X44054D01*
X42767Y-26283D01*
X41783Y-27267D01*
X41250Y-28554D01*
Y-29946D01*
X41783Y-31233D01*
X42767Y-32217D01*
X44054Y-32750D01*
X45446D01*
X46733Y-32217D01*
X47717Y-31233D01*
X48250Y-29946D01*
Y-28554D01*
X47717Y-27267D01*
X46733Y-26283D01*
X45446Y-25750D01*
D02*
G37*
G36*
X73995Y-28000D02*
X72005D01*
X70168Y-28761D01*
X68761Y-30168D01*
X68000Y-32005D01*
Y-33995D01*
X68761Y-35832D01*
X70168Y-37239D01*
X72005Y-38000D01*
X73995D01*
X75832Y-37239D01*
X77239Y-35832D01*
X78000Y-33995D01*
Y-32005D01*
X77239Y-30168D01*
X75832Y-28761D01*
X73995Y-28000D01*
D02*
G37*
G36*
X-404000Y-15000D02*
X-443000D01*
Y-27018D01*
X-447000D01*
X-448524Y-27322D01*
X-449815Y-28185D01*
X-464065Y-42435D01*
X-464928Y-43726D01*
X-465232Y-45250D01*
Y-206250D01*
X-464928Y-207774D01*
X-464065Y-209065D01*
X-452065Y-221065D01*
X-450774Y-221928D01*
X-449250Y-222232D01*
X-432204D01*
X-432016Y-223501D01*
X-433153Y-223846D01*
X-435932Y-225332D01*
X-438368Y-227332D01*
X-440368Y-229768D01*
X-441854Y-232547D01*
X-442769Y-235564D01*
X-443077Y-238700D01*
X-442769Y-241836D01*
X-441854Y-244853D01*
X-440368Y-247632D01*
X-438368Y-250068D01*
X-435932Y-252068D01*
X-433153Y-253554D01*
X-430136Y-254468D01*
X-427000Y-254777D01*
X-420000D01*
X-416864Y-254468D01*
X-413847Y-253554D01*
X-411068Y-252068D01*
X-408632Y-250068D01*
X-406632Y-247632D01*
X-405146Y-244853D01*
X-404231Y-241836D01*
X-403923Y-238700D01*
X-404231Y-235564D01*
X-405146Y-232547D01*
X-406632Y-229768D01*
X-408632Y-227332D01*
X-411068Y-225332D01*
X-413847Y-223846D01*
X-414984Y-223501D01*
X-414796Y-222232D01*
X-387399D01*
X-376381Y-233249D01*
Y-312252D01*
X-378540Y-313498D01*
X-380402Y-315360D01*
X-381718Y-317640D01*
X-382400Y-320183D01*
Y-322817D01*
X-381718Y-325360D01*
X-380402Y-327640D01*
X-378540Y-329502D01*
X-376260Y-330818D01*
X-373717Y-331500D01*
X-371083D01*
X-368540Y-330818D01*
X-366260Y-329502D01*
X-364398Y-327640D01*
X-363082Y-325360D01*
X-362400Y-322817D01*
Y-320183D01*
X-363082Y-317640D01*
X-364398Y-315360D01*
X-366260Y-313498D01*
X-368419Y-312252D01*
Y-231600D01*
X-368722Y-230076D01*
X-369585Y-228785D01*
X-382935Y-215435D01*
X-384226Y-214572D01*
X-385750Y-214268D01*
X-411743D01*
X-412061Y-212999D01*
X-411068Y-212468D01*
X-408632Y-210468D01*
X-406632Y-208032D01*
X-405146Y-205252D01*
X-404231Y-202236D01*
X-403923Y-199100D01*
X-404231Y-195963D01*
X-405146Y-192947D01*
X-406632Y-190168D01*
X-408632Y-187731D01*
X-411068Y-185732D01*
X-413847Y-184246D01*
X-416864Y-183332D01*
X-420000Y-183023D01*
X-427000D01*
X-430136Y-183332D01*
X-433153Y-184246D01*
X-435932Y-185732D01*
X-438368Y-187731D01*
X-440368Y-190168D01*
X-441854Y-192947D01*
X-442769Y-195963D01*
X-443077Y-199100D01*
X-442769Y-202236D01*
X-441854Y-205252D01*
X-440368Y-208032D01*
X-438368Y-210468D01*
X-435932Y-212468D01*
X-434939Y-212999D01*
X-435257Y-214268D01*
X-447601D01*
X-457268Y-204601D01*
Y-46899D01*
X-445351Y-34982D01*
X-443000D01*
Y-47000D01*
X-404000D01*
Y-15000D01*
D02*
G37*
G36*
X85745Y-73500D02*
X83755D01*
X81918Y-74261D01*
X80511Y-75668D01*
X79750Y-77505D01*
Y-79495D01*
X80511Y-81332D01*
X81918Y-82739D01*
X83755Y-83500D01*
X85745D01*
X87582Y-82739D01*
X88989Y-81332D01*
X89750Y-79495D01*
Y-77505D01*
X88989Y-75668D01*
X87582Y-74261D01*
X85745Y-73500D01*
D02*
G37*
G36*
X-420000Y-54523D02*
X-427000D01*
X-430136Y-54832D01*
X-433153Y-55746D01*
X-435932Y-57232D01*
X-438368Y-59232D01*
X-440368Y-61668D01*
X-441854Y-64447D01*
X-442769Y-67463D01*
X-443077Y-70600D01*
X-442769Y-73737D01*
X-441854Y-76753D01*
X-440368Y-79532D01*
X-438368Y-81968D01*
X-435932Y-83968D01*
X-433153Y-85454D01*
X-430136Y-86369D01*
X-427000Y-86677D01*
X-420000D01*
X-416864Y-86369D01*
X-413847Y-85454D01*
X-411068Y-83968D01*
X-408632Y-81968D01*
X-406632Y-79532D01*
X-405146Y-76753D01*
X-404231Y-73737D01*
X-403923Y-70600D01*
X-404231Y-67463D01*
X-405146Y-64447D01*
X-406632Y-61668D01*
X-408632Y-59232D01*
X-411068Y-57232D01*
X-413847Y-55746D01*
X-416864Y-54832D01*
X-420000Y-54523D01*
D02*
G37*
G36*
X449000Y-57518D02*
X434000D01*
X430667Y-57846D01*
X427463Y-58818D01*
X424510Y-60397D01*
X421921Y-62521D01*
X419797Y-65110D01*
X418218Y-68063D01*
X417246Y-71267D01*
X416918Y-74600D01*
X417246Y-77933D01*
X418218Y-81137D01*
X419797Y-84090D01*
X421921Y-86679D01*
X424510Y-88803D01*
X427463Y-90382D01*
X430667Y-91354D01*
X434000Y-91682D01*
X449000D01*
X452333Y-91354D01*
X455537Y-90382D01*
X458490Y-88803D01*
X461079Y-86679D01*
X463203Y-84090D01*
X464782Y-81137D01*
X465754Y-77933D01*
X466082Y-74600D01*
X465754Y-71267D01*
X464782Y-68063D01*
X463203Y-65110D01*
X461079Y-62521D01*
X458490Y-60397D01*
X455537Y-58818D01*
X452333Y-57846D01*
X449000Y-57518D01*
D02*
G37*
G36*
X-287505Y-103750D02*
X-289495D01*
X-291332Y-104511D01*
X-292739Y-105918D01*
X-293500Y-107755D01*
Y-109745D01*
X-292739Y-111582D01*
X-291332Y-112989D01*
X-289495Y-113750D01*
X-287505D01*
X-285668Y-112989D01*
X-284261Y-111582D01*
X-283500Y-109745D01*
Y-107755D01*
X-284261Y-105918D01*
X-285668Y-104511D01*
X-287505Y-103750D01*
D02*
G37*
G36*
X-420000Y-94123D02*
X-427000D01*
X-430136Y-94431D01*
X-433153Y-95346D01*
X-435932Y-96832D01*
X-438368Y-98832D01*
X-440368Y-101268D01*
X-441854Y-104047D01*
X-442769Y-107063D01*
X-443077Y-110200D01*
X-442769Y-113336D01*
X-441854Y-116353D01*
X-440368Y-119132D01*
X-438368Y-121568D01*
X-435932Y-123568D01*
X-433153Y-125054D01*
X-430136Y-125969D01*
X-427000Y-126277D01*
X-420000D01*
X-416864Y-125969D01*
X-413847Y-125054D01*
X-411068Y-123568D01*
X-408632Y-121568D01*
X-406632Y-119132D01*
X-405146Y-116353D01*
X-404231Y-113336D01*
X-403923Y-110200D01*
X-404231Y-107063D01*
X-405146Y-104047D01*
X-406632Y-101268D01*
X-408632Y-98832D01*
X-411068Y-96832D01*
X-413847Y-95346D01*
X-416864Y-94431D01*
X-420000Y-94123D01*
D02*
G37*
G36*
X-28755Y-209750D02*
X-30745D01*
X-32582Y-210511D01*
X-33295Y-211224D01*
X-34125Y-211820D01*
X-34955Y-211224D01*
X-35668Y-210511D01*
X-37505Y-209750D01*
X-39495D01*
X-41332Y-210511D01*
X-42420Y-211599D01*
X-42951Y-211876D01*
X-44010Y-211669D01*
X-44918Y-210761D01*
X-46755Y-210000D01*
X-48745D01*
X-50582Y-210761D01*
X-51295Y-211474D01*
X-52125Y-212070D01*
X-52955Y-211474D01*
X-53668Y-210761D01*
X-55505Y-210000D01*
X-57495D01*
X-59332Y-210761D01*
X-60739Y-212168D01*
X-61500Y-214005D01*
Y-215995D01*
X-60739Y-217832D01*
X-59508Y-219063D01*
X-59347Y-219516D01*
X-59405Y-220583D01*
X-60489Y-221668D01*
X-61250Y-223505D01*
Y-225495D01*
X-60489Y-227332D01*
X-59082Y-228739D01*
X-59079Y-228740D01*
Y-230010D01*
X-59082Y-230011D01*
X-60489Y-231418D01*
X-61250Y-233255D01*
Y-235245D01*
X-60489Y-237082D01*
X-59508Y-238063D01*
X-59220Y-238875D01*
X-59508Y-239687D01*
X-60489Y-240668D01*
X-61250Y-242505D01*
Y-244495D01*
X-60489Y-246332D01*
X-59776Y-247045D01*
X-59180Y-247875D01*
X-59776Y-248705D01*
X-60489Y-249418D01*
X-61250Y-251255D01*
Y-253245D01*
X-60489Y-255082D01*
X-59258Y-256313D01*
X-59097Y-256766D01*
X-59155Y-257833D01*
X-60239Y-258918D01*
X-61000Y-260756D01*
Y-262745D01*
X-60239Y-264582D01*
X-58832Y-265989D01*
X-58829Y-265990D01*
Y-267260D01*
X-58832Y-267261D01*
X-60239Y-268668D01*
X-61000Y-270506D01*
Y-272495D01*
X-60239Y-274332D01*
X-59258Y-275313D01*
X-58970Y-276125D01*
X-59258Y-276937D01*
X-60239Y-277918D01*
X-61000Y-279755D01*
Y-281745D01*
X-60239Y-283582D01*
X-58832Y-284989D01*
X-56995Y-285750D01*
X-55005D01*
X-53168Y-284989D01*
X-52455Y-284276D01*
X-51625Y-283680D01*
X-50795Y-284276D01*
X-50082Y-284989D01*
X-48245Y-285750D01*
X-46255D01*
X-44418Y-284989D01*
X-43330Y-283901D01*
X-42799Y-283624D01*
X-41740Y-283831D01*
X-40832Y-284739D01*
X-38995Y-285500D01*
X-37006D01*
X-35168Y-284739D01*
X-34455Y-284026D01*
X-33625Y-283430D01*
X-32795Y-284026D01*
X-32082Y-284739D01*
X-30245Y-285500D01*
X-28256D01*
X-26418Y-284739D01*
X-25011Y-283332D01*
X-24250Y-281495D01*
Y-279506D01*
X-25011Y-277668D01*
X-25992Y-276687D01*
X-26281Y-275875D01*
X-25992Y-275063D01*
X-25011Y-274082D01*
X-24250Y-272245D01*
Y-270255D01*
X-25011Y-268418D01*
X-26418Y-267011D01*
X-26421Y-267010D01*
Y-265740D01*
X-26418Y-265739D01*
X-25011Y-264332D01*
X-24250Y-262495D01*
Y-260505D01*
X-25011Y-258668D01*
X-26242Y-257437D01*
X-26403Y-256984D01*
X-26345Y-255917D01*
X-25261Y-254832D01*
X-24500Y-252995D01*
Y-251005D01*
X-25261Y-249168D01*
X-25974Y-248455D01*
X-26570Y-247625D01*
X-25974Y-246795D01*
X-25261Y-246082D01*
X-24500Y-244245D01*
Y-242255D01*
X-25261Y-240418D01*
X-26242Y-239437D01*
X-26530Y-238625D01*
X-26242Y-237813D01*
X-25261Y-236832D01*
X-24500Y-234995D01*
Y-233005D01*
X-25261Y-231168D01*
X-26668Y-229761D01*
X-26671Y-229760D01*
Y-228490D01*
X-26668Y-228489D01*
X-25261Y-227082D01*
X-24500Y-225245D01*
Y-223255D01*
X-25261Y-221418D01*
X-26492Y-220187D01*
X-26653Y-219734D01*
X-26595Y-218666D01*
X-25511Y-217582D01*
X-24750Y-215745D01*
Y-213755D01*
X-25511Y-211918D01*
X-26918Y-210511D01*
X-28755Y-209750D01*
D02*
G37*
G36*
X-241850Y-286750D02*
X-273850D01*
Y-302269D01*
X-292500D01*
X-294024Y-302572D01*
X-295315Y-303435D01*
X-299015Y-307135D01*
X-299878Y-308426D01*
X-300182Y-309950D01*
Y-311500D01*
X-306200D01*
Y-331500D01*
X-286200D01*
Y-311500D01*
X-286200D01*
X-286196Y-310231D01*
X-273850D01*
Y-325750D01*
X-241850D01*
Y-286750D01*
D02*
G37*
G36*
X-178650Y-286673D02*
X-181786Y-286982D01*
X-184803Y-287896D01*
X-187582Y-289382D01*
X-190018Y-291382D01*
X-192018Y-293818D01*
X-193504Y-296597D01*
X-194419Y-299613D01*
X-194727Y-302750D01*
Y-309750D01*
X-194419Y-312887D01*
X-193504Y-315903D01*
X-192018Y-318682D01*
X-190018Y-321119D01*
X-187582Y-323118D01*
X-184803Y-324604D01*
X-181786Y-325518D01*
X-178650Y-325827D01*
X-175513Y-325518D01*
X-172497Y-324604D01*
X-169718Y-323118D01*
X-167281Y-321119D01*
X-165282Y-318682D01*
X-163796Y-315903D01*
X-162882Y-312887D01*
X-162573Y-309750D01*
Y-302750D01*
X-162882Y-299613D01*
X-163796Y-296597D01*
X-165282Y-293818D01*
X-167281Y-291382D01*
X-169718Y-289382D01*
X-172497Y-287896D01*
X-175513Y-286982D01*
X-178650Y-286673D01*
D02*
G37*
G36*
X-218250D02*
X-221387Y-286982D01*
X-224403Y-287896D01*
X-227182Y-289382D01*
X-229618Y-291382D01*
X-231618Y-293818D01*
X-233104Y-296597D01*
X-234018Y-299613D01*
X-234327Y-302750D01*
Y-309750D01*
X-234018Y-312887D01*
X-233104Y-315903D01*
X-231618Y-318682D01*
X-229618Y-321119D01*
X-227182Y-323118D01*
X-224403Y-324604D01*
X-221387Y-325518D01*
X-218250Y-325827D01*
X-215114Y-325518D01*
X-212097Y-324604D01*
X-209318Y-323118D01*
X-206882Y-321119D01*
X-204882Y-318682D01*
X-203396Y-315903D01*
X-202481Y-312887D01*
X-202173Y-309750D01*
Y-302750D01*
X-202481Y-299613D01*
X-203396Y-296597D01*
X-204882Y-293818D01*
X-206882Y-291382D01*
X-209318Y-289382D01*
X-212097Y-287896D01*
X-215114Y-286982D01*
X-218250Y-286673D01*
D02*
G37*
G36*
X-143250Y-267019D02*
X-294500D01*
X-296024Y-267322D01*
X-297315Y-268185D01*
X-324415Y-295285D01*
X-325278Y-296576D01*
X-325582Y-298100D01*
Y-312252D01*
X-327740Y-313498D01*
X-329602Y-315360D01*
X-330919Y-317640D01*
X-331600Y-320183D01*
Y-322817D01*
X-330919Y-325360D01*
X-329602Y-327640D01*
X-327740Y-329502D01*
X-325460Y-330818D01*
X-322916Y-331500D01*
X-320283D01*
X-317740Y-330818D01*
X-315460Y-329502D01*
X-313598Y-327640D01*
X-312281Y-325360D01*
X-311600Y-322817D01*
Y-320183D01*
X-312281Y-317640D01*
X-313598Y-315360D01*
X-315460Y-313498D01*
X-317619Y-312252D01*
Y-299749D01*
X-292851Y-274981D01*
X-144899D01*
X-136332Y-283549D01*
Y-287000D01*
X-148350D01*
Y-326000D01*
X-116350D01*
Y-287000D01*
X-128369D01*
Y-281900D01*
X-128672Y-280376D01*
X-129535Y-279085D01*
X-140435Y-268185D01*
X-141726Y-267322D01*
X-141979Y-267271D01*
X-143250Y-267019D01*
D02*
G37*
G36*
X-53150Y-286923D02*
X-56287Y-287232D01*
X-59303Y-288146D01*
X-62082Y-289632D01*
X-64518Y-291632D01*
X-66518Y-294068D01*
X-68004Y-296847D01*
X-68918Y-299863D01*
X-69227Y-303000D01*
Y-310000D01*
X-68918Y-313137D01*
X-68004Y-316153D01*
X-66518Y-318932D01*
X-64518Y-321368D01*
X-62082Y-323368D01*
X-59303Y-324854D01*
X-56287Y-325769D01*
X-53150Y-326077D01*
X-50013Y-325769D01*
X-46997Y-324854D01*
X-44218Y-323368D01*
X-41782Y-321368D01*
X-39782Y-318932D01*
X-38296Y-316153D01*
X-37381Y-313137D01*
X-37073Y-310000D01*
Y-303000D01*
X-37381Y-299863D01*
X-38296Y-296847D01*
X-39782Y-294068D01*
X-41782Y-291632D01*
X-44218Y-289632D01*
X-46997Y-288146D01*
X-50013Y-287232D01*
X-53150Y-286923D01*
D02*
G37*
G36*
X-92750D02*
X-95886Y-287232D01*
X-98903Y-288146D01*
X-101682Y-289632D01*
X-104118Y-291632D01*
X-106118Y-294068D01*
X-107604Y-296847D01*
X-108518Y-299863D01*
X-108827Y-303000D01*
Y-310000D01*
X-108518Y-313137D01*
X-107604Y-316153D01*
X-106118Y-318932D01*
X-104118Y-321368D01*
X-101682Y-323368D01*
X-98903Y-324854D01*
X-95886Y-325769D01*
X-92750Y-326077D01*
X-89614Y-325769D01*
X-86597Y-324854D01*
X-83818Y-323368D01*
X-81382Y-321368D01*
X-79382Y-318932D01*
X-77896Y-316153D01*
X-76982Y-313137D01*
X-76673Y-310000D01*
Y-303000D01*
X-76982Y-299863D01*
X-77896Y-296847D01*
X-79382Y-294068D01*
X-81382Y-291632D01*
X-83818Y-289632D01*
X-86597Y-288146D01*
X-89614Y-287232D01*
X-92750Y-286923D01*
D02*
G37*
G36*
X415848Y-94300D02*
X412952D01*
X410154Y-95050D01*
X407646Y-96498D01*
X405598Y-98546D01*
X404150Y-101054D01*
X403400Y-103852D01*
Y-106748D01*
X404150Y-109546D01*
X404929Y-110895D01*
X404195Y-112165D01*
X39000D01*
X38220Y-112320D01*
X37558Y-112762D01*
X37116Y-113424D01*
X36961Y-114204D01*
Y-304000D01*
X37116Y-304780D01*
X37558Y-305442D01*
X38220Y-305884D01*
X39000Y-306039D01*
X106503D01*
X106603Y-306019D01*
X106704Y-306029D01*
X106990Y-305942D01*
X107284Y-305884D01*
X107368Y-305828D01*
X107465Y-305798D01*
X107697Y-305608D01*
X107945Y-305442D01*
X108002Y-305357D01*
X108080Y-305293D01*
X108200Y-305069D01*
X108390Y-304779D01*
X109537Y-304344D01*
X111983Y-305000D01*
X114616D01*
X117064Y-304344D01*
X118210Y-304779D01*
X118400Y-305069D01*
X118520Y-305293D01*
X118598Y-305357D01*
X118655Y-305442D01*
X118904Y-305608D01*
X119135Y-305798D01*
X119232Y-305828D01*
X119316Y-305884D01*
X119610Y-305942D01*
X119896Y-306029D01*
X119997Y-306019D01*
X120097Y-306039D01*
X131903D01*
X132003Y-306019D01*
X132104Y-306029D01*
X132390Y-305942D01*
X132684Y-305884D01*
X132768Y-305828D01*
X132865Y-305798D01*
X133097Y-305608D01*
X133345Y-305442D01*
X133402Y-305357D01*
X133480Y-305293D01*
X133600Y-305069D01*
X133790Y-304779D01*
X134937Y-304344D01*
X137383Y-305000D01*
X140016D01*
X142464Y-304344D01*
X143610Y-304779D01*
X143800Y-305069D01*
X143920Y-305293D01*
X143998Y-305357D01*
X144055Y-305442D01*
X144304Y-305608D01*
X144535Y-305798D01*
X144632Y-305828D01*
X144716Y-305884D01*
X145010Y-305942D01*
X145296Y-306029D01*
X145397Y-306019D01*
X145497Y-306039D01*
X157303D01*
X157403Y-306019D01*
X157504Y-306029D01*
X157790Y-305942D01*
X158084Y-305884D01*
X158168Y-305828D01*
X158265Y-305798D01*
X158497Y-305608D01*
X158745Y-305442D01*
X158802Y-305357D01*
X158880Y-305293D01*
X159000Y-305069D01*
X159190Y-304779D01*
X160336Y-304344D01*
X162784Y-305000D01*
X165417D01*
X167864Y-304344D01*
X169010Y-304779D01*
X169200Y-305069D01*
X169320Y-305293D01*
X169398Y-305357D01*
X169455Y-305442D01*
X169704Y-305608D01*
X169935Y-305798D01*
X170032Y-305828D01*
X170116Y-305884D01*
X170410Y-305942D01*
X170696Y-306029D01*
X170797Y-306019D01*
X170897Y-306039D01*
X182703D01*
X182803Y-306019D01*
X182904Y-306029D01*
X183190Y-305942D01*
X183484Y-305884D01*
X183568Y-305828D01*
X183665Y-305798D01*
X183897Y-305608D01*
X184145Y-305442D01*
X184202Y-305357D01*
X184280Y-305293D01*
X184400Y-305069D01*
X184590Y-304779D01*
X185737Y-304344D01*
X188183Y-305000D01*
X190816D01*
X193263Y-304344D01*
X194410Y-304779D01*
X194600Y-305069D01*
X194720Y-305293D01*
X194798Y-305357D01*
X194855Y-305442D01*
X195103Y-305608D01*
X195335Y-305798D01*
X195432Y-305828D01*
X195516Y-305884D01*
X195810Y-305942D01*
X196096Y-306029D01*
X196197Y-306019D01*
X196297Y-306039D01*
X204900D01*
X205680Y-305884D01*
X206342Y-305442D01*
X206637Y-305000D01*
X223163D01*
X223458Y-305442D01*
X224120Y-305884D01*
X224900Y-306039D01*
X422319D01*
X422334Y-306036D01*
X422450Y-306029D01*
X422479Y-306033D01*
X423370Y-306251D01*
X423855Y-306907D01*
X424978Y-310364D01*
X426908Y-314151D01*
X429406Y-317589D01*
X432411Y-320594D01*
X435849Y-323092D01*
X439636Y-325022D01*
X443677Y-326335D01*
X447875Y-327000D01*
X452125D01*
X456323Y-326335D01*
X460364Y-325022D01*
X464151Y-323092D01*
X467589Y-320594D01*
X470594Y-317589D01*
X473092Y-314151D01*
X475022Y-310364D01*
X476335Y-306322D01*
X477000Y-302125D01*
Y-297875D01*
X476335Y-293678D01*
X475022Y-289636D01*
X474728Y-289058D01*
X474937Y-288396D01*
X475280Y-287775D01*
X475480Y-287642D01*
X475699Y-287541D01*
X475808Y-287423D01*
X475942Y-287333D01*
X476076Y-287133D01*
X476239Y-286957D01*
X476295Y-286805D01*
X476384Y-286672D01*
X476431Y-286436D01*
X476514Y-286210D01*
X476508Y-286049D01*
X476539Y-285891D01*
Y-114204D01*
X476384Y-113424D01*
X475942Y-112762D01*
X475280Y-112320D01*
X474500Y-112165D01*
X424605D01*
X423872Y-110895D01*
X424650Y-109546D01*
X425400Y-106748D01*
Y-103852D01*
X424650Y-101054D01*
X423202Y-98546D01*
X421154Y-96498D01*
X418646Y-95050D01*
X415848Y-94300D01*
D02*
G37*
G36*
X-447875Y-273000D02*
X-452125D01*
X-456323Y-273665D01*
X-460364Y-274978D01*
X-464151Y-276908D01*
X-467589Y-279406D01*
X-470594Y-282411D01*
X-473092Y-285849D01*
X-475022Y-289636D01*
X-476335Y-293678D01*
X-477000Y-297875D01*
Y-302125D01*
X-476335Y-306322D01*
X-475022Y-310364D01*
X-473092Y-314151D01*
X-470594Y-317589D01*
X-467589Y-320594D01*
X-464151Y-323092D01*
X-460364Y-325022D01*
X-456323Y-326335D01*
X-452125Y-327000D01*
X-447875D01*
X-443677Y-326335D01*
X-439636Y-325022D01*
X-435849Y-323092D01*
X-432411Y-320594D01*
X-429406Y-317589D01*
X-426908Y-314151D01*
X-424978Y-310364D01*
X-423665Y-306322D01*
X-423000Y-302125D01*
Y-297875D01*
X-423665Y-293678D01*
X-424978Y-289636D01*
X-426908Y-285849D01*
X-429406Y-282411D01*
X-432411Y-279406D01*
X-435849Y-276908D01*
X-439636Y-274978D01*
X-443677Y-273665D01*
X-447875Y-273000D01*
D02*
G37*
G36*
X374016Y-309900D02*
X371384D01*
X368840Y-310581D01*
X366560Y-311898D01*
X364698Y-313760D01*
X363382Y-316040D01*
X362700Y-318584D01*
Y-321217D01*
X363382Y-323760D01*
X364698Y-326040D01*
X366560Y-327902D01*
X368840Y-329218D01*
X371384Y-329900D01*
X374016D01*
X376560Y-329218D01*
X378840Y-327902D01*
X380702Y-326040D01*
X382019Y-323760D01*
X382700Y-321217D01*
Y-318584D01*
X382019Y-316040D01*
X380702Y-313760D01*
X378840Y-311898D01*
X376560Y-310581D01*
X374016Y-309900D01*
D02*
G37*
G36*
X348616D02*
X345984D01*
X343440Y-310581D01*
X341160Y-311898D01*
X339298Y-313760D01*
X337981Y-316040D01*
X337300Y-318584D01*
Y-321217D01*
X337981Y-323760D01*
X339298Y-326040D01*
X341160Y-327902D01*
X343440Y-329218D01*
X345984Y-329900D01*
X348616D01*
X351160Y-329218D01*
X353440Y-327902D01*
X355302Y-326040D01*
X356618Y-323760D01*
X357300Y-321217D01*
Y-318584D01*
X356618Y-316040D01*
X355302Y-313760D01*
X353440Y-311898D01*
X351160Y-310581D01*
X348616Y-309900D01*
D02*
G37*
G36*
X323217D02*
X320583D01*
X318040Y-310581D01*
X315760Y-311898D01*
X313898Y-313760D01*
X312582Y-316040D01*
X311900Y-318584D01*
Y-321217D01*
X312582Y-323760D01*
X313898Y-326040D01*
X315760Y-327902D01*
X318040Y-329218D01*
X320583Y-329900D01*
X323217D01*
X325760Y-329218D01*
X328040Y-327902D01*
X329902Y-326040D01*
X331218Y-323760D01*
X331900Y-321217D01*
Y-318584D01*
X331218Y-316040D01*
X329902Y-313760D01*
X328040Y-311898D01*
X325760Y-310581D01*
X323217Y-309900D01*
D02*
G37*
G36*
X297817D02*
X295184D01*
X292640Y-310581D01*
X290360Y-311898D01*
X288498Y-313760D01*
X287181Y-316040D01*
X286500Y-318584D01*
Y-321217D01*
X287181Y-323760D01*
X288498Y-326040D01*
X290360Y-327902D01*
X292640Y-329218D01*
X295184Y-329900D01*
X297817D01*
X300360Y-329218D01*
X302640Y-327902D01*
X304502Y-326040D01*
X305819Y-323760D01*
X306500Y-321217D01*
Y-318584D01*
X305819Y-316040D01*
X304502Y-313760D01*
X302640Y-311898D01*
X300360Y-310581D01*
X297817Y-309900D01*
D02*
G37*
G36*
X272416D02*
X269783D01*
X267240Y-310581D01*
X264960Y-311898D01*
X263098Y-313760D01*
X261782Y-316040D01*
X261100Y-318584D01*
Y-321217D01*
X261782Y-323760D01*
X263098Y-326040D01*
X264960Y-327902D01*
X267240Y-329218D01*
X269783Y-329900D01*
X272416D01*
X274960Y-329218D01*
X277240Y-327902D01*
X279102Y-326040D01*
X280418Y-323760D01*
X281100Y-321217D01*
Y-318584D01*
X280418Y-316040D01*
X279102Y-313760D01*
X277240Y-311898D01*
X274960Y-310581D01*
X272416Y-309900D01*
D02*
G37*
G36*
X216217Y-310400D02*
X213584D01*
X211040Y-311082D01*
X208760Y-312398D01*
X206898Y-314260D01*
X205581Y-316540D01*
X204900Y-319083D01*
Y-321716D01*
X205581Y-324260D01*
X206898Y-326540D01*
X208760Y-328402D01*
X211040Y-329719D01*
X213584Y-330400D01*
X216217D01*
X218760Y-329719D01*
X221040Y-328402D01*
X222902Y-326540D01*
X224219Y-324260D01*
X224900Y-321716D01*
Y-319083D01*
X224219Y-316540D01*
X222902Y-314260D01*
X221040Y-312398D01*
X218760Y-311082D01*
X216217Y-310400D01*
D02*
G37*
G36*
X190816D02*
X188183D01*
X185640Y-311082D01*
X183360Y-312398D01*
X181498Y-314260D01*
X180182Y-316540D01*
X179500Y-319083D01*
Y-321716D01*
X180182Y-324260D01*
X181498Y-326540D01*
X183360Y-328402D01*
X185640Y-329719D01*
X188183Y-330400D01*
X190816D01*
X193360Y-329719D01*
X195640Y-328402D01*
X197502Y-326540D01*
X198818Y-324260D01*
X199500Y-321716D01*
Y-319083D01*
X198818Y-316540D01*
X197502Y-314260D01*
X195640Y-312398D01*
X193360Y-311082D01*
X190816Y-310400D01*
D02*
G37*
G36*
X165417D02*
X162784D01*
X160240Y-311082D01*
X157960Y-312398D01*
X156098Y-314260D01*
X154782Y-316540D01*
X154100Y-319083D01*
Y-321716D01*
X154782Y-324260D01*
X156098Y-326540D01*
X157960Y-328402D01*
X160240Y-329719D01*
X162784Y-330400D01*
X165417D01*
X167960Y-329719D01*
X170240Y-328402D01*
X172102Y-326540D01*
X173419Y-324260D01*
X174100Y-321716D01*
Y-319083D01*
X173419Y-316540D01*
X172102Y-314260D01*
X170240Y-312398D01*
X167960Y-311082D01*
X165417Y-310400D01*
D02*
G37*
G36*
X140016D02*
X137383D01*
X134840Y-311082D01*
X132560Y-312398D01*
X130698Y-314260D01*
X129382Y-316540D01*
X128700Y-319083D01*
Y-321716D01*
X129382Y-324260D01*
X130698Y-326540D01*
X132560Y-328402D01*
X134840Y-329719D01*
X137383Y-330400D01*
X140016D01*
X142560Y-329719D01*
X144840Y-328402D01*
X146702Y-326540D01*
X148019Y-324260D01*
X148700Y-321716D01*
Y-319083D01*
X148019Y-316540D01*
X146702Y-314260D01*
X144840Y-312398D01*
X142560Y-311082D01*
X140016Y-310400D01*
D02*
G37*
G36*
X114616D02*
X111983D01*
X109440Y-311082D01*
X107160Y-312398D01*
X105298Y-314260D01*
X103982Y-316540D01*
X103300Y-319083D01*
Y-321716D01*
X103982Y-324260D01*
X105298Y-326540D01*
X107160Y-328402D01*
X109440Y-329719D01*
X111983Y-330400D01*
X114616D01*
X117160Y-329719D01*
X119440Y-328402D01*
X121302Y-326540D01*
X122619Y-324260D01*
X123300Y-321716D01*
Y-319083D01*
X122619Y-316540D01*
X121302Y-314260D01*
X119440Y-312398D01*
X117160Y-311082D01*
X114616Y-310400D01*
D02*
G37*
G36*
X-404000Y-143500D02*
X-443000D01*
Y-175500D01*
X-404000D01*
Y-163482D01*
X-364899D01*
X-350981Y-177399D01*
Y-312252D01*
X-353140Y-313498D01*
X-355002Y-315360D01*
X-356319Y-317640D01*
X-357000Y-320183D01*
Y-322817D01*
X-356319Y-325360D01*
X-355002Y-327640D01*
X-353140Y-329502D01*
X-350860Y-330818D01*
X-348316Y-331500D01*
X-345683D01*
X-343140Y-330818D01*
X-340860Y-329502D01*
X-338998Y-327640D01*
X-337682Y-325360D01*
X-337000Y-322817D01*
Y-320183D01*
X-337682Y-317640D01*
X-338998Y-315360D01*
X-340860Y-313498D01*
X-343018Y-312252D01*
Y-175750D01*
X-343321Y-174226D01*
X-344185Y-172935D01*
X-360435Y-156685D01*
X-361726Y-155822D01*
X-363250Y-155519D01*
X-404000D01*
Y-143500D01*
D02*
G37*
%LPD*%
G36*
X420250Y210500D02*
Y149000D01*
X342000Y70750D01*
X-138250D01*
X-138750Y70250D01*
X-197750Y129250D01*
Y174750D01*
X-132000D01*
X-131500Y175250D01*
X-83250Y127000D01*
X255750D01*
X352500Y222250D01*
X420250D01*
Y210500D01*
D02*
G37*
%LPC*%
G36*
X379995Y153750D02*
X378005D01*
X376168Y152989D01*
X374937Y151758D01*
X374484Y151597D01*
X373416Y151655D01*
X372332Y152739D01*
X370495Y153500D01*
X368505D01*
X366668Y152739D01*
X365261Y151332D01*
X365260Y151329D01*
X363990D01*
X363989Y151332D01*
X362582Y152739D01*
X360745Y153500D01*
X358755D01*
X356918Y152739D01*
X355937Y151758D01*
X355125Y151469D01*
X354313Y151758D01*
X353332Y152739D01*
X351494Y153500D01*
X349505D01*
X347668Y152739D01*
X346955Y152026D01*
X346125Y151430D01*
X345295Y152026D01*
X344582Y152739D01*
X342745Y153500D01*
X340755D01*
X338918Y152739D01*
X337687Y151508D01*
X337234Y151347D01*
X336166Y151405D01*
X335082Y152489D01*
X333245Y153250D01*
X331255D01*
X329418Y152489D01*
X328011Y151082D01*
X328010Y151079D01*
X326740D01*
X326739Y151082D01*
X325332Y152489D01*
X323495Y153250D01*
X321505D01*
X319668Y152489D01*
X318687Y151508D01*
X317875Y151220D01*
X317063Y151508D01*
X316082Y152489D01*
X314244Y153250D01*
X312255D01*
X310418Y152489D01*
X309011Y151082D01*
X308250Y149245D01*
Y147255D01*
X309011Y145418D01*
X309724Y144705D01*
X310320Y143875D01*
X309724Y143045D01*
X309011Y142332D01*
X308250Y140495D01*
Y138505D01*
X309011Y136668D01*
X310099Y135580D01*
X310376Y135049D01*
X310169Y133990D01*
X309261Y133082D01*
X308500Y131244D01*
Y129255D01*
X309261Y127418D01*
X309974Y126705D01*
X310570Y125875D01*
X309974Y125045D01*
X309261Y124332D01*
X308500Y122494D01*
Y120505D01*
X309261Y118668D01*
X310668Y117261D01*
X312505Y116500D01*
X314494D01*
X316332Y117261D01*
X317313Y118242D01*
X318125Y118530D01*
X318937Y118242D01*
X319918Y117261D01*
X321755Y116500D01*
X323745D01*
X325582Y117261D01*
X326989Y118668D01*
X326990Y118671D01*
X328260D01*
X328261Y118668D01*
X329668Y117261D01*
X331505Y116500D01*
X333495D01*
X335332Y117261D01*
X336563Y118492D01*
X337016Y118653D01*
X338083Y118595D01*
X339168Y117511D01*
X341005Y116750D01*
X342995D01*
X344832Y117511D01*
X345545Y118224D01*
X346375Y118820D01*
X347205Y118224D01*
X347918Y117511D01*
X349755Y116750D01*
X351745D01*
X353582Y117511D01*
X354563Y118492D01*
X355375Y118780D01*
X356187Y118492D01*
X357168Y117511D01*
X359006Y116750D01*
X360995D01*
X362832Y117511D01*
X364239Y118918D01*
X364240Y118921D01*
X365510D01*
X365511Y118918D01*
X366918Y117511D01*
X368755Y116750D01*
X370745D01*
X372582Y117511D01*
X373813Y118742D01*
X374266Y118903D01*
X375334Y118845D01*
X376418Y117761D01*
X378256Y117000D01*
X380245D01*
X382082Y117761D01*
X383489Y119168D01*
X384250Y121005D01*
Y122994D01*
X383489Y124832D01*
X382776Y125545D01*
X382180Y126375D01*
X382776Y127205D01*
X383489Y127918D01*
X384250Y129755D01*
Y131744D01*
X383489Y133582D01*
X382401Y134670D01*
X382124Y135202D01*
X382331Y136260D01*
X383239Y137168D01*
X384000Y139005D01*
Y140995D01*
X383239Y142832D01*
X382526Y143545D01*
X381930Y144375D01*
X382526Y145205D01*
X383239Y145918D01*
X384000Y147755D01*
Y149745D01*
X383239Y151582D01*
X381832Y152989D01*
X379995Y153750D01*
D02*
G37*
G36*
X-15255Y110750D02*
X-17244D01*
X-19082Y109989D01*
X-20489Y108582D01*
X-20490Y108579D01*
X-21760D01*
X-21761Y108582D01*
X-23168Y109989D01*
X-25005Y110750D01*
X-26995D01*
X-28832Y109989D01*
X-30239Y108582D01*
X-31000Y106744D01*
Y104755D01*
X-30239Y102918D01*
X-29526Y102205D01*
X-28930Y101375D01*
X-29526Y100545D01*
X-30239Y99832D01*
X-31000Y97994D01*
Y96005D01*
X-30239Y94168D01*
X-28832Y92761D01*
X-26995Y92000D01*
X-25005D01*
X-23168Y92761D01*
X-21761Y94168D01*
X-21760Y94171D01*
X-20490D01*
X-20489Y94168D01*
X-19082Y92761D01*
X-17244Y92000D01*
X-15255D01*
X-13418Y92761D01*
X-12011Y94168D01*
X-11250Y96005D01*
Y97994D01*
X-12011Y99832D01*
X-12724Y100545D01*
X-13320Y101375D01*
X-12724Y102205D01*
X-12011Y102918D01*
X-11250Y104755D01*
Y106744D01*
X-12011Y108582D01*
X-13418Y109989D01*
X-15255Y110750D01*
D02*
G37*
%LPD*%
G36*
X-3250Y3000D02*
X3000Y-3250D01*
X22750D01*
Y-13500D01*
X-15750Y-13500D01*
X-21750Y-7500D01*
Y16500D01*
X-3250D01*
Y3000D01*
D02*
G37*
G36*
X23000Y-45000D02*
X-46000Y-114000D01*
X-117750D01*
Y-88750D01*
X-98250Y-69250D01*
X-60500D01*
X-17000Y-29500D01*
X-17000D01*
X-15937Y-29000D01*
X23000D01*
Y-45000D01*
D02*
G37*
G36*
X474500Y-285891D02*
X473265Y-286188D01*
X473092Y-285849D01*
X470594Y-282411D01*
X467589Y-279406D01*
X464151Y-276908D01*
X460364Y-274978D01*
X456323Y-273665D01*
X452125Y-273000D01*
X447875D01*
X443677Y-273665D01*
X439636Y-274978D01*
X435849Y-276908D01*
X432411Y-279406D01*
X429406Y-282411D01*
X426908Y-285849D01*
X424978Y-289636D01*
X423665Y-293678D01*
X423000Y-297875D01*
Y-302125D01*
X423144Y-303034D01*
X422319Y-304000D01*
X224900D01*
Y-285000D01*
X204900D01*
Y-304000D01*
X196297D01*
X195912Y-302730D01*
X197502Y-301140D01*
X198818Y-298860D01*
X199500Y-296317D01*
Y-293683D01*
X198818Y-291140D01*
X197502Y-288860D01*
X195640Y-286998D01*
X193360Y-285681D01*
X190816Y-285000D01*
X188183D01*
X185640Y-285681D01*
X183360Y-286998D01*
X181498Y-288860D01*
X180182Y-291140D01*
X179500Y-293683D01*
Y-296317D01*
X180182Y-298860D01*
X181498Y-301140D01*
X183088Y-302730D01*
X182703Y-304000D01*
X170897D01*
X170512Y-302730D01*
X172102Y-301140D01*
X173419Y-298860D01*
X174100Y-296317D01*
Y-293683D01*
X173419Y-291140D01*
X172102Y-288860D01*
X170240Y-286998D01*
X167960Y-285681D01*
X165417Y-285000D01*
X162784D01*
X160240Y-285681D01*
X157960Y-286998D01*
X156098Y-288860D01*
X154782Y-291140D01*
X154100Y-293683D01*
Y-296317D01*
X154782Y-298860D01*
X156098Y-301140D01*
X157688Y-302730D01*
X157303Y-304000D01*
X145497D01*
X145112Y-302730D01*
X146702Y-301140D01*
X148019Y-298860D01*
X148700Y-296317D01*
Y-293683D01*
X148019Y-291140D01*
X146702Y-288860D01*
X144840Y-286998D01*
X142560Y-285681D01*
X140016Y-285000D01*
X137383D01*
X134840Y-285681D01*
X132560Y-286998D01*
X130698Y-288860D01*
X129382Y-291140D01*
X128700Y-293683D01*
Y-296317D01*
X129382Y-298860D01*
X130698Y-301140D01*
X132288Y-302730D01*
X131903Y-304000D01*
X120097D01*
X119712Y-302730D01*
X121302Y-301140D01*
X122619Y-298860D01*
X123300Y-296317D01*
Y-293683D01*
X122619Y-291140D01*
X121302Y-288860D01*
X119440Y-286998D01*
X117160Y-285681D01*
X114616Y-285000D01*
X111983D01*
X109440Y-285681D01*
X107160Y-286998D01*
X105298Y-288860D01*
X103982Y-291140D01*
X103300Y-293683D01*
Y-296317D01*
X103982Y-298860D01*
X105298Y-301140D01*
X106888Y-302730D01*
X106503Y-304000D01*
X39000D01*
Y-114204D01*
X407822D01*
X410154Y-115550D01*
X412952Y-116300D01*
X415848D01*
X418646Y-115550D01*
X420978Y-114204D01*
X474500D01*
Y-285891D01*
D02*
G37*
%LPC*%
G36*
X415848Y-119300D02*
X412952D01*
X410154Y-120050D01*
X407646Y-121498D01*
X405598Y-123546D01*
X404150Y-126054D01*
X403400Y-128852D01*
Y-131748D01*
X404150Y-134546D01*
X405598Y-137054D01*
X407646Y-139102D01*
X408621Y-139665D01*
Y-140935D01*
X407646Y-141498D01*
X405598Y-143546D01*
X404150Y-146054D01*
X403400Y-148852D01*
Y-151748D01*
X404150Y-154546D01*
X405598Y-157054D01*
X407646Y-159102D01*
X410154Y-160550D01*
X412952Y-161300D01*
X415848D01*
X418646Y-160550D01*
X421154Y-159102D01*
X423202Y-157054D01*
X424650Y-154546D01*
X425400Y-151748D01*
Y-148852D01*
X424650Y-146054D01*
X423202Y-143546D01*
X421154Y-141498D01*
X420179Y-140935D01*
Y-139665D01*
X421154Y-139102D01*
X423202Y-137054D01*
X424650Y-134546D01*
X425400Y-131748D01*
Y-128852D01*
X424650Y-126054D01*
X423202Y-123546D01*
X421154Y-121498D01*
X418646Y-120050D01*
X415848Y-119300D01*
D02*
G37*
G36*
X449000Y-188918D02*
X434000D01*
X430667Y-189246D01*
X427463Y-190218D01*
X424510Y-191797D01*
X421921Y-193921D01*
X419797Y-196510D01*
X418218Y-199463D01*
X417246Y-202667D01*
X416918Y-206000D01*
X417246Y-209333D01*
X418218Y-212537D01*
X419797Y-215490D01*
X421921Y-218079D01*
X424510Y-220203D01*
X427463Y-221782D01*
X430667Y-222754D01*
X434000Y-223082D01*
X449000D01*
X452333Y-222754D01*
X455537Y-221782D01*
X458490Y-220203D01*
X461079Y-218079D01*
X463203Y-215490D01*
X464782Y-212537D01*
X465754Y-209333D01*
X466082Y-206000D01*
X465754Y-202667D01*
X464782Y-199463D01*
X463203Y-196510D01*
X461079Y-193921D01*
X458490Y-191797D01*
X455537Y-190218D01*
X452333Y-189246D01*
X449000Y-188918D01*
D02*
G37*
%LPD*%
D29*
X-34750Y251000D02*
Y332814D01*
X-30064Y337500D01*
X103500D02*
X180750Y260250D01*
X-30064Y337500D02*
X103500D01*
X-37500Y248250D02*
X-34750Y251000D01*
D30*
X-385750Y-218250D02*
X-372400Y-231600D01*
X-449250Y-218250D02*
X-385750D01*
X-447000Y-31000D02*
X-423500D01*
X-461250Y-45250D02*
X-447000Y-31000D01*
X-461250Y-206250D02*
X-449250Y-218250D01*
X-461250Y-206250D02*
Y-45250D01*
X-372400Y-321500D02*
Y-231600D01*
X-480500Y-216250D02*
Y73500D01*
Y-216250D02*
X-398163Y-298587D01*
Y-321137D02*
Y-298587D01*
X-480500Y73500D02*
X-454500Y99500D01*
X-398163Y-321137D02*
X-397800Y-321500D01*
X-423500Y-159500D02*
X-363250D01*
X-347000Y-175750D01*
Y-321500D02*
Y-175750D01*
X-454500Y99500D02*
X-425500D01*
X-423500Y97500D01*
X-143250Y-271000D02*
X-132350Y-281900D01*
Y-306500D02*
Y-281900D01*
X-294500Y-271000D02*
X-143250D01*
X-321600Y-298100D02*
X-294500Y-271000D01*
X-321600Y-321500D02*
Y-298100D01*
X-296200Y-321500D02*
Y-309950D01*
X-292500Y-306250D02*
X-257850D01*
X-296200Y-309950D02*
X-292500Y-306250D01*
X-321600Y-321500D02*
X-321250Y-321850D01*
D32*
X415500Y46250D02*
D03*
Y96250D02*
D03*
D33*
X465500Y16250D02*
D03*
Y126250D02*
D03*
D34*
X44750Y-3750D02*
D03*
Y-29250D02*
D03*
X37000Y-16500D02*
D03*
X52500D02*
D03*
D35*
X-423500Y-238700D02*
D03*
Y-199100D02*
D03*
Y18300D02*
D03*
Y57900D02*
D03*
Y-110200D02*
D03*
Y-70600D02*
D03*
D36*
Y-159500D02*
D03*
Y97500D02*
D03*
Y-31000D02*
D03*
D37*
X-446750Y134500D02*
D03*
X-446000Y204750D02*
D03*
X434750Y218500D02*
D03*
D38*
X-471750Y161500D02*
D03*
X-421750D02*
D03*
X-471000Y231750D02*
D03*
X-421000D02*
D03*
X459750Y191500D02*
D03*
X409750D02*
D03*
D39*
X113300Y-320400D02*
D03*
Y-295000D02*
D03*
X164100Y-320400D02*
D03*
Y-295000D02*
D03*
X214900Y-320400D02*
D03*
X189500D02*
D03*
Y-295000D02*
D03*
X138700D02*
D03*
Y-320400D02*
D03*
X296500Y-319900D02*
D03*
Y-294500D02*
D03*
X347300D02*
D03*
Y-319900D02*
D03*
X372700D02*
D03*
X321900Y-294500D02*
D03*
Y-319900D02*
D03*
X271100Y-294500D02*
D03*
Y-319900D02*
D03*
X-397800Y-321500D02*
D03*
X-347000Y-321500D02*
D03*
X-321600D02*
D03*
X-372400D02*
D03*
D40*
X214900Y-295000D02*
D03*
X372700Y-294500D02*
D03*
X-296200Y-321500D02*
D03*
D41*
X414400Y-130300D02*
D03*
X414400Y-105300D02*
D03*
X414400Y-150300D02*
D03*
D42*
Y-175300D02*
D03*
D43*
X441500Y-206000D02*
D03*
Y-74600D02*
D03*
D44*
X-37500Y248250D02*
D03*
D45*
X34500D02*
D03*
D46*
X-69000Y308250D02*
D03*
X66000D02*
D03*
D47*
X-450000Y300000D02*
D03*
X450000D02*
D03*
X-450000Y-300000D02*
D03*
X450000D02*
D03*
D48*
X-218250Y-306250D02*
D03*
X-178650D02*
D03*
X-92750Y-306500D02*
D03*
X-53150D02*
D03*
D49*
X-257850Y-306250D02*
D03*
X-132350Y-306500D02*
D03*
D50*
X-288500Y-108750D02*
D03*
X-38250Y-243250D02*
D03*
X-29500D02*
D03*
X-47500Y-243500D02*
D03*
X-56250D02*
D03*
X-38250Y-234000D02*
D03*
X-29500D02*
D03*
X-47500Y-234250D02*
D03*
X-56250D02*
D03*
X-38250Y-224250D02*
D03*
X-29500D02*
D03*
X-47500Y-224500D02*
D03*
X-56250D02*
D03*
X-38500Y-214750D02*
D03*
X-29750D02*
D03*
X-47750Y-215000D02*
D03*
X-56500D02*
D03*
X-56250Y-252250D02*
D03*
X-47500D02*
D03*
X-29500Y-252000D02*
D03*
X-38250D02*
D03*
X-56000Y-261750D02*
D03*
X-47250D02*
D03*
X-29250Y-261500D02*
D03*
X-38000D02*
D03*
X-56000Y-271500D02*
D03*
X-47250D02*
D03*
X-29250Y-271250D02*
D03*
X-38000D02*
D03*
X-56000Y-280750D02*
D03*
X-47250D02*
D03*
X-29250Y-280500D02*
D03*
X-38000D02*
D03*
X-325500Y-29250D02*
D03*
Y-38000D02*
D03*
X-325750Y-20000D02*
D03*
Y-11250D02*
D03*
X-316250Y-29250D02*
D03*
Y-38000D02*
D03*
X-316500Y-20000D02*
D03*
Y-11250D02*
D03*
X-306500Y-29250D02*
D03*
Y-38000D02*
D03*
X-306750Y-20000D02*
D03*
Y-11250D02*
D03*
X-297000Y-29000D02*
D03*
Y-37750D02*
D03*
X-297250Y-19750D02*
D03*
Y-11000D02*
D03*
X-334500Y-11250D02*
D03*
Y-20000D02*
D03*
X-334250Y-38000D02*
D03*
Y-29250D02*
D03*
X-344000Y-11500D02*
D03*
Y-20250D02*
D03*
X-343750Y-38250D02*
D03*
Y-29500D02*
D03*
X-353750Y-11500D02*
D03*
Y-20250D02*
D03*
X-353500Y-38250D02*
D03*
Y-29500D02*
D03*
X-363000Y-11500D02*
D03*
Y-20250D02*
D03*
X-362750Y-38250D02*
D03*
Y-29500D02*
D03*
X43000Y217250D02*
D03*
X16250Y217000D02*
D03*
X25000D02*
D03*
X34250Y217250D02*
D03*
X16500Y207500D02*
D03*
X25250D02*
D03*
X43250Y207750D02*
D03*
X34500D02*
D03*
X16500Y197750D02*
D03*
X25250D02*
D03*
X43250Y198000D02*
D03*
X34500D02*
D03*
Y180000D02*
D03*
X43250D02*
D03*
X25250Y179750D02*
D03*
X43250Y188750D02*
D03*
X16500Y179750D02*
D03*
X34750Y170500D02*
D03*
X43500D02*
D03*
X25500Y170250D02*
D03*
X16750D02*
D03*
X16500Y188500D02*
D03*
X25250D02*
D03*
X34500Y188750D02*
D03*
X25500Y151250D02*
D03*
X34750Y151500D02*
D03*
X43500D02*
D03*
X16750Y151250D02*
D03*
X34750Y160750D02*
D03*
X43500D02*
D03*
X25500Y160500D02*
D03*
X16750D02*
D03*
X-26000Y105750D02*
D03*
Y97000D02*
D03*
X-16250Y105750D02*
D03*
Y97000D02*
D03*
X84750Y-78500D02*
D03*
X31750Y277250D02*
D03*
X40500D02*
D03*
X22500Y277000D02*
D03*
X13750D02*
D03*
X31750Y286500D02*
D03*
X40500D02*
D03*
X22500Y286250D02*
D03*
X13750D02*
D03*
X31750Y296250D02*
D03*
X40500D02*
D03*
X22500Y296000D02*
D03*
X13750D02*
D03*
X31500Y305750D02*
D03*
X40250D02*
D03*
X22250Y305500D02*
D03*
X13500D02*
D03*
Y323500D02*
D03*
X22250D02*
D03*
X40250Y323750D02*
D03*
X31500D02*
D03*
X13500Y314250D02*
D03*
X22250D02*
D03*
X40250Y314500D02*
D03*
X31500D02*
D03*
X-335500Y311750D02*
D03*
X-354750Y311500D02*
D03*
X-364000D02*
D03*
X-401250Y311250D02*
D03*
X-345000Y311500D02*
D03*
X-372750D02*
D03*
X-382250Y311250D02*
D03*
X-392000D02*
D03*
X-355000Y329500D02*
D03*
X-354750Y320250D02*
D03*
X-345000D02*
D03*
X-335500Y320500D02*
D03*
X-345250Y329500D02*
D03*
X-335750Y329750D02*
D03*
Y338500D02*
D03*
X-355000Y338250D02*
D03*
X-345250D02*
D03*
X-373000Y329500D02*
D03*
X-392250Y329250D02*
D03*
X-392000Y320000D02*
D03*
X-372750Y320250D02*
D03*
X-392250Y338000D02*
D03*
X-401500Y329250D02*
D03*
X-382500D02*
D03*
Y338000D02*
D03*
X-364250Y329500D02*
D03*
Y338250D02*
D03*
X-373000D02*
D03*
X-401500Y338000D02*
D03*
X-401250Y320000D02*
D03*
X-382250D02*
D03*
X-364000Y320250D02*
D03*
X360750Y18750D02*
D03*
X370500D02*
D03*
X360750Y27500D02*
D03*
X380000Y27750D02*
D03*
Y19000D02*
D03*
X370500Y27500D02*
D03*
X370750Y750D02*
D03*
X361000Y9500D02*
D03*
Y750D02*
D03*
X380250Y9750D02*
D03*
Y1000D02*
D03*
X370750Y9500D02*
D03*
X351750D02*
D03*
X343000Y750D02*
D03*
Y9500D02*
D03*
X342750Y18750D02*
D03*
Y27500D02*
D03*
X351750Y750D02*
D03*
X351500Y27500D02*
D03*
Y18750D02*
D03*
X333500Y500D02*
D03*
X314250Y18500D02*
D03*
X323500D02*
D03*
X333250Y27250D02*
D03*
X314500Y9250D02*
D03*
Y500D02*
D03*
X323750Y9250D02*
D03*
X323500Y27250D02*
D03*
X333250Y18500D02*
D03*
X323750Y500D02*
D03*
X333500Y9250D02*
D03*
X314250Y27250D02*
D03*
X311500Y295000D02*
D03*
Y286250D02*
D03*
X311250Y304250D02*
D03*
Y313000D02*
D03*
X320750Y295000D02*
D03*
Y286250D02*
D03*
X320500Y304250D02*
D03*
Y313000D02*
D03*
X330500Y295000D02*
D03*
Y286250D02*
D03*
X330250Y304250D02*
D03*
Y313000D02*
D03*
X340000Y295250D02*
D03*
Y286500D02*
D03*
X339750Y304500D02*
D03*
Y313250D02*
D03*
X377000Y313500D02*
D03*
Y304750D02*
D03*
X377250Y286750D02*
D03*
Y295500D02*
D03*
X367500Y313250D02*
D03*
Y304500D02*
D03*
X367750Y286500D02*
D03*
Y295250D02*
D03*
X357750Y313250D02*
D03*
Y304500D02*
D03*
X358000Y286500D02*
D03*
Y295250D02*
D03*
X348500Y313250D02*
D03*
Y304500D02*
D03*
X348750Y286500D02*
D03*
Y295250D02*
D03*
X313500Y130250D02*
D03*
Y121500D02*
D03*
X313250Y139500D02*
D03*
Y148250D02*
D03*
X322750Y130250D02*
D03*
Y121500D02*
D03*
X322500Y139500D02*
D03*
Y148250D02*
D03*
X332500Y130250D02*
D03*
Y121500D02*
D03*
X332250Y139500D02*
D03*
Y148250D02*
D03*
X342000Y130500D02*
D03*
Y121750D02*
D03*
X341750Y139750D02*
D03*
Y148500D02*
D03*
X379000Y148750D02*
D03*
Y140000D02*
D03*
X379250Y122000D02*
D03*
Y130750D02*
D03*
X369500Y148500D02*
D03*
Y139750D02*
D03*
X369750Y121750D02*
D03*
Y130500D02*
D03*
X359750Y148500D02*
D03*
Y139750D02*
D03*
X360000Y121750D02*
D03*
Y130500D02*
D03*
X350500Y148500D02*
D03*
Y139750D02*
D03*
X350750Y121750D02*
D03*
Y130500D02*
D03*
X315250Y-259000D02*
D03*
Y-267750D02*
D03*
X315000Y-249750D02*
D03*
Y-241000D02*
D03*
X324500Y-259000D02*
D03*
Y-267750D02*
D03*
X324250Y-249750D02*
D03*
Y-241000D02*
D03*
X334250Y-259000D02*
D03*
Y-267750D02*
D03*
X334000Y-249750D02*
D03*
Y-241000D02*
D03*
X343750Y-258750D02*
D03*
Y-267500D02*
D03*
X343500Y-249500D02*
D03*
Y-240750D02*
D03*
X306250Y-241000D02*
D03*
Y-249750D02*
D03*
X306500Y-267750D02*
D03*
Y-259000D02*
D03*
X296750Y-241250D02*
D03*
Y-250000D02*
D03*
X297000Y-268000D02*
D03*
Y-259250D02*
D03*
X287000Y-241250D02*
D03*
Y-250000D02*
D03*
X287250Y-268000D02*
D03*
Y-259250D02*
D03*
X277750Y-241250D02*
D03*
Y-250000D02*
D03*
X278000Y-268000D02*
D03*
Y-259250D02*
D03*
X37250Y13000D02*
D03*
X149000Y-10000D02*
D03*
X73000Y-33000D02*
D03*
X-88000Y-104000D02*
D03*
X-96750Y-104250D02*
D03*
X-106500D02*
D03*
X16750Y-33750D02*
D03*
X16194Y-23043D02*
D03*
X19296Y-6366D02*
D03*
X-8417Y13142D02*
D03*
X-17167Y13392D02*
D03*
X17000Y25500D02*
D03*
X-158500Y140000D02*
D03*
Y131250D02*
D03*
X-158750Y149250D02*
D03*
Y158000D02*
D03*
D51*
X180750Y260250D02*
D03*
%TF.MD5,633d056575c68daecf0f8a248927d8fc*%
M02*
