G04*
G04 #@! TF.GenerationSoftware,Altium Limited,Altium Designer,22.5.1 (42)*
G04*
G04 Layer_Color=16711935*
%FSLAX44Y44*%
%MOMM*%
G71*
G04*
G04 #@! TF.SameCoordinates,7C753EF8-EF55-4721-AF4D-FDC1614254BA*
G04*
G04*
G04 #@! TF.FilePolarity,Negative*
G04*
G01*
G75*
%ADD39R,1.6732X1.3632*%
%ADD40R,1.0532X1.0532*%
%ADD41R,1.0032X1.0032*%
%ADD42R,1.0532X1.0532*%
%ADD47R,1.0032X1.0032*%
%ADD54O,1.4032X2.6032*%
%ADD55R,3.9192X3.9192*%
%ADD56C,3.9192*%
%ADD57C,2.0032*%
%ADD58R,2.0032X2.0032*%
%ADD59O,3.2032X4.7032*%
%ADD60C,2.2032*%
%ADD61C,1.8032*%
%ADD62R,1.8032X1.8032*%
%ADD63R,2.2032X4.2032*%
%ADD64R,4.2032X2.2032*%
%ADD65R,2.0032X2.0032*%
%ADD66O,4.7032X3.2032*%
%ADD67R,1.8032X1.8032*%
%ADD68C,6.2032*%
G04:AMPARAMS|DCode=98|XSize=1.67mm|YSize=0.51mm|CornerRadius=0.1013mm|HoleSize=0mm|Usage=FLASHONLY|Rotation=90.000|XOffset=0mm|YOffset=0mm|HoleType=Round|Shape=RoundedRectangle|*
%AMROUNDEDRECTD98*
21,1,1.6700,0.3075,0,0,90.0*
21,1,1.4675,0.5100,0,0,90.0*
1,1,0.2025,0.1538,0.7338*
1,1,0.2025,0.1538,-0.7338*
1,1,0.2025,-0.1538,-0.7338*
1,1,0.2025,-0.1538,0.7338*
%
%ADD98ROUNDEDRECTD98*%
%ADD99R,3.6032X2.6832*%
%ADD100R,1.3632X1.6732*%
%ADD101R,3.2032X2.2032*%
%ADD102R,5.6032X6.4031*%
%ADD103R,1.2032X1.8032*%
%ADD104R,2.6832X3.6032*%
G04:AMPARAMS|DCode=105|XSize=1.67mm|YSize=0.51mm|CornerRadius=0.1013mm|HoleSize=0mm|Usage=FLASHONLY|Rotation=0.000|XOffset=0mm|YOffset=0mm|HoleType=Round|Shape=RoundedRectangle|*
%AMROUNDEDRECTD105*
21,1,1.6700,0.3075,0,0,0.0*
21,1,1.4675,0.5100,0,0,0.0*
1,1,0.2025,0.7338,-0.1538*
1,1,0.2025,-0.7338,-0.1538*
1,1,0.2025,-0.7338,0.1538*
1,1,0.2025,0.7338,0.1538*
%
%ADD105ROUNDEDRECTD105*%
D39*
X-312000Y172900D02*
D03*
Y155100D02*
D03*
D40*
X-276250Y199000D02*
D03*
X-291750D02*
D03*
X-276250Y171957D02*
D03*
X-291750D02*
D03*
X-291292Y155415D02*
D03*
X-275793D02*
D03*
D41*
X-210000Y-203250D02*
D03*
Y-187250D02*
D03*
X-193957D02*
D03*
Y-203250D02*
D03*
X-167500Y203000D02*
D03*
Y187000D02*
D03*
Y154965D02*
D03*
Y138965D02*
D03*
X263000Y-104000D02*
D03*
Y-120000D02*
D03*
X186000Y-103840D02*
D03*
Y-119840D02*
D03*
X105000Y-105000D02*
D03*
Y-121000D02*
D03*
X29000Y-103840D02*
D03*
Y-119840D02*
D03*
D42*
X-206000Y-328457D02*
D03*
Y-312957D02*
D03*
X-185000Y-312500D02*
D03*
Y-328000D02*
D03*
X-168000Y-343500D02*
D03*
Y-328000D02*
D03*
X246000Y-104250D02*
D03*
Y-119750D02*
D03*
X169000Y-104190D02*
D03*
Y-119690D02*
D03*
X88707Y-105250D02*
D03*
Y-120750D02*
D03*
X12000Y-104190D02*
D03*
Y-119690D02*
D03*
X484000Y-750D02*
D03*
Y14750D02*
D03*
X480000Y-17250D02*
D03*
Y-32750D02*
D03*
X478763Y96913D02*
D03*
Y81413D02*
D03*
Y116413D02*
D03*
Y131913D02*
D03*
X480762Y209913D02*
D03*
Y194413D02*
D03*
Y228413D02*
D03*
Y243913D02*
D03*
Y322913D02*
D03*
Y307413D02*
D03*
Y343413D02*
D03*
Y358913D02*
D03*
D47*
X-161815Y-202750D02*
D03*
X-177815D02*
D03*
X-168000Y171108D02*
D03*
X-152000D02*
D03*
X23000Y-257000D02*
D03*
X7000D02*
D03*
X259000Y-257000D02*
D03*
X243000D02*
D03*
X180000D02*
D03*
X164000D02*
D03*
X99000Y-258000D02*
D03*
X83000D02*
D03*
D54*
X67500Y450000D02*
D03*
X-67500D02*
D03*
D55*
X36000Y390000D02*
D03*
D56*
X-36000D02*
D03*
D57*
X-228500Y-393600D02*
D03*
X-203500Y-393600D02*
D03*
X-248500Y-393600D02*
D03*
X415900Y-313700D02*
D03*
X415900Y-288700D02*
D03*
X415900Y-333700D02*
D03*
X226050Y-393650D02*
D03*
X271050Y-393650D02*
D03*
X246050Y-393650D02*
D03*
D58*
X-273500Y-393600D02*
D03*
X201050Y-393650D02*
D03*
D59*
X-304200Y-420700D02*
D03*
X-172800D02*
D03*
X301750Y-420750D02*
D03*
X170350D02*
D03*
D60*
X-407500Y-285100D02*
D03*
Y-310500D02*
D03*
Y300000D02*
D03*
Y325400D02*
D03*
X419588Y-60127D02*
D03*
Y-34727D02*
D03*
Y-9327D02*
D03*
Y16073D02*
D03*
X416587Y130723D02*
D03*
Y105323D02*
D03*
Y79922D02*
D03*
Y54523D02*
D03*
X414588Y168443D02*
D03*
Y193843D02*
D03*
Y219243D02*
D03*
Y244643D02*
D03*
Y358563D02*
D03*
Y333163D02*
D03*
Y307763D02*
D03*
Y282363D02*
D03*
D61*
X337300Y-241300D02*
D03*
X362700D02*
D03*
X337300Y-190500D02*
D03*
X362700D02*
D03*
X337300Y-139700D02*
D03*
X362700D02*
D03*
X337300Y-88900D02*
D03*
X362700D02*
D03*
X337300Y-12700D02*
D03*
X362700D02*
D03*
X337300Y38100D02*
D03*
X362700D02*
D03*
X337300Y88900D02*
D03*
X362700D02*
D03*
X337300Y139700D02*
D03*
X362700D02*
D03*
X337300Y190500D02*
D03*
X362700D02*
D03*
X337300Y241300D02*
D03*
Y215900D02*
D03*
X362700D02*
D03*
Y165100D02*
D03*
X337300D02*
D03*
X362700Y114300D02*
D03*
X337300D02*
D03*
X362700Y63500D02*
D03*
X337300D02*
D03*
X362700Y12700D02*
D03*
X337300D02*
D03*
X362700Y-38100D02*
D03*
X337300D02*
D03*
X362700Y-63500D02*
D03*
X337300D02*
D03*
X362700Y-114300D02*
D03*
X337300D02*
D03*
X362700Y-165100D02*
D03*
X337300D02*
D03*
X362700Y-215900D02*
D03*
X337300D02*
D03*
X-362700D02*
D03*
X-337300D02*
D03*
X-362700Y-165100D02*
D03*
X-337300D02*
D03*
X-362700Y-114300D02*
D03*
X-337300D02*
D03*
X-362700Y-63500D02*
D03*
X-337300D02*
D03*
X-362700Y-38100D02*
D03*
X-337300D02*
D03*
X-362700Y12700D02*
D03*
X-337300D02*
D03*
X-362700Y63500D02*
D03*
X-337300D02*
D03*
X-362700Y114300D02*
D03*
X-337300D02*
D03*
X-362700Y165100D02*
D03*
X-337300D02*
D03*
Y215900D02*
D03*
X-362700D02*
D03*
Y241300D02*
D03*
X-337300Y190500D02*
D03*
X-362700D02*
D03*
X-337300Y139700D02*
D03*
X-362700D02*
D03*
X-337300Y88900D02*
D03*
X-362700D02*
D03*
X-337300Y38100D02*
D03*
X-362700D02*
D03*
X-337300Y-12700D02*
D03*
X-362700D02*
D03*
X-337300Y-88900D02*
D03*
X-362700D02*
D03*
X-337300Y-139700D02*
D03*
X-362700D02*
D03*
X-337300Y-190500D02*
D03*
X-362700D02*
D03*
X-337300Y-241300D02*
D03*
X-362700D02*
D03*
X198650Y-320450D02*
D03*
Y-295050D02*
D03*
X249450D02*
D03*
Y-320450D02*
D03*
X274850D02*
D03*
X224050Y-295050D02*
D03*
Y-320450D02*
D03*
D62*
X362700Y241300D02*
D03*
X-337300D02*
D03*
D63*
X-413000Y207500D02*
D03*
X-475000D02*
D03*
X-477500Y87500D02*
D03*
X-415500D02*
D03*
X-415000Y-30000D02*
D03*
X-477000D02*
D03*
X-477500Y-147500D02*
D03*
X-415500D02*
D03*
X420500Y-150000D02*
D03*
X482500D02*
D03*
D64*
X-440000Y160500D02*
D03*
X-442500Y40500D02*
D03*
X-442000Y-77000D02*
D03*
X-442500Y-194500D02*
D03*
X447500Y-103000D02*
D03*
D65*
X415900Y-358700D02*
D03*
D66*
X443000Y-389400D02*
D03*
Y-258000D02*
D03*
D67*
X274850Y-295050D02*
D03*
D68*
X-450000Y-450000D02*
D03*
X450000Y450000D02*
D03*
Y-450000D02*
D03*
X-450000Y450000D02*
D03*
D98*
X-164750Y-283950D02*
D03*
X-171250D02*
D03*
X-177750D02*
D03*
X-184250D02*
D03*
X-190750D02*
D03*
X-197250D02*
D03*
X-203750D02*
D03*
X-210250D02*
D03*
Y-226550D02*
D03*
X-203750D02*
D03*
X-197250D02*
D03*
X-190750D02*
D03*
X-184250D02*
D03*
X-177750D02*
D03*
X-171250D02*
D03*
X-164750D02*
D03*
D99*
X-187500Y-255250D02*
D03*
D100*
X-204400Y-347500D02*
D03*
X-186600D02*
D03*
X186900Y-84000D02*
D03*
X169100D02*
D03*
X464900Y14000D02*
D03*
X447100D02*
D03*
X462108Y-34000D02*
D03*
X444307D02*
D03*
X462663Y81163D02*
D03*
X444863D02*
D03*
X462663Y131163D02*
D03*
X444863D02*
D03*
X463662Y194163D02*
D03*
X445863D02*
D03*
X446862Y244163D02*
D03*
X464663D02*
D03*
Y307162D02*
D03*
X446862D02*
D03*
X464663Y358162D02*
D03*
X446862D02*
D03*
X89100Y-85857D02*
D03*
X106900D02*
D03*
X12100Y-84697D02*
D03*
X29900D02*
D03*
X246100Y-84857D02*
D03*
X263900D02*
D03*
D101*
X-65750Y-134250D02*
D03*
X-171750D02*
D03*
X6250Y132250D02*
D03*
X-99750D02*
D03*
D102*
X6000Y-211000D02*
D03*
X82000Y-212160D02*
D03*
X163000Y-211000D02*
D03*
X241000Y-212000D02*
D03*
D103*
X-16799Y-137998D02*
D03*
X28799D02*
D03*
X59201Y-139158D02*
D03*
X104799D02*
D03*
X140201Y-137998D02*
D03*
X185799D02*
D03*
X218201Y-138998D02*
D03*
X263799D02*
D03*
D104*
X-222500Y175000D02*
D03*
D105*
X-193800Y152250D02*
D03*
Y158750D02*
D03*
Y165250D02*
D03*
Y171750D02*
D03*
Y178250D02*
D03*
Y184750D02*
D03*
Y191250D02*
D03*
Y197750D02*
D03*
X-251200D02*
D03*
Y191250D02*
D03*
Y184750D02*
D03*
Y178250D02*
D03*
Y171750D02*
D03*
Y165250D02*
D03*
Y158750D02*
D03*
Y152250D02*
D03*
M02*
