G04*
G04 #@! TF.GenerationSoftware,Altium Limited,Altium Designer,22.5.1 (42)*
G04*
G04 Layer_Physical_Order=2*
G04 Layer_Color=36540*
%FSLAX44Y44*%
%MOMM*%
G71*
G04*
G04 #@! TF.SameCoordinates,7C753EF8-EF55-4721-AF4D-FDC1614254BA*
G04*
G04*
G04 #@! TF.FilePolarity,Positive*
G04*
G01*
G75*
%ADD13C,0.2540*%
%ADD72R,3.7160X3.7160*%
%ADD75R,1.8000X1.8000*%
%ADD77C,2.0000*%
%ADD78C,1.6000*%
%ADD80R,2.0000X4.0000*%
%ADD82R,1.8000X1.8000*%
%ADD84R,1.6000X1.6000*%
%ADD86C,0.6000*%
%ADD87C,0.8000*%
G36*
X454110Y498796D02*
X454890Y498641D01*
X458033D01*
X464267Y497820D01*
X470340Y496193D01*
X476148Y493787D01*
X481593Y490644D01*
X486581Y486816D01*
X491026Y482371D01*
X494854Y477383D01*
X497997Y471938D01*
X500403Y466130D01*
X502030Y460057D01*
X502851Y453824D01*
Y450680D01*
Y-449320D01*
Y-452463D01*
X502030Y-458697D01*
X500403Y-464770D01*
X497997Y-470578D01*
X494854Y-476023D01*
X491026Y-481011D01*
X486581Y-485456D01*
X481593Y-489284D01*
X476148Y-492427D01*
X470340Y-494833D01*
X464267Y-496460D01*
X458033Y-497281D01*
X455917D01*
X455670Y-497116D01*
X454890Y-496961D01*
X136650D01*
X134590Y-496551D01*
X132650Y-495748D01*
X130904Y-494581D01*
X129419Y-493096D01*
X128252Y-491350D01*
X127449Y-489410D01*
X127039Y-487350D01*
Y-486300D01*
Y-411289D01*
X152515D01*
X153368Y-412230D01*
X153268Y-413250D01*
Y-428250D01*
X153596Y-431583D01*
X154568Y-434787D01*
X156147Y-437740D01*
X158271Y-440329D01*
X160860Y-442453D01*
X163813Y-444032D01*
X167017Y-445004D01*
X170350Y-445332D01*
X173683Y-445004D01*
X176887Y-444032D01*
X179840Y-442453D01*
X182429Y-440329D01*
X184553Y-437740D01*
X186132Y-434787D01*
X187104Y-431583D01*
X187432Y-428250D01*
Y-413250D01*
X187332Y-412230D01*
X188185Y-411289D01*
X283915D01*
X284768Y-412230D01*
X284668Y-413250D01*
Y-428250D01*
X284996Y-431583D01*
X285968Y-434787D01*
X287547Y-437740D01*
X289671Y-440329D01*
X292260Y-442453D01*
X295213Y-444032D01*
X298417Y-445004D01*
X301750Y-445332D01*
X305083Y-445004D01*
X308287Y-444032D01*
X311240Y-442453D01*
X313829Y-440329D01*
X315953Y-437740D01*
X317532Y-434787D01*
X318504Y-431583D01*
X318832Y-428250D01*
Y-413250D01*
X318732Y-412230D01*
X319585Y-411289D01*
X388750D01*
X389530Y-411134D01*
X390192Y-410692D01*
X390192Y-410692D01*
X418330Y-382553D01*
X418492Y-382597D01*
X419338Y-384117D01*
X418746Y-386067D01*
X418418Y-389400D01*
X418746Y-392733D01*
X419718Y-395937D01*
X421297Y-398890D01*
X423421Y-401479D01*
X426010Y-403603D01*
X428963Y-405182D01*
X432167Y-406154D01*
X435500Y-406482D01*
X450500D01*
X453833Y-406154D01*
X457037Y-405182D01*
X459990Y-403603D01*
X462579Y-401479D01*
X464703Y-398890D01*
X466282Y-395937D01*
X467254Y-392733D01*
X467582Y-389400D01*
X467254Y-386067D01*
X466282Y-382863D01*
X464703Y-379910D01*
X462579Y-377321D01*
X459990Y-375197D01*
X457037Y-373618D01*
X453833Y-372646D01*
X450500Y-372318D01*
X435500D01*
X432167Y-372646D01*
X430217Y-373238D01*
X428697Y-372392D01*
X428653Y-372230D01*
X447442Y-353442D01*
X447884Y-352780D01*
X448039Y-352000D01*
Y-284000D01*
X448039Y-284000D01*
X447884Y-283220D01*
X447442Y-282558D01*
X441139Y-276256D01*
X441625Y-275082D01*
X450500D01*
X453833Y-274754D01*
X457037Y-273782D01*
X459990Y-272203D01*
X462579Y-270079D01*
X464703Y-267490D01*
X466282Y-264537D01*
X467254Y-261333D01*
X467582Y-258000D01*
X467254Y-254667D01*
X466282Y-251463D01*
X464703Y-248510D01*
X462579Y-245921D01*
X459990Y-243797D01*
X457037Y-242218D01*
X453833Y-241246D01*
X450500Y-240918D01*
X435500D01*
X432167Y-241246D01*
X428963Y-242218D01*
X426010Y-243797D01*
X423421Y-245921D01*
X421297Y-248510D01*
X419718Y-251463D01*
X419292Y-252868D01*
X418060Y-253176D01*
X374169Y-209285D01*
X373947Y-209137D01*
X373746Y-208961D01*
X373619Y-208917D01*
X373507Y-208843D01*
X373246Y-208791D01*
X372993Y-208705D01*
X372859Y-208714D01*
X372727Y-208687D01*
X372465Y-208739D01*
X372199Y-208757D01*
X372078Y-208816D01*
X371946Y-208843D01*
X371725Y-208991D01*
X371485Y-209109D01*
X370469Y-209889D01*
X370293Y-210089D01*
X370093Y-210265D01*
X370033Y-210386D01*
X369944Y-210487D01*
X369859Y-210739D01*
X369741Y-210979D01*
X369732Y-211113D01*
X369689Y-211240D01*
X369706Y-211507D01*
X369689Y-211773D01*
X369732Y-211900D01*
X369741Y-212034D01*
X369859Y-212274D01*
X369944Y-212526D01*
X370118Y-212827D01*
X370661Y-214852D01*
Y-216948D01*
X370118Y-218973D01*
X369070Y-220788D01*
X367588Y-222270D01*
X365773Y-223318D01*
X363748Y-223861D01*
X361652D01*
X359627Y-223318D01*
X357812Y-222270D01*
X356330Y-220788D01*
X355282Y-218973D01*
X354739Y-216948D01*
Y-214852D01*
X355282Y-212827D01*
X356330Y-211012D01*
X357812Y-209530D01*
X359627Y-208482D01*
X361652Y-207939D01*
X363748D01*
X365773Y-208482D01*
X366074Y-208656D01*
X366326Y-208741D01*
X366566Y-208859D01*
X366700Y-208868D01*
X366827Y-208911D01*
X367093Y-208894D01*
X367360Y-208911D01*
X367487Y-208868D01*
X367621Y-208859D01*
X367861Y-208741D01*
X368113Y-208656D01*
X368214Y-208567D01*
X368335Y-208507D01*
X368511Y-208307D01*
X368711Y-208131D01*
X369491Y-207115D01*
X369609Y-206876D01*
X369757Y-206654D01*
X369784Y-206522D01*
X369843Y-206401D01*
X369861Y-206135D01*
X369913Y-205873D01*
X369886Y-205741D01*
X369895Y-205607D01*
X369809Y-205355D01*
X369757Y-205093D01*
X369683Y-204981D01*
X369639Y-204854D01*
X369464Y-204653D01*
X369315Y-204431D01*
X365993Y-201109D01*
X366322Y-199882D01*
X366560Y-199818D01*
X368840Y-198502D01*
X370702Y-196640D01*
X372019Y-194360D01*
X372700Y-191817D01*
Y-189184D01*
X372019Y-186640D01*
X370702Y-184360D01*
X368840Y-182498D01*
X366560Y-181182D01*
X364016Y-180500D01*
X361384D01*
X358840Y-181182D01*
X356560Y-182498D01*
X354698Y-184360D01*
X353382Y-186640D01*
X353009Y-188030D01*
X352780Y-188116D01*
X352000Y-187961D01*
X347300D01*
X346989Y-188023D01*
X346618Y-186640D01*
X345302Y-184360D01*
X343440Y-182498D01*
X341160Y-181182D01*
X338616Y-180500D01*
X335984D01*
X333440Y-181182D01*
X331160Y-182498D01*
X329298Y-184360D01*
X327981Y-186640D01*
X327611Y-188023D01*
X327300Y-187961D01*
X-205711D01*
Y4549D01*
X-205750Y4746D01*
X-205750Y4947D01*
X-205787Y5133D01*
X-205864Y5318D01*
X-205866Y5330D01*
X-205873Y5339D01*
X-206006Y5661D01*
X-206008Y5672D01*
X-206014Y5682D01*
X-206091Y5868D01*
X-206196Y6025D01*
X-206338Y6167D01*
X-206450Y6334D01*
X-271416Y71300D01*
X-271583Y71412D01*
X-271725Y71554D01*
X-271882Y71659D01*
X-272068Y71736D01*
X-272078Y71742D01*
X-272089Y71744D01*
X-272411Y71877D01*
X-272420Y71884D01*
X-272432Y71886D01*
X-272617Y71963D01*
X-272803Y72000D01*
X-273004D01*
X-273201Y72039D01*
X-308799D01*
X-308996Y72000D01*
X-309197Y72000D01*
X-309383Y71963D01*
X-309568Y71886D01*
X-309580Y71884D01*
X-309589Y71877D01*
X-309911Y71744D01*
X-309922Y71742D01*
X-309932Y71736D01*
X-310118Y71659D01*
X-310275Y71554D01*
X-310417Y71412D01*
X-310584Y71300D01*
X-319300Y62584D01*
X-319412Y62417D01*
X-319554Y62275D01*
X-319659Y62118D01*
X-319736Y61932D01*
X-319742Y61922D01*
X-319744Y61911D01*
X-319877Y61589D01*
X-319884Y61580D01*
X-319886Y61568D01*
X-319963Y61383D01*
X-320000Y61197D01*
Y60996D01*
X-320039Y60799D01*
Y-187961D01*
X-327300D01*
X-327611Y-188023D01*
X-327981Y-186640D01*
X-329298Y-184360D01*
X-331160Y-182498D01*
X-333440Y-181182D01*
X-335984Y-180500D01*
X-338616D01*
X-341160Y-181182D01*
X-343440Y-182498D01*
X-345302Y-184360D01*
X-346618Y-186640D01*
X-346989Y-188023D01*
X-347300Y-187961D01*
X-352700D01*
X-353011Y-188023D01*
X-353382Y-186640D01*
X-354698Y-184360D01*
X-356560Y-182498D01*
X-358840Y-181182D01*
X-361384Y-180500D01*
X-364016D01*
X-366560Y-181182D01*
X-368840Y-182498D01*
X-370702Y-184360D01*
X-372019Y-186640D01*
X-372389Y-188023D01*
X-372700Y-187961D01*
X-377000D01*
X-377780Y-188116D01*
X-378442Y-188558D01*
X-378442Y-188558D01*
X-393692Y-203808D01*
X-394134Y-204470D01*
X-394289Y-205250D01*
Y-283132D01*
X-395559Y-283299D01*
X-396318Y-280468D01*
X-397898Y-277732D01*
X-400132Y-275498D01*
X-402868Y-273918D01*
X-405920Y-273100D01*
X-409080D01*
X-412132Y-273918D01*
X-414868Y-275498D01*
X-417102Y-277732D01*
X-418682Y-280468D01*
X-419500Y-283520D01*
Y-286680D01*
X-418682Y-289732D01*
X-417102Y-292468D01*
X-414868Y-294702D01*
X-412132Y-296282D01*
X-409080Y-297100D01*
X-405920D01*
X-402868Y-296282D01*
X-400132Y-294702D01*
X-397898Y-292468D01*
X-396318Y-289732D01*
X-395559Y-286901D01*
X-394289Y-287068D01*
Y-308532D01*
X-395559Y-308699D01*
X-396318Y-305868D01*
X-397898Y-303132D01*
X-400132Y-300898D01*
X-402868Y-299318D01*
X-405920Y-298500D01*
X-409080D01*
X-412132Y-299318D01*
X-414868Y-300898D01*
X-417102Y-303132D01*
X-418682Y-305868D01*
X-419500Y-308920D01*
Y-312080D01*
X-418682Y-315132D01*
X-417102Y-317868D01*
X-414868Y-320102D01*
X-412132Y-321682D01*
X-409080Y-322500D01*
X-405920D01*
X-402868Y-321682D01*
X-400132Y-320102D01*
X-397898Y-317868D01*
X-396318Y-315132D01*
X-395559Y-312301D01*
X-394289Y-312468D01*
Y-409250D01*
X-394134Y-410030D01*
X-393692Y-410692D01*
X-393030Y-411134D01*
X-392250Y-411289D01*
X-322040D01*
X-321187Y-412230D01*
X-321282Y-413200D01*
Y-428200D01*
X-320954Y-431533D01*
X-319982Y-434737D01*
X-318403Y-437690D01*
X-316279Y-440279D01*
X-313690Y-442403D01*
X-310737Y-443982D01*
X-307533Y-444954D01*
X-304200Y-445282D01*
X-300867Y-444954D01*
X-297663Y-443982D01*
X-294710Y-442403D01*
X-292121Y-440279D01*
X-289997Y-437690D01*
X-288418Y-434737D01*
X-287446Y-431533D01*
X-287118Y-428200D01*
Y-413200D01*
X-287213Y-412230D01*
X-286360Y-411289D01*
X-190640D01*
X-189787Y-412230D01*
X-189882Y-413200D01*
Y-428200D01*
X-189554Y-431533D01*
X-188582Y-434737D01*
X-187003Y-437690D01*
X-184879Y-440279D01*
X-182290Y-442403D01*
X-179337Y-443982D01*
X-176133Y-444954D01*
X-172800Y-445282D01*
X-169467Y-444954D01*
X-166263Y-443982D01*
X-163310Y-442403D01*
X-160721Y-440279D01*
X-158597Y-437690D01*
X-157018Y-434737D01*
X-156046Y-431533D01*
X-155718Y-428200D01*
Y-413200D01*
X-155813Y-412230D01*
X-154960Y-411289D01*
X-127149D01*
Y-486620D01*
Y-487670D01*
X-127559Y-489730D01*
X-128362Y-491670D01*
X-129529Y-493416D01*
X-131014Y-494901D01*
X-132760Y-496068D01*
X-134700Y-496871D01*
X-136760Y-497281D01*
X-137810D01*
X-445820Y-497281D01*
X-445821Y-497281D01*
X-448254Y-497281D01*
X-454487Y-496460D01*
X-460560Y-494833D01*
X-466368Y-492427D01*
X-471813Y-489284D01*
X-476801Y-485456D01*
X-481246Y-481011D01*
X-485074Y-476023D01*
X-488217Y-470578D01*
X-490623Y-464770D01*
X-492250Y-458697D01*
X-493071Y-452463D01*
Y-449320D01*
Y450680D01*
Y453824D01*
X-492250Y460057D01*
X-490623Y466129D01*
X-488217Y471938D01*
X-485074Y477383D01*
X-481246Y482371D01*
X-476801Y486816D01*
X-471813Y490644D01*
X-466368Y493787D01*
X-460560Y496193D01*
X-454487Y497820D01*
X-448254Y498641D01*
X-377650D01*
X-375590Y498231D01*
X-373650Y497428D01*
X-371904Y496261D01*
X-370419Y494776D01*
X-369252Y493030D01*
X-368449Y491090D01*
X-368039Y489030D01*
Y487980D01*
Y355000D01*
X-368029Y354950D01*
X-368037Y354900D01*
X-367988Y353920D01*
X-367952Y353773D01*
Y353622D01*
X-367569Y351699D01*
X-367492Y351514D01*
X-367453Y351317D01*
X-366703Y349506D01*
X-366591Y349339D01*
X-366515Y349153D01*
X-365425Y347523D01*
X-365283Y347381D01*
X-365172Y347214D01*
X-363786Y345828D01*
X-363619Y345717D01*
X-363477Y345574D01*
X-361847Y344485D01*
X-361661Y344408D01*
X-361494Y344297D01*
X-360841Y344026D01*
X-360679Y343705D01*
X-360391Y342465D01*
X-361000Y340995D01*
Y339005D01*
X-360239Y337168D01*
X-359071Y336000D01*
X-360239Y334832D01*
X-361000Y332995D01*
Y331005D01*
X-360239Y329168D01*
X-359571Y328500D01*
X-360239Y327832D01*
X-361000Y325995D01*
Y324005D01*
X-360239Y322168D01*
X-358832Y320761D01*
X-356995Y320000D01*
X-355005D01*
X-353168Y320761D01*
X-351761Y322168D01*
X-351000Y324005D01*
Y325995D01*
X-351761Y327832D01*
X-352429Y328500D01*
X-351761Y329168D01*
X-351000Y331005D01*
Y332995D01*
X-351761Y334832D01*
X-352929Y336000D01*
X-351761Y337168D01*
X-351000Y339005D01*
Y340995D01*
X-351288Y341691D01*
X-350440Y342961D01*
X-348560D01*
X-347711Y341691D01*
X-348000Y340995D01*
Y339005D01*
X-347239Y337168D01*
X-346071Y336000D01*
X-347239Y334832D01*
X-348000Y332995D01*
Y331005D01*
X-347239Y329168D01*
X-346571Y328500D01*
X-347239Y327832D01*
X-348000Y325995D01*
Y324005D01*
X-347239Y322168D01*
X-345832Y320761D01*
X-343995Y320000D01*
X-342005D01*
X-340168Y320761D01*
X-338761Y322168D01*
X-338173Y323587D01*
X-336827D01*
X-336239Y322168D01*
X-334832Y320761D01*
X-332995Y320000D01*
X-331005D01*
X-329168Y320761D01*
X-327761Y322168D01*
X-327000Y324005D01*
Y325995D01*
X-327761Y327832D01*
X-328429Y328500D01*
X-327761Y329168D01*
X-327000Y331005D01*
Y332995D01*
X-327761Y334832D01*
X-328929Y336000D01*
X-327761Y337168D01*
X-327000Y339005D01*
Y340995D01*
X-327288Y341691D01*
X-326440Y342961D01*
X-324560D01*
X-323712Y341691D01*
X-324000Y340995D01*
Y339005D01*
X-323239Y337168D01*
X-322071Y336000D01*
X-323239Y334832D01*
X-324000Y332995D01*
Y331005D01*
X-323239Y329168D01*
X-322571Y328500D01*
X-323239Y327832D01*
X-324000Y325995D01*
Y324005D01*
X-323239Y322168D01*
X-321832Y320761D01*
X-319995Y320000D01*
X-318005D01*
X-316168Y320761D01*
X-314761Y322168D01*
X-314000Y324005D01*
Y325995D01*
X-314761Y327832D01*
X-315429Y328500D01*
X-314761Y329168D01*
X-314000Y331005D01*
Y332995D01*
X-314761Y334832D01*
X-315929Y336000D01*
X-314761Y337168D01*
X-314000Y339005D01*
Y340995D01*
X-314288Y341691D01*
X-313440Y342961D01*
X-143500D01*
X-143450Y342971D01*
X-143400Y342963D01*
X-142420Y343012D01*
X-142273Y343048D01*
X-142122D01*
X-140199Y343431D01*
X-140014Y343508D01*
X-139817Y343547D01*
X-138006Y344297D01*
X-137839Y344408D01*
X-137653Y344485D01*
X-136023Y345574D01*
X-135881Y345717D01*
X-135714Y345828D01*
X-134328Y347214D01*
X-134216Y347381D01*
X-134074Y347523D01*
X-132985Y349153D01*
X-132908Y349339D01*
X-132797Y349506D01*
X-132047Y351317D01*
X-132008Y351514D01*
X-131931Y351699D01*
X-131548Y353622D01*
Y353773D01*
X-131511Y353920D01*
X-131463Y354900D01*
X-131471Y354950D01*
X-131461Y355000D01*
Y487980D01*
Y489030D01*
X-131051Y491090D01*
X-130248Y493030D01*
X-129081Y494776D01*
X-127596Y496261D01*
X-125850Y497428D01*
X-123910Y498231D01*
X-121850Y498641D01*
X119980D01*
X120760Y498796D01*
X121007Y498961D01*
X121350D01*
X123410Y498551D01*
X125350Y497748D01*
X127096Y496581D01*
X128581Y495096D01*
X129747Y493350D01*
X130551Y491410D01*
X130961Y489350D01*
Y488300D01*
Y355000D01*
X130971Y354950D01*
X130963Y354900D01*
X131011Y353920D01*
X131048Y353773D01*
Y353622D01*
X131431Y351699D01*
X131508Y351514D01*
X131547Y351317D01*
X132297Y349506D01*
X132408Y349339D01*
X132485Y349153D01*
X133574Y347523D01*
X133716Y347381D01*
X133828Y347214D01*
X135214Y345828D01*
X135381Y345717D01*
X135523Y345574D01*
X137153Y344485D01*
X137339Y344408D01*
X137506Y344297D01*
X139317Y343547D01*
X139514Y343508D01*
X139699Y343431D01*
X141622Y343048D01*
X141773D01*
X141920Y343012D01*
X142900Y342963D01*
X142950Y342971D01*
X143000Y342961D01*
X355500D01*
X355550Y342971D01*
X355600Y342963D01*
X356580Y343012D01*
X356727Y343048D01*
X356878D01*
X358801Y343431D01*
X358986Y343508D01*
X359183Y343547D01*
X360994Y344297D01*
X361161Y344408D01*
X361347Y344485D01*
X362977Y345574D01*
X363119Y345717D01*
X363286Y345828D01*
X364672Y347214D01*
X364784Y347381D01*
X364925Y347523D01*
X366015Y349153D01*
X366091Y349339D01*
X366203Y349506D01*
X366953Y351317D01*
X366992Y351514D01*
X367069Y351699D01*
X367452Y353622D01*
Y353773D01*
X367488Y353920D01*
X367537Y354900D01*
X367529Y354950D01*
X367539Y355000D01*
Y488300D01*
Y489350D01*
X367949Y491410D01*
X368752Y493350D01*
X369919Y495096D01*
X371404Y496581D01*
X373150Y497747D01*
X375090Y498551D01*
X377150Y498961D01*
X453863D01*
X454110Y498796D01*
D02*
G37*
G36*
X-273015Y69963D02*
X-272858Y69858D01*
X-207892Y4892D01*
X-207787Y4735D01*
X-207750Y4549D01*
Y-187961D01*
Y-190000D01*
X327300D01*
Y-191817D01*
X327981Y-194360D01*
X329298Y-196640D01*
X331160Y-198502D01*
X333440Y-199818D01*
X335984Y-200500D01*
X338616D01*
X341160Y-199818D01*
X343440Y-198502D01*
X345302Y-196640D01*
X346618Y-194360D01*
X347300Y-191817D01*
Y-190000D01*
X352000D01*
X352700Y-190700D01*
Y-191817D01*
X353382Y-194360D01*
X354698Y-196640D01*
X356560Y-198502D01*
X358840Y-199818D01*
X361384Y-200500D01*
X362500D01*
X367873Y-205873D01*
X367094Y-206890D01*
X366560Y-206581D01*
X364016Y-205900D01*
X361384D01*
X358840Y-206581D01*
X356560Y-207898D01*
X354698Y-209760D01*
X353382Y-212040D01*
X352700Y-214583D01*
Y-217216D01*
X353382Y-219760D01*
X354698Y-222040D01*
X356560Y-223902D01*
X358840Y-225219D01*
X361384Y-225900D01*
X364016D01*
X366560Y-225219D01*
X368840Y-223902D01*
X370702Y-222040D01*
X372019Y-219760D01*
X372700Y-217216D01*
Y-214583D01*
X372019Y-212040D01*
X371710Y-211506D01*
X372727Y-210727D01*
X418560Y-256560D01*
X418418Y-258000D01*
X418746Y-261333D01*
X419718Y-264537D01*
X421297Y-267490D01*
X423421Y-270079D01*
X426010Y-272203D01*
X428963Y-273782D01*
X432167Y-274754D01*
X435500Y-275082D01*
X437082D01*
X446000Y-284000D01*
Y-352000D01*
X388750Y-409250D01*
X318302D01*
X317532Y-406713D01*
X315953Y-403760D01*
X313829Y-401171D01*
X311240Y-399047D01*
X308287Y-397468D01*
X305083Y-396496D01*
X301750Y-396168D01*
X298417Y-396496D01*
X295213Y-397468D01*
X292260Y-399047D01*
X289671Y-401171D01*
X287547Y-403760D01*
X285968Y-406713D01*
X285198Y-409250D01*
X186902D01*
X186132Y-406713D01*
X184553Y-403760D01*
X182429Y-401171D01*
X179840Y-399047D01*
X176887Y-397468D01*
X173683Y-396496D01*
X170350Y-396168D01*
X167017Y-396496D01*
X163813Y-397468D01*
X160860Y-399047D01*
X158271Y-401171D01*
X156147Y-403760D01*
X154568Y-406713D01*
X153799Y-409250D01*
X127039D01*
Y-350000D01*
X127029Y-349950D01*
X127037Y-349900D01*
X126988Y-348920D01*
X126952Y-348773D01*
Y-348622D01*
X126569Y-346699D01*
X126492Y-346514D01*
X126453Y-346317D01*
X125703Y-344506D01*
X125591Y-344339D01*
X125515Y-344153D01*
X124425Y-342523D01*
X124284Y-342381D01*
X124172Y-342214D01*
X122786Y-340828D01*
X122619Y-340717D01*
X122477Y-340574D01*
X120847Y-339485D01*
X120661Y-339408D01*
X120494Y-339297D01*
X118683Y-338547D01*
X118486Y-338508D01*
X118301Y-338431D01*
X116378Y-338048D01*
X116227D01*
X116080Y-338012D01*
X115100Y-337963D01*
X115050Y-337971D01*
X115000Y-337961D01*
X114680Y-337961D01*
X38890D01*
X-115110Y-337961D01*
X-115160Y-337971D01*
X-115210Y-337963D01*
X-116190Y-338012D01*
X-116337Y-338048D01*
X-116488D01*
X-118411Y-338431D01*
X-118596Y-338508D01*
X-118793Y-338547D01*
X-120604Y-339297D01*
X-120771Y-339408D01*
X-120957Y-339485D01*
X-122587Y-340574D01*
X-122729Y-340717D01*
X-122896Y-340828D01*
X-124282Y-342214D01*
X-124394Y-342381D01*
X-124536Y-342523D01*
X-125625Y-344153D01*
X-125702Y-344339D01*
X-125813Y-344506D01*
X-126563Y-346317D01*
X-126602Y-346514D01*
X-126679Y-346699D01*
X-127062Y-348622D01*
Y-348773D01*
X-127099Y-348920D01*
X-127147Y-349900D01*
X-127139Y-349950D01*
X-127149Y-350000D01*
Y-409250D01*
X-156233D01*
X-157018Y-406663D01*
X-158597Y-403710D01*
X-160721Y-401121D01*
X-163310Y-398997D01*
X-166263Y-397418D01*
X-169467Y-396446D01*
X-172800Y-396118D01*
X-176133Y-396446D01*
X-179337Y-397418D01*
X-182290Y-398997D01*
X-184879Y-401121D01*
X-187003Y-403710D01*
X-188582Y-406663D01*
X-189367Y-409250D01*
X-287633D01*
X-288418Y-406663D01*
X-289997Y-403710D01*
X-292121Y-401121D01*
X-294710Y-398997D01*
X-297663Y-397418D01*
X-300867Y-396446D01*
X-304200Y-396118D01*
X-307533Y-396446D01*
X-310737Y-397418D01*
X-313690Y-398997D01*
X-316279Y-401121D01*
X-318403Y-403710D01*
X-319982Y-406663D01*
X-320767Y-409250D01*
X-392250D01*
Y-205250D01*
X-377000Y-190000D01*
X-372700D01*
Y-191817D01*
X-372019Y-194360D01*
X-370702Y-196640D01*
X-368840Y-198502D01*
X-366560Y-199818D01*
X-364016Y-200500D01*
X-361384D01*
X-358840Y-199818D01*
X-356560Y-198502D01*
X-354698Y-196640D01*
X-353382Y-194360D01*
X-352700Y-191817D01*
Y-190000D01*
X-347300D01*
Y-191817D01*
X-346618Y-194360D01*
X-345302Y-196640D01*
X-343440Y-198502D01*
X-341160Y-199818D01*
X-338616Y-200500D01*
X-335984D01*
X-333440Y-199818D01*
X-331160Y-198502D01*
X-329298Y-196640D01*
X-327981Y-194360D01*
X-327300Y-191817D01*
Y-190000D01*
X-318000D01*
Y60799D01*
X-317963Y60985D01*
X-317858Y61142D01*
X-309142Y69858D01*
X-308985Y69963D01*
X-308799Y70000D01*
X-273201D01*
X-273015Y69963D01*
D02*
G37*
%LPC*%
G36*
X67500Y464069D02*
X65412Y463794D01*
X63465Y462988D01*
X61794Y461706D01*
X60512Y460034D01*
X59706Y458088D01*
X59431Y456000D01*
Y444000D01*
X59706Y441912D01*
X60512Y439966D01*
X61794Y438294D01*
X63465Y437012D01*
X65412Y436206D01*
X67500Y435931D01*
X69588Y436206D01*
X71535Y437012D01*
X73206Y438294D01*
X74488Y439966D01*
X75294Y441912D01*
X75569Y444000D01*
Y456000D01*
X75294Y458088D01*
X74488Y460034D01*
X73206Y461706D01*
X71535Y462988D01*
X69588Y463794D01*
X67500Y464069D01*
D02*
G37*
G36*
X-67500D02*
X-69588Y463794D01*
X-71535Y462988D01*
X-73206Y461706D01*
X-74488Y460034D01*
X-75294Y458088D01*
X-75569Y456000D01*
Y444000D01*
X-75294Y441912D01*
X-74488Y439966D01*
X-73206Y438294D01*
X-71535Y437012D01*
X-69588Y436206D01*
X-67500Y435931D01*
X-65412Y436206D01*
X-63465Y437012D01*
X-61794Y438294D01*
X-60512Y439966D01*
X-59706Y441912D01*
X-59431Y444000D01*
Y456000D01*
X-59706Y458088D01*
X-60512Y460034D01*
X-61794Y461706D01*
X-63465Y462988D01*
X-65412Y463794D01*
X-67500Y464069D01*
D02*
G37*
G36*
X452518Y482000D02*
X447481D01*
X442507Y481212D01*
X437716Y479656D01*
X433228Y477369D01*
X429153Y474408D01*
X425592Y470847D01*
X422631Y466772D01*
X420344Y462284D01*
X418788Y457493D01*
X418000Y452518D01*
Y447481D01*
X418788Y442507D01*
X420344Y437716D01*
X422631Y433228D01*
X425592Y429153D01*
X429153Y425592D01*
X433228Y422631D01*
X437716Y420344D01*
X442507Y418788D01*
X447481Y418000D01*
X452518D01*
X457493Y418788D01*
X462284Y420344D01*
X466772Y422631D01*
X470847Y425592D01*
X474408Y429153D01*
X477369Y433228D01*
X479656Y437716D01*
X481212Y442507D01*
X482000Y447481D01*
Y452518D01*
X481212Y457493D01*
X479656Y462284D01*
X477369Y466772D01*
X474408Y470847D01*
X470847Y474408D01*
X466772Y477369D01*
X462284Y479656D01*
X457493Y481212D01*
X452518Y482000D01*
D02*
G37*
G36*
X-447481D02*
X-452518D01*
X-457493Y481212D01*
X-462284Y479656D01*
X-466772Y477369D01*
X-470847Y474408D01*
X-474408Y470847D01*
X-477369Y466772D01*
X-479656Y462284D01*
X-481212Y457493D01*
X-482000Y452518D01*
Y447481D01*
X-481212Y442507D01*
X-479656Y437716D01*
X-477369Y433228D01*
X-474408Y429153D01*
X-470847Y425592D01*
X-466772Y422631D01*
X-462284Y420344D01*
X-457493Y418788D01*
X-452518Y418000D01*
X-447481D01*
X-442507Y418788D01*
X-437716Y420344D01*
X-433228Y422631D01*
X-429153Y425592D01*
X-425592Y429153D01*
X-422631Y433228D01*
X-420344Y437716D01*
X-418788Y442507D01*
X-418000Y447481D01*
Y452518D01*
X-418788Y457493D01*
X-420344Y462284D01*
X-422631Y466772D01*
X-425592Y470847D01*
X-429153Y474408D01*
X-433228Y477369D01*
X-437716Y479656D01*
X-442507Y481212D01*
X-447481Y482000D01*
D02*
G37*
G36*
X-33973Y410580D02*
X-38027D01*
X-42003Y409789D01*
X-45748Y408238D01*
X-49119Y405985D01*
X-51986Y403119D01*
X-54238Y399748D01*
X-55789Y396003D01*
X-56580Y392027D01*
Y387973D01*
X-55789Y383997D01*
X-54238Y380252D01*
X-51986Y376881D01*
X-49119Y374015D01*
X-45748Y371762D01*
X-42003Y370211D01*
X-38027Y369420D01*
X-33973D01*
X-29997Y370211D01*
X-26252Y371762D01*
X-22881Y374015D01*
X-20015Y376881D01*
X-17762Y380252D01*
X-16211Y383997D01*
X-15420Y387973D01*
Y392027D01*
X-16211Y396003D01*
X-17762Y399748D01*
X-20015Y403119D01*
X-22881Y405985D01*
X-26252Y408238D01*
X-29997Y409789D01*
X-33973Y410580D01*
D02*
G37*
G36*
X416167Y370563D02*
X413008D01*
X409956Y369745D01*
X407219Y368165D01*
X404985Y365931D01*
X403405Y363194D01*
X403175Y362334D01*
X387000D01*
X385724Y362080D01*
X384642Y361357D01*
X307642Y284357D01*
X306920Y283276D01*
X306666Y282000D01*
Y205113D01*
X306601Y205087D01*
X304913Y203399D01*
X304000Y201194D01*
Y198806D01*
X304913Y196601D01*
X306601Y194914D01*
X308388Y194173D01*
Y192827D01*
X306601Y192087D01*
X304913Y190399D01*
X304000Y188193D01*
Y185807D01*
X304913Y183601D01*
X306601Y181914D01*
X307147Y181687D01*
Y180313D01*
X306601Y180087D01*
X304913Y178399D01*
X304000Y176194D01*
Y173806D01*
X304913Y171601D01*
X306601Y169914D01*
X308806Y169000D01*
X311194D01*
X313399Y169914D01*
X315086Y171601D01*
X316000Y173806D01*
Y176194D01*
X315973Y176258D01*
X324357Y184643D01*
X325080Y185724D01*
X325334Y187000D01*
Y215083D01*
X326146Y215745D01*
X327300Y215245D01*
Y214583D01*
X327981Y212040D01*
X329298Y209760D01*
X331160Y207898D01*
X333440Y206581D01*
X335984Y205900D01*
X338616D01*
X341160Y206581D01*
X343440Y207898D01*
X345302Y209760D01*
X346618Y212040D01*
X347300Y214583D01*
Y217216D01*
X346618Y219760D01*
X345302Y222040D01*
X344679Y222663D01*
X345165Y223836D01*
X354835D01*
X355321Y222663D01*
X354698Y222040D01*
X353382Y219760D01*
X352700Y217216D01*
Y214583D01*
X353382Y212040D01*
X354698Y209760D01*
X356560Y207898D01*
X358840Y206581D01*
X361384Y205900D01*
X364016D01*
X366560Y206581D01*
X368840Y207898D01*
X370702Y209760D01*
X372019Y212040D01*
X372700Y214583D01*
Y217216D01*
X372019Y219760D01*
X370702Y222040D01*
X370079Y222663D01*
X370565Y223836D01*
X372170D01*
X373446Y224090D01*
X374528Y224813D01*
X391024Y241308D01*
X403058D01*
X403405Y240011D01*
X404985Y237274D01*
X407219Y235040D01*
X409956Y233460D01*
X413008Y232643D01*
X416167D01*
X419219Y233460D01*
X421956Y235040D01*
X424190Y237274D01*
X425770Y240011D01*
X426587Y243063D01*
Y246222D01*
X425770Y249274D01*
X424190Y252011D01*
X421956Y254245D01*
X419219Y255825D01*
X416167Y256643D01*
X413008D01*
X409956Y255825D01*
X407219Y254245D01*
X404985Y252011D01*
X403405Y249274D01*
X403058Y247977D01*
X389643D01*
X388367Y247723D01*
X387285Y247000D01*
X373873Y233588D01*
X372700Y234074D01*
Y251300D01*
X352700D01*
Y231300D01*
X351760Y230504D01*
X340553D01*
X340386Y231774D01*
X341160Y231982D01*
X343440Y233298D01*
X345302Y235160D01*
X346618Y237440D01*
X347300Y239984D01*
Y242617D01*
X346618Y245160D01*
X345302Y247440D01*
X343440Y249302D01*
X341160Y250618D01*
X338616Y251300D01*
X335984D01*
X333440Y250618D01*
X331160Y249302D01*
X329298Y247440D01*
X327981Y245160D01*
X327300Y242617D01*
Y239984D01*
X327981Y237440D01*
X329298Y235160D01*
X331160Y233298D01*
X333440Y231982D01*
X334214Y231774D01*
X334047Y230504D01*
X332632D01*
X331356Y230250D01*
X330274Y229527D01*
X322697Y221951D01*
X321524Y222437D01*
Y255809D01*
X370144Y304429D01*
X403058D01*
X403405Y303131D01*
X404985Y300394D01*
X407219Y298160D01*
X409956Y296580D01*
X413008Y295763D01*
X416167D01*
X419219Y296580D01*
X421956Y298160D01*
X424190Y300394D01*
X425770Y303131D01*
X426587Y306183D01*
Y309342D01*
X425770Y312394D01*
X424190Y315131D01*
X421956Y317365D01*
X419219Y318945D01*
X416167Y319763D01*
X413008D01*
X409956Y318945D01*
X407219Y317365D01*
X404985Y315131D01*
X403405Y312394D01*
X403058Y311097D01*
X368763D01*
X367487Y310843D01*
X366405Y310120D01*
X315833Y259548D01*
X315110Y258466D01*
X314856Y257190D01*
Y206544D01*
X313586Y205865D01*
X313334Y206033D01*
Y280619D01*
X388381Y355666D01*
X402940D01*
X403405Y353931D01*
X404985Y351194D01*
X407219Y348960D01*
X409956Y347380D01*
X413008Y346563D01*
X416167D01*
X419219Y347380D01*
X421956Y348960D01*
X424190Y351194D01*
X425770Y353931D01*
X426587Y356983D01*
Y360142D01*
X425770Y363194D01*
X424190Y365931D01*
X421956Y368165D01*
X419219Y369745D01*
X416167Y370563D01*
D02*
G37*
G36*
X-405920Y337400D02*
X-409080D01*
X-412132Y336582D01*
X-414868Y335002D01*
X-417102Y332768D01*
X-418682Y330032D01*
X-419500Y326980D01*
Y323820D01*
X-418682Y320768D01*
X-417102Y318032D01*
X-414868Y315798D01*
X-412132Y314218D01*
X-409080Y313400D01*
X-405920D01*
X-402868Y314218D01*
X-400132Y315798D01*
X-397898Y318032D01*
X-396318Y320768D01*
X-395500Y323820D01*
Y326980D01*
X-396318Y330032D01*
X-397898Y332768D01*
X-400132Y335002D01*
X-402868Y336582D01*
X-405920Y337400D01*
D02*
G37*
G36*
X-331005Y306000D02*
X-332995D01*
X-334832Y305239D01*
X-336239Y303832D01*
X-336827Y302413D01*
X-338173D01*
X-338761Y303832D01*
X-340168Y305239D01*
X-342005Y306000D01*
X-343995D01*
X-345832Y305239D01*
X-347239Y303832D01*
X-348000Y301995D01*
Y300005D01*
X-347239Y298168D01*
X-345832Y296761D01*
X-343995Y296000D01*
X-342005D01*
X-340168Y296761D01*
X-338761Y298168D01*
X-338173Y299587D01*
X-336827D01*
X-336239Y298168D01*
X-334832Y296761D01*
X-332995Y296000D01*
X-331005D01*
X-329168Y296761D01*
X-327761Y298168D01*
X-327000Y300005D01*
Y301995D01*
X-327761Y303832D01*
X-329168Y305239D01*
X-331005Y306000D01*
D02*
G37*
G36*
X-318005D02*
X-319995D01*
X-321832Y305239D01*
X-323239Y303832D01*
X-324000Y301995D01*
Y300005D01*
X-323239Y298168D01*
X-321832Y296761D01*
X-319995Y296000D01*
X-318005D01*
X-316168Y296761D01*
X-314761Y298168D01*
X-314000Y300005D01*
Y301995D01*
X-314761Y303832D01*
X-316168Y305239D01*
X-318005Y306000D01*
D02*
G37*
G36*
X-355005D02*
X-356995D01*
X-358832Y305239D01*
X-360239Y303832D01*
X-361000Y301995D01*
Y300005D01*
X-360239Y298168D01*
X-358832Y296761D01*
X-356995Y296000D01*
X-355005D01*
X-353168Y296761D01*
X-351761Y298168D01*
X-351000Y300005D01*
Y301995D01*
X-351761Y303832D01*
X-353168Y305239D01*
X-355005Y306000D01*
D02*
G37*
G36*
X-405920Y312000D02*
X-409080D01*
X-412132Y311182D01*
X-414868Y309602D01*
X-417102Y307368D01*
X-418682Y304632D01*
X-419500Y301580D01*
Y298420D01*
X-418682Y295368D01*
X-417102Y292632D01*
X-414868Y290398D01*
X-412132Y288818D01*
X-409080Y288000D01*
X-405920D01*
X-402868Y288818D01*
X-400132Y290398D01*
X-397898Y292632D01*
X-396318Y295368D01*
X-395500Y298420D01*
Y301580D01*
X-396318Y304632D01*
X-397898Y307368D01*
X-400132Y309602D01*
X-402868Y311182D01*
X-405920Y312000D01*
D02*
G37*
G36*
X-331005Y291000D02*
X-332995D01*
X-334832Y290239D01*
X-336239Y288832D01*
X-336827Y287413D01*
X-338173D01*
X-338761Y288832D01*
X-340168Y290239D01*
X-342005Y291000D01*
X-343995D01*
X-345832Y290239D01*
X-347239Y288832D01*
X-348000Y286995D01*
Y285005D01*
X-347239Y283168D01*
X-345832Y281761D01*
X-343995Y281000D01*
X-342005D01*
X-340168Y281761D01*
X-338761Y283168D01*
X-338173Y284587D01*
X-336827D01*
X-336239Y283168D01*
X-334832Y281761D01*
X-332995Y281000D01*
X-331005D01*
X-329168Y281761D01*
X-327761Y283168D01*
X-327000Y285005D01*
Y286995D01*
X-327761Y288832D01*
X-329168Y290239D01*
X-331005Y291000D01*
D02*
G37*
G36*
X-318005D02*
X-319995D01*
X-321832Y290239D01*
X-323239Y288832D01*
X-324000Y286995D01*
Y285005D01*
X-323239Y283168D01*
X-321832Y281761D01*
X-319995Y281000D01*
X-318005D01*
X-316168Y281761D01*
X-314761Y283168D01*
X-314000Y285005D01*
Y286995D01*
X-314761Y288832D01*
X-316168Y290239D01*
X-318005Y291000D01*
D02*
G37*
G36*
X-355005D02*
X-356995D01*
X-358832Y290239D01*
X-360239Y288832D01*
X-361000Y286995D01*
Y285005D01*
X-360239Y283168D01*
X-358832Y281761D01*
X-356995Y281000D01*
X-355005D01*
X-353168Y281761D01*
X-351761Y283168D01*
X-351000Y285005D01*
Y286995D01*
X-351761Y288832D01*
X-353168Y290239D01*
X-355005Y291000D01*
D02*
G37*
G36*
X-331005Y277000D02*
X-332995D01*
X-334832Y276239D01*
X-336239Y274832D01*
X-336827Y273413D01*
X-338173D01*
X-338761Y274832D01*
X-340168Y276239D01*
X-342005Y277000D01*
X-343995D01*
X-345832Y276239D01*
X-347239Y274832D01*
X-348000Y272995D01*
Y271005D01*
X-347239Y269168D01*
X-345832Y267761D01*
X-343995Y267000D01*
X-342005D01*
X-340168Y267761D01*
X-338761Y269168D01*
X-338173Y270587D01*
X-336827D01*
X-336239Y269168D01*
X-334832Y267761D01*
X-332995Y267000D01*
X-331005D01*
X-329168Y267761D01*
X-327761Y269168D01*
X-327000Y271005D01*
Y272995D01*
X-327761Y274832D01*
X-329168Y276239D01*
X-331005Y277000D01*
D02*
G37*
G36*
X-318005D02*
X-319995D01*
X-321832Y276239D01*
X-323239Y274832D01*
X-324000Y272995D01*
Y271005D01*
X-323239Y269168D01*
X-321832Y267761D01*
X-319995Y267000D01*
X-318005D01*
X-316168Y267761D01*
X-314761Y269168D01*
X-314000Y271005D01*
Y272995D01*
X-314761Y274832D01*
X-316168Y276239D01*
X-318005Y277000D01*
D02*
G37*
G36*
X-355005D02*
X-356995D01*
X-358832Y276239D01*
X-360239Y274832D01*
X-361000Y272995D01*
Y271005D01*
X-360239Y269168D01*
X-358832Y267761D01*
X-356995Y267000D01*
X-355005D01*
X-353168Y267761D01*
X-351761Y269168D01*
X-351000Y271005D01*
Y272995D01*
X-351761Y274832D01*
X-353168Y276239D01*
X-355005Y277000D01*
D02*
G37*
G36*
X-155755Y256000D02*
X-157745D01*
X-159582Y255239D01*
X-160989Y253832D01*
X-161750Y251995D01*
Y250005D01*
X-160989Y248168D01*
X-159582Y246761D01*
X-157745Y246000D01*
X-155755D01*
X-153918Y246761D01*
X-152511Y248168D01*
X-151750Y250005D01*
Y251995D01*
X-152511Y253832D01*
X-153918Y255239D01*
X-155755Y256000D01*
D02*
G37*
G36*
X-327300Y251300D02*
X-347300D01*
Y231300D01*
X-327300D01*
Y251300D01*
D02*
G37*
G36*
X-361384D02*
X-364016D01*
X-366560Y250618D01*
X-368840Y249302D01*
X-370702Y247440D01*
X-372019Y245160D01*
X-372700Y242617D01*
Y239984D01*
X-372019Y237440D01*
X-370702Y235160D01*
X-368840Y233298D01*
X-366560Y231982D01*
X-364016Y231300D01*
X-361384D01*
X-358840Y231982D01*
X-356560Y233298D01*
X-354698Y235160D01*
X-353382Y237440D01*
X-352700Y239984D01*
Y242617D01*
X-353382Y245160D01*
X-354698Y247440D01*
X-356560Y249302D01*
X-358840Y250618D01*
X-361384Y251300D01*
D02*
G37*
G36*
X-290807Y217000D02*
X-293193D01*
X-295399Y216087D01*
X-297087Y214399D01*
X-298000Y212194D01*
Y210396D01*
X-298000Y210098D01*
X-299270Y209845D01*
X-299363Y210070D01*
X-299913Y211399D01*
X-301601Y213086D01*
X-303806Y214000D01*
X-306194D01*
X-308399Y213086D01*
X-310087Y211399D01*
X-311000Y209193D01*
Y206807D01*
X-310087Y204601D01*
X-308399Y202913D01*
X-306194Y202000D01*
X-303806D01*
X-301601Y202913D01*
X-299913Y204601D01*
X-299000Y206807D01*
Y208604D01*
X-299000Y208902D01*
X-297730Y209155D01*
X-297637Y208930D01*
X-297087Y207601D01*
X-295399Y205914D01*
X-293193Y205000D01*
X-290807D01*
X-288601Y205914D01*
X-286913Y207601D01*
X-286000Y209806D01*
Y212194D01*
X-286913Y214399D01*
X-288601Y216087D01*
X-290807Y217000D01*
D02*
G37*
G36*
X-335984Y225900D02*
X-338616D01*
X-341160Y225219D01*
X-343440Y223902D01*
X-345302Y222040D01*
X-346618Y219760D01*
X-347300Y217216D01*
Y214583D01*
X-346618Y212040D01*
X-345302Y209760D01*
X-343440Y207898D01*
X-341160Y206581D01*
X-338616Y205900D01*
X-335984D01*
X-333440Y206581D01*
X-331160Y207898D01*
X-329298Y209760D01*
X-327981Y212040D01*
X-327300Y214583D01*
Y217216D01*
X-327981Y219760D01*
X-329298Y222040D01*
X-331160Y223902D01*
X-333440Y225219D01*
X-335984Y225900D01*
D02*
G37*
G36*
X-361384D02*
X-364016D01*
X-366560Y225219D01*
X-368840Y223902D01*
X-370702Y222040D01*
X-372019Y219760D01*
X-372700Y217216D01*
Y214583D01*
X-372019Y212040D01*
X-370702Y209760D01*
X-368840Y207898D01*
X-366560Y206581D01*
X-364016Y205900D01*
X-361384D01*
X-358840Y206581D01*
X-356560Y207898D01*
X-354698Y209760D01*
X-353382Y212040D01*
X-352700Y214583D01*
Y217216D01*
X-353382Y219760D01*
X-354698Y222040D01*
X-356560Y223902D01*
X-358840Y225219D01*
X-361384Y225900D01*
D02*
G37*
G36*
X-463000Y229500D02*
X-487000D01*
Y185500D01*
X-463000D01*
Y229500D01*
D02*
G37*
G36*
X-335984Y200500D02*
X-338616D01*
X-341160Y199818D01*
X-343440Y198502D01*
X-345302Y196640D01*
X-346618Y194360D01*
X-347300Y191817D01*
Y189184D01*
X-346618Y186640D01*
X-345302Y184360D01*
X-343440Y182498D01*
X-341160Y181182D01*
X-338616Y180500D01*
X-335984D01*
X-333440Y181182D01*
X-331160Y182498D01*
X-329298Y184360D01*
X-327981Y186640D01*
X-327300Y189184D01*
Y191817D01*
X-327981Y194360D01*
X-329298Y196640D01*
X-331160Y198502D01*
X-333440Y199818D01*
X-335984Y200500D01*
D02*
G37*
G36*
X-361384D02*
X-364016D01*
X-366560Y199818D01*
X-368840Y198502D01*
X-370702Y196640D01*
X-372019Y194360D01*
X-372700Y191817D01*
Y189184D01*
X-372019Y186640D01*
X-370702Y184360D01*
X-368840Y182498D01*
X-366560Y181182D01*
X-364016Y180500D01*
X-361384D01*
X-358840Y181182D01*
X-356560Y182498D01*
X-354698Y184360D01*
X-353382Y186640D01*
X-352700Y189184D01*
Y191817D01*
X-353382Y194360D01*
X-354698Y196640D01*
X-356560Y198502D01*
X-358840Y199818D01*
X-361384Y200500D01*
D02*
G37*
G36*
X416167Y205843D02*
X413008D01*
X409956Y205025D01*
X407219Y203445D01*
X404985Y201211D01*
X403405Y198474D01*
X403058Y197177D01*
X398843D01*
X397567Y196923D01*
X396485Y196200D01*
X380619Y180334D01*
X367632D01*
X367292Y181604D01*
X368840Y182498D01*
X370702Y184360D01*
X372019Y186640D01*
X372700Y189184D01*
Y191817D01*
X372019Y194360D01*
X370702Y196640D01*
X368840Y198502D01*
X366560Y199818D01*
X364016Y200500D01*
X361384D01*
X358840Y199818D01*
X356560Y198502D01*
X354698Y196640D01*
X353382Y194360D01*
X352700Y191817D01*
Y189184D01*
X353382Y186640D01*
X354698Y184360D01*
X356560Y182498D01*
X358108Y181604D01*
X357768Y180334D01*
X342232D01*
X341892Y181604D01*
X343440Y182498D01*
X345302Y184360D01*
X346618Y186640D01*
X347300Y189184D01*
Y191817D01*
X346618Y194360D01*
X345302Y196640D01*
X343440Y198502D01*
X341160Y199818D01*
X338616Y200500D01*
X335984D01*
X333440Y199818D01*
X331160Y198502D01*
X329298Y196640D01*
X327981Y194360D01*
X327300Y191817D01*
Y189184D01*
X327981Y186640D01*
X329298Y184360D01*
X331160Y182498D01*
X332708Y181604D01*
X332368Y180334D01*
X329000D01*
X327724Y180080D01*
X326642Y179358D01*
X313619Y166334D01*
X277381D01*
X275973Y167742D01*
X276000Y167806D01*
Y170194D01*
X275086Y172399D01*
X273399Y174086D01*
X271194Y175000D01*
X268806D01*
X266601Y174086D01*
X264913Y172399D01*
X264000Y170194D01*
Y167806D01*
X264913Y165601D01*
X266601Y163913D01*
X268806Y163000D01*
X271194D01*
X271258Y163027D01*
X273643Y160643D01*
X274724Y159920D01*
X276000Y159666D01*
X315000D01*
X316276Y159920D01*
X317358Y160643D01*
X327663Y170948D01*
X328679Y170168D01*
X327981Y168960D01*
X327300Y166416D01*
Y163783D01*
X327981Y161240D01*
X329298Y158960D01*
X329921Y158337D01*
X329435Y157164D01*
X316308D01*
X315032Y156910D01*
X313950Y156187D01*
X312303Y154541D01*
X311194Y155000D01*
X308806D01*
X306601Y154087D01*
X304913Y152399D01*
X304000Y150194D01*
Y147807D01*
X304913Y145601D01*
X306601Y143913D01*
X307147Y143687D01*
Y142313D01*
X306601Y142087D01*
X304913Y140399D01*
X304000Y138194D01*
Y135807D01*
X304913Y133601D01*
X306601Y131913D01*
X308806Y131000D01*
X311194D01*
X313399Y131913D01*
X315086Y133601D01*
X315113Y133666D01*
X322681D01*
X330274Y126073D01*
X331356Y125350D01*
X332632Y125096D01*
X334047D01*
X334214Y123826D01*
X333440Y123618D01*
X331160Y122302D01*
X329298Y120440D01*
X327981Y118160D01*
X327300Y115617D01*
Y112984D01*
X327981Y110440D01*
X329298Y108160D01*
X331160Y106298D01*
X333440Y104981D01*
X334214Y104774D01*
X334047Y103504D01*
X325334D01*
Y121512D01*
X325080Y122788D01*
X324357Y123870D01*
X322870Y125358D01*
X321788Y126080D01*
X320512Y126334D01*
X315113D01*
X315086Y126399D01*
X313399Y128087D01*
X311194Y129000D01*
X308806D01*
X306601Y128087D01*
X304913Y126399D01*
X304000Y124193D01*
Y121806D01*
X304913Y119601D01*
X306601Y117914D01*
X307147Y117687D01*
Y116313D01*
X306601Y116087D01*
X304913Y114399D01*
X304000Y112193D01*
Y109806D01*
X304913Y107601D01*
X306601Y105913D01*
X306666Y105887D01*
Y100262D01*
X306920Y98986D01*
X307642Y97904D01*
X330274Y75272D01*
X331356Y74550D01*
X332632Y74296D01*
X334047D01*
X334214Y73026D01*
X333440Y72818D01*
X331160Y71502D01*
X329298Y69640D01*
X327981Y67360D01*
X327300Y64816D01*
Y62183D01*
X327981Y59640D01*
X329298Y57360D01*
X331160Y55498D01*
X333440Y54181D01*
X335984Y53500D01*
X338616D01*
X341160Y54181D01*
X343440Y55498D01*
X345302Y57360D01*
X346618Y59640D01*
X347300Y62183D01*
Y64816D01*
X346618Y67360D01*
X345302Y69640D01*
X343440Y71502D01*
X341160Y72818D01*
X340386Y73026D01*
X340553Y74296D01*
X359447D01*
X359614Y73026D01*
X358840Y72818D01*
X356560Y71502D01*
X354698Y69640D01*
X353382Y67360D01*
X352700Y64816D01*
Y62183D01*
X353382Y59640D01*
X354698Y57360D01*
X356560Y55498D01*
X358840Y54181D01*
X361384Y53500D01*
X364016D01*
X366560Y54181D01*
X368840Y55498D01*
X370702Y57360D01*
X372019Y59640D01*
X372700Y62183D01*
Y64816D01*
X372019Y67360D01*
X371867Y67621D01*
X372884Y68401D01*
X382666Y58619D01*
Y-13000D01*
X382920Y-14276D01*
X383643Y-15358D01*
X403420Y-35135D01*
X404502Y-35858D01*
X405778Y-36112D01*
X407588D01*
Y-36307D01*
X408405Y-39359D01*
X409985Y-42096D01*
X412219Y-44330D01*
X414956Y-45910D01*
X418008Y-46727D01*
X421167D01*
X424219Y-45910D01*
X426956Y-44330D01*
X429190Y-42096D01*
X430770Y-39359D01*
X431587Y-36307D01*
Y-33148D01*
X430770Y-30096D01*
X429190Y-27359D01*
X426956Y-25125D01*
X424219Y-23545D01*
X421167Y-22727D01*
X418008D01*
X414956Y-23545D01*
X412219Y-25125D01*
X409985Y-27359D01*
X408782Y-29443D01*
X407159D01*
X389334Y-11619D01*
Y60000D01*
X389080Y61276D01*
X388358Y62358D01*
X370728Y79988D01*
X370127Y80389D01*
X369848Y81715D01*
X369896Y81954D01*
X370702Y82760D01*
X372019Y85040D01*
X372700Y87584D01*
Y88464D01*
X373873Y88950D01*
X390666Y72157D01*
Y25000D01*
X390920Y23724D01*
X391642Y22643D01*
X400570Y13715D01*
X401651Y12992D01*
X402927Y12738D01*
X408058D01*
X408405Y11441D01*
X409985Y8704D01*
X412219Y6470D01*
X414956Y4890D01*
X418008Y4073D01*
X421167D01*
X424219Y4890D01*
X426956Y6470D01*
X429190Y8704D01*
X430770Y11441D01*
X431587Y14493D01*
Y17652D01*
X430770Y20704D01*
X429190Y23441D01*
X426956Y25675D01*
X424219Y27255D01*
X421167Y28073D01*
X418008D01*
X414956Y27255D01*
X412219Y25675D01*
X409985Y23441D01*
X408405Y20704D01*
X408058Y19407D01*
X404308D01*
X397334Y26381D01*
Y73538D01*
X397080Y74814D01*
X396357Y75896D01*
X369726Y102528D01*
X368644Y103250D01*
X367368Y103504D01*
X365953D01*
X365786Y104774D01*
X366560Y104981D01*
X368840Y106298D01*
X370702Y108160D01*
X372019Y110440D01*
X372700Y112984D01*
Y114789D01*
X373970Y115315D01*
X405263Y84022D01*
X404588Y81502D01*
Y78343D01*
X405405Y75291D01*
X406985Y72554D01*
X409219Y70320D01*
X411956Y68740D01*
X415008Y67923D01*
X418167D01*
X421219Y68740D01*
X423956Y70320D01*
X426190Y72554D01*
X427770Y75291D01*
X428587Y78343D01*
Y81502D01*
X427770Y84554D01*
X426190Y87291D01*
X423956Y89525D01*
X421219Y91105D01*
X418167Y91923D01*
X415008D01*
X411956Y91105D01*
X409219Y89525D01*
X409205Y89510D01*
X368614Y130101D01*
X368821Y131687D01*
X368840Y131698D01*
X370702Y133560D01*
X372019Y135840D01*
X372700Y138384D01*
Y141017D01*
X372019Y143560D01*
X370702Y145840D01*
X368840Y147702D01*
X366560Y149018D01*
X365719Y149244D01*
X365882Y150515D01*
X391217Y150666D01*
X391929D01*
X406077Y136518D01*
X405405Y135354D01*
X404588Y132302D01*
Y129143D01*
X405405Y126091D01*
X406985Y123354D01*
X409219Y121120D01*
X411956Y119540D01*
X415008Y118722D01*
X418167D01*
X421219Y119540D01*
X423956Y121120D01*
X426190Y123354D01*
X427770Y126091D01*
X428587Y129143D01*
Y132302D01*
X427770Y135354D01*
X426190Y138091D01*
X423956Y140325D01*
X421219Y141905D01*
X418167Y142723D01*
X415008D01*
X411956Y141905D01*
X410792Y141233D01*
X395667Y156357D01*
X394586Y157080D01*
X393310Y157334D01*
X391206D01*
X391196Y157332D01*
X391186Y157334D01*
X370615Y157211D01*
X370125Y158383D01*
X370702Y158960D01*
X372019Y161240D01*
X372700Y163783D01*
Y166416D01*
X372019Y168960D01*
X370702Y171240D01*
X369546Y172396D01*
X370072Y173666D01*
X382000D01*
X383276Y173920D01*
X384357Y174643D01*
X400224Y190508D01*
X403058D01*
X403405Y189211D01*
X404985Y186474D01*
X407219Y184240D01*
X409956Y182660D01*
X413008Y181843D01*
X416167D01*
X419219Y182660D01*
X421956Y184240D01*
X424190Y186474D01*
X425770Y189211D01*
X426587Y192263D01*
Y195422D01*
X425770Y198474D01*
X424190Y201211D01*
X421956Y203445D01*
X419219Y205025D01*
X416167Y205843D01*
D02*
G37*
G36*
X-304806Y190700D02*
X-307194D01*
X-309399Y189787D01*
X-311087Y188099D01*
X-312000Y185893D01*
Y183507D01*
X-311087Y181301D01*
X-309399Y179613D01*
X-307194Y178700D01*
X-304806D01*
X-302601Y179613D01*
X-300913Y181301D01*
X-300000Y183507D01*
Y185893D01*
X-300913Y188099D01*
X-302601Y189787D01*
X-304806Y190700D01*
D02*
G37*
G36*
X26495Y188750D02*
X24505D01*
X22668Y187989D01*
X21261Y186582D01*
X20500Y184745D01*
Y182755D01*
X21261Y180918D01*
X22304Y179875D01*
X21261Y178832D01*
X20500Y176995D01*
Y175005D01*
X21261Y173168D01*
X22421Y172008D01*
X22418Y171989D01*
X21011Y170582D01*
X20250Y168745D01*
Y166755D01*
X21011Y164918D01*
X22418Y163511D01*
X24255Y162750D01*
X26244D01*
X28082Y163511D01*
X29489Y164918D01*
X30250Y166755D01*
Y168745D01*
X29489Y170582D01*
X28329Y171742D01*
X28332Y171761D01*
X29739Y173168D01*
X30500Y175005D01*
Y176995D01*
X29739Y178832D01*
X28696Y179875D01*
X29739Y180918D01*
X30500Y182755D01*
Y184745D01*
X29739Y186582D01*
X28332Y187989D01*
X26495Y188750D01*
D02*
G37*
G36*
X-335984Y175100D02*
X-338616D01*
X-341160Y174419D01*
X-343440Y173102D01*
X-345302Y171240D01*
X-346618Y168960D01*
X-347300Y166416D01*
Y163783D01*
X-346618Y161240D01*
X-345302Y158960D01*
X-343440Y157098D01*
X-341160Y155781D01*
X-338616Y155100D01*
X-335984D01*
X-333440Y155781D01*
X-331160Y157098D01*
X-329298Y158960D01*
X-327981Y161240D01*
X-327300Y163783D01*
Y166416D01*
X-327981Y168960D01*
X-329298Y171240D01*
X-331160Y173102D01*
X-333440Y174419D01*
X-335984Y175100D01*
D02*
G37*
G36*
X-361384D02*
X-364016D01*
X-366560Y174419D01*
X-368840Y173102D01*
X-370702Y171240D01*
X-372019Y168960D01*
X-372700Y166416D01*
Y163783D01*
X-372019Y161240D01*
X-370702Y158960D01*
X-368840Y157098D01*
X-366560Y155781D01*
X-364016Y155100D01*
X-361384D01*
X-358840Y155781D01*
X-356560Y157098D01*
X-354698Y158960D01*
X-353382Y161240D01*
X-352700Y163783D01*
Y166416D01*
X-353382Y168960D01*
X-354698Y171240D01*
X-356560Y173102D01*
X-358840Y174419D01*
X-361384Y175100D01*
D02*
G37*
G36*
X-418000Y172500D02*
X-462000D01*
Y148500D01*
X-418000D01*
Y172500D01*
D02*
G37*
G36*
X-250807Y149000D02*
X-253193D01*
X-255399Y148087D01*
X-257087Y146399D01*
X-258000Y144193D01*
Y141806D01*
X-257087Y139601D01*
X-255399Y137913D01*
X-253193Y137000D01*
X-250807D01*
X-248601Y137913D01*
X-246914Y139601D01*
X-246000Y141806D01*
Y144193D01*
X-246914Y146399D01*
X-248601Y148087D01*
X-250807Y149000D01*
D02*
G37*
G36*
X-263806Y143000D02*
X-266194D01*
X-268399Y142087D01*
X-270087Y140399D01*
X-271000Y138194D01*
Y135807D01*
X-270087Y133601D01*
X-268399Y131913D01*
X-266194Y131000D01*
X-263806D01*
X-261601Y131913D01*
X-259914Y133601D01*
X-259000Y135807D01*
Y138194D01*
X-259914Y140399D01*
X-261601Y142087D01*
X-263806Y143000D01*
D02*
G37*
G36*
X-335984Y149700D02*
X-338616D01*
X-341160Y149018D01*
X-343440Y147702D01*
X-345302Y145840D01*
X-346618Y143560D01*
X-347300Y141017D01*
Y138384D01*
X-346618Y135840D01*
X-345302Y133560D01*
X-343440Y131698D01*
X-341160Y130381D01*
X-338616Y129700D01*
X-335984D01*
X-333440Y130381D01*
X-331160Y131698D01*
X-329298Y133560D01*
X-327981Y135840D01*
X-327300Y138384D01*
Y141017D01*
X-327981Y143560D01*
X-329298Y145840D01*
X-331160Y147702D01*
X-333440Y149018D01*
X-335984Y149700D01*
D02*
G37*
G36*
X-361384D02*
X-364016D01*
X-366560Y149018D01*
X-368840Y147702D01*
X-370702Y145840D01*
X-372019Y143560D01*
X-372700Y141017D01*
Y138384D01*
X-372019Y135840D01*
X-370702Y133560D01*
X-368840Y131698D01*
X-366560Y130381D01*
X-364016Y129700D01*
X-361384D01*
X-358840Y130381D01*
X-356560Y131698D01*
X-354698Y133560D01*
X-353382Y135840D01*
X-352700Y138384D01*
Y141017D01*
X-353382Y143560D01*
X-354698Y145840D01*
X-356560Y147702D01*
X-358840Y149018D01*
X-361384Y149700D01*
D02*
G37*
G36*
X-335984Y124300D02*
X-338616D01*
X-341160Y123618D01*
X-343440Y122302D01*
X-345302Y120440D01*
X-346618Y118160D01*
X-347300Y115617D01*
Y112984D01*
X-346618Y110440D01*
X-345302Y108160D01*
X-343440Y106298D01*
X-341160Y104981D01*
X-338616Y104300D01*
X-335984D01*
X-333440Y104981D01*
X-331160Y106298D01*
X-329298Y108160D01*
X-327981Y110440D01*
X-327300Y112984D01*
Y115617D01*
X-327981Y118160D01*
X-329298Y120440D01*
X-331160Y122302D01*
X-333440Y123618D01*
X-335984Y124300D01*
D02*
G37*
G36*
X-361384D02*
X-364016D01*
X-366560Y123618D01*
X-368840Y122302D01*
X-370702Y120440D01*
X-372019Y118160D01*
X-372700Y115617D01*
Y112984D01*
X-372019Y110440D01*
X-370702Y108160D01*
X-368840Y106298D01*
X-366560Y104981D01*
X-364016Y104300D01*
X-361384D01*
X-358840Y104981D01*
X-356560Y106298D01*
X-354698Y108160D01*
X-353382Y110440D01*
X-352700Y112984D01*
Y115617D01*
X-353382Y118160D01*
X-354698Y120440D01*
X-356560Y122302D01*
X-358840Y123618D01*
X-361384Y124300D01*
D02*
G37*
G36*
X-146755Y96750D02*
X-148745D01*
X-150582Y95989D01*
X-151989Y94582D01*
X-152577Y93163D01*
X-153923D01*
X-154511Y94582D01*
X-155918Y95989D01*
X-157755Y96750D01*
X-159745D01*
X-161582Y95989D01*
X-162989Y94582D01*
X-163577Y93163D01*
X-164923D01*
X-165511Y94582D01*
X-166918Y95989D01*
X-168755Y96750D01*
X-170745D01*
X-172582Y95989D01*
X-173989Y94582D01*
X-173990Y94579D01*
X-175260D01*
X-175261Y94582D01*
X-176668Y95989D01*
X-178505Y96750D01*
X-180495D01*
X-182332Y95989D01*
X-183739Y94582D01*
X-184327Y93163D01*
X-185673D01*
X-186261Y94582D01*
X-187668Y95989D01*
X-189505Y96750D01*
X-191495D01*
X-193332Y95989D01*
X-194739Y94582D01*
X-195327Y93163D01*
X-196673D01*
X-197261Y94582D01*
X-198668Y95989D01*
X-200505Y96750D01*
X-202495D01*
X-204332Y95989D01*
X-205739Y94582D01*
X-206500Y92745D01*
Y90755D01*
X-205739Y88918D01*
X-204821Y88000D01*
X-205739Y87082D01*
X-206500Y85245D01*
Y83255D01*
X-205739Y81418D01*
X-204446Y80125D01*
X-205739Y78832D01*
X-206500Y76995D01*
Y75005D01*
X-205739Y73168D01*
X-205026Y72455D01*
X-204430Y71625D01*
X-205026Y70795D01*
X-205739Y70082D01*
X-206500Y68245D01*
Y66255D01*
X-205739Y64418D01*
X-204332Y63011D01*
X-202495Y62250D01*
X-200505D01*
X-198668Y63011D01*
X-197261Y64418D01*
X-196673Y65837D01*
X-195327D01*
X-194739Y64418D01*
X-193332Y63011D01*
X-191495Y62250D01*
X-189505D01*
X-187668Y63011D01*
X-186261Y64418D01*
X-185673Y65837D01*
X-184327D01*
X-183739Y64418D01*
X-182332Y63011D01*
X-180495Y62250D01*
X-178505D01*
X-176668Y63011D01*
X-175261Y64418D01*
X-175260Y64421D01*
X-173990D01*
X-173989Y64418D01*
X-172582Y63011D01*
X-170745Y62250D01*
X-168755D01*
X-166918Y63011D01*
X-165511Y64418D01*
X-164923Y65837D01*
X-163577D01*
X-162989Y64418D01*
X-161582Y63011D01*
X-159745Y62250D01*
X-157755D01*
X-155918Y63011D01*
X-154511Y64418D01*
X-153923Y65837D01*
X-152577D01*
X-151989Y64418D01*
X-150582Y63011D01*
X-148745Y62250D01*
X-146755D01*
X-144918Y63011D01*
X-143511Y64418D01*
X-142750Y66255D01*
Y68245D01*
X-143511Y70082D01*
X-144224Y70795D01*
X-144820Y71625D01*
X-144224Y72455D01*
X-143511Y73168D01*
X-142750Y75005D01*
Y76995D01*
X-143511Y78832D01*
X-144804Y80125D01*
X-143511Y81418D01*
X-142750Y83255D01*
Y85245D01*
X-143511Y87082D01*
X-144429Y88000D01*
X-143511Y88918D01*
X-142750Y90755D01*
Y92745D01*
X-143511Y94582D01*
X-144918Y95989D01*
X-146755Y96750D01*
D02*
G37*
G36*
X-335984Y98900D02*
X-338616D01*
X-341160Y98218D01*
X-343440Y96902D01*
X-345302Y95040D01*
X-346618Y92760D01*
X-347300Y90217D01*
Y87584D01*
X-346618Y85040D01*
X-345302Y82760D01*
X-343440Y80898D01*
X-341160Y79581D01*
X-338616Y78900D01*
X-335984D01*
X-333440Y79581D01*
X-331160Y80898D01*
X-329298Y82760D01*
X-327981Y85040D01*
X-327300Y87584D01*
Y90217D01*
X-327981Y92760D01*
X-329298Y95040D01*
X-331160Y96902D01*
X-333440Y98218D01*
X-335984Y98900D01*
D02*
G37*
G36*
X-361384D02*
X-364016D01*
X-366560Y98218D01*
X-368840Y96902D01*
X-370702Y95040D01*
X-372019Y92760D01*
X-372700Y90217D01*
Y87584D01*
X-372019Y85040D01*
X-370702Y82760D01*
X-368840Y80898D01*
X-366560Y79581D01*
X-364016Y78900D01*
X-361384D01*
X-358840Y79581D01*
X-356560Y80898D01*
X-354698Y82760D01*
X-353382Y85040D01*
X-352700Y87584D01*
Y90217D01*
X-353382Y92760D01*
X-354698Y95040D01*
X-356560Y96902D01*
X-358840Y98218D01*
X-361384Y98900D01*
D02*
G37*
G36*
X64495Y82750D02*
X62505D01*
X60668Y81989D01*
X59261Y80582D01*
X58500Y78745D01*
Y76755D01*
X59261Y74918D01*
X60668Y73511D01*
X62505Y72750D01*
X64495D01*
X66332Y73511D01*
X67739Y74918D01*
X68500Y76755D01*
Y78745D01*
X67739Y80582D01*
X66332Y81989D01*
X64495Y82750D01*
D02*
G37*
G36*
X-465500Y109500D02*
X-489500D01*
Y65500D01*
X-465500D01*
Y109500D01*
D02*
G37*
G36*
X-335984Y73500D02*
X-338616D01*
X-341160Y72818D01*
X-343440Y71502D01*
X-345302Y69640D01*
X-346618Y67360D01*
X-347300Y64816D01*
Y62183D01*
X-346618Y59640D01*
X-345302Y57360D01*
X-343440Y55498D01*
X-341160Y54181D01*
X-338616Y53500D01*
X-335984D01*
X-333440Y54181D01*
X-331160Y55498D01*
X-329298Y57360D01*
X-327981Y59640D01*
X-327300Y62183D01*
Y64816D01*
X-327981Y67360D01*
X-329298Y69640D01*
X-331160Y71502D01*
X-333440Y72818D01*
X-335984Y73500D01*
D02*
G37*
G36*
X-361384D02*
X-364016D01*
X-366560Y72818D01*
X-368840Y71502D01*
X-370702Y69640D01*
X-372019Y67360D01*
X-372700Y64816D01*
Y62183D01*
X-372019Y59640D01*
X-370702Y57360D01*
X-368840Y55498D01*
X-366560Y54181D01*
X-364016Y53500D01*
X-361384D01*
X-358840Y54181D01*
X-356560Y55498D01*
X-354698Y57360D01*
X-353382Y59640D01*
X-352700Y62183D01*
Y64816D01*
X-353382Y67360D01*
X-354698Y69640D01*
X-356560Y71502D01*
X-358840Y72818D01*
X-361384Y73500D01*
D02*
G37*
G36*
X-420500Y52500D02*
X-464500D01*
Y28500D01*
X-420500D01*
Y52500D01*
D02*
G37*
G36*
X364016Y48100D02*
X361384D01*
X358840Y47418D01*
X356560Y46102D01*
X354698Y44240D01*
X353382Y41960D01*
X352700Y39416D01*
Y36783D01*
X353382Y34240D01*
X354698Y31960D01*
X356560Y30098D01*
X358840Y28781D01*
X361384Y28100D01*
X364016D01*
X366560Y28781D01*
X368840Y30098D01*
X370702Y31960D01*
X372019Y34240D01*
X372700Y36783D01*
Y39416D01*
X372019Y41960D01*
X370702Y44240D01*
X368840Y46102D01*
X366560Y47418D01*
X364016Y48100D01*
D02*
G37*
G36*
X338616D02*
X335984D01*
X333440Y47418D01*
X331160Y46102D01*
X329298Y44240D01*
X327981Y41960D01*
X327300Y39416D01*
Y36783D01*
X327981Y34240D01*
X329298Y31960D01*
X331160Y30098D01*
X333440Y28781D01*
X335984Y28100D01*
X338616D01*
X341160Y28781D01*
X343440Y30098D01*
X345302Y31960D01*
X346618Y34240D01*
X347300Y36783D01*
Y39416D01*
X346618Y41960D01*
X345302Y44240D01*
X343440Y46102D01*
X341160Y47418D01*
X338616Y48100D01*
D02*
G37*
G36*
X-335984D02*
X-338616D01*
X-341160Y47418D01*
X-343440Y46102D01*
X-345302Y44240D01*
X-346618Y41960D01*
X-347300Y39416D01*
Y36783D01*
X-346618Y34240D01*
X-345302Y31960D01*
X-343440Y30098D01*
X-341160Y28781D01*
X-338616Y28100D01*
X-335984D01*
X-333440Y28781D01*
X-331160Y30098D01*
X-329298Y31960D01*
X-327981Y34240D01*
X-327300Y36783D01*
Y39416D01*
X-327981Y41960D01*
X-329298Y44240D01*
X-331160Y46102D01*
X-333440Y47418D01*
X-335984Y48100D01*
D02*
G37*
G36*
X-361384D02*
X-364016D01*
X-366560Y47418D01*
X-368840Y46102D01*
X-370702Y44240D01*
X-372019Y41960D01*
X-372700Y39416D01*
Y36783D01*
X-372019Y34240D01*
X-370702Y31960D01*
X-368840Y30098D01*
X-366560Y28781D01*
X-364016Y28100D01*
X-361384D01*
X-358840Y28781D01*
X-356560Y30098D01*
X-354698Y31960D01*
X-353382Y34240D01*
X-352700Y36783D01*
Y39416D01*
X-353382Y41960D01*
X-354698Y44240D01*
X-356560Y46102D01*
X-358840Y47418D01*
X-361384Y48100D01*
D02*
G37*
G36*
X364016Y22700D02*
X361384D01*
X358840Y22018D01*
X356560Y20702D01*
X354698Y18840D01*
X353382Y16560D01*
X352700Y14016D01*
Y11384D01*
X353382Y8840D01*
X354698Y6560D01*
X356560Y4698D01*
X358840Y3381D01*
X361384Y2700D01*
X364016D01*
X366560Y3381D01*
X368840Y4698D01*
X370702Y6560D01*
X372019Y8840D01*
X372700Y11384D01*
Y14016D01*
X372019Y16560D01*
X370702Y18840D01*
X368840Y20702D01*
X366560Y22018D01*
X364016Y22700D01*
D02*
G37*
G36*
X338616D02*
X335984D01*
X333440Y22018D01*
X331160Y20702D01*
X329298Y18840D01*
X327981Y16560D01*
X327300Y14016D01*
Y11384D01*
X327981Y8840D01*
X329298Y6560D01*
X331160Y4698D01*
X333440Y3381D01*
X335984Y2700D01*
X338616D01*
X341160Y3381D01*
X343440Y4698D01*
X345302Y6560D01*
X346618Y8840D01*
X347300Y11384D01*
Y14016D01*
X346618Y16560D01*
X345302Y18840D01*
X343440Y20702D01*
X341160Y22018D01*
X338616Y22700D01*
D02*
G37*
G36*
X-335984D02*
X-338616D01*
X-341160Y22018D01*
X-343440Y20702D01*
X-345302Y18840D01*
X-346618Y16560D01*
X-347300Y14016D01*
Y11384D01*
X-346618Y8840D01*
X-345302Y6560D01*
X-343440Y4698D01*
X-341160Y3381D01*
X-338616Y2700D01*
X-335984D01*
X-333440Y3381D01*
X-331160Y4698D01*
X-329298Y6560D01*
X-327981Y8840D01*
X-327300Y11384D01*
Y14016D01*
X-327981Y16560D01*
X-329298Y18840D01*
X-331160Y20702D01*
X-333440Y22018D01*
X-335984Y22700D01*
D02*
G37*
G36*
X-361384D02*
X-364016D01*
X-366560Y22018D01*
X-368840Y20702D01*
X-370702Y18840D01*
X-372019Y16560D01*
X-372700Y14016D01*
Y11384D01*
X-372019Y8840D01*
X-370702Y6560D01*
X-368840Y4698D01*
X-366560Y3381D01*
X-364016Y2700D01*
X-361384D01*
X-358840Y3381D01*
X-356560Y4698D01*
X-354698Y6560D01*
X-353382Y8840D01*
X-352700Y11384D01*
Y14016D01*
X-353382Y16560D01*
X-354698Y18840D01*
X-356560Y20702D01*
X-358840Y22018D01*
X-361384Y22700D01*
D02*
G37*
G36*
X364016Y-2700D02*
X361384D01*
X358840Y-3381D01*
X356560Y-4698D01*
X354698Y-6560D01*
X353382Y-8840D01*
X352700Y-11384D01*
Y-14016D01*
X353382Y-16560D01*
X354698Y-18840D01*
X356560Y-20702D01*
X358840Y-22018D01*
X361384Y-22700D01*
X364016D01*
X366560Y-22018D01*
X368840Y-20702D01*
X370702Y-18840D01*
X372019Y-16560D01*
X372700Y-14016D01*
Y-11384D01*
X372019Y-8840D01*
X370702Y-6560D01*
X368840Y-4698D01*
X366560Y-3381D01*
X364016Y-2700D01*
D02*
G37*
G36*
X338616D02*
X335984D01*
X333440Y-3381D01*
X331160Y-4698D01*
X329298Y-6560D01*
X327981Y-8840D01*
X327300Y-11384D01*
Y-14016D01*
X327981Y-16560D01*
X329298Y-18840D01*
X331160Y-20702D01*
X333440Y-22018D01*
X335984Y-22700D01*
X338616D01*
X341160Y-22018D01*
X343440Y-20702D01*
X345302Y-18840D01*
X346618Y-16560D01*
X347300Y-14016D01*
Y-11384D01*
X346618Y-8840D01*
X345302Y-6560D01*
X343440Y-4698D01*
X341160Y-3381D01*
X338616Y-2700D01*
D02*
G37*
G36*
X-335984D02*
X-338616D01*
X-341160Y-3381D01*
X-343440Y-4698D01*
X-345302Y-6560D01*
X-346618Y-8840D01*
X-347300Y-11384D01*
Y-14016D01*
X-346618Y-16560D01*
X-345302Y-18840D01*
X-343440Y-20702D01*
X-341160Y-22018D01*
X-338616Y-22700D01*
X-335984D01*
X-333440Y-22018D01*
X-331160Y-20702D01*
X-329298Y-18840D01*
X-327981Y-16560D01*
X-327300Y-14016D01*
Y-11384D01*
X-327981Y-8840D01*
X-329298Y-6560D01*
X-331160Y-4698D01*
X-333440Y-3381D01*
X-335984Y-2700D01*
D02*
G37*
G36*
X-361384D02*
X-364016D01*
X-366560Y-3381D01*
X-368840Y-4698D01*
X-370702Y-6560D01*
X-372019Y-8840D01*
X-372700Y-11384D01*
Y-14016D01*
X-372019Y-16560D01*
X-370702Y-18840D01*
X-368840Y-20702D01*
X-366560Y-22018D01*
X-364016Y-22700D01*
X-361384D01*
X-358840Y-22018D01*
X-356560Y-20702D01*
X-354698Y-18840D01*
X-353382Y-16560D01*
X-352700Y-14016D01*
Y-11384D01*
X-353382Y-8840D01*
X-354698Y-6560D01*
X-356560Y-4698D01*
X-358840Y-3381D01*
X-361384Y-2700D01*
D02*
G37*
G36*
X364016Y-28100D02*
X361384D01*
X358840Y-28781D01*
X356560Y-30098D01*
X354698Y-31960D01*
X353382Y-34240D01*
X352700Y-36783D01*
Y-39416D01*
X353382Y-41960D01*
X354698Y-44240D01*
X356560Y-46102D01*
X358840Y-47418D01*
X361384Y-48100D01*
X364016D01*
X366560Y-47418D01*
X368840Y-46102D01*
X370702Y-44240D01*
X372019Y-41960D01*
X372700Y-39416D01*
Y-36783D01*
X372019Y-34240D01*
X370702Y-31960D01*
X368840Y-30098D01*
X366560Y-28781D01*
X364016Y-28100D01*
D02*
G37*
G36*
X338616D02*
X335984D01*
X333440Y-28781D01*
X331160Y-30098D01*
X329298Y-31960D01*
X327981Y-34240D01*
X327300Y-36783D01*
Y-39416D01*
X327981Y-41960D01*
X329298Y-44240D01*
X331160Y-46102D01*
X333440Y-47418D01*
X335984Y-48100D01*
X338616D01*
X341160Y-47418D01*
X343440Y-46102D01*
X345302Y-44240D01*
X346618Y-41960D01*
X347300Y-39416D01*
Y-36783D01*
X346618Y-34240D01*
X345302Y-31960D01*
X343440Y-30098D01*
X341160Y-28781D01*
X338616Y-28100D01*
D02*
G37*
G36*
X-335984D02*
X-338616D01*
X-341160Y-28781D01*
X-343440Y-30098D01*
X-345302Y-31960D01*
X-346618Y-34240D01*
X-347300Y-36783D01*
Y-39416D01*
X-346618Y-41960D01*
X-345302Y-44240D01*
X-343440Y-46102D01*
X-341160Y-47418D01*
X-338616Y-48100D01*
X-335984D01*
X-333440Y-47418D01*
X-331160Y-46102D01*
X-329298Y-44240D01*
X-327981Y-41960D01*
X-327300Y-39416D01*
Y-36783D01*
X-327981Y-34240D01*
X-329298Y-31960D01*
X-331160Y-30098D01*
X-333440Y-28781D01*
X-335984Y-28100D01*
D02*
G37*
G36*
X-361384D02*
X-364016D01*
X-366560Y-28781D01*
X-368840Y-30098D01*
X-370702Y-31960D01*
X-372019Y-34240D01*
X-372700Y-36783D01*
Y-39416D01*
X-372019Y-41960D01*
X-370702Y-44240D01*
X-368840Y-46102D01*
X-366560Y-47418D01*
X-364016Y-48100D01*
X-361384D01*
X-358840Y-47418D01*
X-356560Y-46102D01*
X-354698Y-44240D01*
X-353382Y-41960D01*
X-352700Y-39416D01*
Y-36783D01*
X-353382Y-34240D01*
X-354698Y-31960D01*
X-356560Y-30098D01*
X-358840Y-28781D01*
X-361384Y-28100D01*
D02*
G37*
G36*
X-465000Y-8000D02*
X-489000D01*
Y-52000D01*
X-465000D01*
Y-8000D01*
D02*
G37*
G36*
X364016Y-53500D02*
X361384D01*
X358840Y-54181D01*
X356560Y-55498D01*
X354698Y-57360D01*
X353382Y-59640D01*
X352700Y-62183D01*
Y-64816D01*
X353382Y-67360D01*
X354698Y-69640D01*
X356560Y-71502D01*
X358840Y-72818D01*
X361384Y-73500D01*
X364016D01*
X366560Y-72818D01*
X368840Y-71502D01*
X370702Y-69640D01*
X372019Y-67360D01*
X372700Y-64816D01*
Y-62183D01*
X372019Y-59640D01*
X370702Y-57360D01*
X368840Y-55498D01*
X366560Y-54181D01*
X364016Y-53500D01*
D02*
G37*
G36*
X338616D02*
X335984D01*
X333440Y-54181D01*
X331160Y-55498D01*
X329298Y-57360D01*
X327981Y-59640D01*
X327300Y-62183D01*
Y-64816D01*
X327981Y-67360D01*
X329298Y-69640D01*
X331160Y-71502D01*
X333440Y-72818D01*
X335984Y-73500D01*
X338616D01*
X341160Y-72818D01*
X343440Y-71502D01*
X345302Y-69640D01*
X346618Y-67360D01*
X347300Y-64816D01*
Y-62183D01*
X346618Y-59640D01*
X345302Y-57360D01*
X343440Y-55498D01*
X341160Y-54181D01*
X338616Y-53500D01*
D02*
G37*
G36*
X-335984D02*
X-338616D01*
X-341160Y-54181D01*
X-343440Y-55498D01*
X-345302Y-57360D01*
X-346618Y-59640D01*
X-347300Y-62183D01*
Y-64816D01*
X-346618Y-67360D01*
X-345302Y-69640D01*
X-343440Y-71502D01*
X-341160Y-72818D01*
X-338616Y-73500D01*
X-335984D01*
X-333440Y-72818D01*
X-331160Y-71502D01*
X-329298Y-69640D01*
X-327981Y-67360D01*
X-327300Y-64816D01*
Y-62183D01*
X-327981Y-59640D01*
X-329298Y-57360D01*
X-331160Y-55498D01*
X-333440Y-54181D01*
X-335984Y-53500D01*
D02*
G37*
G36*
X-361384D02*
X-364016D01*
X-366560Y-54181D01*
X-368840Y-55498D01*
X-370702Y-57360D01*
X-372019Y-59640D01*
X-372700Y-62183D01*
Y-64816D01*
X-372019Y-67360D01*
X-370702Y-69640D01*
X-368840Y-71502D01*
X-366560Y-72818D01*
X-364016Y-73500D01*
X-361384D01*
X-358840Y-72818D01*
X-356560Y-71502D01*
X-354698Y-69640D01*
X-353382Y-67360D01*
X-352700Y-64816D01*
Y-62183D01*
X-353382Y-59640D01*
X-354698Y-57360D01*
X-356560Y-55498D01*
X-358840Y-54181D01*
X-361384Y-53500D01*
D02*
G37*
G36*
X-420000Y-65000D02*
X-464000D01*
Y-89000D01*
X-420000D01*
Y-65000D01*
D02*
G37*
G36*
X364016Y-78900D02*
X361384D01*
X358840Y-79581D01*
X356560Y-80898D01*
X354698Y-82760D01*
X353382Y-85040D01*
X352700Y-87584D01*
Y-90217D01*
X353382Y-92760D01*
X354698Y-95040D01*
X356560Y-96902D01*
X358840Y-98218D01*
X361384Y-98900D01*
X364016D01*
X366560Y-98218D01*
X368840Y-96902D01*
X370702Y-95040D01*
X372019Y-92760D01*
X372700Y-90217D01*
Y-87584D01*
X372019Y-85040D01*
X370702Y-82760D01*
X368840Y-80898D01*
X366560Y-79581D01*
X364016Y-78900D01*
D02*
G37*
G36*
X338616D02*
X335984D01*
X333440Y-79581D01*
X331160Y-80898D01*
X329298Y-82760D01*
X327981Y-85040D01*
X327300Y-87584D01*
Y-90217D01*
X327981Y-92760D01*
X329298Y-95040D01*
X331160Y-96902D01*
X333440Y-98218D01*
X335984Y-98900D01*
X338616D01*
X341160Y-98218D01*
X343440Y-96902D01*
X345302Y-95040D01*
X346618Y-92760D01*
X347300Y-90217D01*
Y-87584D01*
X346618Y-85040D01*
X345302Y-82760D01*
X343440Y-80898D01*
X341160Y-79581D01*
X338616Y-78900D01*
D02*
G37*
G36*
X-335984D02*
X-338616D01*
X-341160Y-79581D01*
X-343440Y-80898D01*
X-345302Y-82760D01*
X-346618Y-85040D01*
X-347300Y-87584D01*
Y-90217D01*
X-346618Y-92760D01*
X-345302Y-95040D01*
X-343440Y-96902D01*
X-341160Y-98218D01*
X-338616Y-98900D01*
X-335984D01*
X-333440Y-98218D01*
X-331160Y-96902D01*
X-329298Y-95040D01*
X-327981Y-92760D01*
X-327300Y-90217D01*
Y-87584D01*
X-327981Y-85040D01*
X-329298Y-82760D01*
X-331160Y-80898D01*
X-333440Y-79581D01*
X-335984Y-78900D01*
D02*
G37*
G36*
X-361384D02*
X-364016D01*
X-366560Y-79581D01*
X-368840Y-80898D01*
X-370702Y-82760D01*
X-372019Y-85040D01*
X-372700Y-87584D01*
Y-90217D01*
X-372019Y-92760D01*
X-370702Y-95040D01*
X-368840Y-96902D01*
X-366560Y-98218D01*
X-364016Y-98900D01*
X-361384D01*
X-358840Y-98218D01*
X-356560Y-96902D01*
X-354698Y-95040D01*
X-353382Y-92760D01*
X-352700Y-90217D01*
Y-87584D01*
X-353382Y-85040D01*
X-354698Y-82760D01*
X-356560Y-80898D01*
X-358840Y-79581D01*
X-361384Y-78900D01*
D02*
G37*
G36*
X469500Y-91000D02*
X425500D01*
Y-115000D01*
X469500D01*
Y-91000D01*
D02*
G37*
G36*
X364016Y-104300D02*
X361384D01*
X358840Y-104981D01*
X356560Y-106298D01*
X354698Y-108160D01*
X353382Y-110440D01*
X352700Y-112984D01*
Y-115617D01*
X353382Y-118160D01*
X354698Y-120440D01*
X356560Y-122302D01*
X358840Y-123618D01*
X361384Y-124300D01*
X364016D01*
X366560Y-123618D01*
X368840Y-122302D01*
X370702Y-120440D01*
X372019Y-118160D01*
X372700Y-115617D01*
Y-112984D01*
X372019Y-110440D01*
X370702Y-108160D01*
X368840Y-106298D01*
X366560Y-104981D01*
X364016Y-104300D01*
D02*
G37*
G36*
X338616D02*
X335984D01*
X333440Y-104981D01*
X331160Y-106298D01*
X329298Y-108160D01*
X327981Y-110440D01*
X327300Y-112984D01*
Y-115617D01*
X327981Y-118160D01*
X329298Y-120440D01*
X331160Y-122302D01*
X333440Y-123618D01*
X335984Y-124300D01*
X338616D01*
X341160Y-123618D01*
X343440Y-122302D01*
X345302Y-120440D01*
X346618Y-118160D01*
X347300Y-115617D01*
Y-112984D01*
X346618Y-110440D01*
X345302Y-108160D01*
X343440Y-106298D01*
X341160Y-104981D01*
X338616Y-104300D01*
D02*
G37*
G36*
X-335984D02*
X-338616D01*
X-341160Y-104981D01*
X-343440Y-106298D01*
X-345302Y-108160D01*
X-346618Y-110440D01*
X-347300Y-112984D01*
Y-115617D01*
X-346618Y-118160D01*
X-345302Y-120440D01*
X-343440Y-122302D01*
X-341160Y-123618D01*
X-338616Y-124300D01*
X-335984D01*
X-333440Y-123618D01*
X-331160Y-122302D01*
X-329298Y-120440D01*
X-327981Y-118160D01*
X-327300Y-115617D01*
Y-112984D01*
X-327981Y-110440D01*
X-329298Y-108160D01*
X-331160Y-106298D01*
X-333440Y-104981D01*
X-335984Y-104300D01*
D02*
G37*
G36*
X-361384D02*
X-364016D01*
X-366560Y-104981D01*
X-368840Y-106298D01*
X-370702Y-108160D01*
X-372019Y-110440D01*
X-372700Y-112984D01*
Y-115617D01*
X-372019Y-118160D01*
X-370702Y-120440D01*
X-368840Y-122302D01*
X-366560Y-123618D01*
X-364016Y-124300D01*
X-361384D01*
X-358840Y-123618D01*
X-356560Y-122302D01*
X-354698Y-120440D01*
X-353382Y-118160D01*
X-352700Y-115617D01*
Y-112984D01*
X-353382Y-110440D01*
X-354698Y-108160D01*
X-356560Y-106298D01*
X-358840Y-104981D01*
X-361384Y-104300D01*
D02*
G37*
G36*
X-16307Y-113250D02*
X-18693D01*
X-20899Y-114163D01*
X-22587Y-115851D01*
X-23500Y-118056D01*
Y-120443D01*
X-22587Y-122649D01*
X-20899Y-124337D01*
X-18693Y-125250D01*
X-16307D01*
X-14101Y-124337D01*
X-12413Y-122649D01*
X-11500Y-120443D01*
Y-118056D01*
X-12413Y-115851D01*
X-14101Y-114163D01*
X-16307Y-113250D01*
D02*
G37*
G36*
X50444Y-114750D02*
X48057D01*
X45851Y-115663D01*
X44163Y-117351D01*
X43250Y-119557D01*
Y-121944D01*
X44163Y-124149D01*
X45851Y-125837D01*
X48057Y-126750D01*
X50444D01*
X52649Y-125837D01*
X54337Y-124149D01*
X55250Y-121944D01*
Y-119557D01*
X54337Y-117351D01*
X52649Y-115663D01*
X50444Y-114750D01*
D02*
G37*
G36*
X287194Y-133000D02*
X284806D01*
X282601Y-133913D01*
X280914Y-135601D01*
X280000Y-137807D01*
Y-140194D01*
X280914Y-142399D01*
X282601Y-144087D01*
X284806Y-145000D01*
X287194D01*
X289399Y-144087D01*
X291087Y-142399D01*
X292000Y-140194D01*
Y-137807D01*
X291087Y-135601D01*
X289399Y-133913D01*
X287194Y-133000D01*
D02*
G37*
G36*
X364016Y-129700D02*
X361384D01*
X358840Y-130381D01*
X356560Y-131698D01*
X354698Y-133560D01*
X353382Y-135840D01*
X352700Y-138384D01*
Y-141017D01*
X353382Y-143560D01*
X354698Y-145840D01*
X356560Y-147702D01*
X358840Y-149018D01*
X361384Y-149700D01*
X364016D01*
X366560Y-149018D01*
X368840Y-147702D01*
X370702Y-145840D01*
X372019Y-143560D01*
X372700Y-141017D01*
Y-138384D01*
X372019Y-135840D01*
X370702Y-133560D01*
X368840Y-131698D01*
X366560Y-130381D01*
X364016Y-129700D01*
D02*
G37*
G36*
X338616D02*
X335984D01*
X333440Y-130381D01*
X331160Y-131698D01*
X329298Y-133560D01*
X327981Y-135840D01*
X327300Y-138384D01*
Y-141017D01*
X327981Y-143560D01*
X329298Y-145840D01*
X331160Y-147702D01*
X333440Y-149018D01*
X335984Y-149700D01*
X338616D01*
X341160Y-149018D01*
X343440Y-147702D01*
X345302Y-145840D01*
X346618Y-143560D01*
X347300Y-141017D01*
Y-138384D01*
X346618Y-135840D01*
X345302Y-133560D01*
X343440Y-131698D01*
X341160Y-130381D01*
X338616Y-129700D01*
D02*
G37*
G36*
X-335984D02*
X-338616D01*
X-341160Y-130381D01*
X-343440Y-131698D01*
X-345302Y-133560D01*
X-346618Y-135840D01*
X-347300Y-138384D01*
Y-141017D01*
X-346618Y-143560D01*
X-345302Y-145840D01*
X-343440Y-147702D01*
X-341160Y-149018D01*
X-338616Y-149700D01*
X-335984D01*
X-333440Y-149018D01*
X-331160Y-147702D01*
X-329298Y-145840D01*
X-327981Y-143560D01*
X-327300Y-141017D01*
Y-138384D01*
X-327981Y-135840D01*
X-329298Y-133560D01*
X-331160Y-131698D01*
X-333440Y-130381D01*
X-335984Y-129700D01*
D02*
G37*
G36*
X-361384D02*
X-364016D01*
X-366560Y-130381D01*
X-368840Y-131698D01*
X-370702Y-133560D01*
X-372019Y-135840D01*
X-372700Y-138384D01*
Y-141017D01*
X-372019Y-143560D01*
X-370702Y-145840D01*
X-368840Y-147702D01*
X-366560Y-149018D01*
X-364016Y-149700D01*
X-361384D01*
X-358840Y-149018D01*
X-356560Y-147702D01*
X-354698Y-145840D01*
X-353382Y-143560D01*
X-352700Y-141017D01*
Y-138384D01*
X-353382Y-135840D01*
X-354698Y-133560D01*
X-356560Y-131698D01*
X-358840Y-130381D01*
X-361384Y-129700D01*
D02*
G37*
G36*
X288193Y-151000D02*
X285807D01*
X283601Y-151913D01*
X281914Y-153601D01*
X281000Y-155807D01*
Y-158194D01*
X281914Y-160399D01*
X283601Y-162087D01*
X285807Y-163000D01*
X288193D01*
X290399Y-162087D01*
X292087Y-160399D01*
X293000Y-158194D01*
Y-155807D01*
X292087Y-153601D01*
X290399Y-151913D01*
X288193Y-151000D01*
D02*
G37*
G36*
X-465500Y-125500D02*
X-489500D01*
Y-169500D01*
X-465500D01*
Y-125500D01*
D02*
G37*
G36*
X494500Y-128000D02*
X470500D01*
Y-172000D01*
X494500D01*
Y-128000D01*
D02*
G37*
G36*
X364016Y-155100D02*
X361384D01*
X358840Y-155781D01*
X356560Y-157098D01*
X354698Y-158960D01*
X353382Y-161240D01*
X352700Y-163783D01*
Y-166416D01*
X353382Y-168960D01*
X354698Y-171240D01*
X356560Y-173102D01*
X358840Y-174419D01*
X361384Y-175100D01*
X364016D01*
X366560Y-174419D01*
X368840Y-173102D01*
X370702Y-171240D01*
X372019Y-168960D01*
X372700Y-166416D01*
Y-163783D01*
X372019Y-161240D01*
X370702Y-158960D01*
X368840Y-157098D01*
X366560Y-155781D01*
X364016Y-155100D01*
D02*
G37*
G36*
X338616D02*
X335984D01*
X333440Y-155781D01*
X331160Y-157098D01*
X329298Y-158960D01*
X327981Y-161240D01*
X327300Y-163783D01*
Y-166416D01*
X327981Y-168960D01*
X329298Y-171240D01*
X331160Y-173102D01*
X333440Y-174419D01*
X335984Y-175100D01*
X338616D01*
X341160Y-174419D01*
X343440Y-173102D01*
X345302Y-171240D01*
X346618Y-168960D01*
X347300Y-166416D01*
Y-163783D01*
X346618Y-161240D01*
X345302Y-158960D01*
X343440Y-157098D01*
X341160Y-155781D01*
X338616Y-155100D01*
D02*
G37*
G36*
X-335984D02*
X-338616D01*
X-341160Y-155781D01*
X-343440Y-157098D01*
X-345302Y-158960D01*
X-346618Y-161240D01*
X-347300Y-163783D01*
Y-166416D01*
X-346618Y-168960D01*
X-345302Y-171240D01*
X-343440Y-173102D01*
X-341160Y-174419D01*
X-338616Y-175100D01*
X-335984D01*
X-333440Y-174419D01*
X-331160Y-173102D01*
X-329298Y-171240D01*
X-327981Y-168960D01*
X-327300Y-166416D01*
Y-163783D01*
X-327981Y-161240D01*
X-329298Y-158960D01*
X-331160Y-157098D01*
X-333440Y-155781D01*
X-335984Y-155100D01*
D02*
G37*
G36*
X-361384D02*
X-364016D01*
X-366560Y-155781D01*
X-368840Y-157098D01*
X-370702Y-158960D01*
X-372019Y-161240D01*
X-372700Y-163783D01*
Y-166416D01*
X-372019Y-168960D01*
X-370702Y-171240D01*
X-368840Y-173102D01*
X-366560Y-174419D01*
X-364016Y-175100D01*
X-361384D01*
X-358840Y-174419D01*
X-356560Y-173102D01*
X-354698Y-171240D01*
X-353382Y-168960D01*
X-352700Y-166416D01*
Y-163783D01*
X-353382Y-161240D01*
X-354698Y-158960D01*
X-356560Y-157098D01*
X-358840Y-155781D01*
X-361384Y-155100D01*
D02*
G37*
G36*
X-420500Y-182500D02*
X-464500D01*
Y-206500D01*
X-420500D01*
Y-182500D01*
D02*
G37*
G36*
X452518Y-418000D02*
X447481D01*
X442507Y-418788D01*
X437716Y-420344D01*
X433228Y-422631D01*
X429153Y-425592D01*
X425592Y-429153D01*
X422631Y-433228D01*
X420344Y-437716D01*
X418788Y-442507D01*
X418000Y-447481D01*
Y-452518D01*
X418788Y-457493D01*
X420344Y-462284D01*
X422631Y-466772D01*
X425592Y-470847D01*
X429153Y-474408D01*
X433228Y-477369D01*
X437716Y-479656D01*
X442507Y-481212D01*
X447481Y-482000D01*
X452518D01*
X457493Y-481212D01*
X462284Y-479656D01*
X466772Y-477369D01*
X470847Y-474408D01*
X474408Y-470847D01*
X477369Y-466772D01*
X479656Y-462284D01*
X481212Y-457493D01*
X482000Y-452518D01*
Y-447481D01*
X481212Y-442507D01*
X479656Y-437716D01*
X477369Y-433228D01*
X474408Y-429153D01*
X470847Y-425592D01*
X466772Y-422631D01*
X462284Y-420344D01*
X457493Y-418788D01*
X452518Y-418000D01*
D02*
G37*
G36*
X-447481D02*
X-452518D01*
X-457493Y-418788D01*
X-462284Y-420344D01*
X-466772Y-422631D01*
X-470847Y-425592D01*
X-474408Y-429153D01*
X-477369Y-433228D01*
X-479656Y-437716D01*
X-481212Y-442507D01*
X-482000Y-447481D01*
Y-452518D01*
X-481212Y-457493D01*
X-479656Y-462284D01*
X-477369Y-466772D01*
X-474408Y-470847D01*
X-470847Y-474408D01*
X-466772Y-477369D01*
X-462284Y-479656D01*
X-457493Y-481212D01*
X-452518Y-482000D01*
X-447481D01*
X-442507Y-481212D01*
X-437716Y-479656D01*
X-433228Y-477369D01*
X-429153Y-474408D01*
X-425592Y-470847D01*
X-422631Y-466772D01*
X-420344Y-462284D01*
X-418788Y-457493D01*
X-418000Y-452518D01*
Y-447481D01*
X-418788Y-442507D01*
X-420344Y-437716D01*
X-422631Y-433228D01*
X-425592Y-429153D01*
X-429153Y-425592D01*
X-433228Y-422631D01*
X-437716Y-420344D01*
X-442507Y-418788D01*
X-447481Y-418000D01*
D02*
G37*
G36*
X-290005Y-75000D02*
X-291995D01*
X-293832Y-75761D01*
X-295239Y-77168D01*
X-296000Y-79005D01*
Y-80995D01*
X-295239Y-82832D01*
X-293832Y-84239D01*
X-291995Y-85000D01*
X-290005D01*
X-288168Y-84239D01*
X-286761Y-82832D01*
X-286000Y-80995D01*
Y-79005D01*
X-286761Y-77168D01*
X-288168Y-75761D01*
X-290005Y-75000D01*
D02*
G37*
G36*
Y-88000D02*
X-291995D01*
X-293832Y-88761D01*
X-295239Y-90168D01*
X-296000Y-92005D01*
Y-93995D01*
X-295239Y-95832D01*
X-293832Y-97239D01*
X-291995Y-98000D01*
X-290005D01*
X-288168Y-97239D01*
X-286761Y-95832D01*
X-286000Y-93995D01*
Y-92005D01*
X-286761Y-90168D01*
X-288168Y-88761D01*
X-290005Y-88000D01*
D02*
G37*
G36*
X338616Y-205900D02*
X335984D01*
X333440Y-206581D01*
X331160Y-207898D01*
X329298Y-209760D01*
X327981Y-212040D01*
X327300Y-214583D01*
Y-217216D01*
X327981Y-219760D01*
X329298Y-222040D01*
X331160Y-223902D01*
X333440Y-225219D01*
X335984Y-225900D01*
X338616D01*
X341160Y-225219D01*
X343440Y-223902D01*
X345302Y-222040D01*
X346618Y-219760D01*
X347300Y-217216D01*
Y-214583D01*
X346618Y-212040D01*
X345302Y-209760D01*
X343440Y-207898D01*
X341160Y-206581D01*
X338616Y-205900D01*
D02*
G37*
G36*
X364016Y-231300D02*
X361384D01*
X358840Y-231982D01*
X356560Y-233298D01*
X354698Y-235160D01*
X353382Y-237440D01*
X352700Y-239984D01*
Y-242617D01*
X353382Y-245160D01*
X354698Y-247440D01*
X356560Y-249302D01*
X358840Y-250618D01*
X361384Y-251300D01*
X364016D01*
X366560Y-250618D01*
X368840Y-249302D01*
X370702Y-247440D01*
X372019Y-245160D01*
X372700Y-242617D01*
Y-239984D01*
X372019Y-237440D01*
X370702Y-235160D01*
X368840Y-233298D01*
X366560Y-231982D01*
X364016Y-231300D01*
D02*
G37*
G36*
X338616D02*
X335984D01*
X333440Y-231982D01*
X331160Y-233298D01*
X329298Y-235160D01*
X327981Y-237440D01*
X327300Y-239984D01*
Y-242617D01*
X327981Y-245160D01*
X329298Y-247440D01*
X331160Y-249302D01*
X333440Y-250618D01*
X335984Y-251300D01*
X338616D01*
X341160Y-250618D01*
X343440Y-249302D01*
X345302Y-247440D01*
X346618Y-245160D01*
X347300Y-242617D01*
Y-239984D01*
X346618Y-237440D01*
X345302Y-235160D01*
X343440Y-233298D01*
X341160Y-231982D01*
X338616Y-231300D01*
D02*
G37*
G36*
X-152306Y-277500D02*
X-154693D01*
X-156899Y-278413D01*
X-158587Y-280101D01*
X-159500Y-282306D01*
Y-284694D01*
X-158587Y-286899D01*
X-156899Y-288587D01*
X-154693Y-289500D01*
X-152306D01*
X-150101Y-288587D01*
X-148413Y-286899D01*
X-147500Y-284694D01*
Y-282306D01*
X-148413Y-280101D01*
X-150101Y-278413D01*
X-152306Y-277500D01*
D02*
G37*
G36*
X417348Y-277700D02*
X414452D01*
X411654Y-278450D01*
X409146Y-279898D01*
X407098Y-281946D01*
X405650Y-284454D01*
X404900Y-287252D01*
Y-290148D01*
X405650Y-292946D01*
X407098Y-295454D01*
X409146Y-297502D01*
X411654Y-298950D01*
X414452Y-299700D01*
X417348D01*
X420146Y-298950D01*
X422654Y-297502D01*
X424702Y-295454D01*
X426150Y-292946D01*
X426900Y-290148D01*
Y-287252D01*
X426150Y-284454D01*
X424702Y-281946D01*
X422654Y-279898D01*
X420146Y-278450D01*
X417348Y-277700D01*
D02*
G37*
G36*
X-166556Y-292750D02*
X-168944D01*
X-171149Y-293663D01*
X-172837Y-295351D01*
X-173750Y-297556D01*
Y-299944D01*
X-172837Y-302149D01*
X-171149Y-303837D01*
X-168944Y-304750D01*
X-166556D01*
X-164351Y-303837D01*
X-162663Y-302149D01*
X-161750Y-299944D01*
Y-297556D01*
X-162663Y-295351D01*
X-164351Y-293663D01*
X-166556Y-292750D01*
D02*
G37*
G36*
X276167Y-310450D02*
X273533D01*
X270990Y-311131D01*
X268710Y-312448D01*
X266848Y-314310D01*
X265532Y-316590D01*
X264850Y-319133D01*
Y-321767D01*
X265532Y-324310D01*
X266848Y-326590D01*
X268710Y-328452D01*
X270990Y-329768D01*
X273533Y-330450D01*
X276167D01*
X278710Y-329768D01*
X280990Y-328452D01*
X282852Y-326590D01*
X284168Y-324310D01*
X284850Y-321767D01*
Y-319133D01*
X284168Y-316590D01*
X282852Y-314310D01*
X280990Y-312448D01*
X278710Y-311131D01*
X276167Y-310450D01*
D02*
G37*
G36*
X250767D02*
X248134D01*
X245590Y-311131D01*
X243310Y-312448D01*
X241448Y-314310D01*
X240131Y-316590D01*
X239450Y-319133D01*
Y-321767D01*
X240131Y-324310D01*
X241448Y-326590D01*
X243310Y-328452D01*
X245590Y-329768D01*
X248134Y-330450D01*
X250767D01*
X253310Y-329768D01*
X255590Y-328452D01*
X257452Y-326590D01*
X258769Y-324310D01*
X259450Y-321767D01*
Y-319133D01*
X258769Y-316590D01*
X257452Y-314310D01*
X255590Y-312448D01*
X253310Y-311131D01*
X250767Y-310450D01*
D02*
G37*
G36*
X225367D02*
X222733D01*
X220190Y-311131D01*
X217910Y-312448D01*
X216048Y-314310D01*
X214732Y-316590D01*
X214050Y-319133D01*
Y-321767D01*
X214732Y-324310D01*
X216048Y-326590D01*
X217910Y-328452D01*
X220190Y-329768D01*
X222733Y-330450D01*
X225367D01*
X227910Y-329768D01*
X230190Y-328452D01*
X232052Y-326590D01*
X233368Y-324310D01*
X234050Y-321767D01*
Y-319133D01*
X233368Y-316590D01*
X232052Y-314310D01*
X230190Y-312448D01*
X227910Y-311131D01*
X225367Y-310450D01*
D02*
G37*
G36*
X199967D02*
X197334D01*
X194790Y-311131D01*
X192510Y-312448D01*
X190648Y-314310D01*
X189331Y-316590D01*
X188650Y-319133D01*
Y-321767D01*
X189331Y-324310D01*
X190648Y-326590D01*
X192510Y-328452D01*
X194790Y-329768D01*
X197334Y-330450D01*
X199967D01*
X202510Y-329768D01*
X204790Y-328452D01*
X206652Y-326590D01*
X207969Y-324310D01*
X208650Y-321767D01*
Y-319133D01*
X207969Y-316590D01*
X206652Y-314310D01*
X204790Y-312448D01*
X202510Y-311131D01*
X199967Y-310450D01*
D02*
G37*
G36*
X417348Y-302700D02*
X414452D01*
X411654Y-303450D01*
X409146Y-304898D01*
X407098Y-306946D01*
X405650Y-309454D01*
X404900Y-312252D01*
Y-315148D01*
X405650Y-317946D01*
X407098Y-320454D01*
X409146Y-322502D01*
X410121Y-323065D01*
Y-324335D01*
X409146Y-324898D01*
X407098Y-326946D01*
X405650Y-329454D01*
X404900Y-332252D01*
Y-335148D01*
X405650Y-337946D01*
X407098Y-340454D01*
X409146Y-342502D01*
X411654Y-343950D01*
X414452Y-344700D01*
X417348D01*
X420146Y-343950D01*
X422654Y-342502D01*
X424702Y-340454D01*
X426150Y-337946D01*
X426900Y-335148D01*
Y-332252D01*
X426150Y-329454D01*
X424702Y-326946D01*
X422654Y-324898D01*
X421679Y-324335D01*
Y-323065D01*
X422654Y-322502D01*
X424702Y-320454D01*
X426150Y-317946D01*
X426900Y-315148D01*
Y-312252D01*
X426150Y-309454D01*
X424702Y-306946D01*
X422654Y-304898D01*
X420146Y-303450D01*
X417348Y-302700D01*
D02*
G37*
G36*
X-227052Y-382600D02*
X-229948D01*
X-232746Y-383350D01*
X-235254Y-384798D01*
X-237302Y-386846D01*
X-237865Y-387821D01*
X-239135D01*
X-239698Y-386846D01*
X-241746Y-384798D01*
X-244254Y-383350D01*
X-247052Y-382600D01*
X-249948D01*
X-252746Y-383350D01*
X-255254Y-384798D01*
X-257302Y-386846D01*
X-258750Y-389354D01*
X-259500Y-392152D01*
Y-395048D01*
X-258750Y-397846D01*
X-257302Y-400354D01*
X-255254Y-402402D01*
X-252746Y-403850D01*
X-249948Y-404600D01*
X-247052D01*
X-244254Y-403850D01*
X-241746Y-402402D01*
X-239698Y-400354D01*
X-239135Y-399379D01*
X-237865D01*
X-237302Y-400354D01*
X-235254Y-402402D01*
X-232746Y-403850D01*
X-229948Y-404600D01*
X-227052D01*
X-224254Y-403850D01*
X-221746Y-402402D01*
X-219698Y-400354D01*
X-218250Y-397846D01*
X-217500Y-395048D01*
Y-392152D01*
X-218250Y-389354D01*
X-219698Y-386846D01*
X-221746Y-384798D01*
X-224254Y-383350D01*
X-227052Y-382600D01*
D02*
G37*
G36*
X247498Y-382650D02*
X244602D01*
X241804Y-383400D01*
X239296Y-384848D01*
X237248Y-386896D01*
X236685Y-387871D01*
X235415D01*
X234852Y-386896D01*
X232804Y-384848D01*
X230296Y-383400D01*
X227498Y-382650D01*
X224602D01*
X221804Y-383400D01*
X219296Y-384848D01*
X217248Y-386896D01*
X215800Y-389404D01*
X215050Y-392202D01*
Y-395098D01*
X215800Y-397896D01*
X217248Y-400404D01*
X219296Y-402452D01*
X221804Y-403900D01*
X224602Y-404650D01*
X227498D01*
X230296Y-403900D01*
X232804Y-402452D01*
X234852Y-400404D01*
X235415Y-399429D01*
X236685D01*
X237248Y-400404D01*
X239296Y-402452D01*
X241804Y-403900D01*
X244602Y-404650D01*
X247498D01*
X250296Y-403900D01*
X252804Y-402452D01*
X254852Y-400404D01*
X256300Y-397896D01*
X257050Y-395098D01*
Y-392202D01*
X256300Y-389404D01*
X254852Y-386896D01*
X252804Y-384848D01*
X250296Y-383400D01*
X247498Y-382650D01*
D02*
G37*
G36*
X-202052Y-382600D02*
X-204948D01*
X-207746Y-383350D01*
X-210254Y-384798D01*
X-212302Y-386846D01*
X-213750Y-389354D01*
X-214500Y-392152D01*
Y-395048D01*
X-213750Y-397846D01*
X-212302Y-400354D01*
X-210254Y-402402D01*
X-207746Y-403850D01*
X-204948Y-404600D01*
X-202052D01*
X-199254Y-403850D01*
X-196746Y-402402D01*
X-194698Y-400354D01*
X-193250Y-397846D01*
X-192500Y-395048D01*
Y-392152D01*
X-193250Y-389354D01*
X-194698Y-386846D01*
X-196746Y-384798D01*
X-199254Y-383350D01*
X-202052Y-382600D01*
D02*
G37*
G36*
X272498Y-382650D02*
X269602D01*
X266804Y-383400D01*
X264296Y-384848D01*
X262248Y-386896D01*
X260800Y-389404D01*
X260050Y-392202D01*
Y-395098D01*
X260800Y-397896D01*
X262248Y-400404D01*
X264296Y-402452D01*
X266804Y-403900D01*
X269602Y-404650D01*
X272498D01*
X275296Y-403900D01*
X277804Y-402452D01*
X279852Y-400404D01*
X281300Y-397896D01*
X282050Y-395098D01*
Y-392202D01*
X281300Y-389404D01*
X279852Y-386896D01*
X277804Y-384848D01*
X275296Y-383400D01*
X272498Y-382650D01*
D02*
G37*
%LPD*%
G36*
X340373Y-208482D02*
X342188Y-209530D01*
X343670Y-211012D01*
X344718Y-212827D01*
X345261Y-214852D01*
Y-216948D01*
X344718Y-218973D01*
X343670Y-220788D01*
X342188Y-222270D01*
X340373Y-223318D01*
X338348Y-223861D01*
X336252D01*
X334227Y-223318D01*
X332412Y-222270D01*
X330930Y-220788D01*
X329882Y-218973D01*
X329339Y-216948D01*
Y-214852D01*
X329882Y-212827D01*
X330930Y-211012D01*
X332412Y-209530D01*
X334227Y-208482D01*
X336252Y-207939D01*
X338348D01*
X340373Y-208482D01*
D02*
G37*
G36*
X365773Y-233882D02*
X367588Y-234930D01*
X369070Y-236412D01*
X370118Y-238227D01*
X370661Y-240252D01*
Y-242348D01*
X370118Y-244373D01*
X369070Y-246188D01*
X367588Y-247670D01*
X365773Y-248718D01*
X363748Y-249261D01*
X361652D01*
X359627Y-248718D01*
X357812Y-247670D01*
X356330Y-246188D01*
X355282Y-244373D01*
X354739Y-242348D01*
Y-240252D01*
X355282Y-238227D01*
X356330Y-236412D01*
X357812Y-234930D01*
X359627Y-233882D01*
X361652Y-233339D01*
X363748D01*
X365773Y-233882D01*
D02*
G37*
G36*
X340373D02*
X342188Y-234930D01*
X343670Y-236412D01*
X344718Y-238227D01*
X345261Y-240252D01*
Y-242348D01*
X344718Y-244373D01*
X343670Y-246188D01*
X342188Y-247670D01*
X340373Y-248718D01*
X338348Y-249261D01*
X336252D01*
X334227Y-248718D01*
X332412Y-247670D01*
X330930Y-246188D01*
X329882Y-244373D01*
X329339Y-242348D01*
Y-240252D01*
X329882Y-238227D01*
X330930Y-236412D01*
X332412Y-234930D01*
X334227Y-233882D01*
X336252Y-233339D01*
X338348D01*
X340373Y-233882D01*
D02*
G37*
D13*
X310000Y100262D02*
Y111000D01*
X332632Y77630D02*
X368370D01*
X310000Y100262D02*
X332632Y77630D01*
X323488Y100170D02*
X344830D01*
X322000Y101658D02*
Y121512D01*
X310000Y123000D02*
X320512D01*
X322000Y101658D02*
X323488Y100170D01*
X320512Y123000D02*
X322000Y121512D01*
X344830Y100170D02*
X345882Y100170D01*
X367368D01*
X316308Y153830D02*
X362700D01*
X391206Y154000D02*
X393310D01*
X394054Y153256D01*
X416587Y130723D01*
X311478Y149000D02*
X316308Y153830D01*
X362700D02*
X391206Y154000D01*
X310000Y149000D02*
X311478D01*
X386000Y-13000D02*
X405778Y-32778D01*
X417637D02*
X419588Y-34727D01*
X405778Y-32778D02*
X417637D01*
X368370Y77630D02*
X386000Y60000D01*
Y-13000D02*
Y60000D01*
X394000Y25000D02*
Y73538D01*
Y25000D02*
X402927Y16073D01*
X419588D01*
X367368Y100170D02*
X394000Y73538D01*
X365570Y128430D02*
X414077Y79922D01*
X416587D01*
X332632Y128430D02*
X365570D01*
X324062Y137000D02*
X332632Y128430D01*
X310000Y137000D02*
X324062D01*
X398843Y193843D02*
X414588D01*
X382000Y177000D02*
X398843Y193843D01*
X315000Y163000D02*
X329000Y177000D01*
X382000D01*
X276000Y163000D02*
X315000D01*
X270000Y169000D02*
X276000Y163000D01*
X389643Y244643D02*
X414588D01*
X372170Y227170D02*
X389643Y244643D01*
X332632Y227170D02*
X372170D01*
X322000Y216538D02*
X332632Y227170D01*
X322000Y187000D02*
Y216538D01*
X316612Y187000D02*
X318190Y188578D01*
X310000Y175000D02*
X322000Y187000D01*
X310000D02*
X316612D01*
X318190Y188578D02*
Y257190D01*
X368763Y307763D01*
X310000Y200000D02*
Y282000D01*
X368763Y307763D02*
X414588D01*
X387000Y359000D02*
X414150D01*
X414588Y358563D01*
X310000Y282000D02*
X387000Y359000D01*
D72*
X36000Y390000D02*
D03*
D75*
X-273500Y-393600D02*
D03*
X201050Y-393650D02*
D03*
D77*
X419588Y-60127D02*
D03*
Y-34727D02*
D03*
Y-9327D02*
D03*
Y16073D02*
D03*
X416587Y130723D02*
D03*
Y105323D02*
D03*
Y79922D02*
D03*
Y54523D02*
D03*
X414588Y168443D02*
D03*
Y193843D02*
D03*
Y219243D02*
D03*
Y244643D02*
D03*
Y358563D02*
D03*
Y333163D02*
D03*
Y307763D02*
D03*
Y282363D02*
D03*
D78*
X337300Y-241300D02*
D03*
X362700D02*
D03*
Y-215900D02*
D03*
X337300D02*
D03*
X-362700D02*
D03*
X-337300D02*
D03*
Y-241300D02*
D03*
X-362700D02*
D03*
X198650Y-295050D02*
D03*
X249450D02*
D03*
X224050D02*
D03*
D80*
X-413000Y207500D02*
D03*
X-415500Y87500D02*
D03*
X-415000Y-30000D02*
D03*
X-415500Y-147500D02*
D03*
X420500Y-150000D02*
D03*
D82*
X415900Y-358700D02*
D03*
D84*
X274850Y-295050D02*
D03*
D86*
X1500Y333750D02*
D03*
Y349500D02*
D03*
Y342000D02*
D03*
X33250Y333750D02*
D03*
X44250D02*
D03*
X55250D02*
D03*
Y342000D02*
D03*
X44250D02*
D03*
X33250D02*
D03*
Y349500D02*
D03*
X44250D02*
D03*
X55250D02*
D03*
X12500Y333750D02*
D03*
X23500D02*
D03*
Y342000D02*
D03*
X12500D02*
D03*
Y349500D02*
D03*
X23500D02*
D03*
Y325000D02*
D03*
X12500D02*
D03*
X55250D02*
D03*
X44250D02*
D03*
X33250D02*
D03*
X1500D02*
D03*
X-61250Y-194500D02*
D03*
X-40250D02*
D03*
X-51250D02*
D03*
X-61250Y-226250D02*
D03*
Y-237250D02*
D03*
Y-248250D02*
D03*
X-51250D02*
D03*
Y-237250D02*
D03*
Y-226250D02*
D03*
X-40250D02*
D03*
Y-237250D02*
D03*
Y-248250D02*
D03*
X-61250Y-205500D02*
D03*
Y-216500D02*
D03*
X-51250D02*
D03*
Y-205500D02*
D03*
X-40250D02*
D03*
Y-216500D02*
D03*
X305000Y86000D02*
D03*
Y92000D02*
D03*
X-302000Y43000D02*
D03*
Y51000D02*
D03*
Y59000D02*
D03*
X-310000Y43000D02*
D03*
Y51000D02*
D03*
Y59000D02*
D03*
D87*
X310000Y200000D02*
D03*
Y111000D02*
D03*
Y123000D02*
D03*
Y137000D02*
D03*
Y149000D02*
D03*
X270000Y169000D02*
D03*
X310000Y175000D02*
D03*
Y187000D02*
D03*
M02*
