M48
;Layer_Color=9474304
;FILE_FORMAT=4:4
METRIC,LZ
;TYPE=PLATED
T1F00S00C0.3000
T2F00S00C0.4000
T5F00S00C0.9000
T6F00S00C1.0000
T7F00S00C1.1000
T8F00S00C2.3000
T9F00S00C2.7000
T10F00S00C3.5000
%
T01
X-0006125Y-0024825
X-0005125
X-0004025
Y-0023725
X-0005125
X-0006125
Y-0022625
Y-002165
X-0005125
Y-0022625
X-0004025
Y-002165
Y-002055
X-0005125
X-0006125
Y-001945
X-0005125
X-0004025
X000635Y0007775
X00305Y00086
Y00092
X0002525Y0016775
X000255Y00176
Y0018375
X-0015675Y00251
X-0015875Y0009175
Y0008425
Y00076
Y0006725
X-0016975
Y00076
Y0008425
Y0009175
X-001795
Y0008425
Y00076
Y0006725
X-001905
Y00076
Y0008425
Y0009175
X-002015
Y0008425
Y00076
Y0006725
X-0014775
Y00076
Y0008425
Y0009175
X-00302Y00059
X-0031
Y00051
X-00302
Y00043
X-0031
X-00291Y-0008
Y-00093
X-00319Y00272
X-00332
X-00343
X-00356
Y00286
X-00343
X-00332
X-00319
Y00301
X-00332
X-00343
X-00356
Y00325
Y00332
Y0034
X-00343
Y00332
Y00325
X-00332
Y00332
Y0034
X-00319
Y00332
Y00325
X000015
Y0033375
Y00342
Y003495
X000125
Y00342
Y0033375
Y00325
X000235
Y0033375
Y00342
Y003495
X0003325
Y00342
Y0033375
Y00325
X0004425
Y0033375
Y00342
Y003495
X0005525
Y00342
Y0033375
Y00325
T02
X-0016775Y-0029875
X-001535Y-002835
X-000175Y-0011925
X0004925Y-0012075
X00286Y-00139
X00287Y-00157
X0031Y00111
Y00123
Y00137
Y00149
Y00175
Y00187
Y002
X0027Y00169
X-00252Y00143
X-00265Y00137
X-00306Y001847
X-00305Y00208
X-00292Y00211
T05
X-003627Y-002413
Y-002159
X-003373
Y-001905
Y-001651
X-003627
Y-001397
X-003373
X-003627Y-001905
X-003373Y-002413
X0019865Y-0029505
Y-0032045
X0022405
X0024945
Y-0029505
X0027485
Y-0032045
X0022405Y-0029505
X003373Y-002413
X003627
Y-002159
Y-001905
X003373
Y-001651
Y-001397
X003627
Y-001651
X003373Y-002159
Y-001143
Y-000889
X003627
Y-000635
Y-000381
Y-000127
X003373
Y000127
Y000381
X003627
Y000635
Y000889
X003373
Y001143
Y001397
X003627
Y001651
Y001905
X003373
Y002159
Y002413
X003627
Y002159
X003373Y001651
X003627Y001143
X003373Y000635
X003627Y000127
X003373Y-000381
Y-000635
X003627Y-001143
X-003373
X-003627
Y-000889
Y-000635
X-003373
Y-000381
X-003627
Y-000127
Y000127
X-003373
Y000381
Y000635
X-003627
Y000889
Y001143
X-003373
Y001397
Y001651
X-003627
Y001905
Y002159
X-003373
Y002413
X-003627
X-003373Y001905
X-003627Y001397
X-003373Y000889
X-003627Y000381
X-003373Y-000127
Y-000889
T06
X-002735Y-003936
X-002485
X-002285
X-002035Y-003936
X0020105Y-0039365
X0022605
X0024605
X0027105Y-0039365
X004159Y-003587
Y-003337
Y-003137
X004159Y-002887
T07
X-004075Y-003105
Y-002851
X00419588Y-00060127
Y-00034727
Y-00009327
Y00016073
X00416587Y00054523
Y00079922
Y00105323
Y00130723
X00414588Y00168443
Y00193843
Y00219243
Y00244643
X-004075Y003
Y003254
X00414588Y00333163
Y00358563
Y00307763
Y00282363
T08
X-003042Y-004207
X-001728
X0017035Y-0042075
X0030175
X00443Y-003894
Y-00258
T09
X-00036Y0039
X00036
T10
X-0045Y-0045
X0045
X-0045Y0045
X0045
M30
