%TF.GenerationSoftware,Altium Limited,Altium Designer,22.5.1 (42)*%
G04 Layer_Physical_Order=3*
G04 Layer_Color=16440176*
%FSLAX44Y44*%
%MOMM*%
%TF.SameCoordinates,89E13746-3D4A-4BC1-B2AC-D00D571BF165*%
%TF.FilePolarity,Positive*%
%TF.FileFunction,Copper,L3,Inr,Signal*%
%TF.Part,Single*%
G01*
G75*
%TA.AperFunction,ComponentPad*%
%ADD33C,3.7160*%
%ADD34R,3.7160X3.7160*%
%ADD35O,2.4000X1.2000*%
%ADD36R,2.5000X1.2000*%
%ADD37R,1.2000X2.5000*%
%ADD38C,1.6000*%
%ADD39R,1.6000X1.6000*%
%ADD40C,1.5080*%
%ADD41C,2.5500*%
%ADD43C,5.0000*%
G04:AMPARAMS|DCode=44|XSize=1.6mm|YSize=1.6mm|CornerRadius=0mm|HoleSize=0mm|Usage=FLASHONLY|Rotation=90.000|XOffset=0mm|YOffset=0mm|HoleType=Round|Shape=Octagon|*
%AMOCTAGOND44*
4,1,8,0.4000,0.8000,-0.4000,0.8000,-0.8000,0.4000,-0.8000,-0.4000,-0.4000,-0.8000,0.4000,-0.8000,0.8000,-0.4000,0.8000,0.4000,0.4000,0.8000,0.0*
%
%ADD44OCTAGOND44*%

%ADD45O,2.8000X3.5000*%
%ADD46R,2.8000X3.5000*%
%ADD47O,3.5000X2.8000*%
%ADD48R,3.5000X2.8000*%
%ADD49C,1.8000*%
%ADD50R,1.8000X1.8000*%
%ADD51O,3.0000X4.5000*%
%ADD52R,1.6000X1.6000*%
%TA.AperFunction,ViaPad*%
%ADD53C,0.6000*%
%ADD54C,0.8000*%
G36*
X355354Y297055D02*
X362060Y295258D01*
X368474Y292601D01*
X374487Y289130D01*
X379994Y284904D01*
X384904Y279994D01*
X389130Y274487D01*
X392601Y268474D01*
X395258Y262060D01*
X397055Y255354D01*
X397961Y248471D01*
Y245000D01*
X397961Y-245000D01*
X397961Y-248471D01*
X397055Y-255354D01*
X395258Y-262060D01*
X392601Y-268474D01*
X389130Y-274487D01*
X384904Y-279994D01*
X379994Y-284904D01*
X374487Y-289130D01*
X368474Y-292601D01*
X362060Y-295258D01*
X355354Y-297055D01*
X348471Y-297961D01*
X-348471D01*
X-355354Y-297055D01*
X-362060Y-295258D01*
X-368474Y-292601D01*
X-374487Y-289130D01*
X-379994Y-284904D01*
X-384904Y-279994D01*
X-389130Y-274487D01*
X-392601Y-268474D01*
X-395258Y-262060D01*
X-397055Y-255354D01*
X-397961Y-248471D01*
X-397961Y-245000D01*
Y245000D01*
X-397961Y248471D01*
X-397055Y255354D01*
X-395258Y262060D01*
X-392601Y268474D01*
X-389130Y274487D01*
X-384904Y279994D01*
X-379994Y284904D01*
X-374487Y289130D01*
X-368474Y292601D01*
X-362060Y295258D01*
X-355354Y297055D01*
X-348471Y297961D01*
X348471D01*
X355354Y297055D01*
D02*
G37*
%LPC*%
G36*
X357125Y289000D02*
X352875D01*
X348677Y288335D01*
X344636Y287022D01*
X340849Y285093D01*
X337411Y282595D01*
X334406Y279589D01*
X331908Y276151D01*
X329978Y272364D01*
X328665Y268323D01*
X328000Y264125D01*
Y259875D01*
X328665Y255678D01*
X329978Y251636D01*
X331908Y247849D01*
X334406Y244411D01*
X337411Y241406D01*
X340849Y238908D01*
X344636Y236978D01*
X348677Y235665D01*
X352875Y235000D01*
X357125D01*
X361323Y235665D01*
X365364Y236978D01*
X369151Y238908D01*
X372589Y241406D01*
X375594Y244411D01*
X378092Y247849D01*
X380022Y251636D01*
X381335Y255678D01*
X382000Y259875D01*
Y264125D01*
X381335Y268323D01*
X380022Y272364D01*
X378092Y276151D01*
X375594Y279589D01*
X372589Y282595D01*
X369151Y285093D01*
X365364Y287022D01*
X361323Y288335D01*
X357125Y289000D01*
D02*
G37*
G36*
X-352875D02*
X-357125D01*
X-361323Y288335D01*
X-365364Y287022D01*
X-369151Y285093D01*
X-372589Y282595D01*
X-375594Y279589D01*
X-378092Y276151D01*
X-380022Y272364D01*
X-381335Y268323D01*
X-382000Y264125D01*
Y259875D01*
X-381335Y255678D01*
X-380022Y251636D01*
X-378092Y247849D01*
X-375594Y244411D01*
X-372589Y241406D01*
X-369151Y238908D01*
X-365364Y236978D01*
X-361323Y235665D01*
X-357125Y235000D01*
X-352875D01*
X-348677Y235665D01*
X-344636Y236978D01*
X-340849Y238908D01*
X-337411Y241406D01*
X-334406Y244411D01*
X-331908Y247849D01*
X-329978Y251636D01*
X-328665Y255678D01*
X-328000Y259875D01*
Y264125D01*
X-328665Y268323D01*
X-329978Y272364D01*
X-331908Y276151D01*
X-334406Y279589D01*
X-337411Y282595D01*
X-340849Y285093D01*
X-344636Y287022D01*
X-348677Y288335D01*
X-352875Y289000D01*
D02*
G37*
G36*
X-118000Y241000D02*
X-147000D01*
Y225000D01*
X-118000D01*
Y241000D01*
D02*
G37*
G36*
X-202500Y239750D02*
X-231500D01*
Y223750D01*
X-202500D01*
Y239750D01*
D02*
G37*
G36*
X45850Y256250D02*
X13850D01*
Y217250D01*
X45850D01*
Y256250D01*
D02*
G37*
G36*
X-9750Y256327D02*
X-12887Y256019D01*
X-15903Y255104D01*
X-18682Y253618D01*
X-21118Y251618D01*
X-23118Y249182D01*
X-24604Y246403D01*
X-25519Y243386D01*
X-25827Y240250D01*
Y233250D01*
X-25519Y230114D01*
X-24604Y227097D01*
X-23118Y224318D01*
X-21118Y221882D01*
X-18682Y219882D01*
X-15903Y218396D01*
X-12887Y217481D01*
X-9750Y217173D01*
X-6613Y217481D01*
X-3597Y218396D01*
X-818Y219882D01*
X1619Y221882D01*
X3618Y224318D01*
X5104Y227097D01*
X6018Y230114D01*
X6327Y233250D01*
Y240250D01*
X6018Y243386D01*
X5104Y246403D01*
X3618Y249182D01*
X1619Y251618D01*
X-818Y253618D01*
X-3597Y255104D01*
X-6613Y256019D01*
X-9750Y256327D01*
D02*
G37*
G36*
X176100Y253750D02*
X144100D01*
Y214750D01*
X176100D01*
Y253750D01*
D02*
G37*
G36*
X120500Y253827D02*
X117363Y253519D01*
X114347Y252604D01*
X111568Y251118D01*
X109131Y249118D01*
X107132Y246682D01*
X105646Y243903D01*
X104732Y240886D01*
X104423Y237750D01*
Y230750D01*
X104732Y227614D01*
X105646Y224597D01*
X107132Y221818D01*
X109131Y219382D01*
X111568Y217382D01*
X114347Y215896D01*
X117363Y214981D01*
X120500Y214673D01*
X123637Y214981D01*
X126653Y215896D01*
X129432Y217382D01*
X131868Y219382D01*
X133868Y221818D01*
X135354Y224597D01*
X136269Y227614D01*
X136577Y230750D01*
Y237750D01*
X136269Y240886D01*
X135354Y243903D01*
X133868Y246682D01*
X131868Y249118D01*
X129432Y251118D01*
X126653Y252604D01*
X123637Y253519D01*
X120500Y253827D01*
D02*
G37*
G36*
X306200Y252500D02*
X274200D01*
Y213500D01*
X306200D01*
Y252500D01*
D02*
G37*
G36*
X250600Y252577D02*
X247463Y252269D01*
X244447Y251354D01*
X241668Y249868D01*
X239232Y247868D01*
X237232Y245432D01*
X235746Y242652D01*
X234832Y239636D01*
X234523Y236500D01*
Y229500D01*
X234832Y226364D01*
X235746Y223347D01*
X237232Y220568D01*
X239232Y218132D01*
X241668Y216132D01*
X244447Y214646D01*
X247463Y213731D01*
X250600Y213423D01*
X253737Y213731D01*
X256753Y214646D01*
X259532Y216132D01*
X261968Y218132D01*
X263968Y220568D01*
X265454Y223347D01*
X266369Y226364D01*
X266677Y229500D01*
Y236500D01*
X266369Y239636D01*
X265454Y242652D01*
X263968Y245432D01*
X261968Y247868D01*
X259532Y249868D01*
X256753Y251354D01*
X253737Y252269D01*
X250600Y252577D01*
D02*
G37*
G36*
X-330684Y216400D02*
X-333316D01*
X-335860Y215718D01*
X-338140Y214402D01*
X-340002Y212540D01*
X-341319Y210260D01*
X-342000Y207717D01*
Y205084D01*
X-341319Y202540D01*
X-340002Y200260D01*
X-338140Y198398D01*
X-335860Y197082D01*
X-333316Y196400D01*
X-330684D01*
X-328140Y197082D01*
X-325860Y198398D01*
X-323998Y200260D01*
X-322682Y202540D01*
X-322000Y205084D01*
Y207717D01*
X-322682Y210260D01*
X-323998Y212540D01*
X-325860Y214402D01*
X-328140Y215718D01*
X-330684Y216400D01*
D02*
G37*
G36*
X274745Y185000D02*
X272755D01*
X270918Y184239D01*
X270205Y183526D01*
X269375Y182930D01*
X268545Y183526D01*
X267832Y184239D01*
X265995Y185000D01*
X264005D01*
X262168Y184239D01*
X261455Y183526D01*
X260625Y182930D01*
X259795Y183526D01*
X259082Y184239D01*
X257245Y185000D01*
X255255D01*
X253418Y184239D01*
X252705Y183526D01*
X251875Y182930D01*
X251045Y183526D01*
X250332Y184239D01*
X248494Y185000D01*
X246505D01*
X244668Y184239D01*
X243955Y183526D01*
X243125Y182930D01*
X242295Y183526D01*
X241582Y184239D01*
X239745Y185000D01*
X237755D01*
X235918Y184239D01*
X235205Y183526D01*
X234375Y182930D01*
X233545Y183526D01*
X232832Y184239D01*
X230995Y185000D01*
X229005D01*
X227168Y184239D01*
X226455Y183526D01*
X225625Y182930D01*
X224795Y183526D01*
X224082Y184239D01*
X222245Y185000D01*
X220255D01*
X218418Y184239D01*
X217705Y183526D01*
X216875Y182930D01*
X216045Y183526D01*
X215332Y184239D01*
X213495Y185000D01*
X211505D01*
X209668Y184239D01*
X208261Y182832D01*
X207500Y180995D01*
Y179005D01*
X208261Y177168D01*
X209668Y175761D01*
X209671Y175760D01*
Y174490D01*
X209668Y174489D01*
X208261Y173082D01*
X207500Y171245D01*
Y169255D01*
X208261Y167418D01*
X209668Y166011D01*
X211505Y165250D01*
X213495D01*
X215332Y166011D01*
X216045Y166724D01*
X216875Y167320D01*
X217705Y166724D01*
X218418Y166011D01*
X220255Y165250D01*
X222245D01*
X224082Y166011D01*
X224795Y166724D01*
X225625Y167320D01*
X226455Y166724D01*
X227168Y166011D01*
X229005Y165250D01*
X230995D01*
X232832Y166011D01*
X233545Y166724D01*
X234375Y167320D01*
X235205Y166724D01*
X235918Y166011D01*
X237755Y165250D01*
X239745D01*
X241582Y166011D01*
X242295Y166724D01*
X243125Y167320D01*
X243955Y166724D01*
X244668Y166011D01*
X246505Y165250D01*
X248494D01*
X250332Y166011D01*
X251045Y166724D01*
X251875Y167320D01*
X252705Y166724D01*
X253418Y166011D01*
X255255Y165250D01*
X257245D01*
X259082Y166011D01*
X259795Y166724D01*
X260625Y167320D01*
X261455Y166724D01*
X262168Y166011D01*
X264005Y165250D01*
X265995D01*
X267832Y166011D01*
X268545Y166724D01*
X269375Y167320D01*
X270205Y166724D01*
X270918Y166011D01*
X272755Y165250D01*
X274745D01*
X276582Y166011D01*
X277989Y167418D01*
X278750Y169255D01*
Y171245D01*
X277989Y173082D01*
X276582Y174489D01*
X276579Y174490D01*
Y175760D01*
X276582Y175761D01*
X277989Y177168D01*
X278750Y179005D01*
Y180995D01*
X277989Y182832D01*
X276582Y184239D01*
X274745Y185000D01*
D02*
G37*
G36*
X-330684Y191000D02*
X-333316D01*
X-335860Y190319D01*
X-338140Y189002D01*
X-340002Y187140D01*
X-341319Y184860D01*
X-342000Y182316D01*
Y179683D01*
X-341319Y177140D01*
X-340002Y174860D01*
X-338140Y172998D01*
X-335860Y171681D01*
X-333316Y171000D01*
X-330684D01*
X-328140Y171681D01*
X-325860Y172998D01*
X-323998Y174860D01*
X-322682Y177140D01*
X-322000Y179683D01*
Y182316D01*
X-322682Y184860D01*
X-323998Y187140D01*
X-325860Y189002D01*
X-328140Y190319D01*
X-330684Y191000D01*
D02*
G37*
G36*
X363500Y178327D02*
X356500D01*
X353363Y178018D01*
X350347Y177104D01*
X347568Y175618D01*
X345131Y173618D01*
X343132Y171182D01*
X341646Y168403D01*
X340732Y165387D01*
X340423Y162250D01*
X340732Y159113D01*
X341646Y156097D01*
X343132Y153318D01*
X345131Y150882D01*
X347568Y148882D01*
X350347Y147396D01*
X353363Y146482D01*
X356500Y146173D01*
X363500D01*
X366637Y146482D01*
X369652Y147396D01*
X372432Y148882D01*
X374868Y150882D01*
X376868Y153318D01*
X378354Y156097D01*
X379268Y159113D01*
X379577Y162250D01*
X379268Y165387D01*
X378354Y168403D01*
X376868Y171182D01*
X374868Y173618D01*
X372432Y175618D01*
X369652Y177104D01*
X366637Y178018D01*
X363500Y178327D01*
D02*
G37*
G36*
X-330684Y165600D02*
X-333316D01*
X-335860Y164918D01*
X-338140Y163602D01*
X-340002Y161740D01*
X-341319Y159460D01*
X-342000Y156917D01*
Y154284D01*
X-341319Y151740D01*
X-340002Y149460D01*
X-338140Y147598D01*
X-335860Y146281D01*
X-333316Y145600D01*
X-330684D01*
X-328140Y146281D01*
X-325860Y147598D01*
X-323998Y149460D01*
X-322682Y151740D01*
X-322000Y154284D01*
Y156917D01*
X-322682Y159460D01*
X-323998Y161740D01*
X-325860Y163602D01*
X-328140Y164918D01*
X-330684Y165600D01*
D02*
G37*
G36*
X-265000Y141700D02*
X-275000D01*
X-280000Y136700D01*
Y126700D01*
X-275000Y121700D01*
X-265000D01*
X-260000Y126700D01*
Y136700D01*
X-265000Y141700D01*
D02*
G37*
G36*
X-330684Y140200D02*
X-333316D01*
X-335860Y139518D01*
X-338140Y138202D01*
X-340002Y136340D01*
X-341319Y134060D01*
X-342000Y131517D01*
Y128883D01*
X-341319Y126340D01*
X-340002Y124060D01*
X-338140Y122198D01*
X-335860Y120882D01*
X-333316Y120200D01*
X-330684D01*
X-328140Y120882D01*
X-325860Y122198D01*
X-323998Y124060D01*
X-322682Y126340D01*
X-322000Y128883D01*
Y131517D01*
X-322682Y134060D01*
X-323998Y136340D01*
X-325860Y138202D01*
X-328140Y139518D01*
X-330684Y140200D01*
D02*
G37*
G36*
X379500Y138650D02*
X340500D01*
Y106650D01*
X379500D01*
Y138650D01*
D02*
G37*
G36*
X-265000Y116300D02*
X-275000D01*
X-280000Y111300D01*
Y101300D01*
X-275000Y96300D01*
X-265000D01*
X-260000Y101300D01*
Y111300D01*
X-265000Y116300D01*
D02*
G37*
G36*
X-322000Y114800D02*
X-342000D01*
Y94800D01*
X-322000D01*
Y114800D01*
D02*
G37*
G36*
X-330984Y80800D02*
X-333616D01*
X-336160Y80119D01*
X-338440Y78802D01*
X-340302Y76940D01*
X-341618Y74660D01*
X-342300Y72117D01*
Y69483D01*
X-341618Y66940D01*
X-340302Y64660D01*
X-338440Y62798D01*
X-336160Y61481D01*
X-333616Y60800D01*
X-330984D01*
X-328440Y61481D01*
X-326160Y62798D01*
X-324298Y64660D01*
X-322981Y66940D01*
X-322300Y69483D01*
Y72117D01*
X-322981Y74660D01*
X-324298Y76940D01*
X-326160Y78802D01*
X-328440Y80119D01*
X-330984Y80800D01*
D02*
G37*
G36*
Y55400D02*
X-333616D01*
X-336160Y54718D01*
X-338440Y53402D01*
X-340302Y51540D01*
X-341618Y49260D01*
X-342300Y46717D01*
Y44083D01*
X-341618Y41540D01*
X-340302Y39260D01*
X-338440Y37398D01*
X-336160Y36082D01*
X-333616Y35400D01*
X-330984D01*
X-328440Y36082D01*
X-326160Y37398D01*
X-324298Y39260D01*
X-322981Y41540D01*
X-322300Y44083D01*
Y46717D01*
X-322981Y49260D01*
X-324298Y51540D01*
X-326160Y53402D01*
X-328440Y54718D01*
X-330984Y55400D01*
D02*
G37*
G36*
X363250Y47577D02*
X356250D01*
X353114Y47269D01*
X350097Y46354D01*
X347318Y44868D01*
X344882Y42868D01*
X342882Y40432D01*
X341396Y37653D01*
X340481Y34636D01*
X340173Y31500D01*
X340481Y28363D01*
X341396Y25347D01*
X342882Y22568D01*
X344882Y20131D01*
X347318Y18132D01*
X350097Y16646D01*
X353114Y15732D01*
X356250Y15423D01*
X363250D01*
X366386Y15732D01*
X369403Y16646D01*
X372182Y18132D01*
X374618Y20131D01*
X376618Y22568D01*
X378104Y25347D01*
X379019Y28363D01*
X379327Y31500D01*
X379019Y34636D01*
X378104Y37653D01*
X376618Y40432D01*
X374618Y42868D01*
X372182Y44868D01*
X369403Y46354D01*
X366386Y47269D01*
X363250Y47577D01*
D02*
G37*
G36*
X-330984Y30000D02*
X-333616D01*
X-336160Y29318D01*
X-338440Y28002D01*
X-340302Y26140D01*
X-341618Y23860D01*
X-342300Y21317D01*
Y18684D01*
X-341618Y16140D01*
X-340302Y13860D01*
X-338440Y11998D01*
X-336160Y10682D01*
X-333616Y10000D01*
X-330984D01*
X-328440Y10682D01*
X-326160Y11998D01*
X-324298Y13860D01*
X-322981Y16140D01*
X-322300Y18684D01*
Y21317D01*
X-322981Y23860D01*
X-324298Y26140D01*
X-326160Y28002D01*
X-328440Y29318D01*
X-330984Y30000D01*
D02*
G37*
G36*
Y4600D02*
X-333616D01*
X-336160Y3918D01*
X-338440Y2602D01*
X-340302Y740D01*
X-341618Y-1540D01*
X-342300Y-4083D01*
Y-6716D01*
X-341618Y-9260D01*
X-340302Y-11540D01*
X-338440Y-13402D01*
X-336160Y-14719D01*
X-333616Y-15400D01*
X-330984D01*
X-328440Y-14719D01*
X-326160Y-13402D01*
X-324298Y-11540D01*
X-322981Y-9260D01*
X-322300Y-6716D01*
Y-4083D01*
X-322981Y-1540D01*
X-324298Y740D01*
X-326160Y2602D01*
X-328440Y3918D01*
X-330984Y4600D01*
D02*
G37*
G36*
X379250Y7900D02*
X340250D01*
Y-24100D01*
X379250D01*
Y7900D01*
D02*
G37*
G36*
X-322300Y-20800D02*
X-342300D01*
Y-40800D01*
X-322300D01*
Y-20800D01*
D02*
G37*
G36*
X371000Y-54431D02*
X359000D01*
X356912Y-54706D01*
X354966Y-55512D01*
X353294Y-56794D01*
X352012Y-58465D01*
X351206Y-60412D01*
X350931Y-62500D01*
X351206Y-64588D01*
X352012Y-66535D01*
X353294Y-68206D01*
X354966Y-69488D01*
X356912Y-70294D01*
X359000Y-70569D01*
X371000D01*
X373088Y-70294D01*
X375034Y-69488D01*
X376706Y-68206D01*
X377988Y-66535D01*
X378794Y-64588D01*
X379069Y-62500D01*
X378794Y-60412D01*
X377988Y-58465D01*
X376706Y-56794D01*
X375034Y-55512D01*
X373088Y-54706D01*
X371000Y-54431D01*
D02*
G37*
G36*
X-377244Y-84460D02*
X-379756D01*
X-382182Y-85110D01*
X-384358Y-86366D01*
X-386134Y-88142D01*
X-387390Y-90318D01*
X-388040Y-92744D01*
Y-95256D01*
X-387390Y-97682D01*
X-386134Y-99858D01*
X-384358Y-101634D01*
X-382182Y-102890D01*
X-379756Y-103540D01*
X-377244D01*
X-374818Y-102890D01*
X-372642Y-101634D01*
X-370866Y-99858D01*
X-369610Y-97682D01*
X-368960Y-95256D01*
Y-92744D01*
X-369610Y-90318D01*
X-370866Y-88142D01*
X-372642Y-86366D01*
X-374818Y-85110D01*
X-377244Y-84460D01*
D02*
G37*
G36*
X-327047Y-109250D02*
X-329953D01*
X-332802Y-109817D01*
X-335487Y-110929D01*
X-337903Y-112543D01*
X-339957Y-114597D01*
X-341571Y-117013D01*
X-342683Y-119698D01*
X-343250Y-122547D01*
Y-125453D01*
X-342683Y-128302D01*
X-341571Y-130987D01*
X-339957Y-133403D01*
X-337903Y-135457D01*
X-335487Y-137071D01*
X-332802Y-138183D01*
X-329953Y-138750D01*
X-327047D01*
X-324198Y-138183D01*
X-321513Y-137071D01*
X-319097Y-135457D01*
X-317043Y-133403D01*
X-315429Y-130987D01*
X-314317Y-128302D01*
X-313750Y-125453D01*
Y-122547D01*
X-314317Y-119698D01*
X-315429Y-117013D01*
X-317043Y-114597D01*
X-319097Y-112543D01*
X-321513Y-110929D01*
X-324198Y-109817D01*
X-327047Y-109250D01*
D02*
G37*
G36*
X-204752Y-160400D02*
X-207648D01*
X-210446Y-161150D01*
X-212954Y-162598D01*
X-215002Y-164646D01*
X-215565Y-165621D01*
X-216835D01*
X-217398Y-164646D01*
X-219446Y-162598D01*
X-221954Y-161150D01*
X-224752Y-160400D01*
X-227648D01*
X-230446Y-161150D01*
X-232954Y-162598D01*
X-235002Y-164646D01*
X-236450Y-167154D01*
X-237200Y-169952D01*
Y-172848D01*
X-236450Y-175646D01*
X-235002Y-178154D01*
X-232954Y-180202D01*
X-230446Y-181650D01*
X-227648Y-182400D01*
X-224752D01*
X-221954Y-181650D01*
X-219446Y-180202D01*
X-217398Y-178154D01*
X-216835Y-177179D01*
X-215565D01*
X-215002Y-178154D01*
X-212954Y-180202D01*
X-210446Y-181650D01*
X-207648Y-182400D01*
X-204752D01*
X-201954Y-181650D01*
X-199446Y-180202D01*
X-197398Y-178154D01*
X-195950Y-175646D01*
X-195200Y-172848D01*
Y-169952D01*
X-195950Y-167154D01*
X-197398Y-164646D01*
X-199446Y-162598D01*
X-201954Y-161150D01*
X-204752Y-160400D01*
D02*
G37*
G36*
X-240200D02*
X-262200D01*
Y-182400D01*
X-240200D01*
Y-160400D01*
D02*
G37*
G36*
X325580Y-145420D02*
X284420D01*
Y-186580D01*
X325580D01*
Y-145420D01*
D02*
G37*
G36*
X371000Y-189431D02*
X359000D01*
X356912Y-189706D01*
X354966Y-190512D01*
X353294Y-191794D01*
X352012Y-193465D01*
X351206Y-195412D01*
X350931Y-197500D01*
X351206Y-199588D01*
X352012Y-201535D01*
X353294Y-203206D01*
X354966Y-204488D01*
X356912Y-205294D01*
X359000Y-205569D01*
X371000D01*
X373088Y-205294D01*
X375034Y-204488D01*
X376706Y-203206D01*
X377988Y-201535D01*
X378794Y-199588D01*
X379069Y-197500D01*
X378794Y-195412D01*
X377988Y-193465D01*
X376706Y-191794D01*
X375034Y-190512D01*
X373088Y-189706D01*
X371000Y-189431D01*
D02*
G37*
G36*
X-377244Y-194460D02*
X-379756D01*
X-382182Y-195110D01*
X-384358Y-196366D01*
X-386134Y-198142D01*
X-387390Y-200318D01*
X-388040Y-202744D01*
Y-205256D01*
X-387390Y-207682D01*
X-386134Y-209858D01*
X-384358Y-211634D01*
X-382182Y-212890D01*
X-379756Y-213540D01*
X-377244D01*
X-374818Y-212890D01*
X-372642Y-211634D01*
X-370866Y-209858D01*
X-369610Y-207682D01*
X-368960Y-205256D01*
Y-202744D01*
X-369610Y-200318D01*
X-370866Y-198142D01*
X-372642Y-196366D01*
X-374818Y-195110D01*
X-377244Y-194460D01*
D02*
G37*
G36*
X-150500Y-173918D02*
X-153833Y-174246D01*
X-157037Y-175218D01*
X-159990Y-176797D01*
X-162579Y-178921D01*
X-164703Y-181510D01*
X-166282Y-184463D01*
X-167254Y-187667D01*
X-167582Y-191000D01*
Y-206000D01*
X-167254Y-209333D01*
X-166282Y-212537D01*
X-164703Y-215490D01*
X-162579Y-218079D01*
X-159990Y-220203D01*
X-157037Y-221782D01*
X-153833Y-222754D01*
X-150500Y-223082D01*
X-147167Y-222754D01*
X-143963Y-221782D01*
X-141010Y-220203D01*
X-138421Y-218079D01*
X-136297Y-215490D01*
X-134718Y-212537D01*
X-133746Y-209333D01*
X-133418Y-206000D01*
Y-191000D01*
X-133746Y-187667D01*
X-134718Y-184463D01*
X-136297Y-181510D01*
X-138421Y-178921D01*
X-141010Y-176797D01*
X-143963Y-175218D01*
X-147167Y-174246D01*
X-150500Y-173918D01*
D02*
G37*
G36*
X-281900D02*
X-285233Y-174246D01*
X-288437Y-175218D01*
X-291390Y-176797D01*
X-293979Y-178921D01*
X-296103Y-181510D01*
X-297682Y-184463D01*
X-298654Y-187667D01*
X-298982Y-191000D01*
Y-206000D01*
X-298654Y-209333D01*
X-297682Y-212537D01*
X-296103Y-215490D01*
X-293979Y-218079D01*
X-291390Y-220203D01*
X-288437Y-221782D01*
X-285233Y-222754D01*
X-281900Y-223082D01*
X-278567Y-222754D01*
X-275363Y-221782D01*
X-272410Y-220203D01*
X-269821Y-218079D01*
X-267697Y-215490D01*
X-266118Y-212537D01*
X-265146Y-209333D01*
X-264818Y-206000D01*
Y-191000D01*
X-265146Y-187667D01*
X-266118Y-184463D01*
X-267697Y-181510D01*
X-269821Y-178921D01*
X-272410Y-176797D01*
X-275363Y-175218D01*
X-278567Y-174246D01*
X-281900Y-173918D01*
D02*
G37*
G36*
X133750Y-221250D02*
X104750D01*
Y-237250D01*
X133750D01*
Y-221250D01*
D02*
G37*
G36*
X-74334Y-266250D02*
X-76967D01*
X-79510Y-266931D01*
X-81790Y-268248D01*
X-83652Y-270110D01*
X-84969Y-272390D01*
X-85650Y-274933D01*
Y-277567D01*
X-84969Y-280110D01*
X-83652Y-282390D01*
X-81790Y-284252D01*
X-79510Y-285569D01*
X-76967Y-286250D01*
X-74334D01*
X-71790Y-285569D01*
X-69510Y-284252D01*
X-67648Y-282390D01*
X-66332Y-280110D01*
X-65650Y-277567D01*
Y-274933D01*
X-66332Y-272390D01*
X-67648Y-270110D01*
X-69510Y-268248D01*
X-71790Y-266931D01*
X-74334Y-266250D01*
D02*
G37*
G36*
X35950Y-266250D02*
X15950D01*
Y-286250D01*
X35950D01*
Y-266250D01*
D02*
G37*
G36*
X1866D02*
X-767D01*
X-3310Y-266931D01*
X-5590Y-268248D01*
X-7452Y-270110D01*
X-8769Y-272390D01*
X-9450Y-274933D01*
Y-277567D01*
X-8769Y-280110D01*
X-7452Y-282390D01*
X-5590Y-284252D01*
X-3310Y-285569D01*
X-767Y-286250D01*
X1866D01*
X4410Y-285569D01*
X6690Y-284252D01*
X8552Y-282390D01*
X9869Y-280110D01*
X10550Y-277567D01*
Y-274933D01*
X9869Y-272390D01*
X8552Y-270110D01*
X6690Y-268248D01*
X4410Y-266931D01*
X1866Y-266250D01*
D02*
G37*
G36*
X-23533D02*
X-26167D01*
X-28710Y-266931D01*
X-30990Y-268248D01*
X-32852Y-270110D01*
X-34169Y-272390D01*
X-34850Y-274933D01*
Y-277567D01*
X-34169Y-280110D01*
X-32852Y-282390D01*
X-30990Y-284252D01*
X-28710Y-285569D01*
X-26167Y-286250D01*
X-23533D01*
X-20990Y-285569D01*
X-18710Y-284252D01*
X-16848Y-282390D01*
X-15532Y-280110D01*
X-14850Y-277567D01*
Y-274933D01*
X-15532Y-272390D01*
X-16848Y-270110D01*
X-18710Y-268248D01*
X-20990Y-266931D01*
X-23533Y-266250D01*
D02*
G37*
G36*
X-48934D02*
X-51567D01*
X-54110Y-266931D01*
X-56390Y-268248D01*
X-58252Y-270110D01*
X-59569Y-272390D01*
X-60250Y-274933D01*
Y-277567D01*
X-59569Y-280110D01*
X-58252Y-282390D01*
X-56390Y-284252D01*
X-54110Y-285569D01*
X-51567Y-286250D01*
X-48934D01*
X-46390Y-285569D01*
X-44110Y-284252D01*
X-42248Y-282390D01*
X-40932Y-280110D01*
X-40250Y-277567D01*
Y-274933D01*
X-40932Y-272390D01*
X-42248Y-270110D01*
X-44110Y-268248D01*
X-46390Y-266931D01*
X-48934Y-266250D01*
D02*
G37*
G36*
X357125Y-235000D02*
X352875D01*
X348677Y-235665D01*
X344636Y-236978D01*
X340849Y-238908D01*
X337411Y-241406D01*
X334406Y-244411D01*
X331908Y-247849D01*
X329978Y-251636D01*
X328665Y-255678D01*
X328000Y-259875D01*
Y-264125D01*
X328665Y-268323D01*
X329978Y-272364D01*
X331908Y-276151D01*
X334406Y-279589D01*
X337411Y-282595D01*
X340849Y-285093D01*
X344636Y-287022D01*
X348677Y-288335D01*
X352875Y-289000D01*
X357125D01*
X361323Y-288335D01*
X365364Y-287022D01*
X369151Y-285093D01*
X372589Y-282595D01*
X375594Y-279589D01*
X378092Y-276151D01*
X380022Y-272364D01*
X381335Y-268323D01*
X382000Y-264125D01*
Y-259875D01*
X381335Y-255678D01*
X380022Y-251636D01*
X378092Y-247849D01*
X375594Y-244411D01*
X372589Y-241406D01*
X369151Y-238908D01*
X365364Y-236978D01*
X361323Y-235665D01*
X357125Y-235000D01*
D02*
G37*
G36*
X-352875D02*
X-357125D01*
X-361323Y-235665D01*
X-365364Y-236978D01*
X-369151Y-238908D01*
X-372589Y-241406D01*
X-375594Y-244411D01*
X-378092Y-247849D01*
X-380022Y-251636D01*
X-381335Y-255678D01*
X-382000Y-259875D01*
Y-264125D01*
X-381335Y-268323D01*
X-380022Y-272364D01*
X-378092Y-276151D01*
X-375594Y-279589D01*
X-372589Y-282595D01*
X-369151Y-285093D01*
X-365364Y-287022D01*
X-361323Y-288335D01*
X-357125Y-289000D01*
X-352875D01*
X-348677Y-288335D01*
X-344636Y-287022D01*
X-340849Y-285093D01*
X-337411Y-282595D01*
X-334406Y-279589D01*
X-331908Y-276151D01*
X-329978Y-272364D01*
X-328665Y-268323D01*
X-328000Y-264125D01*
Y-259875D01*
X-328665Y-255678D01*
X-329978Y-251636D01*
X-331908Y-247849D01*
X-334406Y-244411D01*
X-337411Y-241406D01*
X-340849Y-238908D01*
X-344636Y-236978D01*
X-348677Y-235665D01*
X-352875Y-235000D01*
D02*
G37*
%LPD*%
D33*
X305000Y-94000D02*
D03*
D34*
Y-166000D02*
D03*
D35*
X365000Y-62500D02*
D03*
Y-197500D02*
D03*
D36*
X-132500Y233000D02*
D03*
Y283000D02*
D03*
X119250Y-229250D02*
D03*
Y-279250D02*
D03*
X-217000Y231750D02*
D03*
Y281750D02*
D03*
D37*
X-159500Y258000D02*
D03*
X146250Y-254250D02*
D03*
X-244000Y256750D02*
D03*
D38*
X-75650Y-276250D02*
D03*
X-24850Y-276250D02*
D03*
X550D02*
D03*
X-50250D02*
D03*
X-357700Y70800D02*
D03*
X-332300D02*
D03*
X-357700Y20000D02*
D03*
X-332300D02*
D03*
X-357700Y-30800D02*
D03*
Y-5400D02*
D03*
X-332300D02*
D03*
Y45400D02*
D03*
X-357700D02*
D03*
X-357400Y181000D02*
D03*
X-332000D02*
D03*
Y130200D02*
D03*
X-357400D02*
D03*
Y104800D02*
D03*
X-332000Y155600D02*
D03*
X-357400D02*
D03*
X-332000Y206400D02*
D03*
X-357400D02*
D03*
D39*
X25950Y-276250D02*
D03*
D40*
X-378500Y-204000D02*
D03*
Y-94000D02*
D03*
D41*
X-328500Y-174000D02*
D03*
Y-124000D02*
D03*
D43*
X355000Y-262000D02*
D03*
X-355000Y262000D02*
D03*
Y-262000D02*
D03*
X355000Y262000D02*
D03*
D44*
X-270000Y106300D02*
D03*
Y131700D02*
D03*
D45*
X250600Y233000D02*
D03*
X211000D02*
D03*
X-9750Y236750D02*
D03*
X-49350D02*
D03*
X80900Y234250D02*
D03*
X120500D02*
D03*
D46*
X290200Y233000D02*
D03*
X29850Y236750D02*
D03*
X160100Y234250D02*
D03*
D47*
X360000Y201850D02*
D03*
Y162250D02*
D03*
X359750Y31500D02*
D03*
Y71100D02*
D03*
D48*
X360000Y122650D02*
D03*
X359750Y-8100D02*
D03*
D49*
X-206200Y-171400D02*
D03*
X-181200Y-171400D02*
D03*
X-226200Y-171400D02*
D03*
D50*
X-251200D02*
D03*
D51*
X-281900Y-198500D02*
D03*
X-150500D02*
D03*
D52*
X-332300Y-30800D02*
D03*
X-332000Y104800D02*
D03*
D53*
X212500Y170250D02*
D03*
X221250D02*
D03*
X230000D02*
D03*
X238750D02*
D03*
X273750D02*
D03*
X265000D02*
D03*
X256250D02*
D03*
X247500D02*
D03*
Y180000D02*
D03*
X256250D02*
D03*
X265000D02*
D03*
X273750D02*
D03*
X238750D02*
D03*
X230000D02*
D03*
X221250D02*
D03*
X212500D02*
D03*
D54*
X-197500Y85750D02*
D03*
X-132500Y77500D02*
D03*
X131750Y25750D02*
D03*
%TF.MD5,ce0a1ef0545620a9c12b46f84b923697*%
M02*
