%TF.GenerationSoftware,Altium Limited,Altium Designer,22.5.1 (42)*%
G04 Layer_Color=8388736*
%FSLAX44Y44*%
%MOMM*%
%TF.SameCoordinates,89E13746-3D4A-4BC1-B2AC-D00D571BF165*%
%TF.FilePolarity,Negative*%
%TF.FileFunction,Soldermask,Top*%
%TF.Part,Single*%
G01*
G75*
%TA.AperFunction,SMDPad,CuDef*%
%ADD66R,1.0032X1.0032*%
%ADD67R,1.0532X1.0532*%
%ADD70R,1.0032X1.0032*%
%ADD71R,1.0532X1.0532*%
%ADD72R,1.3632X1.6732*%
%TA.AperFunction,ComponentPad*%
%ADD73C,3.9192*%
%ADD74R,3.9192X3.9192*%
%ADD75O,2.6032X1.4032*%
%ADD76R,2.7032X1.4032*%
%ADD77R,1.4032X2.7032*%
%ADD78C,1.8032*%
%ADD79R,1.8032X1.8032*%
%ADD80C,1.7112*%
%ADD81C,2.7532*%
%ADD82R,2.7532X2.7532*%
%ADD83C,5.2032*%
G04:AMPARAMS|DCode=84|XSize=1.8032mm|YSize=1.8032mm|CornerRadius=0mm|HoleSize=0mm|Usage=FLASHONLY|Rotation=90.000|XOffset=0mm|YOffset=0mm|HoleType=Round|Shape=Octagon|*
%AMOCTAGOND84*
4,1,8,0.4508,0.9016,-0.4508,0.9016,-0.9016,0.4508,-0.9016,-0.4508,-0.4508,-0.9016,0.4508,-0.9016,0.9016,-0.4508,0.9016,0.4508,0.4508,0.9016,0.0*
%
%ADD84OCTAGOND84*%

%ADD85O,3.0032X3.7032*%
%ADD86R,3.0032X3.7032*%
%ADD87O,3.7032X3.0032*%
%ADD88R,3.7032X3.0032*%
%ADD89C,2.0032*%
%ADD90R,2.0032X2.0032*%
%ADD91O,3.2032X4.7032*%
%ADD92R,1.8032X1.8032*%
%TA.AperFunction,ViaPad*%
%ADD93C,0.8032*%
%ADD94C,1.0032*%
%TA.AperFunction,SMDPad,CuDef*%
%ADD101C,2.1500*%
%ADD102R,1.1020X0.5020*%
%ADD103R,2.7020X3.1020*%
%ADD104R,1.2032X1.8032*%
%ADD105O,0.7600X1.3600*%
%ADD106R,0.7600X1.3600*%
G04:AMPARAMS|DCode=107|XSize=4.4032mm|YSize=4.4032mm|CornerRadius=0.3116mm|HoleSize=0mm|Usage=FLASHONLY|Rotation=270.000|XOffset=0mm|YOffset=0mm|HoleType=Round|Shape=RoundedRectangle|*
%AMROUNDEDRECTD107*
21,1,4.4032,3.7800,0,0,270.0*
21,1,3.7800,4.4032,0,0,270.0*
1,1,0.6232,-1.8900,-1.8900*
1,1,0.6232,-1.8900,1.8900*
1,1,0.6232,1.8900,1.8900*
1,1,0.6232,1.8900,-1.8900*
%
%ADD107ROUNDEDRECTD107*%
%ADD108R,1.9520X1.6020*%
%ADD109R,5.4700X3.7200*%
%ADD110R,1.7532X1.3032*%
%ADD111R,1.7532X1.3032*%
%ADD112R,1.7532X3.6532*%
%ADD113R,1.8032X1.2032*%
%ADD114R,3.7200X5.4700*%
%ADD115R,1.6020X1.9520*%
D66*
X-188500Y154500D02*
D03*
Y170500D02*
D03*
X-209500Y154500D02*
D03*
Y170500D02*
D03*
X-187500Y131500D02*
D03*
Y115500D02*
D03*
X-209500Y131500D02*
D03*
Y115500D02*
D03*
X98000Y119500D02*
D03*
Y103500D02*
D03*
X-149750Y24250D02*
D03*
Y40250D02*
D03*
X-121750Y40500D02*
D03*
Y24500D02*
D03*
X-43500Y51250D02*
D03*
Y67250D02*
D03*
D67*
X252000Y-49750D02*
D03*
Y-34250D02*
D03*
X-228500Y170250D02*
D03*
Y154750D02*
D03*
X-135750Y24750D02*
D03*
Y40250D02*
D03*
X-164500Y24750D02*
D03*
Y40250D02*
D03*
X-180000Y24500D02*
D03*
Y40000D02*
D03*
D70*
X254500Y-91500D02*
D03*
X238500D02*
D03*
X96000Y-27500D02*
D03*
X80000D02*
D03*
X-82250Y7750D02*
D03*
X-66250D02*
D03*
X-280000Y-142250D02*
D03*
X-264000D02*
D03*
D71*
X94250Y52500D02*
D03*
X109750D02*
D03*
Y68500D02*
D03*
X94250D02*
D03*
X127250Y156500D02*
D03*
X142750D02*
D03*
X-80500Y81250D02*
D03*
X-65000D02*
D03*
X-131000Y-144000D02*
D03*
X-146500D02*
D03*
D72*
X-209600Y191500D02*
D03*
X-227400D02*
D03*
X251100Y-14000D02*
D03*
X268900D02*
D03*
X144900Y177500D02*
D03*
X127100D02*
D03*
X-95100Y-146000D02*
D03*
X-112900D02*
D03*
D73*
X305000Y-94000D02*
D03*
D74*
Y-166000D02*
D03*
D75*
X365000Y-62500D02*
D03*
Y-197500D02*
D03*
D76*
X-132500Y233000D02*
D03*
Y283000D02*
D03*
X119250Y-229250D02*
D03*
Y-279250D02*
D03*
X-217000Y231750D02*
D03*
Y281750D02*
D03*
D77*
X-159500Y258000D02*
D03*
X146250Y-254250D02*
D03*
X-244000Y256750D02*
D03*
D78*
X-75650Y-276250D02*
D03*
X-24850Y-276250D02*
D03*
X550D02*
D03*
X-50250D02*
D03*
X-357700Y70800D02*
D03*
X-332300D02*
D03*
X-357700Y20000D02*
D03*
X-332300D02*
D03*
X-357700Y-30800D02*
D03*
Y-5400D02*
D03*
X-332300D02*
D03*
Y45400D02*
D03*
X-357700D02*
D03*
X-357400Y181000D02*
D03*
X-332000D02*
D03*
Y130200D02*
D03*
X-357400D02*
D03*
Y104800D02*
D03*
X-332000Y155600D02*
D03*
X-357400D02*
D03*
X-332000Y206400D02*
D03*
X-357400D02*
D03*
D79*
X25950Y-276250D02*
D03*
D80*
X-378500Y-204000D02*
D03*
Y-94000D02*
D03*
D81*
X-328500Y-174000D02*
D03*
D82*
Y-124000D02*
D03*
D83*
X355000Y-262000D02*
D03*
X-355000Y262000D02*
D03*
Y-262000D02*
D03*
X355000Y262000D02*
D03*
D84*
X-270000Y106300D02*
D03*
Y131700D02*
D03*
D85*
X250600Y233000D02*
D03*
X211000D02*
D03*
X-9750Y236750D02*
D03*
X-49350D02*
D03*
X80900Y234250D02*
D03*
X120500D02*
D03*
D86*
X290200Y233000D02*
D03*
X29850Y236750D02*
D03*
X160100Y234250D02*
D03*
D87*
X360000Y201850D02*
D03*
Y162250D02*
D03*
X359750Y31500D02*
D03*
Y71100D02*
D03*
D88*
X360000Y122650D02*
D03*
X359750Y-8100D02*
D03*
D89*
X-206200Y-171400D02*
D03*
X-181200Y-171400D02*
D03*
X-226200Y-171400D02*
D03*
D90*
X-251200D02*
D03*
D91*
X-281900Y-198500D02*
D03*
X-150500D02*
D03*
D92*
X-332300Y-30800D02*
D03*
X-332000Y104800D02*
D03*
D93*
X212500Y170250D02*
D03*
X221250D02*
D03*
X230000D02*
D03*
X238750D02*
D03*
X273750D02*
D03*
X265000D02*
D03*
X256250D02*
D03*
X247500D02*
D03*
Y180000D02*
D03*
X256250D02*
D03*
X265000D02*
D03*
X273750D02*
D03*
X238750D02*
D03*
X230000D02*
D03*
X221250D02*
D03*
X212500D02*
D03*
D94*
X-197500Y85750D02*
D03*
X-132500Y77500D02*
D03*
X131750Y25750D02*
D03*
D101*
X197500Y-275250D02*
D03*
X245500Y-275250D02*
D03*
X197500Y-245250D02*
D03*
X245500Y-245250D02*
D03*
D102*
X-63500Y26500D02*
D03*
Y34500D02*
D03*
Y42500D02*
D03*
Y50500D02*
D03*
Y58500D02*
D03*
X-103500D02*
D03*
Y50500D02*
D03*
Y42500D02*
D03*
Y34500D02*
D03*
Y26500D02*
D03*
D103*
X-83500Y42500D02*
D03*
D104*
X257250Y-196000D02*
D03*
X227250D02*
D03*
X256000Y-140000D02*
D03*
X226000D02*
D03*
X255500Y-115500D02*
D03*
X225500D02*
D03*
X-236250Y-56250D02*
D03*
X-206250D02*
D03*
X-235750Y-29750D02*
D03*
X-205750D02*
D03*
D105*
X106000Y19500D02*
D03*
X96500D02*
D03*
X115500Y-6500D02*
D03*
X106000D02*
D03*
X96500D02*
D03*
D106*
X115500Y19500D02*
D03*
D107*
X183000Y-43500D02*
D03*
Y50500D02*
D03*
X-132500Y-13000D02*
D03*
Y-107000D02*
D03*
D108*
X184000Y102500D02*
D03*
Y123500D02*
D03*
D109*
X141000Y113000D02*
D03*
D110*
X-161250Y154500D02*
D03*
Y131500D02*
D03*
D111*
Y177500D02*
D03*
D112*
X-93750Y154500D02*
D03*
D113*
X-42000Y5000D02*
D03*
Y35000D02*
D03*
D114*
X-50500Y-40250D02*
D03*
D115*
X-40000Y-83250D02*
D03*
X-61000D02*
D03*
%TF.MD5,eb840e63501a73fe22fa0b5a625ff07b*%
M02*
