M48
;Layer_Color=9474304
;FILE_FORMAT=4:4
METRIC,LZ
;TYPE=PLATED
T4F00S00C0.8000
%
G90
G05
T04
G00X-00434Y-001945
M15
G01X-00451
M16
G00X-004155Y-001365
M15
G01Y-001585
M16
G00X-004775Y-001365
M15
G01Y-001585
M16
G00X004205Y-00161
M15
G01Y-00139
M16
G00X004825Y-00161
M15
G01Y-00139
M16
G00X00439Y-00103
M15
G01X00456
M16
G00X-004335Y-00077
M15
G01X-004505
M16
G00X-00415Y-00019
M15
G01Y-00041
M16
G00X-00477Y-00019
M15
G01Y-00041
M16
G00X-00434Y000405
M15
G01X-00451
M16
G00X-004155Y000985
M15
G01Y000765
M16
G00X-004775Y000985
M15
G01Y000765
M16
G00X-004315Y001605
M15
G01X-004485
M16
G00X-00413Y002185
M15
G01Y001965
M16
G00X-00475Y002185
M15
G01Y001965
M16
M17
M30
